<svg width="79" height="69" viewBox="0 0 79 69" fill="none" xmlns="http://www.w3.org/2000/svg">
<path d="M74.5555 46.6669C74.5555 46.6669 78.8613 44.611 78.9977 39.3507C79.1341 34.0904 73.1518 33.9405 73.1518 33.9405C76.1702 31.4533 75.3436 27.2197 75.3436 27.2197C75.3509 19.4611 69.308 19.1705 69.308 19.1705C69.308 19.1705 71.6062 16.4152 70.5183 12.8222C68.4037 5.83829 61.4711 7.68555 61.4711 7.68555C60.7142 4.07059 57.9131 1.22779 54.363 0.670374C54.3091 0.661807 54.2559 0.653866 54.202 0.645912C50.5785 0.117863 47.0351 2.09238 45.35 5.44423L45.1132 5.91539C44.978 5.47056 44.7461 5.0141 44.4677 4.57293C43.028 2.29186 40.6367 0.836194 38.021 0.446429C31.8043 -0.47934 28.9022 4.30983 28.9022 4.30983C26.3409 1.20089 20.5066 2.38791 20.5066 2.38791C7.68416 5.50665 10.9724 18.6094 10.9724 18.6094C10.9724 18.6094 4.98455 14.8084 1.09363 23.6659C-2.79668 32.524 4.94234 38.5841 4.94234 38.5841C3.77121 39.0638 2.6937 41.3999 2.6937 41.3999C-0.0628031 50.3058 11.0782 52.7588 11.0782 52.7588C7.21791 61.6298 18.165 61.2914 18.165 61.2914C19.3398 66.064 23.1022 62.2019 23.1022 62.2019C22.9517 68.1683 27.3499 65.3793 27.3499 65.3793C28.4567 68.8982 31.4274 65.1217 31.4274 65.1217L32.0448 65C32.1543 66.4874 33.3683 67.6941 34.9175 67.7565C36.2851 67.8122 37.4629 66.9555 37.8809 65.741C38.6794 67.0504 40.1986 67.97 41.981 68.0422C44.6341 68.1499 46.8644 66.3424 47.0229 63.9879C47.5112 64.669 48.295 65.1334 49.2061 65.1707C50.4421 65.2209 51.5128 64.4744 51.9375 63.3993C54.068 67.8299 57.7026 64.2357 57.7026 64.2357C61.1181 66.5884 62.466 62.7679 62.466 62.7679C62.466 62.7679 65.5658 65.1903 68.8436 60.7328C70.6811 58.2339 68.8038 54.1288 68.8038 54.1288C68.8038 54.1288 72.6109 56.9752 75.3179 53.6319C78.3093 49.9356 74.5555 46.6669 74.5555 46.6669Z" fill="#F83B41"/>
<path d="M35.1184 57.2417L35.1649 61.4802L32.2922 61.5389C32.2922 61.5389 31.1804 67.4252 37.8486 67.8125C43.5629 68.1441 44.4373 61.3511 44.4373 61.3511L40.8719 61.2416V57.0288L35.1184 57.2417Z" fill="#FDFDFF" stroke="#FDFDFF" stroke-width="0.441652" stroke-miterlimit="10"/>
<path d="M59.2633 42.6436C57.7979 41.757 55.8778 42.0709 54.3114 43.269C54.4234 42.5084 54.4944 41.7338 54.5103 40.9439C54.5152 40.696 54.5011 40.4531 54.4968 40.2071C54.2423 40.2053 53.9877 40.2041 53.7332 40.1937C51.2208 40.0909 49.6373 38.1586 47.3972 37.0015C45.5353 36.0396 44.8579 35.8683 43.5069 34.2658C42.2354 32.7588 38.5776 29.4412 37.9339 26.6382C36.2084 29.3965 33.4685 32.544 31.1794 34.1881C27.6538 36.7201 24.4824 39.6112 20.1308 40.086C20.1295 40.1362 20.1253 40.1857 20.124 40.2359C20.113 40.7664 20.1289 41.2914 20.1626 41.8115C19.2301 41.2033 18.1636 40.961 17.1265 41.2155C14.7769 41.7937 13.473 44.702 14.2133 47.7124C14.9537 50.7222 17.4587 52.6937 19.8083 52.1155C21.0333 51.8138 21.9701 50.8758 22.4853 49.6233C25.4088 54.7661 30.7621 58.2655 36.9512 58.3927C43.1881 58.5212 48.7201 55.1944 51.8394 50.1097C52.1203 51.0104 52.6618 51.7685 53.4523 52.247C55.5223 53.4995 58.5015 52.3651 60.1059 49.7133C61.7108 47.0614 61.3339 43.8961 59.2633 42.6436Z" fill="#FDFDFF" stroke="#FDFDFF" stroke-width="0.559683" stroke-miterlimit="10"/>
<path d="M20.7947 44.4211C20.1295 43.6556 19.3323 42.9562 18.4297 42.6803C17.537 42.389 16.5678 42.8785 16.0808 43.6354C15.5913 44.4137 15.601 45.4545 15.7528 46.4256C15.918 47.4089 16.2099 48.3873 16.5813 49.3418C16.0269 48.4778 15.5925 47.5264 15.3422 46.5082C15.1018 45.5096 15.0167 44.3428 15.6163 43.3448C15.9192 42.8559 16.3794 42.4937 16.8988 42.2734C17.4281 42.0543 18.0504 42.0568 18.5674 42.2569C19.6131 42.665 20.3064 43.5296 20.7947 44.4211Z" fill="#6B7280"/>
<path d="M22.9633 50.258C22.4897 49.5954 22.2045 48.8201 21.9616 48.0491C21.8478 47.6594 21.7517 47.2653 21.671 46.8682C21.592 46.4705 21.5364 46.0691 21.4941 45.6665C21.6795 46.4546 21.8564 47.2409 22.0932 48.01C22.2039 48.3967 22.333 48.7779 22.4737 49.1548C22.6194 49.5287 22.7675 49.9044 22.9633 50.258Z" fill="#6B7280"/>
<path d="M54.1211 45.2944C54.7158 44.4702 55.5107 43.6974 56.5974 43.4221C57.1352 43.2874 57.7532 43.3615 58.2513 43.6448C58.7395 43.9281 59.1513 44.3435 59.3918 44.8667C59.8635 45.9314 59.6347 47.0786 59.2725 48.0399C58.8986 49.0189 58.3504 49.9098 57.6932 50.6985C58.1797 49.7966 58.5908 48.8622 58.876 47.9071C59.1464 46.9624 59.2853 45.9301 58.8956 45.098C58.5058 44.2872 57.6051 43.6809 56.683 43.8602C55.753 44.0217 54.8755 44.617 54.1211 45.2944Z" fill="#6B7280"/>
<path d="M51.5176 50.5775C51.6993 50.2159 51.8327 49.8347 51.9636 49.4553C52.0897 49.0735 52.2041 48.688 52.2996 48.297C52.507 47.5193 52.6526 46.727 52.8074 45.9321C52.7811 46.336 52.7413 46.7398 52.6771 47.14C52.6122 47.5401 52.5315 47.9379 52.4323 48.3313C52.22 49.1108 51.9649 49.8971 51.5176 50.5775Z" fill="#6B7280"/>
<path d="M55.8459 54.1829L54.8192 52.6845L53.7845 54.0318L53.9877 51.93L52.8086 51.2276L54.2704 51.1254L54.9391 49.5981L55.4133 51.186L56.9118 51.446L55.7511 52.1203L55.8459 54.1829Z" fill="white" stroke="white" stroke-width="0.141955" stroke-miterlimit="10" stroke-linecap="round"/>
<path d="M20.8874 53.985L19.6313 52.6738L18.8291 54.1711L18.6877 52.0643L17.4102 51.5626L18.8358 51.2242L19.2476 49.6089L19.9739 51.0976L21.4944 51.1117L20.4591 51.9652L20.8874 53.985Z" fill="white" stroke="white" stroke-width="0.141955" stroke-miterlimit="10" stroke-linecap="round"/>
<path opacity="0.49" d="M32.7992 49.817C32.5625 52.453 30.233 54.3975 27.5971 54.1601C24.9611 53.9233 23.0166 51.5939 23.254 48.9579C23.4914 46.322 25.8202 44.3774 28.4562 44.6148C31.0921 44.8516 33.0367 47.181 32.7992 49.817Z" fill="#6B7280" stroke="#6B7280" stroke-width="0.621911" stroke-miterlimit="10"/>
<path opacity="0.49" d="M51.518 49.5865C51.2806 52.2225 48.9518 54.167 46.3158 53.9296C43.6799 53.6928 41.7353 51.3634 41.9727 48.7275C42.2102 46.0915 44.539 44.147 47.1749 44.3844C49.8103 44.6218 51.7548 46.9506 51.518 49.5865Z" fill="#6B7280" stroke="#6B7280" stroke-width="0.621911" stroke-miterlimit="10"/>
<path d="M37.7336 26.5838C37.5911 27.3683 37.2392 28.1013 36.9455 28.8367C36.6824 29.4951 36.5325 30.1884 36.8691 30.8565C37.1695 31.4531 37.9331 31.9071 38.5878 31.5798C39.0804 31.3338 39.2743 30.5904 38.8681 30.1749C38.37 29.6664 37.4601 30.0954 37.0361 30.4906C36.4499 31.0364 36.2651 31.9169 36.5545 32.6597C36.7871 33.2557 37.4167 33.8015 38.0806 33.498C38.586 33.2667 38.7683 32.4627 38.1479 32.2388C37.4387 31.9824 36.7614 32.6977 36.628 33.331C36.4438 34.2047 37.0612 34.9684 37.7306 35.4389C37.949 35.5925 38.1564 35.2333 37.9398 35.0809C37.4436 34.7322 36.948 34.1784 37.0183 33.5255C37.0514 33.2227 37.2129 32.91 37.4736 32.7399C37.5568 32.6854 37.7942 32.5502 37.8835 32.6114C37.938 32.7509 37.9931 32.8898 38.0475 33.0287C37.9533 33.1168 37.8425 33.1639 37.7159 33.1694C36.9761 33.2123 36.7497 32.1207 36.8684 31.5828C37.0012 30.9826 37.5776 30.3811 38.2256 30.3744C38.6307 30.3701 38.8099 30.7599 38.5615 31.0768C38.2923 31.4201 37.7502 31.2524 37.4834 31.004C37.0453 30.5965 37.0073 29.9265 37.1787 29.3893C37.4681 28.4794 37.9606 27.6418 38.1332 26.6933C38.1809 26.4333 37.7814 26.3213 37.7336 26.5838Z" fill="#F83B41"/>
<path d="M30.2719 31.2104C29.6674 31.1357 29.0971 31.162 28.555 31.2153C28.0122 31.2826 27.4921 31.3994 26.988 31.5818C26.4832 31.7653 25.9961 32.0076 25.5048 32.2824C25.2582 32.4176 25.0239 32.5816 24.7663 32.7235C24.5105 32.8722 24.2804 33.0533 23.9965 33.1959L23.9855 33.2014C23.9726 33.2082 23.9567 33.2026 23.95 33.1898C23.9451 33.1794 23.9469 33.1678 23.9543 33.1598L24.5656 32.5118C24.7926 32.3209 25.003 32.108 25.2447 31.9342C25.7183 31.5732 26.2427 31.2789 26.8001 31.0617C27.9272 30.6762 29.2036 30.6591 30.297 31.1608C30.3105 31.1669 30.316 31.1828 30.3098 31.1957C30.305 31.2067 30.2939 31.2122 30.2823 31.211L30.2719 31.2104Z" fill="#2E2E2E"/>
<path d="M43.4927 30.9282C43.9216 30.4644 44.5133 30.1573 45.1417 30.0251C45.7719 29.877 46.4376 29.9088 47.0691 30.052C47.692 30.2282 48.2806 30.5036 48.7774 30.8921C49.0332 31.0738 49.2461 31.31 49.4658 31.5242C49.653 31.7781 49.8495 32.0131 50.0031 32.2829L50.0061 32.289C50.0135 32.3019 50.0092 32.3184 49.9957 32.3263C49.9853 32.3319 49.9731 32.3306 49.9645 32.3233L49.2871 31.7542C49.0412 31.5921 48.8105 31.4067 48.5529 31.2641C48.0469 30.9637 47.5005 30.7361 46.9339 30.588C45.805 30.3053 44.5476 30.3953 43.5214 30.9753C43.508 30.9827 43.4915 30.9784 43.4841 30.9649C43.478 30.9545 43.4798 30.9411 43.4878 30.9331L43.4927 30.9282Z" fill="#2E2E2E"/>
<path d="M34.7129 45.8289C34.8004 45.2011 35.0702 44.5856 35.5132 44.0869C35.9489 43.587 36.6109 43.2302 37.2987 43.1954C37.637 43.1733 37.9901 43.2064 38.3242 43.3214C38.6515 43.4524 38.9526 43.6518 39.1741 43.9143C39.6244 44.4344 39.8141 45.0977 39.8104 45.7292C39.5975 45.1381 39.302 44.5849 38.8761 44.2056C38.4539 43.8213 37.9063 43.6739 37.3384 43.7277C36.7725 43.7491 36.2475 44.0037 35.8057 44.3818C35.3651 44.7661 35.0084 45.2721 34.7129 45.8289Z" fill="#6B7280"/>
<g opacity="0.53">
<path d="M39.8456 45.9204C39.8456 45.9204 39.6522 43.6938 37.742 43.5604C35.5172 43.405 34.748 45.828 34.748 45.828" fill="#6B7280"/>
<path d="M39.8469 45.9206C39.6572 45.3216 39.3831 44.7575 38.9719 44.3622C38.5638 43.9626 38.0229 43.7944 37.4533 43.8274C36.8873 43.828 36.3531 44.0624 35.8979 44.4234C35.4432 44.7917 35.0676 45.2843 34.75 45.8289C34.8607 45.2047 35.1532 44.599 35.6152 44.1174C36.0698 43.6347 36.7453 43.303 37.4337 43.2945C37.7727 43.2859 38.1245 43.3312 38.4537 43.4597C38.7761 43.6022 39.0686 43.8139 39.2797 44.0844C39.7092 44.621 39.8738 45.2898 39.8469 45.9206Z" fill="#6B7280"/>
</g>
<path d="M50.3982 41.3265C50.3266 43.8413 48.1636 45.8103 45.568 45.724C42.9719 45.6378 40.9257 43.5292 40.9979 41.015C41.0695 38.5002 43.2325 36.5312 45.8281 36.6175C48.4243 36.7038 50.4704 38.8117 50.3982 41.3265Z" fill="white"/>
<path d="M47.2125 43.9084C49.0028 43.6768 50.2581 41.9745 50.0164 40.1062C49.7747 38.2378 48.1274 36.911 46.3372 37.1426C44.547 37.3743 43.2916 39.0766 43.5334 40.9449C43.7751 42.8132 45.4223 44.14 47.2125 43.9084Z" fill="#280707" stroke="#280707" stroke-width="0.521747" stroke-miterlimit="10"/>
<path d="M40.8496 40.1993C41.1396 39.1071 41.7613 38.0926 42.6589 37.3173C43.5523 36.5201 44.8286 36.1756 46.0261 36.2667C47.2052 36.3451 48.3879 36.8437 49.2611 37.6869C49.6973 38.1115 49.9965 38.6494 50.2168 39.1921C50.4395 39.7397 50.5472 40.3137 50.5332 40.9048L50.3637 40.7677C50.691 40.7445 51.0196 40.7279 51.3506 40.723L51.3592 40.772L50.393 40.939L50.363 40.9445L50.36 40.9127C50.2523 39.8224 49.7726 38.7491 48.968 37.9965C48.1615 37.2439 47.0754 36.8413 45.982 36.7507C45.435 36.6981 44.8806 36.7397 44.3501 36.8835C43.8251 37.0414 43.324 37.2831 42.8823 37.6135C42.0091 38.2847 41.3312 39.2056 40.8967 40.2158L40.8496 40.1993Z" fill="black"/>
<path d="M50.1328 39.766L51.247 39.6626L50.3048 40.2659L50.1328 39.766Z" fill="black"/>
<path d="M49.7109 38.771L50.7621 38.5269L49.9532 39.2409L49.7109 38.771Z" fill="black"/>
<path d="M42.2598 44.5795C42.9157 44.8916 43.5979 45.1167 44.282 45.2819C44.9685 45.4367 45.6685 45.5071 46.3532 45.4367C47.041 45.3866 47.7073 45.1657 48.3063 44.8157C48.9268 44.4895 49.4414 43.9945 49.9682 43.4897C49.7693 43.7896 49.5741 44.1065 49.3306 44.3819C49.073 44.645 48.8197 44.9228 48.4972 45.1192C48.2041 45.3596 47.845 45.49 47.5042 45.6521C47.1413 45.7592 46.7766 45.8651 46.3979 45.8932C45.6453 45.9611 44.8872 45.8601 44.1853 45.6252C43.4829 45.3933 42.8227 45.0433 42.2598 44.5795Z" fill="black"/>
<path d="M23.3443 40.8346C23.075 43.2661 24.9345 45.4518 27.4971 45.7161C30.0602 45.9804 32.356 44.2237 32.6252 41.7921C32.8944 39.3605 31.0349 37.1749 28.4724 36.9106C25.9093 36.6463 23.6135 38.403 23.3443 40.8346Z" fill="white"/>
<path d="M26.0597 40.1673C25.6247 42.0004 26.6967 43.8196 28.454 44.232C30.2113 44.6438 31.9888 43.4922 32.4244 41.659C32.8595 39.8265 31.7875 38.0067 30.0302 37.5949C28.2723 37.1825 26.4948 38.3341 26.0597 40.1673Z" fill="#280707" stroke="#280707" stroke-width="0.521747" stroke-miterlimit="10"/>
<path d="M32.7771 40.8959C32.555 40.3881 32.3005 39.8992 31.9872 39.4586C31.6843 39.0132 31.3484 38.5996 30.9568 38.2569C30.5572 37.9234 30.1259 37.6548 29.6676 37.4504C29.2007 37.2638 28.7026 37.1665 28.196 37.1555C27.1674 37.1133 26.1242 37.303 25.2878 37.8733C24.425 38.4044 23.7978 39.3185 23.4234 40.311L23.3609 40.4762L23.2368 40.4236C22.9345 40.2957 22.6347 40.1604 22.3379 40.0142L22.3526 39.9665L23.2888 40.2577L23.2527 40.2798C23.5054 39.1943 24.127 38.1829 25.0399 37.5269C25.9553 36.8759 27.1069 36.6042 28.2192 36.6703C28.7785 36.6972 29.3329 36.8208 29.8468 37.0442C30.3541 37.2803 30.8234 37.5979 31.2187 37.9944C31.9976 38.7972 32.5379 39.8092 32.8267 40.8861L32.7771 40.8959Z" fill="black"/>
<path d="M23.4507 39.6581L22.5996 38.9312L23.6894 39.1863L23.4507 39.6581Z" fill="black"/>
<path d="M23.9355 38.6887L23.2324 37.8706L24.2396 38.2567L23.9355 38.6887Z" fill="black"/>
<path d="M31.1776 44.7568C30.5829 45.1784 29.8988 45.4788 29.1811 45.6605C28.4634 45.8441 27.7004 45.8894 26.9545 45.767C26.5788 45.7113 26.2227 45.5798 25.8684 45.4464C25.5398 45.2598 25.1911 45.1037 24.9163 44.8425C24.6092 44.6234 24.3766 44.3279 24.1392 44.047C23.9159 43.7539 23.7446 43.4247 23.5684 43.1108C24.0566 43.6524 24.5345 44.1835 25.1293 44.5543C25.7014 44.9465 26.3499 45.2157 27.0322 45.3154C27.7101 45.4354 28.4132 45.4158 29.1095 45.3118C29.804 45.1949 30.5009 45.0205 31.1776 44.7568Z" fill="black"/>
<path opacity="0.49" d="M41.7636 46.6448C41.9581 47.1968 41.0464 49.9159 38.7513 50.4642C36.6495 50.9659 34.3862 49.7146 34.2656 48.6597C34.2656 48.6597 36.22 46.8829 38.315 46.6436C40.4101 46.4044 41.7636 46.6448 41.7636 46.6448Z" fill="#6B7280"/>
<path d="M33.0098 48.3039C33.4522 48.414 33.8927 48.5107 34.3412 48.5566C34.7854 48.6227 35.2321 48.6478 35.6775 48.6563C36.5672 48.6575 37.4532 48.5523 38.297 48.302C39.142 48.0622 39.9564 47.6981 40.687 47.1945C41.4445 46.7222 42.0784 46.084 42.7313 45.4458C42.4706 45.8154 42.2124 46.199 41.9095 46.5441C41.5834 46.8666 41.2756 47.216 40.895 47.484C40.1803 48.0799 39.3158 48.485 38.423 48.7481C37.5254 49.002 36.5825 49.0987 35.6598 49.0112C34.7401 48.9243 33.8297 48.7089 33.0098 48.3039Z" fill="#3B130E"/>
</svg>
