<svg width="48" height="33" viewBox="0 0 48 33" fill="none" xmlns="http://www.w3.org/2000/svg">
<path d="M43 1.375C45.4853 1.375 47.5 3.38972 47.5 5.875V27.875C47.5 30.3603 45.4853 32.375 43 32.375H0.5V1.375H43Z" fill="#F3F3F6"/>
<path d="M43 1.375C45.4853 1.375 47.5 3.38972 47.5 5.875V27.875C47.5 30.3603 45.4853 32.375 43 32.375H0.5V1.375H43Z" stroke="#C9C0D4"/>
<path d="M15 17.875H17V15.875H15V17.875ZM15 21.875H17V19.875H15V21.875ZM15 13.875H17V11.875H15V13.875ZM19 17.875H33V15.875H19V17.875ZM19 21.875H33V19.875H19V21.875ZM19 11.875V13.875H33V11.875H19Z" fill="#6B7280"/>
</svg>
