<svg width="48" height="33" viewBox="0 0 48 33" fill="none" xmlns="http://www.w3.org/2000/svg">
<path d="M5 1.375H47.5V32.375H5C2.51472 32.375 0.5 30.3603 0.5 27.875V5.875C0.5 3.38972 2.51472 1.375 5 1.375Z" fill="#F3F2FF"/>
<path d="M5 1.375H47.5V32.375H5C2.51472 32.375 0.5 30.3603 0.5 27.875V5.875C0.5 3.38972 2.51472 1.375 5 1.375Z" stroke="#7A5FFF"/>
<g clip-path="url(#clip0_3120_8851)">
<path d="M20.7428 13.6178V16.3101H23.4351V13.6178H20.7428ZM24.5889 13.6178V16.3101H27.2812V13.6178H24.5889ZM28.4351 13.6178V16.3101H31.1274V13.6178H28.4351ZM28.4351 17.4639V20.1562H31.1274V17.4639H28.4351ZM24.5889 17.4639V20.1562H27.2812V17.4639H24.5889ZM24.5889 21.3101V24.0024H27.2812V21.3101H24.5889ZM20.7428 21.3101V24.0024H23.4351V21.3101H20.7428ZM20.7428 17.4639V20.1562H23.4351V17.4639H20.7428ZM16.8966 21.3101V24.0024H19.5889V21.3101H16.8966ZM16.8966 17.4639V20.1562H19.5889V17.4639H16.8966ZM20.1538 9.84375V7.36779C20.1538 7.23958 20.1158 7.1254 20.0397 7.02524C19.9635 6.92508 19.8734 6.875 19.7692 6.875H19C18.8958 6.875 18.8057 6.92508 18.7296 7.02524C18.6534 7.1254 18.6154 7.23958 18.6154 7.36779V9.84375C18.6154 9.97997 18.6534 10.0942 18.7296 10.1863C18.8057 10.2784 18.8958 10.3285 19 10.3365H19.7692C19.8814 10.3285 19.9736 10.2784 20.0457 10.1863C20.1178 10.0942 20.1538 9.97997 20.1538 9.84375ZM15.5385 26.875H32.4615C32.8782 26.875 33.2348 26.7308 33.5312 26.4423C33.8277 26.1538 33.984 25.8013 34 25.3846V9.90385C34 9.49519 33.8478 9.14463 33.5433 8.85216C33.2388 8.5597 32.8782 8.41346 32.4615 8.41346H30.1538V9.56731C30.1538 10.0721 30.0697 10.4547 29.9014 10.7151C29.7332 10.9756 29.4327 11.1058 29 11.1058H28.2308C27.4615 11.0978 27.0769 10.5889 27.0769 9.57933V8.41346H20.9231V9.57933C20.9231 10.5889 20.5385 11.0978 19.7692 11.1058H19C18.5673 11.1058 18.2668 10.9756 18.0986 10.7151C17.9303 10.4547 17.8462 10.0721 17.8462 9.56731V8.41346H15.5385C15.1218 8.41346 14.7612 8.5597 14.4567 8.85216C14.1522 9.14463 14 9.49519 14 9.90385V25.3846C14 25.7933 14.1502 26.1418 14.4507 26.4303C14.7512 26.7188 15.1138 26.867 15.5385 26.875ZM15.5385 12.2596H32.4615V25.3365H15.5385V12.2596ZM29.3846 9.84375V7.36779C29.3846 7.23958 29.3466 7.1254 29.2704 7.02524C29.1943 6.92508 29.1042 6.875 29 6.875H28.2308C28.1266 6.875 28.0365 6.92508 27.9603 7.02524C27.8842 7.1254 27.8462 7.23958 27.8462 7.36779V9.84375C27.8462 9.97997 27.8842 10.0942 27.9603 10.1863C28.0365 10.2784 28.1266 10.3285 28.2308 10.3365H29C29.1122 10.3285 29.2043 10.2784 29.2764 10.1863C29.3486 10.0942 29.3846 9.97997 29.3846 9.84375Z" fill="#7A5FFF"/>
</g>
<defs>
<clipPath id="clip0_3120_8851">
<rect width="20" height="20" fill="white" transform="translate(14 6.875)"/>
</clipPath>
</defs>
</svg>
