<svg width="18" height="18" viewBox="0 0 18 18" fill="none" xmlns="http://www.w3.org/2000/svg">
<g clip-path="url(#clip0_705_8100)">
<path d="M17.3052 3.58245C17.304 3.58245 17.3029 3.58245 17.3018 3.58245H16.1663V3.19391C16.1724 3.04013 16.073 2.90192 15.9252 2.85896C15.1369 2.65238 14.3251 2.5488 13.5102 2.55081C12.1704 2.55081 10.3449 2.85226 8.99508 4.22555C7.65529 2.83887 5.81642 2.55081 4.47998 2.55081C3.66505 2.5488 2.8533 2.65238 2.065 2.85896C1.9172 2.90192 1.81772 3.04013 1.82383 3.19391V3.5791H0.695056C0.510081 3.5791 0.360107 3.72908 0.360107 3.91405V14.6123C0.360107 14.7973 0.510081 14.9473 0.695056 14.9473C0.752584 14.9471 0.809106 14.9321 0.859181 14.9037C0.892676 14.887 4.24216 13.0548 8.91805 14.2338H8.96829H8.99843C9.02515 14.237 9.05211 14.237 9.07882 14.2338C13.7681 13.0448 17.1176 14.8736 17.1377 14.9037C17.2413 14.9635 17.369 14.9635 17.4726 14.9037C17.5756 14.8443 17.6394 14.7346 17.6401 14.6157V3.9174C17.6401 3.73242 17.4902 3.58245 17.3052 3.58245ZM1.03 14.0797V4.25235H1.83053V12.6529C1.82844 12.8378 1.9767 12.9895 2.16167 12.9916C2.17976 12.9918 2.19785 12.9905 2.21572 12.9878C2.90865 12.882 3.60823 12.826 4.30915 12.8203C5.28008 12.8035 6.24696 12.9495 7.16961 13.2524C5.08602 13.0005 2.97258 13.2852 1.03 14.0797ZM4.30915 12.1538C3.69992 12.1552 3.0914 12.1943 2.48703 12.271V3.45852C3.13918 3.31324 3.80514 3.23909 4.47328 3.23745C5.72599 3.23745 7.45432 3.52551 8.65344 4.8787L8.66348 13.2223C7.96679 12.7667 6.6069 12.1538 4.30915 12.1538ZM9.33338 4.8787C10.5325 3.53891 12.2608 3.23745 13.5135 3.23745C14.1816 3.23942 14.8476 3.31353 15.4998 3.45852V12.271C14.8988 12.1936 14.2936 12.1533 13.6877 12.1504C11.4034 12.1504 10.0401 12.7634 9.33338 13.2189V4.8787ZM16.9669 14.0797C15.0201 13.2831 12.9018 12.9982 10.8139 13.2524C11.7409 12.9485 12.7123 12.8024 13.6877 12.8203C14.393 12.8243 15.0971 12.8791 15.7945 12.9845C15.9774 13.0122 16.1482 12.8864 16.176 12.7036C16.1787 12.6857 16.1799 12.6676 16.1797 12.6495V4.25235H16.9803L16.9669 14.0797Z" fill="#FF33FF"/>
</g>
<defs>
<clipPath id="clip0_705_8100">
<rect width="17.28" height="17.28" fill="white" transform="translate(0.359863 0.110352)"/>
</clipPath>
</defs>
</svg>
