<svg width="49" height="33" viewBox="0 0 49 33" fill="none" xmlns="http://www.w3.org/2000/svg">
<path d="M5.33203 1.18066H47.832V32.1807H5.33203C2.84675 32.1807 0.832031 30.1659 0.832031 27.6807V5.68066C0.832031 3.19538 2.84675 1.18066 5.33203 1.18066Z" fill="#F3F3F6"/>
<path d="M5.33203 1.18066H47.832V32.1807H5.33203C2.84675 32.1807 0.832031 30.1659 0.832031 27.6807V5.68066C0.832031 3.19538 2.84675 1.18066 5.33203 1.18066Z" stroke="#6B7280"/>
<g clip-path="url(#clip0_1659_1049)">
<path d="M21.0748 13.4235V16.1158H23.7671V13.4235H21.0748ZM24.921 13.4235V16.1158H27.6133V13.4235H24.921ZM28.7671 13.4235V16.1158H31.4594V13.4235H28.7671ZM28.7671 17.2696V19.9619H31.4594V17.2696H28.7671ZM24.921 17.2696V19.9619H27.6133V17.2696H24.921ZM24.921 21.1158V23.8081H27.6133V21.1158H24.921ZM21.0748 21.1158V23.8081H23.7671V21.1158H21.0748ZM21.0748 17.2696V19.9619H23.7671V17.2696H21.0748ZM17.2287 21.1158V23.8081H19.921V21.1158H17.2287ZM17.2287 17.2696V19.9619H19.921V17.2696H17.2287ZM20.4859 9.64941V7.17345C20.4859 7.04525 20.4478 6.93106 20.3717 6.8309C20.2956 6.73074 20.2054 6.68066 20.1013 6.68066H19.332C19.2279 6.68066 19.1377 6.73074 19.0616 6.8309C18.9855 6.93106 18.9474 7.04525 18.9474 7.17345V9.64941C18.9474 9.78563 18.9855 9.89981 19.0616 9.99196C19.1377 10.0841 19.2279 10.1342 19.332 10.1422H20.1013C20.2134 10.1342 20.3056 10.0841 20.3777 9.99196C20.4498 9.89981 20.4859 9.78563 20.4859 9.64941ZM15.8705 26.6807H32.7936C33.2102 26.6807 33.5668 26.5364 33.8633 26.248C34.1598 25.9595 34.316 25.6069 34.332 25.1903V9.70951C34.332 9.30086 34.1798 8.9503 33.8753 8.65783C33.5708 8.36536 33.2102 8.21913 32.7936 8.21913H30.4859V9.37297C30.4859 9.87778 30.4017 10.2604 30.2335 10.5208C30.0652 10.7812 29.7647 10.9114 29.332 10.9114H28.5628C27.7936 10.9034 27.409 10.3946 27.409 9.38499V8.21913H21.2551V9.38499C21.2551 10.3946 20.8705 10.9034 20.1013 10.9114H19.332C18.8993 10.9114 18.5989 10.7812 18.4306 10.5208C18.2623 10.2604 18.1782 9.87778 18.1782 9.37297V8.21913H15.8705C15.4538 8.21913 15.0932 8.36536 14.7888 8.65783C14.4843 8.9503 14.332 9.30086 14.332 9.70951V25.1903C14.332 25.5989 14.4823 25.9475 14.7828 26.236C15.0832 26.5244 15.4458 26.6727 15.8705 26.6807ZM15.8705 12.0653H32.7936V25.1422H15.8705V12.0653ZM29.7166 9.64941V7.17345C29.7166 7.04525 29.6786 6.93106 29.6025 6.8309C29.5263 6.73074 29.4362 6.68066 29.332 6.68066H28.5628C28.4586 6.68066 28.3685 6.73074 28.2924 6.8309C28.2162 6.93106 28.1782 7.04525 28.1782 7.17345V9.64941C28.1782 9.78563 28.2162 9.89981 28.2924 9.99196C28.3685 10.0841 28.4586 10.1342 28.5628 10.1422H29.332C29.4442 10.1342 29.5364 10.0841 29.6085 9.99196C29.6806 9.89981 29.7166 9.78563 29.7166 9.64941Z" fill="#6B7280"/>
</g>
<defs>
<clipPath id="clip0_1659_1049">
<rect width="20" height="20" fill="white" transform="translate(14.332 6.68066)"/>
</clipPath>
</defs>
</svg>
