<svg width="21" height="20" viewBox="0 0 21 20" fill="none" xmlns="http://www.w3.org/2000/svg">
<path d="M6.51367 10.9453C8.1585 10.9454 9.48905 12.2878 9.48926 13.9414V17.0049C9.48901 18.6577 8.15828 19.9999 6.51367 20H3.47559C1.83096 19.9999 0.500248 18.6577 0.5 17.0049V13.9414C0.500207 12.2878 1.83074 10.9454 3.47559 10.9453H6.51367ZM17.5254 10.9453C19.1694 10.9454 20.4998 12.288 20.5 13.9414V17.0049C20.4998 18.6575 19.1692 19.9999 17.5254 20H14.4863C12.8417 19.9999 11.511 18.6577 11.5107 17.0049V13.9414C11.5109 12.2878 12.8415 10.9454 14.4863 10.9453H17.5254ZM3.47559 12.3408C2.60417 12.3409 1.89571 13.0556 1.89551 13.9414V17.0049C1.89575 17.8897 2.6043 18.6054 3.47559 18.6055H6.51367C7.38494 18.6054 8.0935 17.8897 8.09375 17.0049V13.9414C8.09354 13.0557 7.38507 12.3409 6.51367 12.3408H3.47559ZM14.4863 12.3408C13.6149 12.3409 12.9065 13.0557 12.9062 13.9414V17.0049C12.9065 17.8897 13.6151 18.6054 14.4863 18.6055H17.5254C18.3958 18.6054 19.1042 17.8896 19.1045 17.0049V13.9414C19.1043 13.0558 18.3959 12.3409 17.5254 12.3408H14.4863ZM6.51367 0C8.1583 0.000104544 9.48904 1.34229 9.48926 2.99512V6.05957C9.48926 7.71191 8.15815 9.05458 6.51367 9.05469H3.47559C1.83109 9.0546 0.5 7.71192 0.5 6.05957V2.99512C0.500215 1.34228 1.83094 8.40509e-05 3.47559 0H6.51367ZM17.5254 0C19.1692 0.000117326 20.4998 1.34249 20.5 2.99512V6.05957C20.5 7.7117 19.1691 9.05457 17.5254 9.05469H14.4863C12.8418 9.05458 11.5107 7.71191 11.5107 6.05957V2.99512C11.511 1.34229 12.8417 0.000104285 14.4863 0H17.5254ZM3.47559 1.39551C2.60428 1.39559 1.89572 2.11022 1.89551 2.99512V6.05957C1.89551 6.94406 2.60452 7.66007 3.47559 7.66016H6.51367C7.38472 7.66005 8.09375 6.94405 8.09375 6.05957V2.99512C8.09354 2.11024 7.38496 1.39561 6.51367 1.39551H3.47559ZM14.4863 1.39551C13.615 1.39561 12.9065 2.11024 12.9062 2.99512V6.05957C12.9062 6.94405 13.6153 7.66005 14.4863 7.66016H17.5254C18.3956 7.66004 19.1045 6.94394 19.1045 6.05957V2.99512C19.1043 2.11035 18.3958 1.39563 17.5254 1.39551H14.4863Z" fill="#FDFDFF"/>
</svg>
