<svg width="21" height="21" viewBox="0 0 21 21" fill="none" xmlns="http://www.w3.org/2000/svg">
<path d="M8.84863 1.5H12.1514C16.2097 1.5 19.5 4.79028 19.5 8.84863V14.5918C19.5 15.7865 18.5922 16.7693 17.4287 16.8877L17.1924 16.8994C16.6127 16.8994 16.3 17.3112 16.2002 17.4639C16.0788 17.6497 16.0043 17.8548 15.957 18.0039C15.9464 18.0375 15.9369 18.0722 15.9268 18.1074C15.8672 17.9957 15.8075 17.8875 15.748 17.7891C15.6624 17.6473 15.5508 17.4776 15.416 17.332C15.3306 17.2398 15.0112 16.8994 14.5 16.8994H8.84863C4.79024 16.8994 1.5 13.6091 1.5 9.55078V8.84863L1.50977 8.46973C1.7068 4.58731 4.91725 1.5 8.84863 1.5Z" stroke="white" stroke-width="2"/>
</svg>
