<svg width="18" height="19" viewBox="0 0 18 19" fill="none" xmlns="http://www.w3.org/2000/svg">
<g clip-path="url(#clip0_1432_21389)">
<path d="M0.75 4.06269H2.802C2.96298 4.65499 3.31438 5.17786 3.80199 5.55064C4.28961 5.92342 4.88634 6.12539 5.50012 6.12539C6.11391 6.12539 6.71064 5.92342 7.19826 5.55064C7.68587 5.17786 8.03727 4.65499 8.19825 4.06269H17.25C17.4489 4.06269 17.6397 3.98368 17.7803 3.84302C17.921 3.70237 18 3.51161 18 3.31269C18 3.11378 17.921 2.92302 17.7803 2.78236C17.6397 2.64171 17.4489 2.56269 17.25 2.56269H8.19825C8.03727 1.9704 7.68587 1.44752 7.19826 1.07475C6.71064 0.701968 6.11391 0.5 5.50012 0.5C4.88634 0.5 4.28961 0.701968 3.80199 1.07475C3.31438 1.44752 2.96298 1.9704 2.802 2.56269H0.75C0.551088 2.56269 0.360322 2.64171 0.21967 2.78236C0.0790176 2.92302 0 3.11378 0 3.31269C0 3.51161 0.0790176 3.70237 0.21967 3.84302C0.360322 3.98368 0.551088 4.06269 0.75 4.06269ZM5.49975 2.00019C5.75934 2.00019 6.0131 2.07717 6.22894 2.22139C6.44478 2.36561 6.613 2.57059 6.71234 2.81042C6.81168 3.05025 6.83767 3.31415 6.78703 3.56875C6.73639 3.82335 6.61138 4.05721 6.42783 4.24077C6.24427 4.42433 6.01041 4.54933 5.75581 4.59997C5.50121 4.65062 5.23731 4.62463 4.99748 4.52529C4.75765 4.42595 4.55267 4.25772 4.40845 4.04188C4.26423 3.82604 4.18725 3.57228 4.18725 3.31269C4.18765 2.96472 4.32606 2.63111 4.57211 2.38505C4.81817 2.139 5.15178 2.00059 5.49975 2.00019Z" fill="#7A5FFF"/>
<path d="M17.25 8.74933H15.198C15.0373 8.1569 14.686 7.63384 14.1985 7.26091C13.7109 6.88798 13.1141 6.68591 12.5002 6.68591C11.8864 6.68591 11.2896 6.88798 10.802 7.26091C10.3145 7.63384 9.96321 8.1569 9.8025 8.74933H0.75C0.551088 8.74933 0.360322 8.82835 0.21967 8.969C0.0790176 9.10966 0 9.30042 0 9.49933C0 9.69825 0.0790176 9.88901 0.21967 10.0297C0.360322 10.1703 0.551088 10.2493 0.75 10.2493H9.8025C9.96321 10.8418 10.3145 11.3648 10.802 11.7378C11.2896 12.1107 11.8864 12.3128 12.5002 12.3128C13.1141 12.3128 13.7109 12.1107 14.1985 11.7378C14.686 11.3648 15.0373 10.8418 15.198 10.2493H17.25C17.4489 10.2493 17.6397 10.1703 17.7803 10.0297C17.921 9.88901 18 9.69825 18 9.49933C18 9.30042 17.921 9.10966 17.7803 8.969C17.6397 8.82835 17.4489 8.74933 17.25 8.74933ZM12.5002 10.8118C12.2407 10.8118 11.9869 10.7349 11.7711 10.5906C11.5552 10.4464 11.387 10.2414 11.2877 10.0016C11.1883 9.76178 11.1623 9.49788 11.213 9.24328C11.2636 8.98868 11.3886 8.75481 11.5722 8.57126C11.7557 8.3877 11.9896 8.2627 12.2442 8.21206C12.4988 8.16141 12.7627 8.1874 13.0025 8.28674C13.2424 8.38608 13.4473 8.55431 13.5916 8.77015C13.7358 8.98599 13.8127 9.23975 13.8127 9.49933C13.8124 9.84731 13.6739 10.1809 13.4279 10.427C13.1818 10.673 12.8482 10.8114 12.5002 10.8118Z" fill="#7A5FFF"/>
<path d="M17.25 14.9377H8.19825C8.03727 14.3454 7.68587 13.8225 7.19826 13.4497C6.71064 13.077 6.11391 12.875 5.50012 12.875C4.88634 12.875 4.28961 13.077 3.80199 13.4497C3.31438 13.8225 2.96298 14.3454 2.802 14.9377H0.75C0.551088 14.9377 0.360322 15.0167 0.21967 15.1574C0.0790176 15.298 0 15.4888 0 15.6877C0 15.8866 0.0790176 16.0774 0.21967 16.218C0.360322 16.3587 0.551088 16.4377 0.75 16.4377H2.802C2.96298 17.03 3.31438 17.5528 3.80199 17.9256C4.28961 18.2984 4.88634 18.5004 5.50012 18.5004C6.11391 18.5004 6.71064 18.2984 7.19826 17.9256C7.68587 17.5528 8.03727 17.03 8.19825 16.4377H17.25C17.4489 16.4377 17.6397 16.3587 17.7803 16.218C17.921 16.0774 18 15.8866 18 15.6877C18 15.4888 17.921 15.298 17.7803 15.1574C17.6397 15.0167 17.4489 14.9377 17.25 14.9377ZM5.49975 17.0002C5.24016 17.0002 4.9864 16.9232 4.77056 16.779C4.55472 16.6348 4.3865 16.4298 4.28716 16.19C4.18782 15.9501 4.16183 15.6862 4.21247 15.4316C4.26311 15.177 4.38812 14.9432 4.57167 14.7596C4.75523 14.5761 4.98909 14.4511 5.24369 14.4004C5.49829 14.3498 5.76219 14.3758 6.00202 14.4751C6.24185 14.5744 6.44683 14.7427 6.59105 14.9585C6.73527 15.1743 6.81225 15.4281 6.81225 15.6877C6.81166 16.0356 6.67318 16.3691 6.42717 16.6151C6.18116 16.8611 5.84766 16.9996 5.49975 17.0002Z" fill="#7A5FFF"/>
</g>
<defs>
<clipPath id="clip0_1432_21389">
<rect width="18" height="18" fill="white" transform="translate(0 0.5)"/>
</clipPath>
</defs>
</svg>
