<svg width="3" height="14" viewBox="0 0 3 14" fill="none" xmlns="http://www.w3.org/2000/svg">
<g clip-path="url(#clip0_705_8214)">
<path d="M1.5 8.25C2.32843 8.25 3 7.57843 3 6.75C3 5.92157 2.32843 5.25 1.5 5.25C0.671573 5.25 0 5.92157 0 6.75C0 7.57843 0.671573 8.25 1.5 8.25Z" fill="#A5A0BE"/>
<path d="M1.5 3C2.32843 3 3 2.32843 3 1.5C3 0.671573 2.32843 0 1.5 0C0.671573 0 0 0.671573 0 1.5C0 2.32843 0.671573 3 1.5 3Z" fill="#A5A0BE"/>
<path d="M1.5 13.5C2.32843 13.5 3 12.8284 3 12C3 11.1716 2.32843 10.5 1.5 10.5C0.671573 10.5 0 11.1716 0 12C0 12.8284 0.671573 13.5 1.5 13.5Z" fill="#A5A0BE"/>
</g>
<defs>
<clipPath id="clip0_705_8214">
<rect width="3" height="13.5" fill="white"/>
</clipPath>
</defs>
</svg>
