<svg width="93" height="38" viewBox="0 0 93 38" fill="none" xmlns="http://www.w3.org/2000/svg">
<path d="M1 5.26868C1 2.91115 2.91116 1 5.26868 1H87.7313C90.0888 1 92 2.91116 92 5.26868V32.7313C92 35.0888 90.0888 37 87.7313 37H5.26868C2.91115 37 1 35.0888 1 32.7313V5.26868Z" fill="white"/>
<path d="M1 5.26868C1 2.91115 2.91116 1 5.26868 1H87.7313C90.0888 1 92 2.91116 92 5.26868V32.7313C92 35.0888 90.0888 37 87.7313 37H5.26868C2.91115 37 1 35.0888 1 32.7313V5.26868Z" stroke="#7A5FFF" stroke-width="0.946309"/>
<path d="M15.7224 25.9871L14.7891 25.0371L16.7557 23.0705H15.2557V21.7371H19.0224V25.5038H17.6891V24.0205L15.7224 25.9871ZM20.3557 25.7371V24.4038H24.3557V17.0705H21.0224V13.7371H16.3557V20.4038H15.0224V13.7371C15.0224 13.3705 15.1531 13.0567 15.4144 12.7958C15.6757 12.5349 15.9895 12.4043 16.3557 12.4038H21.6891L25.6891 16.4038V24.4038C25.6891 24.7705 25.5586 25.0845 25.2977 25.3458C25.0368 25.6071 24.7228 25.7376 24.3557 25.7371H20.3557Z" fill="#7A5FFF"/>
<path d="M38.5718 15.1284V17.9844H41.9318V19.2864H38.5718V22.2684H42.3518V23.5704H36.9758V13.8264H42.3518V15.1284H38.5718ZM47.6216 19.6644L50.1136 23.5704H48.3076L46.6416 20.9524L45.0736 23.5704H43.4076L45.8996 19.7764L43.4076 15.8564H45.2136L46.8796 18.4744L48.4476 15.8564H50.1136L47.6216 19.6644ZM52.8999 16.9904C53.1706 16.6358 53.5392 16.3371 54.0059 16.0944C54.4726 15.8518 54.9999 15.7304 55.5879 15.7304C56.2599 15.7304 56.8712 15.8984 57.4219 16.2344C57.9819 16.5611 58.4206 17.0231 58.7379 17.6204C59.0552 18.2178 59.2139 18.9038 59.2139 19.6784C59.2139 20.4531 59.0552 21.1484 58.7379 21.7644C58.4206 22.3711 57.9819 22.8471 57.4219 23.1924C56.8712 23.5284 56.2599 23.6964 55.5879 23.6964C54.9999 23.6964 54.4772 23.5798 54.0199 23.3464C53.5626 23.1038 53.1892 22.8051 52.8999 22.4504V27.2384H51.3039V15.8564H52.8999V16.9904ZM57.5899 19.6784C57.5899 19.1464 57.4779 18.6891 57.2539 18.3064C57.0392 17.9144 56.7499 17.6204 56.3859 17.4244C56.0312 17.2191 55.6486 17.1164 55.2379 17.1164C54.8366 17.1164 54.4539 17.2191 54.0899 17.4244C53.7352 17.6298 53.4459 17.9284 53.2219 18.3204C53.0072 18.7124 52.8999 19.1744 52.8999 19.7064C52.8999 20.2384 53.0072 20.7051 53.2219 21.1064C53.4459 21.4984 53.7352 21.7971 54.0899 22.0024C54.4539 22.2078 54.8366 22.3104 55.2379 22.3104C55.6486 22.3104 56.0312 22.2078 56.3859 22.0024C56.7499 21.7878 57.0392 21.4798 57.2539 21.0784C57.4779 20.6771 57.5899 20.2104 57.5899 19.6784ZM64.1382 23.6964C63.4102 23.6964 62.7522 23.5331 62.1642 23.2064C61.5762 22.8704 61.1142 22.4038 60.7782 21.8064C60.4422 21.1998 60.2742 20.4998 60.2742 19.7064C60.2742 18.9224 60.4469 18.2271 60.7922 17.6204C61.1375 17.0138 61.6089 16.5471 62.2062 16.2204C62.8035 15.8938 63.4709 15.7304 64.2082 15.7304C64.9455 15.7304 65.6129 15.8938 66.2102 16.2204C66.8075 16.5471 67.2789 17.0138 67.6242 17.6204C67.9695 18.2271 68.1422 18.9224 68.1422 19.7064C68.1422 20.4904 67.9649 21.1858 67.6102 21.7924C67.2555 22.3991 66.7702 22.8704 66.1542 23.2064C65.5475 23.5331 64.8755 23.6964 64.1382 23.6964ZM64.1382 22.3104C64.5489 22.3104 64.9315 22.2124 65.2862 22.0164C65.6502 21.8204 65.9442 21.5264 66.1682 21.1344C66.3922 20.7424 66.5042 20.2664 66.5042 19.7064C66.5042 19.1464 66.3969 18.6751 66.1822 18.2924C65.9675 17.9004 65.6829 17.6064 65.3282 17.4104C64.9735 17.2144 64.5909 17.1164 64.1802 17.1164C63.7695 17.1164 63.3869 17.2144 63.0322 17.4104C62.6869 17.6064 62.4115 17.9004 62.2062 18.2924C62.0009 18.6751 61.8982 19.1464 61.8982 19.7064C61.8982 20.5371 62.1082 21.1811 62.5282 21.6384C62.9575 22.0864 63.4942 22.3104 64.1382 22.3104ZM71.3159 16.9764C71.5493 16.5844 71.8573 16.2811 72.2399 16.0664C72.6319 15.8424 73.0939 15.7304 73.6259 15.7304V17.3824H73.2199C72.5946 17.3824 72.1186 17.5411 71.7919 17.8584C71.4746 18.1758 71.3159 18.7264 71.3159 19.5104V23.5704H69.7199V15.8564H71.3159V16.9764ZM76.955 17.1584V21.4284C76.955 21.7178 77.0203 21.9278 77.151 22.0584C77.291 22.1798 77.5243 22.2404 77.851 22.2404H78.831V23.5704H77.571C76.8523 23.5704 76.3016 23.4024 75.919 23.0664C75.5363 22.7304 75.345 22.1844 75.345 21.4284V17.1584H74.435V15.8564H75.345V13.9384H76.955V15.8564H78.831V17.1584H76.955Z" fill="#7A5FFF"/>
</svg>
