<svg width="14" height="13" viewBox="0 0 14 13" fill="none" xmlns="http://www.w3.org/2000/svg">
<path d="M1.69288 0.849609H11.8557C11.9474 0.849609 12.0371 0.876235 12.1139 0.926251C12.1907 0.976267 12.2513 1.04752 12.2884 1.13135C12.3255 1.21518 12.3374 1.30797 12.3228 1.39845C12.3081 1.48894 12.2675 1.57322 12.2058 1.64104L8.31681 5.91895C8.23763 6.00605 8.19376 6.11953 8.19376 6.23723V9.58632C8.19376 9.66421 8.17453 9.7409 8.13777 9.80958C8.10102 9.87826 8.04788 9.9368 7.98307 9.98L6.09045 11.2417C6.01919 11.2893 5.93638 11.3165 5.85083 11.3207C5.76529 11.3248 5.68023 11.3056 5.60473 11.2652C5.52922 11.2248 5.4661 11.1647 5.42209 11.0912C5.37808 11.0177 5.35483 10.9337 5.35483 10.8481V6.23723C5.35483 6.11953 5.31096 6.00605 5.23179 5.91895L1.34278 1.64104C1.28112 1.57322 1.24048 1.48894 1.22582 1.39845C1.21116 1.30797 1.22309 1.21518 1.26017 1.13135C1.29726 1.04752 1.35789 0.976267 1.43471 0.926251C1.51153 0.876235 1.60122 0.849609 1.69288 0.849609V0.849609Z" stroke="#7A5FFF" stroke-width="1.41946" stroke-linecap="round" stroke-linejoin="round"/>
</svg>
