<svg width="19" height="20" viewBox="0 0 19 20" fill="none" xmlns="http://www.w3.org/2000/svg">
<path d="M7.23096 0.787925C8.50091 -0.220865 10.2804 -0.261063 11.5894 0.667807L11.7505 0.787925L17.8394 5.65902C18.5093 6.17802 18.9207 6.94893 18.9907 7.78792L19.0005 7.9891V16.0975C19.0005 18.1874 17.3496 19.8878 15.2808 19.9979H13.2905C12.3395 19.9789 11.5705 19.2384 11.5005 18.3084L11.4907 18.1678V15.3084C11.4905 14.9977 11.2594 14.7394 10.9507 14.6883L10.8608 14.6776H8.18994C7.87103 14.6876 7.61091 14.9177 7.5708 15.2176L7.56006 15.3084V18.159C7.56003 18.2179 7.54951 18.2878 7.54053 18.3377L7.53076 18.3592L7.51904 18.4276C7.40005 19.2786 6.70054 19.9281 5.83057 19.9891L5.70068 19.9979H3.91064C1.82064 19.9979 0.110488 18.3587 0.000488281 16.2977V7.9891C0.00948828 7.1381 0.380488 6.34769 1.00049 5.79769L7.23096 0.787925ZM10.8804 1.87777C10.1205 1.26794 9.04065 1.23868 8.24072 1.76742L8.08936 1.87777L2.00928 6.77914C1.66049 7.03811 1.4509 7.42789 1.40088 7.83773L1.38916 7.99789V16.0975C1.38916 17.4275 2.4295 18.5175 3.75049 18.5975H5.70068C5.92049 18.5974 6.11002 18.4489 6.13916 18.2391L6.16064 18.0584L6.17041 18.0077V15.3084C6.17061 14.2386 6.99066 13.3689 8.04053 13.2879H10.8608C11.9297 13.2881 12.7994 14.1091 12.8804 15.159V18.1678C12.8804 18.3778 13.031 18.5585 13.231 18.5975H15.0894C16.4294 18.5975 17.5191 17.5687 17.5991 16.2577L17.6108 16.0975V7.99789C17.5998 7.569 17.4207 7.16795 17.1108 6.86898L16.981 6.75765L10.8804 1.87777Z" fill="#FFD44D"/>
</svg>
