<svg width="21" height="19" viewBox="0 0 21 19" fill="none" xmlns="http://www.w3.org/2000/svg">
<path d="M10.5 4.5V2.5C10.5 1.4 9.6 0.5 8.5 0.5H2.5C1.4 0.5 0.5 1.4 0.5 2.5V16.5C0.5 17.6 1.4 18.5 2.5 18.5H18.5C19.6 18.5 20.5 17.6 20.5 16.5V6.5C20.5 5.4 19.6 4.5 18.5 4.5H10.5ZM4.5 16.5H2.5V14.5H4.5V16.5ZM4.5 12.5H2.5V10.5H4.5V12.5ZM4.5 8.5H2.5V6.5H4.5V8.5ZM4.5 4.5H2.5V2.5H4.5V4.5ZM8.5 16.5H6.5V14.5H8.5V16.5ZM8.5 12.5H6.5V10.5H8.5V12.5ZM8.5 8.5H6.5V6.5H8.5V8.5ZM8.5 4.5H6.5V2.5H8.5V4.5ZM17.5 16.5H10.5V14.5H12.5V12.5H10.5V10.5H12.5V8.5H10.5V6.5H17.5C18.05 6.5 18.5 6.95 18.5 7.5V15.5C18.5 16.05 18.05 16.5 17.5 16.5ZM16.5 8.5H14.5V10.5H16.5V8.5ZM16.5 12.5H14.5V14.5H16.5V12.5Z" fill="#6B7280"/>
</svg>
