<svg width="52" height="42" viewBox="0 0 52 42" fill="none" xmlns="http://www.w3.org/2000/svg">
<path d="M47.4688 30.8727C47.4688 30.8727 50.3841 29.9341 50.8697 26.7936C51.3554 23.653 47.5326 23.1569 47.5326 23.1569C49.6556 21.8723 49.4461 19.2813 49.4461 19.2813C50.0382 14.6361 46.1874 14.0517 46.1874 14.0517C46.1874 14.0517 47.8689 12.5578 47.4437 10.3328C46.6176 6.00714 42.0341 6.64192 42.0341 6.64192C41.823 4.42572 40.2429 2.53326 38.0098 1.95876C37.976 1.94992 37.9422 1.94147 37.9084 1.93341C35.6261 1.37081 33.2052 2.31282 31.8717 4.20529L31.6844 4.47142C31.6314 4.1957 31.5174 3.90691 31.3722 3.62388C30.6225 2.16037 29.2001 1.12619 27.5528 0.714898C23.6386 -0.262059 21.4159 2.40883 21.4159 2.40883C20.0098 0.373121 16.1807 0.687626 16.1807 0.687626C7.7265 1.68417 8.84138 9.75366 8.84138 9.75366C8.84138 9.75366 5.29146 7.07049 2.12748 12.1108C-1.03691 17.1507 3.46434 21.3051 3.46434 21.3051C2.67741 21.5125 1.80995 22.8385 1.80995 22.8385C-0.630934 27.984 6.32372 30.2099 6.32372 30.2099C3.17769 35.2598 10.2196 35.8005 10.2196 35.8005C10.6109 38.7383 13.3151 36.681 13.3151 36.681C12.7668 40.2432 15.7965 38.8723 15.7965 38.8723C16.2396 41.0547 18.4293 38.9948 18.4293 38.9948L18.8344 38.9637C18.7919 39.8619 19.4787 40.6668 20.4667 40.8097C21.3387 40.9356 22.1586 40.5028 22.5187 39.8043C22.9314 40.6426 23.8355 41.2966 24.9721 41.461C26.6645 41.7056 28.2308 40.7747 28.5104 39.3757C28.772 39.8166 29.2389 40.1484 29.8197 40.2321C30.6079 40.3462 31.351 39.9717 31.7044 39.3569C32.7341 42.1549 35.3357 40.2494 35.3357 40.2494C37.3464 41.8903 38.4996 39.6941 38.4996 39.6941C38.4996 39.6941 40.303 41.355 42.7414 38.9088C44.1083 37.5374 43.2162 34.9514 43.2162 34.9514C43.2162 34.9514 45.4405 36.9145 47.4287 35.0966C49.6272 33.0854 47.4688 30.8727 47.4688 30.8727Z" fill="#1A0000" stroke="#1A0000" stroke-width="0.298591" stroke-miterlimit="10" stroke-linecap="round"/>
<path d="M5.32835 4.54633C5.86868 4.51215 6.54962 4.54633 6.56465 5.18803C6.57049 5.44225 6.46952 5.73373 6.32932 5.9507C6.25255 6.06936 6.16367 6.19148 6.01054 6.2368C5.7264 6.3209 5.58495 6.04018 5.72014 5.83972C6.00679 5.41537 6.80206 5.47989 7.11416 5.82973C7.42292 6.17535 7.2385 6.75791 6.76451 6.87389C6.81124 6.94801 6.85838 7.02213 6.90512 7.09624C7.2773 6.83088 7.76089 7.12275 7.85894 7.4891C7.91193 7.68649 7.88022 7.8977 7.80387 8.08626C7.75046 8.21836 7.66159 8.3378 7.68078 8.48565C7.71666 8.76253 8.07049 8.97335 8.22904 9.19186C8.45185 9.49908 8.59121 9.8401 8.66297 10.2022C8.69635 10.3704 8.97465 10.299 8.94169 10.1316C8.85699 9.70299 8.67591 9.29785 8.39427 8.94685C8.19774 8.70185 7.95157 8.59279 8.04712 8.23526C8.10052 8.03633 8.17938 7.87313 8.17187 7.66153C8.14767 6.97797 7.35282 6.44341 6.70067 6.90808C6.58092 6.99333 6.71277 7.16191 6.84128 7.13042C7.39538 6.99447 7.68954 6.40424 7.49552 5.91538C7.28606 5.38658 6.5709 5.17306 6.02014 5.33742C5.74225 5.42037 5.4627 5.60777 5.38884 5.88119C5.32542 6.11583 5.43099 6.38504 5.68217 6.48143C6.37563 6.74794 6.78245 5.83127 6.8417 5.35739C6.88384 5.0206 6.79121 4.67728 6.48411 4.46837C6.15574 4.24487 5.71638 4.25677 5.32876 4.28097C5.14392 4.2921 5.14225 4.55785 5.32835 4.54633Z" fill="#1A0000"/>
<path d="M50.9341 11.0163C50.352 10.6684 49.5747 10.4307 49.1395 11.0946C48.8591 11.5228 48.6722 12.438 49.2655 12.7229C49.5084 12.8397 49.7858 12.7713 49.9419 12.5674C50.1263 12.3262 50.0633 12.0121 49.8972 11.7782C49.5668 11.3132 48.8324 11.0916 48.2959 11.39C47.7651 11.6853 47.6587 12.4295 48.1064 12.8258C48.2328 12.9376 48.3943 12.797 48.3334 12.6645C47.9992 11.9376 46.9548 12.1638 46.6244 12.7602C46.5305 12.9291 46.505 13.1 46.4675 13.2828C46.4041 13.5912 46.074 13.6023 45.8128 13.7095C45.3739 13.8896 44.995 14.1653 44.6913 14.5067C44.5744 14.638 44.7776 14.8274 44.8957 14.6949C45.1552 14.403 45.4657 14.1634 45.8329 13.994C46.102 13.87 46.5647 13.8446 46.7036 13.5605C46.7641 13.4372 46.7462 13.292 46.7754 13.1618C46.8159 12.9802 46.9035 12.8005 47.0462 12.6672C47.3541 12.3796 47.9016 12.4015 48.0843 12.7989C48.1598 12.7452 48.2353 12.6914 48.3113 12.638C47.9946 12.3577 48.0714 11.8339 48.4423 11.6196C48.8979 11.3565 49.6511 11.6407 49.7529 12.1346C49.7867 12.2997 49.7233 12.5612 49.455 12.5086C49.2276 12.4641 49.1825 12.1995 49.1775 12.0282C49.1712 11.8112 49.2192 11.5804 49.3089 11.38C49.4149 11.143 49.6014 10.9391 49.8985 10.9188C50.2227 10.8969 50.5302 11.0908 50.7893 11.2456C50.9445 11.3393 51.0897 11.1092 50.9341 11.0163Z" fill="#1A0000"/>
<path d="M11.3178 34.2652L10.664 33.342L9.96175 34.1446L10.1274 32.8731L9.36133 32.4303L10.326 32.3885L10.79 31.4718L11.0783 32.4411L12.0617 32.62L11.2869 33.0129L11.3178 34.2652Z" fill="white" stroke="white" stroke-width="0.0711279" stroke-miterlimit="10" stroke-linecap="round"/>
<path d="M10.6221 24.0874C10.6221 24.0874 10.6175 10.713 24.6182 11.8482C37.8891 12.9242 35.3952 29.3927 31.8908 31.0509L31.6567 31.4726C31.6567 31.4726 33.8093 21.7733 29.1365 16.9273C26.0915 13.7694 20.9702 13.3512 17.2404 15.8094C15.2973 17.0901 12.4442 20.5467 10.6221 24.0874Z" fill="#FFD44D" stroke="#FFD44D" stroke-width="0.272303" stroke-miterlimit="10"/>
<mask id="mask0_2146_9709" style="mask-type:luminance" maskUnits="userSpaceOnUse" x="9" y="16" width="29" height="23">
<path d="M36.5996 29.5457C35.9329 28.8929 34.9828 28.9243 34.1354 29.2296C33.7035 29.3852 33.2992 29.6002 32.9112 29.8322C32.6783 29.9712 32.2148 30.4777 31.9306 30.4228C31.7345 30.3852 31.7041 30.0872 31.644 29.9451C31.117 28.6981 29.9821 27.5411 29.0725 26.5161C28.0519 25.3667 26.9625 24.2715 25.8772 23.1747C24.0255 21.3034 22.3223 19.2466 21.1857 16.9286C20.8311 17.2216 20.1188 17.8122 19.972 17.9528C18.555 19.3099 17.0112 20.5753 15.3468 21.6709C14.5749 22.179 13.7713 22.6521 12.9151 23.0307C12.1532 23.3679 11.3241 23.6475 10.4688 23.6551C10.4633 23.6551 10.4596 23.6528 10.4542 23.6525C10.2597 24.2224 10.1074 24.8103 10.0031 25.4144C8.76181 32.5964 12.7657 37.5441 19.9765 38.5864C24.2329 39.2016 28.3315 37.5991 30.9914 34.6839C32.0283 35.6517 34.0653 35.3468 35.6003 33.9727C37.1675 32.5706 37.7375 30.6605 36.5996 29.5457Z" fill="white"/>
</mask>
<g mask="url(#mask0_2146_9709)">
<path d="M36.5996 29.5452C35.9329 28.8924 34.9828 28.9239 34.1354 29.2292C33.7035 29.3847 33.2992 29.5997 32.9112 29.8317C32.6783 29.9707 32.2148 30.4772 31.9306 30.4223C31.7345 30.3847 31.7041 30.0867 31.644 29.9446C31.117 28.6977 29.9821 27.5406 29.0725 26.5156C28.0519 25.3663 26.9625 24.271 25.8772 23.1743C24.0255 21.3029 22.3223 19.2461 21.1857 16.9281C20.8311 17.2211 20.1188 17.8117 19.972 17.9523C18.555 19.3094 17.0112 20.5748 15.3468 21.6704C14.5749 22.1785 13.7713 22.6516 12.9151 23.0302C12.1532 23.3674 11.3241 23.647 10.4688 23.6547C10.4633 23.6547 10.4596 23.6524 10.4542 23.652C10.2597 24.2219 10.1074 24.8098 10.0031 25.4139C8.76181 32.5959 12.7657 37.5437 19.9765 38.5859C24.2329 39.2011 28.3315 37.5986 30.9914 34.6835C32.0283 35.6512 34.0653 35.3463 35.6003 33.9722C37.1675 32.5702 37.7375 30.66 36.5996 29.5452Z" fill="#CD5428" stroke="#CD5428" stroke-width="0.280389" stroke-miterlimit="10"/>
</g>
<mask id="mask1_2146_9709" style="mask-type:luminance" maskUnits="userSpaceOnUse" x="9" y="16" width="29" height="23">
<path d="M36.5996 29.5457C35.9329 28.8929 34.9828 28.9243 34.1354 29.2296C33.7035 29.3852 33.2992 29.6002 32.9112 29.8322C32.6783 29.9712 32.2148 30.4777 31.9306 30.4228C31.7345 30.3852 31.7041 30.0872 31.644 29.9451C31.117 28.6981 29.9821 27.5411 29.0725 26.5161C28.0519 25.3667 26.9625 24.2715 25.8772 23.1747C24.0255 21.3034 22.3223 19.2466 21.1857 16.9286C20.8311 17.2216 20.1188 17.8122 19.972 17.9528C18.555 19.3099 17.0112 20.5753 15.3468 21.6709C14.5749 22.179 13.7713 22.6521 12.9151 23.0307C12.1532 23.3679 11.3241 23.6475 10.4688 23.6551C10.4633 23.6551 10.4596 23.6528 10.4542 23.6525C10.2597 24.2224 10.1074 24.8103 10.0031 25.4144C8.76181 32.5964 12.7657 37.5441 19.9765 38.5864C24.2329 39.2016 28.3315 37.5991 30.9914 34.6839C32.0283 35.6517 34.0653 35.3468 35.6003 33.9727C37.1675 32.5706 37.7375 30.6605 36.5996 29.5457Z" fill="white"/>
</mask>
<g mask="url(#mask1_2146_9709)">
<path opacity="0.49" d="M27.7194 34.9024C27.0889 36.5426 25.1333 37.4016 23.3512 36.8214C21.5692 36.2411 20.6358 34.4412 21.2663 32.801C21.8967 31.1609 23.8524 30.3018 25.6344 30.8821C27.4165 31.4623 28.3499 33.2622 27.7194 34.9024Z" fill="#8B2A0C" stroke="#8B2A0C" stroke-width="0.337564" stroke-miterlimit="10"/>
</g>
<mask id="mask2_2146_9709" style="mask-type:luminance" maskUnits="userSpaceOnUse" x="9" y="16" width="29" height="23">
<path d="M36.5996 29.5457C35.9329 28.8929 34.9828 28.9243 34.1354 29.2296C33.7035 29.3852 33.2992 29.6002 32.9112 29.8322C32.6783 29.9712 32.2148 30.4777 31.9306 30.4228C31.7345 30.3852 31.7041 30.0872 31.644 29.9451C31.117 28.6981 29.9821 27.5411 29.0725 26.5161C28.0519 25.3667 26.9625 24.2715 25.8772 23.1747C24.0255 21.3034 22.3223 19.2466 21.1857 16.9286C20.8311 17.2216 20.1188 17.8122 19.972 17.9528C18.555 19.3099 17.0112 20.5753 15.3468 21.6709C14.5749 22.179 13.7713 22.6521 12.9151 23.0307C12.1532 23.3679 11.3241 23.6475 10.4688 23.6551C10.4633 23.6551 10.4596 23.6528 10.4542 23.6525C10.2597 24.2224 10.1074 24.8103 10.0031 25.4144C8.76181 32.5964 12.7657 37.5441 19.9765 38.5864C24.2329 39.2016 28.3315 37.5991 30.9914 34.6839C32.0283 35.6517 34.0653 35.3468 35.6003 33.9727C37.1675 32.5706 37.7375 30.6605 36.5996 29.5457Z" fill="white"/>
</mask>
<g mask="url(#mask2_2146_9709)">
<path opacity="0.49" d="M14.1316 32.3329C13.5674 33.8006 11.8171 34.5698 10.222 34.0502C8.62725 33.531 7.79151 31.9201 8.35604 30.4519C8.92016 28.9842 10.6705 28.215 12.2656 28.7346C13.8603 29.2538 14.6957 30.8648 14.1316 32.3329Z" fill="#8B2A0C" stroke="#8B2A0C" stroke-width="0.302111" stroke-miterlimit="10"/>
</g>
<mask id="mask3_2146_9709" style="mask-type:luminance" maskUnits="userSpaceOnUse" x="9" y="16" width="29" height="23">
<path d="M36.5996 29.5457C35.9329 28.8929 34.9828 28.9243 34.1354 29.2296C33.7035 29.3852 33.2992 29.6002 32.9112 29.8322C32.6783 29.9712 32.2148 30.4777 31.9306 30.4228C31.7345 30.3852 31.7041 30.0872 31.644 29.9451C31.117 28.6981 29.9821 27.5411 29.0725 26.5161C28.0519 25.3667 26.9625 24.2715 25.8772 23.1747C24.0255 21.3034 22.3223 19.2466 21.1857 16.9286C20.8311 17.2216 20.1188 17.8122 19.972 17.9528C18.555 19.3099 17.0112 20.5753 15.3468 21.6709C14.5749 22.179 13.7713 22.6521 12.9151 23.0307C12.1532 23.3679 11.3241 23.6475 10.4688 23.6551C10.4633 23.6551 10.4596 23.6528 10.4542 23.6525C10.2597 24.2224 10.1074 24.8103 10.0031 25.4144C8.76181 32.5964 12.7657 37.5441 19.9765 38.5864C24.2329 39.2016 28.3315 37.5991 30.9914 34.6839C32.0283 35.6517 34.0653 35.3468 35.6003 33.9727C37.1675 32.5706 37.7375 30.6605 36.5996 29.5457Z" fill="white"/>
</mask>
<g mask="url(#mask3_2146_9709)">
<path d="M33.6147 36.3177L32.9613 35.3945L32.2586 36.1971L32.4243 34.9252L31.6582 34.4824L32.6229 34.441L33.0869 33.5243L33.3756 34.4936L34.3586 34.6725L33.5838 35.0654L33.6147 36.3177Z" fill="white" stroke="white" stroke-width="0.0711279" stroke-miterlimit="10" stroke-linecap="round"/>
<path d="M32.9365 30.8889C33.4401 30.4711 34.0222 30.1082 34.7177 29.9411C35.0611 29.8597 35.46 29.842 35.8297 29.9964C36.196 30.16 36.4577 30.4611 36.5507 30.8347C36.6266 31.2118 36.4973 31.5594 36.34 31.8528C36.171 32.1462 35.9649 32.4085 35.7329 32.6454C35.2727 33.1216 34.7365 33.5191 34.1591 33.8501C34.6318 33.4015 35.0791 32.938 35.475 32.453C35.6653 32.2061 35.8501 31.9572 35.9774 31.6915C36.1072 31.4311 36.1923 31.1512 36.1343 30.9104C36.0884 30.6784 35.891 30.4384 35.6532 30.3278C35.41 30.2049 35.0954 30.1988 34.7837 30.2391C34.1553 30.337 33.5311 30.5943 32.9365 30.8889Z" fill="#8B2A0C"/>
<path d="M30.9688 34.7114C31.1244 34.5182 31.2416 34.3031 31.353 34.0885C31.4623 33.8723 31.5596 33.6503 31.6426 33.4241C31.8191 32.9748 31.9472 32.5105 32.0753 32.0439C32.0444 32.2828 32.0031 32.5209 31.9447 32.7563C31.8846 32.9909 31.8141 33.2237 31.7281 33.4518C31.5475 33.9026 31.3288 34.3569 30.9688 34.7114Z" fill="#8B2A0C"/>
<path d="M21.1519 16.4717C20.6909 16.6637 20.2561 16.9594 20.0587 17.403C19.8935 17.774 19.9102 18.2425 20.2131 18.552C20.4751 18.8197 20.9754 18.9429 21.2687 18.6461C21.4932 18.4187 21.4982 18.0217 21.1853 17.86C20.786 17.6538 20.2131 17.8377 19.8989 18.0981C19.5572 18.3815 19.4074 18.8381 19.5071 19.2498C19.5973 19.6223 19.9623 19.9744 20.4063 19.8416C20.7664 19.734 20.8878 19.2659 20.5123 19.0985C20.0825 18.9068 19.5885 19.2098 19.4103 19.5693C19.1721 20.0489 19.4387 20.5781 19.7829 20.9464C19.8977 21.0693 20.09 20.8907 19.9761 20.7686C19.7291 20.5044 19.5146 20.1353 19.6181 19.7763C19.6632 19.6203 19.7737 19.4779 19.9198 19.388C20.0162 19.3289 20.5139 19.1714 20.4714 19.4629C20.438 19.691 20.0792 19.6196 19.964 19.5224C19.8155 19.3968 19.7562 19.1983 19.75 19.0182C19.7379 18.6676 19.9386 18.3327 20.2703 18.1599C20.4831 18.0489 21.2241 17.8826 21.1565 18.3066C21.0893 18.729 20.5248 18.5535 20.3508 18.3035C19.8743 17.6177 20.6742 16.9452 21.2909 16.6883C21.4498 16.6223 21.3113 16.4057 21.1519 16.4717Z" fill="#1A0000"/>
<path d="M16.5068 29.1915C16.6187 28.8893 16.8189 28.604 17.1089 28.397C17.3931 28.1873 17.7853 28.0694 18.1604 28.1136C18.3452 28.1328 18.533 28.1812 18.702 28.268C18.8659 28.3624 19.0091 28.4884 19.1034 28.6389C19.2982 28.9377 19.3299 29.2849 19.2707 29.5982C19.2173 29.2849 19.105 28.9842 18.9143 28.7568C18.7237 28.528 18.4424 28.4058 18.1303 28.3816C17.8224 28.3417 17.5141 28.4212 17.2387 28.5694C16.9646 28.7223 16.7175 28.9389 16.5068 29.1915Z" fill="#8B2A0C"/>
<g opacity="0.53">
<path d="M16.5244 29.194C16.5244 29.194 17.1757 28.058 18.3624 28.3345C19.3813 28.5718 19.2695 29.6963 19.2695 29.6963" fill="#8B2A0C"/>
<path d="M16.5244 29.1942C16.6483 28.8962 16.8607 28.6182 17.1586 28.4212C17.4511 28.2219 17.8479 28.1174 18.2209 28.1746C18.4049 28.2004 18.5902 28.2549 18.7558 28.3478C18.9161 28.4477 19.0538 28.579 19.1418 28.7322C19.3246 29.0375 19.3417 29.3859 19.2695 29.6965C19.229 29.3816 19.1293 29.0771 18.9478 28.8436C18.7667 28.6082 18.4905 28.4765 18.1796 28.4412C17.8738 28.3905 17.5621 28.4592 17.2809 28.5978C17.0009 28.7415 16.7451 28.9492 16.5244 29.1942Z" fill="#8B2A0C"/>
</g>
<path d="M10.5031 26.076C10.395 27.7143 11.7607 29.121 13.5531 29.2173C15.3456 29.3137 16.8861 28.0641 16.9937 26.4259C17.1018 24.7876 15.7362 23.3809 13.9437 23.2846C12.1516 23.1878 10.6111 24.4378 10.5031 26.076Z" fill="white"/>
<path d="M12.0832 25.5144C11.8404 26.7567 12.6457 27.9426 13.8824 28.1634C15.1191 28.3842 16.3183 27.5558 16.5615 26.3139C16.8048 25.072 15.9991 23.8857 14.7624 23.6649C13.5257 23.4441 12.3261 24.2721 12.0832 25.5144Z" fill="#280707" stroke="#280707" stroke-width="0.282609" stroke-miterlimit="10"/>
<path d="M17.0716 25.8195C16.9014 25.4923 16.7111 25.177 16.4808 24.8936C16.258 24.6071 16.0152 24.3383 15.7319 24.119C15.4435 23.9066 15.1335 23.7354 14.8052 23.614C14.4689 23.5122 14.1221 23.4454 13.7629 23.4539C13.0327 23.452 12.315 23.6405 11.7492 24.0407C11.1618 24.4262 10.7737 25.0606 10.5442 25.7219L10.5059 25.8329L10.4153 25.801C10.2008 25.7258 9.98805 25.6455 9.77734 25.5579L9.78694 25.5264L10.4479 25.6923L10.4228 25.7077C10.5618 24.9915 10.939 24.2995 11.5523 23.8264C12.1611 23.3517 12.9714 23.1217 13.7629 23.1324C14.1618 23.1309 14.5577 23.2046 14.9287 23.3383C15.2933 23.4857 15.6275 23.6916 15.9154 23.9443C16.4779 24.4619 16.8755 25.1152 17.1063 25.8122L17.0716 25.8195Z" fill="black"/>
<path d="M10.5355 25.279L9.92383 24.8231L10.6953 24.9648L10.5355 25.279Z" fill="black"/>
<path d="M10.8413 24.6141L10.3311 24.093L11.0504 24.3254L10.8413 24.6141Z" fill="black"/>
<path d="M16.0849 28.4576C15.6876 28.7564 15.2207 28.9798 14.7234 29.1242C14.2264 29.2702 13.689 29.3247 13.1604 29.2617C12.8942 29.236 12.6401 29.1546 12.3881 29.0755C12.1527 28.9595 11.9066 28.862 11.7088 28.6964C11.4885 28.5601 11.3245 28.3681 11.1509 28.1915C10.992 28.0033 10.8639 27.794 10.7354 27.5931C11.0883 27.9357 11.4338 28.2717 11.8561 28.5044C12.2625 28.7537 12.7244 28.913 13.2038 28.9633C13.6815 29.0255 14.1743 28.9906 14.6579 28.8977C15.1402 28.7978 15.6217 28.6565 16.0849 28.4576Z" fill="black"/>
<path d="M28.0996 28.9773C27.6406 30.6728 25.7109 31.7104 23.789 31.2953C21.8672 30.8798 20.681 29.1686 21.1395 27.4731C21.5985 25.7777 23.5282 24.74 25.4505 25.1552C27.3723 25.5703 28.5581 27.2815 28.0996 28.9773Z" fill="white"/>
<path d="M28.0903 28.2049C27.9155 29.5148 26.6817 30.4733 25.334 30.3462C23.9862 30.2191 23.0353 29.054 23.2102 27.7441C23.385 26.4342 24.6188 25.4756 25.9665 25.6027C27.3142 25.7302 28.2651 26.895 28.0903 28.2049Z" fill="#280707" stroke="#280707" stroke-width="0.299669" stroke-miterlimit="10"/>
<path d="M21.2812 26.9419C21.6651 26.2407 22.2726 25.637 23.0458 25.2242C23.433 25.0168 23.8732 24.887 24.3284 24.8336C24.784 24.7975 25.2518 24.8206 25.6903 24.9377C26.5552 25.1474 27.3609 25.6516 27.8708 26.3575C28.1245 26.7115 28.2568 27.1224 28.3285 27.5237C28.402 27.9293 28.3849 28.3344 28.2785 28.7326L28.1733 28.6144C28.4182 28.642 28.6632 28.675 28.9077 28.7161L28.9068 28.7507L28.17 28.7349L28.1466 28.7346L28.1495 28.7119C28.248 27.9565 28.0765 27.1543 27.6042 26.5241C27.131 25.8924 26.3846 25.4688 25.5881 25.2626C25.1917 25.147 24.7728 25.119 24.3597 25.1416C23.9479 25.185 23.5448 25.2906 23.1693 25.4561C22.427 25.8018 21.7907 26.3356 21.313 26.9607L21.2812 26.9419Z" fill="black"/>
<path d="M28.166 27.8961L29.0072 27.9745L28.2211 28.2606L28.166 27.8961Z" fill="black"/>
<path d="M28.0215 27.1569L28.8385 27.13L28.1329 27.5102L28.0215 27.1569Z" fill="black"/>
<path d="M21.4268 29.8745C21.635 30.0381 21.8432 30.1963 22.0693 30.3315C22.2855 30.477 22.5137 30.6061 22.7482 30.7194C23.2172 30.9444 23.7108 31.1184 24.2223 31.1886C24.7318 31.2727 25.2579 31.2416 25.7615 31.1111C26.2768 31.0028 26.7425 30.7547 27.2252 30.5155C27.0224 30.681 26.818 30.8557 26.5893 30.9989C26.349 31.1249 26.1129 31.267 25.8429 31.3449C25.585 31.4575 25.2996 31.4836 25.0201 31.5335C24.7364 31.5416 24.4493 31.5523 24.1685 31.5035C23.6073 31.4183 23.0728 31.2178 22.6113 30.9287C22.1507 30.6414 21.7359 30.2931 21.4268 29.8745Z" fill="black"/>
<path opacity="0.49" d="M19.6607 30.8041C19.5689 31.3379 18.9718 32.2953 17.6433 32.129C16.7245 32.0142 16.1275 31.0387 16.2192 30.5049C16.2192 30.5049 17.1038 30.3344 18.0343 30.3867C18.681 30.4231 19.6607 30.8041 19.6607 30.8041Z" fill="#8B2A0C"/>
<path d="M15.6221 30.0216C15.965 30.2927 16.3264 30.5262 16.704 30.7152C17.0837 30.8995 17.4855 31.0327 17.8969 31.0688C18.3058 31.1103 18.7285 31.0688 19.1249 30.9256C19.3331 30.8768 19.5146 30.7643 19.7165 30.6844C19.9093 30.5884 20.0887 30.469 20.2919 30.3695C20.1454 30.5258 19.9931 30.6848 19.8217 30.8254C19.6339 30.9448 19.4612 31.0965 19.2408 31.1756C18.829 31.3864 18.3312 31.4586 17.8564 31.4152C17.3791 31.3661 16.9268 31.1948 16.5492 30.9456C16.1716 30.6963 15.8457 30.3864 15.6221 30.0216Z" fill="#3B130E"/>
<path d="M11.5785 22.3864C11.6653 21.9932 11.9061 21.6322 12.2303 21.3541C12.5495 21.0673 12.9534 20.8664 13.3752 20.7355C13.8037 20.6229 14.2477 20.5784 14.6799 20.6187C14.8957 20.6314 15.1059 20.6856 15.3133 20.7266C15.5157 20.8 15.7168 20.8591 15.9062 20.9517L15.9104 20.9536C15.9196 20.9582 15.9229 20.9686 15.9183 20.9766C15.9146 20.9832 15.9066 20.9866 15.8991 20.9855L15.2941 20.909C15.0909 20.9044 14.8877 20.8837 14.6849 20.8922C14.279 20.9018 13.8751 20.9582 13.4887 21.0677C12.7222 21.2877 12.01 21.7474 11.6132 22.4014C11.6082 22.4098 11.5965 22.4129 11.5877 22.4079C11.5802 22.4041 11.5769 22.3964 11.5785 22.3895V22.3864Z" fill="#2E2E2E"/>
<path d="M28.6961 24.6217C28.4637 24.2996 28.1916 24.0376 27.9183 23.7996C27.6375 23.5672 27.3404 23.366 27.0166 23.1986C26.8531 23.1168 26.6904 23.033 26.5134 22.9701C26.3461 22.8856 26.16 22.843 25.9815 22.77L24.8274 22.4113L24.8211 22.4094C24.8115 22.4063 24.8065 22.3967 24.8094 22.3879C24.8123 22.3806 24.8198 22.376 24.8278 22.3764L25.4411 22.4098C25.6431 22.4417 25.8484 22.4582 26.0478 22.5031C26.4488 22.586 26.8385 22.7151 27.2023 22.8956C27.9112 23.2769 28.5004 23.8798 28.7324 24.6141C28.7353 24.6229 28.7294 24.6321 28.7198 24.6348C28.7119 24.6367 28.704 24.634 28.6998 24.6279L28.6961 24.6217Z" fill="#2E2E2E"/>
</g>
</svg>
