<svg width="49" height="33" viewBox="0 0 49 33" fill="none" xmlns="http://www.w3.org/2000/svg">
<path d="M43.332 1.18066C45.8173 1.18066 47.832 3.19538 47.832 5.68066V27.6807C47.832 30.1659 45.8173 32.1807 43.332 32.1807H0.832031V1.18066H43.332Z" fill="#F3F2FF"/>
<path d="M43.332 1.18066C45.8173 1.18066 47.832 3.19538 47.832 5.68066V27.6807C47.832 30.1659 45.8173 32.1807 43.332 32.1807H0.832031V1.18066H43.332Z" stroke="#7A5FFF"/>
<path d="M15.332 17.6807H17.332V15.6807H15.332V17.6807ZM15.332 21.6807H17.332V19.6807H15.332V21.6807ZM15.332 13.6807H17.332V11.6807H15.332V13.6807ZM19.332 17.6807H33.332V15.6807H19.332V17.6807ZM19.332 21.6807H33.332V19.6807H19.332V21.6807ZM19.332 11.6807V13.6807H33.332V11.6807H19.332Z" fill="#7A5FFF"/>
</svg>
