<svg width="145" height="42" viewBox="0 0 145 42" fill="none" xmlns="http://www.w3.org/2000/svg">
<path d="M48.3977 30.6319C48.3977 30.6319 51.3712 29.7162 51.8666 26.6523C52.362 23.5883 48.4628 23.1043 48.4628 23.1043C50.6282 21.851 50.4145 19.3232 50.4145 19.3232C51.0184 14.7914 47.0907 14.2211 47.0907 14.2211C47.0907 14.2211 48.8058 12.7637 48.3721 10.593C47.5295 6.37282 42.8544 6.99212 42.8544 6.99212C42.639 4.82997 41.0274 2.98366 38.7496 2.42318C38.7151 2.41456 38.6807 2.40631 38.6462 2.39845C36.3182 1.84957 33.849 2.7686 32.4888 4.61491L32.2977 4.87456C32.2437 4.60556 32.1275 4.32381 31.9794 4.04769C31.2146 2.61987 29.7638 1.61091 28.0836 1.20966C24.0911 0.256528 21.824 2.86227 21.824 2.86227C20.3898 0.876215 16.4842 1.18305 16.4842 1.18305C7.86096 2.15529 8.99813 10.028 8.99813 10.028C8.99813 10.028 5.37724 7.41023 2.15002 12.3276C-1.07763 17.2446 3.5136 21.2977 3.5136 21.2977C2.71094 21.5 1.82614 22.7937 1.82614 22.7937C-0.663536 27.8137 6.43014 29.9852 6.43014 29.9852C3.22122 34.912 10.4038 35.4395 10.4038 35.4395C10.803 38.3056 13.5613 36.2986 13.5613 36.2986C13.002 39.7739 16.0922 38.4364 16.0922 38.4364C16.5442 40.5655 18.7777 38.5559 18.7777 38.5559L19.1909 38.5255C19.1475 39.4019 19.848 40.1871 20.8558 40.3265C21.7453 40.4494 22.5816 40.0272 22.9489 39.3457C23.3698 40.1635 24.292 40.8016 25.4513 40.9619C27.1775 41.2006 28.7751 40.2924 29.0603 38.9275C29.3271 39.3577 29.8034 39.6814 30.3958 39.763C31.1997 39.8743 31.9577 39.509 32.3182 38.9092C33.3685 41.6389 36.022 39.7799 36.022 39.7799C38.0729 41.3808 39.2492 39.2381 39.2492 39.2381C39.2492 39.2381 41.0886 40.8585 43.5758 38.472C44.97 37.1341 44.0601 34.6111 44.0601 34.6111C44.0601 34.6111 46.3289 36.5264 48.3568 34.7527C50.5992 32.7907 48.3977 30.6319 48.3977 30.6319Z" fill="#7A5FFF" stroke="#7A5FFF" stroke-width="0.24579" stroke-miterlimit="10" stroke-linecap="round"/>
<path d="M5.42097 4.94983C5.9721 4.91649 6.66666 4.94983 6.68198 5.57588C6.68794 5.8239 6.58495 6.10827 6.44195 6.31995C6.36364 6.43572 6.27299 6.55486 6.1168 6.59906C5.82697 6.68111 5.6827 6.40724 5.82059 6.21167C6.11297 5.79767 6.92414 5.86062 7.24248 6.20193C7.55741 6.53912 7.3693 7.10747 6.88584 7.22062C6.9335 7.29293 6.98159 7.36524 7.02926 7.43755C7.40888 7.17866 7.90213 7.46341 8.00214 7.82083C8.05619 8.0134 8.02385 8.21946 7.94597 8.40342C7.8915 8.5323 7.80085 8.64882 7.82042 8.79307C7.85702 9.06319 8.21792 9.26888 8.37964 9.48206C8.60691 9.78178 8.74905 10.1145 8.82225 10.4678C8.8563 10.6319 9.14016 10.5622 9.10654 10.3988C9.02015 9.98072 8.83544 9.58546 8.54817 9.24303C8.34772 9.00399 8.09663 8.89759 8.19409 8.54879C8.24856 8.35471 8.32899 8.19549 8.32133 7.98905C8.29665 7.32216 7.48591 6.80064 6.82072 7.25397C6.69858 7.33715 6.83306 7.50161 6.96414 7.47089C7.52932 7.33826 7.82936 6.76242 7.63146 6.28549C7.41782 5.76958 6.68836 5.56127 6.12658 5.72162C5.84314 5.80255 5.558 5.98538 5.48267 6.25213C5.41798 6.48105 5.52566 6.74369 5.78186 6.83773C6.48919 7.09774 6.90414 6.20343 6.96457 5.74111C7.00755 5.41253 6.91307 5.07759 6.59984 4.87377C6.2649 4.65572 5.81676 4.66734 5.42139 4.69094C5.23285 4.7018 5.23116 4.96107 5.42097 4.94983Z" fill="#7A5FFF"/>
<path d="M51.9326 11.2591C51.3389 10.9196 50.5461 10.6877 50.1022 11.3355C49.8162 11.7532 49.6255 12.646 50.2307 12.924C50.4784 13.0379 50.7614 12.9712 50.9206 12.7723C51.1087 12.537 51.0444 12.2305 50.8751 12.0024C50.538 11.5487 49.789 11.3325 49.2417 11.6236C48.7003 11.9117 48.5918 12.6378 49.0484 13.0244C49.1774 13.1335 49.3421 12.9963 49.28 12.8671C48.9391 12.1579 47.8738 12.3785 47.5368 12.9604C47.441 13.1252 47.415 13.2919 47.3767 13.4703C47.3121 13.7711 46.9754 13.782 46.709 13.8865C46.2613 14.0622 45.8748 14.3312 45.565 14.6643C45.4458 14.7924 45.6531 14.9771 45.7736 14.8479C46.0383 14.5631 46.3549 14.3294 46.7294 14.1641C47.0039 14.0431 47.4759 14.0184 47.6176 13.7412C47.6793 13.6209 47.661 13.4793 47.6908 13.3523C47.7321 13.175 47.8215 12.9997 47.967 12.8697C48.2811 12.5891 48.8395 12.6104 49.0259 12.9982C49.1029 12.9458 49.1799 12.8933 49.2574 12.8412C48.9344 12.5677 49.0127 12.0567 49.391 11.8476C49.8558 11.591 50.624 11.8682 50.7278 12.3501C50.7623 12.5112 50.6976 12.7663 50.4239 12.715C50.192 12.6715 50.146 12.4134 50.1409 12.2463C50.1345 12.0346 50.1835 11.8094 50.275 11.6139C50.3831 11.3827 50.5733 11.1837 50.8763 11.1639C51.207 11.1425 51.5207 11.3317 51.785 11.4827C51.9433 11.5741 52.0914 11.3497 51.9326 11.2591Z" fill="#7A5FFF"/>
<path d="M10.8145 24.0113C10.8145 24.0113 10.8098 10.9631 25.0903 12.0706C38.6265 13.1204 36.0828 29.1872 32.5083 30.805L32.2695 31.2164C32.2695 31.2164 34.4652 21.7536 29.699 17.0258C26.5931 13.945 21.3694 13.537 17.5651 15.9352C15.5832 17.1847 12.673 20.557 10.8145 24.0113Z" fill="white" stroke="white" stroke-width="0.22415" stroke-miterlimit="10"/>
<mask id="mask0_447_12463" style="mask-type:luminance" maskUnits="userSpaceOnUse" x="9" y="17" width="29" height="22">
<path d="M37.3125 29.3357C36.6324 28.6988 35.6634 28.7295 34.799 29.0274C34.3585 29.1791 33.9461 29.3889 33.5503 29.6152C33.3128 29.7509 32.84 30.245 32.5502 30.1915C32.3502 30.1547 32.3191 29.864 32.2578 29.7254C31.7203 28.5089 30.5627 27.38 29.6349 26.3801C28.5939 25.2587 27.4827 24.1902 26.3758 23.1202C24.487 21.2945 22.7498 19.2878 21.5905 17.0264C21.2287 17.3122 20.5023 17.8885 20.3525 18.0256C18.9072 19.3496 17.3325 20.5841 15.6348 21.653C14.8475 22.1487 14.0278 22.6103 13.1545 22.9797C12.3774 23.3086 11.5318 23.5814 10.6593 23.5889C10.6538 23.5889 10.6499 23.5866 10.6444 23.5862C10.4461 24.1422 10.2907 24.7158 10.1843 25.3052C8.91823 32.312 13.0022 37.1391 20.3571 38.1559C24.6986 38.7561 28.8791 37.1927 31.5922 34.3487C32.6498 35.2928 34.7275 34.9953 36.2932 33.6548C37.8917 32.2869 38.4731 30.4234 37.3125 29.3357Z" fill="white"/>
</mask>
<g mask="url(#mask0_447_12463)">
<path d="M37.3115 29.3357C36.6315 28.6988 35.6624 28.7295 34.798 29.0274C34.3575 29.1791 33.9451 29.3889 33.5493 29.6152C33.3119 29.7509 32.839 30.245 32.5492 30.1915C32.3492 30.1547 32.3181 29.864 32.2568 29.7254C31.7193 28.5089 30.5617 27.38 29.634 26.3801C28.593 25.2587 27.4818 24.1902 26.3748 23.1202C24.4861 21.2945 22.7488 19.2878 21.5895 17.0264C21.2278 17.3122 20.5013 17.8885 20.3515 18.0256C18.9062 19.3496 17.3315 20.5841 15.6339 21.653C14.8465 22.1487 14.0268 22.6103 13.1535 22.9797C12.3764 23.3086 11.5308 23.5814 10.6583 23.5889C10.6528 23.5889 10.649 23.5866 10.6434 23.5862C10.4451 24.1422 10.2898 24.7158 10.1834 25.3052C8.91725 32.312 13.0012 37.1391 20.3562 38.1559C24.6976 38.7561 28.8781 37.1927 31.5912 34.3487C32.6488 35.2928 34.7265 34.9953 36.2923 33.6548C37.8908 32.2869 38.4721 30.4234 37.3115 29.3357Z" fill="white" stroke="white" stroke-width="0.230806" stroke-miterlimit="10"/>
</g>
<mask id="mask1_447_12463" style="mask-type:luminance" maskUnits="userSpaceOnUse" x="9" y="17" width="29" height="22">
<path d="M37.3125 29.3357C36.6324 28.6988 35.6634 28.7295 34.799 29.0274C34.3585 29.1791 33.9461 29.3889 33.5503 29.6152C33.3128 29.7509 32.84 30.245 32.5502 30.1915C32.3502 30.1547 32.3191 29.864 32.2578 29.7254C31.7203 28.5089 30.5627 27.38 29.6349 26.3801C28.5939 25.2587 27.4827 24.1902 26.3758 23.1202C24.487 21.2945 22.7498 19.2878 21.5905 17.0264C21.2287 17.3122 20.5023 17.8885 20.3525 18.0256C18.9072 19.3496 17.3325 20.5841 15.6348 21.653C14.8475 22.1487 14.0278 22.6103 13.1545 22.9797C12.3774 23.3086 11.5318 23.5814 10.6593 23.5889C10.6538 23.5889 10.6499 23.5866 10.6444 23.5862C10.4461 24.1422 10.2907 24.7158 10.1843 25.3052C8.91823 32.312 13.0022 37.1391 20.3571 38.1559C24.6986 38.7561 28.8791 37.1927 31.5922 34.3487C32.6498 35.2928 34.7275 34.9953 36.2932 33.6548C37.8917 32.2869 38.4731 30.4234 37.3125 29.3357Z" fill="white"/>
</mask>
<g mask="url(#mask1_447_12463)">
<path d="M33.5791 30.6486C34.0928 30.2409 34.6865 29.8869 35.3959 29.7239C35.7462 29.6445 36.153 29.6272 36.5301 29.7779C36.9038 29.9375 37.1706 30.2312 37.2655 30.5957C37.343 30.9636 37.211 31.3027 37.0506 31.5889C36.8782 31.8752 36.668 32.1311 36.4314 32.3622C35.962 32.8268 35.4151 33.2146 34.8261 33.5376C35.3083 33.1 35.7645 32.6477 36.1684 32.1745C36.3624 31.9336 36.551 31.6909 36.6808 31.4316C36.8131 31.1776 36.9 30.9045 36.8408 30.6695C36.794 30.4433 36.5927 30.2091 36.3501 30.1012C36.102 29.9813 35.7811 29.9753 35.4632 30.0146C34.8222 30.1102 34.1856 30.3612 33.5791 30.6486Z" fill="#1C1C1C"/>
<path d="M31.5723 34.3778C31.731 34.1893 31.8506 33.9795 31.9642 33.7701C32.0757 33.5591 32.1749 33.3426 32.2596 33.1219C32.4396 32.6836 32.5703 32.2306 32.7009 31.7754C32.6694 32.0084 32.6273 32.2407 32.5677 32.4704C32.5064 32.6993 32.4345 32.9263 32.3468 33.1489C32.1626 33.5887 31.9395 34.0319 31.5723 34.3778Z" fill="#1C1C1C"/>
<path d="M21.5577 16.5795C21.0874 16.7668 20.644 17.0553 20.4427 17.488C20.2741 17.8499 20.2911 18.307 20.6001 18.609C20.8674 18.8701 21.3777 18.9904 21.6769 18.7008C21.9058 18.479 21.9109 18.0916 21.5917 17.9339C21.1845 17.7327 20.6001 17.9121 20.2797 18.1661C19.9311 18.4426 19.7783 18.8881 19.88 19.2897C19.972 19.6532 20.3443 19.9967 20.7972 19.8671C21.1644 19.7622 21.2883 19.3055 20.9053 19.1421C20.4669 18.9552 19.963 19.2508 19.7813 19.6015C19.5383 20.0694 19.8102 20.5857 20.1613 20.945C20.2784 21.0649 20.4746 20.8907 20.3584 20.7715C20.1064 20.5137 19.8877 20.1537 19.9932 19.8034C20.0392 19.6513 20.152 19.5123 20.3009 19.4246C20.3992 19.3669 20.907 19.2133 20.8636 19.4977C20.8295 19.7202 20.4635 19.6505 20.346 19.5557C20.1945 19.4332 20.1341 19.2395 20.1277 19.0638C20.1154 18.7218 20.3201 18.3951 20.6584 18.2265C20.8755 18.1182 21.6313 17.956 21.5624 18.3696C21.4939 18.7817 20.918 18.6105 20.7406 18.3666C20.2545 17.6974 21.0704 17.0414 21.6994 16.7908C21.8616 16.7263 21.7203 16.515 21.5577 16.5795Z" fill="#1A0000"/>
<path d="M16.8057 28.9874C16.9197 28.6926 17.124 28.4142 17.4198 28.2122C17.7096 28.0077 18.1097 27.8927 18.4923 27.9357C18.6808 27.9545 18.8723 28.0017 19.0447 28.0864C19.2119 28.1785 19.3579 28.3014 19.4541 28.4483C19.6528 28.7398 19.6852 29.0785 19.6248 29.3842C19.5703 29.0785 19.4558 28.7851 19.2613 28.5633C19.0668 28.34 18.78 28.2209 18.4616 28.1973C18.1475 28.1583 17.833 28.2359 17.5521 28.3805C17.2725 28.5296 17.0206 28.7409 16.8057 28.9874Z" fill="#7A5FFF"/>
<g opacity="0.53">
<path d="M16.832 28.9902C16.832 28.9902 17.4964 27.8819 18.7067 28.1517C19.746 28.3832 19.632 29.4802 19.632 29.4802" fill="#7A5FFF"/>
<path d="M16.832 28.9904C16.9584 28.6997 17.1751 28.4284 17.4789 28.2362C17.7773 28.0418 18.182 27.9398 18.5625 27.9957C18.7502 28.0208 18.9391 28.074 19.1081 28.1646C19.2715 28.262 19.4119 28.3902 19.5017 28.5397C19.6881 28.8375 19.7056 29.1773 19.632 29.4804C19.5907 29.1732 19.489 28.8761 19.3038 28.6483C19.1191 28.4187 18.8374 28.2902 18.5203 28.2557C18.2084 28.2062 17.8905 28.2733 17.6036 28.4085C17.3181 28.5487 17.0572 28.7514 16.832 28.9904Z" fill="#7A5FFF"/>
</g>
<path d="M10.6917 25.9521C10.5814 27.5504 11.9744 28.9228 13.8027 29.0168C15.631 29.1109 17.2023 27.8917 17.3121 26.2935C17.4223 24.6952 16.0294 23.3228 14.2011 23.2288C12.3732 23.1344 10.8019 24.3539 10.6917 25.9521Z" fill="white"/>
<path d="M12.3038 25.4055C12.0561 26.6175 12.8775 27.7745 14.139 27.9899C15.4004 28.2053 16.6235 27.3972 16.8717 26.1856C17.1198 24.9739 16.298 23.8166 15.0365 23.6012C13.7751 23.3858 12.5515 24.1935 12.3038 25.4055Z" fill="black" stroke="black" stroke-width="0.232633" stroke-miterlimit="10"/>
<path d="M17.3932 25.7039C17.2196 25.3847 17.0255 25.0771 16.7906 24.8006C16.5633 24.5211 16.3156 24.2588 16.0267 24.0449C15.7326 23.8377 15.4164 23.6706 15.0814 23.5522C14.7384 23.4529 14.3848 23.3877 14.0183 23.396C13.2736 23.3941 12.5415 23.5781 11.9644 23.9685C11.3652 24.3446 10.9694 24.9635 10.7354 25.6087L10.6962 25.717L10.6038 25.6859C10.3851 25.6124 10.168 25.5341 9.95312 25.4487L9.96291 25.418L10.637 25.5799L10.6115 25.5948C10.7532 24.8961 11.138 24.221 11.7636 23.7594C12.3845 23.2963 13.211 23.0719 14.0183 23.0824C14.4252 23.0809 14.8291 23.1528 15.2074 23.2832C15.5794 23.4271 15.9203 23.6279 16.2139 23.8744C16.7876 24.3795 17.1932 25.0167 17.4286 25.6968L17.3932 25.7039Z" fill="black"/>
<path d="M10.7255 25.1762L10.1016 24.7314L10.8885 24.8697L10.7255 25.1762Z" fill="black"/>
<path d="M11.0342 24.5279L10.5137 24.0195L11.2474 24.2462L11.0342 24.5279Z" fill="black"/>
<path d="M16.3881 28.277C15.9829 28.5684 15.5067 28.7865 14.9994 28.9274C14.4925 29.0697 13.9444 29.1229 13.4052 29.0615C13.1336 29.0364 12.8744 28.957 12.6174 28.8798C12.3774 28.7666 12.1263 28.6715 11.9245 28.51C11.6998 28.377 11.5326 28.1897 11.3555 28.0173C11.1934 27.8337 11.0627 27.6295 10.9316 27.4336C11.2917 27.7678 11.6441 28.0956 12.0748 28.3227C12.4893 28.5658 12.9604 28.7213 13.4494 28.7704C13.9367 28.8311 14.4393 28.797 14.9326 28.7063C15.4246 28.6089 15.9157 28.471 16.3881 28.277Z" fill="black"/>
<path d="M28.6362 28.783C28.1681 30.4371 26.1997 31.4495 24.2395 31.0445C22.2792 30.6391 21.0693 28.9696 21.537 27.3155C22.0051 25.6614 23.9735 24.649 25.9342 25.054C27.8944 25.4591 29.1039 27.1285 28.6362 28.783Z" fill="white"/>
<path d="M28.6258 28.0282C28.4474 29.3062 27.189 30.2413 25.8143 30.1173C24.4397 29.9933 23.4698 28.8566 23.6481 27.5786C23.8264 26.3007 25.0849 25.3655 26.4595 25.4896C27.8342 25.6139 28.8041 26.7503 28.6258 28.0282Z" fill="black" stroke="black" stroke-width="0.246677" stroke-miterlimit="10"/>
<path d="M21.6719 26.7968C22.0634 26.1126 22.6831 25.5237 23.4717 25.1209C23.8666 24.9186 24.3156 24.792 24.7799 24.7399C25.2447 24.7047 25.7218 24.7271 26.169 24.8414C27.0513 25.046 27.8731 25.5379 28.3932 26.2265C28.6519 26.572 28.7868 26.9728 28.86 27.3644C28.9349 27.76 28.9175 28.1553 28.809 28.5438L28.7017 28.4284C28.9515 28.4554 29.2013 28.4876 29.4507 28.5277L29.4499 28.5614L28.6983 28.546L28.6745 28.5457L28.6775 28.5235C28.7779 27.7866 28.603 27.0039 28.1212 26.3891C27.6386 25.7728 26.8772 25.3596 26.0648 25.1584C25.6605 25.0456 25.2332 25.0182 24.8118 25.0404C24.3918 25.0827 23.9807 25.1857 23.5977 25.3472C22.8405 25.6844 22.1915 26.2052 21.7042 26.8151L21.6719 26.7968Z" fill="black"/>
<path d="M28.7012 27.7256L29.5592 27.802L28.7573 28.0811L28.7012 27.7256Z" fill="black"/>
<path d="M28.5547 27.0067L29.388 26.9805L28.6683 27.3514L28.5547 27.0067Z" fill="black"/>
<path d="M21.8301 29.6562C22.0424 29.8159 22.2548 29.9702 22.4855 30.1021C22.7059 30.2441 22.9387 30.37 23.1779 30.4805C23.6563 30.7001 24.1597 30.8698 24.6815 30.9383C25.2012 31.0204 25.7378 30.99 26.2515 30.8626C26.7771 30.757 27.2521 30.515 27.7445 30.2816C27.5376 30.443 27.3291 30.6135 27.0959 30.7533C26.8507 30.8761 26.6098 31.0148 26.3345 31.0908C26.0715 31.2006 25.7804 31.2261 25.4952 31.2748C25.2058 31.2826 24.913 31.2931 24.6266 31.2455C24.0542 31.1624 23.509 30.9668 23.0383 30.6847C22.5685 30.4045 22.1454 30.0646 21.8301 29.6562Z" fill="black"/>
<path opacity="0.49" d="M20.0392 30.5625C19.9456 31.0832 19.3366 32.0173 17.9815 31.855C17.0444 31.743 16.4354 30.7914 16.529 30.2706C16.529 30.2706 17.4312 30.1043 18.3803 30.1552C19.04 30.1908 20.0392 30.5625 20.0392 30.5625Z" fill="#7A5FFF"/>
<path d="M15.9209 29.7969C16.2707 30.0614 16.6393 30.2892 17.0244 30.4735C17.4117 30.6533 17.8216 30.7833 18.2412 30.8186C18.6583 30.859 19.0894 30.8186 19.4937 30.6788C19.7061 30.6312 19.8912 30.5215 20.0972 30.4435C20.2938 30.3499 20.4768 30.2333 20.6841 30.1363C20.5347 30.2888 20.3793 30.4439 20.2044 30.581C20.0129 30.6975 19.8367 30.8455 19.612 30.9227C19.192 31.1284 18.6842 31.1988 18.1999 31.1565C17.713 31.1085 17.2517 30.9414 16.8666 30.6983C16.4814 30.4551 16.149 30.1528 15.9209 29.7969Z" fill="#3B130E"/>
<path d="M11.7934 22.3521C11.8819 21.9684 12.1275 21.6163 12.4582 21.345C12.7837 21.0651 13.1957 20.8692 13.626 20.7414C14.0631 20.6316 14.5159 20.5882 14.9568 20.6275C15.1768 20.6399 15.3913 20.6927 15.6028 20.7328C15.8092 20.8044 16.0144 20.8621 16.2076 20.9524L16.2118 20.9542C16.2212 20.9587 16.2246 20.9688 16.2199 20.9767C16.2161 20.9831 16.208 20.9864 16.2003 20.9853L15.5832 20.9108C15.376 20.9063 15.1687 20.886 14.9619 20.8943C14.5478 20.9037 14.1358 20.9587 13.7417 21.0655C12.9599 21.2802 12.2335 21.7286 11.8287 22.3667C11.8236 22.3749 11.8117 22.3779 11.8028 22.3731C11.7951 22.3693 11.7917 22.3618 11.7934 22.3551V22.3521Z" fill="#2E2E2E"/>
<path d="M29.2503 24.5324C29.0133 24.2181 28.7358 23.9626 28.457 23.7303C28.1706 23.5036 27.8676 23.3073 27.5373 23.144C27.3705 23.0642 27.2045 22.9825 27.0241 22.921C26.8534 22.8386 26.6636 22.797 26.4815 22.7258L25.3043 22.3759L25.2979 22.374C25.2881 22.371 25.283 22.3617 25.286 22.3531C25.289 22.3459 25.2966 22.3414 25.3047 22.3418L25.9303 22.3744C26.1363 22.4055 26.3457 22.4216 26.5491 22.4655C26.9581 22.5464 27.3556 22.6723 27.7267 22.8484C28.4498 23.2204 29.0507 23.8086 29.2874 24.5249C29.2903 24.5336 29.2844 24.5425 29.2746 24.5452C29.2665 24.547 29.2584 24.5444 29.2542 24.5384L29.2503 24.5324Z" fill="#2E2E2E"/>
</g>
<path d="M66.068 28.148C67.34 28.148 68.252 27.92 68.804 27.464C69.38 26.984 69.668 26.42 69.668 25.772C69.668 25.172 69.44 24.692 68.984 24.332C68.552 23.948 67.904 23.612 67.04 23.324L65.132 22.712C63.836 22.28 62.696 21.8 61.712 21.272C60.728 20.744 59.96 20.072 59.408 19.256C58.856 18.416 58.58 17.348 58.58 16.052C58.58 14.06 59.336 12.476 60.848 11.3C62.36 10.124 64.46 9.536 67.148 9.536C68.516 9.536 69.728 9.668 70.784 9.932C71.864 10.196 72.704 10.592 73.304 11.12C73.928 11.624 74.24 12.248 74.24 12.992C74.24 13.52 74.108 13.988 73.844 14.396C73.58 14.804 73.268 15.14 72.908 15.404C72.356 15.044 71.612 14.72 70.676 14.432C69.764 14.144 68.768 14 67.688 14C66.536 14 65.66 14.192 65.06 14.576C64.484 14.96 64.196 15.452 64.196 16.052C64.196 16.532 64.388 16.928 64.772 17.24C65.18 17.528 65.768 17.792 66.536 18.032L68.516 18.68C70.7 19.352 72.38 20.24 73.556 21.344C74.732 22.448 75.32 23.936 75.32 25.808C75.32 27.824 74.54 29.468 72.98 30.74C71.42 31.988 69.164 32.612 66.212 32.612C64.748 32.612 63.44 32.444 62.288 32.108C61.136 31.796 60.224 31.352 59.552 30.776C58.88 30.176 58.544 29.48 58.544 28.688C58.544 28.064 58.724 27.536 59.084 27.104C59.444 26.672 59.852 26.336 60.308 26.096C60.956 26.624 61.76 27.104 62.72 27.536C63.704 27.944 64.82 28.148 66.068 28.148ZM78.018 16.808H83.49V31.964C83.25 32.012 82.89 32.072 82.41 32.144C81.954 32.216 81.474 32.252 80.97 32.252C79.89 32.252 79.122 32.06 78.666 31.676C78.234 31.292 78.018 30.632 78.018 29.696V16.808ZM83.49 23.648H78.018V10.112C78.282 10.064 78.654 10.004 79.134 9.932C79.614 9.86 80.094 9.824 80.574 9.824C81.606 9.824 82.35 10.004 82.806 10.364C83.262 10.724 83.49 11.396 83.49 12.38V23.648ZM101.956 26.564C101.668 26.756 101.308 26.936 100.876 27.104C100.444 27.248 99.94 27.32 99.364 27.32C98.62 27.32 97.996 27.224 97.492 27.032C97.012 26.84 96.688 26.516 96.52 26.06C95.704 23.78 95.008 21.872 94.432 20.336C93.88 18.8 93.448 17.48 93.136 16.376H92.956C92.884 17.888 92.824 19.28 92.776 20.552C92.728 21.824 92.68 23.048 92.632 24.224C92.608 25.4 92.572 26.612 92.524 27.86C92.476 29.084 92.416 30.428 92.344 31.892C92.056 31.964 91.696 32.036 91.264 32.108C90.832 32.204 90.4 32.252 89.968 32.252C89.056 32.252 88.348 32.108 87.844 31.82C87.34 31.508 87.088 30.968 87.088 30.2C87.088 29.672 87.112 28.892 87.16 27.86C87.208 26.804 87.268 25.604 87.34 24.26C87.436 22.892 87.532 21.452 87.628 19.94C87.724 18.428 87.82 16.94 87.916 15.476C88.036 13.988 88.132 12.62 88.204 11.372C88.396 11.084 88.78 10.796 89.356 10.508C89.932 10.196 90.724 10.04 91.732 10.04C92.812 10.04 93.676 10.22 94.324 10.58C94.972 10.916 95.44 11.468 95.728 12.236C96.088 13.124 96.472 14.144 96.88 15.296C97.288 16.424 97.696 17.576 98.104 18.752C98.512 19.904 98.884 20.96 99.22 21.92H99.4C100.096 19.784 100.792 17.708 101.488 15.692C102.184 13.676 102.796 11.984 103.324 10.616C103.636 10.448 104.044 10.316 104.548 10.22C105.076 10.1 105.628 10.04 106.204 10.04C107.236 10.04 108.064 10.196 108.688 10.508C109.336 10.796 109.72 11.24 109.84 11.84C109.936 12.296 110.032 13.016 110.128 14C110.248 14.984 110.368 16.124 110.488 17.42C110.608 18.692 110.728 20.036 110.848 21.452C110.968 22.844 111.076 24.2 111.172 25.52C111.292 26.84 111.388 28.04 111.46 29.12C111.532 30.176 111.58 31.016 111.604 31.64C111.244 31.856 110.86 32.012 110.452 32.108C110.068 32.204 109.576 32.252 108.976 32.252C108.232 32.252 107.584 32.12 107.032 31.856C106.48 31.568 106.18 31.028 106.132 30.236C106.036 28.34 105.952 26.54 105.88 24.836C105.808 23.132 105.748 21.572 105.7 20.156C105.652 18.74 105.604 17.54 105.556 16.556H105.376C105.064 17.588 104.62 18.896 104.044 20.48C103.492 22.04 102.796 24.068 101.956 26.564ZM126.435 18.896V22.784H118.407V18.896H126.435ZM123.735 22.784L124.167 19.796C126.159 19.796 127.803 20.036 129.099 20.516C130.419 20.996 131.415 21.668 132.087 22.532C132.759 23.396 133.095 24.44 133.095 25.664C133.095 27.992 132.231 29.72 130.503 30.848C128.775 31.976 126.315 32.54 123.123 32.54C122.547 32.54 121.887 32.516 121.143 32.468C120.423 32.42 119.679 32.336 118.911 32.216C118.167 32.096 117.483 31.928 116.859 31.712C115.611 31.256 114.987 30.452 114.987 29.3V12.092C114.987 11.612 115.119 11.252 115.383 11.012C115.647 10.748 116.007 10.532 116.463 10.364C117.279 10.1 118.263 9.908 119.415 9.788C120.567 9.668 121.755 9.608 122.979 9.608C125.931 9.608 128.223 10.124 129.855 11.156C131.487 12.164 132.303 13.724 132.303 15.836C132.303 16.988 131.967 17.972 131.295 18.788C130.623 19.604 129.639 20.228 128.343 20.66C127.071 21.068 125.523 21.272 123.699 21.272L123.447 18.896C124.623 18.896 125.487 18.668 126.039 18.212C126.591 17.756 126.867 17.108 126.867 16.268C126.867 15.476 126.543 14.864 125.895 14.432C125.247 14 124.287 13.784 123.015 13.784C122.559 13.784 122.067 13.796 121.539 13.82C121.035 13.844 120.627 13.892 120.315 13.964V28.004C120.699 28.124 121.191 28.208 121.791 28.256C122.391 28.28 122.955 28.292 123.483 28.292C124.707 28.292 125.679 28.064 126.399 27.608C127.143 27.152 127.515 26.432 127.515 25.448C127.515 24.536 127.191 23.864 126.543 23.432C125.919 23 124.983 22.784 123.735 22.784ZM136.02 16.808H141.492V31.964C141.252 32.012 140.892 32.072 140.412 32.144C139.956 32.216 139.476 32.252 138.972 32.252C137.892 32.252 137.124 32.06 136.668 31.676C136.236 31.292 136.02 30.632 136.02 29.696V16.808ZM141.492 23.648H136.02V10.112C136.284 10.064 136.656 10.004 137.136 9.932C137.616 9.86 138.096 9.824 138.576 9.824C139.608 9.824 140.352 10.004 140.808 10.364C141.264 10.724 141.492 11.396 141.492 12.38V23.648Z" fill="#1E1E2F"/>
</svg>
