<svg width="21" height="20" viewBox="0 0 21 20" fill="none" xmlns="http://www.w3.org/2000/svg">
<path d="M0.5 10C0.5 15.523 4.977 20 10.5 20C16.023 20 20.5 15.523 20.5 10C20.5 4.477 16.023 0 10.5 0C4.977 0 0.5 4.477 0.5 10ZM18.5 10C18.5 12.1217 17.6571 14.1566 16.1569 15.6569C14.6566 17.1571 12.6217 18 10.5 18C8.37827 18 6.34344 17.1571 4.84315 15.6569C3.34285 14.1566 2.5 12.1217 2.5 10C2.5 7.87827 3.34285 5.84344 4.84315 4.34315C6.34344 2.84285 8.37827 2 10.5 2C12.6217 2 14.6566 2.84285 16.1569 4.34315C17.6571 5.84344 18.5 7.87827 18.5 10ZM16.5 10C16.5012 10.7881 16.3466 11.5687 16.045 12.2969C15.7435 13.0251 15.301 13.6864 14.743 14.243L10.5 10V4C12.0913 4 13.6174 4.63214 14.7426 5.75736C15.8679 6.88258 16.5 8.4087 16.5 10Z" fill="#FDFDFF"/>
</svg>
