<svg width="51" height="43" viewBox="0 0 51 43" fill="none" xmlns="http://www.w3.org/2000/svg">
<path d="M46.9883 31.3727C46.9883 31.3727 49.9036 30.4341 50.3893 27.2936C50.8749 24.153 47.0521 23.6569 47.0521 23.6569C49.1751 22.3723 48.9656 19.7813 48.9656 19.7813C49.5577 15.1361 45.7069 14.5517 45.7069 14.5517C45.7069 14.5517 47.3884 13.0578 46.9633 10.8328C46.1371 6.50714 41.5537 7.14192 41.5537 7.14192C41.3425 4.92572 39.7624 3.03326 37.5293 2.45876C37.4955 2.44992 37.4617 2.44147 37.4279 2.43341C35.1456 1.87081 32.7248 2.81282 31.3912 4.70529L31.2039 4.97142C31.1509 4.6957 31.037 4.40691 30.8918 4.12388C30.142 2.66037 28.7196 1.62619 27.0723 1.2149C23.1581 0.237941 20.9355 2.90883 20.9355 2.90883C19.5293 0.873121 15.7003 1.18763 15.7003 1.18763C7.24603 2.18417 8.36092 10.2537 8.36092 10.2537C8.36092 10.2537 4.81099 7.57049 1.64701 12.6108C-1.51738 17.6507 2.98387 21.8051 2.98387 21.8051C2.19694 22.0125 1.32949 23.3385 1.32949 23.3385C-1.1114 28.484 5.84326 30.7099 5.84326 30.7099C2.69722 35.7598 9.73908 36.3005 9.73908 36.3005C10.1305 39.2383 12.8346 37.181 12.8346 37.181C12.2864 40.7432 15.316 39.3723 15.316 39.3723C15.7591 41.5547 17.9488 39.4948 17.9488 39.4948L18.354 39.4637C18.3114 40.3619 18.9982 41.1668 19.9862 41.3097C20.8583 41.4356 21.6782 41.0028 22.0382 40.3043C22.4509 41.1426 23.3551 41.7966 24.4916 41.961C26.184 42.2056 27.7503 41.2747 28.0299 39.8757C28.2915 40.3166 28.7584 40.6484 29.3392 40.7321C30.1274 40.8462 30.8705 40.4717 31.2239 39.8569C32.2537 42.6549 34.8552 40.7494 34.8552 40.7494C36.8659 42.3903 38.0192 40.1941 38.0192 40.1941C38.0192 40.1941 39.8225 41.855 42.2609 39.4088C43.6278 38.0374 42.7357 35.4514 42.7357 35.4514C42.7357 35.4514 44.9601 37.4145 46.9482 35.5966C49.1467 33.5854 46.9883 31.3727 46.9883 31.3727Z" fill="#1A0000" stroke="#1A0000" stroke-width="0.298591" stroke-miterlimit="10" stroke-linecap="round"/>
<path d="M4.84788 5.04645C5.38821 5.01227 6.06916 5.04645 6.08418 5.68815C6.09002 5.94238 5.98905 6.23385 5.84885 6.45082C5.77208 6.56948 5.6832 6.6916 5.53007 6.73692C5.24593 6.82102 5.10448 6.5403 5.23967 6.33984C5.52632 5.91549 6.32159 5.98001 6.63369 6.32985C6.94245 6.67547 6.75803 7.25804 6.28404 7.37401C6.33077 7.44813 6.37792 7.52225 6.42465 7.59637C6.79683 7.331 7.28042 7.62287 7.37847 7.98923C7.43146 8.18661 7.39975 8.39782 7.3234 8.58638C7.26999 8.71848 7.18112 8.83792 7.20031 8.98577C7.23619 9.26265 7.59002 9.47347 7.74857 9.69198C7.97138 9.9992 8.11074 10.3402 8.1825 10.7024C8.21588 10.8706 8.49419 10.7991 8.46122 10.6317C8.37652 10.2031 8.19544 9.79797 7.9138 9.44698C7.71727 9.20197 7.4711 9.09291 7.56665 8.73538C7.62006 8.53646 7.69891 8.37325 7.6914 8.16165C7.6672 7.47809 6.87236 6.94353 6.2202 7.4082C6.10045 7.49345 6.2323 7.66203 6.36081 7.63054C6.91491 7.49459 7.20907 6.90436 7.01505 6.4155C6.8056 5.8867 6.09043 5.67318 5.53967 5.83754C5.26178 5.92049 4.98223 6.10789 4.90837 6.38131C4.84495 6.61595 4.95052 6.88516 5.2017 6.98155C5.89516 7.24806 6.30198 6.3314 6.36123 5.85751C6.40337 5.52072 6.31074 5.1774 6.00364 4.9685C5.67527 4.74499 5.23591 4.7569 4.84829 4.78109C4.66345 4.79223 4.66179 5.05797 4.84788 5.04645Z" fill="#1A0000"/>
<path d="M50.4536 11.5164C49.8716 11.1685 49.0942 10.9308 48.6591 11.5948C48.3787 12.023 48.1917 12.9381 48.7851 13.223C49.0279 13.3398 49.3054 13.2714 49.4614 13.0675C49.6458 12.8263 49.5828 12.5122 49.4168 12.2783C49.0863 11.8133 48.352 11.5917 47.8154 11.8901C47.2846 12.1854 47.1782 12.9296 47.626 13.3259C47.7524 13.4377 47.9139 13.2971 47.8529 13.1647C47.5187 12.4377 46.4744 12.6639 46.1439 13.2603C46.05 13.4292 46.0246 13.6001 45.987 13.7829C45.9236 14.0913 45.5936 14.1024 45.3324 14.2096C44.8934 14.3897 44.5146 14.6654 44.2108 15.0068C44.094 15.1382 44.2972 15.3275 44.4153 15.195C44.6748 14.9031 44.9852 14.6635 45.3524 14.4942C45.6215 14.3701 46.0842 14.3448 46.2232 14.0606C46.2837 13.9373 46.2657 13.7921 46.2949 13.662C46.3354 13.4803 46.423 13.3006 46.5657 13.1673C46.8737 12.8797 47.4211 12.9016 47.6038 13.2991C47.6794 13.2453 47.7549 13.1915 47.8308 13.1382C47.5141 12.8578 47.5909 12.334 47.9618 12.1197C48.4175 11.8567 49.1706 12.1409 49.2724 12.6347C49.3062 12.7998 49.2428 13.0614 48.9745 13.0087C48.7471 12.9642 48.702 12.6996 48.697 12.5283C48.6908 12.3114 48.7388 12.0806 48.8285 11.8801C48.9344 11.6432 49.1209 11.4392 49.418 11.4189C49.7422 11.397 50.0497 11.5909 50.3089 11.7457C50.4641 11.8394 50.6093 11.6094 50.4536 11.5164Z" fill="#1A0000"/>
<path d="M10.8373 34.7651L10.1835 33.8419L9.48128 34.6445L9.64693 33.373L8.88086 32.9302L9.84554 32.8883L10.3095 31.9717L10.5978 32.941L11.5813 33.1199L10.8065 33.5128L10.8373 34.7651Z" fill="white" stroke="white" stroke-width="0.0711279" stroke-miterlimit="10" stroke-linecap="round"/>
<path d="M10.1416 24.5879C10.1416 24.5879 10.137 11.2135 24.1377 12.3487C37.4086 13.4247 34.9147 29.8932 31.4103 31.5514L31.1762 31.973C31.1762 31.973 33.3288 22.2738 28.6561 17.4278C25.611 14.2699 20.4897 13.8517 16.76 16.3099C14.8168 17.5906 11.9637 21.0472 10.1416 24.5879Z" fill="#FFD44D" stroke="#FFD44D" stroke-width="0.272303" stroke-miterlimit="10"/>
<mask id="mask0_705_7747" style="mask-type:luminance" maskUnits="userSpaceOnUse" x="9" y="17" width="28" height="23">
<path d="M36.1192 30.0458C35.4524 29.393 34.5023 29.4245 33.6549 29.7298C33.2231 29.8853 32.8187 30.1004 32.4307 30.3323C32.1979 30.4713 31.7343 30.9778 31.4502 30.9229C31.2541 30.8853 31.2236 30.5873 31.1635 30.4452C30.6365 29.1983 29.5016 28.0412 28.592 27.0163C27.5715 25.8669 26.482 24.7716 25.3968 23.6749C23.545 21.8035 21.8418 19.7467 20.7053 17.4287C20.3506 17.7217 19.6384 18.3123 19.4915 18.4529C18.0745 19.81 16.5307 21.0754 14.8663 22.171C14.0944 22.6791 13.2908 23.1522 12.4346 23.5309C11.6727 23.868 10.8436 24.1476 9.98829 24.1553C9.98287 24.1553 9.97911 24.153 9.97369 24.1526C9.77925 24.7225 9.62696 25.3104 9.52265 25.9145C8.28134 33.0965 12.2852 38.0443 19.4961 39.0865C23.7524 39.7017 27.851 38.0992 30.511 35.1841C31.5478 36.1518 33.5848 35.8469 35.1198 34.4728C36.687 33.0708 37.257 31.1606 36.1192 30.0458Z" fill="white"/>
</mask>
<g mask="url(#mask0_705_7747)">
<path d="M36.1192 30.0458C35.4524 29.393 34.5023 29.4245 33.6549 29.7298C33.2231 29.8853 32.8187 30.1004 32.4307 30.3323C32.1979 30.4713 31.7343 30.9778 31.4502 30.9229C31.2541 30.8853 31.2236 30.5873 31.1635 30.4452C30.6365 29.1983 29.5016 28.0412 28.592 27.0163C27.5715 25.8669 26.482 24.7716 25.3968 23.6749C23.545 21.8035 21.8418 19.7467 20.7053 17.4287C20.3506 17.7217 19.6384 18.3123 19.4915 18.4529C18.0745 19.81 16.5307 21.0754 14.8663 22.171C14.0944 22.6791 13.2908 23.1522 12.4346 23.5309C11.6727 23.868 10.8436 24.1476 9.98829 24.1553C9.98287 24.1553 9.97911 24.153 9.97369 24.1526C9.77925 24.7225 9.62696 25.3104 9.52265 25.9145C8.28134 33.0965 12.2852 38.0443 19.4961 39.0865C23.7524 39.7017 27.851 38.0992 30.511 35.1841C31.5478 36.1518 33.5848 35.8469 35.1198 34.4728C36.687 33.0708 37.257 31.1606 36.1192 30.0458Z" fill="#CD5428" stroke="#CD5428" stroke-width="0.280389" stroke-miterlimit="10"/>
</g>
<mask id="mask1_705_7747" style="mask-type:luminance" maskUnits="userSpaceOnUse" x="9" y="17" width="28" height="23">
<path d="M36.1192 30.0458C35.4524 29.393 34.5023 29.4245 33.6549 29.7298C33.2231 29.8853 32.8187 30.1004 32.4307 30.3323C32.1979 30.4713 31.7343 30.9778 31.4502 30.9229C31.2541 30.8853 31.2236 30.5873 31.1635 30.4452C30.6365 29.1983 29.5016 28.0412 28.592 27.0163C27.5715 25.8669 26.482 24.7716 25.3968 23.6749C23.545 21.8035 21.8418 19.7467 20.7053 17.4287C20.3506 17.7217 19.6384 18.3123 19.4915 18.4529C18.0745 19.81 16.5307 21.0754 14.8663 22.171C14.0944 22.6791 13.2908 23.1522 12.4346 23.5309C11.6727 23.868 10.8436 24.1476 9.98829 24.1553C9.98287 24.1553 9.97911 24.153 9.97369 24.1526C9.77925 24.7225 9.62696 25.3104 9.52265 25.9145C8.28134 33.0965 12.2852 38.0443 19.4961 39.0865C23.7524 39.7017 27.851 38.0992 30.511 35.1841C31.5478 36.1518 33.5848 35.8469 35.1198 34.4728C36.687 33.0708 37.257 31.1606 36.1192 30.0458Z" fill="white"/>
</mask>
<g mask="url(#mask1_705_7747)">
<path opacity="0.49" d="M27.2389 35.4028C26.6085 37.0429 24.6528 37.902 22.8708 37.3217C21.0887 36.7415 20.1553 34.9416 20.7858 33.3014C21.4163 31.6612 23.3719 30.8022 25.154 31.3824C26.936 31.9627 27.8694 33.7626 27.2389 35.4028Z" fill="#8B2A0C" stroke="#8B2A0C" stroke-width="0.337564" stroke-miterlimit="10"/>
</g>
<mask id="mask2_705_7747" style="mask-type:luminance" maskUnits="userSpaceOnUse" x="9" y="17" width="28" height="23">
<path d="M36.1192 30.0458C35.4524 29.393 34.5023 29.4245 33.6549 29.7298C33.2231 29.8853 32.8187 30.1004 32.4307 30.3323C32.1979 30.4713 31.7343 30.9778 31.4502 30.9229C31.2541 30.8853 31.2236 30.5873 31.1635 30.4452C30.6365 29.1983 29.5016 28.0412 28.592 27.0163C27.5715 25.8669 26.482 24.7716 25.3968 23.6749C23.545 21.8035 21.8418 19.7467 20.7053 17.4287C20.3506 17.7217 19.6384 18.3123 19.4915 18.4529C18.0745 19.81 16.5307 21.0754 14.8663 22.171C14.0944 22.6791 13.2908 23.1522 12.4346 23.5309C11.6727 23.868 10.8436 24.1476 9.98829 24.1553C9.98287 24.1553 9.97911 24.153 9.97369 24.1526C9.77925 24.7225 9.62696 25.3104 9.52265 25.9145C8.28134 33.0965 12.2852 38.0443 19.4961 39.0865C23.7524 39.7017 27.851 38.0992 30.511 35.1841C31.5478 36.1518 33.5848 35.8469 35.1198 34.4728C36.687 33.0708 37.257 31.1606 36.1192 30.0458Z" fill="white"/>
</mask>
<g mask="url(#mask2_705_7747)">
<path opacity="0.49" d="M13.6511 32.8329C13.087 34.3006 11.3366 35.0698 9.74149 34.5502C8.14678 34.031 7.31104 32.4201 7.87557 30.9519C8.43969 29.4842 10.19 28.715 11.7852 29.2346C13.3799 29.7538 14.2152 31.3648 13.6511 32.8329Z" fill="#8B2A0C" stroke="#8B2A0C" stroke-width="0.302111" stroke-miterlimit="10"/>
</g>
<mask id="mask3_705_7747" style="mask-type:luminance" maskUnits="userSpaceOnUse" x="9" y="17" width="28" height="23">
<path d="M36.1192 30.0458C35.4524 29.393 34.5023 29.4245 33.6549 29.7298C33.2231 29.8853 32.8187 30.1004 32.4307 30.3323C32.1979 30.4713 31.7343 30.9778 31.4502 30.9229C31.2541 30.8853 31.2236 30.5873 31.1635 30.4452C30.6365 29.1983 29.5016 28.0412 28.592 27.0163C27.5715 25.8669 26.482 24.7716 25.3968 23.6749C23.545 21.8035 21.8418 19.7467 20.7053 17.4287C20.3506 17.7217 19.6384 18.3123 19.4915 18.4529C18.0745 19.81 16.5307 21.0754 14.8663 22.171C14.0944 22.6791 13.2908 23.1522 12.4346 23.5309C11.6727 23.868 10.8436 24.1476 9.98829 24.1553C9.98287 24.1553 9.97911 24.153 9.97369 24.1526C9.77925 24.7225 9.62696 25.3104 9.52265 25.9145C8.28134 33.0965 12.2852 38.0443 19.4961 39.0865C23.7524 39.7017 27.851 38.0992 30.511 35.1841C31.5478 36.1518 33.5848 35.8469 35.1198 34.4728C36.687 33.0708 37.257 31.1606 36.1192 30.0458Z" fill="white"/>
</mask>
<g mask="url(#mask3_705_7747)">
<path d="M33.1342 36.8178L32.4808 35.8946L31.7781 36.6972L31.9438 35.4253L31.1777 34.9826L32.1424 34.9411L32.6064 34.0244L32.8951 34.9937L33.8782 35.1727L33.1033 35.5655L33.1342 36.8178Z" fill="white" stroke="white" stroke-width="0.0711279" stroke-miterlimit="10" stroke-linecap="round"/>
<path d="M32.4561 31.389C32.9597 30.9712 33.5417 30.6083 34.2373 30.4412C34.5807 30.3598 34.9796 30.3421 35.3492 30.4965C35.7156 30.6601 35.9772 30.9612 36.0702 31.3348C36.1462 31.712 36.0168 32.0595 35.8595 32.3529C35.6905 32.6463 35.4844 32.9086 35.2524 33.1455C34.7922 33.6217 34.2561 34.0192 33.6786 34.3502C34.1513 33.9017 34.5986 33.4382 34.9946 32.9531C35.1848 32.7062 35.3697 32.4574 35.4969 32.1916C35.6267 31.9312 35.7118 31.6513 35.6538 31.4105C35.6079 31.1786 35.4106 30.9385 35.1727 30.8279C34.9295 30.7051 34.6149 30.6989 34.3032 30.7392C33.6748 30.8372 33.0506 31.0945 32.4561 31.389Z" fill="#8B2A0C"/>
<path d="M30.4883 35.2114C30.6439 35.0182 30.7612 34.8031 30.8726 34.5885C30.9819 34.3723 31.0791 34.1503 31.1621 33.9241C31.3386 33.4748 31.4667 33.0105 31.5948 32.5439C31.5639 32.7828 31.5226 33.0209 31.4642 33.2563C31.4041 33.4909 31.3336 33.7237 31.2477 33.9518C31.067 34.4026 30.8484 34.8569 30.4883 35.2114Z" fill="#8B2A0C"/>
<path d="M20.6714 16.9714C20.2104 17.1634 19.7756 17.4591 19.5783 17.9026C19.413 18.2736 19.4297 18.7421 19.7326 19.0516C19.9947 19.3193 20.4949 19.4426 20.7883 19.1457C21.0128 18.9184 21.0178 18.5213 20.7048 18.3596C20.3055 18.1534 19.7326 18.3373 19.4185 18.5977C19.0767 18.8811 18.9269 19.3377 19.0267 19.7494C19.1168 20.1219 19.4819 20.4741 19.9258 20.3412C20.2859 20.2337 20.4073 19.7655 20.0318 19.5981C19.602 19.4065 19.108 19.7095 18.9299 20.0689C18.6916 20.5486 18.9582 21.0777 19.3025 21.446C19.4172 21.5689 19.6096 21.3903 19.4956 21.2682C19.2486 21.004 19.0342 20.635 19.1377 20.2759C19.1827 20.12 19.2933 19.9775 19.4393 19.8877C19.5357 19.8285 20.0335 19.6711 19.9909 19.9625C19.9575 20.1906 19.5987 20.1192 19.4835 20.0221C19.335 19.8965 19.2758 19.6979 19.2695 19.5178C19.2574 19.1672 19.4581 18.8324 19.7898 18.6595C20.0026 18.5486 20.7436 18.3823 20.676 18.8062C20.6089 19.2287 20.0443 19.0532 19.8703 18.8032C19.3938 18.1173 20.1937 17.4449 20.8104 17.188C20.9694 17.1219 20.8308 16.9053 20.6714 16.9714Z" fill="#1A0000"/>
<path d="M16.0264 29.6907C16.1382 29.3885 16.3385 29.1031 16.6285 28.8961C16.9126 28.6865 17.3048 28.5686 17.6799 28.6127C17.8648 28.6319 18.0525 28.6803 18.2215 28.7671C18.3855 28.8616 18.5286 28.9875 18.6229 29.1381C18.8177 29.4368 18.8495 29.784 18.7902 30.0974C18.7368 29.784 18.6246 29.4833 18.4339 29.256C18.2432 29.0271 17.962 28.905 17.6499 28.8808C17.3419 28.8408 17.0336 28.9203 16.7582 29.0686C16.4841 29.2214 16.2371 29.438 16.0264 29.6907Z" fill="#8B2A0C"/>
<g opacity="0.53">
<path d="M16.0439 29.6929C16.0439 29.6929 16.6953 28.5569 17.8819 28.8334C18.9008 29.0707 18.789 30.1952 18.789 30.1952" fill="#8B2A0C"/>
<path d="M16.0439 29.6934C16.1679 29.3954 16.3802 29.1173 16.6782 28.9203C16.9707 28.721 17.3675 28.6166 17.7405 28.6738C17.9245 28.6995 18.1097 28.754 18.2754 28.847C18.4356 28.9468 18.5733 29.0782 18.6613 29.2314C18.8441 29.5367 18.8612 29.885 18.789 30.1957C18.7485 29.8808 18.6488 29.5762 18.4673 29.3428C18.2862 29.1073 18.01 28.9756 17.6992 28.9403C17.3933 28.8896 17.0816 28.9583 16.8004 29.097C16.5204 29.2406 16.2647 29.4484 16.0439 29.6934Z" fill="#8B2A0C"/>
</g>
<path d="M10.0226 26.576C9.91453 28.2143 11.2802 29.621 13.0727 29.7173C14.8652 29.8137 16.4056 28.5641 16.5133 26.9259C16.6213 25.2876 15.2557 23.8809 13.4632 23.7846C11.6711 23.6878 10.1307 24.9378 10.0226 26.576Z" fill="white"/>
<path d="M11.6028 26.014C11.3599 27.2563 12.1652 28.4422 13.4019 28.663C14.6387 28.8838 15.8378 28.0555 16.0811 26.8135C16.3243 25.5716 15.5186 24.3854 14.2819 24.1646C13.0452 23.9437 11.8456 24.7717 11.6028 26.014Z" fill="#280707" stroke="#280707" stroke-width="0.282609" stroke-miterlimit="10"/>
<path d="M16.5912 26.3192C16.4209 25.992 16.2307 25.6767 16.0003 25.3933C15.7775 25.1068 15.5347 24.838 15.2514 24.6188C14.9631 24.4064 14.6531 24.2351 14.3247 24.1138C13.9884 24.012 13.6417 23.9452 13.2824 23.9536C12.5522 23.9517 11.8346 24.1403 11.2688 24.5404C10.6813 24.926 10.2933 25.5604 10.0638 26.2217L10.0254 26.3327L9.93484 26.3008C9.72038 26.2255 9.50758 26.1453 9.29688 26.0577L9.30647 26.0262L9.96739 26.1921L9.94235 26.2075C10.0813 25.4913 10.4585 24.7992 11.0718 24.3261C11.6806 23.8515 12.4909 23.6214 13.2824 23.6322C13.6813 23.6307 14.0773 23.7044 14.4482 23.838C14.8129 23.9855 15.1471 24.1913 15.435 24.444C15.9974 24.9617 16.3951 25.6149 16.6258 26.3119L16.5912 26.3192Z" fill="black"/>
<path d="M10.055 25.7791L9.44336 25.3232L10.2148 25.465L10.055 25.7791Z" fill="black"/>
<path d="M10.3609 25.1139L9.85059 24.5928L10.5699 24.8251L10.3609 25.1139Z" fill="black"/>
<path d="M15.6044 28.9572C15.2072 29.256 14.7403 29.4795 14.2429 29.6239C13.746 29.7698 13.2086 29.8243 12.6799 29.7614C12.4137 29.7356 12.1596 29.6542 11.9076 29.5751C11.6723 29.4591 11.4261 29.3616 11.2283 29.1961C11.008 29.0598 10.844 28.8677 10.6705 28.6911C10.5115 28.5029 10.3834 28.2936 10.2549 28.0928C10.6079 28.4353 10.9534 28.7713 11.3756 29.0041C11.782 29.2533 12.2439 29.4127 12.7233 29.463C13.2011 29.5252 13.6938 29.4902 14.1774 29.3973C14.6597 29.2975 15.1412 29.1561 15.6044 28.9572Z" fill="black"/>
<path d="M27.6191 29.4771C27.1602 31.1726 25.2304 32.2102 23.3086 31.7951C21.3867 31.3796 20.2005 29.6683 20.659 27.9729C21.118 26.2774 23.0478 25.2398 24.97 25.6549C26.8919 26.07 28.0777 27.7813 27.6191 29.4771Z" fill="white"/>
<path d="M27.6098 28.7043C27.435 30.0142 26.2012 30.9727 24.8535 30.8456C23.5058 30.7185 22.5549 29.5534 22.7297 28.2434C22.9045 26.9335 24.1383 25.975 25.486 26.1021C26.8337 26.2296 27.7846 27.3944 27.6098 28.7043Z" fill="#280707" stroke="#280707" stroke-width="0.299669" stroke-miterlimit="10"/>
<path d="M20.8008 27.4413C21.1846 26.7401 21.7922 26.1364 22.5653 25.7236C22.9525 25.5162 23.3927 25.3864 23.8479 25.333C24.3036 25.2969 24.7713 25.32 25.2098 25.4371C26.0748 25.6468 26.8805 26.151 27.3903 26.8568C27.644 27.2109 27.7763 27.6218 27.8481 28.0231C27.9215 28.4286 27.9044 28.8338 27.798 29.232L27.6929 29.1137C27.9378 29.1414 28.1827 29.1744 28.4272 29.2155L28.4264 29.2501L27.6895 29.2343L27.6662 29.234L27.6691 29.2113C27.7675 28.4559 27.596 27.6537 27.1237 27.0235C26.6506 26.3918 25.9041 25.9682 25.1076 25.762C24.7112 25.6464 24.2923 25.6184 23.8792 25.641C23.4674 25.6844 23.0643 25.79 22.6888 25.9555C21.9465 26.3012 21.3102 26.8349 20.8325 27.4601L20.8008 27.4413Z" fill="black"/>
<path d="M27.6855 28.3955L28.5267 28.4739L27.7406 28.7599L27.6855 28.3955Z" fill="black"/>
<path d="M27.541 27.6568L28.358 27.6299L27.6524 28.0101L27.541 27.6568Z" fill="black"/>
<path d="M20.9463 30.374C21.1545 30.5376 21.3627 30.6958 21.5889 30.831C21.805 30.9766 22.0332 31.1056 22.2677 31.2189C22.7367 31.4439 23.2303 31.6179 23.7418 31.6882C24.2513 31.7723 24.7774 31.7411 25.2811 31.6106C25.7964 31.5023 26.262 31.2542 26.7448 31.015C26.542 31.1805 26.3375 31.3552 26.1089 31.4984C25.8685 31.6244 25.6324 31.7665 25.3624 31.8445C25.1046 31.957 24.8192 31.9831 24.5396 32.033C24.2559 32.0411 23.9688 32.0518 23.688 32.0031C23.1268 31.9178 22.5923 31.7173 22.1309 31.4282C21.6702 31.1409 21.2555 30.7926 20.9463 30.374Z" fill="black"/>
<path opacity="0.49" d="M19.1802 31.3034C19.0884 31.8371 18.4913 32.7945 17.1628 32.6282C16.2441 32.5134 15.647 31.538 15.7388 31.0042C15.7388 31.0042 16.6233 30.8337 17.5538 30.8859C18.2005 30.9224 19.1802 31.3034 19.1802 31.3034Z" fill="#8B2A0C"/>
<path d="M15.1416 30.5205C15.4846 30.7916 15.8459 31.0251 16.2235 31.2141C16.6032 31.3984 17.005 31.5316 17.4164 31.5677C17.8253 31.6092 18.248 31.5677 18.6444 31.4245C18.8526 31.3757 19.0341 31.2632 19.236 31.1833C19.4288 31.0873 19.6082 30.9679 19.8114 30.8684C19.665 31.0247 19.5127 31.1837 19.3412 31.3243C19.1534 31.4437 18.9807 31.5954 18.7604 31.6745C18.3486 31.8853 17.8508 31.9575 17.376 31.9141C16.8986 31.865 16.4463 31.6937 16.0687 31.4445C15.6911 31.1952 15.3652 30.8853 15.1416 30.5205Z" fill="#3B130E"/>
<path d="M11.0981 22.8858C11.1849 22.4925 11.4256 22.1316 11.7498 21.8535C12.069 21.5667 12.4729 21.3658 12.8947 21.2349C13.3233 21.1223 13.7672 21.0778 14.1995 21.1181C14.4152 21.1308 14.6255 21.1849 14.8328 21.226C15.0352 21.2994 15.2363 21.3585 15.4257 21.4511L15.4299 21.453C15.4391 21.4576 15.4424 21.468 15.4379 21.476C15.4341 21.4826 15.4262 21.486 15.4187 21.4849L14.8137 21.4084C14.6105 21.4038 14.4073 21.3831 14.2045 21.3915C13.7985 21.4011 13.3946 21.4576 13.0082 21.567C12.2417 21.7871 11.5295 22.2468 11.1327 22.9008C11.1277 22.9092 11.116 22.9123 11.1073 22.9073C11.0997 22.9034 11.0964 22.8958 11.0981 22.8889V22.8858Z" fill="#2E2E2E"/>
<path d="M28.2156 25.1214C27.9832 24.7992 27.7111 24.5373 27.4378 24.2992C27.157 24.0669 26.86 23.8656 26.5362 23.6982C26.3726 23.6164 26.2099 23.5327 26.033 23.4697C25.8657 23.3852 25.6796 23.3426 25.501 23.2696L24.3469 22.9109L24.3406 22.909C24.331 22.906 24.326 22.8964 24.329 22.8875C24.3319 22.8802 24.3394 22.8756 24.3473 22.876L24.9607 22.9094C25.1626 22.9413 25.3679 22.9578 25.5673 23.0027C25.9683 23.0857 26.358 23.2147 26.7219 23.3952C27.4308 23.7765 28.0199 24.3795 28.2519 25.1137C28.2548 25.1225 28.249 25.1317 28.2394 25.1344C28.2314 25.1364 28.2235 25.1337 28.2193 25.1275L28.2156 25.1214Z" fill="#2E2E2E"/>
</g>
</svg>
