<svg width="20" height="20" viewBox="0 0 20 20" fill="none" xmlns="http://www.w3.org/2000/svg">
<path d="M19.6732 17.5536C19.0303 16.9805 18.4675 16.3235 17.9999 15.6003C17.4894 14.602 17.1834 13.5117 17.0999 12.3936V9.10026C17.0972 8.70023 17.0615 8.3011 16.9932 7.90693C16.4685 7.80204 15.9642 7.61293 15.4999 7.34693C15.6769 7.91682 15.7668 8.51018 15.7665 9.10693V12.4003C15.8482 13.7643 16.2235 15.0946 16.8665 16.3003C17.3268 17.0296 17.8729 17.7011 18.4932 18.3003H1.41987C2.04014 17.7011 2.58627 17.0296 3.04654 16.3003C3.68961 15.0946 4.06482 13.7643 4.14654 12.4003V9.10026C4.14303 8.32872 4.29174 7.56406 4.58416 6.85007C4.87659 6.13609 5.30697 5.48679 5.85068 4.93937C6.39439 4.39195 7.04074 3.95715 7.75272 3.65987C8.4647 3.36259 9.22832 3.20867 9.99987 3.20693C11.129 3.20783 12.2329 3.54176 13.1732 4.16693C13.0695 3.78625 13.0114 3.39463 12.9999 3.00026V2.58026C12.3038 2.23783 11.556 2.01259 10.7865 1.91359V1.07359C10.7865 0.837551 10.6928 0.611176 10.5259 0.444269C10.359 0.277361 10.1326 0.183594 9.89654 0.183594C9.66049 0.183594 9.43412 0.277361 9.26721 0.444269C9.1003 0.611176 9.00654 0.837551 9.00654 1.07359V1.94693C7.28368 2.18996 5.70692 3.04809 4.56735 4.36288C3.42778 5.67768 2.80236 7.36035 2.80654 9.10026V12.3936C2.72304 13.5117 2.41705 14.602 1.90654 15.6003C1.44712 16.3218 0.893333 16.9788 0.25987 17.5536C0.188757 17.6161 0.131764 17.693 0.0926814 17.7792C0.0535988 17.8654 0.033323 17.9589 0.0332031 18.0536V18.9603C0.0332031 19.1371 0.103441 19.3066 0.228465 19.4317C0.353489 19.5567 0.523059 19.6269 0.69987 19.6269H19.2332C19.41 19.6269 19.5796 19.5567 19.7046 19.4317C19.8296 19.3066 19.8999 19.1371 19.8999 18.9603V18.0536C19.8997 17.9589 19.8795 17.8654 19.8404 17.7792C19.8013 17.693 19.7443 17.6161 19.6732 17.5536Z" fill="#1E1E2F"/>
</svg>
