<svg width="325" height="279" viewBox="0 0 325 279" fill="none" xmlns="http://www.w3.org/2000/svg">
<path d="M305.09 189.466C305.09 189.466 322.537 181.037 322.994 159.675C323.45 138.313 299.155 137.812 299.155 137.812C311.365 127.654 307.931 110.481 307.931 110.481C307.816 78.975 283.274 77.9076 283.274 77.9076C283.274 77.9076 292.555 66.6771 288.071 52.1076C279.356 23.787 251.236 31.4149 251.236 31.4149C248.097 16.7502 236.669 5.25586 222.243 3.06006C222.026 3.02587 221.809 2.99411 221.589 2.96481C206.866 0.886249 192.511 8.97332 185.731 22.6146L184.778 24.532C184.219 22.727 183.271 20.878 182.131 19.0925C176.242 9.85751 166.506 3.98821 155.876 2.45433C130.616 -1.19231 118.919 18.311 118.919 18.311C108.46 5.73459 84.7901 10.6635 84.7901 10.6635C32.7749 23.5647 46.3698 76.7108 46.3698 76.7108C46.3698 76.7108 21.984 61.3842 6.3496 97.428C-9.28475 133.472 22.2551 157.936 22.2551 157.936C17.5093 159.904 13.1764 169.413 13.1764 169.413C2.14852 205.628 47.4347 215.383 47.4347 215.383C31.9224 251.478 76.3708 249.9 76.3708 249.9C81.2289 269.259 96.4383 253.508 96.4383 253.508C95.9376 277.737 113.746 266.331 113.746 266.331C118.306 280.6 130.298 265.207 130.298 265.207L132.804 264.702C133.276 270.742 138.229 275.617 144.521 275.842C150.075 276.042 154.843 272.542 156.516 267.603C159.784 272.906 165.971 276.611 173.208 276.873C183.984 277.259 193.007 269.88 193.605 260.315C195.603 263.07 198.793 264.944 202.491 265.078C207.51 265.259 211.846 262.208 213.548 257.836C222.283 275.788 236.974 261.126 236.974 261.126C250.887 270.617 256.292 255.076 256.292 255.076C256.292 255.076 268.924 264.853 282.153 246.693C289.568 236.513 281.869 219.877 281.869 219.877C281.869 219.877 297.382 231.367 308.312 217.74C320.395 202.67 305.09 189.466 305.09 189.466Z" fill="#1A0000" stroke="#1A0000" stroke-width="2.42051" stroke-miterlimit="10" stroke-linecap="round"/>
<path d="M234.475 193.825C234.475 193.825 270.367 95.2973 162.287 91.89C70.0757 88.9834 85.6026 187.838 85.6026 187.838L88.4848 187.601C88.4848 187.601 88.773 104.865 167.04 112.676C240.014 119.959 230.015 195.664 230.015 195.664L234.475 193.825Z" fill="#FFD44D" stroke="#FFD44D" stroke-width="0.560795" stroke-miterlimit="10"/>
<path d="M248.63 194.987C242.773 191.233 234.947 192.305 228.462 197.002C228.997 193.927 229.366 190.788 229.515 187.584C229.561 186.577 229.53 185.591 229.537 184.592C228.504 184.557 227.471 184.526 226.44 184.457C216.25 183.776 206.309 181.158 197.338 176.224C189.881 172.123 183.279 166.578 177.961 159.932C172.959 153.68 169.454 145.605 167.139 134.159C159.843 145.175 148.874 155.179 139.412 161.61C124.835 171.517 107.762 179.008 90.0441 180.476C90.0319 180.679 90.0099 180.879 90.0002 181.084C89.9 183.239 89.9098 185.371 89.9904 187.484C86.2705 184.917 81.9644 183.82 77.7291 184.746C68.1301 186.844 62.5295 198.514 65.2163 210.812C67.9054 223.107 77.8659 231.375 87.4649 229.277C92.4695 228.183 96.3726 224.473 98.5953 219.441C109.919 240.627 131.283 255.397 156.392 256.567C181.696 257.747 204.504 244.826 217.706 224.514C218.751 228.2 220.869 231.336 224.027 233.358C232.297 238.661 244.512 234.372 251.304 223.774C258.099 213.181 256.9 200.292 248.63 194.987Z" fill="#CD5428" stroke="#CD5428" stroke-width="2.27273" stroke-miterlimit="10"/>
<path d="M248.63 194.987C242.773 191.233 234.947 192.305 228.462 197.002C228.997 193.927 229.366 190.788 229.515 187.584C229.561 186.577 229.53 185.591 229.537 184.592C228.504 184.557 227.471 184.526 226.44 184.457C216.25 183.776 206.309 181.158 197.338 176.224C189.881 172.123 183.279 166.578 177.961 159.932C172.959 153.68 169.454 145.605 167.139 134.159C159.843 145.175 148.874 155.179 139.412 161.61C124.835 171.517 107.762 179.008 90.0441 180.476C90.0319 180.679 90.0099 180.879 90.0002 181.084C89.9 183.239 89.9098 185.371 89.9904 187.484C86.2705 184.917 81.9644 183.82 77.7291 184.746C68.1301 186.844 62.5295 198.514 65.2163 210.812C67.9054 223.107 77.8659 231.375 87.4649 229.277C92.4695 228.183 96.3726 224.473 98.5953 219.441C109.919 240.627 131.283 255.397 156.392 256.567C181.696 257.747 204.504 244.826 217.706 224.514C218.751 228.2 220.869 231.336 224.027 233.358C232.297 238.661 244.512 234.372 251.304 223.774C258.099 213.181 256.9 200.292 248.63 194.987Z" fill="#CD5428" stroke="#CD5428" stroke-width="2.27273" stroke-miterlimit="10"/>
<path d="M92.2936 198.148C89.6753 194.97 86.5123 192.046 82.8778 190.832C79.2849 189.555 75.2988 191.44 73.2422 194.462C71.1734 197.569 71.1026 201.797 71.6155 205.753C72.1822 209.762 73.2642 213.765 74.6711 217.68C72.5119 214.114 70.8486 210.206 69.9424 206.047C69.0705 201.968 68.8506 197.222 71.3884 193.233C72.6707 191.279 74.5758 189.858 76.7081 189.02C78.8795 188.185 81.405 188.263 83.4836 189.13C87.6846 190.893 90.408 194.476 92.2936 198.148Z" fill="#8B2A0C"/>
<path d="M98.9159 222.39C97.531 219.386 96.9863 216.076 96.6029 212.815C96.4441 211.174 96.3611 209.528 96.344 207.884C96.3317 206.238 96.4148 204.594 96.554 202.955C96.6932 206.24 96.8007 209.511 97.1597 212.759C97.3063 214.386 97.531 216.003 97.8046 217.615C98.1001 219.217 98.4054 220.829 98.9159 222.39Z" fill="#8B2A0C"/>
<path d="M95.3543 236.255L90.3912 230.798L86.979 236.792L86.6273 228.227L81.4956 226.053L87.3161 224.829L89.1577 218.317L91.9495 224.438L98.1192 224.653L93.8277 228.012L95.3543 236.255Z" fill="white" stroke="white" stroke-width="0.576427" stroke-miterlimit="10" stroke-linecap="round"/>
<path d="M141.983 160.051C140.502 162.033 138.823 163.63 137.14 165.068C135.418 166.466 133.612 167.665 131.661 168.631C129.704 169.592 127.624 170.339 125.438 171.005C124.348 171.348 123.209 171.572 122.069 171.929C120.916 172.259 119.735 172.425 118.52 172.854L118.475 172.87C118.419 172.89 118.39 172.951 118.41 173.008C118.426 173.052 118.466 173.079 118.511 173.079L122.127 173.108C123.327 172.981 124.541 172.961 125.73 172.742C128.119 172.37 130.455 171.661 132.659 170.637C136.958 168.419 140.595 164.726 142.202 160.113C142.222 160.057 142.191 159.996 142.136 159.977C142.09 159.962 142.042 159.977 142.015 160.014L141.983 160.051Z" fill="#2E2E2E"/>
<path d="M169.309 158.265C169.979 161.594 171.803 164.47 174.263 166.525C176.686 168.663 179.755 169.954 182.972 170.596C186.238 171.047 189.617 170.91 192.893 169.995C194.531 169.617 196.119 168.861 197.685 168.237C199.209 167.334 200.722 166.552 202.141 165.496L202.172 165.474C202.24 165.422 202.265 165.325 202.228 165.261C202.197 165.208 202.139 165.189 202.082 165.207L197.512 166.661C195.973 166.96 194.437 167.413 192.9 167.589C189.823 168.034 186.762 168.018 183.821 167.544C178.001 166.538 172.611 163.33 169.579 158.095C169.539 158.028 169.452 158.015 169.384 158.068C169.328 158.112 169.302 158.182 169.313 158.243L169.309 158.265Z" fill="#2E2E2E"/>
<path opacity="0.49" d="M207.009 223.57C206.045 228.877 200.959 232.398 195.651 231.435C190.344 230.471 186.822 225.385 187.787 220.078C188.751 214.77 193.837 211.249 199.145 212.213C204.451 213.177 207.973 218.262 207.009 223.57Z" fill="#8B2A0C" stroke="#8B2A0C" stroke-width="2.52529" stroke-miterlimit="10"/>
<path opacity="0.49" d="M128.849 223.57C127.886 228.877 122.8 232.398 117.492 231.435C112.184 230.471 108.662 225.385 109.627 220.078C110.591 214.77 115.677 211.249 120.985 212.213C126.292 213.177 129.813 218.262 128.849 223.57Z" fill="#8B2A0C" stroke="#8B2A0C" stroke-width="2.52529" stroke-miterlimit="10"/>
<path d="M147.97 207.19C148.553 204.682 149.87 202.291 151.844 200.437C153.788 198.576 156.597 197.374 159.391 197.481C160.766 197.515 162.183 197.779 163.492 198.363C164.767 199.013 165.912 199.929 166.711 201.069C168.343 203.338 168.865 206.089 168.621 208.641C167.976 206.172 166.982 203.827 165.399 202.139C163.831 200.432 161.672 199.636 159.354 199.645C157.058 199.526 154.84 200.363 152.918 201.731C150.996 203.128 149.369 205.046 147.97 207.19Z" fill="#8B2A0C"/>
<g opacity="0.53">
<path d="M168.699 209.444C168.699 209.444 168.728 200.37 161.052 199.132C152.112 197.691 148.116 207.212 148.116 207.212" fill="#8B2A0C"/>
<path d="M168.699 209.443C168.149 206.951 167.246 204.57 165.729 202.821C164.224 201.055 162.097 200.178 159.782 200.103C157.49 199.897 155.246 200.652 153.272 201.944C151.299 203.268 149.599 205.122 148.116 207.21C148.79 204.726 150.197 202.384 152.239 200.606C154.254 198.818 157.107 197.726 159.894 197.941C161.267 198.031 162.673 198.342 163.958 198.981C165.209 199.678 166.315 200.637 167.072 201.807C168.616 204.135 169.036 206.902 168.699 209.443Z" fill="#8B2A0C"/>
</g>
<path d="M107.839 194.028L102.227 190.003L109.007 191.322L107.839 194.028Z" fill="black"/>
<path d="M110.038 189.18L104.584 184.31L111.626 186.276L110.038 189.18Z" fill="black"/>
<path d="M227.485 205.209C229.986 201.927 233.296 198.873 237.736 197.87C239.935 197.379 242.436 197.745 244.426 198.947C246.378 200.146 248.007 201.88 248.926 204.027C250.728 208.397 249.68 213.033 248.107 216.897C246.485 220.831 244.165 224.39 241.415 227.524C243.484 223.914 245.252 220.165 246.51 216.318C247.707 212.51 248.378 208.336 246.886 204.916C245.389 201.582 241.796 199.03 238.034 199.657C234.246 200.214 230.622 202.537 227.485 205.209Z" fill="#8B2A0C"/>
<path d="M216.726 227.922C217.503 226.473 218.084 224.942 218.653 223.413C219.205 221.877 219.711 220.323 220.138 218.745C221.061 215.609 221.738 212.41 222.451 209.2C222.302 210.837 222.097 212.471 221.797 214.09C221.491 215.707 221.123 217.314 220.678 218.902C219.73 222.043 218.614 225.206 216.726 227.922Z" fill="#8B2A0C"/>
<path d="M233.149 241.489L228.186 236.03L224.771 242.026L224.422 233.458L219.288 231.287L225.111 230.063L226.953 223.549L229.744 229.672L235.914 229.887L231.623 233.243L233.149 241.489Z" fill="white" stroke="white" stroke-width="0.576427" stroke-miterlimit="10" stroke-linecap="round"/>
<path opacity="0.49" d="M170.154 227.367C169.655 223.73 164.306 217.319 157.309 218.279C150.314 219.238 147.503 227.543 148.4 231.114C148.4 231.114 152.231 231.519 159.226 230.56C166.221 229.601 170.154 227.367 170.154 227.367Z" fill="#8B2A0C"/>
<path d="M173.583 227.821C172.707 226.927 171.62 226.272 170.534 225.605C169.396 225.031 168.206 224.524 166.969 224.113C164.481 223.327 161.8 223.014 159.127 223.079C158.457 223.08 157.796 223.228 157.132 223.3C156.468 223.382 155.807 223.469 155.161 223.642L153.217 224.092C152.582 224.284 151.964 224.528 151.352 224.775C150.102 225.208 148.978 225.901 147.817 226.472C146.729 227.18 145.675 227.924 144.687 228.722C144.653 228.744 144.646 228.787 144.669 228.817C144.69 228.843 144.732 228.848 144.762 228.836C145.89 228.267 146.986 227.637 148.139 227.116C149.324 226.67 150.456 226.085 151.693 225.776C154.094 224.941 156.638 224.597 159.155 224.441C161.685 224.281 164.216 224.574 166.649 225.143C169.077 225.725 171.431 226.635 173.496 227.931C173.529 227.952 173.574 227.943 173.597 227.912C173.617 227.884 173.614 227.851 173.592 227.828L173.583 227.821Z" fill="#3B130E"/>
<path d="M208.738 187.628C209.959 197.398 202.04 205.623 191.811 206.678C181.58 207.733 172.415 200.721 171.341 191.014C174.543 182.741 177.747 177.692 187.976 176.637C198.968 176.637 203.853 180.3 208.738 187.628Z" fill="white"/>
<path d="M202.245 186.021C203.981 193.339 199.702 200.6 192.687 202.247C185.673 203.89 178.577 199.294 176.838 191.976C175.101 184.661 179.74 179.505 186.755 177.862C193.772 176.215 200.508 178.703 202.245 186.021Z" fill="#280707" stroke="#280707" stroke-width="2.08271" stroke-miterlimit="10"/>
<path d="M170.731 192.325C171.617 190.298 172.633 188.347 173.884 186.588C175.093 184.81 176.434 183.159 177.997 181.791C179.592 180.46 181.314 179.387 183.143 178.572C185.007 177.827 186.995 177.438 189.017 177.394C193.123 177.226 197.288 177.983 200.627 180.259C204.07 182.38 206.574 186.029 208.069 189.99L208.318 190.65L208.814 190.44C210.02 189.929 211.217 189.389 212.402 188.806L212.343 188.615L208.606 189.778L208.75 189.866C209.959 186.41 205.26 181.495 201.616 178.877C197.962 176.278 193.365 175.194 188.925 175.457C186.692 175.565 184.479 176.058 182.428 176.95C180.403 177.893 178.529 179.16 176.952 180.743C173.842 183.948 171.686 187.987 170.533 192.286L170.731 192.325Z" fill="black"/>
<path d="M206.561 185.646L209.958 182.744L205.608 183.763L206.561 185.646Z" fill="black"/>
<path d="M204.71 183.567L207.517 180.302L203.496 181.843L204.71 183.567Z" fill="black"/>
<path d="M177.112 202.85C179.486 204.532 182.216 205.732 185.081 206.457C187.946 207.19 190.992 207.371 193.97 206.882C195.469 206.66 196.891 206.135 198.305 205.602C199.617 204.857 201.009 204.235 202.106 203.192C203.332 202.317 204.26 201.137 205.208 200.016C206.099 198.846 206.783 197.532 207.486 196.279C205.537 198.441 203.63 200.561 201.256 202.041C198.972 203.607 196.383 204.681 193.659 205.08C190.953 205.558 188.147 205.48 185.367 205.065C182.595 204.598 179.813 203.902 177.112 202.85Z" fill="black"/>
<path d="M103.363 187.628C102.142 197.398 110.061 205.623 120.29 206.678C130.521 207.733 139.686 200.721 140.76 191.014C137.558 182.741 134.354 177.692 124.125 176.637C113.133 176.637 108.248 180.3 103.363 187.628Z" fill="white"/>
<path d="M109.856 186.021C108.119 193.339 112.398 200.6 119.413 202.247C126.428 203.89 133.523 199.294 135.262 191.976C136.999 184.661 132.36 179.505 125.345 177.862C118.328 176.215 111.592 178.703 109.856 186.021Z" fill="#280707" stroke="#280707" stroke-width="2.08271" stroke-miterlimit="10"/>
<path d="M141.371 192.325C140.484 190.298 139.468 188.347 138.217 186.588C137.008 184.81 135.667 183.159 134.104 181.791C132.509 180.46 130.787 179.387 128.958 178.572C127.094 177.827 125.106 177.438 123.084 177.394C118.978 177.226 114.813 177.983 111.474 180.259C108.031 182.38 105.527 186.029 104.032 189.99L103.783 190.65L103.287 190.44C102.081 189.929 100.884 189.389 99.6992 188.806L99.7579 188.615L103.495 189.778L103.351 189.866C102.142 186.41 106.841 181.495 110.485 178.877C114.139 176.278 118.736 175.194 123.176 175.457C125.409 175.565 127.622 176.058 129.673 176.95C131.698 177.893 133.572 179.16 135.149 180.743C138.259 183.948 140.415 187.987 141.568 192.286L141.371 192.325Z" fill="black"/>
<path d="M105.539 185.646L102.141 182.744L106.491 183.763L105.539 185.646Z" fill="black"/>
<path d="M107.39 183.567L104.584 180.302L108.604 181.843L107.39 183.567Z" fill="black"/>
<path d="M134.989 202.85C132.615 204.532 129.885 205.732 127.02 206.457C124.155 207.19 121.109 207.371 118.131 206.882C116.632 206.66 115.21 206.135 113.796 205.602C112.484 204.857 111.092 204.235 109.996 203.192C108.769 202.317 107.841 201.137 106.894 200.016C106.002 198.846 105.318 197.532 104.615 196.279C106.564 198.441 108.471 200.561 110.846 202.041C113.129 203.607 115.718 204.681 118.442 205.08C121.148 205.558 123.954 205.48 126.734 205.065C129.506 204.598 132.288 203.902 134.989 202.85Z" fill="black"/>
</svg>
