<svg width="36" height="37" viewBox="0 0 36 37" fill="none" xmlns="http://www.w3.org/2000/svg">
<rect opacity="0.2" y="0.75" width="36" height="36" rx="9" fill="#836E93"/>
<path d="M23.0396 24.4944C23.4356 24.4944 23.7603 24.8188 23.7603 25.2141C23.7601 25.61 23.4355 25.9338 23.0396 25.9338H12.9595C12.5644 25.9336 12.2399 25.6099 12.2397 25.2141C12.2397 24.819 12.5644 24.4946 12.9595 24.4944H23.0396ZM19.4028 11.9153C19.9083 11.4077 20.8254 11.433 21.3589 11.9651L23.3296 13.9368L23.3306 13.9377C23.8812 14.4893 23.9035 15.3663 23.3794 15.8918L16.9019 22.3694C16.6679 22.6033 16.3575 22.7483 16.0278 22.7786L13.0249 23.052C13.0034 23.0534 12.9817 23.054 12.9595 23.054C12.7703 23.0539 12.5867 22.9792 12.4507 22.844C12.2995 22.6928 12.224 22.4819 12.2427 22.2688L12.5151 19.2668C12.5454 18.9378 12.6915 18.6275 12.9263 18.3928L19.4028 11.9153ZM13.9438 19.4104L13.7544 21.5393L15.8979 21.344L19.9292 17.3079L17.9888 15.3665L13.9438 19.4104ZM18.9536 14.4016L20.894 16.342L22.2954 14.9377L20.356 12.9983L18.9536 14.4016Z" fill="#836E93"/>
</svg>
