<svg width="97" height="155" viewBox="0 0 97 155" fill="none" xmlns="http://www.w3.org/2000/svg">
<path opacity="0.39" d="M74.4237 150.283C74.4237 152.888 63.2542 155 49.476 155C35.6978 155 24.5283 152.888 24.5283 150.283C24.5283 147.678 35.6978 145.566 49.476 145.566C63.2542 145.567 74.4237 147.678 74.4237 150.283Z" fill="#7A5FFF"/>
<path d="M90.5906 56.6842C90.5906 56.6842 95.7647 54.2137 95.9286 47.8926C96.0926 41.5715 88.9039 41.3914 88.9039 41.3914C92.531 38.4025 91.5376 33.3152 91.5376 33.3152C91.5464 23.992 84.2849 23.6427 84.2849 23.6427C84.2849 23.6427 87.0466 20.3318 85.7393 16.0143C83.1982 7.62195 74.8676 9.84173 74.8676 9.84173C73.9581 5.49776 70.592 2.08168 66.326 1.41185C66.2613 1.40156 66.1973 1.39202 66.1326 1.38246C61.7783 0.747923 57.5204 3.12062 55.4954 7.14842L55.2109 7.7146C55.0484 7.18006 54.7697 6.63154 54.4352 6.10142C52.7051 3.36033 49.8317 1.61111 46.6884 1.14275C39.2181 0.030286 35.7307 5.78526 35.7307 5.78526C32.6528 2.04935 25.6421 3.47576 25.6421 3.47576C10.2338 7.22343 14.1851 22.9685 14.1851 22.9685C14.1851 22.9685 6.98975 18.401 2.31417 29.0447C-2.36066 39.6892 6.93902 46.9713 6.93902 46.9713C5.53172 47.5478 4.23692 50.355 4.23692 50.355C0.924532 61.0569 14.3123 64.0046 14.3123 64.0046C9.6735 74.6645 22.8282 74.2579 22.8282 74.2579C24.2399 79.993 28.7611 75.352 28.7611 75.352C28.5802 82.5216 33.8653 79.1702 33.8653 79.1702C35.1954 83.3988 38.7651 78.8607 38.7651 78.8607L39.507 78.7144C39.6386 80.5018 41.0974 81.9518 42.9591 82.0268C44.6024 82.0937 46.0178 81.0643 46.52 79.6048C47.4795 81.1782 49.3052 82.2834 51.447 82.3701C54.6352 82.4995 57.3152 80.3275 57.5057 77.4982C58.0924 78.3166 59.0343 78.8746 60.1291 78.9195C61.6144 78.9798 62.9011 78.0828 63.4113 76.7909C65.9716 82.115 70.3391 77.796 70.3391 77.796C74.4433 80.6231 76.0631 76.0321 76.0631 76.0321C76.0631 76.0321 79.788 78.943 83.7268 73.5866C85.9348 70.5838 83.679 65.6508 83.679 65.6508C83.679 65.6508 88.2539 69.0713 91.5067 65.0538C95.1014 60.612 90.5906 56.6842 90.5906 56.6842Z" fill="#1A0000" stroke="#1A0000" stroke-width="0.716226" stroke-miterlimit="10" stroke-linecap="round"/>
<path d="M6.50108 13.783C7.5334 13.547 8.81645 13.5125 8.91718 14.8757C8.951 15.3293 8.86792 15.8043 8.71425 16.2315C8.60469 16.5374 8.39513 16.9131 8.03779 16.9682C7.60324 17.0359 7.43561 16.5815 7.56943 16.2411C7.94294 15.2889 9.44362 15.183 10.1201 15.8345C10.7583 16.4477 10.5561 17.6013 9.74876 17.9513C9.85537 18.0895 9.96126 18.227 10.0679 18.3652C10.5929 17.7991 11.4737 18.0314 11.8435 18.6505C12.0303 18.963 12.0862 19.3483 12.0612 19.7056C12.0362 20.0571 11.8458 20.4034 11.9053 20.7585C11.9957 21.2946 12.6693 21.596 13.0178 21.9504C13.5567 22.496 13.9501 23.154 14.2008 23.8768C14.3111 24.1952 14.8199 24.0584 14.7089 23.7371C14.4287 22.9291 13.9935 22.1894 13.3905 21.5784C13.0354 21.2181 12.4141 20.9313 12.4685 20.3718C12.5082 19.9608 12.6251 19.6218 12.567 19.1954C12.4781 18.541 12.1097 17.9234 11.4869 17.6564C10.8745 17.3947 10.1546 17.4991 9.69582 17.9939C9.48112 18.2255 9.74949 18.5226 10.0149 18.4079C10.9583 17.9991 11.2862 16.7388 10.8009 15.8617C10.2509 14.8683 8.86497 14.6595 7.91794 15.1661C7.43928 15.422 6.99959 15.8903 6.9893 16.4616C6.98048 16.9579 7.29443 17.4315 7.80912 17.4976C9.12819 17.6689 9.52891 15.7741 9.43847 14.8087C9.37965 14.1816 9.09584 13.5963 8.51571 13.3007C7.85103 12.9617 7.05253 13.1198 6.36138 13.2779C6.03124 13.3507 6.17094 13.858 6.50108 13.783Z" fill="#1A0000"/>
<path d="M94.4518 18.1743C93.4209 17.4331 92.0328 16.9015 91.1806 18.1904C90.6416 19.0058 90.2306 20.7234 91.21 21.3749C91.6379 21.6594 92.171 21.5837 92.496 21.1815C92.8511 20.7411 92.7938 20.1352 92.5386 19.661C92.0261 18.7073 90.7578 18.1816 89.7453 18.6331C88.6505 19.1213 88.3329 20.6558 89.1505 21.5249C89.3233 21.7087 89.6843 21.519 89.5909 21.2683C89.049 19.8132 87.1984 20.0382 86.4793 21.2058C86.2668 21.5506 86.2072 21.9058 86.1138 22.2903C85.9727 22.8667 85.3852 22.8682 84.8984 23.0579C84.0713 23.3814 83.3492 23.8954 82.7551 24.5527C82.5287 24.8034 82.9 25.177 83.1279 24.9255C83.6294 24.3704 84.219 23.9233 84.9065 23.6233C85.3712 23.4211 86.1418 23.3998 86.4572 22.9557C86.5932 22.7645 86.6028 22.5344 86.6403 22.3116C86.7057 21.9293 86.8315 21.5543 87.0881 21.2536C87.6109 20.6426 88.7512 20.5183 89.0828 21.408C89.2292 21.3227 89.3762 21.2374 89.5233 21.1521C88.9093 20.4992 89.2505 19.3404 90.0872 19.0625C90.9343 18.7808 92.2372 19.4433 92.2261 20.4323C92.2203 20.9602 91.621 21.2271 91.3041 20.7322C91.1718 20.5249 91.1622 20.2543 91.1666 20.0176C91.1754 19.561 91.3041 19.0456 91.5217 18.6434C92.1607 17.4647 93.3246 18.0088 94.1856 18.6286C94.4621 18.8272 94.7253 18.3706 94.4518 18.1743Z" fill="#1A0000"/>
<path d="M68.0199 51.6142C68.0199 51.6142 77.8798 22.1917 45.8817 22.0152C18.5811 21.8645 23.9346 50.9878 23.9346 50.9878L24.7853 50.8959C24.7853 50.8959 24.2346 26.4188 47.4478 28.1275C69.0904 29.7209 66.7148 52.1929 66.7148 52.1929L68.0199 51.6142Z" fill="#FFD44D" stroke="#FFD44D" stroke-width="0.16595" stroke-miterlimit="10"/>
<path d="M43.2014 69.3916L43.2573 74.4848L39.8052 74.5554C39.8052 74.5554 38.4692 81.6287 46.4822 82.0941C53.3489 82.4926 54.3996 74.3297 54.3996 74.3297L50.1152 74.1981V69.1357L43.2014 69.3916Z" fill="#B44A24" stroke="#B44A24" stroke-width="0.530717" stroke-miterlimit="10"/>
<path d="M72.2162 51.8484C70.4553 50.783 68.148 51.1602 66.2657 52.5998C66.4003 51.6859 66.4856 50.7551 66.5047 49.8058C66.5106 49.508 66.4936 49.2161 66.4885 48.9206C66.1826 48.9183 65.8767 48.9169 65.5709 48.9044C62.5519 48.7809 60.649 46.4589 57.9572 45.0685C55.7198 43.9126 54.9058 43.7068 53.2823 41.7811C51.7544 39.9701 47.359 35.9835 46.5855 32.6152C44.512 35.9298 41.2195 39.712 38.4689 41.6877C34.2323 44.7303 30.4213 48.2044 25.1921 48.775C25.1906 48.8353 25.1855 48.8948 25.184 48.9551C25.1708 49.5926 25.1899 50.2235 25.2303 50.8484C24.1098 50.1176 22.8282 49.8264 21.5819 50.1323C18.7585 50.8271 17.1917 54.3218 18.0813 57.9394C18.971 61.5561 21.9812 63.9252 24.8046 63.2304C26.2766 62.8679 27.4023 61.7407 28.0214 60.2356C31.5345 66.4155 37.9674 70.6206 45.4047 70.7735C52.8992 70.9279 59.5468 66.9302 63.2952 60.8201C63.6327 61.9025 64.2834 62.8135 65.2334 63.3884C67.7208 64.8935 71.3008 63.5304 73.2287 60.3437C75.1573 57.157 74.7044 53.3535 72.2162 51.8484Z" fill="#CD5428" stroke="#CD5428" stroke-width="0.67255" stroke-miterlimit="10"/>
<path d="M25.9954 53.9847C25.1961 53.0649 24.2381 52.2245 23.1536 51.8929C22.0808 51.5429 20.9161 52.1311 20.3309 53.0406C19.7426 53.9759 19.7544 55.2266 19.9368 56.3935C20.1353 57.575 20.486 58.7507 20.9323 59.8977C20.2662 58.8596 19.7441 57.7162 19.4434 56.4927C19.1544 55.2928 19.0522 53.8906 19.7728 52.6914C20.1368 52.1039 20.6897 51.6686 21.3139 51.4039C21.9499 51.1407 22.6977 51.1437 23.319 51.3841C24.5756 51.8745 25.4086 52.9134 25.9954 53.9847Z" fill="#8B2A0C"/>
<path d="M28.5984 60.9979C28.0293 60.2016 27.6866 59.27 27.3947 58.3436C27.258 57.8752 27.1425 57.4017 27.0455 56.9245C26.9506 56.4466 26.8837 55.9643 26.833 55.4805C27.0558 56.4275 27.2683 57.3723 27.5528 58.2965C27.6859 58.7612 27.841 59.2193 28.0102 59.6722C28.1852 60.1215 28.3631 60.5729 28.5984 60.9979Z" fill="#8B2A0C"/>
<path d="M66.042 55.0352C66.7567 54.0448 67.7118 53.1162 69.0176 52.7853C69.6639 52.6235 70.4065 52.7125 71.0051 53.0529C71.5918 53.3933 72.0866 53.8926 72.3756 54.5212C72.9425 55.8006 72.6675 57.1792 72.2322 58.3344C71.783 59.5108 71.1242 60.5813 70.3345 61.5291C70.919 60.4453 71.4131 59.3225 71.7558 58.1748C72.0808 57.0395 72.2477 55.7991 71.7793 54.7992C71.3109 53.8249 70.2286 53.0963 69.1206 53.3117C68.003 53.5058 66.9486 54.2213 66.042 55.0352Z" fill="#8B2A0C"/>
<path d="M62.9131 61.383C63.1315 60.9484 63.2918 60.4903 63.4491 60.0345C63.6006 59.5756 63.7381 59.1124 63.8528 58.6426C64.102 57.7081 64.277 56.7559 64.463 55.8008C64.4314 56.2861 64.3836 56.7713 64.3064 57.2522C64.2285 57.7331 64.1314 58.211 64.0123 58.6838C63.7572 59.6205 63.4506 60.5653 62.9131 61.383Z" fill="#8B2A0C"/>
<path d="M68.1128 65.7164L66.879 63.9157L65.6356 65.5348L65.8798 63.0091L64.4629 62.165L66.2195 62.0423L67.0231 60.207L67.5929 62.1151L69.3936 62.4275L67.9988 63.2378L68.1128 65.7164Z" fill="white" stroke="white" stroke-width="0.170582" stroke-miterlimit="10" stroke-linecap="round"/>
<path d="M26.1043 65.4794L24.5948 63.9037L23.6309 65.7029L23.461 63.1713L21.9258 62.5684L23.6389 62.1618L24.1338 60.2207L25.0066 62.0096L26.8337 62.0265L25.5896 63.0522L26.1043 65.4794Z" fill="white" stroke="white" stroke-width="0.170582" stroke-miterlimit="10" stroke-linecap="round"/>
<path opacity="0.49" d="M40.4156 60.4692C40.1311 63.6367 37.3319 65.9734 34.1644 65.6881C30.9968 65.4036 28.6602 62.6044 28.9455 59.4368C29.2307 56.2693 32.0292 53.9326 35.1967 54.2179C38.3642 54.5025 40.7009 57.3016 40.4156 60.4692Z" fill="#8B2A0C" stroke="#8B2A0C" stroke-width="0.747327" stroke-miterlimit="10"/>
<path opacity="0.49" d="M62.9098 60.1938C62.6245 63.3613 59.8261 65.698 56.6585 65.4127C53.491 65.1282 51.1543 62.329 51.4396 59.1615C51.7249 55.9939 54.5233 53.6572 57.6909 53.9425C60.8577 54.2278 63.1943 57.0262 62.9098 60.1938Z" fill="#8B2A0C" stroke="#8B2A0C" stroke-width="0.747327" stroke-miterlimit="10"/>
<path d="M46.3452 32.551C46.1739 33.4936 45.7511 34.3745 45.3982 35.2583C45.082 36.0494 44.9019 36.8825 45.3063 37.6854C45.6673 38.4023 46.5849 38.9479 47.3717 38.5545C47.9636 38.2589 48.1966 37.3656 47.7084 36.8663C47.1099 36.2553 46.0166 36.7707 45.507 37.2457C44.8027 37.9016 44.5806 38.9596 44.9284 39.8523C45.2078 40.5684 45.9644 41.2243 46.7621 40.8596C47.3695 40.5816 47.5886 39.6155 46.843 39.3464C45.9908 39.0383 45.1769 39.8978 45.0166 40.6588C44.7953 41.7088 45.5372 42.6264 46.3416 43.1918C46.604 43.3764 46.8533 42.9448 46.593 42.7617C45.9967 42.3426 45.4011 41.6772 45.4857 40.8926C45.5254 40.5287 45.7195 40.153 46.0328 39.9486C46.1328 39.8831 46.418 39.7206 46.5254 39.7942C46.5908 39.9618 46.657 40.1287 46.7224 40.2956C46.6092 40.4015 46.4761 40.4581 46.3239 40.4647C45.435 40.5162 45.1629 39.2045 45.3056 38.5582C45.4651 37.8369 46.1578 37.1141 46.9364 37.106C47.4232 37.1009 47.6386 37.5692 47.3401 37.9501C47.0165 38.3626 46.3651 38.1611 46.0445 37.8626C45.5181 37.3729 45.4725 36.5678 45.6784 35.9222C46.0261 34.8289 46.618 33.8223 46.8254 32.6826C46.8827 32.3701 46.4026 32.2356 46.3452 32.551Z" fill="#1A0000"/>
<path d="M37.3813 38.1116C36.6549 38.0219 35.9696 38.0535 35.3182 38.1175C34.666 38.1983 34.041 38.3388 33.4351 38.5579C32.8285 38.7785 32.2433 39.0696 31.6529 39.3998C31.3566 39.5622 31.0749 39.7593 30.7654 39.9299C30.4581 40.1086 30.1816 40.3262 29.8404 40.4975L29.8272 40.5041C29.8118 40.5122 29.7926 40.5056 29.7845 40.4902C29.7787 40.4777 29.7809 40.4637 29.7897 40.4541L30.5242 39.6755C30.797 39.4461 31.0499 39.1902 31.3404 38.9814C31.9095 38.5476 32.5396 38.1939 33.2094 37.9329C34.5638 37.4697 36.0976 37.4491 37.4115 38.052C37.4277 38.0594 37.4343 38.0785 37.4269 38.0939C37.421 38.1071 37.4078 38.1138 37.3938 38.1123L37.3813 38.1116Z" fill="#2E2E2E"/>
<path d="M53.2647 37.772C53.7801 37.2146 54.4911 36.8455 55.2462 36.6867C56.0036 36.5088 56.8035 36.547 57.5623 36.719C58.3108 36.9308 59.0181 37.2617 59.6152 37.7286C59.9225 37.947 60.1784 38.2308 60.4424 38.4881C60.6674 38.7932 60.9034 39.0756 61.0879 39.3998L61.0916 39.4072C61.1004 39.4226 61.0953 39.4425 61.0791 39.4521C61.0666 39.4587 61.0519 39.4572 61.0416 39.4484L60.2277 38.7646C59.9321 38.5697 59.6549 38.3469 59.3454 38.1756C58.7373 37.8146 58.0807 37.5411 57.3998 37.3631C56.0432 37.0235 54.5323 37.1315 53.2992 37.8286C53.2831 37.8374 53.2632 37.8322 53.2544 37.8161C53.247 37.8036 53.2492 37.7874 53.2588 37.7778L53.2647 37.772Z" fill="#2E2E2E"/>
<path d="M42.7129 55.6752C42.818 54.9209 43.1423 54.1812 43.6746 53.5819C44.1981 52.9812 44.9937 52.5525 45.8201 52.5106C46.2267 52.4842 46.651 52.5239 47.0524 52.6621C47.4458 52.8195 47.8076 53.0592 48.0737 53.3746C48.6149 53.9996 48.8428 54.7966 48.8384 55.5554C48.5825 54.8451 48.2274 54.1804 47.7156 53.7246C47.2083 53.2628 46.5502 53.0856 45.8679 53.1503C45.1878 53.1761 44.5569 53.4819 44.0261 53.9363C43.4967 54.3981 43.068 55.0061 42.7129 55.6752Z" fill="#8B2A0C"/>
<g opacity="0.53">
<path d="M48.8824 55.7869C48.8824 55.7869 48.65 53.1113 46.3545 52.951C43.6811 52.7642 42.7568 55.6759 42.7568 55.6759" fill="#8B2A0C"/>
<path d="M48.8826 55.7869C48.6547 55.067 48.3253 54.3891 47.8312 53.9141C47.3407 53.434 46.6908 53.2318 46.0062 53.2715C45.3261 53.2723 44.6842 53.5539 44.1372 53.9877C43.5909 54.4303 43.1394 55.0222 42.7578 55.6766C42.8909 54.9266 43.2424 54.1987 43.7975 53.62C44.3438 53.0399 45.1555 52.6414 45.9827 52.6311C46.39 52.6208 46.8128 52.6752 47.2084 52.8296C47.5959 53.0009 47.9473 53.2553 48.201 53.5803C48.7172 54.2251 48.9149 55.0288 48.8826 55.7869Z" fill="#8B2A0C"/>
</g>
<path d="M61.5648 50.2674C61.4787 53.2893 58.8796 55.6554 55.7605 55.5518C52.6408 55.4481 50.1821 52.9143 50.2688 49.8931C50.3549 46.8712 52.954 44.5051 56.073 44.6087C59.1928 44.7124 61.6515 47.2454 61.5648 50.2674Z" fill="white"/>
<path d="M57.7361 53.3694C59.8874 53.0911 61.3958 51.0455 61.1054 48.8004C60.8149 46.5553 58.8355 44.9609 56.6843 45.2392C54.533 45.5175 53.0245 47.5632 53.315 49.8083C53.6054 52.0533 55.5848 53.6477 57.7361 53.3694Z" fill="#280707" stroke="#280707" stroke-width="0.626964" stroke-miterlimit="10"/>
<path d="M50.0879 48.9136C50.4364 47.6012 51.1834 46.3821 52.2621 45.4505C53.3356 44.4925 54.8693 44.0785 56.3083 44.1881C57.7251 44.2822 59.1464 44.8814 60.1956 45.8946C60.7199 46.4049 61.0794 47.0512 61.3441 47.7034C61.6118 48.3615 61.7412 49.0512 61.7242 49.7614L61.5206 49.5967C61.9139 49.5688 62.3088 49.5489 62.7066 49.543L62.7169 49.6019L61.5559 49.8026L61.5198 49.8092L61.5162 49.771C61.3868 48.4607 60.8103 47.1711 59.8434 46.2667C58.8743 45.3623 57.5693 44.8785 56.2553 44.7697C55.598 44.7064 54.9318 44.7565 54.2943 44.9292C53.6635 45.1189 53.0613 45.4094 52.5304 45.8064C51.4812 46.613 50.6665 47.7196 50.1445 48.9335L50.0879 48.9136Z" fill="black"/>
<path d="M61.2441 48.3928L62.5831 48.2686L61.4508 48.9935L61.2441 48.3928Z" fill="black"/>
<path d="M60.7402 47.1977L62.0034 46.9043L61.0314 47.7623L60.7402 47.1977Z" fill="black"/>
<path d="M51.7812 54.1757C52.5695 54.5507 53.3893 54.8213 54.2113 55.0198C55.0363 55.2058 55.8774 55.2904 56.7002 55.2058C57.5266 55.1455 58.3273 54.8801 59.0472 54.4595C59.7927 54.0676 60.4111 53.4728 61.0442 52.8662C60.8052 53.2265 60.5707 53.6074 60.278 53.9382C59.9685 54.2544 59.6641 54.5882 59.2766 54.8242C58.9244 55.1132 58.4928 55.2698 58.0833 55.4646C57.6472 55.5933 57.209 55.7205 56.7539 55.7544C55.8495 55.836 54.9385 55.7146 54.0951 55.4323C53.2511 55.1536 52.4577 54.7331 51.7812 54.1757Z" fill="black"/>
<path d="M29.0546 49.6756C28.7311 52.5976 30.9655 55.2239 34.0449 55.5416C37.1249 55.8592 39.8836 53.7483 40.2071 50.8263C40.5306 47.9044 38.2962 45.278 35.2169 44.9603C32.1368 44.6427 29.3781 46.7537 29.0546 49.6756Z" fill="white"/>
<path d="M32.3195 48.8733C31.7967 51.0762 33.0849 53.2621 35.1966 53.7577C37.3083 54.2525 39.4442 52.8688 39.9677 50.6659C40.4905 48.4638 39.2023 46.2771 37.0906 45.7822C34.9782 45.2867 32.8422 46.6704 32.3195 48.8733Z" fill="#280707" stroke="#280707" stroke-width="0.626964" stroke-miterlimit="10"/>
<path d="M40.3911 49.7486C40.1242 49.1383 39.8183 48.5508 39.4419 48.0214C39.0779 47.4861 38.6742 46.9891 38.2037 46.5774C37.7235 46.1766 37.2052 45.8538 36.6545 45.6082C36.0935 45.384 35.495 45.2671 34.8861 45.2539C33.6502 45.2031 32.3965 45.4311 31.3914 46.1163C30.3547 46.7545 29.601 47.853 29.1511 49.0456L29.076 49.2442L28.9268 49.1809C28.5636 49.0273 28.2033 48.8648 27.8467 48.689L27.8643 48.6317L28.9893 48.9817L28.9459 49.0082C29.2496 47.7038 29.9966 46.4884 31.0936 45.7002C32.1936 44.9178 33.5774 44.5914 34.9141 44.6708C35.5861 44.7031 36.2523 44.8517 36.8699 45.12C37.4794 45.4038 38.0434 45.7855 38.5184 46.2619C39.4544 47.2266 40.1036 48.4427 40.4507 49.7368L40.3911 49.7486Z" fill="black"/>
<path d="M29.1829 48.2612L28.1602 47.3877L29.4697 47.6943L29.1829 48.2612Z" fill="black"/>
<path d="M29.7667 47.0973L28.9219 46.1143L30.1321 46.5782L29.7667 47.0973Z" fill="black"/>
<path d="M38.47 54.388C37.7553 54.8946 36.9332 55.2556 36.0708 55.474C35.2083 55.6946 34.2914 55.749 33.3951 55.602C32.9437 55.5351 32.5158 55.377 32.09 55.2167C31.6952 54.9924 31.2761 54.8049 30.946 54.491C30.5769 54.2278 30.2974 53.8726 30.0122 53.5351C29.7438 53.1829 29.5379 52.7873 29.3262 52.4102C29.9129 53.0609 30.4872 53.6991 31.2018 54.1447C31.8893 54.616 32.6687 54.9395 33.4885 55.0593C34.3032 55.2034 35.148 55.1799 35.9848 55.0549C36.8193 54.9145 37.6568 54.7049 38.47 54.388Z" fill="black"/>
<path opacity="0.49" d="M50.716 60.4655C50.8189 61.1611 49.1194 64.1592 46.2864 64.2792C43.6921 64.3886 41.3095 62.3933 41.4094 61.1213C41.4094 61.1213 44.1225 59.4739 46.6486 59.6726C49.1747 59.8712 50.716 60.4655 50.716 60.4655Z" fill="#8B2A0C"/>
<path d="M40.012 60.4142C40.5086 60.6456 41.006 60.8608 41.5245 61.0178C42.0333 61.1977 42.5544 61.3298 43.0779 61.4422C44.127 61.6478 45.1963 61.727 46.249 61.6255C47.3007 61.5365 48.3449 61.2939 49.3222 60.8676C50.3241 60.4843 51.2183 59.877 52.1349 59.2741C51.7426 59.6502 51.35 60.0434 50.9135 60.381C50.4548 60.6865 50.0116 61.028 49.5012 61.2567C48.5214 61.7957 47.4087 62.0751 46.2953 62.1805C45.1782 62.274 44.0438 62.1717 42.9755 61.8567C41.9107 61.5432 40.8862 61.0801 40.012 60.4142Z" fill="#3B130E"/>
<path d="M36.0459 116.136L42.2023 145.458L41.3112 150.075H50.6263L48.8447 144.891L48.9094 116.53L36.0459 116.136Z" fill="#B44A24" stroke="#B44A24" stroke-width="0.663727" stroke-miterlimit="10"/>
<path d="M48.8649 136.133C46.0326 136.348 43.1327 136.067 40.3857 136.804L42.2026 145.458L41.3114 150.075H50.6266L48.8443 144.891L48.8649 136.133Z" fill="white" stroke="white" stroke-width="0.663727" stroke-miterlimit="10"/>
<path d="M48.848 143.366C48.1716 143.44 47.4907 143.496 46.815 143.571C45.1798 143.755 43.5423 143.946 41.8975 144.004L42.2027 145.458L41.3115 150.075H50.6267L48.8444 144.89L48.848 143.366Z" fill="black" stroke="black" stroke-width="0.663727" stroke-miterlimit="10"/>
<path opacity="0.49" d="M46.479 129.694C46.4312 130.742 44.9511 131.527 43.1732 131.446C41.3953 131.365 39.9925 130.449 40.0402 129.402C40.088 128.353 41.5681 127.569 43.346 127.65C45.1239 127.731 46.5268 128.647 46.479 129.694Z" fill="#8B2A0C" stroke="#8B2A0C" stroke-width="0.321092" stroke-miterlimit="10"/>
<path d="M50.6266 114.841C50.6266 114.841 45.5238 124.804 47.6296 132.418C49.7354 140.033 50.7074 146.107 50.7074 146.107L50.6266 150.076L59.699 147.727L56.6212 143.434C56.6212 143.434 58.3226 136.468 56.7021 129.988L62.8585 114.841H50.6266Z" fill="#CD5428" stroke="#CD5428" stroke-width="0.67255" stroke-miterlimit="10"/>
<path d="M57.3981 136.621C54.6401 137.186 51.8769 137.723 49.1123 138.256C50.1946 142.909 50.7078 146.107 50.7078 146.107L50.627 150.076L59.6995 147.727L56.6216 143.433C56.6216 143.433 57.3429 140.475 57.3981 136.621Z" fill="white" stroke="white" stroke-width="0.67255" stroke-miterlimit="10"/>
<path d="M56.8945 142.053C55.7997 142.259 54.7203 142.591 53.635 142.841C52.5079 143.101 51.3719 143.319 50.2197 143.425C50.5469 145.105 50.7079 146.106 50.7079 146.106L50.6271 150.075L59.6996 147.726L56.6217 143.433C56.6202 143.434 56.7452 142.922 56.8945 142.053Z" fill="black" stroke="black" stroke-width="0.67255" stroke-miterlimit="10"/>
<path opacity="0.49" d="M53.8487 128.652C53.8487 129.701 52.4061 130.552 50.626 130.552C48.8459 130.552 47.4033 129.701 47.4033 128.652C47.4033 127.603 48.8459 126.752 50.626 126.752C52.4061 126.752 53.8487 127.603 53.8487 128.652Z" fill="#8B2A0C" stroke="#8B2A0C" stroke-width="0.321092" stroke-miterlimit="10"/>
<path d="M66.6548 87.5284C68.1166 90.5288 68.1175 94.0227 66.824 97.0703L60.3999 112.204C60.2931 112.455 59.9139 112.342 59.9588 112.072L60.5708 108.572L58.0951 112.882C58.0017 113.037 57.7612 112.92 57.8245 112.749L59.5109 107.753L56.4806 112.051C56.3173 112.239 56.0171 112.037 56.1287 111.814L58.4131 107.138C58.4131 107.138 55.1895 110.808 55.1686 110.637C55.1476 110.466 57.7292 106.429 57.7292 106.429L55.5928 107.213C55.4499 107.289 55.2881 107.143 55.3498 106.993L58.1625 103.339L60.7159 92.1796L51.5286 81.1782L55.3518 74.2814C55.3518 74.2814 64.3618 82.8216 66.6548 87.5284Z" fill="#B44A24" stroke="#B44A24" stroke-width="0.530717" stroke-miterlimit="10"/>
<path d="M62.6528 81.7522C59.1942 77.9635 56.2816 74.1876 56.2816 74.1876L51.5255 81.3625L57.6106 88.1913C59.8999 86.5993 61.4837 84.2886 62.6528 81.7522Z" fill="white" stroke="white" stroke-width="0.530717" stroke-miterlimit="10"/>
<path d="M60.9075 110.378C60.556 110.181 60.1963 110.003 59.8271 109.848L58.7307 109.359L57.6016 108.951C57.2291 108.806 56.8461 108.685 56.456 108.583L56.4502 108.597L60.9022 110.392L60.9075 110.378Z" fill="#8B2A0C"/>
<path d="M57.1271 106.93C57.4601 107.185 57.9047 107.306 58.3381 107.234C58.5514 107.181 58.7489 107.062 58.891 106.901C59.0479 106.751 59.1378 106.552 59.2078 106.356C59.0908 106.53 58.9784 106.703 58.8293 106.839C58.6863 106.98 58.5009 107.071 58.3085 107.106C57.922 107.213 57.5094 107.084 57.1271 106.93Z" fill="#8B2A0C"/>
<path d="M60.7158 92.1797C61.3259 92.1826 61.9299 92.1154 62.5369 92.085C63.14 92.008 63.7462 91.9688 64.3463 91.8586C63.7363 91.8557 63.1323 91.9229 62.5252 91.9532C61.9221 92.0303 61.3159 92.0694 60.7158 92.1797Z" fill="#8B2A0C"/>
<path d="M30.3199 90.064C29.5762 93.3177 30.3664 96.7208 32.3175 99.3965L42.0045 112.681C42.1655 112.901 42.5092 112.704 42.4045 112.451L41.0155 109.181L44.4029 112.818C44.5298 112.949 44.7365 112.78 44.6367 112.628L41.8622 108.144L45.7878 111.643C45.9894 111.789 46.2356 111.523 46.0763 111.332L42.7915 107.295C42.7915 107.295 46.7631 110.14 46.7448 109.968C46.7261 109.796 43.2965 106.45 43.2965 106.45L45.5547 106.729C45.7111 106.772 45.8359 106.592 45.741 106.46L42.1731 103.539L37.1569 93.2489L43.6118 80.4517L38.3252 74.6006C38.3252 74.6006 31.4861 84.96 30.3199 90.064Z" fill="#B44A24" stroke="#B44A24" stroke-width="0.530717" stroke-miterlimit="10"/>
<path d="M32.9613 83.6968C35.326 79.1451 38.1332 74.1602 38.1332 74.1602L43.6127 80.4517L39.4938 88.6185C36.8693 87.67 34.744 85.8459 32.9613 83.6968Z" fill="white" stroke="white" stroke-width="0.530717" stroke-miterlimit="10"/>
<path d="M41.5444 110.749C41.9014 110.561 42.2468 110.357 42.5771 110.131L43.5846 109.478L44.5417 108.752C44.8663 108.519 45.1758 108.264 45.4738 107.992L45.4646 107.979L41.5354 110.737L41.5444 110.749Z" fill="#8B2A0C"/>
<path d="M44.1412 106.649C43.804 106.886 43.4317 107.104 43.0302 107.087C42.8353 107.096 42.6346 107.05 42.4627 106.944C42.2867 106.846 42.1382 106.704 41.9845 106.56C42.0969 106.735 42.2296 106.908 42.4164 107.019C42.5919 107.144 42.8102 107.215 43.0304 107.219C43.4689 107.191 43.875 106.972 44.1412 106.649Z" fill="#8B2A0C"/>
<path d="M37.2832 93.1757C36.6736 93.1506 36.0676 93.1967 35.4594 93.2046C34.8539 93.2591 34.2464 93.2764 33.6431 93.3654C34.2528 93.3905 34.8587 93.3444 35.467 93.3365C36.0722 93.281 36.6798 93.2637 37.2832 93.1757Z" fill="#8B2A0C"/>
<mask id="mask0_1154_9578" style="mask-type:luminance" maskUnits="userSpaceOnUse" x="28" y="73" width="41" height="46">
<path d="M42.3568 73.8562C42.3568 73.8562 42.5759 79.1075 47.25 79.0641C52.0785 79.0193 52.2895 73.8474 52.2895 73.8474L56.607 74.018C56.607 74.018 66.8979 110.345 68.5324 115.461C68.5324 115.461 49.6683 122.258 28.458 115.478L38.0033 73.7305L42.3568 73.8562Z" fill="white"/>
</mask>
<g mask="url(#mask0_1154_9578)">
<path d="M42.3568 73.8562C42.3568 73.8562 42.5759 79.1075 47.25 79.0641C52.0785 79.0193 52.2895 73.8474 52.2895 73.8474L56.607 74.018C56.607 74.018 66.8979 110.345 68.5324 115.461C68.5324 115.461 49.6683 122.258 28.458 115.478L38.0033 73.7305L42.3568 73.8562Z" fill="#7A5FFF" stroke="#7A5FFF" stroke-width="0.681741" stroke-miterlimit="10"/>
</g>
<mask id="mask1_1154_9578" style="mask-type:luminance" maskUnits="userSpaceOnUse" x="28" y="73" width="41" height="46">
<path d="M42.3568 73.8562C42.3568 73.8562 42.5759 79.1075 47.25 79.0641C52.0785 79.0193 52.2895 73.8474 52.2895 73.8474L56.607 74.018C56.607 74.018 66.8979 110.345 68.5324 115.461C68.5324 115.461 49.6683 122.258 28.458 115.478L38.0033 73.7305L42.3568 73.8562Z" fill="white"/>
</mask>
<g mask="url(#mask1_1154_9578)">
<path d="M39.6818 92.5587L38.8076 85.7045C38.8003 85.6442 38.7495 85.5912 38.6951 85.5854L33.5821 85.0405C33.4784 85.0295 33.4262 84.8721 33.5115 84.828L38.6664 82.1803C38.6907 82.1678 38.7054 82.1428 38.7083 82.1119L39.1392 76.9283C39.148 76.8261 39.2745 76.8261 39.3252 76.9276L41.6553 81.662C41.6803 81.7134 41.7332 81.7451 41.7788 81.737L46.7412 80.8113C46.8345 80.7936 46.9191 80.9311 46.8595 81.0039L43.6876 84.8751C43.6596 84.9096 43.6626 84.967 43.6942 85.0126L46.9882 89.7389C47.0544 89.8338 46.986 89.9404 46.8897 89.8911L41.931 87.3544C41.881 87.3287 41.8303 87.3456 41.8127 87.3927L39.8745 92.6278C39.8392 92.7248 39.6958 92.6734 39.6818 92.5587Z" fill="#FFD44D"/>
</g>
<mask id="mask2_1154_9578" style="mask-type:luminance" maskUnits="userSpaceOnUse" x="28" y="73" width="41" height="46">
<path d="M42.3568 73.8562C42.3568 73.8562 42.5759 79.1075 47.25 79.0641C52.0785 79.0193 52.2895 73.8474 52.2895 73.8474L56.607 74.018C56.607 74.018 66.8979 110.345 68.5324 115.461C68.5324 115.461 49.6683 122.258 28.458 115.478L38.0033 73.7305L42.3568 73.8562Z" fill="white"/>
</mask>
<g mask="url(#mask2_1154_9578)">
<path d="M54.6019 108.696L56.5585 102.09C56.5754 102.032 56.5511 101.962 56.5041 101.934L52.0572 99.2805C51.9667 99.2269 51.9822 99.0614 52.0778 99.0578L57.846 98.8239C57.8732 98.8232 57.8967 98.807 57.9114 98.7798L60.3878 94.2439C60.4363 94.155 60.5525 94.2079 60.5576 94.3219L60.7812 99.6136C60.7834 99.671 60.8187 99.7224 60.8635 99.7335L65.7641 100.985C65.8567 101.008 65.878 101.169 65.795 101.21L61.3451 103.394C61.3054 103.413 61.2848 103.467 61.2958 103.522L62.4024 109.213C62.4245 109.328 62.3193 109.396 62.251 109.31L58.7452 104.91C58.7099 104.866 58.657 104.859 58.6217 104.895L54.749 108.841C54.6792 108.914 54.5696 108.807 54.6019 108.696Z" fill="#FFD44D"/>
</g>
<mask id="mask3_1154_9578" style="mask-type:luminance" maskUnits="userSpaceOnUse" x="28" y="73" width="41" height="46">
<path d="M42.3568 73.8562C42.3568 73.8562 42.5759 79.1075 47.25 79.0641C52.0785 79.0193 52.2895 73.8474 52.2895 73.8474L56.607 74.018C56.607 74.018 66.8979 110.345 68.5324 115.461C68.5324 115.461 49.6683 122.258 28.458 115.478L38.0033 73.7305L42.3568 73.8562Z" fill="white"/>
</mask>
<g mask="url(#mask3_1154_9578)">
<path d="M33.8588 117.221L31.9192 110.598C31.9023 110.54 31.8442 110.495 31.7898 110.499L26.6598 110.805C26.5561 110.811 26.4797 110.664 26.5569 110.607L31.2258 107.142C31.2479 107.126 31.2589 107.098 31.2567 107.067L30.867 101.878C30.8597 101.776 30.9847 101.754 31.0501 101.847L34.0926 106.137C34.1257 106.184 34.1824 106.206 34.2265 106.191L38.9763 104.457C39.066 104.425 39.1704 104.546 39.1233 104.628L36.6036 108.974C36.5815 109.012 36.5933 109.069 36.6315 109.109L40.624 113.231C40.7042 113.314 40.6534 113.43 40.5505 113.398L35.2602 111.712C35.2073 111.695 35.1595 111.72 35.15 111.769L34.0618 117.259C34.0405 117.359 33.8912 117.332 33.8588 117.221Z" fill="#FFD44D"/>
</g>
<mask id="mask4_1154_9578" style="mask-type:luminance" maskUnits="userSpaceOnUse" x="28" y="73" width="41" height="46">
<path d="M42.3568 73.8562C42.3568 73.8562 42.5759 79.1075 47.25 79.0641C52.0785 79.0193 52.2895 73.8474 52.2895 73.8474L56.607 74.018C56.607 74.018 66.8979 110.345 68.5324 115.461C68.5324 115.461 49.6683 122.258 28.458 115.478L38.0033 73.7305L42.3568 73.8562Z" fill="white"/>
</mask>
<g mask="url(#mask4_1154_9578)">
<path d="M53.7001 85.5069L54.4111 83.107C54.4177 83.0856 54.4081 83.0607 54.3912 83.0504L52.7758 82.0864C52.7427 82.0666 52.7486 82.007 52.7832 82.0055L54.8787 81.9203C54.8883 81.9195 54.8971 81.9136 54.9022 81.9041L55.8015 80.2563C55.8191 80.224 55.8618 80.2438 55.8632 80.285L55.9449 82.207C55.9456 82.2283 55.9581 82.2467 55.975 82.2504L57.7551 82.7048C57.7889 82.7136 57.7963 82.7717 57.7661 82.7864L56.15 83.5798C56.1353 83.5864 56.1279 83.6062 56.1323 83.6261L56.5345 85.6937C56.5426 85.7356 56.5044 85.7598 56.4794 85.7289L55.2059 84.1305C55.1934 84.1143 55.1736 84.1121 55.1611 84.1253L53.7545 85.5591C53.728 85.5856 53.6883 85.5466 53.7001 85.5069Z" fill="#FFD44D"/>
</g>
<mask id="mask5_1154_9578" style="mask-type:luminance" maskUnits="userSpaceOnUse" x="28" y="73" width="41" height="46">
<path d="M42.3568 73.8562C42.3568 73.8562 42.5759 79.1075 47.25 79.0641C52.0785 79.0193 52.2895 73.8474 52.2895 73.8474L56.607 74.018C56.607 74.018 66.8979 110.345 68.5324 115.461C68.5324 115.461 49.6683 122.258 28.458 115.478L38.0033 73.7305L42.3568 73.8562Z" fill="white"/>
</mask>
<g mask="url(#mask5_1154_9578)">
<path d="M44.576 101.937L44.5797 99.427C44.5797 99.405 44.5642 99.3829 44.5451 99.3785L42.7282 98.9329C42.6915 98.9241 42.6797 98.8645 42.7128 98.8528L44.6929 98.1513C44.7024 98.1476 44.7091 98.1396 44.7113 98.1285L45.1076 96.2837C45.1157 96.2477 45.1612 96.2536 45.1745 96.2926L45.7936 98.1109C45.8002 98.1307 45.8179 98.1447 45.8348 98.144L47.6656 98.0528C47.7001 98.0513 47.7244 98.105 47.6994 98.1278L46.3767 99.3667C46.3649 99.3778 46.3634 99.3983 46.373 99.4167L47.3399 101.279C47.359 101.317 47.3296 101.352 47.2972 101.329L45.6289 100.174C45.612 100.162 45.5929 100.166 45.5848 100.182L44.6429 101.973C44.6252 102.005 44.576 101.979 44.576 101.937Z" fill="#FFD44D"/>
</g>
<mask id="mask6_1154_9578" style="mask-type:luminance" maskUnits="userSpaceOnUse" x="28" y="73" width="41" height="46">
<path d="M42.3568 73.8562C42.3568 73.8562 42.5759 79.1075 47.25 79.0641C52.0785 79.0193 52.2895 73.8474 52.2895 73.8474L56.607 74.018C56.607 74.018 66.8979 110.345 68.5324 115.461C68.5324 115.461 49.6683 122.258 28.458 115.478L38.0033 73.7305L42.3568 73.8562Z" fill="white"/>
</mask>
<g mask="url(#mask6_1154_9578)">
<path d="M47.9928 119.83L48.7037 117.43C48.7096 117.409 48.7008 117.384 48.6839 117.374L47.0685 116.41C47.0362 116.39 47.0413 116.33 47.0759 116.329L49.1714 116.244C49.1809 116.244 49.1898 116.238 49.1956 116.227L50.0949 114.58C50.1125 114.547 50.1544 114.567 50.1566 114.608L50.2383 116.53C50.239 116.551 50.2515 116.569 50.2684 116.574L52.0485 117.028C52.0823 117.037 52.0897 117.095 52.0595 117.11L50.4434 117.903C50.4287 117.911 50.4213 117.93 50.4257 117.949L50.8279 120.017C50.836 120.059 50.7978 120.083 50.7728 120.052L49.4993 118.454C49.4868 118.438 49.467 118.436 49.4545 118.449L48.0479 119.883C48.0214 119.909 47.981 119.87 47.9928 119.83Z" fill="#FFD44D"/>
</g>
</svg>
