<svg width="18" height="19" viewBox="0 0 18 19" fill="none" xmlns="http://www.w3.org/2000/svg">
<g clip-path="url(#clip0_1432_21393)">
<path d="M17.1217 7.37833L14.2124 4.46908C14.071 4.33246 13.8815 4.25686 13.6849 4.25857C13.4883 4.26028 13.3001 4.33916 13.1611 4.47822C13.022 4.61727 12.9432 4.80538 12.9414 5.00203C12.9397 5.19868 13.0153 5.38813 13.1519 5.52958L16.0612 8.43883C16.1476 8.52698 16.2232 8.62518 16.2862 8.73133C16.2749 8.73133 16.2659 8.72533 16.2547 8.72533L4.4917 8.74933C4.29279 8.74933 4.10202 8.82835 3.96137 8.969C3.82072 9.10965 3.7417 9.30042 3.7417 9.49933C3.7417 9.69824 3.82072 9.88901 3.96137 10.0297C4.10202 10.1703 4.29279 10.2493 4.4917 10.2493L16.2502 10.2253C16.2712 10.2253 16.2884 10.2148 16.3087 10.2133C16.2422 10.3402 16.1578 10.4569 16.0582 10.5598L13.1489 13.4691C13.0773 13.5383 13.0202 13.621 12.9809 13.7125C12.9416 13.804 12.9209 13.9024 12.92 14.002C12.9191 14.1016 12.9381 14.2004 12.9758 14.2925C13.0135 14.3847 13.0692 14.4685 13.1397 14.5389C13.2101 14.6093 13.2938 14.665 13.386 14.7027C13.4782 14.7404 13.5769 14.7594 13.6765 14.7585C13.7761 14.7577 13.8745 14.737 13.966 14.6977C14.0575 14.6583 14.1403 14.6012 14.2094 14.5296L17.1187 11.6203C17.6811 11.0577 17.9971 10.2948 17.9971 9.49933C17.9971 8.70384 17.6811 7.94091 17.1187 7.37833H17.1217Z" fill="#7A5FFF"/>
<path d="M5.25 17H3.75C3.15326 17 2.58097 16.7629 2.15901 16.341C1.73705 15.919 1.5 15.3467 1.5 14.75V4.25C1.5 3.65326 1.73705 3.08097 2.15901 2.65901C2.58097 2.23705 3.15326 2 3.75 2H5.25C5.44891 2 5.63968 1.92098 5.78033 1.78033C5.92098 1.63968 6 1.44891 6 1.25C6 1.05109 5.92098 0.860322 5.78033 0.71967C5.63968 0.579018 5.44891 0.5 5.25 0.5H3.75C2.7558 0.501191 1.80267 0.896661 1.09966 1.59966C0.396661 2.30267 0.00119089 3.2558 0 4.25L0 14.75C0.00119089 15.7442 0.396661 16.6973 1.09966 17.4003C1.80267 18.1033 2.7558 18.4988 3.75 18.5H5.25C5.44891 18.5 5.63968 18.421 5.78033 18.2803C5.92098 18.1397 6 17.9489 6 17.75C6 17.5511 5.92098 17.3603 5.78033 17.2197C5.63968 17.079 5.44891 17 5.25 17Z" fill="#7A5FFF"/>
</g>
<defs>
<clipPath id="clip0_1432_21393">
<rect width="18" height="18" fill="white" transform="translate(0 0.5)"/>
</clipPath>
</defs>
</svg>
