<svg width="21" height="22" viewBox="0 0 21 22" fill="none" xmlns="http://www.w3.org/2000/svg">
<path d="M3 0C1.62 0 0.5 1.12 0.5 2.5V4.824C0.500533 5.35868 0.643952 5.8835 0.915414 6.34414C1.18688 6.80478 1.57651 7.1845 2.044 7.444L7.796 10.642C6.5912 11.2502 5.62664 12.2469 5.05818 13.471C4.48972 14.695 4.35056 16.075 4.66318 17.388C4.9758 18.7009 5.72194 19.8701 6.78105 20.7066C7.84016 21.5431 9.15037 21.9982 10.5 21.9982C11.8496 21.9982 13.1598 21.5431 14.219 20.7066C15.2781 19.8701 16.0242 18.7009 16.3368 17.388C16.6494 16.075 16.5103 14.695 15.9418 13.471C15.3734 12.2469 14.4088 11.2502 13.204 10.642L18.958 7.446C19.4254 7.18608 19.8148 6.80593 20.086 6.34492C20.3571 5.88392 20.5 5.35882 20.5 4.824V2.5C20.5 1.12 19.38 0 18 0H3ZM2.5 2.5C2.5 2.36739 2.55268 2.24021 2.64645 2.14645C2.74021 2.05268 2.86739 2 3 2H6.5V7.634L3.014 5.698C2.8582 5.61136 2.72839 5.48464 2.63802 5.33098C2.54764 5.17731 2.49999 5.00227 2.5 4.824V2.5ZM8.5 8.744V2H12.5V8.744L10.5 9.856L8.5 8.744ZM14.5 7.634V2H18C18.1326 2 18.2598 2.05268 18.3536 2.14645C18.4473 2.24021 18.5 2.36739 18.5 2.5V4.824C18.5 5.00227 18.4524 5.17731 18.362 5.33098C18.2716 5.48464 18.1418 5.61136 17.986 5.698L14.5 7.634ZM14.5 16C14.5 17.0609 14.0786 18.0783 13.3284 18.8284C12.5783 19.5786 11.5609 20 10.5 20C9.43913 20 8.42172 19.5786 7.67157 18.8284C6.92143 18.0783 6.5 17.0609 6.5 16C6.5 14.9391 6.92143 13.9217 7.67157 13.1716C8.42172 12.4214 9.43913 12 10.5 12C11.5609 12 12.5783 12.4214 13.3284 13.1716C14.0786 13.9217 14.5 14.9391 14.5 16Z" fill="#FDFDFF"/>
</svg>
