<svg width="21" height="20" viewBox="0 0 21 20" fill="none" xmlns="http://www.w3.org/2000/svg">
<path d="M7.88477 0C8.80694 5.42485e-05 9.67573 0.434824 10.2285 1.17285L11.1094 2.34668C11.3901 2.71992 11.8297 2.94043 12.2949 2.94141H15.0293C18.8103 2.94141 20.5 4.92285 20.5 8.9707L20.4736 13.7715C20.4736 17.6347 18.111 20 14.2529 20H6.72949C2.86396 20 0.5 17.6361 0.5 13.7715V6.22852C0.5 2.17549 2.23023 0 5.95312 0H7.88477ZM5.95312 1.45117C3.11265 1.45117 1.94922 2.91377 1.94922 6.22852V13.7715C1.94922 16.8341 3.66414 18.5488 6.72949 18.5488H14.2529C17.3104 18.5488 19.0244 16.8331 19.0244 13.7676L19.0508 8.9668C19.0508 5.67814 17.9544 4.39258 15.0293 4.39258H12.2939C11.373 4.39074 10.5055 3.95678 9.95117 3.21973L9.06934 2.04492C8.78978 1.67168 8.35069 1.45123 7.88477 1.45117H5.95312ZM15.1182 11.8184C15.5183 11.8186 15.8428 12.1433 15.8428 12.5439C15.8427 12.9113 15.5695 13.2146 15.2158 13.2627L15.1182 13.2695H5.84668C5.44657 13.2694 5.12215 12.9446 5.12207 12.5439C5.12207 12.1765 5.39526 11.8723 5.74902 11.8242L5.84668 11.8184H15.1182Z" fill="#FDFDFF"/>
</svg>
