<svg width="25" height="24" viewBox="0 0 25 24" fill="none" xmlns="http://www.w3.org/2000/svg">
<path d="M13.1161 2C13.8249 1.99977 14.5038 2.28047 14.998 2.77832C15.4921 3.27641 15.7597 3.95017 15.7382 4.57813L15.747 4.72559C15.7643 4.87093 15.8122 5.01133 15.8905 5.14063C16.0432 5.39573 16.2937 5.58095 16.5858 5.65527C16.8779 5.72947 17.1885 5.68697 17.4823 5.51855L17.6454 5.43555C18.8754 4.86908 20.3509 5.31942 21.0331 6.47949L21.6464 7.52148C21.6625 7.5489 21.6771 7.57739 21.6894 7.60645L21.746 7.71875C22.2942 8.86539 21.9039 10.2289 20.8622 10.9219L20.6054 11.0811C20.471 11.1729 20.3586 11.2925 20.2743 11.4365C20.122 11.6926 20.0802 11.9978 20.1581 12.2842C20.2361 12.5706 20.4275 12.8151 20.7177 12.9795L20.8847 13.084C21.3888 13.4296 21.7531 13.9397 21.912 14.5234C22.0911 15.182 21.9946 15.8835 21.6396 16.4805L20.9804 17.5566L20.8808 17.709C20.1059 18.8007 18.6013 19.1343 17.453 18.4854L17.3163 18.416C17.1744 18.3539 17.0211 18.3202 16.8817 18.3164C16.5784 18.315 16.2867 18.4325 16.0722 18.6426C15.8579 18.8527 15.7384 19.138 15.7392 19.4697L15.7314 19.6416C15.6202 20.9704 14.4841 22 13.1161 22H11.8808C10.4321 21.9999 9.25736 20.8493 9.2587 19.4756L9.25088 19.3281C9.23363 19.1827 9.18477 19.0414 9.10245 18.9053C8.95309 18.6497 8.70528 18.4629 8.41495 18.3867C8.12455 18.3107 7.81501 18.3519 7.51553 18.5215L7.3378 18.6084C6.77492 18.8564 6.13978 18.9019 5.54483 18.7363C4.87355 18.5494 4.30581 18.1082 3.97452 17.5225L3.33682 16.4443L3.25186 16.2842C2.67162 15.0839 3.12659 13.641 4.28116 12.9873L4.38663 12.9229C4.69494 12.7137 4.87979 12.3687 4.87979 12C4.87979 11.599 4.66117 11.2286 4.2792 11.0117L4.12393 10.9141C3.00971 10.1547 2.66992 8.68025 3.36026 7.50684L4.0087 6.46191C4.73081 5.23405 6.33162 4.81042 7.56241 5.50195L7.69522 5.57129C7.83103 5.63235 7.97897 5.66453 8.121 5.66602C8.74727 5.66599 9.25791 5.17356 9.26749 4.54199L9.2753 4.34766C9.32662 3.74706 9.59337 3.18298 10.0282 2.75488C10.5188 2.27195 11.1853 2.00005 11.8808 2H13.1161ZM11.8808 3.44727C11.5785 3.44732 11.2884 3.56554 11.0751 3.77539C10.886 3.96151 10.7702 4.20734 10.7499 4.43652L10.7372 4.74121C10.6338 6.07055 9.49957 7.11438 8.11319 7.11426C7.75583 7.11062 7.40311 7.03276 7.04385 6.87012L6.85147 6.77051C6.30344 6.46313 5.60444 6.64829 5.28018 7.19922L4.63077 8.24414C4.33326 8.75001 4.48262 9.39439 4.94327 9.70898L5.20401 9.87109C5.9219 10.3468 6.35733 11.143 6.35733 12C6.35733 12.8445 5.93395 13.6343 5.20206 14.1299L5.04678 14.2256C4.53393 14.5163 4.33576 15.1443 4.57413 15.6387L4.62979 15.7451L5.25967 16.8086C5.40741 17.0696 5.65514 17.2621 5.94815 17.3438C6.20801 17.4161 6.48568 17.3963 6.70206 17.3018L6.81045 17.25C7.4106 16.9069 8.12655 16.8123 8.79776 16.9883C9.46869 17.1643 10.0398 17.5961 10.3788 18.1768C10.5612 18.4778 10.6769 18.8131 10.7216 19.1982L10.7421 19.5518C10.8043 20.1141 11.2903 20.5526 11.8808 20.5527H13.1161C13.7134 20.5527 14.2101 20.1019 14.2567 19.5508L14.2616 19.4424C14.2583 18.7588 14.5348 18.1016 15.0282 17.6182C15.5216 17.1351 16.1915 16.8646 16.9052 16.8682C17.2554 16.8774 17.6007 16.955 17.953 17.1104L18.2685 17.2686C18.7644 17.4818 19.3531 17.3253 19.6513 16.9062L19.7235 16.7959L20.3681 15.7432C20.5201 15.4873 20.562 15.1826 20.4843 14.8965C20.4152 14.6427 20.2564 14.4206 20.0644 14.2881L19.7919 14.1191C19.2715 13.7744 18.8933 13.2559 18.7304 12.6572C18.5511 11.9985 18.6475 11.2973 18.995 10.7129C19.1853 10.3875 19.4461 10.107 19.787 9.875L19.9481 9.77637C20.4601 9.48291 20.6574 8.85456 20.4208 8.3584L20.3505 8.22559L20.3378 8.19727L19.7528 7.20215C19.4763 6.73184 18.9004 6.52894 18.412 6.68945L18.3017 6.73242L18.1981 6.78418C17.6 7.12938 16.8857 7.22755 16.2138 7.05664C15.5419 6.88563 14.9672 6.45934 14.6181 5.87598C14.4357 5.57488 14.32 5.23974 14.2753 4.85449L14.2626 4.60254C14.2715 4.29931 14.1542 4.00562 13.9384 3.78809C13.7226 3.57057 13.426 3.44717 13.1161 3.44727H11.8808ZM12.5038 8.73145C14.3457 8.7318 15.8395 10.1954 15.8398 12C15.8395 13.8046 14.3457 15.2672 12.5038 15.2676C10.6617 15.2676 9.16808 13.8048 9.16788 12C9.16808 10.1952 10.6617 8.73145 12.5038 8.73145ZM12.5038 10.1787C11.4777 10.1787 10.6456 10.9948 10.6454 12C10.6456 13.0052 11.4777 13.8203 12.5038 13.8203C13.5296 13.82 14.361 13.005 14.3612 12C14.361 10.995 13.5296 10.1791 12.5038 10.1787Z" fill="#FDFDFF"/>
</svg>
