<svg width="202" height="308" viewBox="0 0 202 308" fill="none" xmlns="http://www.w3.org/2000/svg">
<path d="M189.748 118.315C189.748 118.315 200.649 113.11 200.994 99.7927C201.34 86.4754 186.195 86.096 186.195 86.096C193.836 79.7991 191.743 69.0811 191.743 69.0811C191.762 49.4391 176.463 48.7033 176.463 48.7033C176.463 48.7033 182.282 41.728 179.527 32.6319C174.174 14.951 156.623 19.6276 156.623 19.6276C154.707 10.4758 147.615 3.27888 138.628 1.86769C138.491 1.846 138.357 1.8259 138.22 1.80576C129.047 0.468927 120.076 5.46769 115.81 13.9534L115.211 15.1462C114.868 14.02 114.281 12.8645 113.576 11.7476C109.932 5.97271 103.878 2.28749 97.2556 1.30074C81.5172 -1.04298 74.1701 11.0815 74.1701 11.0815C67.6857 3.21076 52.9155 6.21589 52.9155 6.21589C20.4536 14.1114 28.7782 47.2829 28.7782 47.2829C28.7782 47.2829 13.6191 37.6601 3.76868 60.0842C-6.0802 82.5099 13.5122 97.8517 13.5122 97.8517C10.5474 99.0662 7.81949 104.98 7.81949 104.98C0.841005 127.527 29.0462 133.737 29.0462 133.737C19.2732 156.195 46.9873 155.339 46.9873 155.339C49.9615 167.421 59.4866 157.644 59.4866 157.644C59.1056 172.748 70.2401 165.688 70.2401 165.688C73.0424 174.596 80.563 165.036 80.563 165.036L82.126 164.727C82.4033 168.493 85.4766 171.548 89.3988 171.706C92.861 171.847 95.8429 169.678 96.9009 166.603C98.9224 169.918 102.769 172.247 107.281 172.429C113.998 172.702 119.644 168.126 120.045 162.165C121.281 163.889 123.266 165.065 125.572 165.16C128.701 165.287 131.412 163.397 132.487 160.675C137.881 171.892 147.082 162.793 147.082 162.793C155.729 168.749 159.142 159.077 159.142 159.077C159.142 159.077 166.989 165.209 175.288 153.924C179.939 147.598 175.187 137.205 175.187 137.205C175.187 137.205 184.825 144.412 191.678 135.948C199.251 126.59 189.748 118.315 189.748 118.315Z" fill="#1A0000" stroke="#1A0000" stroke-width="1.50893" stroke-miterlimit="10" stroke-linecap="round"/>
<path d="M142.195 107.634C142.195 107.634 162.968 45.6466 95.5546 45.2748C38.0383 44.9573 49.3169 106.314 49.3169 106.314L51.1092 106.12C51.1092 106.12 49.949 54.5521 98.8541 58.1521C144.451 61.5089 139.446 108.853 139.446 108.853L142.195 107.634Z" fill="#FFD44D" stroke="#FFD44D" stroke-width="0.349621" stroke-miterlimit="10"/>
<path d="M89.9102 145.085L90.0279 155.815L82.7551 155.964C82.7551 155.964 79.9405 170.866 96.8221 171.847C111.289 172.686 114.082 159.003 114.082 159.003L104.476 155.211V144.546L89.9102 145.085Z" fill="#B44A24" stroke="#B44A24" stroke-width="1.11811" stroke-miterlimit="10"/>
<path d="M151.035 108.126C147.325 105.882 142.464 106.676 138.498 109.71C138.782 107.784 138.962 105.823 139.002 103.823C139.014 103.196 138.979 102.581 138.968 101.958C138.323 101.953 137.679 101.95 137.034 101.924C130.674 101.664 126.665 96.7718 120.994 93.8426C116.28 91.4074 114.565 90.9737 111.145 86.9168C107.926 83.1014 98.666 74.7025 97.0364 67.6063C92.668 74.5894 85.7314 82.5577 79.9364 86.72C71.0107 93.13 62.982 100.449 51.9651 101.651C51.962 101.778 51.9511 101.904 51.948 102.031C51.9201 103.374 51.9604 104.703 52.0456 106.02C49.6849 104.48 46.9849 103.867 44.3592 104.511C38.4109 105.975 35.1099 113.337 36.9842 120.959C38.8586 128.579 45.2004 133.57 51.1487 132.106C54.2499 131.342 56.6215 128.967 57.9258 125.796C65.3272 138.816 78.8799 147.675 94.5486 147.997C110.338 148.323 124.343 139.901 132.24 127.028C132.951 129.308 134.322 131.227 136.323 132.439C141.564 135.61 149.106 132.738 153.168 126.024C157.231 119.311 156.277 111.297 151.035 108.126Z" fill="#CD5428" stroke="#CD5428" stroke-width="1.41692" stroke-miterlimit="10"/>
<path d="M53.661 112.627C51.9772 110.69 49.9588 108.919 47.6739 108.22C45.4139 107.483 42.9602 108.722 41.7271 110.638C40.4879 112.609 40.5127 115.244 40.8968 117.702C41.3151 120.191 42.054 122.668 42.9942 125.085C41.5908 122.898 40.491 120.489 39.8574 117.911C39.2486 115.383 39.0333 112.429 40.5514 109.903C41.3182 108.665 42.4831 107.748 43.7982 107.19C45.1382 106.636 46.7135 106.642 48.0225 107.148C50.6698 108.182 52.4249 110.37 53.661 112.627Z" fill="#8B2A0C"/>
<path d="M59.1451 127.404C57.9461 125.726 57.2242 123.764 56.6092 121.812C56.3211 120.825 56.0779 119.827 55.8734 118.822C55.6736 117.815 55.5327 116.799 55.4258 115.78C55.8951 117.775 56.3428 119.765 56.9423 121.713C57.2226 122.692 57.5495 123.657 57.9058 124.611C58.2745 125.557 58.6494 126.508 59.1451 127.404Z" fill="#8B2A0C"/>
<path d="M138.03 114.84C139.536 112.753 141.548 110.796 144.299 110.099C145.661 109.759 147.225 109.946 148.486 110.663C149.723 111.38 150.765 112.432 151.374 113.757C152.568 116.452 151.989 119.357 151.072 121.79C150.125 124.269 148.737 126.524 147.074 128.521C148.305 126.237 149.346 123.872 150.068 121.454C150.753 119.062 151.104 116.449 150.118 114.342C149.131 112.29 146.851 110.755 144.516 111.209C142.162 111.618 139.94 113.125 138.03 114.84Z" fill="#8B2A0C"/>
<path d="M131.437 128.214C131.897 127.299 132.234 126.333 132.566 125.373C132.885 124.406 133.175 123.431 133.416 122.441C133.941 120.472 134.31 118.466 134.702 116.454C134.635 117.476 134.535 118.498 134.372 119.511C134.208 120.525 134.003 121.531 133.752 122.527C133.215 124.501 132.569 126.491 131.437 128.214Z" fill="#8B2A0C"/>
<path d="M142.394 137.343L139.794 133.549L137.175 136.96L137.689 131.639L134.704 129.861L138.405 129.602L140.098 125.736L141.298 129.755L145.092 130.414L142.153 132.121L142.394 137.343Z" fill="white" stroke="white" stroke-width="0.35938" stroke-miterlimit="10" stroke-linecap="round"/>
<path d="M53.8892 136.844L50.709 133.524L48.6782 137.315L48.3203 131.981L45.0859 130.711L48.6952 129.854L49.7377 125.765L51.5765 129.534L55.4258 129.569L52.8049 131.73L53.8892 136.844Z" fill="white" stroke="white" stroke-width="0.35938" stroke-miterlimit="10" stroke-linecap="round"/>
<path opacity="0.49" d="M84.0401 126.289C83.4406 132.962 77.5434 137.885 70.87 137.284C64.1967 136.684 59.2738 130.787 59.8749 124.114C60.4759 117.44 66.3716 112.517 73.0449 113.118C79.7182 113.718 84.6411 119.615 84.0401 126.289Z" fill="#8B2A0C" stroke="#8B2A0C" stroke-width="1.57446" stroke-miterlimit="10"/>
<path opacity="0.49" d="M131.432 125.708C130.831 132.381 124.935 137.304 118.262 136.703C111.588 136.103 106.665 130.206 107.266 123.533C107.868 116.859 113.763 111.937 120.437 112.538C127.108 113.139 132.031 119.034 131.432 125.708Z" fill="#8B2A0C" stroke="#8B2A0C" stroke-width="1.57446" stroke-miterlimit="10"/>
<path d="M86.375 115.768C86.6864 114.165 87.4655 112.619 88.6738 111.398C89.8635 110.173 91.6155 109.347 93.3891 109.352C94.2628 109.342 95.1659 109.476 96.0086 109.816C96.8327 110.197 97.5777 110.754 98.1122 111.458C99.1981 112.859 99.5946 114.591 99.4986 116.212C99.0323 114.663 98.3492 113.2 97.3067 112.165C96.2735 111.119 94.887 110.664 93.4185 110.724C91.9609 110.701 90.5745 111.283 89.3864 112.194C88.1998 113.125 87.213 114.378 86.375 115.768Z" fill="#8B2A0C"/>
<g opacity="0.53">
<path d="M86.4688 115.774C86.4688 115.774 88.7815 109.649 94.482 110.356C99.3755 110.963 99.566 116.714 99.566 116.714" fill="#8B2A0C"/>
<path d="M86.4688 115.774C86.8405 114.185 87.6786 112.668 88.9318 111.494C90.1664 110.315 91.9493 109.556 93.7214 109.627C94.5935 109.651 95.492 109.82 96.3223 110.191C97.1309 110.603 97.8558 111.186 98.3608 111.911C99.3941 113.351 99.7225 115.096 99.566 116.714C99.1586 115.148 98.5313 113.66 97.529 112.588C96.5361 111.503 95.1683 110.997 93.6982 111.001C92.2421 110.924 90.8355 111.452 89.6133 112.318C88.3927 113.203 87.3579 114.417 86.4688 115.774Z" fill="#8B2A0C"/>
</g>
<path d="M69.2956 103.479L66.0596 103.921L68.6806 101.972L69.2956 103.479Z" fill="black"/>
<path d="M70.2684 107.044L66.8311 107.934L69.3715 105.453L70.2684 107.044Z" fill="black"/>
<path d="M124.063 104.449L127.309 106.582L123.456 106.089L124.063 104.449Z" fill="black"/>
<path d="M123.063 107.654L126.237 110.315L122.194 109.415L123.063 107.654Z" fill="black"/>
<path d="M83.5558 96.4631C82.6094 95.211 81.5367 94.2059 80.4654 93.2997C79.3675 92.418 78.2183 91.6665 76.9756 91.0618C75.7309 90.4581 74.4096 89.9933 73.0201 89.5794C72.327 89.3665 71.6037 89.2287 70.8795 89.0066C70.1455 88.801 69.3981 88.7012 68.6247 88.4323L68.5954 88.422C68.5602 88.41 68.5412 88.3705 68.5532 88.3352C68.563 88.3075 68.5894 88.2894 68.6168 88.2894L70.9105 88.2566C71.6714 88.3328 72.4412 88.3406 73.1962 88.4749C74.7137 88.7021 76.1968 89.1437 77.5986 89.7841C80.3325 91.1751 82.6555 93.5028 83.6907 96.4222C83.7027 96.4581 83.6849 96.4964 83.6486 96.5099C83.6196 96.5207 83.5888 96.51 83.5714 96.4871L83.5558 96.4631Z" fill="#2E2E2E"/>
<path d="M107.158 96.273C107.532 94.6892 108.47 93.2514 109.712 92.1591C110.938 91.0292 112.47 90.2568 114.068 89.7762C115.688 89.3828 117.357 89.2549 118.963 89.4942C119.767 89.5766 120.542 89.8376 121.308 90.0399C122.05 90.373 122.788 90.6508 123.474 91.0617L123.489 91.0707C123.523 91.091 123.534 91.133 123.514 91.1669C123.498 91.1932 123.469 91.2052 123.44 91.1996L121.2 90.7823C120.443 90.731 119.69 90.6069 118.933 90.6131C117.418 90.5811 115.905 90.7626 114.446 91.1476C111.555 91.9443 108.851 93.7373 107.285 96.3387C107.265 96.3725 107.221 96.3834 107.187 96.3631C107.161 96.3474 107.148 96.3155 107.155 96.2865L107.158 96.273Z" fill="#2E2E2E"/>
<path opacity="0.49" d="M102.848 125.56C103.135 127.473 98.7384 129.18 94.9943 129.74C91.2502 130.3 86.6077 129.731 86.3211 127.82C86.0346 125.906 90.0451 122.472 93.7892 121.913C97.5348 121.352 102.563 123.648 102.848 125.56Z" fill="#8B2A0C"/>
<path d="M84.6632 131.033C85.1839 130.201 85.8971 129.523 86.6073 128.836C87.3697 128.213 88.1811 127.635 89.0418 127.124C90.7777 126.128 92.7276 125.472 94.7267 125.111C95.2258 125.009 95.7393 125.023 96.2441 124.976C96.7504 124.939 97.2553 124.905 97.7616 124.94L99.2746 124.992C99.7751 125.044 100.271 125.139 100.763 125.237C101.757 125.383 102.696 125.751 103.643 126.017C104.557 126.402 105.451 126.82 106.303 127.29C106.332 127.302 106.344 127.335 106.331 127.361C106.319 127.385 106.289 127.395 106.264 127.391C105.341 127.12 104.433 126.797 103.499 126.569C102.551 126.403 101.622 126.121 100.656 126.071C98.7467 125.789 96.8025 125.912 94.9061 126.177C92.9996 126.442 91.1581 127.06 89.431 127.878C87.7096 128.705 86.0909 129.777 84.7442 131.106C84.7225 131.127 84.6878 131.127 84.6661 131.106C84.6473 131.087 84.6444 131.061 84.6574 131.04L84.6632 131.033Z" fill="#3B130E"/>
<path d="M129.352 108.336C129.17 114.703 123.694 119.688 117.123 119.469C110.551 119.251 105.371 113.913 105.554 107.548C105.735 101.181 111.211 96.1961 117.782 96.4145C124.354 96.633 129.534 101.969 129.352 108.336Z" fill="white"/>
<path d="M119.066 110.227C123.598 109.641 126.776 105.331 126.164 100.601C124.926 97.8162 120.939 96.4543 116.407 97.0407C111.874 97.627 109.139 97.9944 109.751 102.724C110.363 107.454 114.533 110.813 119.066 110.227Z" fill="#280707" stroke="#280707" stroke-width="1.32088" stroke-miterlimit="10"/>
<path d="M105.174 105.484C105.908 102.719 107.482 100.151 109.754 98.1882C112.016 96.1697 115.247 95.2976 118.279 95.5284C121.264 95.7267 124.258 96.9892 126.469 99.1238C127.573 100.199 128.331 101.56 128.888 102.934C129.452 104.321 129.725 105.774 129.689 107.27L129.26 106.923C130.089 106.864 130.921 106.823 131.759 106.81L131.78 106.934L129.334 107.357L129.258 107.371L129.251 107.29C128.978 104.53 127.764 101.813 125.727 99.9076C123.685 98.0023 120.935 96.983 118.167 96.7537C116.782 96.6205 115.379 96.7259 114.036 97.0899C112.707 97.4896 111.438 98.1014 110.32 98.9379C108.109 100.637 106.393 102.969 105.293 105.526L105.174 105.484Z" fill="black"/>
<path d="M128.678 104.388L131.499 104.126L129.113 105.653L128.678 104.388Z" fill="black"/>
<path d="M127.614 101.867L130.276 101.249L128.228 103.057L127.614 101.867Z" fill="black"/>
<path d="M108.744 116.571C110.405 117.361 112.132 117.931 113.864 118.349C115.602 118.741 117.374 118.919 119.107 118.741C120.848 118.614 122.535 118.055 124.052 117.169C125.623 116.343 126.925 115.09 128.259 113.812C127.756 114.571 127.262 115.373 126.645 116.07C125.993 116.737 125.352 117.44 124.535 117.937C123.793 118.546 122.884 118.876 122.021 119.286C121.103 119.557 120.179 119.825 119.22 119.897C117.315 120.069 115.396 119.813 113.619 119.218C111.841 118.631 110.169 117.745 108.744 116.571Z" fill="black"/>
<path d="M60.8615 107.088C60.1799 113.244 64.8875 118.777 71.3749 119.447C77.8639 120.116 83.676 115.668 84.3575 109.512C85.0391 103.357 80.3316 97.8233 73.8441 97.1542C67.3551 96.485 61.5431 100.932 60.8615 107.088Z" fill="white"/>
<path d="M66.1904 102.301C65.089 106.942 67.803 111.547 72.2519 112.592C76.7007 113.634 81.2008 110.719 82.3037 106.078C82.3037 100.914 80.7778 100.914 76.1306 98.59C71.6802 97.546 67.2918 97.6602 66.1904 102.301Z" fill="#280707" stroke="#280707" stroke-width="1.32088" stroke-miterlimit="10"/>
<path d="M84.7448 107.243C84.1825 105.957 83.5381 104.72 82.745 103.604C81.9782 102.477 81.1278 101.43 80.1364 100.562C79.1248 99.7178 78.0328 99.0378 76.8725 98.5204C75.6906 98.0479 74.4297 97.8016 73.1471 97.7738C70.5431 97.6669 67.902 98.1471 65.7844 99.5908C63.6002 100.935 62.0125 103.25 61.0645 105.762L60.9064 106.18L60.592 106.047C59.8268 105.724 59.0677 105.381 58.3164 105.011L58.3536 104.89L60.7237 105.627L60.6323 105.683C61.272 102.935 62.8459 100.375 65.1571 98.714C67.4744 97.0658 70.3897 96.3781 73.2059 96.5454C74.6217 96.6135 76.0252 96.9264 77.3264 97.4918C78.6106 98.0898 79.7987 98.8937 80.7994 99.8975C82.7713 101.93 84.1391 104.492 84.8703 107.218L84.7448 107.243Z" fill="black"/>
<path d="M61.1323 104.109L58.9775 102.269L61.7364 102.915L61.1323 104.109Z" fill="black"/>
<path d="M62.3609 101.657L60.5811 99.5862L63.1308 100.564L62.3609 101.657Z" fill="black"/>
<path d="M80.6956 117.018C79.1899 118.085 77.4581 118.846 75.6411 119.306C73.824 119.77 71.8924 119.885 70.0041 119.575C69.053 119.434 68.1514 119.101 67.2545 118.763C66.4227 118.291 65.5397 117.896 64.8442 117.235C64.0666 116.68 63.4779 115.932 62.8769 115.221C62.3115 114.479 61.8778 113.645 61.4316 112.851C62.6678 114.222 63.8776 115.566 65.3833 116.505C66.8316 117.498 68.4736 118.179 70.2008 118.432C71.9172 118.736 73.697 118.686 75.4599 118.423C77.218 118.127 78.9824 117.685 80.6956 117.018Z" fill="black"/>
<path d="M61.2277 240.045C61.2277 240.045 57.9591 251.843 61.4507 264.409C64.9423 276.973 68.8924 295.387 68.8924 295.387L65.1266 304.912C65.1266 304.912 81.0927 309.141 85.7832 305.081L84.9483 292.267C84.9483 292.267 84.4371 247.495 85.7275 241.81L61.2277 240.045Z" fill="#CD5428" stroke="#CD5428" stroke-width="1.41382" stroke-miterlimit="10"/>
<path d="M84.8634 280.415C78.5092 281.044 72.1209 281.366 65.745 281.45C67.5528 289.144 68.8927 295.387 68.8927 295.387L65.127 304.912C65.127 304.912 81.093 309.141 85.7836 305.081L84.9486 292.267C84.9486 292.267 84.8913 287.271 84.8634 280.415Z" fill="white" stroke="white" stroke-width="1.41382" stroke-miterlimit="10"/>
<path d="M68.4869 293.523C68.7456 294.707 68.8927 295.387 68.8927 295.387L65.127 304.912C65.127 304.912 81.093 309.141 85.7836 305.081L85.0168 293.311C79.5115 293.186 73.9906 293.434 68.4869 293.523Z" fill="black" stroke="black" stroke-width="1.41382" stroke-miterlimit="10"/>
<path opacity="0.49" d="M75.2619 259.884C75.3301 262.132 72.294 264.046 68.4802 264.161C64.668 264.276 61.5218 262.547 61.4552 260.299C61.3871 258.052 64.4232 256.137 68.237 256.022C72.0492 255.908 75.1938 257.636 75.2619 259.884Z" fill="#8B2A0C" stroke="#8B2A0C" stroke-width="0.688244" stroke-miterlimit="10"/>
<path d="M129.231 281.704C131.056 281.514 132.877 281.289 134.699 281.064C134.039 270.859 131.808 249.45 124.378 234.635L96.2793 242.46C96.2793 242.46 110.495 256.616 116.395 282.888C120.663 282.375 124.957 282.15 129.231 281.704Z" fill="#CD5428" stroke="#CD5428" stroke-width="1.41382" stroke-miterlimit="10"/>
<path d="M126.496 266.76C121.84 267.716 117.218 268.867 112.766 270.538C114.141 274.3 115.39 278.414 116.395 282.888C120.663 282.375 124.957 282.15 129.231 281.704C131.055 281.514 132.877 281.289 134.699 281.064C134.451 277.235 133.981 271.827 133.1 265.783C130.862 265.938 128.707 266.306 126.496 266.76Z" fill="white" stroke="white" stroke-width="1.41382" stroke-miterlimit="10"/>
<path d="M134.788 282.486C133.005 282.706 131.224 282.926 129.437 283.112C125.196 283.554 120.935 283.78 116.7 284.285C116.932 285.391 117.153 286.509 117.353 287.656L114.923 301.603C114.923 301.603 130.827 304.886 136.194 299.576L134.971 286.907C134.971 286.907 134.944 285.256 134.788 282.486Z" fill="#CD5428" stroke="#CD5428" stroke-width="1.41382" stroke-miterlimit="10"/>
<path d="M134.788 282.486C133.005 282.706 131.224 282.926 129.437 283.112C125.196 283.554 120.935 283.78 116.7 284.285C116.932 285.391 117.153 286.509 117.353 287.656L114.923 301.603C114.923 301.603 130.827 304.886 136.194 299.576L134.971 286.907C134.971 286.907 134.944 285.256 134.788 282.486Z" fill="black" stroke="black" stroke-width="1.41382" stroke-miterlimit="10"/>
<path opacity="0.49" d="M124.85 249.121C125.742 251.186 123.626 254.086 120.125 255.599C116.625 257.113 113.063 256.667 112.171 254.602C111.279 252.539 113.393 249.637 116.896 248.125C120.396 246.61 123.958 247.058 124.85 249.121Z" fill="#8B2A0C" stroke="#8B2A0C" stroke-width="0.688244" stroke-miterlimit="10"/>
<path d="M78.2256 159.584C78.1543 158.722 77.1273 158.303 76.4736 158.872C71.5987 163.102 57.1786 176.607 60.4053 185.765C60.4053 185.765 61.5686 190.677 68.025 192.203C68.025 192.203 80.4191 186.38 78.2256 159.584Z" fill="#B44A24" stroke="#B44A24" stroke-width="1.4225" stroke-miterlimit="10"/>
<path d="M73.3367 176.683C74.6611 176.973 75.9887 177.11 77.31 177.126C78.4284 172.222 78.9102 165.838 78.0381 157.554C78.0381 157.554 69.5276 164.377 64.1787 172.172C66.8896 174.29 69.9489 175.941 73.3367 176.683Z" fill="white" stroke="white" stroke-width="1.4225" stroke-miterlimit="10"/>
<mask id="mask0_1432_23942" style="mask-type:luminance" maskUnits="userSpaceOnUse" x="53" y="154" width="78" height="95">
<path d="M114.865 158.743L108.427 156.026C108.427 156.026 105.337 162.438 96.2282 162.03C87.1198 161.625 86.0137 154.411 86.0137 154.411C81.5215 153.901 77.4366 157.145 77.4366 157.145C76.0332 159.722 70.7866 185.201 70.7866 185.201C62.623 197.073 53.668 243.605 53.668 243.605C94.7504 258.258 130.126 237.181 130.126 237.181C118.174 223.897 117.215 183.152 117.215 183.152L114.865 158.743Z" fill="white"/>
</mask>
<g mask="url(#mask0_1432_23942)">
<path d="M114.865 158.743L108.427 156.026C108.427 156.026 105.337 162.438 96.2282 162.03C87.1198 161.625 86.0137 154.411 86.0137 154.411C81.5215 153.901 77.4366 157.145 77.4366 157.145C76.0332 159.722 70.7866 185.201 70.7866 185.201C62.623 197.073 53.668 243.605 53.668 243.605C94.7504 258.258 130.126 237.181 130.126 237.181C118.174 223.897 117.215 183.152 117.215 183.152L114.865 158.743Z" fill="#7A5FFF" stroke="#7A5FFF" stroke-width="1.6059" stroke-miterlimit="10"/>
</g>
<mask id="mask1_1432_23942" style="mask-type:luminance" maskUnits="userSpaceOnUse" x="53" y="154" width="78" height="95">
<path d="M114.865 158.743L108.427 156.026C108.427 156.026 105.337 162.438 96.2282 162.03C87.1198 161.625 86.0137 154.411 86.0137 154.411C81.5215 153.901 77.4366 157.145 77.4366 157.145C76.0332 159.722 70.7866 185.201 70.7866 185.201C62.623 197.073 53.668 243.605 53.668 243.605C94.7504 258.258 130.126 237.181 130.126 237.181C118.174 223.897 117.215 183.152 117.215 183.152L114.865 158.743Z" fill="white"/>
</mask>
<g mask="url(#mask1_1432_23942)">
<path d="M78.2174 194.451L77.0602 180.779C77.0494 180.658 76.9534 180.548 76.845 180.532L66.6305 179.002C66.4229 178.971 66.3315 178.653 66.5066 178.574L77.0819 173.775C77.1315 173.754 77.1641 173.706 77.1718 173.644L78.487 163.4C78.5133 163.198 78.7689 163.209 78.8603 163.415L83.1248 173.01C83.1713 173.115 83.2735 173.182 83.3665 173.17L93.4059 171.769C93.5948 171.743 93.7529 172.023 93.6274 172.163L86.9262 179.563C86.8673 179.628 86.8673 179.742 86.9277 179.835L93.127 189.5C93.2525 189.695 93.1054 189.899 92.9164 189.794L83.1868 184.326C83.0892 184.272 82.9854 184.3 82.9467 184.393L78.6015 194.607C78.5194 194.794 78.236 194.68 78.2174 194.451Z" fill="#FFD44D"/>
</g>
<mask id="mask2_1432_23942" style="mask-type:luminance" maskUnits="userSpaceOnUse" x="53" y="154" width="78" height="95">
<path d="M114.865 158.743L108.427 156.026C108.427 156.026 105.337 162.438 96.2282 162.03C87.1198 161.625 86.0137 154.411 86.0137 154.411C81.5215 153.901 77.4366 157.145 77.4366 157.145C76.0332 159.722 70.7866 185.201 70.7866 185.201C62.623 197.073 53.668 243.605 53.668 243.605C94.7504 258.258 130.126 237.181 130.126 237.181C118.174 223.897 117.215 183.152 117.215 183.152L114.865 158.743Z" fill="white"/>
</mask>
<g mask="url(#mask2_1432_23942)">
<path d="M104.435 227.874L108.936 214.943C108.977 214.828 108.933 214.689 108.84 214.629L100.147 208.974C99.9704 208.86 100.015 208.533 100.207 208.535L111.804 208.578C111.858 208.578 111.907 208.548 111.94 208.496L117.304 199.717C117.41 199.545 117.639 199.662 117.639 199.886L117.628 210.401C117.628 210.516 117.693 210.62 117.783 210.647L127.509 213.561C127.692 213.617 127.722 213.936 127.551 214.01L118.432 217.953C118.351 217.987 118.305 218.092 118.322 218.202L120.048 229.588C120.082 229.817 119.865 229.942 119.736 229.767L113.085 220.73C113.018 220.639 112.911 220.622 112.838 220.69L104.724 228.178C104.571 228.313 104.36 228.091 104.435 227.874Z" fill="#FFD44D"/>
</g>
<mask id="mask3_1432_23942" style="mask-type:luminance" maskUnits="userSpaceOnUse" x="53" y="154" width="78" height="95">
<path d="M114.865 158.743L108.427 156.026C108.427 156.026 105.337 162.438 96.2282 162.03C87.1198 161.625 86.0137 154.411 86.0137 154.411C81.5215 153.901 77.4366 157.145 77.4366 157.145C76.0332 159.722 70.7866 185.201 70.7866 185.201C62.623 197.073 53.668 243.605 53.668 243.605C94.7504 258.258 130.126 237.181 130.126 237.181C118.174 223.897 117.215 183.152 117.215 183.152L114.865 158.743Z" fill="white"/>
</mask>
<g mask="url(#mask3_1432_23942)">
<path d="M69.3376 244.057L66.021 230.75C65.9916 230.632 65.8801 230.539 65.7701 230.54L55.4487 230.697C55.2396 230.7 55.0986 230.403 55.2582 230.296L64.9289 223.831C64.9739 223.802 64.9987 223.749 64.9971 223.687L64.6656 213.358C64.6594 213.155 64.9134 213.124 65.0358 213.313L70.7689 222.09C70.8308 222.186 70.9424 222.236 71.0322 222.208L80.7154 219.187C80.8981 219.13 81.098 219.381 80.9957 219.539L75.5601 227.938C75.5121 228.012 75.5307 228.125 75.605 228.208L83.2589 236.737C83.4138 236.909 83.3007 237.135 83.0978 237.06L72.6277 233.251C72.5224 233.213 72.4248 233.257 72.4 233.355L69.7388 244.147C69.6907 244.347 69.3933 244.281 69.3376 244.057Z" fill="#FFD44D"/>
</g>
<mask id="mask4_1432_23942" style="mask-type:luminance" maskUnits="userSpaceOnUse" x="53" y="154" width="78" height="95">
<path d="M114.865 158.743L108.427 156.026C108.427 156.026 105.337 162.438 96.2282 162.03C87.1198 161.625 86.0137 154.411 86.0137 154.411C81.5215 153.901 77.4366 157.145 77.4366 157.145C76.0332 159.722 70.7866 185.201 70.7866 185.201C62.623 197.073 53.668 243.605 53.668 243.605C94.7504 258.258 130.126 237.181 130.126 237.181C118.174 223.897 117.215 183.152 117.215 183.152L114.865 158.743Z" fill="white"/>
</mask>
<g mask="url(#mask4_1432_23942)">
<path d="M104.498 176.861L106.134 172.163C106.148 172.121 106.132 172.071 106.1 172.048L102.941 169.994C102.878 169.952 102.893 169.833 102.963 169.835L107.175 169.85C107.195 169.85 107.212 169.839 107.225 169.821L109.173 166.631C109.212 166.569 109.294 166.611 109.294 166.693L109.289 170.513C109.289 170.555 109.314 170.592 109.345 170.603L112.879 171.661C112.945 171.681 112.956 171.797 112.894 171.824L109.581 173.255C109.551 173.267 109.534 173.306 109.54 173.346L110.168 177.482C110.18 177.566 110.101 177.611 110.055 177.547L107.638 174.265C107.613 174.232 107.575 174.226 107.548 174.249L104.6 176.969C104.548 177.021 104.47 176.94 104.498 176.861Z" fill="#FFD44D"/>
</g>
<mask id="mask5_1432_23942" style="mask-type:luminance" maskUnits="userSpaceOnUse" x="53" y="154" width="78" height="95">
<path d="M114.865 158.743L108.427 156.026C108.427 156.026 105.337 162.438 96.2282 162.03C87.1198 161.625 86.0137 154.411 86.0137 154.411C81.5215 153.901 77.4366 157.145 77.4366 157.145C76.0332 159.722 70.7866 185.201 70.7866 185.201C62.623 197.073 53.668 243.605 53.668 243.605C94.7504 258.258 130.126 237.181 130.126 237.181C118.174 223.897 117.215 183.152 117.215 183.152L114.865 158.743Z" fill="white"/>
</mask>
<g mask="url(#mask5_1432_23942)">
<path d="M83.8592 212.43L84.0854 207.452C84.087 207.408 84.0575 207.363 84.0204 207.353L80.4126 206.309C80.3398 206.287 80.3212 206.169 80.3878 206.149L84.4231 204.931C84.4417 204.925 84.4556 204.91 84.4618 204.888L85.4176 201.263C85.4362 201.192 85.5276 201.208 85.5508 201.287L86.6351 204.947C86.6475 204.987 86.6801 205.017 86.7141 205.015L90.3963 204.995C90.466 204.995 90.5093 205.103 90.4567 205.147L87.6947 207.487C87.6699 207.507 87.6653 207.549 87.6823 207.587L89.4606 211.365C89.4962 211.441 89.4343 211.507 89.3708 211.461L86.1224 209.022C86.0899 208.998 86.0512 209.004 86.0326 209.035L83.9878 212.503C83.9522 212.568 83.8562 212.514 83.8592 212.43Z" fill="#FFD44D"/>
</g>
<mask id="mask6_1432_23942" style="mask-type:luminance" maskUnits="userSpaceOnUse" x="53" y="154" width="78" height="95">
<path d="M114.865 158.743L108.427 156.026C108.427 156.026 105.337 162.438 96.2282 162.03C87.1198 161.625 86.0137 154.411 86.0137 154.411C81.5215 153.901 77.4366 157.145 77.4366 157.145C76.0332 159.722 70.7866 185.201 70.7866 185.201C62.623 197.073 53.668 243.605 53.668 243.605C94.7504 258.258 130.126 237.181 130.126 237.181C118.174 223.897 117.215 183.152 117.215 183.152L114.865 158.743Z" fill="white"/>
</mask>
<g mask="url(#mask6_1432_23942)">
<path d="M92.7753 250.567L94.4111 245.87C94.425 245.828 94.4095 245.777 94.3754 245.755L91.2185 243.701C91.1534 243.659 91.1704 243.542 91.2402 243.542L95.452 243.557C95.4722 243.557 95.4892 243.546 95.5016 243.528L97.4503 240.338C97.489 240.276 97.5711 240.318 97.5711 240.4L97.5665 244.22C97.5665 244.262 97.5913 244.299 97.6222 244.31L101.156 245.368C101.222 245.388 101.233 245.504 101.171 245.531L97.8577 246.962C97.8282 246.974 97.8112 247.013 97.8174 247.052L98.4448 251.188C98.4572 251.271 98.3782 251.316 98.3317 251.253L95.9152 247.97C95.8904 247.938 95.8517 247.932 95.8253 247.956L92.8775 250.677C92.8248 250.726 92.7474 250.646 92.7753 250.567Z" fill="#FFD44D"/>
</g>
<path d="M102.496 177.025C100.199 182.738 98.684 187.593 98.684 187.593L70.3332 185.655C66.5132 180.004 60.8034 182.531 60.8034 182.531C55.2408 180.317 55.4793 184.882 55.4793 184.882C52.7669 199.217 92.3576 212.161 109.42 193.93C112.895 190.217 115.466 186.53 117.318 183.014C111.962 182.05 106.834 180.224 102.496 177.025Z" fill="#CD5428" stroke="#CD5428" stroke-width="1.41382" stroke-miterlimit="10"/>
<path d="M117.985 181.693C124.298 168.563 120.396 158.21 114.71 158.917C110.654 159.42 106.22 168.03 103.044 175.685C107.372 178.977 112.575 180.772 117.985 181.693Z" fill="white" stroke="white" stroke-width="1.41382" stroke-miterlimit="10"/>
<path d="M71.6419 186.543L95.6553 179.81C95.6553 179.81 98.6233 171.653 105.177 174.682C105.805 174.971 106.347 175.424 106.72 176.004C107.45 177.137 108.647 179.233 108.373 180.43C107.984 182.128 105.168 180.066 105.168 180.066C105.168 180.066 106.883 183.288 104.282 183.144C104.282 183.144 103.467 187.687 98.2546 186.338L71.6821 186.825C71.5133 186.829 71.4792 186.589 71.6419 186.543Z" fill="#B44A24" stroke="#B44A24" stroke-width="1.4225" stroke-miterlimit="10"/>
</svg>
