<svg width="193" height="311" viewBox="0 0 193 311" fill="none" xmlns="http://www.w3.org/2000/svg">
<path d="M181.343 112.545C181.343 112.545 191.724 107.53 191.996 94.8189C192.268 82.1082 177.812 81.8103 177.812 81.8103C185.077 75.766 183.034 65.5477 183.034 65.5477C182.965 46.8013 168.362 46.1662 168.362 46.1662C168.362 46.1662 173.885 39.4839 171.217 30.8148C166.031 13.9636 149.299 18.5023 149.299 18.5023C147.432 9.7766 140.632 2.93729 132.048 1.63075C131.919 1.61041 131.79 1.59151 131.659 1.57407C122.898 0.337301 114.357 5.14923 110.323 13.266L109.756 14.4069C109.423 13.3329 108.859 12.2327 108.18 11.1703C104.677 5.67534 98.8836 2.18301 92.5587 1.27033C77.5285 -0.899472 70.5686 10.7053 70.5686 10.7053C64.3455 3.22214 50.2614 6.15493 50.2614 6.15493C19.3115 13.8314 27.4007 45.4541 27.4007 45.4541C27.4007 45.4541 12.8908 36.3345 3.58808 57.7811C-5.71461 79.2278 13.0521 93.7842 13.0521 93.7842C10.2283 94.9556 7.6501 100.613 7.6501 100.613C1.08837 122.162 28.0343 127.966 28.0343 127.966C18.8043 149.443 45.2518 148.505 45.2518 148.505C48.1424 160.024 57.1923 150.651 57.1923 150.651C56.8943 165.068 67.4905 158.281 67.4905 158.281C70.2038 166.771 77.3396 157.612 77.3396 157.612L78.8307 157.312C79.1112 160.906 82.0585 163.807 85.8023 163.94C89.1071 164.059 91.944 161.977 92.9395 159.038C94.8841 162.193 98.5653 164.398 102.871 164.553C109.284 164.783 114.652 160.393 115.008 154.701C116.197 156.341 118.095 157.456 120.295 157.535C123.282 157.643 125.862 155.828 126.874 153.226C132.072 163.908 140.813 155.184 140.813 155.184C149.091 160.832 152.308 151.584 152.308 151.584C152.308 151.584 159.824 157.402 167.695 146.596C172.108 140.539 167.527 130.64 167.527 130.64C167.527 130.64 176.757 137.477 183.26 129.369C190.45 120.402 181.343 112.545 181.343 112.545Z" fill="#1A0000" stroke="#1A0000" stroke-width="1.44024" stroke-miterlimit="10" stroke-linecap="round"/>
<path d="M139.325 115.139C139.325 115.139 160.681 56.5138 96.3719 54.4864C41.5048 52.757 50.7436 111.577 50.7436 111.577L52.4585 111.436C52.4585 111.436 52.63 62.2064 99.2001 66.8541C142.621 71.1879 136.671 116.234 136.671 116.234L139.325 115.139Z" fill="#FFD44D" stroke="#FFD44D" stroke-width="0.333682" stroke-miterlimit="10"/>
<path d="M147.747 115.828C144.262 113.594 139.606 114.232 135.747 117.027C136.065 115.197 136.285 113.33 136.374 111.423C136.401 110.824 136.382 110.237 136.387 109.643C135.772 109.622 135.157 109.604 134.544 109.563C128.481 109.157 122.566 107.599 117.228 104.664C112.791 102.224 108.862 98.9246 105.698 94.9701C102.722 91.2496 100.636 86.445 99.2587 79.6347C94.9177 86.1892 88.3908 92.142 82.7607 95.9686C74.0873 101.863 63.9286 106.321 53.3862 107.194C53.3789 107.315 53.3658 107.434 53.36 107.556C53.3004 108.838 53.3063 110.106 53.3542 111.364C51.1408 109.836 48.5786 109.184 46.0586 109.734C40.347 110.983 37.0146 117.927 38.6132 125.244C40.2133 132.56 46.1399 137.48 51.8515 136.231C54.8293 135.58 57.1517 133.373 58.4743 130.379C65.2118 142.985 77.924 151.773 92.8641 152.469C107.92 153.171 121.492 145.483 129.347 133.397C129.969 135.59 131.229 137.456 133.108 138.66C138.029 141.815 145.297 139.263 149.339 132.957C153.382 126.654 152.668 118.985 147.747 115.828Z" fill="#CD5428" stroke="#CD5428" stroke-width="1.35231" stroke-miterlimit="10"/>
<path d="M147.747 115.828C144.262 113.594 139.606 114.232 135.747 117.027C136.065 115.197 136.285 113.33 136.374 111.423C136.401 110.824 136.382 110.237 136.387 109.643C135.772 109.622 135.157 109.603 134.544 109.563C128.481 109.157 122.566 107.599 117.228 104.664C112.791 102.223 108.862 98.9244 105.698 94.97C102.722 91.2495 100.636 86.4448 99.2587 79.6346C94.9177 86.189 88.3908 92.1418 82.7607 95.9684C74.0873 101.863 63.9286 106.32 53.3862 107.194C53.3789 107.314 53.3658 107.434 53.36 107.556C53.3004 108.838 53.3063 110.106 53.3542 111.363C51.1408 109.836 48.5786 109.183 46.0586 109.734C40.347 110.983 37.0146 117.927 38.6132 125.244C40.2133 132.56 46.1399 137.48 51.8515 136.231C54.8293 135.58 57.1517 133.372 58.4743 130.379C65.2118 142.985 77.924 151.773 92.8641 152.469C107.92 153.171 121.492 145.483 129.347 133.397C129.969 135.59 131.229 137.456 133.108 138.66C138.029 141.815 145.297 139.263 149.339 132.957C153.382 126.654 152.668 118.985 147.747 115.828Z" fill="#CD5428" stroke="#CD5428" stroke-width="1.35231" stroke-miterlimit="10"/>
<path d="M87.084 148.641L86.1437 158.839L79.4788 160.865C79.4788 160.865 74.85 169.906 88.0229 174.121C101.196 178.335 106.375 162.012 106.375 162.012L98.1496 159.442L98.7614 149.41L87.084 148.641Z" fill="#CD5428" stroke="#CD5428" stroke-width="1.32644" stroke-miterlimit="10"/>
<path d="M54.7239 117.71C53.1659 115.819 51.2839 114.08 49.1213 113.357C46.9835 112.597 44.6117 113.719 43.388 115.517C42.157 117.366 42.1149 119.881 42.4201 122.236C42.7573 124.621 43.4011 127.003 44.2382 129.332C42.9535 127.211 41.9638 124.885 41.4246 122.41C40.9057 119.983 40.7749 117.159 42.2849 114.786C43.0479 113.623 44.1815 112.778 45.4503 112.279C46.7423 111.782 48.245 111.829 49.4818 112.345C51.9815 113.394 53.6019 115.526 54.7239 117.71Z" fill="#8B2A0C"/>
<path d="M58.6629 132.136C57.8389 130.348 57.5148 128.379 57.2866 126.439C57.1921 125.462 57.1427 124.483 57.1325 123.505C57.1253 122.525 57.1747 121.547 57.2575 120.572C57.3404 122.526 57.4043 124.472 57.6179 126.405C57.7051 127.373 57.8389 128.335 58.0016 129.295C58.1775 130.248 58.3591 131.207 58.6629 132.136Z" fill="#8B2A0C"/>
<path d="M56.544 140.385L53.5908 137.138L51.5606 140.705L51.3513 135.608L48.2979 134.314L51.7611 133.586L52.8569 129.712L54.5181 133.354L58.1891 133.482L55.6357 135.48L56.544 140.385Z" fill="white" stroke="white" stroke-width="0.342983" stroke-miterlimit="10" stroke-linecap="round"/>
<path d="M79.6271 94.9323C78.1883 94.6213 76.8106 94.5603 75.4939 94.5719C74.1742 94.6169 72.8953 94.7841 71.6426 95.1125C70.3884 95.4453 69.1632 95.922 67.9221 96.4772C67.2986 96.749 66.6998 97.0934 66.0487 97.3782C65.402 97.6805 64.8076 98.0671 64.094 98.3491L64.0679 98.3592C64.0344 98.3723 63.9981 98.3563 63.985 98.3229C63.9749 98.2967 63.9821 98.2691 64.0025 98.2517L65.6142 96.826C66.2028 96.4147 66.7551 95.9496 67.3742 95.5834C68.5921 94.8175 69.9175 94.2231 71.3068 93.822C74.103 93.1389 77.1782 93.3758 79.7012 94.8189C79.7317 94.8364 79.7419 94.8756 79.7245 94.9061C79.7099 94.9309 79.6823 94.9425 79.6562 94.9367L79.6271 94.9323Z" fill="#2E2E2E"/>
<path d="M111.497 97.1239C112.629 96.1008 114.12 95.4904 115.662 95.3087C117.21 95.0893 118.805 95.3102 120.295 95.7912C121.756 96.3507 123.112 97.1414 124.225 98.1834C124.802 98.6761 125.261 99.2908 125.745 99.8547C126.14 100.507 126.562 101.115 126.874 101.798L126.881 101.812C126.896 101.846 126.881 101.885 126.849 101.9C126.823 101.911 126.794 101.905 126.775 101.886L125.268 100.371C124.712 99.9274 124.196 99.4303 123.609 99.0307C122.456 98.1979 121.192 97.5308 119.859 97.0512C117.204 96.1255 114.159 96.0688 111.563 97.2431C111.53 97.2576 111.491 97.2431 111.476 97.2096C111.465 97.182 111.472 97.1515 111.492 97.1326L111.497 97.1239Z" fill="#2E2E2E"/>
<path opacity="0.49" d="M122.981 132.837C122.408 135.996 119.382 138.091 116.223 137.517C113.065 136.944 110.97 133.918 111.544 130.76C112.117 127.602 115.144 125.506 118.302 126.08C121.459 126.654 123.555 129.679 122.981 132.837Z" fill="#8B2A0C" stroke="#8B2A0C" stroke-width="1.50259" stroke-miterlimit="10"/>
<path opacity="0.49" d="M76.4744 132.837C75.901 135.996 72.8748 138.091 69.7165 137.517C66.5582 136.944 64.4629 133.918 65.0371 130.76C65.6105 127.602 68.6368 125.506 71.795 126.08C74.9526 126.654 77.0479 129.679 76.4744 132.837Z" fill="#8B2A0C" stroke="#8B2A0C" stroke-width="1.50259" stroke-miterlimit="10"/>
<path d="M87.8496 123.095C88.197 121.602 88.9803 120.179 90.1546 119.076C91.3114 117.969 92.9827 117.254 94.6453 117.318C95.4635 117.338 96.3065 117.495 97.0854 117.842C97.8441 118.229 98.5257 118.774 99.0009 119.453C99.9717 120.803 100.283 122.439 100.137 123.958C99.7537 122.489 99.1622 121.093 98.2205 120.089C97.2875 119.073 96.0027 118.6 94.6235 118.605C93.2574 118.534 91.9378 119.033 90.794 119.847C89.6503 120.678 88.6824 121.819 87.8496 123.095Z" fill="#8B2A0C"/>
<g opacity="0.53">
<path d="M100.185 124.432C100.185 124.432 100.202 119.033 95.6343 118.296C90.3151 117.438 87.9375 123.103 87.9375 123.103" fill="#8B2A0C"/>
<path d="M100.185 124.432C99.8576 122.949 99.3199 121.532 98.4174 120.492C97.5221 119.441 96.2563 118.919 94.8785 118.874C93.5153 118.752 92.1797 119.201 91.0055 119.97C89.8312 120.758 88.8197 121.861 87.9375 123.103C88.3386 121.625 89.1757 120.232 90.3907 119.174C91.5897 118.11 93.2872 117.46 94.9454 117.588C95.7622 117.642 96.5993 117.826 97.3637 118.207C98.1078 118.621 98.7662 119.193 99.2167 119.889C100.135 121.274 100.385 122.92 100.185 124.432Z" fill="#8B2A0C"/>
</g>
<path d="M63.9725 115.257L60.6328 112.862L64.6672 113.647L63.9725 115.257Z" fill="black"/>
<path d="M65.2804 112.374L62.0352 109.476L66.2251 110.646L65.2804 112.374Z" fill="black"/>
<path d="M123.498 118.653L127.604 118.868L123.783 120.384L123.498 118.653Z" fill="black"/>
<path d="M122.903 115.364L127.252 115.242L123.402 117.268L122.903 115.364Z" fill="black"/>
<path opacity="0.49" d="M100.551 131.256C100.56 133.31 98.1007 137.279 94.1506 137.296C90.2019 137.314 87.9943 132.935 88.2109 130.887C88.2109 130.887 90.3007 130.362 94.2494 130.345C98.1981 130.327 100.551 131.256 100.551 131.256Z" fill="#8B2A0C"/>
<path opacity="0.49" d="M100.551 129.803C100.56 131.856 98.1007 135.825 94.1506 135.843C90.2019 135.86 87.9943 131.481 88.2109 129.434C88.2109 129.434 90.3007 128.909 94.2494 128.892C98.1981 128.874 100.551 129.803 100.551 129.803Z" fill="#8B2A0C"/>
<path d="M135.165 121.912C136.653 119.958 138.622 118.142 141.265 117.544C142.573 117.252 144.061 117.47 145.245 118.185C146.406 118.899 147.376 119.931 147.922 121.208C148.995 123.808 148.371 126.567 147.435 128.866C146.47 131.207 145.09 133.325 143.453 135.189C144.684 133.041 145.736 130.81 146.485 128.521C147.197 126.256 147.597 123.772 146.709 121.737C145.818 119.754 143.68 118.235 141.442 118.608C139.188 118.94 137.031 120.322 135.165 121.912Z" fill="#8B2A0C"/>
<path d="M128.766 135.426C129.228 134.564 129.574 133.653 129.912 132.743C130.241 131.829 130.542 130.905 130.796 129.966C131.345 128.1 131.748 126.196 132.172 124.286C132.084 125.26 131.961 126.232 131.783 127.196C131.601 128.158 131.382 129.114 131.117 130.059C130.553 131.928 129.889 133.81 128.766 135.426Z" fill="#8B2A0C"/>
<path d="M138.537 143.499L135.583 140.251L133.552 143.819L133.344 138.721L130.289 137.429L133.754 136.701L134.85 132.825L136.511 136.468L140.182 136.596L137.628 138.593L138.537 143.499Z" fill="white" stroke="white" stroke-width="0.342983" stroke-miterlimit="10" stroke-linecap="round"/>
<path d="M125.779 113.329C125.609 119.302 120.471 123.979 114.306 123.774C108.14 123.569 103.28 118.561 103.452 112.589C103.622 106.616 108.759 101.939 114.924 102.144C121.091 102.349 125.95 107.356 125.779 113.329Z" fill="white"/>
<path d="M115.417 121.252C119.669 120.702 122.651 116.658 122.077 112.221C121.502 107.783 117.59 104.632 113.338 105.182C109.086 105.732 106.104 109.775 106.678 114.213C107.252 118.65 111.165 121.802 115.417 121.252Z" fill="#280707" stroke="#280707" stroke-width="1.23924" stroke-miterlimit="10"/>
<path d="M103.096 110.653C103.785 108.059 105.261 105.65 107.393 103.808C109.515 101.915 112.547 101.096 115.391 101.313C118.191 101.499 121.001 102.683 123.074 104.686C124.111 105.695 124.821 106.972 125.345 108.261C125.874 109.562 126.129 110.925 126.096 112.329L125.693 112.004C126.471 111.948 127.251 111.909 128.038 111.897L128.058 112.014L125.763 112.41L125.692 112.424L125.685 112.348C125.429 109.758 124.289 107.209 122.378 105.421C120.463 103.634 117.883 102.678 115.286 102.462C113.987 102.337 112.67 102.436 111.41 102.778C110.163 103.153 108.973 103.727 107.924 104.512C105.85 106.106 104.239 108.293 103.208 110.693L103.096 110.653Z" fill="black"/>
<path d="M125.147 109.624L127.794 109.379L125.556 110.812L125.147 109.624Z" fill="black"/>
<path d="M124.149 107.26L126.646 106.68L124.725 108.376L124.149 107.26Z" fill="black"/>
<path d="M106.444 121.055C108.002 121.796 109.623 122.331 111.248 122.723C112.878 123.091 114.541 123.258 116.167 123.091C117.801 122.972 119.383 122.447 120.806 121.616C122.28 120.841 123.502 119.665 124.753 118.466C124.281 119.178 123.817 119.931 123.239 120.585C122.627 121.21 122.025 121.87 121.259 122.337C120.563 122.908 119.71 123.217 118.901 123.602C118.039 123.857 117.173 124.108 116.273 124.175C114.486 124.336 112.685 124.097 111.018 123.538C109.35 122.988 107.781 122.156 106.444 121.055Z" fill="black"/>
<path d="M61.5215 111.193C60.882 116.969 65.2987 122.16 71.3852 122.788C77.4731 123.416 82.926 119.243 83.5654 113.468C84.2049 107.692 79.7883 102.501 73.7018 101.873C67.6138 101.245 62.161 105.418 61.5215 111.193Z" fill="white"/>
<path d="M65.1763 110.494C64.1429 114.848 66.6891 119.169 70.8631 120.149C75.037 121.127 79.2589 118.392 80.2937 114.037C81.327 109.685 78.7808 105.362 74.6069 104.384C70.4315 103.405 66.2096 106.14 65.1763 110.494Z" fill="#280707" stroke="#280707" stroke-width="1.23924" stroke-miterlimit="10"/>
<path d="M83.9279 111.338C83.4003 110.132 82.7958 108.971 82.0517 107.925C81.3323 106.867 80.5344 105.884 79.6042 105.07C78.6552 104.278 77.6306 103.64 76.5421 103.155C75.4332 102.712 74.2502 102.481 73.0469 102.454C70.6039 102.354 68.126 102.805 66.1393 104.159C64.0901 105.421 62.6005 107.592 61.711 109.949L61.5628 110.342L61.2678 110.217C60.5498 109.913 59.8377 109.592 59.1328 109.244L59.1677 109.131L61.3913 109.823L61.3056 109.875C61.9058 107.297 63.3823 104.894 65.5507 103.337C67.7249 101.79 70.46 101.145 73.1021 101.302C74.4304 101.366 75.7471 101.659 76.9679 102.19C78.1727 102.751 79.2874 103.505 80.2263 104.447C82.0764 106.354 83.3596 108.757 84.0456 111.315L83.9279 111.338Z" fill="black"/>
<path d="M61.7765 108.398L59.7549 106.672L62.3433 107.278L61.7765 108.398Z" fill="black"/>
<path d="M62.9296 106.098L61.2598 104.155L63.6519 105.072L62.9296 106.098Z" fill="black"/>
<path d="M80.1291 120.509C78.7165 121.51 77.0917 122.224 75.3869 122.655C73.6822 123.091 71.8699 123.199 70.0983 122.908C69.206 122.776 68.3602 122.464 67.5187 122.147C66.7383 121.704 65.9099 121.333 65.2573 120.712C64.5278 120.192 63.9755 119.49 63.4116 118.823C62.8811 118.127 62.4742 117.345 62.0557 116.599C63.2154 117.886 64.3504 119.147 65.7631 120.028C67.1219 120.959 68.6624 121.599 70.2829 121.836C71.8931 122.121 73.563 122.074 75.2169 121.827C76.8664 121.55 78.5217 121.135 80.1291 120.509Z" fill="black"/>
<path d="M60.2139 230.624L53.0664 289.377L48.5067 297.47L65.7021 303.266L65.686 292.448L83.7107 239.366L60.2139 230.624Z" fill="#B44A24" stroke="#B44A24" stroke-width="1.31191" stroke-miterlimit="10"/>
<path d="M71.5995 276.172C66.159 274.786 60.9047 272.43 55.294 272.077L53.2335 289.433L48.6496 297.518L66.0973 303.399L66.032 292.563L71.5995 276.172Z" fill="white" stroke="white" stroke-width="1.31191" stroke-miterlimit="10"/>
<path d="M67.0002 289.711C65.6863 289.423 64.3761 289.096 63.0627 288.811C59.8838 288.123 56.6961 287.448 53.5786 286.518L53.2325 289.433L45.3268 301.11L66.0963 303.399L66.031 292.563L67.0002 289.711Z" fill="black" stroke="black" stroke-width="1.31191" stroke-miterlimit="10"/>
<path opacity="0.49" d="M71.195 262.606C70.444 264.538 67.1764 265.073 63.8974 263.799C60.6184 262.526 58.5686 259.925 59.3196 257.993C60.0711 256.059 63.3382 255.526 66.6172 256.799C69.8962 258.073 71.9459 260.674 71.195 262.606Z" fill="#8B2A0C" stroke="#8B2A0C" stroke-width="0.634664" stroke-miterlimit="10"/>
<path d="M125.683 230.624L132.663 289.433L137.247 297.518L119.8 303.399L119.864 292.565L101.837 239.483L125.683 230.624Z" fill="#B44A24" stroke="#B44A24" stroke-width="1.31191" stroke-miterlimit="10"/>
<path d="M114.297 276.172C119.737 274.787 124.992 272.43 130.603 272.077L132.663 289.433L137.247 297.518L119.799 303.399L119.864 292.563L114.297 276.172Z" fill="white" stroke="white" stroke-width="1.31191" stroke-miterlimit="10"/>
<path d="M118.896 289.711C120.21 289.423 121.52 289.096 122.834 288.811C126.013 288.123 129.201 287.448 132.318 286.518L132.664 289.433L139.793 300.384L119.8 303.399L119.866 292.563L118.896 289.711Z" fill="black" stroke="black" stroke-width="1.31191" stroke-miterlimit="10"/>
<path opacity="0.49" d="M114.702 262.606C115.453 264.538 118.72 265.073 121.999 263.799C125.278 262.526 127.328 259.925 126.577 257.993C125.825 256.059 122.558 255.526 119.279 256.799C116 258.073 113.951 260.674 114.702 262.606Z" fill="#8B2A0C" stroke="#8B2A0C" stroke-width="0.634664" stroke-miterlimit="10"/>
<path d="M141.599 168.619C147.438 165.55 151.528 159.985 153.034 153.616L160.508 121.991C160.632 121.466 159.895 121.203 159.651 121.686L156.53 127.977L157.629 118.215C157.663 117.857 157.142 117.763 157.043 118.109L153.884 128.041L154.086 117.648C154.045 117.158 153.33 117.129 153.247 117.615L151.415 127.737C151.415 127.737 150.575 118.118 150.341 118.366C150.107 118.615 149.496 128.066 149.496 128.066L147.01 124.317C146.872 124.028 146.443 124.072 146.366 124.383L146.571 133.495L137.581 154.26L110.072 161.036L108.093 176.496C108.093 176.496 132.439 173.434 141.599 168.619Z" fill="#B44A24" stroke="#B44A24" stroke-width="1.049" stroke-miterlimit="10"/>
<path d="M128.646 172.847C118.773 175.153 107.826 178.606 107.826 178.606L110.076 161.037L127.631 156.713C129.581 161.868 129.578 167.405 128.646 172.847Z" fill="white" stroke="white" stroke-width="1.049" stroke-miterlimit="10"/>
<path d="M159.182 125.493C158.391 125.396 157.609 125.259 156.84 125.073L154.521 124.57L152.245 123.899C151.482 123.694 150.73 123.438 149.989 123.145L149.997 123.116L159.189 125.466L159.182 125.493Z" fill="#8B2A0C"/>
<path d="M149.125 126.561C149.953 126.545 150.804 126.872 151.41 127.494C151.687 127.829 151.863 128.249 151.901 128.672C151.975 129.094 151.885 129.517 151.767 129.911C151.785 129.497 151.808 129.09 151.729 128.699C151.667 128.307 151.478 127.945 151.212 127.664C150.722 127.041 149.914 126.763 149.125 126.561Z" fill="#8B2A0C"/>
<path d="M137.583 154.26C138.558 154.969 139.442 155.783 140.373 156.542C141.244 157.37 142.164 158.142 142.991 159.02C142.016 158.311 141.132 157.497 140.2 156.738C139.33 155.91 138.41 155.138 137.583 154.26Z" fill="#8B2A0C"/>
<path d="M43.715 171.325C37.5805 168.898 32.9183 163.804 30.7398 157.632L19.9241 126.987C19.7454 126.479 20.4502 126.138 20.7453 126.592L24.521 132.513L22.3832 122.925C22.312 122.572 22.8177 122.424 22.9543 122.757L27.1588 132.293L25.8464 121.982C25.8348 121.491 26.5425 121.386 26.6763 121.86L29.5815 131.728C29.5815 131.728 29.3867 122.073 29.6468 122.296C29.9055 122.518 31.5231 131.85 31.5231 131.85L33.5941 127.858C33.7002 127.555 34.1318 127.553 34.2408 127.855L35.0111 136.937L46.1711 156.62L74.2463 160.413L77.8694 175.573C77.8694 175.573 53.3374 175.133 43.715 171.325Z" fill="#B44A24" stroke="#B44A24" stroke-width="1.049" stroke-miterlimit="10"/>
<path d="M57.0452 174.142C67.108 175.378 78.3625 177.64 78.3625 177.64L74.2467 160.412L56.3302 157.991C54.9408 163.329 55.5367 168.833 57.0452 174.142Z" fill="white" stroke="white" stroke-width="1.049" stroke-miterlimit="10"/>
<path d="M22.5586 129.898C23.2635 129.526 23.9828 129.192 24.7197 128.906L26.9113 127.994L29.1639 127.246C29.908 126.978 30.6695 126.759 31.4456 126.577L31.4558 126.606L22.5673 129.926L22.5586 129.898Z" fill="#8B2A0C"/>
<path d="M32.1423 130.25C31.3793 130.535 30.6061 130.897 30.1861 131.571C29.9521 131.878 29.8038 132.257 29.7835 132.655C29.7472 133.052 29.8126 133.453 29.8751 133.864C29.7152 133.485 29.5815 133.075 29.6091 132.646C29.6018 132.221 29.7312 131.786 29.971 131.423C30.5072 130.74 31.3182 130.323 32.1423 130.25Z" fill="#8B2A0C"/>
<path d="M46.4321 156.494C45.7912 157.516 45.0383 158.452 44.3451 159.434C43.5792 160.36 42.8714 161.331 42.0518 162.214C42.6927 161.193 43.4455 160.257 44.1387 159.274C44.9061 158.35 45.6139 157.379 46.4321 156.494Z" fill="#8B2A0C"/>
<mask id="mask0_1432_23853" style="mask-type:luminance" maskUnits="userSpaceOnUse" x="54" y="159" width="81" height="90">
<path d="M82.4359 160.082C82.4359 160.082 82.869 170.462 92.1077 170.376C101.652 170.287 102.069 160.065 102.069 160.065L110.603 160.402C110.603 160.402 130.943 232.205 134.174 242.318C134.174 242.318 96.8877 255.753 54.9639 242.352L73.8308 159.834L82.4359 160.082Z" fill="white"/>
</mask>
<g mask="url(#mask0_1432_23853)">
<path d="M82.4359 160.082C82.4359 160.082 82.869 170.462 92.1077 170.376C101.652 170.287 102.069 160.065 102.069 160.065L110.603 160.402C110.603 160.402 130.943 232.205 134.174 242.318C134.174 242.318 96.8877 255.753 54.9639 242.352L73.8308 159.834L82.4359 160.082Z" fill="#7A5FFF" stroke="#7A5FFF" stroke-width="1.34752" stroke-miterlimit="10"/>
</g>
<mask id="mask1_1432_23853" style="mask-type:luminance" maskUnits="userSpaceOnUse" x="54" y="159" width="81" height="90">
<path d="M82.4359 160.082C82.4359 160.082 82.869 170.462 92.1077 170.376C101.652 170.287 102.069 160.065 102.069 160.065L110.603 160.402C110.603 160.402 130.943 232.205 134.174 242.318C134.174 242.318 96.8877 255.753 54.9639 242.352L73.8308 159.834L82.4359 160.082Z" fill="white"/>
</mask>
<g mask="url(#mask1_1432_23853)">
<path d="M77.1479 197.049L75.4199 183.501C75.4053 183.382 75.305 183.277 75.1975 183.266L65.0911 182.189C64.8862 182.167 64.783 181.856 64.9516 181.769L75.1409 176.535C75.1888 176.511 75.2178 176.461 75.2237 176.4L76.0753 166.154C76.0927 165.952 76.3427 165.952 76.443 166.153L81.0485 175.511C81.098 175.612 81.2026 175.675 81.2927 175.659L91.1012 173.829C91.2858 173.794 91.4529 174.066 91.3351 174.21L85.0655 181.862C85.0103 181.93 85.0161 182.043 85.0786 182.133L91.5895 191.475C91.7203 191.663 91.5851 191.874 91.3947 191.776L81.5935 186.762C81.4947 186.711 81.3945 186.745 81.3596 186.838L77.5286 197.185C77.4589 197.377 77.1755 197.276 77.1479 197.049Z" fill="#FFD44D"/>
</g>
<mask id="mask2_1432_23853" style="mask-type:luminance" maskUnits="userSpaceOnUse" x="54" y="159" width="81" height="90">
<path d="M82.4359 160.082C82.4359 160.082 82.869 170.462 92.1077 170.376C101.652 170.287 102.069 160.065 102.069 160.065L110.603 160.402C110.603 160.402 130.943 232.205 134.174 242.318C134.174 242.318 96.8877 255.753 54.9639 242.352L73.8308 159.834L82.4359 160.082Z" fill="white"/>
</mask>
<g mask="url(#mask2_1432_23853)">
<path d="M106.639 228.946L110.506 215.888C110.54 215.773 110.492 215.635 110.399 215.58L101.609 210.335C101.43 210.229 101.461 209.902 101.65 209.895L113.051 209.433C113.105 209.431 113.151 209.399 113.18 209.345L118.075 200.38C118.171 200.204 118.401 200.309 118.411 200.534L118.853 210.993C118.857 211.107 118.927 211.208 119.015 211.23L128.702 213.704C128.885 213.75 128.927 214.069 128.763 214.149L119.967 218.466C119.889 218.504 119.848 218.61 119.87 218.719L122.057 229.968C122.101 230.195 121.893 230.328 121.758 230.16L114.828 221.462C114.759 221.374 114.654 221.361 114.584 221.433L106.93 229.233C106.792 229.376 106.575 229.166 106.639 228.946Z" fill="#FFD44D"/>
</g>
<mask id="mask3_1432_23853" style="mask-type:luminance" maskUnits="userSpaceOnUse" x="54" y="159" width="81" height="90">
<path d="M82.4359 160.082C82.4359 160.082 82.869 170.462 92.1077 170.376C101.652 170.287 102.069 160.065 102.069 160.065L110.603 160.402C110.603 160.402 130.943 232.205 134.174 242.318C134.174 242.318 96.8877 255.753 54.9639 242.352L73.8308 159.834L82.4359 160.082Z" fill="white"/>
</mask>
<g mask="url(#mask3_1432_23853)">
<path d="M65.6387 245.796L61.8048 232.704C61.7714 232.59 61.6566 232.501 61.549 232.508L51.4092 233.113C51.2043 233.124 51.0532 232.835 51.2058 232.722L60.4343 225.872C60.4779 225.84 60.4998 225.787 60.4954 225.726L59.7252 215.468C59.7106 215.266 59.9577 215.224 60.087 215.407L66.1008 223.887C66.1662 223.98 66.2782 224.024 66.3654 223.993L75.7538 220.566C75.9311 220.502 76.1374 220.742 76.0444 220.904L71.0639 229.494C71.0203 229.57 71.0436 229.682 71.1192 229.76L79.0107 237.909C79.1691 238.073 79.0688 238.303 78.8653 238.239L68.4087 234.906C68.3041 234.873 68.2096 234.922 68.1907 235.02L66.0398 245.87C65.9977 246.068 65.7026 246.014 65.6387 245.796Z" fill="#FFD44D"/>
</g>
<mask id="mask4_1432_23853" style="mask-type:luminance" maskUnits="userSpaceOnUse" x="54" y="159" width="81" height="90">
<path d="M82.4359 160.082C82.4359 160.082 82.869 170.462 92.1077 170.376C101.652 170.287 102.069 160.065 102.069 160.065L110.603 160.402C110.603 160.402 130.943 232.205 134.174 242.318C134.174 242.318 96.8877 255.753 54.9639 242.352L73.8308 159.834L82.4359 160.082Z" fill="white"/>
</mask>
<g mask="url(#mask4_1432_23853)">
<path d="M104.858 183.11L106.264 178.366C106.277 178.324 106.258 178.275 106.225 178.254L103.032 176.349C102.966 176.31 102.978 176.192 103.046 176.189L107.188 176.021C107.207 176.019 107.224 176.008 107.235 175.989L109.012 172.732C109.047 172.668 109.131 172.707 109.134 172.789L109.295 176.587C109.297 176.63 109.322 176.666 109.355 176.673L112.873 177.571C112.94 177.589 112.955 177.704 112.895 177.733L109.701 179.301C109.672 179.314 109.657 179.353 109.666 179.392L110.461 183.479C110.477 183.562 110.401 183.61 110.352 183.549L107.835 180.389C107.81 180.357 107.771 180.353 107.746 180.379L104.966 183.213C104.914 183.266 104.835 183.188 104.858 183.11Z" fill="#FFD44D"/>
</g>
<mask id="mask5_1432_23853" style="mask-type:luminance" maskUnits="userSpaceOnUse" x="54" y="159" width="81" height="90">
<path d="M82.4359 160.082C82.4359 160.082 82.869 170.462 92.1077 170.376C101.652 170.287 102.069 160.065 102.069 160.065L110.603 160.402C110.603 160.402 130.943 232.205 134.174 242.318C134.174 242.318 96.8877 255.753 54.9639 242.352L73.8308 159.834L82.4359 160.082Z" fill="white"/>
</mask>
<g mask="url(#mask5_1432_23853)">
<path d="M86.8237 215.586L86.831 210.624C86.831 210.581 86.8004 210.537 86.7627 210.528L83.1715 209.648C83.0988 209.63 83.0756 209.512 83.141 209.489L87.0548 208.103C87.0737 208.095 87.0867 208.079 87.0911 208.058L87.8744 204.411C87.8904 204.34 87.9805 204.352 88.0067 204.429L89.2304 208.023C89.2435 208.062 89.2783 208.09 89.3118 208.088L92.9305 207.908C92.9988 207.905 93.0468 208.011 92.9974 208.056L90.3829 210.505C90.3596 210.527 90.3567 210.568 90.3756 210.604L92.2867 214.285C92.3245 214.359 92.2663 214.429 92.2024 214.384L88.9048 212.101C88.8714 212.078 88.8336 212.085 88.8177 212.117L86.9559 215.656C86.9211 215.72 86.8237 215.669 86.8237 215.586Z" fill="#FFD44D"/>
</g>
<mask id="mask6_1432_23853" style="mask-type:luminance" maskUnits="userSpaceOnUse" x="54" y="159" width="81" height="90">
<path d="M82.4359 160.082C82.4359 160.082 82.869 170.462 92.1077 170.376C101.652 170.287 102.069 160.065 102.069 160.065L110.603 160.402C110.603 160.402 130.943 232.205 134.174 242.318C134.174 242.318 96.8877 255.753 54.9639 242.352L73.8308 159.834L82.4359 160.082Z" fill="white"/>
</mask>
<g mask="url(#mask6_1432_23853)">
<path d="M93.5757 250.954L94.981 246.21C94.9926 246.168 94.9752 246.119 94.9418 246.098L91.7488 244.193C91.6849 244.154 91.695 244.036 91.7634 244.033L95.9053 243.865C95.9242 243.865 95.9416 243.853 95.9533 243.833L97.7307 240.576C97.7656 240.512 97.8484 240.549 97.8528 240.632L98.0141 244.431C98.0155 244.472 98.0403 244.508 98.0737 244.517L101.592 245.415C101.659 245.433 101.674 245.547 101.614 245.576L98.4196 247.145C98.3905 247.159 98.376 247.197 98.3847 247.236L99.1796 251.323C99.1956 251.406 99.1201 251.454 99.0707 251.393L96.5535 248.233C96.5288 248.201 96.4896 248.197 96.4649 248.223L93.6846 251.057C93.6323 251.109 93.5524 251.032 93.5757 250.954Z" fill="#FFD44D"/>
</g>
<path opacity="0.49" d="M104.577 128.39C104.78 129.765 101.421 135.691 95.8215 135.928C90.6936 136.145 85.9844 132.201 86.1819 129.687C86.1819 129.687 91.5444 126.43 96.5375 126.823C101.531 127.216 104.577 128.39 104.577 128.39Z" fill="#8B2A0C"/>
<path d="M83.4183 128.289C84.3998 128.746 85.383 129.172 86.4079 129.482C87.4136 129.838 88.4436 130.099 89.4783 130.321C91.5519 130.727 93.6654 130.884 95.7461 130.683C97.825 130.507 99.8889 130.028 101.821 129.185C103.801 128.427 105.568 127.227 107.38 126.035C106.605 126.779 106.366 127.439 105.64 128.165C104.913 129.619 103.015 132.073 102.006 132.525C100.07 133.59 99.1204 134.497 96.9197 134.705C94.7118 134.89 91.1065 134.705 88.1998 132.525C86.0951 131.905 85.1462 129.605 83.4183 128.289Z" fill="#3B130E"/>
</svg>
