<svg width="142" height="100" viewBox="0 0 142 100" fill="none" xmlns="http://www.w3.org/2000/svg">
<circle cx="71" cy="50" r="50" fill="#FF5A5F" fill-opacity="0.62"/>
<g clip-path="url(#clip0_1432_25208)">
<path d="M56 50C56 46.0218 57.5804 42.2064 60.3934 39.3934C63.2064 36.5804 67.0218 35 71 35C74.9782 35 78.7936 36.5804 81.6066 39.3934C84.4196 42.2064 86 46.0218 86 50C86 53.9782 84.4196 57.7936 81.6066 60.6066C78.7936 63.4196 74.9782 65 71 65C67.0218 65 63.2064 63.4196 60.3934 60.6066C57.5804 57.7936 56 53.9782 56 50ZM75.8457 58.1973C76.2324 57.8516 76.2617 57.2598 75.916 56.873C74.9727 55.8242 73.3262 54.6875 71 54.6875C68.6738 54.6875 67.0273 55.8242 66.084 56.873C65.7383 57.2598 65.7676 57.8516 66.1543 58.1973C66.541 58.543 67.1328 58.5137 67.4785 58.127C68.1641 57.3652 69.3301 56.5625 71 56.5625C72.6699 56.5625 73.8359 57.3652 74.5215 58.127C74.8672 58.5137 75.459 58.543 75.8457 58.1973ZM66.3359 50.9375C67.373 50.9375 68.2109 50.0996 68.2109 49.0625C68.2109 48.9746 68.2051 48.8867 68.1934 48.8047L68.832 49.0156C69.3242 49.1797 69.8516 48.916 70.0156 48.4238C70.1797 47.9316 69.916 47.4043 69.4238 47.2402L63.7988 45.3652C63.3066 45.2012 62.7793 45.4648 62.6152 45.957C62.4512 46.4492 62.7148 46.9766 63.207 47.1406L65.0059 47.7383C64.666 48.0781 64.4609 48.5469 64.4609 49.0625C64.4609 50.0996 65.2988 50.9375 66.3359 50.9375ZM77.5859 49.0625C77.5859 48.541 77.375 48.0664 77.0293 47.7266L78.7988 47.1348C79.291 46.9707 79.5547 46.4375 79.3906 45.9512C79.2266 45.4648 78.6934 45.1953 78.207 45.3594L72.582 47.2344C72.0898 47.3984 71.8262 47.9316 71.9902 48.418C72.1543 48.9043 72.6875 49.1738 73.1738 49.0098L73.8594 48.7812C73.8477 48.8691 73.8418 48.9629 73.8418 49.0566C73.8418 50.0938 74.6797 50.9316 75.7168 50.9316C76.7539 50.9316 77.5918 50.0938 77.5918 49.0566L77.5859 49.0625Z" fill="#FF5A5F"/>
</g>
<defs>
<clipPath id="clip0_1432_25208">
<rect width="30" height="30" fill="white" transform="translate(56 35)"/>
</clipPath>
</defs>
</svg>
