<svg width="142" height="100" viewBox="0 0 142 100" fill="none" xmlns="http://www.w3.org/2000/svg">
<circle cx="71" cy="50" r="50" fill="#FFD44D" fill-opacity="0.58"/>
<g clip-path="url(#clip0_1432_25186)">
<path d="M71 65C74.9782 65 78.7936 63.4196 81.6066 60.6066C84.4196 57.7936 86 53.9782 86 50C86 46.0218 84.4196 42.2064 81.6066 39.3934C78.7936 36.5804 74.9782 35 71 35C67.0218 35 63.2064 36.5804 60.3934 39.3934C57.5804 42.2064 56 46.0218 56 50C56 53.9782 57.5804 57.7936 60.3934 60.6066C63.2064 63.4196 67.0218 65 71 65ZM66.3359 45.3125C66.8332 45.3125 67.3101 45.51 67.6618 45.8617C68.0134 46.2133 68.2109 46.6902 68.2109 47.1875C68.2109 47.6848 68.0134 48.1617 67.6618 48.5133C67.3101 48.865 66.8332 49.0625 66.3359 49.0625C65.8387 49.0625 65.3617 48.865 65.0101 48.5133C64.6585 48.1617 64.4609 47.6848 64.4609 47.1875C64.4609 46.6902 64.6585 46.2133 65.0101 45.8617C65.3617 45.51 65.8387 45.3125 66.3359 45.3125ZM73.8359 47.1875C73.8359 46.6902 74.0335 46.2133 74.3851 45.8617C74.7367 45.51 75.2137 45.3125 75.7109 45.3125C76.2082 45.3125 76.6851 45.51 77.0368 45.8617C77.3884 46.2133 77.5859 46.6902 77.5859 47.1875C77.5859 47.6848 77.3884 48.1617 77.0368 48.5133C76.6851 48.865 76.2082 49.0625 75.7109 49.0625C75.2137 49.0625 74.7367 48.865 74.3851 48.5133C74.0335 48.1617 73.8359 47.6848 73.8359 47.1875ZM65.375 54.6875H76.625C77.1406 54.6875 77.5625 55.1094 77.5625 55.625C77.5625 56.1406 77.1406 56.5625 76.625 56.5625H65.375C64.8594 56.5625 64.4375 56.1406 64.4375 55.625C64.4375 55.1094 64.8594 54.6875 65.375 54.6875Z" fill="#F2BD14"/>
</g>
<defs>
<clipPath id="clip0_1432_25186">
<rect width="30" height="30" fill="white" transform="translate(56 35)"/>
</clipPath>
</defs>
</svg>
