<svg width="127" height="170" viewBox="0 0 127 170" fill="none" xmlns="http://www.w3.org/2000/svg">
<path opacity="0.39" d="M50.1686 170C77.8759 170 100.337 165.462 100.337 159.863C100.337 154.265 77.8759 149.727 50.1686 149.727C22.4612 149.727 0 154.265 0 159.863C0 165.462 22.4612 170 50.1686 170Z" fill="#7A5FFF"/>
<path d="M117.969 79.7465C117.969 79.7465 125.075 77.3131 126.258 69.1707C127.442 61.0282 118.125 59.7419 118.125 59.7419C123.299 56.4114 122.789 49.6938 122.789 49.6938C124.232 37.6504 114.846 36.135 114.846 36.135C114.846 36.135 118.945 32.262 117.908 26.4932C115.895 15.2782 104.724 16.924 104.724 16.924C104.209 11.1781 100.358 6.27157 94.9155 4.78208C94.8331 4.75918 94.7507 4.73727 94.6683 4.71636C89.1057 3.25773 83.2054 5.70004 79.9553 10.6066L79.4987 11.2966C79.3695 10.5817 79.0919 9.833 78.738 9.09921C76.9106 5.30479 73.4438 2.6235 69.429 1.55716C59.8891 -0.975771 54.4718 5.94898 54.4718 5.94898C51.0448 0.671043 41.7123 1.48645 41.7123 1.48645C21.1071 4.07016 23.8244 24.9917 23.8244 24.9917C23.8244 24.9917 15.1723 18.0351 7.46085 31.103C-0.251601 44.1699 10.7191 54.9409 10.7191 54.9409C8.80119 55.4785 6.68696 58.9165 6.68696 58.9165C0.737877 72.2572 17.6882 78.028 17.6882 78.028C10.0205 91.1207 27.1833 92.5226 27.1833 92.5226C28.1372 100.139 34.728 94.8056 34.728 94.8056C33.3917 104.041 40.7757 100.487 40.7757 100.487C41.8557 106.145 47.1926 100.804 47.1926 100.804L48.18 100.724C48.0763 103.053 49.7502 105.139 52.1583 105.51C54.2837 105.836 56.282 104.714 57.1596 102.903C58.1654 105.077 60.3691 106.772 63.1392 107.198C67.2639 107.833 71.0815 105.419 71.7628 101.792C72.4005 102.935 73.5384 103.795 74.954 104.012C76.875 104.308 78.6861 103.337 79.5475 101.743C82.0573 108.998 88.3979 104.057 88.3979 104.057C93.2985 108.312 96.1093 102.617 96.1093 102.617C96.1093 102.617 100.505 106.924 106.448 100.581C109.779 97.0259 107.605 90.3212 107.605 90.3212C107.605 90.3212 113.026 95.411 117.872 90.6976C123.23 85.4834 117.969 79.7465 117.969 79.7465Z" fill="#1A0000" stroke="#8B2A0C" stroke-width="0.9416" stroke-miterlimit="10" stroke-linecap="round"/>
<path d="M15.2663 11.4937C16.5832 11.4051 18.2428 11.4937 18.2794 13.1574C18.2937 13.8165 18.0476 14.5722 17.7059 15.1348C17.5188 15.4424 17.3022 15.759 16.9289 15.8765C16.2364 16.0946 15.8917 15.3667 16.2212 14.847C16.9198 13.7468 18.8581 13.9141 19.6187 14.8211C20.3713 15.7172 19.9218 17.2276 18.7666 17.5283C18.8805 17.7205 18.9954 17.9126 19.1093 18.1048C20.0164 17.4168 21.195 18.1735 21.434 19.1233C21.5631 19.6351 21.4858 20.1827 21.2997 20.6716C21.1696 21.0141 20.953 21.3237 20.9997 21.7071C21.0872 22.4249 21.9496 22.9715 22.336 23.538C22.879 24.3346 23.2187 25.2187 23.3936 26.1576C23.475 26.5937 24.1533 26.4085 24.0729 25.9744C23.8665 24.8632 23.4251 23.8128 22.7387 22.9028C22.2597 22.2676 21.6597 21.9848 21.8926 21.0579C22.0228 20.5421 22.215 20.119 22.1967 19.5704C22.1377 17.7981 20.2004 16.4122 18.611 17.6169C18.3191 17.838 18.6404 18.275 18.9537 18.1934C20.3042 17.8409 21.0211 16.3106 20.5482 15.0432C20.0377 13.6722 18.2947 13.1186 16.9523 13.5447C16.275 13.7598 15.5937 14.2456 15.4137 14.9546C15.2591 15.5629 15.5164 16.2609 16.1286 16.5108C17.8188 17.2017 18.8103 14.8251 18.9547 13.5965C19.0574 12.7233 18.8316 11.8332 18.0832 11.2916C17.2828 10.7121 16.212 10.743 15.2673 10.8057C14.8168 10.8346 14.8127 11.5236 15.2663 11.4937Z" fill="#1A0000"/>
<path d="M126.41 28.2655C124.992 27.3634 123.097 26.7471 122.036 28.4686C121.353 29.5787 120.897 31.9514 122.343 32.6901C122.935 32.9928 123.612 32.8156 123.992 32.2869C124.441 31.6616 124.288 30.8472 123.883 30.2408C123.078 29.0351 121.288 28.4606 119.98 29.2342C118.686 29.9999 118.427 31.9294 119.518 32.9569C119.826 33.2467 120.22 32.8823 120.072 32.5388C119.257 30.654 116.712 31.2404 115.906 32.7867C115.677 33.2248 115.615 33.6678 115.524 34.1418C115.369 34.9413 114.565 34.9702 113.928 35.2479C112.858 35.7149 111.935 36.4298 111.195 37.3149C110.91 37.6554 111.405 38.1463 111.693 37.8028C112.326 37.0461 113.082 36.4248 113.977 35.9857C114.633 35.6641 115.761 35.5984 116.099 34.8616C116.247 34.542 116.203 34.1656 116.274 33.8281C116.373 33.3572 116.587 32.8912 116.934 32.5457C117.685 31.8 119.019 31.8568 119.464 32.8873C119.649 32.7479 119.833 32.6085 120.018 32.4701C119.246 31.7433 119.433 30.3852 120.337 29.8296C121.447 29.1476 123.283 29.8844 123.531 31.1648C123.614 31.5929 123.459 32.2709 122.805 32.1345C122.251 32.019 122.141 31.333 122.129 30.889C122.114 30.3264 122.231 29.7281 122.449 29.2083C122.707 28.594 123.162 28.0653 123.886 28.0125C124.676 27.9558 125.426 28.4586 126.057 28.8598C126.436 29.1028 126.789 28.5064 126.41 28.2655Z" fill="#1A0000"/>
<path d="M29.8622 88.5431L28.2686 86.1496L26.5571 88.2305L26.9609 84.9339L25.0938 83.7859L27.4449 83.6774L28.5758 81.3008L29.2785 83.8138L31.6754 84.2778L29.7869 85.2963L29.8622 88.5431Z" fill="white" stroke="white" stroke-width="0.2243" stroke-miterlimit="10" stroke-linecap="round"/>
<path d="M28.1641 62.1542C28.1641 62.1542 28.1529 27.4788 62.2762 30.4219C94.6209 33.2117 88.5427 75.9091 80.0014 80.2083L79.4309 81.3015C79.4309 81.3015 84.6773 56.1545 73.2886 43.5904C65.867 35.4032 53.3851 34.3189 44.2947 40.692C39.5588 44.0125 32.605 52.9744 28.1641 62.1542Z" fill="#FFD44D" stroke="#FFD44D" stroke-width="0.8587" stroke-miterlimit="10"/>
<path d="M52.0827 97.3524L52.5545 103.535H48.9261C48.4878 103.535 48.2051 103.988 48.4054 104.371L53.2725 113.647H59.5246L64.8005 102.804C65.0466 102.297 64.652 101.716 64.0805 101.743L60.8497 101.896V96.738L52.0827 97.3524Z" fill="#B44A24" stroke="#B44A24" stroke-width="0.4592" stroke-miterlimit="10"/>
<mask id="mask0_1432_14855" style="mask-type:luminance" maskUnits="userSpaceOnUse" x="26" y="43" width="67" height="58">
<path d="M91.4775 76.3007C89.8525 74.6081 87.5369 74.6897 85.4715 75.4813C84.419 75.8845 83.4335 76.4421 82.4878 77.0434C81.9203 77.4039 80.7905 78.7171 80.098 78.5747C79.62 78.4772 79.5458 77.7045 79.3994 77.3361C78.115 74.1033 75.3489 71.1034 73.132 68.446C70.6446 65.466 67.9893 62.6264 65.3443 59.7829C60.8311 54.9311 56.68 49.5984 53.9098 43.5886C53.0454 44.3483 51.3095 45.8796 50.9516 46.244C47.498 49.7626 43.7354 53.0433 39.6788 55.8839C37.7975 57.2011 35.8389 58.4278 33.7521 59.4095C31.8952 60.2837 29.8745 61.0085 27.7898 61.0284C27.7766 61.0284 27.7674 61.0224 27.7542 61.0214C27.2803 62.499 26.9091 64.0233 26.6549 65.5895C23.6295 84.2101 33.388 97.038 50.9627 99.7402C61.3365 101.335 71.3259 97.1804 77.8089 89.6225C80.336 92.1315 85.3006 91.3409 89.042 87.7785C92.8616 84.1434 94.2507 79.191 91.4775 76.3007Z" fill="white"/>
</mask>
<g mask="url(#mask0_1432_14855)">
<path d="M91.4775 76.3007C89.8525 74.6081 87.5369 74.6897 85.4715 75.4813C84.419 75.8845 83.4335 76.4421 82.4878 77.0434C81.9203 77.4039 80.7905 78.7171 80.098 78.5747C79.62 78.4772 79.5458 77.7045 79.3994 77.3361C78.115 74.1033 75.3489 71.1034 73.132 68.446C70.6446 65.466 67.9893 62.6264 65.3443 59.7829C60.8311 54.9311 56.68 49.5984 53.9098 43.5886C53.0454 44.3483 51.3095 45.8796 50.9516 46.244C47.498 49.7626 43.7354 53.0433 39.6788 55.8839C37.7975 57.2011 35.8389 58.4278 33.7521 59.4095C31.8952 60.2837 29.8745 61.0085 27.7898 61.0284C27.7766 61.0284 27.7674 61.0224 27.7542 61.0214C27.2803 62.499 26.9091 64.0233 26.6549 65.5895C23.6295 84.2101 33.388 97.038 50.9627 99.7402C61.3365 101.335 71.3259 97.1804 77.8089 89.6225C80.336 92.1315 85.3006 91.3409 89.042 87.7785C92.8616 84.1434 94.2507 79.191 91.4775 76.3007Z" fill="#CD5428" stroke="#CD5428" stroke-width="0.8842" stroke-miterlimit="10"/>
</g>
<mask id="mask1_1432_14855" style="mask-type:luminance" maskUnits="userSpaceOnUse" x="26" y="43" width="67" height="58">
<path d="M91.4775 76.3007C89.8525 74.6081 87.5369 74.6897 85.4715 75.4813C84.419 75.8845 83.4335 76.4421 82.4878 77.0434C81.9203 77.4039 80.7905 78.7171 80.098 78.5747C79.62 78.4772 79.5458 77.7045 79.3994 77.3361C78.115 74.1033 75.3489 71.1034 73.132 68.446C70.6446 65.466 67.9893 62.6264 65.3443 59.7829C60.8311 54.9311 56.68 49.5984 53.9098 43.5886C53.0454 44.3483 51.3095 45.8796 50.9516 46.244C47.498 49.7626 43.7354 53.0433 39.6788 55.8839C37.7975 57.2011 35.8389 58.4278 33.7521 59.4095C31.8952 60.2837 29.8745 61.0085 27.7898 61.0284C27.7766 61.0284 27.7674 61.0224 27.7542 61.0214C27.2803 62.499 26.9091 64.0233 26.6549 65.5895C23.6295 84.2101 33.388 97.038 50.9627 99.7402C61.3365 101.335 71.3259 97.1804 77.8089 89.6225C80.336 92.1315 85.3006 91.3409 89.042 87.7785C92.8616 84.1434 94.2507 79.191 91.4775 76.3007Z" fill="white"/>
</mask>
<g mask="url(#mask1_1432_14855)">
<path opacity="0.49" d="M69.8349 90.1907C68.2983 94.4431 63.5319 96.6704 59.1886 95.166C54.8452 93.6616 52.5703 88.995 54.1069 84.7426C55.6435 80.4901 60.4099 78.2629 64.7533 79.7673C69.0966 81.2717 71.3715 85.9383 69.8349 90.1907Z" fill="#8B2A0C" stroke="#8B2A0C" stroke-width="1.0645" stroke-miterlimit="10"/>
</g>
<mask id="mask2_1432_14855" style="mask-type:luminance" maskUnits="userSpaceOnUse" x="26" y="43" width="67" height="58">
<path d="M91.4775 76.3007C89.8525 74.6081 87.5369 74.6897 85.4715 75.4813C84.419 75.8845 83.4335 76.4421 82.4878 77.0434C81.9203 77.4039 80.7905 78.7171 80.098 78.5747C79.62 78.4772 79.5458 77.7045 79.3994 77.3361C78.115 74.1033 75.3489 71.1034 73.132 68.446C70.6446 65.466 67.9893 62.6264 65.3443 59.7829C60.8311 54.9311 56.68 49.5984 53.9098 43.5886C53.0454 44.3483 51.3095 45.8796 50.9516 46.244C47.498 49.7626 43.7354 53.0433 39.6788 55.8839C37.7975 57.2011 35.8389 58.4278 33.7521 59.4095C31.8952 60.2837 29.8745 61.0085 27.7898 61.0284C27.7766 61.0284 27.7674 61.0224 27.7542 61.0214C27.2803 62.499 26.9091 64.0233 26.6549 65.5895C23.6295 84.2101 33.388 97.038 50.9627 99.7402C61.3365 101.335 71.3259 97.1804 77.8089 89.6225C80.336 92.1315 85.3006 91.3409 89.042 87.7785C92.8616 84.1434 94.2507 79.191 91.4775 76.3007Z" fill="white"/>
</mask>
<g mask="url(#mask2_1432_14855)">
<path opacity="0.49" d="M36.7172 83.5279C35.3423 87.3333 31.0762 89.3275 27.1885 87.9804C23.3018 86.6343 21.2648 82.4576 22.6408 78.6512C24.0157 74.8458 28.2817 72.8515 32.1695 74.1986C36.0562 75.5448 38.0921 79.7215 36.7172 83.5279Z" fill="#8B2A0C" stroke="#8B2A0C" stroke-width="0.9527" stroke-miterlimit="10"/>
</g>
<mask id="mask3_1432_14855" style="mask-type:luminance" maskUnits="userSpaceOnUse" x="26" y="43" width="67" height="58">
<path d="M91.4775 76.3007C89.8525 74.6081 87.5369 74.6897 85.4715 75.4813C84.419 75.8845 83.4335 76.4421 82.4878 77.0434C81.9203 77.4039 80.7905 78.7171 80.098 78.5747C79.62 78.4772 79.5458 77.7045 79.3994 77.3361C78.115 74.1033 75.3489 71.1034 73.132 68.446C70.6446 65.466 67.9893 62.6264 65.3443 59.7829C60.8311 54.9311 56.68 49.5984 53.9098 43.5886C53.0454 44.3483 51.3095 45.8796 50.9516 46.244C47.498 49.7626 43.7354 53.0433 39.6788 55.8839C37.7975 57.2011 35.8389 58.4278 33.7521 59.4095C31.8952 60.2837 29.8745 61.0085 27.7898 61.0284C27.7766 61.0284 27.7674 61.0224 27.7542 61.0214C27.2803 62.499 26.9091 64.0233 26.6549 65.5895C23.6295 84.2101 33.388 97.038 50.9627 99.7402C61.3365 101.335 71.3259 97.1804 77.8089 89.6225C80.336 92.1315 85.3006 91.3409 89.042 87.7785C92.8616 84.1434 94.2507 79.191 91.4775 76.3007Z" fill="white"/>
</mask>
<g mask="url(#mask3_1432_14855)">
<path d="M84.1981 93.8576L82.6056 91.464L80.8931 93.5449L81.2968 90.2474L79.4297 89.0994L81.7809 88.9918L82.9117 86.6152L83.6154 89.1283L86.0113 89.5922L84.1228 90.6108L84.1981 93.8576Z" fill="white" stroke="white" stroke-width="0.2243" stroke-miterlimit="10" stroke-linecap="round"/>
<path d="M82.543 79.7814C83.7704 78.6981 85.189 77.7572 86.8843 77.3241C87.7212 77.113 88.6934 77.0672 89.5944 77.4675C90.4873 77.8916 91.1249 78.6722 91.3517 79.6409C91.5368 80.6187 91.2215 81.5197 90.8381 82.2804C90.4263 83.0411 89.9239 83.7211 89.3585 84.3354C88.2368 85.57 86.93 86.6005 85.5226 87.4588C86.6748 86.2959 87.7649 85.0941 88.73 83.8366C89.1937 83.1964 89.6442 82.5512 89.9544 81.8623C90.2707 81.1872 90.4781 80.4614 90.3368 79.8371C90.2249 79.2357 89.7439 78.6135 89.1642 78.3267C88.5714 78.0081 87.8046 77.9922 87.045 78.0967C85.5134 78.3506 83.9921 79.0177 82.543 79.7814Z" fill="#8B2A0C"/>
<path d="M77.7461 89.6929C78.1254 89.192 78.4112 88.6345 78.6827 88.0779C78.9491 87.5174 79.1861 86.9419 79.3884 86.3555C79.8186 85.1905 80.1308 83.9868 80.443 82.7771C80.3678 83.3964 80.2671 84.0137 80.1247 84.624C79.9783 85.2323 79.8064 85.8357 79.5969 86.4271C79.1566 87.596 78.6237 88.7739 77.7461 89.6929Z" fill="#8B2A0C"/>
<path d="M53.8258 42.4025C52.7021 42.9003 51.6425 43.667 51.1615 44.8169C50.7588 45.7787 50.7994 46.9934 51.5377 47.7959C52.1764 48.4899 53.3957 48.8095 54.1106 48.0398C54.6577 47.4504 54.6699 46.4209 53.9072 46.0018C52.934 45.4671 51.5377 45.944 50.772 46.6191C49.9391 47.3538 49.574 48.5377 49.8171 49.605C50.0367 50.5708 50.9266 51.4838 52.0086 51.1393C52.8862 50.8605 53.1821 49.6468 52.2669 49.2127C51.2194 48.7159 50.0154 49.5014 49.5812 50.4334C49.0005 51.6769 49.6503 53.0489 50.4893 54.0038C50.7689 54.3224 51.2377 53.8594 50.9601 53.5428C50.3581 52.8578 49.8354 51.901 50.0876 50.97C50.1974 50.5658 50.4669 50.1964 50.8228 49.9634C51.0577 49.8101 52.271 49.4019 52.1672 50.1576C52.0859 50.749 51.2113 50.5638 50.9306 50.3119C50.5686 49.9863 50.4242 49.4716 50.4089 49.0046C50.3794 48.0956 50.8686 47.2274 51.6771 46.7794C52.1957 46.4916 54.0018 46.0605 53.8371 47.1597C53.6733 48.2549 52.2974 47.7999 51.8733 47.1517C50.712 45.3735 52.6615 43.6301 54.1645 42.964C54.5519 42.7928 54.2143 42.2312 53.8258 42.4025Z" fill="#1A0000"/>
<path d="M42.4961 75.3753C42.7686 74.5917 43.2568 73.852 43.9635 73.3153C44.6561 72.7717 45.612 72.466 46.5262 72.5805C46.9767 72.6303 47.4343 72.7558 47.8462 72.9808C48.2459 73.2257 48.5947 73.5523 48.8245 73.9426C49.2994 74.7172 49.3767 75.6173 49.2323 76.4297C49.1021 75.6173 48.8286 74.8377 48.3638 74.2483C47.8991 73.6548 47.2137 73.3382 46.453 73.2755C45.7025 73.172 44.951 73.3781 44.2798 73.7624C43.6117 74.1586 43.0096 74.7202 42.4961 75.3753Z" fill="#8B2A0C"/>
<g opacity="0.53">
<path d="M42.541 75.3842C42.541 75.3842 44.1285 72.439 47.0206 73.1559C49.504 73.7712 49.2315 76.6865 49.2315 76.6865" fill="#8B2A0C"/>
<path d="M42.541 75.3843C42.843 74.6117 43.3607 73.8908 44.0868 73.38C44.7996 72.8633 45.7668 72.5925 46.6759 72.7408C47.1244 72.8075 47.5759 72.9489 47.9796 73.1899C48.3701 73.4487 48.7057 73.7892 48.9203 74.1865C49.3657 74.9781 49.4074 75.8811 49.2315 76.6866C49.1328 75.8702 48.8898 75.0806 48.4474 74.4753C48.006 73.8649 47.3328 73.5234 46.5752 73.4318C45.8298 73.3004 45.0701 73.4786 44.3847 73.838C43.7024 74.2104 43.079 74.7491 42.541 75.3843Z" fill="#8B2A0C"/>
</g>
<path d="M27.8701 67.3069C27.6067 71.5543 30.9351 75.2014 35.3039 75.4513C39.6727 75.7012 43.4272 72.4614 43.6896 68.2139C43.9529 63.9665 40.6245 60.3195 36.2558 60.0695C31.888 59.8186 28.1335 63.0595 27.8701 67.3069Z" fill="white"/>
<path d="M31.7186 65.8523C31.1267 69.0732 33.0894 72.1478 36.1036 72.7203C39.1178 73.2928 42.0405 71.1452 42.6334 67.9252C43.2263 64.7053 41.2625 61.6298 38.2483 61.0573C35.2341 60.4848 32.3104 62.6314 31.7186 65.8523Z" fill="#280707" stroke="#280707" stroke-width="0.8912" stroke-miterlimit="10"/>
<path d="M43.8738 66.6428C43.4589 65.7945 42.9952 64.9771 42.4338 64.2423C41.8908 63.4995 41.2989 62.8026 40.6084 62.234C39.9057 61.6835 39.1501 61.2394 38.3498 60.9248C37.5301 60.6609 36.6851 60.4877 35.8095 60.5096C34.0299 60.5046 32.2807 60.9935 30.9017 62.031C29.4699 63.0306 28.5241 64.6754 27.9648 66.3899L27.8713 66.6776L27.6506 66.595C27.1279 66.3998 26.6093 66.1918 26.0957 65.9648L26.1191 65.8831L27.7299 66.3132L27.6689 66.3531C28.0075 64.4962 28.9269 62.702 30.4218 61.4754C31.9055 60.2447 33.8804 59.6483 35.8095 59.6762C36.7817 59.6722 37.7467 59.8634 38.6508 60.2099C39.5396 60.5922 40.3542 61.1259 41.0559 61.781C42.4267 63.1232 43.3958 64.8168 43.9582 66.6239L43.8738 66.6428Z" fill="black"/>
<path d="M27.944 65.2407L26.4531 64.0588L28.3334 64.4263L27.944 65.2407Z" fill="black"/>
<path d="M28.689 63.5173L27.4453 62.1663L29.1985 62.7686L28.689 63.5173Z" fill="black"/>
<path d="M41.4717 73.4839C40.5036 74.2585 39.3657 74.838 38.1535 75.2123C36.9423 75.5907 35.6325 75.7321 34.344 75.5688C33.6952 75.5021 33.0759 75.291 32.4617 75.0859C31.8881 74.7852 31.2881 74.5323 30.8061 74.1032C30.2692 73.7497 29.8695 73.2519 29.4465 72.7939C29.059 72.306 28.7468 71.7634 28.4336 71.2427C29.2939 72.1308 30.136 73.002 31.1651 73.6054C32.1556 74.2515 33.2813 74.6647 34.4498 74.7951C35.6142 74.9564 36.8152 74.8658 37.9938 74.6249C39.1694 74.366 40.3429 73.9996 41.4717 73.4839Z" fill="black"/>
<path d="M70.7544 74.8299C69.6357 79.2256 64.9324 81.9159 60.2484 80.8396C55.5644 79.7623 52.6732 75.3257 53.7908 70.9299C54.9095 66.5341 59.6128 63.8439 64.2978 64.9202C68.9819 65.9965 71.872 70.4331 70.7544 74.8299Z" fill="white"/>
<path d="M70.7337 72.8237C70.3076 76.2199 67.3005 78.705 64.0158 78.3754C60.7311 78.0459 58.4135 75.0251 58.8396 71.6289C59.2657 68.2328 62.2728 65.7476 65.5575 66.0772C68.8422 66.4077 71.1598 69.4275 70.7337 72.8237Z" fill="#280707" stroke="#280707" stroke-width="0.945" stroke-miterlimit="10"/>
<path d="M54.1348 69.5499C55.0703 67.7319 56.551 66.1667 58.4354 65.0964C59.3791 64.5587 60.452 64.2222 61.5615 64.0838C62.672 63.9902 63.8119 64.0499 64.8807 64.3536C66.9888 64.8972 68.9526 66.2045 70.1953 68.0345C70.8136 68.9525 71.1359 70.0179 71.3108 71.0583C71.4898 72.1097 71.4481 73.1601 71.1888 74.1926L70.9325 73.8859C71.5295 73.9576 72.1264 74.0433 72.7223 74.1498L72.7203 74.2394L70.9244 74.1986L70.8675 74.1976L70.8746 74.1388C71.1146 72.1804 70.6966 70.1005 69.5454 68.4666C68.3922 66.8288 66.5729 65.7306 64.6316 65.1959C63.6655 64.8962 62.6445 64.8235 61.6377 64.8823C60.634 64.9948 59.6516 65.2686 58.7364 65.6977C56.9273 66.5938 55.3764 67.9778 54.212 69.5987L54.1348 69.5499Z" fill="black"/>
<path d="M70.918 72.0232L72.9681 72.2263L71.0522 72.9681L70.918 72.0232Z" fill="black"/>
<path d="M70.5625 70.1075L72.5537 70.0378L70.834 71.0235L70.5625 70.1075Z" fill="black"/>
<path d="M54.4902 77.1519C54.9977 77.576 55.5051 77.9862 56.0563 78.3367C56.5831 78.714 57.1393 79.0486 57.7109 79.3423C58.8539 79.9257 60.057 80.3768 61.3037 80.559C62.5454 80.777 63.8278 80.6964 65.0552 80.3578C66.3111 80.0771 67.446 79.4339 68.6226 78.8136C68.1284 79.2427 67.6301 79.6957 67.0728 80.0671C66.4871 80.3937 65.9115 80.7621 65.2535 80.9642C64.625 81.2559 63.9294 81.3236 63.2481 81.4531C62.5566 81.474 61.8569 81.5018 61.1725 81.3754C59.8048 81.1544 58.5021 80.6347 57.3773 79.8849C56.2546 79.1402 55.2438 78.2371 54.4902 77.1519Z" fill="black"/>
<path opacity="0.49" d="M50.1916 79.5602C49.9679 80.9442 48.5126 83.4263 45.2747 82.9952C43.0354 82.6975 41.5802 80.1686 41.8039 78.7846C41.8039 78.7846 43.9598 78.3425 46.2275 78.4779C47.8038 78.5725 50.1916 79.5602 50.1916 79.5602Z" fill="#8B2A0C"/>
<path d="M40.3496 77.5281C41.1855 78.231 42.0662 78.8364 42.9865 79.3262C43.9119 79.8041 44.8912 80.1496 45.8939 80.2432C46.8905 80.3507 47.9207 80.2432 48.8868 79.8718C49.3943 79.7454 49.8366 79.4536 50.3288 79.2465C50.7986 78.9976 51.2359 78.688 51.7312 78.4301C51.3742 78.8353 51.003 79.2475 50.5851 79.612C50.1275 79.9216 49.7065 80.3149 49.1695 80.52C48.1658 81.0666 46.9526 81.2538 45.7953 81.1413C44.6319 81.0138 43.5296 80.5698 42.6092 79.9236C41.6889 79.2774 40.8947 78.4739 40.3496 77.5281Z" fill="#3B130E"/>
<path d="M30.4913 57.7385C30.7028 56.719 31.2896 55.7831 32.0797 55.0622C32.8577 54.3185 33.8421 53.7977 34.8702 53.4582C35.9146 53.1665 36.9966 53.051 38.0502 53.1555C38.5759 53.1884 39.0884 53.3288 39.5939 53.4353C40.0871 53.6255 40.5772 53.7788 41.0389 54.0188L41.0491 54.0237C41.0715 54.0357 41.0796 54.0626 41.0684 54.0835C41.0593 54.1004 41.0399 54.1094 41.0216 54.1064L39.5471 53.9082C39.0518 53.8963 38.5566 53.8425 38.0624 53.8644C37.0729 53.8893 36.0885 54.0357 35.1468 54.3195C33.2787 54.89 31.5428 56.0817 30.5757 57.7773C30.5635 57.7992 30.535 57.8072 30.5136 57.7943C30.4953 57.7843 30.4872 57.7644 30.4913 57.7465V57.7385Z" fill="#2E2E2E"/>
<path d="M72.2091 63.5352C71.6427 62.6999 70.9797 62.0209 70.3136 61.4035C69.6292 60.8012 68.9051 60.2795 68.116 59.8454C67.7173 59.6333 67.3207 59.4162 66.8896 59.2529C66.4818 59.0339 66.0282 58.9234 65.593 58.7342L62.7801 57.8043L62.7649 57.7993C62.7415 57.7913 62.7293 57.7664 62.7364 57.7435C62.7435 57.7246 62.7618 57.7127 62.7811 57.7137L64.276 57.8003C64.7682 57.8829 65.2686 57.9257 65.7547 58.0422C66.7319 58.2573 67.6817 58.5918 68.5685 59.0598C70.2963 60.0485 71.7322 61.6116 72.2976 63.5153C72.3047 63.5382 72.2905 63.5621 72.2671 63.5691C72.2478 63.5741 72.2285 63.5671 72.2183 63.5511L72.2091 63.5352Z" fill="#2E2E2E"/>
</g>
<path d="M19.8622 153.149C19.8622 153.149 26.4784 109.848 41.9196 122.16L42.5023 153.149L35.4051 151.421L30.9692 161.197L15.0918 158.748C15.0918 158.748 16.7453 156.924 19.8622 153.149Z" fill="#9E332D" stroke="#9E332D" stroke-width="0.7319" stroke-miterlimit="10"/>
<path opacity="0.49" d="M40.8965 124.878C40.5365 126.243 38.2789 126.857 35.8525 126.251C33.4261 125.645 31.7512 124.046 32.1112 122.681C32.4712 121.316 34.7288 120.701 37.1552 121.308C39.5806 121.914 41.2555 123.513 40.8965 124.878Z" fill="#8B2A0C" stroke="#8B2A0C" stroke-width="0.4387" stroke-miterlimit="10"/>
<path d="M21.1549 146.49C20.2803 150.402 19.8603 153.148 19.8603 153.148C16.7434 156.923 15.0898 158.746 15.0898 158.746L30.9673 161.195L35.1011 152.085C30.5209 150.063 25.8674 148.201 21.1549 146.49Z" fill="white" stroke="white" stroke-width="0.7319" stroke-miterlimit="10"/>
<path d="M26.2853 154.23C25.0762 153.934 23.8691 153.63 22.6752 153.279C21.7935 153.019 20.9077 152.546 19.9935 152.341C19.905 152.859 19.8603 153.148 19.8603 153.148C16.7434 156.923 15.0898 158.746 15.0898 158.746L30.9673 161.195L33.2788 156.101C30.949 155.47 28.6334 154.804 26.2853 154.23Z" fill="black" stroke="black" stroke-width="0.7319" stroke-miterlimit="10"/>
<path d="M38.5425 127.936C37.1696 135.783 36.3194 143.741 36.5381 151.696L42.5014 153.148L41.9187 122.159C41.2322 121.611 40.5631 121.177 39.9092 120.839C39.4241 123.2 38.9574 125.563 38.5425 127.936Z" fill="#7A5FFF" stroke="#7A5FFF" stroke-width="0.6888" stroke-miterlimit="10"/>
<path d="M46.3392 104.456C46.3392 104.456 41.0674 103.143 41.3115 125.232C41.5556 147.323 41.3034 154.845 41.3034 154.845C41.3034 154.845 34.7258 157.233 36.0671 157.591C37.4085 157.949 48.9945 156.517 48.9945 156.517C48.9945 156.517 52.9524 116.636 46.3392 104.456Z" fill="#B44A24" stroke="#B44A24" stroke-width="0.7324" stroke-miterlimit="10"/>
<path d="M49.5946 121.263C49.676 121.246 49.7563 121.223 49.8387 121.205C49.3689 114.337 48.3377 108.133 46.3405 104.456C46.3405 104.456 41.7276 103.31 41.332 121.25C44.0096 121.943 46.8886 121.827 49.5946 121.263Z" fill="white" stroke="white" stroke-width="0.7324" stroke-miterlimit="10"/>
<mask id="mask4_1432_14855" style="mask-type:luminance" maskUnits="userSpaceOnUse" x="46" y="101" width="40" height="58">
<path d="M49.8571 103.534C49.8571 103.534 51.1699 108.785 56.6553 108.527C62.1406 108.268 62.7569 101.805 62.7569 101.805C62.7569 101.805 67.2772 100.172 71.1487 105.192C75.0201 110.211 77.17 125.476 77.17 125.476C77.17 125.476 98.246 151.48 73.2985 158.323C73.2985 158.323 59.7498 160.744 52.0079 155.375L46.2012 104.441C46.2012 104.441 47.1612 103.534 49.8571 103.534Z" fill="white"/>
</mask>
<g mask="url(#mask4_1432_14855)">
<path d="M49.8571 103.534C49.8571 103.534 51.1699 108.785 56.6553 108.527C62.1406 108.268 62.7569 101.805 62.7569 101.805C62.7569 101.805 67.2772 100.172 71.1487 105.192C75.0201 110.211 77.17 125.476 77.17 125.476C77.17 125.476 98.246 151.48 73.2985 158.323C73.2985 158.323 59.7498 160.744 52.0079 155.375L46.2012 104.441C46.2012 104.441 47.1612 103.534 49.8571 103.534Z" fill="#7A5FFF" stroke="#7A5FFF" stroke-width="0.6888" stroke-miterlimit="10"/>
</g>
<mask id="mask5_1432_14855" style="mask-type:luminance" maskUnits="userSpaceOnUse" x="46" y="101" width="40" height="58">
<path d="M49.8571 103.534C49.8571 103.534 51.1699 108.785 56.6553 108.527C62.1406 108.268 62.7569 101.805 62.7569 101.805C62.7569 101.805 67.2772 100.172 71.1487 105.192C75.0201 110.211 77.17 125.476 77.17 125.476C77.17 125.476 98.246 151.48 73.2985 158.323C73.2985 158.323 59.7498 160.744 52.0079 155.375L46.2012 104.441C46.2012 104.441 47.1612 103.534 49.8571 103.534Z" fill="white"/>
</mask>
<g mask="url(#mask5_1432_14855)">
<path d="M52.5055 127.524L49.3632 119.259C49.3358 119.186 49.2554 119.134 49.1842 119.143L42.4552 119.958C42.3189 119.975 42.205 119.794 42.3016 119.715L48.1439 114.919C48.1714 114.897 48.1836 114.861 48.1775 114.821L47.2032 108.252C47.1839 108.122 47.3476 108.086 47.4422 108.197L51.8303 113.402C51.8781 113.459 51.9544 113.483 52.0113 113.459L58.1129 110.859C58.2279 110.811 58.3763 110.957 58.3214 111.065L55.3875 116.802C55.3611 116.853 55.3824 116.924 55.4363 116.972L61.06 121.885C61.1729 121.984 61.116 122.137 60.9787 122.103L53.8611 120.397C53.7899 120.38 53.7289 120.415 53.7208 120.479L52.773 127.553C52.7567 127.684 52.5584 127.662 52.5055 127.524Z" fill="#FFD44D"/>
</g>
<mask id="mask6_1432_14855" style="mask-type:luminance" maskUnits="userSpaceOnUse" x="46" y="101" width="40" height="58">
<path d="M49.8571 103.534C49.8571 103.534 51.1699 108.785 56.6553 108.527C62.1406 108.268 62.7569 101.805 62.7569 101.805C62.7569 101.805 67.2772 100.172 71.1487 105.192C75.0201 110.211 77.17 125.476 77.17 125.476C77.17 125.476 98.246 151.48 73.2985 158.323C73.2985 158.323 59.7498 160.744 52.0079 155.375L46.2012 104.441C46.2012 104.441 47.1612 103.534 49.8571 103.534Z" fill="white"/>
</mask>
<g mask="url(#mask6_1432_14855)">
<path d="M76.4267 143.23L76.9942 134.446C76.9992 134.369 76.9474 134.289 76.8783 134.268L70.3841 132.267C70.2519 132.226 70.2234 132.016 70.3444 131.984L77.6847 130.01C77.7193 130.001 77.7447 129.973 77.7558 129.935L79.6006 123.574C79.6372 123.448 79.8019 123.481 79.8416 123.621L81.6883 130.134C81.7087 130.205 81.7687 130.258 81.8297 130.259L88.4937 130.385C88.6198 130.388 88.6951 130.581 88.5995 130.656L83.527 134.67C83.4822 134.706 83.4711 134.778 83.5016 134.843L86.6002 141.595C86.6622 141.731 86.5473 141.846 86.4344 141.76L80.6348 137.313C80.5769 137.268 80.5067 137.276 80.4721 137.331L76.6606 143.367C76.5904 143.478 76.4176 143.376 76.4267 143.23Z" fill="#FFD44D"/>
</g>
<mask id="mask7_1432_14855" style="mask-type:luminance" maskUnits="userSpaceOnUse" x="46" y="101" width="40" height="58">
<path d="M49.8571 103.534C49.8571 103.534 51.1699 108.785 56.6553 108.527C62.1406 108.268 62.7569 101.805 62.7569 101.805C62.7569 101.805 67.2772 100.172 71.1487 105.192C75.0201 110.211 77.17 125.476 77.17 125.476C77.17 125.476 98.246 151.48 73.2985 158.323C73.2985 158.323 59.7498 160.744 52.0079 155.375L46.2012 104.441C46.2012 104.441 47.1612 103.534 49.8571 103.534Z" fill="white"/>
</mask>
<g mask="url(#mask7_1432_14855)">
<path d="M52.2917 159.88L47.8487 152.212C47.81 152.145 47.7226 152.107 47.6524 152.127L41.1531 154.005C41.0209 154.042 40.8796 153.883 40.962 153.789L45.9378 148.118C45.9612 148.091 45.9673 148.055 45.9551 148.017L43.9253 141.679C43.8857 141.555 44.0402 141.492 44.1511 141.588L49.3242 146.032C49.3812 146.081 49.4605 146.092 49.5114 146.06L55.1015 142.519C55.2072 142.452 55.377 142.573 55.3404 142.688L53.3838 148.826C53.3666 148.881 53.3981 148.947 53.4591 148.986L59.8028 152.945C59.9309 153.025 59.8994 153.184 59.758 153.174L52.4656 152.623C52.3923 152.617 52.3384 152.661 52.3405 152.726L52.5591 159.868C52.5662 159.998 52.3659 160.008 52.2917 159.88Z" fill="#FFD44D"/>
</g>
<mask id="mask8_1432_14855" style="mask-type:luminance" maskUnits="userSpaceOnUse" x="46" y="101" width="40" height="58">
<path d="M49.8571 103.534C49.8571 103.534 51.1699 108.785 56.6553 108.527C62.1406 108.268 62.7569 101.805 62.7569 101.805C62.7569 101.805 67.2772 100.172 71.1487 105.192C75.0201 110.211 77.17 125.476 77.17 125.476C77.17 125.476 98.246 151.48 73.2985 158.323C73.2985 158.323 59.7498 160.744 52.0079 155.375L46.2012 104.441C46.2012 104.441 47.1612 103.534 49.8571 103.534Z" fill="white"/>
</mask>
<g mask="url(#mask8_1432_14855)">
<path d="M66.0247 112.097L66.2312 108.906C66.2332 108.878 66.2139 108.849 66.1885 108.841L63.8292 108.114C63.7814 108.1 63.7712 108.024 63.8149 108.012L66.4813 107.295C66.4935 107.292 66.5027 107.282 66.5068 107.268L67.1769 104.957C67.1901 104.911 67.2501 104.923 67.2644 104.974L67.9355 107.34C67.9427 107.366 67.9651 107.385 67.9874 107.386L70.4077 107.431C70.4535 107.432 70.481 107.502 70.4464 107.53L68.6037 108.989C68.5874 109.002 68.5833 109.027 68.5945 109.051L69.7203 111.504C69.7426 111.553 69.701 111.595 69.6603 111.563L67.5532 109.947C67.5318 109.932 67.5064 109.935 67.4942 109.953L66.1091 112.146C66.0837 112.188 66.0217 112.151 66.0247 112.097Z" fill="#FFD44D"/>
</g>
<mask id="mask9_1432_14855" style="mask-type:luminance" maskUnits="userSpaceOnUse" x="46" y="101" width="40" height="58">
<path d="M49.8571 103.534C49.8571 103.534 51.1699 108.785 56.6553 108.527C62.1406 108.268 62.7569 101.805 62.7569 101.805C62.7569 101.805 67.2772 100.172 71.1487 105.192C75.0201 110.211 77.17 125.476 77.17 125.476C77.17 125.476 98.246 151.48 73.2985 158.323C73.2985 158.323 59.7498 160.744 52.0079 155.375L46.2012 104.441C46.2012 104.441 47.1612 103.534 49.8571 103.534Z" fill="white"/>
</mask>
<g mask="url(#mask9_1432_14855)">
<path d="M61.5563 137.753L60.8211 134.631C60.815 134.603 60.7886 134.581 60.7621 134.581L58.2971 134.558C58.2472 134.557 58.2147 134.487 58.2534 134.463L60.5903 133.013C60.6015 133.006 60.6076 132.994 60.6076 132.98L60.573 130.571C60.5719 130.523 60.633 130.518 60.6614 130.562L61.9926 132.641C62.0069 132.664 62.0333 132.676 62.0546 132.67L64.3794 132.022C64.4231 132.01 64.4699 132.069 64.4444 132.105L63.1102 134.031C63.098 134.048 63.1021 134.075 63.1194 134.094L64.9102 136.126C64.9458 136.167 64.9183 136.218 64.8706 136.2L62.3872 135.252C62.3618 135.242 62.3384 135.252 62.3323 135.274L61.6499 137.775C61.6387 137.822 61.5686 137.805 61.5563 137.753Z" fill="#FFD44D"/>
</g>
<mask id="mask10_1432_14855" style="mask-type:luminance" maskUnits="userSpaceOnUse" x="46" y="101" width="40" height="58">
<path d="M49.8571 103.534C49.8571 103.534 51.1699 108.785 56.6553 108.527C62.1406 108.268 62.7569 101.805 62.7569 101.805C62.7569 101.805 67.2772 100.172 71.1487 105.192C75.0201 110.211 77.17 125.476 77.17 125.476C77.17 125.476 98.246 151.48 73.2985 158.323C73.2985 158.323 59.7498 160.744 52.0079 155.375L46.2012 104.441C46.2012 104.441 47.1612 103.534 49.8571 103.534Z" fill="white"/>
</mask>
<g mask="url(#mask10_1432_14855)">
<path d="M71.6018 159.756L71.8083 156.564C71.8103 156.537 71.791 156.508 71.7666 156.5L69.4073 155.773C69.3595 155.758 69.3493 155.682 69.393 155.67L72.0595 154.953C72.0717 154.951 72.0818 154.941 72.0859 154.927L72.7561 152.616C72.7693 152.57 72.8293 152.582 72.8435 152.633L73.5147 154.998C73.5218 155.024 73.5442 155.043 73.5655 155.044L75.9858 155.09C76.0316 155.091 76.0591 155.161 76.0245 155.188L74.1818 156.647C74.1655 156.66 74.1614 156.686 74.1726 156.71L75.2984 159.162C75.3208 159.212 75.2791 159.254 75.2384 159.222L73.1313 157.606C73.1099 157.59 73.0845 157.592 73.0723 157.612L71.6883 159.804C71.6608 159.845 71.5978 159.809 71.6018 159.756Z" fill="#FFD44D"/>
</g>
<path d="M54.8145 124.878C54.8145 124.878 56.2127 109.952 62.7578 101.805C62.7578 101.805 68.5818 99.9888 72.2356 106.913C72.7543 107.896 72.7075 109.08 72.079 110.001L61.3147 125.787L54.8145 124.878Z" fill="#9E332D" stroke="#9E332D" stroke-width="0.7319" stroke-miterlimit="10"/>
<path d="M63.4509 115.874C64.8716 116.182 66.3939 116.219 67.8736 116.167L72.0786 110.001C72.7071 109.08 72.7538 107.897 72.2352 106.913C68.5814 99.9888 62.7573 101.805 62.7573 101.805C60.2608 104.912 58.5157 109.004 57.3086 112.879C59.1767 114.201 61.1211 115.371 63.4509 115.874Z" fill="white" stroke="white" stroke-width="0.7324" stroke-miterlimit="10"/>
<path d="M41.4761 156.121C41.4761 156.121 46.2202 113.236 62.2776 117.359C62.2776 117.359 68.2277 119.338 74.9659 134.347C74.9659 134.347 73.7863 147.541 54.496 156.764L48.9598 163.131L41.3145 162.676L41.4761 156.121Z" fill="#CD5428" stroke="#CD5428" stroke-width="0.9305" stroke-miterlimit="10"/>
<path d="M57.3443 150.509C57.2802 150.518 57.21 150.514 57.1328 150.486C52.4935 148.856 47.061 149.357 42.2346 148.833C41.476 153.059 41.0723 155.982 41.0723 155.982L41.3112 162.676L48.9566 163.131L54.4928 156.764C54.7043 156.663 54.9006 156.559 55.108 156.457C55.3836 155.632 55.6602 154.807 56.004 154.003C56.4952 152.856 57.0677 151.743 57.4795 150.565C57.4348 150.547 57.3901 150.527 57.3443 150.509Z" fill="white"/>
<path d="M54.6973 157.233C55.5474 155.082 56.42 152.939 57.32 150.81L60.0575 144.434L62.8938 138.101C63.8517 135.995 64.8372 133.902 65.846 131.817C64.9958 133.968 64.1243 136.11 63.2233 138.24L60.4857 144.614L57.6484 150.947C56.6915 153.053 55.7051 155.148 54.6973 157.233Z" fill="#8B2A0C"/>
<path d="M41.5758 155.965C41.5453 155.965 41.5239 155.954 41.4965 155.949C41.4843 156.058 41.4772 156.12 41.4772 156.12L41.3145 162.677L51.7126 163.5L54.3414 156.943C50.2879 155.707 45.731 155.963 41.5758 155.965Z" fill="black" stroke="black" stroke-width="0.9305" stroke-miterlimit="10"/>
<path d="M41.314 159.964C41.314 159.964 36.6646 163.204 36.9737 163.132C37.2819 163.059 48.9594 163.132 48.9594 163.132" fill="black"/>
<path d="M41.314 159.964C41.314 159.964 36.6646 163.204 36.9737 163.132C37.2819 163.059 48.9594 163.132 48.9594 163.132" stroke="black" stroke-width="0.9305" stroke-miterlimit="10"/>
<path opacity="0.49" d="M62.667 122.711C62.5998 124.119 60.5182 125.172 58.0165 125.063C55.5148 124.955 53.542 123.725 53.6091 122.317C53.6762 120.91 55.7589 119.856 58.2595 119.965C60.7612 120.072 62.7341 121.302 62.667 122.711Z" fill="#8B2A0C" stroke="#8B2A0C" stroke-width="0.4387" stroke-miterlimit="10"/>
</svg>
