<svg width="31" height="31" viewBox="0 0 31 31" fill="none" xmlns="http://www.w3.org/2000/svg">
<g id="frame">
<g clip-path="url(#clip0_1432_15070)">
<path id="vector" d="M15.334 0.421143C19.3122 0.421143 23.1275 2.0015 25.9406 4.81454C28.7536 7.62759 30.334 11.4429 30.334 15.4211C30.334 19.3994 28.7536 23.2147 25.9406 26.0277C23.1275 28.8408 19.3122 30.4211 15.334 30.4211C11.3557 30.4211 7.54043 28.8408 4.72738 26.0277C1.91434 23.2147 0.333984 19.3994 0.333984 15.4211C0.333984 11.4429 1.91434 7.62759 4.72738 4.81454C7.54043 2.0015 11.3557 0.421143 15.334 0.421143ZM13.9277 7.45239V15.4211C13.9277 15.8899 14.1621 16.3293 14.5547 16.593L20.1797 20.343C20.8242 20.7766 21.6973 20.6008 22.1309 19.9504C22.5645 19.3 22.3887 18.4329 21.7383 17.9993L16.7402 14.6711V7.45239C16.7402 6.6731 16.1133 6.04614 15.334 6.04614C14.5547 6.04614 13.9277 6.6731 13.9277 7.45239Z" fill="#7A5FFF"/>
</g>
</g>
<defs>
<clipPath id="clip0_1432_15070">
<path d="M0.333984 0.421143H30.334V30.4211H0.333984V0.421143Z" fill="white"/>
</clipPath>
</defs>
</svg>
