<svg width="35" height="31" viewBox="0 0 35 31" fill="none" xmlns="http://www.w3.org/2000/svg">
<g id="frame">
<g clip-path="url(#clip0_1432_15054)">
<path id="vector" d="M19.2338 1.47583C18.9232 0.831299 18.267 0.421143 17.5463 0.421143C16.8256 0.421143 16.1752 0.831299 15.8588 1.47583L12.0912 9.22778L3.67714 10.47C2.97401 10.5754 2.38807 11.0676 2.17128 11.7415C1.95448 12.4153 2.13026 13.1594 2.63417 13.6575L8.73964 19.6985L7.29823 28.2356C7.18104 28.9387 7.47401 29.6536 8.05409 30.0696C8.63417 30.4856 9.40174 30.5383 10.0346 30.2043L17.5521 26.1907L25.0697 30.2043C25.7025 30.5383 26.4701 30.4915 27.0502 30.0696C27.6303 29.6477 27.9232 28.9387 27.806 28.2356L26.3588 19.6985L32.4642 13.6575C32.9682 13.1594 33.1498 12.4153 32.9271 11.7415C32.7045 11.0676 32.1244 10.5754 31.4213 10.47L23.0014 9.22778L19.2338 1.47583Z" fill="#FFD44D"/>
</g>
</g>
<defs>
<clipPath id="clip0_1432_15054">
<path d="M0.666016 0.421143H34.416V30.4211H0.666016V0.421143Z" fill="white"/>
</clipPath>
</defs>
</svg>
