<svg width="38" height="29" viewBox="0 0 38 29" fill="none" xmlns="http://www.w3.org/2000/svg">
<path d="M35.3683 17.9639C35.3683 17.9639 37.3532 17.2113 37.4161 15.2856C37.479 13.3599 34.7213 13.305 34.7213 13.305C36.1127 12.3945 35.7316 10.8446 35.7316 10.8446C35.735 8.00438 32.9494 7.89798 32.9494 7.89798C32.9494 7.89798 34.0088 6.88933 33.5073 5.57403C32.5325 3.01734 29.3367 3.69358 29.3367 3.69358C28.9878 2.37022 27.6965 1.32953 26.06 1.12547C26.0352 1.12233 26.0107 1.11943 25.9858 1.11651C24.3155 0.923206 22.6821 1.64604 21.9053 2.87308L21.7961 3.04556C21.7338 2.88272 21.6269 2.71562 21.4986 2.55412C20.8349 1.71906 19.7326 1.18617 18.5268 1.04349C15.661 0.704582 14.3232 2.4578 14.3232 2.4578C13.1425 1.31968 10.4531 1.75423 10.4531 1.75423C4.54221 2.89593 6.05801 7.69258 6.05801 7.69258C6.05801 7.69258 3.29776 6.30111 1.50414 9.54367C-0.289202 12.7865 3.2783 15.0049 3.2783 15.0049C2.73844 15.1805 2.24173 16.0357 2.24173 16.0357C0.971049 19.296 6.1068 20.194 6.1068 20.194C4.32729 23.4415 9.37363 23.3176 9.37363 23.3176C9.91518 25.0648 11.6496 23.6509 11.6496 23.6509C11.5802 25.8351 13.6076 24.8141 13.6076 24.8141C14.1179 26.1023 15.4873 24.7198 15.4873 24.7198L15.7719 24.6753C15.8224 25.2198 16.382 25.6615 17.0962 25.6844C17.7266 25.7047 18.2695 25.3911 18.4622 24.9465C18.8303 25.4259 19.5306 25.7625 20.3523 25.789C21.5753 25.8284 22.6034 25.1667 22.6764 24.3048C22.9015 24.5541 23.2628 24.7241 23.6828 24.7377C24.2526 24.7561 24.7462 24.4828 24.9419 24.0893C25.9241 25.7112 27.5995 24.3955 27.5995 24.3955C29.174 25.2567 29.7953 23.8581 29.7953 23.8581C29.7953 23.8581 31.2243 24.7449 32.7353 23.1131C33.5823 22.1983 32.7169 20.6955 32.7169 20.6955C32.7169 20.6955 34.4719 21.7375 35.7197 20.5136C37.0987 19.1605 35.3683 17.9639 35.3683 17.9639Z" fill="#1E1E2F" stroke="#F99D07" stroke-width="0.218194" stroke-miterlimit="10" stroke-linecap="round"/>
<path d="M17.6907 23.8163L17.7158 25.8543L16.1655 25.8825C16.1655 25.8825 15.5654 28.7128 19.1641 28.8991C22.248 29.0585 22.7199 25.7922 22.7199 25.7922L20.7958 25.7395V23.7139L17.6907 23.8163Z" fill="#FDFDFF" stroke="#FDFDFF" stroke-width="0.16168" stroke-miterlimit="10"/>
<path d="M30.7233 16.7961C29.9325 16.3698 28.8963 16.5207 28.0509 17.0968C28.1113 16.7311 28.1496 16.3586 28.1582 15.9788C28.1609 15.8596 28.1533 15.7428 28.151 15.6246C28.0136 15.6237 27.8762 15.6231 27.7388 15.6181C26.383 15.5687 25.5284 14.6395 24.3194 14.0832C23.3146 13.6207 22.949 13.5383 22.2199 12.7678C21.5337 12.0431 19.5597 10.4479 19.2123 9.1001C18.2811 10.4264 16.8024 11.9398 15.567 12.7304C13.6643 13.9478 11.9528 15.338 9.60432 15.5663C9.60366 15.5904 9.60134 15.6143 9.60068 15.6384C9.59474 15.8935 9.60333 16.1459 9.62149 16.396C9.11824 16.1035 8.54267 15.987 7.98295 16.1094C6.71492 16.3875 6.01123 17.7858 6.41079 19.2334C6.81036 20.6806 8.16226 21.6286 9.43029 21.3505C10.0914 21.2055 10.5969 20.7545 10.875 20.1522C12.4528 22.6251 15.3418 24.3077 18.682 24.3689C22.0479 24.4307 25.0334 22.831 26.7168 20.3861C26.8684 20.8192 27.1606 21.1837 27.5873 21.4138C28.7044 22.016 30.3122 21.4706 31.1781 20.1955C32.0442 18.9203 31.8408 17.3984 30.7233 16.7961Z" fill="#FDFDFF" stroke="#FDFDFF" stroke-width="0.204889" stroke-miterlimit="10"/>
<path d="M9.96758 17.6506C9.60864 17.2825 9.17836 16.9462 8.69129 16.8135C8.2095 16.6735 7.68644 16.9089 7.42359 17.2728C7.15942 17.6471 7.1647 18.1475 7.24659 18.6144C7.33575 19.0872 7.49326 19.5577 7.6937 20.0166C7.39453 19.6012 7.16008 19.1437 7.02502 18.6542C6.89524 18.174 6.84934 17.6129 7.17295 17.1331C7.33641 16.898 7.58474 16.7238 7.86509 16.6179C8.15073 16.5126 8.48656 16.5138 8.76559 16.61C9.32993 16.8062 9.70407 17.2219 9.96758 17.6506Z" fill="#6B7280"/>
<path d="M11.1346 20.4585C10.8791 20.1399 10.7252 19.7671 10.5941 19.3964C10.5327 19.209 10.4808 19.0195 10.4372 18.8286C10.3946 18.6373 10.3646 18.4443 10.3418 18.2507C10.4419 18.6297 10.5373 19.0077 10.6651 19.3776C10.7248 19.5635 10.7945 19.7468 10.8705 19.928C10.9491 20.1078 11.029 20.2885 11.1346 20.4585Z" fill="#6B7280"/>
<path d="M27.9531 18.0715C28.2741 17.6752 28.703 17.3036 29.2895 17.1712C29.5798 17.1065 29.9133 17.1421 30.1821 17.2783C30.4456 17.4145 30.6678 17.6143 30.7976 17.8658C31.0522 18.3778 30.9287 18.9294 30.7332 19.3916C30.5315 19.8624 30.2356 20.2907 29.8809 20.67C30.1434 20.2363 30.3654 19.787 30.5192 19.3278C30.6652 18.8735 30.7402 18.3772 30.5298 17.977C30.3195 17.5872 29.8334 17.2957 29.3357 17.3819C28.8338 17.4595 28.3603 17.7458 27.9531 18.0715Z" fill="#6B7280"/>
<path d="M26.5479 20.6089C26.6459 20.435 26.7179 20.2517 26.7886 20.0693C26.8566 19.8857 26.9184 19.7004 26.9699 19.5124C27.0818 19.1384 27.1604 18.7574 27.2439 18.3752C27.2298 18.5694 27.2083 18.7636 27.1736 18.956C27.1386 19.1484 27.095 19.3397 27.0415 19.5289C26.9269 19.9037 26.7892 20.2817 26.5479 20.6089Z" fill="#6B7280"/>
<path d="M28.8814 22.3447L28.3273 21.6241L27.7689 22.272L27.8785 21.2614L27.2422 20.9236L28.0311 20.8745L28.392 20.1401L28.6479 20.9036L29.4566 21.0287L28.8302 21.3529L28.8814 22.3447Z" fill="#6B7280"/>
<path d="M10.0143 22.2495L9.33638 21.619L8.90347 22.3389L8.82718 21.3259L8.1377 21.0847L8.9071 20.922L9.12933 20.1453L9.52131 20.8611L10.3419 20.8679L9.78317 21.2783L10.0143 22.2495Z" fill="#6B7280"/>
<path opacity="0.49" d="M16.4393 20.2447C16.3115 21.5122 15.0544 22.4472 13.6318 22.333C12.2092 22.2192 11.1598 21.0991 11.2879 19.8316C11.4161 18.5642 12.6729 17.6292 14.0954 17.7433C15.518 17.8572 16.5674 18.9772 16.4393 20.2447Z" fill="#6B7280" stroke="#6B7280" stroke-width="0.227669" stroke-miterlimit="10"/>
<path opacity="0.49" d="M26.5419 20.1331C26.4137 21.4006 25.1569 22.3356 23.7343 22.2215C22.3118 22.1076 21.2623 20.9875 21.3905 19.7201C21.5186 18.4526 22.7754 17.5176 24.198 17.6317C25.6202 17.7459 26.6697 18.8657 26.5419 20.1331Z" fill="#6B7280" stroke="#6B7280" stroke-width="0.227669" stroke-miterlimit="10"/>
<path d="M19.1064 9.072C19.0295 9.44918 18.8396 9.80164 18.6811 10.1553C18.5391 10.4719 18.4582 10.8052 18.6398 11.1265C18.802 11.4133 19.2141 11.6316 19.5674 11.4742C19.8332 11.356 19.9379 10.9985 19.7187 10.7987C19.4499 10.5542 18.9588 10.7605 18.73 10.9505C18.4137 11.213 18.3139 11.6364 18.4701 11.9935C18.5956 12.2801 18.9354 12.5425 19.2937 12.3966C19.5664 12.2854 19.6648 11.8988 19.33 11.7911C18.9473 11.6678 18.5817 12.0118 18.5097 12.3163C18.4103 12.7364 18.7435 13.1036 19.1048 13.3298C19.2227 13.4037 19.3346 13.231 19.2177 13.1577C18.9499 12.99 18.6824 12.7238 18.7204 12.4098C18.7382 12.2642 18.8254 12.1139 18.9661 12.0321C19.011 12.0059 19.1391 11.9409 19.1873 11.9703C19.2167 12.0374 19.2465 12.1042 19.2758 12.1709C19.225 12.2133 19.1652 12.236 19.0969 12.2386C18.6976 12.2592 18.5755 11.7343 18.6395 11.4757C18.7112 11.1871 19.0222 10.8979 19.3719 10.8946C19.5905 10.8926 19.6873 11.08 19.5532 11.2324C19.4079 11.3975 19.1154 11.3168 18.9714 11.1974C18.7349 11.0015 18.7145 10.6793 18.8069 10.421C18.9631 9.98347 19.229 9.58069 19.3221 9.12466C19.3478 8.99962 19.1322 8.94578 19.1064 9.072Z" fill="#1E1E2F"/>
<path d="M15.0715 11.3C14.7452 11.2641 14.4375 11.2768 14.1449 11.3024C13.852 11.3347 13.5713 11.3909 13.2992 11.4786C13.0268 11.5669 12.7639 11.6834 12.4988 11.8155C12.3657 11.8805 12.2392 11.9594 12.1002 12.0276C11.9622 12.0991 11.838 12.1862 11.6848 12.2547L11.6788 12.2574C11.6719 12.2606 11.6633 12.258 11.6597 12.2518C11.657 12.2468 11.658 12.2412 11.662 12.2374L11.9919 11.9258C12.1144 11.834 12.228 11.7316 12.3584 11.6481C12.614 11.4745 12.897 11.333 13.1978 11.2285C13.8061 11.0432 14.4949 11.0349 15.085 11.2762C15.0923 11.2791 15.0953 11.2868 15.092 11.293C15.0893 11.2983 15.0834 11.3009 15.0771 11.3003L15.0715 11.3Z" fill="#2E2E2E"/>
<path d="M22.2058 11.1649C22.4373 10.9419 22.7566 10.7942 23.0957 10.7307C23.4359 10.6595 23.7951 10.6748 24.1359 10.7436C24.4721 10.8283 24.7898 10.9607 25.0579 11.1476C25.1959 11.2349 25.3108 11.3485 25.4294 11.4515C25.5304 11.5736 25.6364 11.6865 25.7193 11.8163L25.721 11.8192C25.7249 11.8254 25.7226 11.8334 25.7154 11.8372C25.7097 11.8398 25.7031 11.8392 25.6985 11.8357L25.333 11.5621C25.2002 11.4841 25.0757 11.395 24.9367 11.3264C24.6636 11.182 24.3687 11.0725 24.0629 11.0013C23.4537 10.8654 22.7751 10.9087 22.2213 11.1876C22.2141 11.1911 22.2051 11.189 22.2012 11.1826C22.1979 11.1776 22.1989 11.1711 22.2032 11.1673L22.2058 11.1649Z" fill="#2E2E2E"/>
<path d="M17.4707 18.3285C17.5179 18.0266 17.6635 17.7306 17.9026 17.4908C18.1377 17.2505 18.495 17.0789 18.8662 17.0622C19.0488 17.0516 19.2393 17.0675 19.4196 17.1228C19.5963 17.1857 19.7588 17.2817 19.8783 17.4079C20.1213 17.6579 20.2237 17.9769 20.2217 18.2805C20.1068 17.9963 19.9473 17.7303 19.7175 17.5479C19.4896 17.3631 19.1941 17.2922 18.8877 17.3181C18.5822 17.3284 18.2989 17.4508 18.0605 17.6326C17.8227 17.8174 17.6302 18.0607 17.4707 18.3285Z" fill="#6B7280"/>
<g opacity="0.53">
<path d="M20.2432 18.3731C20.2432 18.3731 20.1389 17.3024 19.1079 17.2383C17.9073 17.1636 17.4922 18.3287 17.4922 18.3287" fill="#6B7280"/>
<path d="M20.2448 18.3724C20.1425 18.0843 19.9945 17.8131 19.7726 17.623C19.5524 17.4309 19.2605 17.35 18.953 17.3659C18.6476 17.3662 18.3593 17.4789 18.1136 17.6524C17.8683 17.8296 17.6655 18.0664 17.4941 18.3282C17.5539 18.0281 17.7118 17.7369 17.9611 17.5053C18.2064 17.2732 18.571 17.1137 18.9425 17.1096C19.1254 17.1055 19.3153 17.1273 19.4929 17.189C19.667 17.2576 19.8248 17.3594 19.9387 17.4894C20.1705 17.7475 20.2594 18.069 20.2448 18.3724Z" fill="#6B7280"/>
</g>
<path d="M25.9374 16.1628C25.8988 17.372 24.7315 18.3188 23.3307 18.2773C21.9296 18.2358 20.8253 17.222 20.8643 16.013C20.9029 14.8038 22.0702 13.857 23.471 13.8985C24.8721 13.94 25.9764 14.9536 25.9374 16.1628Z" fill="white"/>
<path d="M24.2149 17.4056C25.1811 17.2942 25.8586 16.4757 25.7281 15.5773C25.5977 14.679 24.7087 14.041 23.7425 14.1524C22.7764 14.2637 22.0989 15.0823 22.2294 15.9806C22.3598 16.879 23.2488 17.517 24.2149 17.4056Z" fill="#1E1E2F" stroke="#280707" stroke-width="0.191001" stroke-miterlimit="10"/>
<path d="M20.7861 15.6219C20.9427 15.0967 21.2782 14.6089 21.7626 14.2362C22.2447 13.8528 22.9335 13.6872 23.5798 13.731C24.2161 13.7687 24.8544 14.0084 25.3256 14.4139C25.5611 14.618 25.7225 14.8767 25.8414 15.1376C25.9616 15.4009 26.0197 15.6769 26.0121 15.9611L25.9207 15.8952C26.0973 15.884 26.2747 15.8761 26.4533 15.8738L26.4579 15.8973L25.9365 15.9776L25.9203 15.9803L25.9187 15.965C25.8606 15.4407 25.6017 14.9246 25.1674 14.5627C24.7322 14.2009 24.1461 14.0073 23.556 13.9637C23.2608 13.9384 22.9616 13.9584 22.6753 14.0276C22.392 14.1035 22.1215 14.2197 21.8831 14.3786C21.4119 14.7013 21.046 15.1441 20.8116 15.6298L20.7861 15.6219Z" fill="black"/>
<path d="M25.792 15.413L26.3933 15.3633L25.8848 15.6534L25.792 15.413Z" fill="black"/>
<path d="M25.5684 14.9357L26.1357 14.8184L25.6991 15.1617L25.5684 14.9357Z" fill="black"/>
<path d="M21.543 17.7269C21.897 17.8769 22.2652 17.9852 22.6343 18.0646C23.0048 18.1391 23.3826 18.1729 23.7521 18.1391C24.1233 18.1149 24.4829 18.0087 24.8062 17.8404C25.141 17.6836 25.4187 17.4456 25.703 17.2029C25.5957 17.347 25.4904 17.4994 25.359 17.6318C25.2199 17.7584 25.0832 17.8919 24.9092 17.9864C24.751 18.102 24.5572 18.1647 24.3733 18.2426C24.1774 18.2941 23.9806 18.345 23.7762 18.3586C23.3701 18.3912 22.9609 18.3427 22.5822 18.2297C22.2031 18.1182 21.8468 17.9499 21.543 17.7269Z" fill="black"/>
<path d="M11.3343 15.9261C11.189 17.0953 12.1925 18.1462 13.5755 18.2733C14.9588 18.4004 16.1977 17.5557 16.343 16.3865C16.4883 15.2173 15.4848 14.1664 14.1018 14.0393C12.7186 13.9122 11.4796 14.7569 11.3343 15.9261Z" fill="white"/>
<path d="M12.7964 15.6065C12.5616 16.4879 13.1401 17.3626 14.0885 17.5609C15.0369 17.7589 15.9962 17.2052 16.2313 16.3238C16.4661 15.4426 15.8876 14.5676 14.9392 14.3696C13.9905 14.1713 13.0312 14.725 12.7964 15.6065Z" fill="#1E1E2F" stroke="#280707" stroke-width="0.191001" stroke-miterlimit="10"/>
<path d="M16.417 15.9554C16.2972 15.7112 16.1598 15.4762 15.9907 15.2643C15.8273 15.0501 15.646 14.8512 15.4346 14.6865C15.219 14.5261 14.9862 14.397 14.7389 14.2987C14.4869 14.209 14.2181 14.1622 13.9447 14.1569C13.3896 14.1366 12.8266 14.2278 12.3752 14.502C11.9096 14.7574 11.5711 15.1969 11.369 15.6742L11.3353 15.7536L11.2683 15.7283C11.1052 15.6668 10.9434 15.6018 10.7832 15.5315L10.7911 15.5085L11.2964 15.6486L11.2769 15.6592C11.4133 15.1372 11.7488 14.6509 12.2414 14.3355C12.7355 14.0224 13.3569 13.8918 13.9572 13.9236C14.2591 13.9365 14.5582 13.996 14.8356 14.1034C15.1094 14.2169 15.3627 14.3696 15.576 14.5603C15.9963 14.9463 16.2879 15.4329 16.4438 15.9507L16.417 15.9554Z" fill="black"/>
<path d="M11.388 15.3627L10.9287 15.0132L11.5168 15.1359L11.388 15.3627Z" fill="black"/>
<path d="M11.648 14.896L11.2686 14.5027L11.8121 14.6883L11.648 14.896Z" fill="black"/>
<path d="M15.5616 17.8132C15.2407 18.0159 14.8715 18.1603 14.4841 18.2477C14.0968 18.336 13.685 18.3578 13.2825 18.2989C13.0797 18.2721 12.8876 18.2089 12.6964 18.1447C12.519 18.055 12.3308 17.98 12.1825 17.8544C12.0168 17.749 11.8913 17.6069 11.7632 17.4719C11.6426 17.3309 11.5502 17.1727 11.4551 17.0217C11.7186 17.2821 11.9765 17.5375 12.2975 17.7158C12.6062 17.9044 12.9562 18.0338 13.3244 18.0818C13.6903 18.1394 14.0697 18.13 14.4455 18.08C14.8203 18.0238 15.1964 17.94 15.5616 17.8132Z" fill="black"/>
<path opacity="0.49" d="M21.2799 18.7217C21.3849 18.9871 20.8929 20.2946 19.6542 20.5582C18.5199 20.7995 17.2985 20.1978 17.2334 19.6906C17.2334 19.6906 18.2881 18.8362 19.4188 18.7211C20.5494 18.6061 21.2799 18.7217 21.2799 18.7217Z" fill="#6B7280"/>
<path d="M16.5566 19.521C16.7954 19.574 17.0331 19.6204 17.2752 19.6425C17.5149 19.6743 17.756 19.6863 17.9964 19.6905C18.4765 19.6911 18.9547 19.6404 19.41 19.5201C19.8661 19.4048 20.3056 19.2297 20.6999 18.9876C21.1087 18.7605 21.4508 18.4536 21.8031 18.1467C21.6625 18.3244 21.5231 18.5089 21.3596 18.6748C21.1836 18.8299 21.0175 18.9979 20.8121 19.1268C20.4264 19.4133 19.9599 19.6081 19.4781 19.7346C18.9936 19.8567 18.4848 19.9032 17.9868 19.8611C17.4905 19.8193 16.9991 19.7158 16.5566 19.521Z" fill="#3B130E"/>
</svg>
