<svg width="165" height="282" viewBox="0 0 165 282" fill="none" xmlns="http://www.w3.org/2000/svg">
<path d="M9.48516 30.4409C11.2818 29.9908 13.5162 29.9231 13.6911 32.5275C13.7489 33.3947 13.6055 34.302 13.3375 35.1168C13.1463 35.7009 12.7827 36.419 12.1599 36.5253C11.4025 36.6551 11.1119 35.7865 11.3447 35.1361C11.9951 33.3174 14.607 33.1144 15.7846 34.3586C16.8955 35.531 16.5432 37.735 15.1391 38.402C15.3241 38.6657 15.509 38.9295 15.694 39.1919C16.6074 38.1106 18.141 38.5539 18.7852 39.7373C19.1098 40.3339 19.2079 41.0699 19.1638 41.7535C19.1198 42.4246 18.7889 43.0861 18.8934 43.7655C19.0506 44.7901 20.2232 45.366 20.8309 46.0412C21.7682 47.0838 22.4538 48.3405 22.8904 49.7214C23.0829 50.329 23.9686 50.068 23.7749 49.4535C23.2867 47.9096 22.5293 46.4969 21.48 45.3287C20.8623 44.641 19.7803 44.0928 19.8747 43.0239C19.9439 42.2382 20.1477 41.5905 20.0471 40.7758C19.8923 39.5247 19.2507 38.3454 18.1662 37.8358C17.1005 37.3345 15.8462 37.5347 15.0486 38.4793C14.6749 38.9212 15.1417 39.4901 15.6034 39.2692C17.2452 38.489 17.8164 36.0793 16.971 34.4042C16.0135 32.5054 13.6017 32.1077 11.9523 33.0757C11.1195 33.5646 10.3545 34.4594 10.3356 35.5504C10.3193 36.4991 10.8678 37.4022 11.7624 37.5306C14.0584 37.8579 14.7567 34.2371 14.5981 32.3936C14.4962 31.1963 14.0018 30.0764 12.9928 29.513C11.8353 28.8653 10.4464 29.1677 9.2436 29.4702C8.66613 29.6138 8.91021 30.5846 9.48516 30.4409Z" fill="#1A0000"/>
<path d="M155.919 30.0333C153.959 29.0694 151.42 28.4687 150.333 31.1021C149.616 32.8393 149.502 36.2295 151.347 37.1947C152.144 37.6118 153.067 37.3107 153.513 36.4711C153.996 35.5639 153.754 34.4702 153.207 33.6734C152 31.9155 149.451 31.3521 147.841 32.7786C146.26 34.1788 146.329 37.0553 147.995 38.3216C148.378 38.613 148.851 38.0468 148.621 37.6325C148.025 36.5623 146.91 36.0803 145.79 36.2778C144.547 36.4974 143.652 37.5925 143.269 38.8643C143.065 39.5409 143.028 40.2397 143.065 40.9453C143.124 42.0597 141.99 42.3014 141.277 42.8068C139.969 43.7348 138.906 44.9928 138.122 46.4663C137.824 47.0269 138.617 47.5337 138.913 46.9744C139.595 45.6929 140.501 44.5827 141.628 43.7541C142.395 43.1907 143.733 42.8731 143.965 41.7477C144.081 41.187 143.923 40.5932 143.976 40.0243C144.042 39.3034 144.279 38.5605 144.727 38.0192C145.549 37.0249 147.14 36.9034 147.828 38.1407C148.037 37.9114 148.246 37.6822 148.455 37.4516C147.194 36.4932 147.388 34.1733 148.681 33.3516C150.023 32.4996 152.787 33.2508 152.858 35.2891C152.879 35.8691 152.511 36.478 151.917 36.3593C151.347 36.2447 151.063 35.557 150.935 35.0184C150.735 34.1802 150.757 33.1735 150.926 32.3311C151.1 31.4612 151.5 30.6022 152.306 30.2888C153.352 29.8814 154.502 30.4365 155.453 30.9033C155.991 31.1643 156.458 30.297 155.919 30.0333Z" fill="#1A0000"/>
<path d="M155.017 104.63C155.017 104.63 163.654 99.5456 163.498 87.5412C163.341 75.5369 151.092 75.7481 151.092 75.7481C157.059 69.7991 155.018 60.2252 155.018 60.2252C154.39 42.5383 142.006 42.4334 142.006 42.4334C142.006 42.4334 146.478 35.9403 143.956 27.8508C139.051 12.1249 125.023 16.9761 125.023 16.9761C123.177 8.80513 117.211 2.58269 109.903 1.6409C109.793 1.62709 109.682 1.61328 109.573 1.60085C102.117 0.730872 95.0325 5.55996 91.862 13.3567L91.4166 14.4517C91.1021 13.4506 90.5913 12.4301 89.9849 11.451C86.8509 6.38437 81.8399 3.28558 76.4564 2.63931C63.6639 1.10234 58.1244 12.2878 58.1244 12.2878C52.6277 5.43706 40.7913 8.68223 40.7913 8.68223C14.8212 16.9747 22.6316 46.5416 22.6316 46.5416C22.6316 46.5416 10.0681 38.4287 2.84398 58.981C-4.38013 79.5332 11.9527 92.6327 11.9527 92.6327C9.59755 93.8341 7.58583 99.2597 7.58583 99.2597C2.68547 119.816 25.6775 124.379 25.6775 124.379C18.5163 144.959 40.8806 143.174 40.8806 143.174C43.6787 153.947 51.0563 144.794 51.0563 144.794C51.2425 158.409 60.0078 151.645 60.0078 151.645C62.563 159.565 68.3264 150.681 68.3264 150.681L69.5795 150.347C69.9268 153.729 72.5109 156.366 75.6839 156.366C78.4857 156.366 80.8233 154.305 81.5794 151.499C83.3219 154.41 86.5062 156.366 90.156 156.366C95.5923 156.366 100.005 152.041 100.133 146.659C101.188 148.165 102.83 149.152 104.696 149.152C107.229 149.152 109.356 147.352 110.136 144.863C114.862 154.767 121.998 146.237 121.998 146.237C129.179 151.285 131.62 142.451 131.62 142.451C131.62 142.451 138.162 147.686 144.498 137.223C148.049 131.357 143.87 122.172 143.87 122.172C143.87 122.172 151.893 128.31 157.153 120.438C162.967 111.735 155.017 104.63 155.017 104.63Z" fill="#1A0000" stroke="#1A0000" stroke-width="1.24679" stroke-miterlimit="10" stroke-linecap="round"/>
<path d="M43.9038 224.598C43.9038 224.598 56.0987 244.229 57.3996 256.543C58.7005 268.857 60.326 279.386 60.326 279.386C60.326 279.386 72.5209 281.528 76.0978 279.386L74.1464 273.318C74.1464 273.318 74.9592 234.412 67.9678 224.597H43.9038V224.598Z" fill="#B44A24" stroke="#B44A24" stroke-width="1.15533" stroke-miterlimit="10"/>
<path d="M73.8783 256.412C68.4294 256.68 63.0208 257.8 57.5845 258.257C58.8489 269.817 60.3259 279.388 60.3259 279.388C60.3259 279.388 72.5208 281.53 76.0977 279.388L74.1463 273.32C74.1463 273.32 74.3036 265.731 73.8783 256.412Z" fill="white" stroke="white" stroke-width="1.15533" stroke-miterlimit="10"/>
<path d="M74.1724 268.631C73.5156 268.584 72.8551 268.585 72.2072 268.604C70.4332 268.657 68.6668 268.876 66.9067 269.117C64.2911 269.473 61.6629 269.951 59.0259 270.169C59.7568 275.705 60.3255 279.388 60.3255 279.388C60.3255 279.388 72.5205 281.53 76.0973 279.388L74.1459 273.32C74.1459 273.32 74.1824 271.528 74.1724 268.631Z" fill="black" stroke="black" stroke-width="1.15533" stroke-miterlimit="10"/>
<path opacity="0.49" d="M70.1355 245.382C70.3217 247.376 67.974 249.274 64.8916 249.62C61.8105 249.967 59.1609 248.63 58.9747 246.636C58.7885 244.642 61.1362 242.745 64.2185 242.398C67.3009 242.053 69.9493 243.388 70.1355 245.382Z" fill="#8B2A0C" stroke="#8B2A0C" stroke-width="0.558981" stroke-miterlimit="10"/>
<path d="M73.0444 226.492L81.9116 243.96C81.9116 243.96 77.473 268.144 80.6434 276.89C80.6434 276.89 86.0898 282.006 95.5207 280.341L91.7816 275.463C91.7816 275.463 102.838 241.733 100.562 233.345C98.286 224.957 92.2697 219.604 92.2697 219.604L73.0444 226.492Z" fill="#B44A24" stroke="#B44A24" stroke-width="1.15533" stroke-miterlimit="10"/>
<path d="M97.1489 257.069C91.7013 256.182 86.2637 255.196 80.7557 254.903C80.5732 254.894 80.4411 254.81 80.3543 254.689C79.4762 262.304 78.8722 272.005 80.6437 276.889C80.6437 276.889 86.0901 282.005 95.5209 280.34L91.7818 275.463C91.7818 275.463 94.6377 266.744 97.1489 257.069Z" fill="white" stroke="white" stroke-width="1.15533" stroke-miterlimit="10"/>
<path d="M93.7425 269.17C93.4255 269.136 93.1097 269.095 92.7926 269.062C88.3766 268.599 83.9304 268.359 79.5044 268.023C79.5321 271.534 79.8491 274.697 80.6443 276.89C80.6443 276.89 86.0907 282.007 95.5215 280.341L91.7824 275.464C91.7824 275.464 92.5989 272.963 93.7425 269.17Z" fill="black" stroke="black" stroke-width="1.15533" stroke-miterlimit="10"/>
<path opacity="0.49" d="M101.101 235.236C101.287 237.23 98.9394 239.128 95.857 239.474C92.7758 239.821 90.1262 238.484 89.94 236.49C89.7538 234.496 92.1015 232.599 95.1839 232.252C98.2663 231.905 100.916 233.242 101.101 235.236Z" fill="#8B2A0C" stroke="#8B2A0C" stroke-width="0.558981" stroke-miterlimit="10"/>
<path d="M85.911 143.867L85.4354 151.54L88.0611 151.419C88.4423 151.401 88.7467 151.766 88.6977 152.182L86.7463 168.867L67.3047 166.252L69.9958 150.813L73.3487 150.282L72.9989 144.961L85.911 143.867Z" fill="#B44A24" stroke="#B44A24" stroke-width="1.33964" stroke-miterlimit="10"/>
<path d="M94.696 153.869C94.696 153.869 99.1511 157.912 98.127 166.23C97.1016 174.546 91.3331 180.511 92.2981 191.918C92.2981 191.918 87.8859 169.098 94.696 153.869Z" fill="#B44A24" stroke="#B44A24" stroke-width="1.19232" stroke-miterlimit="10"/>
<path d="M96.1958 173.383C97.0626 171.07 97.815 168.759 98.1257 166.229C99.1511 157.913 94.6948 153.868 94.6948 153.868C92.1874 159.475 91.2048 166.107 90.9595 172.254C92.6793 172.74 94.4319 173.106 96.1958 173.383Z" fill="white" stroke="white" stroke-width="1.19232" stroke-miterlimit="10"/>
<path d="M52.6641 190.489C52.6641 190.489 40.3547 182.874 58.8754 153.869C58.8754 153.869 63.2675 147.216 67.8332 149.199C72.3989 151.182 65.1459 186.248 52.6641 190.489Z" fill="#B44A24" stroke="#B44A24" stroke-width="1.15533" stroke-miterlimit="10"/>
<path d="M55.723 165.384C59.2847 166.84 62.9068 168.103 66.5214 169.389C69.4226 159.707 70.1485 150.203 67.8336 149.197C63.2679 147.214 58.8758 153.868 58.8758 153.868C56.4376 157.687 54.5454 161.126 53.0771 164.234C53.9566 164.626 54.8335 165.021 55.723 165.384Z" fill="white" stroke="white" stroke-width="1.15533" stroke-miterlimit="10"/>
<mask id="mask0_1432_22343" style="mask-type:luminance" maskUnits="userSpaceOnUse" x="40" y="149" width="59" height="81">
<path d="M72.4002 151.181C72.4002 151.181 74.1275 157.574 81.5227 156.485C87.3617 155.625 88.528 150.465 88.528 150.465C88.528 150.465 94.8274 151.777 95.1532 155.174C95.4791 158.571 90.4529 182.664 92.2985 189.595C94.1442 196.526 98.1274 222.652 98.1274 222.652C98.1274 222.652 75.3945 234.488 40.2251 226.384C40.2251 226.384 45.8602 202.925 55.0897 185.65C55.0897 185.65 68.622 161.175 67.8357 149.198C67.8345 149.198 70.5633 148.674 72.4002 151.181Z" fill="white"/>
</mask>
<g mask="url(#mask0_1432_22343)">
<path d="M72.4002 151.181C72.4002 151.181 74.1275 157.574 81.5227 156.485C87.3617 155.625 88.528 150.465 88.528 150.465C88.528 150.465 94.8274 151.777 95.1532 155.174C95.4791 158.571 90.4529 182.664 92.2985 189.595C94.1442 196.526 98.1274 222.652 98.1274 222.652C98.1274 222.652 75.3945 234.488 40.2251 226.384C40.2251 226.384 45.8602 202.925 55.0897 185.65C55.0897 185.65 68.622 161.175 67.8357 149.198C67.8357 149.198 70.5633 148.674 72.4002 151.181Z" fill="#7A5FFF" stroke="#7A5FFF" stroke-width="1.30429" stroke-miterlimit="10"/>
</g>
<mask id="mask1_1432_22343" style="mask-type:luminance" maskUnits="userSpaceOnUse" x="40" y="149" width="59" height="81">
<path d="M72.4002 151.181C72.4002 151.181 74.1275 157.574 81.5227 156.485C87.3617 155.625 88.528 150.465 88.528 150.465C88.528 150.465 94.8274 151.777 95.1532 155.174C95.4791 158.571 90.4529 182.664 92.2985 189.595C94.1442 196.526 98.1274 222.652 98.1274 222.652C98.1274 222.652 75.3945 234.488 40.2251 226.384C40.2251 226.384 45.8602 202.925 55.0897 185.65C55.0897 185.65 68.622 161.175 67.8357 149.198C67.8345 149.198 70.5633 148.674 72.4002 151.181Z" fill="white"/>
</mask>
<g mask="url(#mask1_1432_22343)">
<path d="M94.346 188.672C91.1101 189.383 87.8592 189.661 84.6019 189.834C81.3447 189.962 78.0824 189.981 74.8037 189.564C78.0396 188.85 81.2906 188.573 84.5478 188.403C87.8051 188.279 91.0674 188.258 94.346 188.672Z" fill="#7A5FFF"/>
</g>
<mask id="mask2_1432_22343" style="mask-type:luminance" maskUnits="userSpaceOnUse" x="40" y="149" width="59" height="81">
<path d="M72.4002 151.181C72.4002 151.181 74.1275 157.574 81.5227 156.485C87.3617 155.625 88.528 150.465 88.528 150.465C88.528 150.465 94.8274 151.777 95.1532 155.174C95.4791 158.571 90.4529 182.664 92.2985 189.595C94.1442 196.526 98.1274 222.652 98.1274 222.652C98.1274 222.652 75.3945 234.488 40.2251 226.384C40.2251 226.384 45.8602 202.925 55.0897 185.65C55.0897 185.65 68.622 161.175 67.8357 149.198C67.8345 149.198 70.5633 148.674 72.4002 151.181Z" fill="white"/>
</mask>
<g mask="url(#mask2_1432_22343)">
<path d="M63.8872 182.788L63.7526 171.097C63.7513 170.994 63.6821 170.896 63.5978 170.875L55.6717 168.949C55.5106 168.91 55.4565 168.635 55.5987 168.579L64.1665 165.148C64.2067 165.132 64.2357 165.093 64.2445 165.042L65.8561 156.415C65.8876 156.245 66.0876 156.27 66.148 156.451L68.9511 164.868C68.9813 164.959 69.058 165.023 69.131 165.019L77.0861 164.444C77.2358 164.433 77.344 164.68 77.2371 164.791L71.5617 170.669C71.5114 170.722 71.5051 170.818 71.5479 170.901L75.8657 179.495C75.9525 179.667 75.8254 179.833 75.6833 179.732L68.3585 174.489C68.2843 174.436 68.2025 174.454 68.166 174.53L64.1803 182.944C64.1048 183.098 63.8897 182.983 63.8872 182.788Z" fill="#FFD44D"/>
</g>
<mask id="mask3_1432_22343" style="mask-type:luminance" maskUnits="userSpaceOnUse" x="40" y="149" width="59" height="81">
<path d="M72.4002 151.181C72.4002 151.181 74.1275 157.574 81.5227 156.485C87.3617 155.625 88.528 150.465 88.528 150.465C88.528 150.465 94.8274 151.777 95.1532 155.174C95.4791 158.571 90.4529 182.664 92.2985 189.595C94.1442 196.526 98.1274 222.652 98.1274 222.652C98.1274 222.652 75.3945 234.488 40.2251 226.384C40.2251 226.384 45.8602 202.925 55.0897 185.65C55.0897 185.65 68.622 161.175 67.8357 149.198C67.8345 149.198 70.5633 148.674 72.4002 151.181Z" fill="white"/>
</mask>
<g mask="url(#mask3_1432_22343)">
<path d="M82.5668 212.801L86.8293 202.086C86.867 201.992 86.8406 201.871 86.7714 201.813L80.2707 196.474C80.1386 196.367 80.1927 196.092 80.3437 196.104L89.4386 196.851C89.4814 196.855 89.5216 196.832 89.5493 196.789L94.2547 189.657C94.3478 189.516 94.5201 189.629 94.5075 189.821L93.9036 198.757C93.8973 198.855 93.9426 198.946 94.0118 198.975L101.478 202.046C101.618 202.104 101.623 202.379 101.485 202.432L94.1075 205.222C94.0421 205.247 94.0005 205.333 94.0068 205.428L94.7176 215.211C94.7315 215.408 94.5541 215.501 94.4635 215.345L89.7556 207.257C89.7078 207.175 89.6261 207.154 89.5644 207.207L82.7756 213.073C82.6485 213.182 82.4963 212.981 82.5668 212.801Z" fill="#FFD44D"/>
</g>
<mask id="mask4_1432_22343" style="mask-type:luminance" maskUnits="userSpaceOnUse" x="40" y="149" width="59" height="81">
<path d="M72.4002 151.181C72.4002 151.181 74.1275 157.574 81.5227 156.485C87.3617 155.625 88.528 150.465 88.528 150.465C88.528 150.465 94.8274 151.777 95.1532 155.174C95.4791 158.571 90.4529 182.664 92.2985 189.595C94.1442 196.526 98.1274 222.652 98.1274 222.652C98.1274 222.652 75.3945 234.488 40.2251 226.384C40.2251 226.384 45.8602 202.925 55.0897 185.65C55.0897 185.65 68.622 161.175 67.8357 149.198C67.8345 149.198 70.5633 148.674 72.4002 151.181Z" fill="white"/>
</mask>
<g mask="url(#mask4_1432_22343)">
<path d="M54.117 224.405L52.2676 212.891C52.2513 212.79 52.1682 212.703 52.0827 212.699L43.9766 212.199C43.8118 212.189 43.7187 211.927 43.8508 211.847L51.8034 206.946C51.8399 206.923 51.8625 206.88 51.865 206.827L52.1896 198.029C52.1959 197.857 52.3972 197.846 52.4828 198.013L56.4848 205.823C56.5289 205.909 56.6131 205.957 56.6849 205.939L64.4525 203.965C64.5997 203.927 64.7418 204.152 64.6525 204.281L59.9132 211.086C59.8717 211.147 59.8792 211.243 59.9333 211.318L65.4552 219.036C65.5659 219.192 65.4653 219.377 65.3105 219.303L57.3127 215.424C57.2321 215.385 57.1529 215.417 57.129 215.498L54.4303 224.507C54.3775 224.673 54.1472 224.598 54.117 224.405Z" fill="#FFD44D"/>
</g>
<mask id="mask5_1432_22343" style="mask-type:luminance" maskUnits="userSpaceOnUse" x="40" y="149" width="59" height="81">
<path d="M72.4002 151.181C72.4002 151.181 74.1275 157.574 81.5227 156.485C87.3617 155.625 88.528 150.465 88.528 150.465C88.528 150.465 94.8274 151.777 95.1532 155.174C95.4791 158.571 90.4529 182.664 92.2985 189.595C94.1442 196.526 98.1274 222.652 98.1274 222.652C98.1274 222.652 75.3945 234.488 40.2251 226.384C40.2251 226.384 45.8602 202.925 55.0897 185.65C55.0897 185.65 68.622 161.175 67.8357 149.198C67.8345 149.198 70.5633 148.674 72.4002 151.181Z" fill="white"/>
</mask>
<g mask="url(#mask5_1432_22343)">
<path d="M85.5032 169.45L87.0519 165.557C87.0658 165.522 87.057 165.478 87.0305 165.458L84.669 163.519C84.6212 163.479 84.6414 163.379 84.6955 163.383L87.9993 163.654C88.0144 163.655 88.0295 163.647 88.0396 163.632L89.7481 161.041C89.7821 160.99 89.845 161.032 89.8399 161.101L89.621 164.347C89.6185 164.383 89.6348 164.416 89.66 164.426L92.3725 165.542C92.4241 165.562 92.4253 165.662 92.375 165.681L89.6952 166.695C89.6713 166.705 89.6562 166.735 89.6587 166.769L89.9167 170.323C89.9217 170.394 89.8575 170.427 89.8236 170.371L88.1138 167.432C88.0962 167.403 88.066 167.395 88.0446 167.414L85.5787 169.545C85.5334 169.589 85.4767 169.515 85.5032 169.45Z" fill="#FFD44D"/>
</g>
<mask id="mask6_1432_22343" style="mask-type:luminance" maskUnits="userSpaceOnUse" x="40" y="149" width="59" height="81">
<path d="M72.4002 151.181C72.4002 151.181 74.1275 157.574 81.5227 156.485C87.3617 155.625 88.528 150.465 88.528 150.465C88.528 150.465 94.8274 151.777 95.1532 155.174C95.4791 158.571 90.4529 182.664 92.2985 189.595C94.1442 196.526 98.1274 222.652 98.1274 222.652C98.1274 222.652 75.3945 234.488 40.2251 226.384C40.2251 226.384 45.8602 202.925 55.0897 185.65C55.0897 185.65 68.622 161.175 67.8357 149.198C67.8345 149.198 70.5633 148.674 72.4002 151.181Z" fill="white"/>
</mask>
<g mask="url(#mask6_1432_22343)">
<path d="M67.2966 198.416L67.7558 194.199C67.7596 194.161 67.7395 194.123 67.7093 194.11L64.9389 193.001C64.8823 192.979 64.8747 192.877 64.9288 192.863L68.1635 192.076C68.1786 192.072 68.1899 192.06 68.1962 192.042L69.1511 189.019C69.1699 188.959 69.2404 188.979 69.2542 189.048L69.8984 192.225C69.9059 192.26 69.9298 192.286 69.9563 192.289L72.8461 192.497C72.9002 192.501 72.9292 192.597 72.8852 192.63L70.5866 194.45C70.5665 194.466 70.5602 194.501 70.5715 194.533L71.7529 197.852C71.7768 197.919 71.7239 197.973 71.6774 197.928L69.2668 195.657C69.2429 195.635 69.2115 195.636 69.1951 195.661L67.3947 198.484C67.362 198.539 67.2891 198.486 67.2966 198.416Z" fill="#FFD44D"/>
</g>
<mask id="mask7_1432_22343" style="mask-type:luminance" maskUnits="userSpaceOnUse" x="40" y="149" width="59" height="81">
<path d="M72.4002 151.181C72.4002 151.181 74.1275 157.574 81.5227 156.485C87.3617 155.625 88.528 150.465 88.528 150.465C88.528 150.465 94.8274 151.777 95.1532 155.174C95.4791 158.571 90.4529 182.664 92.2985 189.595C94.1442 196.526 98.1274 222.652 98.1274 222.652C98.1274 222.652 75.3945 234.488 40.2251 226.384C40.2251 226.384 45.8602 202.925 55.0897 185.65C55.0897 185.65 68.622 161.175 67.8357 149.198C67.8357 149.198 70.5633 148.674 72.4002 151.181Z" fill="white"/>
</mask>
<g mask="url(#mask7_1432_22343)">
</g>
<mask id="mask8_1432_22343" style="mask-type:luminance" maskUnits="userSpaceOnUse" x="40" y="149" width="59" height="81">
<path d="M72.4002 151.181C72.4002 151.181 74.1275 157.574 81.5227 156.485C87.3617 155.625 88.528 150.465 88.528 150.465C88.528 150.465 94.8274 151.777 95.1532 155.174C95.4791 158.571 90.4529 182.664 92.2985 189.595C94.1442 196.526 98.1274 222.652 98.1274 222.652C98.1274 222.652 75.3945 234.488 40.2251 226.384C40.2251 226.384 45.8602 202.925 55.0897 185.65C55.0897 185.65 68.622 161.175 67.8357 149.198C67.8357 149.198 70.5633 148.674 72.4002 151.181Z" fill="white"/>
</mask>
<g mask="url(#mask8_1432_22343)">
<path d="M72.1357 231.374L73.6845 227.481C73.6983 227.447 73.6882 227.403 73.6643 227.382L71.3028 225.443C71.255 225.403 71.2751 225.304 71.3292 225.309L74.6331 225.58C74.6482 225.581 74.6632 225.573 74.6733 225.558L76.3818 222.967C76.4158 222.916 76.4787 222.957 76.4737 223.026L76.2548 226.273C76.2523 226.309 76.2686 226.342 76.2938 226.353L79.005 227.469C79.0566 227.49 79.0579 227.589 79.0075 227.608L76.3277 228.622C76.3038 228.632 76.2887 228.662 76.2913 228.697L76.5492 232.25C76.5542 232.321 76.4901 232.355 76.4561 232.298L74.7463 229.359C74.7287 229.33 74.6998 229.322 74.6771 229.341L72.2112 231.472C72.1659 231.512 72.1093 231.439 72.1357 231.374Z" fill="#FFD44D"/>
</g>
<path d="M35.0204 103.95C35.0204 103.95 30.6987 61.1244 75.1341 55.9901C117.253 51.1237 123.73 99.7102 113.903 108.126H110.923C110.923 108.126 111.711 66.0709 72.9173 65.3749C72.9173 65.3749 43.8876 66.0612 35.0204 103.95Z" fill="#FFD44D" stroke="#FFD44D" stroke-width="1.13155" stroke-miterlimit="10"/>
<mask id="mask9_1432_22343" style="mask-type:luminance" maskUnits="userSpaceOnUse" x="34" y="81" width="86" height="70">
<path d="M115.694 108.621C112.083 106.797 107.182 109.955 104.452 115.714C103.409 114.367 102.588 112.83 102.077 111.108C101.185 108.106 101.322 104.893 101.851 101.826C98.8147 102.607 95.5436 102.088 92.5379 101.421C89.3272 100.71 86.1857 99.6548 83.0819 98.5183C79.909 97.3569 76.7498 96.1693 73.6888 94.6807C66.934 91.3969 60.5252 87.0483 55.2071 81.3838C55.2033 81.428 55.2084 81.468 55.1958 81.5136C54.5692 83.8142 53.6345 86.0071 52.5399 88.0813C50.3608 92.2116 47.4886 96.0022 44.0954 98.9961C41.437 101.341 38.3672 103.226 35.0206 103.947C35.0093 104.397 34.9917 104.846 34.9917 105.3C34.9917 130.244 52.0593 150.463 73.1126 150.463C86.3329 150.463 97.9705 142.484 104.806 130.373C105.205 130.781 105.653 131.122 106.153 131.375C109.935 133.284 115.136 129.74 117.771 123.455C120.405 117.175 119.475 110.532 115.694 108.621Z" fill="white"/>
</mask>
<g mask="url(#mask9_1432_22343)">
<path d="M115.694 108.621C112.083 106.797 107.182 109.955 104.452 115.714C103.409 114.367 102.588 112.83 102.077 111.108C101.185 108.106 101.322 104.893 101.851 101.826C98.8147 102.607 95.5436 102.088 92.5379 101.421C89.3272 100.71 86.1857 99.6548 83.0819 98.5183C79.909 97.3569 76.7498 96.1693 73.6888 94.6807C66.934 91.3969 60.5252 87.0483 55.2071 81.3838C55.2033 81.428 55.2084 81.468 55.1958 81.5136C54.5692 83.8142 53.6345 86.0071 52.5399 88.0813C50.3608 92.2116 47.4886 96.0022 44.0954 98.9961C41.437 101.341 38.3672 103.226 35.0206 103.947C35.0093 104.397 34.9917 104.846 34.9917 105.3C34.9917 130.244 52.0593 150.463 73.1126 150.463C86.3329 150.463 97.9705 142.484 104.806 130.373C105.205 130.781 105.653 131.122 106.153 131.375C109.935 133.284 115.136 129.74 117.771 123.455C120.405 117.175 119.475 110.532 115.694 108.621Z" fill="#CD5428" stroke="#CD5428" stroke-width="1.15533" stroke-miterlimit="10"/>
</g>
<mask id="mask10_1432_22343" style="mask-type:luminance" maskUnits="userSpaceOnUse" x="34" y="81" width="86" height="70">
<path d="M115.694 108.621C112.083 106.797 107.182 109.955 104.452 115.714C103.409 114.367 102.588 112.83 102.077 111.108C101.185 108.106 101.322 104.893 101.851 101.826C98.8147 102.607 95.5436 102.088 92.5379 101.421C89.3272 100.71 86.1857 99.6548 83.0819 98.5183C79.909 97.3569 76.7498 96.1693 73.6888 94.6807C66.934 91.3969 60.5252 87.0483 55.2071 81.3838C55.2033 81.428 55.2084 81.468 55.1958 81.5136C54.5692 83.8142 53.6345 86.0071 52.5399 88.0813C50.3608 92.2116 47.4886 96.0022 44.0954 98.9961C41.437 101.341 38.3672 103.226 35.0206 103.947C35.0093 104.397 34.9917 104.846 34.9917 105.3C34.9917 130.244 52.0593 150.463 73.1126 150.463C86.3329 150.463 97.9705 142.484 104.806 130.373C105.205 130.781 105.653 131.122 106.153 131.375C109.935 133.284 115.136 129.74 117.771 123.455C120.405 117.175 119.475 110.532 115.694 108.621Z" fill="white"/>
</mask>
<g mask="url(#mask10_1432_22343)">
<path opacity="0.49" d="M89.4404 140.486C94.8087 140.486 99.1606 135.71 99.1606 129.817C99.1606 123.925 94.8087 119.148 89.4404 119.148C84.0721 119.148 79.7202 123.925 79.7202 129.817C79.7202 135.71 84.0721 140.486 89.4404 140.486Z" fill="#8B2A0C" stroke="#8B2A0C" stroke-width="1.26151" stroke-miterlimit="10"/>
</g>
<mask id="mask11_1432_22343" style="mask-type:luminance" maskUnits="userSpaceOnUse" x="17" y="65" width="73" height="76">
<path d="M77.9167 66.212C74.1883 67.7245 72.7578 73.7609 74.5371 79.9516C72.9322 79.8091 71.3611 79.3599 69.8906 78.5387C67.3258 77.1082 65.3527 74.7296 63.7505 72.1508C62.1074 75.0596 59.4599 77.2312 56.9049 79.0924C54.1765 81.0814 51.2754 82.7736 48.3486 84.3789C45.3568 86.0203 42.3579 87.6324 39.2345 88.9555C32.3427 91.8761 25.0096 93.7753 17.6 93.8973C17.6258 93.9315 17.6551 93.9559 17.6756 93.9979C18.7147 96.1109 19.4664 98.387 20.0286 100.703C21.1487 105.315 21.5597 110.225 21.089 114.975C20.7199 118.696 19.7635 122.412 17.8615 125.519C18.1435 125.846 18.4202 126.177 18.7129 126.498C34.782 144.136 59.8762 145.186 74.763 128.846C84.1111 118.586 87.1998 103.912 84.2312 90.0433C84.7756 90.0218 85.3121 89.9154 85.8289 89.7054C89.7334 88.1206 91.1275 81.5774 88.9417 75.0889C86.7586 68.6033 81.8221 64.6282 77.9167 66.212Z" fill="white"/>
</mask>
<g mask="url(#mask11_1432_22343)">
<path opacity="0.49" d="M57.034 145.009C60.83 140.842 60.83 134.087 57.034 129.921C53.2381 125.754 47.0836 125.754 43.2877 129.921C39.4918 134.087 39.4918 140.842 43.2877 145.009C47.0836 149.175 53.2381 149.175 57.034 145.009Z" fill="#8B2A0C" stroke="#8B2A0C" stroke-width="1.26151" stroke-miterlimit="10"/>
</g>
<path d="M55.4849 78.1219C54.5854 79.6519 53.9626 81.4706 54.3149 83.3086C54.5942 84.7669 55.5327 86.163 56.8928 86.5469C58.0603 86.8769 59.5688 86.348 59.8292 84.9119C60.0443 83.7243 59.2958 82.4096 58.1169 82.5063C56.6877 82.6223 55.5 84.2753 55.1591 85.6879C54.7703 87.2995 55.2635 89.1347 56.4096 90.2367C57.3947 91.1826 59.0957 91.492 59.8908 90.0876C60.6533 88.7398 59.4983 87.276 58.1823 87.8588C56.8701 88.4401 56.3304 90.2201 56.6638 91.6494C57.0764 93.417 58.6466 94.4775 60.1412 94.9608C60.6772 95.1348 60.9061 94.2165 60.3714 94.0439C59.292 93.6945 58.166 93.0372 57.659 91.8717C57.2488 90.9258 57.3847 89.5573 58.2075 88.9165C58.5988 88.6114 59.3738 88.5409 59.2555 89.3281C59.1888 89.7741 58.7145 90.0779 58.3383 90.1138C57.7017 90.1759 57.0991 89.7133 56.7015 89.2121C55.8523 88.1405 55.651 86.5607 56.2184 85.282C56.5656 84.499 58.3748 82.3986 58.9296 84.0488C59.3901 85.4145 57.82 85.9268 56.9003 85.5512C55.8196 85.1107 55.1867 83.8265 55.0899 82.6154C54.9729 81.1654 55.534 79.7886 56.2335 78.5983C56.5367 78.086 55.7869 77.6082 55.4849 78.1219Z" fill="#1A0000"/>
<g opacity="0.53">
<path d="M61.1577 129.819C61.1577 129.819 61.7138 124.013 66.3374 123.335C70.3067 122.752 71.6403 127.67 71.6403 127.67" fill="#8B2A0C"/>
<path d="M61.1577 129.818C61.1225 128.362 61.4685 126.867 62.212 125.57C62.9392 124.275 64.1835 123.217 65.5901 122.878C66.2808 122.702 67.0205 122.644 67.749 122.778C68.4699 122.95 69.1581 123.29 69.7053 123.8C70.8125 124.809 71.4315 126.238 71.6403 127.67C70.9987 126.412 70.1985 125.27 69.1908 124.571C68.1868 123.862 67.008 123.733 65.8543 124.069C64.693 124.33 63.6978 125.105 62.9166 126.126C62.139 127.166 61.5767 128.446 61.1577 129.818Z" fill="#8B2A0C"/>
</g>
<path d="M81.4303 92.0548C82.2267 93.1471 83.1188 94.0185 84.0095 94.7987C84.9204 95.5569 85.8702 96.2004 86.8918 96.7085C87.9159 97.2153 88.9979 97.5979 90.1365 97.9334C90.7039 98.1074 91.294 98.2124 91.8866 98.3933C92.4867 98.559 93.0956 98.6294 93.7297 98.8504L93.7536 98.8586C93.7825 98.8683 93.7989 98.9028 93.7901 98.9346C93.7825 98.9594 93.7624 98.976 93.7398 98.9774L91.8778 99.0616C91.2588 99.0119 90.6322 99.0244 90.017 98.9222C88.7803 98.7565 87.5662 98.3988 86.4137 97.8616C84.163 96.6878 82.2267 94.6703 81.3221 92.0935C81.3108 92.0617 81.3259 92.0272 81.3536 92.0148C81.3763 92.0051 81.4027 92.0134 81.4165 92.0327L81.4303 92.0548Z" fill="#2E2E2E"/>
<path d="M36.3196 104.919C37.5916 104.833 38.7541 104.535 39.8486 104.186C40.9382 103.806 41.9635 103.323 42.931 102.701C43.8985 102.074 44.8069 101.323 45.7127 100.497C46.1682 100.088 46.5871 99.6203 47.0639 99.1923C47.5332 98.749 47.9371 98.2436 48.4655 97.8017L48.4856 97.7851C48.5095 97.7644 48.5448 97.7699 48.5624 97.7961C48.5775 97.8169 48.5775 97.8445 48.5649 97.8652L47.5559 99.5831C47.1621 100.111 46.8111 100.678 46.3795 101.172C45.5441 102.186 44.5779 103.07 43.5148 103.795C41.3445 105.139 38.7252 105.713 36.2857 105.04C36.2555 105.032 36.2378 104.999 36.2454 104.967C36.2517 104.941 36.2718 104.923 36.2957 104.922L36.3196 104.919Z" fill="#2E2E2E"/>
<path d="M82.2865 122.563C88.3969 122.563 93.3504 117.856 93.3504 112.05C93.3504 106.244 88.3969 101.537 82.2865 101.537C76.1761 101.537 71.2227 106.244 71.2227 112.05C71.2227 117.856 76.1761 122.563 82.2865 122.563Z" fill="white"/>
<path d="M72.6432 118.421C73.4723 118.96 74.2687 119.507 75.128 119.924C75.942 120.411 76.7874 120.817 77.6442 121.142C79.3527 121.791 81.0864 122.223 82.8025 122.146C84.5123 122.117 86.212 121.628 87.7771 120.687C89.3976 119.832 90.7815 118.474 92.3051 117.156L92.3931 117.231C91.7553 118.006 91.1652 118.833 90.4883 119.566C89.7423 120.214 89.0956 121.015 88.2363 121.495C86.6586 122.687 84.74 123.307 82.8327 123.372C80.9128 123.423 79.0118 122.888 77.2831 122.01C75.557 121.118 73.9517 119.948 72.564 118.507L72.6432 118.421Z" fill="black"/>
<path d="M84.5738 119.578C88.8276 119.578 92.2759 115.793 92.2759 111.124C92.2759 106.455 88.8276 102.67 84.5738 102.67C80.32 102.67 76.8716 106.455 76.8716 111.124C76.8716 115.793 80.32 119.578 84.5738 119.578Z" fill="#280707" stroke="#280707" stroke-width="1.20351" stroke-miterlimit="10"/>
<path d="M70.8599 110.781C71.4914 108.034 72.8955 105.481 74.9198 103.517C76.9328 101.499 79.79 100.557 82.5188 100.646C85.2112 100.711 87.9451 101.761 90.0726 103.727C91.1168 104.735 91.8843 106.031 92.4466 107.367C93.0178 108.715 93.321 110.144 93.3261 111.632L92.9272 111.298C93.6846 111.213 94.4458 111.144 95.212 111.107L95.2346 111.228L93.0065 111.727L92.9385 111.742L92.9298 111.662C92.6228 108.932 91.376 106.312 89.451 104.543C87.4959 102.794 84.9747 101.962 82.4723 101.856C81.2192 101.769 79.9611 101.957 78.7571 102.341C77.5694 102.777 76.4358 103.403 75.4381 104.248C73.4642 105.956 71.9305 108.275 70.9706 110.82L70.8599 110.781Z" fill="black"/>
<path d="M92.3428 108.859L94.9144 108.518L92.7605 110.097L92.3428 108.859Z" fill="black"/>
<path d="M91.3193 106.451L93.7324 105.773L91.8918 107.614L91.3193 106.451Z" fill="black"/>
<path d="M57.4513 118.216C57.4513 123.788 53.1913 128.305 47.9348 128.305C42.6797 128.305 38.4185 123.788 38.4185 118.216C38.4185 112.644 42.6797 108.127 47.9348 108.127C53.19 108.127 57.4513 112.644 57.4513 118.216Z" fill="white"/>
<path d="M56.7258 123.444C56.2389 124.298 55.5922 125.003 54.9355 125.708C54.2485 126.374 53.4911 126.957 52.6872 127.483C51.0806 128.527 49.1506 129.115 47.1867 129.014C45.2467 128.865 43.2803 128.089 41.9001 126.65L41.3566 126.156L40.8936 125.578L39.9853 124.431C39.4996 123.569 39.0379 122.708 38.6504 121.818L38.7385 121.752C39.2933 122.505 39.8179 123.288 40.3979 124.013L41.3579 125.008L41.8372 125.505L42.382 125.911C43.7672 127.111 45.5122 127.735 47.2433 127.845C48.9896 127.963 50.7447 127.481 52.3299 126.658C53.9126 125.824 55.3909 124.711 56.649 123.361L56.7258 123.444Z" fill="black"/>
<path d="M57.026 117.312C57.1744 121.661 54.2242 125.325 50.4347 125.496C46.6453 125.668 43.4534 122.28 43.3037 117.93C43.1552 113.58 46.1068 109.917 49.895 109.745C53.6844 109.574 56.8763 112.962 57.026 117.312Z" fill="#280707" stroke="#280707" stroke-width="1.20351" stroke-miterlimit="10"/>
<path d="M57.9261 116.216C57.3624 115.115 56.7384 114.064 56.0049 113.132C55.2928 112.188 54.5216 111.316 53.6497 110.614C52.7602 109.94 51.8192 109.412 50.8353 109.049C49.8314 108.762 48.8047 108.566 47.7542 108.65C45.6267 108.733 43.5043 109.387 41.9002 110.864C40.2332 112.261 39.1411 114.484 38.5876 116.821L38.4945 117.216L38.2227 117.119C37.5748 116.89 36.9306 116.645 36.2915 116.375L36.3142 116.264L38.2995 116.734L38.229 116.792C38.5121 114.274 39.5676 111.832 41.3164 110.136C43.0715 108.45 45.4066 107.602 47.7152 107.535C48.8777 107.469 50.0402 107.68 51.1448 108.071C52.2331 108.516 53.2497 109.157 54.1442 109.969C55.8955 111.64 57.2077 113.812 58.0242 116.184L57.9261 116.216Z" fill="black"/>
<path d="M38.491 115.326L36.5938 113.85L38.8974 114.207L38.491 115.326Z" fill="black"/>
<path d="M39.2802 113.019L37.666 111.303L39.8275 111.975L39.2802 113.019Z" fill="black"/>
<path opacity="0.49" d="M75.3788 135.962C75.5625 137.271 74.7145 138.941 73.4099 139.162C72.1052 139.383 70.3061 138.162 70.1224 136.851C69.9387 135.542 71.4258 134.431 72.6839 133.99C74.9888 133.184 75.1951 134.653 75.3788 135.962Z" fill="#8B2A0C"/>
<path d="M68.3685 133.738C69.0705 134.735 69.8518 135.601 70.6494 136.167C71.4697 136.695 72.2825 136.83 73.1154 136.509C73.9545 136.227 74.3798 135.767 74.4603 134.694C74.5219 133.667 74.3307 132.439 74.0602 131.218L74.0564 131.2C74.0501 131.173 74.0652 131.145 74.0917 131.138C74.1118 131.133 74.1332 131.144 74.1432 131.163C74.7031 132.232 75.1472 133.406 75.2227 134.661C75.2541 135.278 75.1673 135.948 74.8163 136.473C74.4716 136.986 73.9595 137.356 73.406 137.525C72.3127 137.946 71.0407 137.633 70.1713 136.823C69.2957 136.016 68.6868 134.927 68.2779 133.776C68.2691 133.749 68.2804 133.719 68.3043 133.709C68.3244 133.701 68.3458 133.708 68.3584 133.726L68.3685 133.738Z" fill="#3B130E"/>
<path d="M114.862 136.318L111.845 133.784L110.667 137.463L109.701 132.733L106.899 132.044L109.738 130.775L110.071 126.965L112.049 130.088L115.197 129.584L113.33 131.885L114.862 136.318Z" fill="white" stroke="white" stroke-width="0.296915" stroke-miterlimit="10" stroke-linecap="round"/>
<path d="M106.899 116.641C108.042 114.804 109.441 113.069 111.398 112.014C112.352 111.498 113.642 111.24 114.789 111.835C115.343 112.13 115.808 112.579 116.154 113.078C116.523 113.59 116.792 114.214 116.908 114.843C117.139 116.112 116.957 117.331 116.657 118.443C116.349 119.561 115.919 120.605 115.416 121.595C114.418 123.578 113.164 125.367 111.744 126.964C112.785 125.052 113.742 123.107 114.55 121.124C115.304 119.163 116.022 117.008 115.684 115.135C115.584 114.682 115.432 114.275 115.179 113.912C114.922 113.524 114.607 113.221 114.256 113.023C113.566 112.59 112.658 112.683 111.783 113.028C110.031 113.781 108.404 115.168 106.899 116.641Z" fill="#8B2A0C"/>
<path d="M104.806 130.378C105.05 129.508 105.152 128.605 105.24 127.709C105.318 126.81 105.353 125.907 105.342 125.002C105.353 123.193 105.202 121.388 105.05 119.575C105.232 120.463 105.382 121.361 105.479 122.268C105.569 123.175 105.626 124.087 105.631 125.002C105.606 126.82 105.475 128.693 104.806 130.378Z" fill="#8B2A0C"/>
</svg>
