<svg width="160" height="276" viewBox="0 0 160 276" fill="none" xmlns="http://www.w3.org/2000/svg">
<path d="M22.2342 153.939C22.2342 153.939 12.9683 152.382 10.0013 143.494C7.03433 134.606 18.3618 131.652 18.3618 131.652C11.3285 128.781 10.7261 121.205 10.7261 121.205C6.72042 108.007 18.0891 104.787 18.0891 104.787C18.0891 104.787 12.2908 101.136 12.5163 94.5327C12.9538 81.696 27.1198 81.7114 27.1198 81.7114C26.7016 75.2192 30.5789 69.1186 37.0595 66.5692C37.1577 66.5309 37.2558 66.4927 37.354 66.4555C43.9898 63.9225 51.7612 65.6833 56.6977 70.6268L57.3922 71.3213C57.4213 70.5032 57.6285 69.6217 57.9315 68.7457C59.5023 64.2156 63.3116 60.6589 68.0979 58.8161C79.4714 54.4358 87.4682 61.2758 87.4682 61.2758C90.7504 54.8306 102.484 54.2182 102.484 54.2182C128.531 53.7402 129.006 77.5171 129.006 77.5171C129.006 77.5171 138.465 68.3476 150.439 81.6643C162.414 94.9811 150.779 108.782 150.779 108.782C153.257 109.07 156.514 112.559 156.514 112.559C166.351 126.469 146.376 135.668 146.376 135.668C158.299 149.02 137.256 153.382 137.256 153.382C137.473 162.033 128.313 157.159 128.313 157.159C131.67 167.241 121.851 164.481 121.851 164.481C121.551 170.968 113.946 165.882 113.946 165.882L112.706 165.953C113.262 168.534 111.569 171.134 108.648 171.939C106.07 172.65 103.384 171.724 101.961 169.846C101.113 172.434 98.689 174.685 95.3306 175.611C90.3286 176.992 85.1472 174.922 83.6334 170.987C83.0529 172.366 81.7972 173.51 80.081 173.984C77.7503 174.627 75.3251 173.84 73.9628 172.202C72.1811 180.702 63.4037 176.226 63.4037 176.226C58.1036 181.77 53.5671 175.877 53.5671 175.877C53.5671 175.877 48.9033 181.397 40.3622 175.292C35.5736 171.87 37.0389 164.038 37.0389 164.038C37.0389 164.038 31.2467 170.599 24.3661 166.131C16.7607 161.194 22.2342 153.939 22.2342 153.939Z" fill="#1A0000" stroke="#1A0000" stroke-width="1.07029" stroke-miterlimit="10" stroke-linecap="round"/>
<path d="M136.957 61C135.701 61.0886 134.261 61.2241 133.362 62.1177C132.444 63.0298 132.592 64.3182 133.092 65.3725C133.562 66.3623 134.408 67.5741 135.708 67.7152C136.826 67.8366 137.768 67.0798 137.585 66.0397C137.164 63.6478 133.18 64.0338 131.819 65.3955C130.207 67.0076 131.396 69.615 133.73 69.8578C134.17 69.9037 134.311 69.3011 133.951 69.1239C131.785 68.0652 129.619 69.954 129.917 71.962C130.009 72.5843 130.302 73.0141 130.583 73.5654C130.854 74.0969 130.876 74.3058 130.519 74.7728C130.329 75.02 130.136 75.2606 129.968 75.5209C129.201 76.7108 128.816 78.0396 128.756 79.41C128.734 79.9164 129.607 79.9153 129.629 79.41C129.677 78.2792 129.974 77.1844 130.561 76.1793C130.937 75.5384 131.84 74.834 131.774 74.0553C131.741 73.6671 131.468 73.3751 131.259 73.0524C130.944 72.5668 130.738 72.0287 130.757 71.4589C130.799 70.223 132.183 69.1545 133.512 69.8042C133.586 69.5603 133.659 69.3153 133.733 69.0703C132.253 68.9161 131.453 67.2471 132.27 66.1447C133.076 65.0575 135.314 64.6015 136.374 65.6361C136.986 66.2333 136.553 67.1859 135.57 66.8873C135.131 66.7539 134.774 66.3853 134.517 66.0616C134.061 65.4852 133.693 64.8169 133.591 64.1104C133.322 62.2358 135.379 61.8968 136.959 61.7863C137.513 61.748 137.517 60.9606 136.957 61Z" fill="#1A0000"/>
<path d="M2.74597 99.1862C4.04767 98.1767 5.86811 97.2011 7.13587 98.8318C7.52008 99.3262 7.76006 99.9233 7.89823 100.511C8.00125 100.949 8.17699 101.838 7.63643 102.147C6.74318 102.658 6.0996 101.9 6.30686 101.089C6.63531 99.8052 8.41333 98.9117 9.7926 99.2999C11.0701 99.6586 11.7839 101.21 10.9173 102.206C11.161 102.334 11.4034 102.461 11.6458 102.589C12.0591 101.248 13.934 101.171 14.9364 102.005C15.3557 102.353 15.6563 102.819 15.826 103.307C15.9629 103.7 15.9908 104.121 16.3072 104.442C16.8756 105.019 18.0185 104.937 18.7845 105.131C20.0377 105.451 21.1649 106.034 22.1381 106.809C22.5575 107.144 23.1768 106.589 22.7551 106.253C21.6703 105.386 20.4147 104.73 19.0172 104.372C18.6088 104.267 18.1979 104.205 17.7798 104.141C17.1592 104.044 16.981 103.885 16.7386 103.338C16.512 102.826 16.3702 102.349 15.9908 101.895C14.6479 100.288 11.4931 100.145 10.8034 102.379C10.6943 102.731 11.2519 103.084 11.5318 102.761C12.9366 101.149 11.7597 98.7006 9.51384 98.4501C7.45706 98.2215 4.09494 100.459 5.72752 102.507C6.34685 103.283 7.50311 103.368 8.25092 102.702C9.27628 101.787 8.8436 100.235 8.33576 99.1905C7.87762 98.2489 7.09709 97.375 5.92265 97.1672C4.45005 96.908 3.17017 97.8201 2.12663 98.6295C1.70243 98.9598 2.32177 99.5143 2.74597 99.1862Z" fill="#1A0000"/>
<path d="M130.327 120.384C130.327 120.384 127.246 84.3513 85.4366 93.1971C45.8063 101.582 57.9203 145.568 69.3108 148.971L72.0609 149.855C72.0609 149.855 55.2345 111.009 90.212 99.4748C90.212 99.4748 111.128 95.0126 130.327 120.384Z" fill="#FFD44D" stroke="#FFD44D" stroke-width="0.97601" stroke-miterlimit="10"/>
<path d="M103.221 166.253L103.144 171.039C103.144 171.039 107.612 171.243 109.104 172.108C110.596 172.973 100.515 182.124 100.515 182.124L86.5645 171.693L93.5784 170.979L93.6341 165.311L103.221 166.253Z" fill="#B44A24" stroke="#B44A24" stroke-width="1.15002" stroke-miterlimit="10"/>
<path d="M54.3482 146.485C57.7963 142.132 64.7121 145.349 68.5893 147.153C69.668 148.102 70.8424 148.965 71.9466 149.89C72.0726 149.995 72.2508 150.014 72.4156 149.979C72.5829 150.274 73.041 150.434 73.3113 150.089C75.6565 147.097 78.6417 144.542 81.2463 141.73C83.4983 139.3 85.3635 136.61 87.0604 133.858C88.8275 130.991 90.3692 128.018 91.6709 124.965C94.2258 118.975 96.0123 112.614 96.5759 106.238C96.5504 106.375 96.5759 106.238 96.5759 106.238C96.6486 105.845 96.8328 105.197 96.9164 104.806C97.6424 105.331 98.3745 105.849 99.1174 106.355C104.052 109.717 109.324 112.762 114.881 115.27C117.458 116.432 120.114 117.48 122.885 118.236C125.35 118.907 127.991 119.386 130.582 119.069C130.599 119.067 130.609 119.059 130.625 119.056C131.484 120.627 132.226 122.267 132.83 123.971C140.008 144.246 130.255 160.144 108.941 166.022C96.3589 169.493 83.1977 166.487 73.7622 159.115C71.0873 162.325 64.78 162.252 59.4823 158.889C54.073 155.456 51.4369 150.159 54.3482 146.485Z" fill="#CD5428"/>
<mask id="mask0_1432_15481" style="mask-type:luminance" maskUnits="userSpaceOnUse" x="53" y="104" width="83" height="64">
<path d="M54.3482 146.485C57.7963 142.132 64.7121 145.35 68.5893 147.153C69.668 148.103 70.8424 148.966 71.9466 149.891C72.0726 149.996 72.2508 150.014 72.4156 149.979C72.5829 150.275 73.041 150.434 73.3113 150.09C75.6565 147.098 78.6417 144.543 81.2463 141.731C83.4983 139.301 85.3635 136.61 87.0604 133.858C88.8275 130.992 90.3692 128.018 91.6709 124.966C94.2258 118.976 96.0123 112.615 96.5759 106.238C96.5504 106.375 96.5759 106.238 96.5759 106.238C96.6486 105.846 96.8328 105.197 96.9164 104.807C97.6424 105.332 98.3745 105.849 99.1174 106.355C104.052 109.717 109.324 112.762 114.881 115.27C117.458 116.433 120.114 117.48 122.885 118.236C125.35 118.908 127.991 119.387 130.582 119.07C130.599 119.067 130.609 119.06 130.625 119.056C131.484 120.627 132.226 122.268 132.83 123.972C140.008 144.246 130.255 160.144 108.941 166.023C96.3589 169.493 83.1977 166.488 73.7622 159.115C71.0873 162.325 64.78 162.253 59.4823 158.89C54.073 155.457 51.4369 150.16 54.3482 146.485Z" fill="white"/>
</mask>
<g mask="url(#mask0_1432_15481)">
<path opacity="0.49" d="M84.6361 155.662C87.3243 160.154 93.6498 161.861 98.7633 159.476C103.877 157.089 105.843 151.514 103.153 147.022C100.465 142.53 94.1395 140.823 89.026 143.208C83.9125 145.594 81.9466 151.169 84.6361 155.662Z" fill="#8B2A0C" stroke="#8B2A0C" stroke-width="1.08297" stroke-miterlimit="10"/>
</g>
<mask id="mask1_1432_15481" style="mask-type:luminance" maskUnits="userSpaceOnUse" x="53" y="104" width="83" height="64">
<path d="M54.3482 146.485C57.7963 142.132 64.7121 145.35 68.5893 147.153C69.668 148.103 70.8424 148.966 71.9466 149.891C72.0726 149.996 72.2508 150.014 72.4156 149.979C72.5829 150.275 73.041 150.434 73.3113 150.09C75.6565 147.098 78.6417 144.543 81.2463 141.731C83.4983 139.301 85.3635 136.61 87.0604 133.858C88.8275 130.992 90.3692 128.018 91.6709 124.966C94.2258 118.976 96.0123 112.615 96.5759 106.238C96.5504 106.375 96.5759 106.238 96.5759 106.238C96.6486 105.846 96.8328 105.197 96.9164 104.807C97.6424 105.332 98.3745 105.849 99.1174 106.355C104.052 109.717 109.324 112.762 114.881 115.27C117.458 116.433 120.114 117.48 122.885 118.236C125.35 118.908 127.991 119.387 130.582 119.07C130.599 119.067 130.609 119.06 130.625 119.056C131.484 120.627 132.226 122.268 132.83 123.972C140.008 144.246 130.255 160.144 108.941 166.023C96.3589 169.493 83.1977 166.488 73.7622 159.115C71.0873 162.325 64.78 162.253 59.4823 158.89C54.073 155.457 51.4369 150.16 54.3482 146.485Z" fill="white"/>
</mask>
<g mask="url(#mask1_1432_15481)">
<path opacity="0.49" d="M125.586 151.264C127.993 155.285 133.653 156.812 138.231 154.678C142.807 152.542 144.567 147.552 142.16 143.532C139.753 139.511 134.093 137.984 129.516 140.118C124.938 142.253 123.179 147.244 125.586 151.264Z" fill="#8B2A0C" stroke="#8B2A0C" stroke-width="1.08297" stroke-miterlimit="10"/>
</g>
<path d="M66.0731 148.908C64.146 148.297 62.1522 147.808 60.2203 147.769C59.2664 147.772 58.3186 147.903 57.6266 148.342C56.9527 148.746 56.4533 149.516 56.4036 150.206C56.3297 150.926 56.7212 151.711 57.2399 152.418C57.755 153.141 58.4362 153.79 59.1331 154.431C60.5681 155.68 62.1449 156.845 63.7884 157.956C61.8916 157.236 60.0833 156.304 58.4616 155.107C57.6447 154.513 56.8945 153.833 56.2376 153.044C55.6243 152.248 55.0486 151.276 55.1262 150.127C55.171 149.559 55.4134 149.022 55.7152 148.578C56.0243 148.122 56.4533 147.702 56.9745 147.425C58.0229 146.86 59.2107 146.771 60.276 146.874C62.4298 147.087 64.352 147.901 66.0731 148.908Z" fill="#8B2A0C"/>
<path d="M74.1444 158.74C72.896 157.866 72.0161 156.641 71.2537 155.41C70.8841 154.783 70.558 154.137 70.2635 153.48C69.9738 152.822 69.7339 152.147 69.5254 151.466C70.1362 152.767 70.7459 154.061 71.4949 155.291C71.8549 155.913 72.2548 156.514 72.6875 157.096C73.1287 157.674 73.5844 158.247 74.1444 158.74Z" fill="#8B2A0C"/>
<path d="M96.5645 105.231C97.6917 105.512 98.8249 105.964 99.5848 106.797C100.272 107.551 100.622 108.705 100.081 109.606C99.6297 110.356 98.0795 110.982 97.688 109.83C97.259 108.57 99.7921 108.859 100.467 109.126C101.577 109.563 102.335 110.581 102.314 111.684C102.306 112.145 102.162 112.667 101.768 112.989C101.542 113.173 101.227 113.289 100.918 113.26C100.459 113.216 100.059 112.771 100.534 112.456C101.364 111.905 102.637 112.718 103.008 113.39C103.576 114.421 103.058 115.63 102.416 116.52C102.125 116.923 102.839 117.295 103.128 116.895C103.906 115.817 104.411 114.396 103.793 113.155C103.302 112.168 102.073 111.439 100.857 111.598C99.6939 111.75 98.8782 112.909 99.9836 113.704C101.02 114.449 102.429 113.761 102.888 112.795C104.112 110.212 101.106 107.655 98.2916 108.21C97.0735 108.451 96.4021 109.477 97.1293 110.477C97.8262 111.437 99.2406 111.372 100.141 110.69C101.316 109.799 101.392 108.275 100.763 107.089C100.014 105.679 98.3825 104.913 96.7839 104.512C96.2724 104.386 96.053 105.103 96.5645 105.231Z" fill="#1A0000"/>
<path d="M120.441 142.324C119.842 141.329 119.112 140.432 118.221 139.755C117.326 139.094 116.27 138.659 115.138 138.628C114.002 138.542 112.908 138.802 112.055 139.478C111.195 140.149 110.597 141.136 110.17 142.197C110.166 141.063 110.558 139.871 111.47 138.948C111.919 138.482 112.522 138.133 113.172 137.902C113.835 137.699 114.534 137.639 115.207 137.672C116.571 137.726 117.899 138.334 118.791 139.217C119.694 140.097 120.256 141.196 120.441 142.324Z" fill="#8B2A0C"/>
<g opacity="0.53">
<path d="M120.367 142.325C120.367 142.325 118.81 138.034 114.328 138.333C110.479 138.589 110.098 142.54 110.098 142.54" fill="#8B2A0C"/>
<path d="M120.367 142.324C119.725 141.35 118.959 140.479 118.041 139.833C117.118 139.203 116.046 138.802 114.912 138.808C113.774 138.759 112.691 139.054 111.865 139.758C111.034 140.455 110.478 141.464 110.097 142.54C110.044 141.407 110.384 140.2 111.259 139.248C111.689 138.768 112.279 138.399 112.919 138.148C113.573 137.921 114.27 137.84 114.943 137.851C116.309 137.86 117.659 138.425 118.587 139.276C119.525 140.125 120.134 141.204 120.367 142.324Z" fill="#8B2A0C"/>
</g>
<path d="M104.696 131.335C104.988 132.329 105.096 133.378 105.161 134.429C105.173 135.481 105.063 136.546 104.783 137.617C104.502 138.683 103.952 139.759 103.006 140.639C102.052 141.514 100.671 142.021 99.3472 142.075C97.9849 142.179 96.562 141.684 95.5476 140.93C94.5343 140.154 93.8435 139.188 93.326 138.21C92.3685 136.208 91.8788 134.145 91.8364 132.046L92.1867 132.235C91.5673 132.407 90.9347 132.548 90.3056 132.697L90.2656 132.604L92.0715 131.966L92.1418 131.941L92.1539 132.009C92.4921 134.019 93.0969 136.019 94.1404 137.82C94.6652 138.715 95.3343 139.555 96.2045 140.186C97.0747 140.807 98.1813 141.167 99.2927 141.086C100.404 141.057 101.492 140.654 102.3 139.967C103.111 139.274 103.629 138.343 103.981 137.385C104.652 135.438 104.741 133.371 104.587 131.329L104.696 131.335Z" fill="black"/>
<path d="M92.5282 134.638L89.8848 134.958L92.07 133.579L92.5282 134.638Z" fill="black"/>
<path d="M93.1679 137.123L90.293 137.048L92.86 135.879L93.1679 137.123Z" fill="black"/>
<path d="M120.786 131.179C121.115 132.026 121.393 132.849 121.79 133.639C122.144 134.434 122.538 135.21 123.045 135.893C123.562 136.559 124.097 137.203 124.782 137.563C125.448 137.928 126.216 138.02 126.967 137.831C128.464 137.599 129.369 136.059 129.773 134.469C130.27 132.867 130.385 131.121 130.456 129.392L130.467 129.128L130.702 129.174C131.213 129.275 131.719 129.402 132.227 129.522L132.215 129.605L130.666 129.415L130.723 129.365C130.911 131.11 130.901 132.882 130.528 134.611C130.327 135.47 130.035 136.328 129.501 137.08C128.99 137.835 128.158 138.449 127.178 138.641C126.214 138.86 125.15 138.697 124.326 138.201C123.491 137.711 122.893 136.972 122.422 136.207C121.495 134.654 121.003 132.92 120.697 131.204L120.786 131.179Z" fill="black"/>
<path d="M130.714 130.773L132.709 131.508L130.566 131.719L130.714 130.773Z" fill="black"/>
<path d="M130.584 132.739L132.841 133.219L130.615 133.811L130.584 132.739Z" fill="black"/>
<path d="M88.4136 128.404C88.5615 127.268 89.1639 126.192 90.028 125.331C90.8776 124.448 91.9927 123.788 93.1793 123.326C94.3901 122.912 95.6639 122.689 96.9244 122.709C97.5522 122.698 98.1752 122.805 98.786 122.876C99.3908 123.04 99.9896 123.164 100.562 123.385L100.574 123.389C100.602 123.4 100.614 123.428 100.603 123.454C100.593 123.473 100.573 123.484 100.549 123.483L98.7788 123.398C98.1897 123.429 97.5958 123.415 97.0116 123.483C95.8384 123.599 94.6858 123.847 93.595 124.242C91.434 125.034 89.4935 126.494 88.5166 128.437C88.5045 128.463 88.4718 128.474 88.4439 128.463C88.4221 128.454 88.41 128.433 88.4124 128.412L88.4136 128.404Z" fill="#2E2E2E"/>
<path d="M118.875 122.574C120.165 120.845 122.607 119.925 124.981 120.023C126.162 120.111 127.345 120.35 128.351 120.884C128.881 121.095 129.315 121.458 129.772 121.754C130.179 122.123 130.582 122.478 130.921 122.886L130.928 122.895C130.945 122.916 130.941 122.944 130.919 122.959C130.902 122.971 130.879 122.971 130.861 122.962C130.407 122.701 129.967 122.421 129.504 122.177C129.017 121.975 128.565 121.704 128.051 121.559C127.065 121.177 125.994 121.01 124.935 120.948C123.87 120.879 122.795 121.029 121.775 121.312C120.757 121.601 119.782 122.047 118.944 122.643C118.922 122.659 118.89 122.655 118.873 122.636C118.858 122.619 118.858 122.597 118.87 122.582L118.875 122.574Z" fill="#2E2E2E"/>
<path opacity="0.49" d="M119.701 147.315C119.701 147.315 119.234 153.773 114.116 154.159C108.736 154.565 107.236 147.984 107.236 147.984C107.236 147.984 109.786 147.008 113.427 146.733C117.068 146.457 119.701 147.315 119.701 147.315Z" fill="#8B2A0C"/>
<path d="M104.327 142.449C104.767 143.503 105.254 144.522 105.854 145.467C106.415 146.422 107.074 147.324 107.883 148.053C108.666 148.803 109.576 149.368 110.554 149.744C111.538 150.138 112.635 150.148 113.728 150.143L113.858 150.14C114.539 150.133 115.503 149.875 116.277 149.522C117.075 149.145 117.82 148.636 118.508 148.045C119.216 147.461 119.748 146.718 120.326 145.992C120.597 145.616 120.855 145.227 121.118 144.837C121.338 144.429 121.588 144.026 121.843 143.62L121.849 143.61C121.863 143.586 121.896 143.578 121.923 143.591C121.946 143.603 121.955 143.628 121.947 143.65L121.434 144.953C121.228 145.374 121.023 145.798 120.804 146.214C120.315 147.022 119.802 147.83 119.112 148.52C118.442 149.218 117.662 149.843 116.764 150.303C115.866 150.756 114.877 151.083 113.819 151.112H113.832C112.588 151.167 111.297 151.108 110.141 150.628C108.99 150.169 107.989 149.447 107.185 148.584C106.38 147.717 105.781 146.717 105.29 145.688C104.811 144.652 104.437 143.577 104.218 142.469C104.213 142.443 104.232 142.417 104.261 142.412C104.288 142.408 104.312 142.422 104.322 142.443L104.327 142.449Z" fill="#3B130E"/>
<path d="M66.7927 166.832L68.3295 163.902L70.836 165.945L69.7282 162.332L71.8359 160.748L68.8967 161.011L67.0569 158.544L66.646 161.462L63.7578 162.371L66.2885 163.198L66.7927 166.832Z" fill="white" stroke="white" stroke-width="0.254939" stroke-miterlimit="10" stroke-linecap="round"/>
<path d="M77.9612 230.741C78.3624 231.574 75.3639 261.523 75.3639 261.523L71.6309 270.952L86.5653 273.17L89.3686 262.632L101.023 228.8L77.9612 230.741Z" fill="#B44A24" stroke="#B44A24" stroke-width="0.495989" stroke-miterlimit="10" stroke-linecap="round"/>
<path d="M76.6437 248.27C75.9977 255.191 75.3639 261.522 75.3639 261.522L71.6309 270.951L86.5653 273.169L89.3686 262.631L93.561 250.462C87.9191 249.757 82.2202 249.312 76.6437 248.27Z" fill="white" stroke="white" stroke-width="0.495989" stroke-miterlimit="10" stroke-linecap="round"/>
<path d="M87.4197 261.063C83.528 260.141 79.5914 259.39 75.645 258.68C75.4717 260.439 75.3639 261.524 75.3639 261.524L71.6309 270.952L86.5653 273.17L89.3686 262.633L89.7056 261.656C88.9481 261.449 88.1906 261.245 87.4197 261.063Z" fill="black" stroke="black" stroke-width="0.495989" stroke-miterlimit="10" stroke-linecap="round"/>
<path d="M110.434 231.739L116.137 272.781L127.496 274.999L134.47 273.335C134.47 273.335 129.723 264.461 129.723 263.629C129.723 262.797 130.668 223.418 130.668 223.418L110.434 231.739Z" fill="#B44A24" stroke="#B44A24" stroke-width="0.495989" stroke-miterlimit="10" stroke-linecap="round"/>
<path d="M129.947 253.652H113.477L116.135 272.78L127.493 274.998L134.467 273.335C134.467 273.335 129.72 264.461 129.72 263.628C129.72 263.365 129.816 259.203 129.947 253.652Z" fill="white" stroke="white" stroke-width="0.495989" stroke-miterlimit="10" stroke-linecap="round"/>
<path d="M129.755 262.023H114.643L116.138 272.782L127.497 275L134.471 273.336C134.471 273.336 129.724 264.462 129.724 263.63C129.722 263.537 129.735 262.964 129.755 262.023Z" fill="black" stroke="black" stroke-width="0.495989" stroke-miterlimit="10" stroke-linecap="round"/>
<path opacity="0.49" d="M91.9634 242.503C91.8834 244.05 89.4012 245.208 86.4209 245.088C83.4393 244.968 81.088 243.618 81.168 242.07C81.248 240.524 83.7302 239.366 86.7105 239.486C89.6909 239.606 92.0422 240.957 91.9634 242.503Z" fill="#8B2A0C" stroke="#8B2A0C" stroke-width="0.479802" stroke-miterlimit="10"/>
<path opacity="0.49" d="M129.372 242.503C129.292 244.05 126.809 245.208 123.829 245.088C120.848 244.968 118.496 243.618 118.576 242.07C118.656 240.524 121.137 239.366 124.119 239.486C127.099 239.606 129.452 240.957 129.372 242.503Z" fill="#8B2A0C" stroke="#8B2A0C" stroke-width="0.479802" stroke-miterlimit="10"/>
<path d="M110.434 171.155C110.434 171.155 112.412 168.143 128.993 185.347L121.387 164.838C121.242 164.449 121.825 164.181 122.105 164.507L124.886 167.741L123.858 163.173C123.779 162.824 124.315 162.644 124.518 162.951C125.692 164.723 127.41 167.289 127.464 167.203C127.521 167.115 126.603 163.845 126.149 161.884C126.064 161.516 126.616 161.316 126.854 161.628L129.677 165.332L129.462 161.048C129.44 160.61 130.106 160.442 130.342 160.829C132.909 165.039 140.599 180.054 140.477 187.274C140.324 196.176 137.162 201.12 124.14 194.94L117.355 190.97L110.434 171.155Z" fill="#B44A24" stroke="#B44A24" stroke-width="0.495989" stroke-miterlimit="10" stroke-linecap="round"/>
<path d="M128.201 184.108C128.661 185.602 129.014 187.116 129.377 188.629C129.708 190.147 130.047 191.664 130.28 193.201C129.82 191.707 129.467 190.192 129.104 188.679C128.773 187.16 128.435 185.643 128.201 184.108Z" fill="#8B2A0C"/>
<path d="M77.374 209.526C77.374 209.526 72.2714 212.436 72.8047 212.89C73.3368 213.343 78.0297 211.58 77.9594 210.621C77.8866 209.663 77.374 209.526 77.374 209.526Z" fill="#9C322C" stroke="#9C322C" stroke-width="0.495989" stroke-miterlimit="10" stroke-linecap="round"/>
<path d="M87.9859 181.421L76.673 195.352L82.1537 201.66L78.4001 213.501C74.5496 214.176 71.7256 213.203 73.9508 212.751C76.1761 212.299 77.8874 209.663 77.8874 209.663C77.8874 209.663 62.7906 206.15 64.0536 194.296C65.1977 183.554 82.5294 173.126 85.7704 171.265C86.1073 171.071 86.4964 170.973 86.8987 170.976L89.3676 170.994L87.9859 181.421Z" fill="#B44A24" stroke="#B44A24" stroke-width="0.495989" stroke-miterlimit="10" stroke-linecap="round"/>
<path d="M76.6731 195.352C76.0344 195.519 75.3848 195.593 74.7351 195.671C74.0819 195.722 73.4298 195.781 72.7656 195.741C73.4044 195.573 74.054 195.501 74.7036 195.421C75.3569 195.372 76.009 195.314 76.6731 195.352Z" fill="#8B2A0C"/>
<mask id="mask2_1432_15481" style="mask-type:luminance" maskUnits="userSpaceOnUse" x="71" y="170" width="69" height="65">
<path d="M86.4098 170.641H90.67C90.67 170.641 91.5936 178.003 99.3056 177.656C107.019 177.309 106.519 170.641 106.519 170.641H111.283L139.217 223.428C139.217 223.428 100.862 240.468 71.1094 231.763C71.1106 231.762 89.2217 189.356 86.4098 170.641Z" fill="white"/>
</mask>
<g mask="url(#mask2_1432_15481)">
<path d="M86.4098 170.641H90.67C90.67 170.641 91.5936 178.003 99.3056 177.656C107.019 177.309 106.519 170.641 106.519 170.641H111.283L139.217 223.428C139.217 223.428 100.862 240.468 71.1094 231.763C71.1094 231.763 89.2217 189.356 86.4098 170.641Z" fill="#7A5FFF" stroke="#7A5FFF" stroke-width="0.925919" stroke-miterlimit="10" stroke-linecap="round"/>
</g>
<mask id="mask3_1432_15481" style="mask-type:luminance" maskUnits="userSpaceOnUse" x="71" y="170" width="69" height="65">
<path d="M86.4098 170.641H90.67C90.67 170.641 91.5936 178.003 99.3056 177.656C107.019 177.309 106.519 170.641 106.519 170.641H111.283L139.217 223.428C139.217 223.428 100.862 240.468 71.1094 231.763C71.1106 231.762 89.2217 189.356 86.4098 170.641Z" fill="white"/>
</mask>
<g mask="url(#mask3_1432_15481)">
<path d="M91.741 197.355L90.695 187.952C90.6853 187.869 90.609 187.794 90.5241 187.783L82.5176 186.822C82.3552 186.802 82.28 186.586 82.417 186.529L90.6405 183.13C90.6793 183.114 90.7047 183.08 90.7096 183.038L91.6331 175.972C91.6513 175.834 91.8513 175.839 91.9252 175.98L95.36 182.548C95.3976 182.619 95.4788 182.665 95.5503 182.655L103.39 181.599C103.537 181.58 103.664 181.771 103.567 181.867L98.3998 187.023C98.3537 187.069 98.3561 187.148 98.4034 187.211L103.353 193.809C103.453 193.942 103.34 194.085 103.191 194.014L95.5224 190.337C95.4461 190.3 95.3649 190.321 95.3346 190.385L92.0403 197.457C91.981 197.588 91.7592 197.513 91.741 197.355Z" fill="#FFD44D"/>
</g>
<mask id="mask4_1432_15481" style="mask-type:luminance" maskUnits="userSpaceOnUse" x="71" y="170" width="69" height="65">
<path d="M86.4098 170.641H90.67C90.67 170.641 91.5936 178.003 99.3056 177.656C107.019 177.309 106.519 170.641 106.519 170.641H111.283L139.217 223.428C139.217 223.428 100.862 240.468 71.1094 231.763C71.1106 231.762 89.2217 189.356 86.4098 170.641Z" fill="white"/>
</mask>
<g mask="url(#mask4_1432_15481)">
<path d="M114.411 220.039L117.8 211.095C117.83 211.016 117.795 210.92 117.723 210.879L110.863 207.064C110.723 206.987 110.755 206.762 110.905 206.76L119.977 206.685C120.019 206.685 120.058 206.663 120.082 206.627L124.189 200.534C124.27 200.414 124.449 200.493 124.452 200.648L124.551 207.888C124.552 207.967 124.604 208.038 124.675 208.055L132.314 209.974C132.458 210.01 132.485 210.231 132.352 210.283L125.258 213.08C125.195 213.105 125.159 213.177 125.174 213.253L126.642 221.077C126.671 221.234 126.502 221.323 126.399 221.204L121.102 215.042C121.048 214.981 120.965 214.969 120.909 215.017L114.638 220.246C114.523 220.34 114.354 220.189 114.411 220.039Z" fill="#FFD44D"/>
</g>
<mask id="mask5_1432_15481" style="mask-type:luminance" maskUnits="userSpaceOnUse" x="71" y="170" width="69" height="65">
<path d="M86.4098 170.641H90.67C90.67 170.641 91.5936 178.003 99.3056 177.656C107.019 177.309 106.519 170.641 106.519 170.641H111.283L139.217 223.428C139.217 223.428 100.862 240.468 71.1094 231.763C71.1106 231.762 89.2217 189.356 86.4098 170.641Z" fill="white"/>
</mask>
<g mask="url(#mask5_1432_15481)">
<path d="M81.4185 230.809L78.6867 221.675C78.6624 221.594 78.5739 221.532 78.4879 221.534L70.4147 221.735C70.2511 221.74 70.1371 221.536 70.262 221.461L77.7619 216.923C77.7971 216.902 77.8152 216.865 77.814 216.823L77.448 209.715C77.4407 209.575 77.6395 209.551 77.7377 209.68L82.313 215.671C82.3627 215.737 82.4512 215.769 82.5203 215.75L90.0638 213.582C90.2056 213.542 90.3656 213.712 90.2868 213.822L86.1211 219.654C86.0836 219.706 86.1005 219.783 86.1587 219.839L92.2345 225.642C92.3569 225.759 92.2709 225.916 92.1121 225.867L83.8813 223.339C83.7989 223.314 83.7226 223.345 83.7044 223.413L81.7325 230.869C81.6973 231.004 81.4646 230.962 81.4185 230.809Z" fill="#FFD44D"/>
</g>
<mask id="mask6_1432_15481" style="mask-type:luminance" maskUnits="userSpaceOnUse" x="71" y="170" width="69" height="65">
<path d="M86.4098 170.641H90.67C90.67 170.641 91.5936 178.003 99.3056 177.656C107.019 177.309 106.519 170.641 106.519 170.641H111.283L139.217 223.428C139.217 223.428 100.862 240.468 71.1094 231.763C71.1106 231.762 89.2217 189.356 86.4098 170.641Z" fill="white"/>
</mask>
<g mask="url(#mask6_1432_15481)">
<path d="M112.122 185.006L113.353 181.757C113.364 181.728 113.35 181.693 113.325 181.678L110.833 180.292C110.782 180.264 110.794 180.183 110.849 180.182L114.144 180.155C114.16 180.155 114.173 180.147 114.183 180.134L115.675 177.92C115.704 177.876 115.77 177.905 115.771 177.962L115.807 180.592C115.807 180.621 115.827 180.647 115.852 180.653L118.628 181.35C118.68 181.363 118.689 181.443 118.641 181.463L116.064 182.479C116.041 182.487 116.029 182.514 116.034 182.541L116.567 185.384C116.578 185.44 116.516 185.473 116.479 185.43L114.554 183.191C114.535 183.168 114.504 183.164 114.484 183.182L112.205 185.082C112.163 185.116 112.101 185.061 112.122 185.006Z" fill="#FFD44D"/>
</g>
<mask id="mask7_1432_15481" style="mask-type:luminance" maskUnits="userSpaceOnUse" x="71" y="170" width="69" height="65">
<path d="M86.4098 170.641H90.67C90.67 170.641 91.5936 178.003 99.3056 177.656C107.019 177.309 106.519 170.641 106.519 170.641H111.283L139.217 223.428C139.217 223.428 100.862 240.468 71.1094 231.763C71.1106 231.762 89.2217 189.356 86.4098 170.641Z" fill="white"/>
</mask>
<g mask="url(#mask7_1432_15481)">
<path d="M98.9824 210.377L99.1072 206.948C99.1084 206.917 99.0854 206.888 99.0551 206.88L96.2226 206.194C96.1644 206.18 96.1499 206.099 96.202 206.085L99.346 205.21C99.3605 205.205 99.3714 205.194 99.3763 205.18L100.087 202.676C100.101 202.626 100.173 202.637 100.191 202.691L101.077 205.202C101.086 205.229 101.113 205.249 101.14 205.249L104.021 205.202C104.075 205.201 104.11 205.275 104.07 205.306L101.934 206.942C101.914 206.956 101.911 206.985 101.925 207.01L103.355 209.596C103.384 209.648 103.336 209.694 103.286 209.662L100.72 208.013C100.695 207.997 100.665 208 100.65 208.022L99.0854 210.428C99.0563 210.472 98.9799 210.434 98.9824 210.377Z" fill="#FFD44D"/>
</g>
<mask id="mask8_1432_15481" style="mask-type:luminance" maskUnits="userSpaceOnUse" x="71" y="170" width="69" height="65">
<path d="M86.4098 170.641H90.67C90.67 170.641 91.5936 178.003 99.3056 177.656C107.019 177.309 106.519 170.641 106.519 170.641H111.283L139.217 223.428C139.217 223.428 100.862 240.468 71.1094 231.763C71.1106 231.762 89.2217 189.356 86.4098 170.641Z" fill="white"/>
</mask>
<g mask="url(#mask8_1432_15481)">
<path d="M103.707 235.862L104.939 232.613C104.95 232.584 104.938 232.549 104.911 232.534L102.419 231.148C102.368 231.12 102.38 231.039 102.435 231.038L105.73 231.01C105.746 231.01 105.759 231.003 105.769 230.99L107.261 228.776C107.29 228.732 107.356 228.761 107.357 228.818L107.393 231.448C107.393 231.476 107.413 231.503 107.438 231.509L110.212 232.206C110.264 232.219 110.274 232.299 110.226 232.319L107.649 233.335C107.626 233.343 107.614 233.37 107.619 233.397L108.152 236.239C108.163 236.296 108.101 236.329 108.063 236.285L106.139 234.047C106.119 234.024 106.089 234.02 106.068 234.037L103.79 235.936C103.749 235.97 103.687 235.916 103.707 235.862Z" fill="#FFD44D"/>
</g>
</svg>
