<svg width="40" height="33" viewBox="0 0 40 33" fill="none" xmlns="http://www.w3.org/2000/svg">
<rect x="0.25" y="12" width="27.749" height="9" rx="4.5" fill="#957FFF"/>
<path d="M36.8449 23.9366C36.8449 23.9366 39.1408 23.2297 39.5232 20.8641C39.9057 18.4985 36.8952 18.1247 36.8952 18.1247C38.567 17.1572 38.4021 15.2055 38.4021 15.2055C38.8684 11.7066 35.8358 11.2663 35.8358 11.2663C35.8358 11.2663 37.16 10.1411 36.8252 8.46508C36.1746 5.20681 32.5651 5.68496 32.5651 5.68496C32.3988 4.01562 31.1544 2.59013 29.3958 2.15739C29.3692 2.15074 29.3426 2.14437 29.316 2.1383C27.5186 1.71453 25.6121 2.42409 24.562 3.84958L24.4144 4.05005C24.3727 3.84235 24.283 3.62483 24.1686 3.41164C23.5782 2.30926 22.458 1.53027 21.1607 1.22046C18.0783 0.484577 16.3279 2.49641 16.3279 2.49641C15.2205 0.963023 12.2051 1.19992 12.2051 1.19992C5.54723 1.95056 6.42522 8.02886 6.42522 8.02886C6.42522 8.02886 3.62959 6.00778 1.13791 9.80436C-1.3541 13.6007 2.19071 16.7299 2.19071 16.7299C1.57099 16.8861 0.887852 17.8849 0.887852 17.8849C-1.03439 21.7608 4.44252 23.4374 4.44252 23.4374C1.96497 27.2412 7.51055 27.6485 7.51055 27.6485C7.81876 29.8613 9.94834 28.3117 9.94834 28.3117C9.51657 30.995 11.9025 29.9623 11.9025 29.9623C12.2514 31.6062 13.9758 30.0546 13.9758 30.0546L14.2949 30.0311C14.2614 30.7077 14.8022 31.314 15.5803 31.4216C16.2671 31.5165 16.9128 31.1905 17.1963 30.6643C17.5213 31.2958 18.2334 31.7884 19.1284 31.9122C20.4612 32.0965 21.6947 31.3953 21.9149 30.3415C22.1209 30.6736 22.4886 30.9235 22.946 30.9866C23.5667 31.0725 24.1519 30.7904 24.4302 30.3273C25.2412 32.4349 27.2899 30.9996 27.2899 30.9996C28.8734 32.2356 29.7816 30.5813 29.7816 30.5813C29.7816 30.5813 31.2017 31.8324 33.122 29.9898C34.1985 28.9568 33.4959 27.0089 33.4959 27.0089C33.4959 27.0089 35.2476 28.4876 36.8134 27.1182C38.5447 25.6034 36.8449 23.9366 36.8449 23.9366Z" fill="#7A5FFF" stroke="#7A5FFF" stroke-width="0.189768" stroke-miterlimit="10" stroke-linecap="round"/>
<path d="M3.67188 4.10386C4.0974 4.07811 4.63366 4.10385 4.64549 4.58721C4.65009 4.77871 4.57057 4.99826 4.46016 5.16169C4.3997 5.25107 4.32971 5.34306 4.20912 5.37719C3.98535 5.44054 3.87396 5.22909 3.98042 5.07809C4.20616 4.75845 4.83245 4.80705 5.07824 5.07057C5.32139 5.33091 5.17616 5.76972 4.80288 5.85708C4.83968 5.9129 4.87681 5.96874 4.91361 6.02456C5.20671 5.82468 5.58754 6.04453 5.66476 6.32048C5.70649 6.46917 5.68152 6.62826 5.62139 6.77029C5.57933 6.86979 5.50935 6.95976 5.52446 7.07112C5.55272 7.27968 5.83136 7.43849 5.95622 7.60308C6.13169 7.83449 6.24144 8.09136 6.29795 8.36413C6.32424 8.49083 6.54341 8.43702 6.51745 8.3109C6.45075 7.98808 6.30814 7.68291 6.08634 7.41853C5.93158 7.23398 5.73771 7.15183 5.81296 6.88252C5.85502 6.73268 5.91712 6.60975 5.9112 6.45036C5.89215 5.93547 5.26619 5.53282 4.75261 5.88283C4.6583 5.94704 4.76213 6.07402 4.86334 6.0503C5.2997 5.94791 5.53136 5.50332 5.37857 5.13508C5.21362 4.73677 4.65041 4.57593 4.21668 4.69974C3.99784 4.76222 3.77768 4.90338 3.71952 5.10933C3.66958 5.28607 3.75271 5.48885 3.95052 5.56146C4.49663 5.76221 4.81701 5.07173 4.86367 4.71478C4.89686 4.4611 4.82391 4.20249 4.58207 4.04514C4.32347 3.87678 3.97747 3.88575 3.67221 3.90397C3.52664 3.91236 3.52533 4.11253 3.67188 4.10386Z" fill="#7A5FFF"/>
<path d="M39.5728 8.97681C39.1144 8.71474 38.5023 8.53568 38.1596 9.03582C37.9387 9.35835 37.7915 10.0477 38.2588 10.2623C38.45 10.3502 38.6685 10.2988 38.7914 10.1452C38.9367 9.96349 38.8871 9.72687 38.7563 9.55071C38.496 9.20041 37.9177 9.03351 37.4952 9.25827C37.0772 9.48071 36.9934 10.0413 37.346 10.3398C37.4455 10.424 37.5727 10.3181 37.5247 10.2183C37.2615 9.67076 36.4391 9.84113 36.1788 10.2904C36.1049 10.4176 36.0849 10.5464 36.0553 10.684C36.0053 10.9163 35.7454 10.9247 35.5397 11.0054C35.1941 11.1411 34.8957 11.3488 34.6565 11.6059C34.5645 11.7049 34.7245 11.8475 34.8175 11.7477C35.0219 11.5278 35.2663 11.3473 35.5555 11.2198C35.7674 11.1263 36.1318 11.1072 36.2413 10.8932C36.2889 10.8003 36.2748 10.691 36.2978 10.5929C36.3296 10.4561 36.3987 10.3207 36.511 10.2204C36.7535 10.0037 37.1846 10.0202 37.3286 10.3196C37.388 10.2791 37.4475 10.2386 37.5073 10.1984C37.2579 9.98721 37.3184 9.59265 37.6105 9.43124C37.9693 9.2331 38.5624 9.44715 38.6426 9.81915C38.6692 9.94353 38.6193 10.1405 38.408 10.1009C38.2289 10.0673 38.1934 9.86803 38.1895 9.73902C38.1845 9.57558 38.2223 9.40174 38.293 9.25074C38.3764 9.07227 38.5233 8.91866 38.7573 8.90333C39.0126 8.88685 39.2547 9.03293 39.4588 9.1495C39.581 9.22008 39.6954 9.04682 39.5728 8.97681Z" fill="#7A5FFF"/>
<path d="M7.82813 18.8253C7.82813 18.8253 7.82451 8.75113 18.8503 9.60619C29.3014 10.4167 27.3374 22.8215 24.5776 24.0705L24.3932 24.3881C24.3932 24.3881 26.0884 17.0822 22.4086 13.432C20.0105 11.0534 15.9774 10.7384 13.0402 12.59C11.51 13.5546 9.26307 16.1583 7.82813 18.8253Z" fill="white" stroke="white" stroke-width="0.173061" stroke-miterlimit="10"/>
<mask id="mask0_1858_6234" style="mask-type:luminance" maskUnits="userSpaceOnUse" x="7" y="13" width="22" height="17">
<path d="M28.2972 22.9374C27.7721 22.4456 27.024 22.4693 26.3566 22.6993C26.0165 22.8164 25.6981 22.9784 25.3925 23.1531C25.2092 23.2579 24.8441 23.6394 24.6203 23.598C24.4659 23.5697 24.4419 23.3452 24.3946 23.2382C23.9796 22.2989 23.0858 21.4274 22.3695 20.6554C21.5658 19.7896 20.7078 18.9646 19.8532 18.1385C18.3949 16.7289 17.0536 15.1796 16.1585 13.4336C15.8792 13.6543 15.3183 14.0992 15.2027 14.2051C14.0868 15.2273 12.871 16.1804 11.5603 17.0057C10.9524 17.3884 10.3195 17.7448 9.64526 18.03C9.04526 18.284 8.39235 18.4946 7.71875 18.5003C7.71448 18.5003 7.71152 18.4986 7.70725 18.4983C7.55412 18.9276 7.43419 19.3704 7.35204 19.8255C6.37449 25.2353 9.52763 28.9621 15.2063 29.7472C18.5582 30.2106 21.7859 29.0035 23.8807 26.8077C24.6972 27.5367 26.3014 27.307 27.5103 26.272C28.7444 25.2159 29.1933 23.7771 28.2972 22.9374Z" fill="white"/>
</mask>
<g mask="url(#mask0_1858_6234)">
<path d="M28.2933 22.9374C27.7682 22.4456 27.02 22.4693 26.3527 22.6993C26.0126 22.8164 25.6942 22.9784 25.3886 23.1531C25.2052 23.2579 24.8402 23.6394 24.6164 23.598C24.462 23.5697 24.438 23.3452 24.3907 23.2382C23.9757 22.2989 23.0819 21.4274 22.3656 20.6554C21.5619 19.7896 20.7039 18.9646 19.8493 18.1385C18.391 16.7289 17.0497 15.1796 16.1546 13.4336C15.8753 13.6543 15.3144 14.0992 15.1988 14.2051C14.0829 15.2273 12.8671 16.1804 11.5564 17.0057C10.9485 17.3884 10.3156 17.7448 9.64135 18.03C9.04135 18.284 8.38845 18.4946 7.71484 18.5003C7.71057 18.5003 7.70761 18.4986 7.70334 18.4983C7.55022 18.9276 7.43028 19.3704 7.34814 19.8255C6.37059 25.2353 9.52372 28.9621 15.2024 29.7472C18.5543 30.2106 21.782 29.0035 23.8768 26.8077C24.6933 27.5367 26.2975 27.307 27.5064 26.272C28.7405 25.2159 29.1894 23.7771 28.2933 22.9374Z" fill="white" stroke="white" stroke-width="0.1782" stroke-miterlimit="10"/>
</g>
<mask id="mask1_1858_6234" style="mask-type:luminance" maskUnits="userSpaceOnUse" x="7" y="13" width="22" height="17">
<path d="M28.2972 22.9374C27.7721 22.4456 27.024 22.4693 26.3566 22.6993C26.0165 22.8164 25.6981 22.9784 25.3925 23.1531C25.2092 23.2579 24.8441 23.6394 24.6203 23.598C24.4659 23.5697 24.4419 23.3452 24.3946 23.2382C23.9796 22.2989 23.0858 21.4274 22.3695 20.6554C21.5658 19.7896 20.7078 18.9646 19.8532 18.1385C18.3949 16.7289 17.0536 15.1796 16.1585 13.4336C15.8792 13.6543 15.3183 14.0992 15.2027 14.2051C14.0868 15.2273 12.871 16.1804 11.5603 17.0057C10.9524 17.3884 10.3195 17.7448 9.64526 18.03C9.04526 18.284 8.39235 18.4946 7.71875 18.5003C7.71448 18.5003 7.71152 18.4986 7.70725 18.4983C7.55412 18.9276 7.43419 19.3704 7.35204 19.8255C6.37449 25.2353 9.52763 28.9621 15.2063 29.7472C18.5582 30.2106 21.7859 29.0035 23.8807 26.8077C24.6972 27.5367 26.3014 27.307 27.5103 26.272C28.7444 25.2159 29.1933 23.7771 28.2972 22.9374Z" fill="white"/>
</mask>
<g mask="url(#mask1_1858_6234)">
<path d="M25.4062 23.9457C25.8029 23.6309 26.2612 23.3576 26.809 23.2318C27.0794 23.1704 27.3935 23.1571 27.6847 23.2734C27.9732 23.3966 28.1792 23.6234 28.2525 23.9049C28.3123 24.1889 28.2104 24.4507 28.0865 24.6717C27.9535 24.8927 27.7911 25.0903 27.6084 25.2687C27.246 25.6274 26.8238 25.9268 26.369 26.1762C26.7413 25.8383 27.0935 25.4892 27.4054 25.1238C27.5552 24.9378 27.7008 24.7504 27.801 24.5502C27.9032 24.3541 27.9702 24.1432 27.9245 23.9619C27.8884 23.7871 27.733 23.6064 27.5457 23.523C27.3541 23.4305 27.1064 23.4258 26.8609 23.4562C26.3661 23.53 25.8745 23.7238 25.4062 23.9457Z" fill="#1C1C1C"/>
<path d="M23.8594 26.8256C23.9819 26.6801 24.0743 26.5181 24.162 26.3564C24.2481 26.1936 24.3247 26.0264 24.39 25.856C24.529 25.5176 24.6299 25.1679 24.7308 24.8164C24.7065 24.9963 24.6739 25.1757 24.6279 25.353C24.5806 25.5297 24.5251 25.705 24.4574 25.8768C24.3151 26.2164 24.1429 26.5586 23.8594 26.8256Z" fill="#1C1C1C"/>
<path d="M16.1268 13.0875C15.7637 13.2321 15.4213 13.4548 15.2659 13.7889C15.1358 14.0683 15.1489 14.4213 15.3875 14.6544C15.5938 14.856 15.9878 14.9489 16.2188 14.7253C16.3956 14.554 16.3995 14.2549 16.1531 14.1331C15.8386 13.9778 15.3875 14.1164 15.14 14.3125C14.8709 14.526 14.753 14.8699 14.8315 15.18C14.9025 15.4606 15.19 15.7258 15.5396 15.6257C15.8232 15.5448 15.9188 15.1921 15.6231 15.066C15.2846 14.9217 14.8956 15.1499 14.7553 15.4207C14.5676 15.7819 14.7776 16.1806 15.0487 16.458C15.139 16.5505 15.2905 16.416 15.2008 16.324C15.0063 16.125 14.8374 15.847 14.9189 15.5766C14.9544 15.4591 15.0415 15.3518 15.1565 15.2841C15.2324 15.2396 15.6244 15.121 15.5909 15.3405C15.5646 15.5123 15.282 15.4585 15.1913 15.3854C15.0743 15.2908 15.0277 15.1412 15.0227 15.0056C15.0132 14.7415 15.1712 14.4892 15.4325 14.3591C15.6001 14.2755 16.1836 14.1502 16.1304 14.4696C16.0775 14.7877 15.6329 14.6556 15.4959 14.4672C15.1206 13.9506 15.7505 13.4441 16.2362 13.2506C16.3614 13.2009 16.2523 13.0377 16.1268 13.0875Z" fill="#1A0000"/>
<path d="M12.4609 22.6705C12.549 22.4428 12.7067 22.2279 12.9351 22.072C13.1589 21.914 13.4677 21.8252 13.7631 21.8585C13.9087 21.873 14.0566 21.9094 14.1896 21.9748C14.3188 22.0459 14.4315 22.1408 14.5057 22.2542C14.6592 22.4793 14.6842 22.7408 14.6375 22.9768C14.5954 22.7408 14.5071 22.5143 14.3569 22.343C14.2067 22.1706 13.9853 22.0786 13.7395 22.0604C13.497 22.0303 13.2541 22.0902 13.0373 22.2019C12.8214 22.317 12.6269 22.4801 12.4609 22.6705Z" fill="#7A5FFF"/>
<g opacity="0.53">
<path d="M12.4844 22.6664C12.4844 22.6664 12.9973 21.8107 13.9318 22.019C14.7342 22.1978 14.6462 23.0447 14.6462 23.0447" fill="#7A5FFF"/>
<path d="M12.4844 22.6684C12.582 22.4439 12.7492 22.2345 12.9838 22.0861C13.2142 21.936 13.5267 21.8573 13.8204 21.9004C13.9653 21.9198 14.1112 21.9609 14.2417 22.0309C14.3678 22.1061 14.4763 22.205 14.5456 22.3204C14.6895 22.5504 14.703 22.8127 14.6462 23.0468C14.6143 22.8096 14.5357 22.5802 14.3928 22.4043C14.2502 22.227 14.0327 22.1278 13.7879 22.1012C13.547 22.063 13.3016 22.1147 13.0801 22.2192C12.8596 22.3274 12.6582 22.4839 12.4844 22.6684Z" fill="#7A5FFF"/>
</g>
<path d="M7.73519 20.3215C7.65009 21.5555 8.72556 22.615 10.1372 22.6876C11.5488 22.7602 12.7619 21.819 12.8467 20.585C12.9318 19.351 11.8563 18.2914 10.4447 18.2188C9.03344 18.1459 7.82029 19.0875 7.73519 20.3215Z" fill="white"/>
<path d="M8.97934 19.9004C8.7881 20.8362 9.42228 21.7294 10.3962 21.8958C11.3701 22.0621 12.3145 21.4381 12.5061 20.5027C12.6976 19.5672 12.0631 18.6736 11.0892 18.5073C10.1153 18.341 9.17058 18.9646 8.97934 19.9004Z" fill="black" stroke="black" stroke-width="0.179611" stroke-miterlimit="10"/>
<path d="M12.9084 20.1297C12.7744 19.8833 12.6245 19.6458 12.4432 19.4323C12.2677 19.2165 12.0765 19.014 11.8533 18.8489C11.6263 18.6889 11.3821 18.5599 11.1235 18.4685C10.8587 18.3918 10.5857 18.3415 10.3027 18.3479C9.72771 18.3464 9.16253 18.4884 8.71697 18.7899C8.25432 19.0803 7.94873 19.5581 7.76801 20.0562L7.73778 20.1398L7.66647 20.1158C7.49758 20.0591 7.33 19.9987 7.16406 19.9327L7.17162 19.909L7.6921 20.034L7.67239 20.0455C7.78181 19.5061 8.07885 18.9848 8.56188 18.6284C9.04129 18.2709 9.6794 18.0976 10.3027 18.1057C10.6169 18.1046 10.9287 18.1601 11.2208 18.2608C11.508 18.3719 11.7712 18.5269 11.9979 18.7172C12.4409 19.1072 12.754 19.5992 12.9357 20.1242L12.9084 20.1297Z" fill="black"/>
<path d="M7.75905 19.7223L7.27734 19.3789L7.8849 19.4856L7.75905 19.7223Z" fill="black"/>
<path d="M8.00342 19.2207L7.60156 18.8281L8.16805 19.0031L8.00342 19.2207Z" fill="black"/>
<path d="M12.1308 22.1179C11.818 22.343 11.4503 22.5113 11.0586 22.6201C10.6673 22.73 10.244 22.7711 9.82773 22.7236C9.61809 22.7043 9.41797 22.6429 9.21951 22.5834C9.03418 22.496 8.84032 22.4225 8.68457 22.2979C8.51107 22.1952 8.38194 22.0505 8.24524 21.9175C8.12005 21.7757 8.01917 21.6181 7.91797 21.4668C8.19595 21.7248 8.46803 21.9779 8.80056 22.1532C9.1206 22.341 9.48435 22.461 9.8619 22.4989C10.2381 22.5457 10.6262 22.5194 11.007 22.4494C11.3869 22.3742 11.7661 22.2678 12.1308 22.1179Z" fill="black"/>
<path d="M21.5939 22.5104C21.2325 23.7875 19.7127 24.5691 18.1993 24.2564C16.6858 23.9434 15.7516 22.6545 16.1127 21.3774C16.4742 20.1003 17.9939 19.3187 19.5077 19.6314C21.0212 19.9441 21.955 21.233 21.5939 22.5104Z" fill="white"/>
<path d="M21.586 21.9276C21.4484 22.9142 20.4767 23.6362 19.4154 23.5405C18.3541 23.4447 17.6052 22.5671 17.7429 21.5804C17.8806 20.5938 18.8522 19.8718 19.9135 19.9675C20.9749 20.0635 21.7237 20.9409 21.586 21.9276Z" fill="black" stroke="black" stroke-width="0.190453" stroke-miterlimit="10"/>
<path d="M16.2109 20.9768C16.5132 20.4486 16.9917 19.9939 17.6005 19.6829C17.9055 19.5267 18.2521 19.4289 18.6106 19.3887C18.9694 19.3615 19.3378 19.3789 19.6831 19.4671C20.3643 19.6251 20.9988 20.0049 21.4003 20.5365C21.6001 20.8032 21.7043 21.1128 21.7608 21.415C21.8186 21.7205 21.8051 22.0257 21.7214 22.3256L21.6386 22.2365C21.8314 22.2574 22.0243 22.2822 22.2169 22.3132L22.2162 22.3392L21.6359 22.3274L21.6175 22.3271L21.6198 22.31C21.6974 21.741 21.5623 21.1368 21.1904 20.6621C20.8177 20.1862 20.2299 19.8672 19.6026 19.7118C19.2905 19.6248 18.9606 19.6037 18.6353 19.6207C18.3109 19.6534 17.9935 19.733 17.6978 19.8576C17.1132 20.118 16.6121 20.52 16.2359 20.991L16.2109 20.9768Z" fill="black"/>
<path d="M21.6406 21.6934L22.3031 21.7524L21.684 21.9679L21.6406 21.6934Z" fill="black"/>
<path d="M21.5312 21.1394L22.1746 21.1191L21.619 21.4055L21.5312 21.1394Z" fill="black"/>
<path d="M16.3398 23.1836C16.5038 23.3068 16.6678 23.426 16.8459 23.5278C17.0161 23.6374 17.1958 23.7346 17.3805 23.82C17.7498 23.9895 18.1385 24.1205 18.5414 24.1735C18.9426 24.2368 19.3569 24.2134 19.7535 24.115C20.1594 24.0335 20.5261 23.8466 20.9062 23.6664C20.7465 23.791 20.5855 23.9227 20.4055 24.0306C20.2162 24.1254 20.0302 24.2325 19.8176 24.2912C19.6146 24.3759 19.3898 24.3956 19.1696 24.4332C18.9462 24.4393 18.7201 24.4474 18.499 24.4107C18.057 24.3464 17.6361 24.1954 17.2727 23.9776C16.91 23.7613 16.5833 23.4989 16.3398 23.1836Z" fill="black"/>
<path opacity="0.49" d="M14.9597 23.8844C14.8874 24.2865 14.4172 25.0076 13.371 24.8824C12.6474 24.7959 12.1772 24.0612 12.2495 23.6591C12.2495 23.6591 12.9461 23.5307 13.6789 23.57C14.1882 23.5975 14.9597 23.8844 14.9597 23.8844Z" fill="#7A5FFF"/>
<path d="M11.7812 23.2949C12.0513 23.4991 12.3359 23.675 12.6333 23.8173C12.9323 23.9562 13.2487 24.0566 13.5727 24.0837C13.8947 24.115 14.2276 24.0837 14.5397 23.9758C14.7037 23.9391 14.8466 23.8544 15.0057 23.7942C15.1575 23.7219 15.2988 23.6319 15.4588 23.557C15.3435 23.6747 15.2235 23.7945 15.0885 23.9003C14.9406 23.9903 14.8046 24.1046 14.6311 24.1642C14.3068 24.323 13.9148 24.3773 13.5408 24.3447C13.1649 24.3076 12.8087 24.1786 12.5114 23.9909C12.214 23.8032 11.9574 23.5697 11.7812 23.2949Z" fill="#3B130E"/>
<path d="M8.59018 17.5437C8.65852 17.2474 8.84812 16.9755 9.10343 16.7661C9.3548 16.55 9.67287 16.3987 10.0051 16.3001C10.3425 16.2154 10.6922 16.1818 11.0326 16.2122C11.2024 16.2217 11.3681 16.2625 11.5314 16.2935C11.6907 16.3487 11.8491 16.3933 11.9983 16.463L12.0016 16.4644C12.0088 16.4679 12.0114 16.4757 12.0078 16.4818C12.0049 16.4867 11.9986 16.4893 11.9927 16.4884L11.5163 16.4309C11.3562 16.4274 11.1962 16.4118 11.0365 16.4181C10.7168 16.4254 10.3987 16.4679 10.0944 16.5503C9.49083 16.7161 8.92993 17.0623 8.61745 17.5549C8.6135 17.5613 8.6043 17.5636 8.5974 17.5599C8.59149 17.557 8.58886 17.5512 8.59018 17.546V17.5437Z" fill="#2E2E2E"/>
<path d="M22.0653 19.2304C21.8823 18.9877 21.6681 18.7904 21.4529 18.6111C21.2317 18.4361 20.9978 18.2845 20.7428 18.1584C20.614 18.0968 20.4858 18.0337 20.3465 17.9863C20.2147 17.9226 20.0682 17.8905 19.9276 17.8356L19.0187 17.5654L19.0138 17.564C19.0062 17.5616 19.0023 17.5544 19.0046 17.5478C19.0069 17.5423 19.0128 17.5388 19.019 17.5391L19.502 17.5642C19.6611 17.5883 19.8227 17.6007 19.9798 17.6345C20.2956 17.697 20.6025 17.7942 20.889 17.9302C21.4473 18.2174 21.9112 18.6715 22.0939 19.2246C22.0962 19.2313 22.0916 19.2382 22.0841 19.2402C22.0778 19.2417 22.0716 19.2397 22.0683 19.235L22.0653 19.2304Z" fill="#2E2E2E"/>
</g>
</svg>
