<svg width="191" height="301" viewBox="0 0 191 301" fill="none" xmlns="http://www.w3.org/2000/svg">
<path d="M105.76 226.06L109.475 244.586C109.475 244.586 128.469 256.801 131.38 265.056C131.38 265.056 130.108 272.772 121.239 279.264L121.248 273.076C121.248 273.076 90.7263 259.949 87.3002 252.646C83.874 245.343 85.4683 237.015 85.4683 237.015L105.76 226.06Z" fill="#B44A24" stroke="#B44A24" stroke-width="0.9183" stroke-miterlimit="10"/>
<path d="M105.151 265.384C109.104 260.428 112.985 255.415 117.363 250.798C117.508 250.645 117.564 250.484 117.56 250.335C123.11 254.599 129.754 260.444 131.379 265.055C131.379 265.055 130.107 272.771 121.238 279.263L121.247 273.075C121.247 273.075 113.359 269.68 105.151 265.384Z" fill="white" stroke="white" stroke-width="0.9183" stroke-miterlimit="10"/>
<path d="M115.637 270.544C115.879 270.268 116.114 269.987 116.356 269.711C119.722 265.86 123.254 262.13 126.708 258.354C128.909 260.668 130.649 262.987 131.379 265.057C131.379 265.057 130.107 272.773 121.238 279.264L121.247 273.077C121.247 273.077 118.987 272.101 115.637 270.544Z" fill="black" stroke="black" stroke-width="0.9183" stroke-miterlimit="10"/>
<path opacity="0.49" d="M88.0519 254.314C89.1605 255.765 92.3072 255.116 95.0807 252.866C97.8531 250.616 99.2019 247.614 98.0933 246.163C96.9848 244.712 93.838 245.361 91.0646 247.611C88.2911 249.862 86.9423 252.864 88.0519 254.314Z" fill="#8B2A0C" stroke="#8B2A0C" stroke-width="0.4443" stroke-miterlimit="10"/>
<path opacity="0.39" d="M78.6558 301C107.728 301 131.296 296.143 131.296 290.152C131.296 284.161 107.728 279.304 78.6558 279.304C49.5834 279.304 26.0156 284.161 26.0156 290.152C26.0156 296.143 49.5834 301 78.6558 301Z" fill="#7A5FFF"/>
<path d="M179.455 111.224C179.455 111.224 189.727 106.268 189.996 93.7075C190.265 81.1474 175.96 80.853 175.96 80.853C183.149 74.8802 181.127 64.783 181.127 64.783C181.06 46.2587 166.61 45.6312 166.61 45.6312C166.61 45.6312 172.075 39.028 169.434 30.4616C164.303 13.81 147.746 18.295 147.746 18.295C145.898 9.67262 139.169 2.91434 130.676 1.62328C130.548 1.60318 130.42 1.58451 130.291 1.56727C121.622 0.345151 113.17 5.10008 109.178 13.1207L108.617 14.248C108.288 13.1868 107.73 12.0996 107.058 11.0498C103.591 5.61995 97.8586 2.169 91.6 1.26713C76.7272 -0.87697 69.8401 10.5903 69.8401 10.5903C63.6822 3.19581 49.7456 6.09386 49.7456 6.09386C19.1198 13.6793 27.1242 44.9275 27.1242 44.9275C27.1242 44.9275 12.7663 35.9159 3.56098 57.1085C-5.64429 78.301 12.9259 92.685 12.9259 92.685C10.1317 93.8425 7.58047 99.4332 7.58047 99.4332C1.08745 120.726 27.7513 126.462 27.7513 126.462C18.6179 147.685 44.7884 146.757 44.7884 146.757C47.6488 158.14 56.6039 148.878 56.6039 148.878C56.309 163.124 66.7942 156.418 66.7942 156.418C69.4792 164.807 76.5402 155.757 76.5402 155.757L78.0157 155.46C78.2933 159.011 81.2097 161.878 84.9143 162.01C88.1845 162.128 90.9917 160.07 91.9768 157.166C93.901 160.284 97.5437 162.462 101.805 162.616C108.15 162.843 113.462 158.504 113.814 152.881C114.991 154.501 116.869 155.602 119.046 155.681C122.001 155.787 124.554 153.994 125.556 151.423C130.699 161.978 139.349 153.357 139.349 153.357C147.541 158.938 150.723 149.8 150.723 149.8C150.723 149.8 158.161 155.549 165.95 144.871C170.316 138.886 165.783 129.105 165.783 129.105C165.783 129.105 174.916 135.86 181.352 127.848C188.466 118.987 179.455 111.224 179.455 111.224Z" fill="#1A0000" stroke="#8B2A0C" stroke-width="1.84423" stroke-miterlimit="10" stroke-linecap="round"/>
<path d="M11.7522 26.7453C13.8015 26.2685 16.357 26.1852 16.5727 28.8908C16.6446 29.7927 16.4836 30.7362 16.183 31.5864C15.9673 32.1953 15.556 32.9435 14.8456 33.0584C13.9813 33.1991 13.6404 32.2987 13.9036 31.6194C14.6356 29.7223 17.6211 29.4997 18.9743 30.7836C20.2499 31.9942 19.8617 34.2905 18.2596 34.9928C18.471 35.2671 18.6824 35.5414 18.8953 35.8142C19.9249 34.6955 21.7024 35.1206 22.4315 36.3614C22.8011 36.989 22.9219 37.7372 22.8745 38.4552C22.8285 39.1532 22.4531 39.8439 22.5739 40.5491C22.7566 41.6147 24.0997 42.2063 24.7972 42.9071C25.8743 43.9871 26.6639 45.2896 27.1701 46.7229C27.393 47.3533 28.4054 47.0819 28.1811 46.4443C27.6159 44.8401 26.7444 43.3753 25.5393 42.1661C24.8303 41.4552 23.5892 40.888 23.6913 39.7779C23.7661 38.9607 23.9962 38.2858 23.8783 37.4385C23.6971 36.1388 22.9593 34.9138 21.7168 34.3896C20.4973 33.8741 19.0635 34.0866 18.1546 35.0732C17.7318 35.5328 18.2582 36.1273 18.7903 35.8947C20.6627 35.0747 21.3069 32.5687 20.3334 30.8295C19.2303 28.8606 16.4721 28.4557 14.591 29.471C13.6404 29.9837 12.7704 30.9171 12.7531 32.0517C12.7387 33.0383 13.3672 33.976 14.3911 34.1053C17.0171 34.4385 17.798 30.6658 17.611 28.7501C17.4888 27.505 16.9207 26.3432 15.7645 25.7601C14.44 25.0923 12.8509 25.4126 11.479 25.7328C10.8174 25.8893 11.095 26.8989 11.7522 26.7453Z" fill="#1A0000"/>
<path d="M186.789 34.6727C184.727 33.2064 181.97 32.1696 180.28 34.7316C179.212 36.3515 178.415 39.7751 180.364 41.059C181.218 41.6205 182.276 41.4654 182.921 40.6655C183.625 39.7895 183.505 38.5832 182.994 37.644C181.967 35.7541 179.438 34.7186 177.429 35.6248C175.256 36.6028 174.633 39.656 176.267 41.3764C176.612 41.7397 177.329 41.3663 177.142 40.868C176.101 38.0791 172.5 38.3864 171.041 40.6253C170.612 41.2816 170.376 42.0155 170.251 42.7838C170.042 44.0777 168.849 44.0576 167.824 44.4611C166.18 45.1088 164.747 46.1385 163.572 47.4497C163.124 47.9509 163.863 48.6933 164.313 48.1893C165.366 47.016 166.633 46.061 168.102 45.4693C169.078 45.0772 170.53 45.0672 171.055 44.0073C171.288 43.5363 171.249 42.9489 171.377 42.4492C171.558 41.7412 171.911 41.0547 172.451 40.5521C173.531 39.5511 175.555 39.5985 176.131 41.1437C176.423 40.9743 176.715 40.8048 177.007 40.6354C175.782 39.3458 176.442 37.0365 178.106 36.4779C179.797 35.9106 182.376 37.2117 182.376 39.1763C182.376 40.2218 181.178 40.7589 180.545 39.7852C180.279 39.3745 180.259 38.8374 180.265 38.3663C180.276 37.4573 180.529 36.4362 180.958 35.6334C182.215 33.2739 184.543 34.3567 186.259 35.576C186.811 35.968 187.334 35.0604 186.789 34.6727Z" fill="#1A0000"/>
<path d="M137.88 113.787C137.88 113.787 159.013 55.8558 95.3768 53.8524C41.0842 52.1434 50.2262 110.267 50.2262 110.267L51.9232 110.127C51.9232 110.127 52.0929 61.481 98.1753 66.0736C141.141 70.3561 135.254 114.868 135.254 114.868L137.88 113.787Z" fill="#FFD44D" stroke="#FFD44D" stroke-width="0.427281" stroke-miterlimit="10"/>
<path d="M146.212 114.468C142.763 112.26 138.155 112.891 134.337 115.653C134.652 113.845 134.869 111.999 134.957 110.115C134.984 109.523 134.966 108.943 134.97 108.356C134.362 108.336 133.753 108.317 133.146 108.277C127.147 107.876 121.294 106.337 116.011 103.436C111.621 101.024 107.734 97.7645 104.603 93.8569C101.658 90.1804 99.5941 85.4327 98.2308 78.7031C93.9352 85.1799 87.4767 91.0622 81.9055 94.8435C73.3229 100.668 63.2706 105.073 52.8386 105.936C52.8314 106.055 52.8185 106.173 52.8128 106.293C52.7538 107.56 52.7595 108.814 52.807 110.056C50.6168 108.547 48.0814 107.902 45.5877 108.446C39.936 109.68 36.6384 116.542 38.2204 123.772C39.8037 131.002 45.6683 135.863 51.32 134.629C54.2667 133.986 56.5648 131.804 57.8734 128.846C64.5405 141.303 77.1195 149.987 91.9032 150.675C106.802 151.368 120.231 143.771 128.004 131.829C128.619 133.996 129.866 135.84 131.726 137.029C136.595 140.147 143.787 137.625 147.786 131.394C151.787 125.165 151.081 117.587 146.212 114.468Z" fill="#CD5428" stroke="#CD5428" stroke-width="1.73164" stroke-miterlimit="10"/>
<path d="M86.182 146.893L85.2515 156.97L79.5437 153.908C79.5437 153.908 74.076 167.906 87.111 172.07C100.146 176.235 105.271 160.105 105.271 160.105L97.1317 157.566L97.7371 147.652L86.182 146.893Z" fill="#CD5428" stroke="#CD5428" stroke-width="1.69852" stroke-miterlimit="10"/>
<path d="M54.1639 116.328C52.6223 114.46 50.7599 112.741 48.62 112.027C46.5046 111.276 44.1576 112.385 42.9467 114.161C41.7287 115.988 41.687 118.474 41.989 120.8C42.3226 123.157 42.9597 125.511 43.788 127.813C42.5167 125.716 41.5374 123.418 41.0039 120.972C40.4905 118.574 40.361 115.784 41.8552 113.439C42.6102 112.29 43.7319 111.454 44.9874 110.961C46.2659 110.47 47.7529 110.516 48.9767 111.026C51.4502 112.063 53.0537 114.17 54.1639 116.328Z" fill="#8B2A0C"/>
<path d="M58.0604 130.583C57.245 128.817 56.9243 126.871 56.6986 124.954C56.6051 123.989 56.5562 123.021 56.5461 122.054C56.5389 121.086 56.5878 120.12 56.6698 119.156C56.7518 121.088 56.815 123.011 57.0264 124.921C57.1127 125.877 57.245 126.828 57.4061 127.776C57.5801 128.718 57.7599 129.666 58.0604 130.583Z" fill="#8B2A0C"/>
<path d="M55.964 138.734L53.0418 135.526L51.0327 139.05L50.8257 134.014L47.8042 132.736L51.2312 132.016L52.3155 128.188L53.9593 131.786L57.5919 131.913L55.0652 133.887L55.964 138.734Z" fill="white" stroke="white" stroke-width="0.439192" stroke-miterlimit="10" stroke-linecap="round"/>
<path d="M78.8055 93.8201C77.3818 93.5127 76.0185 93.4524 74.7156 93.4639C73.4098 93.5084 72.1443 93.6736 70.9046 93.9981C69.6635 94.327 68.4512 94.798 67.2231 95.3466C66.6061 95.6152 66.0136 95.9555 65.3694 96.237C64.7294 96.5357 64.1412 96.9177 63.4351 97.1963L63.4092 97.2064C63.3762 97.2193 63.3402 97.2035 63.3273 97.1705C63.3172 97.1446 63.3244 97.1173 63.3445 97.1001L64.9394 95.6913C65.5218 95.2849 66.0683 94.8253 66.6809 94.4634C67.8861 93.7066 69.1976 93.1192 70.5724 92.7229C73.3393 92.0479 76.3823 92.282 78.8789 93.708C78.9091 93.7253 78.9191 93.764 78.9019 93.7942C78.8875 93.8186 78.8602 93.8301 78.8343 93.8244L78.8055 93.8201Z" fill="#2E2E2E"/>
<path d="M110.345 95.9852C111.465 94.9741 112.941 94.371 114.467 94.1915C115.998 93.9746 117.577 94.1929 119.051 94.6682C120.496 95.2211 121.838 96.0024 122.94 97.0321C123.511 97.5189 123.965 98.1264 124.444 98.6836C124.835 99.3284 125.252 99.9287 125.561 100.604L125.569 100.618C125.583 100.651 125.569 100.69 125.537 100.704C125.511 100.716 125.482 100.71 125.464 100.691L123.972 99.1934C123.422 98.7554 122.911 98.2643 122.33 97.8693C121.19 97.0464 119.939 96.3873 118.62 95.9134C115.992 94.9986 112.98 94.9425 110.411 96.1029C110.378 96.1173 110.339 96.1029 110.325 96.0699C110.313 96.0426 110.321 96.0124 110.341 95.9938L110.345 95.9852Z" fill="#2E2E2E"/>
<path opacity="0.49" d="M82.5883 130.819C81.4579 137.036 75.4927 141.16 69.2671 140.03C63.0416 138.902 58.9114 132.945 60.0432 126.728C61.1735 120.511 67.1387 116.386 73.3643 117.517C79.5898 118.647 83.7186 124.602 82.5883 130.819Z" fill="#8B2A0C" stroke="#8B2A0C" stroke-width="1.92407" stroke-miterlimit="10"/>
<path opacity="0.49" d="M124.669 134.062C123.539 140.279 117.574 144.403 111.348 143.274C105.123 142.146 100.992 136.189 102.124 129.972C103.255 123.755 109.22 119.63 115.445 120.759C121.669 121.889 125.8 127.845 124.669 134.062Z" fill="#8B2A0C" stroke="#8B2A0C" stroke-width="1.92407" stroke-miterlimit="10"/>
<path d="M86.9448 121.648C87.2885 120.173 88.0637 118.767 89.2256 117.677C90.3704 116.583 92.0242 115.876 93.6694 115.939C94.479 115.96 95.3131 116.115 96.084 116.458C96.8346 116.84 97.5091 117.378 97.9794 118.049C98.94 119.383 99.2478 121 99.104 122.501C98.7243 121.049 98.139 119.67 97.2071 118.678C96.2838 117.674 95.0126 117.206 93.6478 117.212C92.296 117.141 90.9902 117.634 89.8584 118.438C88.7266 119.26 87.7689 120.387 86.9448 121.648Z" fill="#8B2A0C"/>
<g opacity="0.53">
<path d="M99.1511 122.969C99.1511 122.969 99.1684 117.634 94.6484 116.906C89.385 116.058 87.0322 121.656 87.0322 121.656" fill="#8B2A0C"/>
<path d="M99.1511 122.969C98.8275 121.504 98.2954 120.104 97.4024 119.076C96.5165 118.037 95.2639 117.522 93.9006 117.477C92.5517 117.357 91.23 117.8 90.0681 118.56C88.9061 119.338 87.9052 120.428 87.0322 121.656C87.4291 120.196 88.2575 118.818 89.4597 117.773C90.6462 116.722 92.3259 116.08 93.9668 116.206C94.775 116.259 95.6033 116.442 96.3597 116.818C97.096 117.227 97.7475 117.792 98.1933 118.48C99.1022 119.848 99.3496 121.475 99.1511 122.969Z" fill="#8B2A0C"/>
</g>
<path d="M82.1887 118.182C82.078 116.635 81.9874 115.172 81.6437 113.739C81.3705 112.314 80.962 110.933 80.3034 109.736C79.0134 107.316 76.8117 105.857 74.1397 105.583C71.5396 105.168 69.0948 106.226 67.2814 108.303C65.3831 110.308 64.1406 113.068 63.1353 115.828L62.9815 116.249L62.655 116.1C61.7476 115.682 60.8574 115.218 59.9629 114.767L60.0175 114.625L62.8132 115.689L62.701 115.752C63.3151 112.805 64.4052 109.9 66.292 107.505C67.2296 106.314 68.4333 105.305 69.834 104.677C71.239 104.058 72.8195 103.874 74.331 104.087C75.841 104.276 77.3308 104.803 78.5705 105.705C79.8245 106.596 80.7463 107.881 81.3633 109.264C82.5612 112.071 82.6777 115.218 82.3368 118.171L82.1887 118.182Z" fill="black"/>
<path d="M63.3165 113.904L60.0117 111.537L64.0039 112.313L63.3165 113.904Z" fill="black"/>
<path d="M64.6107 111.055L61.3994 108.191L65.5455 109.347L64.6107 111.055Z" fill="black"/>
<path d="M102.607 118.515C102.517 117.007 102.73 115.453 103.05 113.922C103.443 112.407 104.056 110.915 104.973 109.534C105.882 108.151 107.238 106.96 108.855 106.264C110.472 105.557 112.26 105.406 113.928 105.586C115.624 105.76 117.341 106.423 118.729 107.513C120.099 108.625 121.078 110.095 121.698 111.61C122.843 114.699 123.04 117.872 122.519 120.935L122.121 120.556C123.119 120.5 124.123 120.491 125.125 120.47L125.144 120.62L122.174 120.992L122.078 121.004L122.081 120.903C122.176 117.928 121.796 114.86 120.546 112.144C119.926 110.792 119.016 109.565 117.844 108.66C116.666 107.759 115.23 107.24 113.754 107.082C112.284 106.894 110.76 107.031 109.382 107.573C107.995 108.103 106.814 109.086 105.889 110.246C104.061 112.627 103.17 115.581 102.753 118.56L102.607 118.515Z" fill="black"/>
<path d="M122.217 117.26L126.28 117.472L122.499 118.97L122.217 117.26Z" fill="black"/>
<path d="M121.629 114.01L125.932 113.89L122.123 115.892L121.629 114.01Z" fill="black"/>
<path opacity="0.49" d="M98.4563 127.863C98.4649 129.892 96.0316 133.814 92.1229 133.831C88.2156 133.848 86.0311 129.521 86.2454 127.498C86.2454 127.498 88.3134 126.979 92.2207 126.962C96.128 126.945 98.4563 127.863 98.4563 127.863Z" fill="#8B2A0C"/>
<path d="M85.634 122.335C85.6714 123.356 85.7735 124.362 86.0525 125.304C86.2855 126.249 86.6709 127.138 87.2404 127.842C88.3305 129.282 90.1281 129.95 92.0149 129.919C93.893 130.047 95.7122 129.494 97.1345 128.273C97.855 127.676 98.4719 126.922 98.9796 126.083C99.5289 125.261 99.9402 124.338 100.294 123.379L100.298 123.367C100.307 123.343 100.334 123.331 100.357 123.34C100.379 123.349 100.39 123.37 100.387 123.392C100.008 125.399 99.1104 127.345 97.6393 128.796C96.1681 130.271 94.0368 130.927 91.9875 130.852C89.9584 130.835 87.7725 130.025 86.6364 128.25C85.4888 126.509 85.2831 124.332 85.542 122.319C85.5449 122.293 85.5679 122.276 85.5937 122.279C85.6168 122.282 85.6326 122.3 85.634 122.323V122.335Z" fill="#3B130E"/>
<path d="M98.2669 76.5779C97.7477 78.4534 96.7066 80.1437 95.8423 81.8728C95.1059 83.3448 94.663 84.9532 95.3245 86.5501C95.9271 88.0049 97.568 89.1911 99.1858 88.621C100.437 88.1801 101.064 86.4927 100.257 85.3869C99.2793 84.0441 97.0661 84.7622 95.9703 85.542C94.512 86.5803 93.7613 88.3668 94.0374 90.1375C94.2762 91.6684 95.4209 93.3774 97.1682 93.1591C98.4812 92.9954 99.646 91.2376 98.3388 90.2452C96.8504 89.115 94.8528 90.6746 94.2992 92.0662C93.4766 94.1313 94.7565 96.2295 96.3082 97.5392C96.7914 97.9485 97.4961 97.252 97.0086 96.8398C95.8825 95.8891 94.7594 94.4559 95.0801 92.8776C95.2224 92.1768 95.6754 91.4932 96.3068 91.1385C96.5843 90.9819 97.1754 90.7608 97.5061 90.9274C98.2942 91.3252 97.706 92.0088 97.1567 92.1624C95.1462 92.7283 94.768 89.3793 95.1592 88.1945C95.615 86.8144 97.3566 85.2505 98.927 85.7086C99.8172 85.9685 99.8315 87.1246 99.0478 87.6042C98.3776 88.0135 97.417 87.6488 96.8949 87.1576C95.7919 86.1222 95.8006 84.4017 96.3499 83.0992C97.243 80.9809 98.602 79.0781 99.2218 76.8421C99.3929 76.226 98.438 75.9646 98.2669 76.5779Z" fill="#1A0000"/>
<path d="M133.762 120.48C135.235 118.55 137.183 116.755 139.798 116.164C141.092 115.876 142.565 116.091 143.737 116.798C144.886 117.503 145.845 118.522 146.386 119.785C147.447 122.354 146.83 125.08 145.904 127.352C144.949 129.665 143.583 131.757 141.964 133.6C143.182 131.477 144.223 129.273 144.964 127.011C145.668 124.772 146.064 122.318 145.185 120.307C144.303 118.347 142.188 116.846 139.973 117.216C137.743 117.543 135.609 118.909 133.762 120.48Z" fill="#8B2A0C"/>
<path d="M127.43 133.834C127.887 132.982 128.229 132.082 128.564 131.183C128.889 130.28 129.187 129.366 129.439 128.438C129.982 126.594 130.381 124.713 130.801 122.826C130.713 123.788 130.592 124.749 130.415 125.701C130.235 126.652 130.018 127.597 129.757 128.53C129.199 130.377 128.541 132.237 127.43 133.834Z" fill="#8B2A0C"/>
<path d="M137.098 141.812L134.176 138.602L132.165 142.128L131.959 137.09L128.937 135.813L132.365 135.094L133.449 131.264L135.093 134.864L138.726 134.99L136.199 136.964L137.098 141.812Z" fill="white" stroke="white" stroke-width="0.439192" stroke-miterlimit="10" stroke-linecap="round"/>
<path d="M53.2178 228.587C53.2178 228.587 56.6203 273.472 64.4723 285.047L61.6033 292.799L79.2344 292.617L77.1075 283.519L79.9175 230.549L53.2178 228.587Z" fill="#B44A24" stroke="#B44A24" stroke-width="1.70894" stroke-miterlimit="10"/>
<path d="M78.0129 266.46C71.4868 266.627 64.965 266.98 58.436 267.076C60.0438 274.709 62.0442 281.47 64.4717 285.047L61.6027 292.799L79.2338 292.617L77.1069 283.519L78.0129 266.46Z" fill="white" stroke="white" stroke-width="1.70894" stroke-miterlimit="10"/>
<path d="M77.3018 279.885C74.9549 279.676 72.5345 280.054 70.2393 280.417C67.6997 280.818 65.1542 281.288 62.5843 281.44C63.184 282.843 63.811 284.072 64.474 285.049L61.605 292.801L79.2361 292.619L77.1091 283.521L77.3018 279.885Z" fill="black" stroke="black" stroke-width="1.70894" stroke-miterlimit="10"/>
<path d="M101.37 268.682C94.9734 268.933 88.5653 268.955 82.1629 269.079L82.613 283.58L80.2861 292.629L97.91 293.199L95.2122 285.385C97.5908 282.039 99.6473 275.806 101.37 268.682Z" fill="white" stroke="white" stroke-width="1.70894" stroke-miterlimit="10"/>
<path opacity="0.49" d="M73.1011 257.836C73.0162 259.919 70.0782 261.491 66.5405 261.346C63.0027 261.201 60.2028 259.396 60.2891 257.312C60.3739 255.23 63.3119 253.657 66.8497 253.802C70.3874 253.947 73.1859 255.754 73.1011 257.836Z" fill="#8B2A0C" stroke="#8B2A0C" stroke-width="0.826834" stroke-miterlimit="10"/>
<path d="M143.53 200.028C144.942 200.558 146.307 201.256 147.617 201.996C150.221 203.468 152.742 205.283 154.606 207.65C154.905 208.029 155.296 208.425 155.361 208.926C155.419 209.377 155.226 209.631 154.723 209.654C154.723 209.654 154.981 211.352 153.861 211.066C153.861 211.066 154.034 212.393 152.634 211.836C151.541 211.399 147.945 209.255 146.428 208.34C146.2 208.204 145.93 208.428 146.019 208.678C146.432 209.822 147.198 211.951 146.951 212.162C145.949 213.012 139.959 208.174 138.944 206.782C138.944 206.782 111.269 186.143 108.295 174.412L110.737 160.574L143.53 200.028Z" fill="#CD5428" stroke="#CD5428" stroke-width="0.34819" stroke-miterlimit="10"/>
<path d="M150.851 206.529C151.6 206.995 152.257 207.572 152.963 208.09C153.609 208.682 154.303 209.213 154.906 209.858C154.157 209.393 153.5 208.816 152.793 208.297C152.148 207.705 151.453 207.174 150.851 206.529Z" fill="#280707"/>
<path d="M149.665 207.944C150.493 208.434 151.235 209.039 152.024 209.583C152.753 210.202 153.529 210.761 154.218 211.434C153.388 210.944 152.648 210.34 151.86 209.795C151.13 209.177 150.354 208.618 149.665 207.944Z" fill="#280707"/>
<path d="M122.899 175.213C117.22 168.38 110.731 160.573 110.731 160.573L108.29 174.412C109.134 177.74 111.968 181.786 115.592 185.873C118.796 182.956 121.077 179.112 122.899 175.213Z" fill="white" stroke="white" stroke-width="0.34819" stroke-miterlimit="10"/>
<path d="M72.5607 171.931L25.324 111.233C24.9898 110.809 25.5806 110.309 26.0097 110.652L31.5524 115.159L26.4916 106.821C26.3128 106.513 26.7646 106.242 27.0017 106.516L34.0829 114.265L29.6109 105.041C29.4483 104.588 30.1119 104.306 30.3904 104.71L36.2944 113.107C36.2944 113.107 33.1266 104.2 33.4512 104.339C33.7758 104.478 38.2443 112.713 38.2443 112.713L39.0532 108.466C39.0647 108.158 39.4889 108.043 39.6895 108.294L43.2476 116.52L81.0438 156.361L72.5607 171.931Z" fill="#B44A24" stroke="#B44A24" stroke-width="1.36298" stroke-miterlimit="10"/>
<path d="M60.9057 136.069C56.6775 138.717 52.9718 142.235 51.1345 146.766L67.3099 166.872L75.5148 150.976L60.9057 136.069Z" fill="white" stroke="white" stroke-width="1.36298" stroke-miterlimit="10"/>
<path d="M21.3286 115.06C22.2217 114.026 23.2744 113.175 24.2436 112.227C25.3165 111.398 26.3059 110.473 27.452 109.729L27.4693 109.75L21.3459 115.08L21.3286 115.06Z" fill="#8B2A0C"/>
<path d="M30.3622 111.609C30.0473 111.869 29.7683 112.161 29.5166 112.465C29.275 112.778 29.0909 113.135 29.0219 113.508C28.9213 113.873 28.9328 114.275 29.0766 114.64C29.2046 115.01 29.4275 115.345 29.6504 115.688C29.3512 115.414 29.0622 115.099 28.9126 114.701C28.7314 114.322 28.6782 113.871 28.7645 113.449C29.0104 112.622 29.6259 111.961 30.3622 111.609Z" fill="#8B2A0C"/>
<path d="M41.4629 133.749C42.0655 132.884 42.8392 132.191 43.5208 131.407C44.3161 130.736 45.0193 129.974 45.8937 129.382L45.9124 129.4L41.4816 133.768L41.4629 133.749Z" fill="#8B2A0C"/>
<mask id="mask0_705_8002" style="mask-type:luminance" maskUnits="userSpaceOnUse" x="40" y="150" width="78" height="89">
<path d="M82.7002 154.617C82.7002 154.617 81.114 164.957 90.2617 166.552C99.7143 168.202 102.267 158.309 102.267 158.309L110.418 160.575C110.418 160.575 112.628 227.45 117.745 235.402C117.745 235.402 78.9626 247.319 40.0332 227.167L75.8505 150.208L82.7002 154.617Z" fill="white"/>
</mask>
<g mask="url(#mask0_705_8002)">
<path d="M82.7002 154.617C82.7002 154.617 81.114 164.957 90.2617 166.552C99.7143 168.202 102.267 158.309 102.267 158.309L110.418 160.575C110.418 160.575 112.628 227.45 117.745 235.402C117.745 235.402 78.9626 247.319 40.0332 227.167L75.8505 150.208L82.7002 154.617Z" fill="#7A5FFF" stroke="#7A5FFF" stroke-width="1.70894" stroke-miterlimit="10"/>
</g>
<mask id="mask1_705_8002" style="mask-type:luminance" maskUnits="userSpaceOnUse" x="40" y="150" width="78" height="89">
<path d="M82.7002 154.617C82.7002 154.617 81.114 164.957 90.2617 166.552C99.7143 168.202 102.267 158.309 102.267 158.309L110.418 160.575C110.418 160.575 112.628 227.45 117.745 235.402C117.745 235.402 78.9626 247.319 40.0332 227.167L75.8505 150.208L82.7002 154.617Z" fill="white"/>
</mask>
<g mask="url(#mask1_705_8002)">
<path d="M71.2572 187.601L72.8017 174.975C72.8146 174.864 72.7485 174.745 72.6535 174.711L63.6625 171.383C63.4799 171.316 63.4569 171.011 63.6309 170.972L74.152 168.624C74.2009 168.614 74.2398 168.576 74.2585 168.522L77.4007 159.475C77.4626 159.297 77.6927 159.356 77.7372 159.56L79.7894 169.077C79.8124 169.18 79.8915 169.261 79.9778 169.266L89.3672 169.9C89.544 169.911 89.6346 170.196 89.4937 170.297L81.9983 175.742C81.9322 175.791 81.9106 175.894 81.948 175.99L85.746 185.937C85.8222 186.136 85.6497 186.296 85.4987 186.164L77.6941 179.356C77.6164 179.287 77.5158 179.295 77.4626 179.371L71.5735 187.815C71.4657 187.97 71.2313 187.814 71.2572 187.601Z" fill="#FFD44D"/>
</g>
<mask id="mask2_705_8002" style="mask-type:luminance" maskUnits="userSpaceOnUse" x="40" y="150" width="78" height="89">
<path d="M82.7002 154.617C82.7002 154.617 81.114 164.957 90.2617 166.552C99.7143 168.202 102.267 158.309 102.267 158.309L110.418 160.575C110.418 160.575 112.628 227.45 117.745 235.402C117.745 235.402 78.9626 247.319 40.0332 227.167L75.8505 150.208L82.7002 154.617Z" fill="white"/>
</mask>
<g mask="url(#mask2_705_8002)">
<path d="M90.8598 223.254L97.4075 212.373C97.465 212.276 97.4535 212.141 97.3802 212.07L90.555 205.288C90.4169 205.151 90.519 204.863 90.6945 204.901L101.224 207.14C101.273 207.15 101.323 207.132 101.364 207.091L107.906 200.141C108.034 200.005 108.219 200.154 108.176 200.358L106.168 209.898C106.147 210.002 106.187 210.109 106.263 210.151L114.548 214.64C114.705 214.725 114.67 215.021 114.501 215.057L105.465 216.904C105.385 216.919 105.323 217.006 105.317 217.109L104.723 227.769C104.712 227.983 104.49 228.056 104.405 227.873L100.077 218.41C100.033 218.315 99.94 218.279 99.8609 218.327L91.0655 223.583C90.9015 223.679 90.7505 223.436 90.8598 223.254Z" fill="#FFD44D"/>
</g>
<mask id="mask3_705_8002" style="mask-type:luminance" maskUnits="userSpaceOnUse" x="40" y="150" width="78" height="89">
<path d="M82.7002 154.617C82.7002 154.617 81.114 164.957 90.2617 166.552C99.7143 168.202 102.267 158.309 102.267 158.309L110.418 160.575C110.418 160.575 112.628 227.45 117.745 235.402C117.745 235.402 78.9626 247.319 40.0332 227.167L75.8505 150.208L82.7002 154.617Z" fill="white"/>
</mask>
<g mask="url(#mask3_705_8002)">
<path d="M49.4913 228.905L49.0052 216.198C49.0009 216.086 48.9161 215.981 48.8168 215.961L39.4088 214.144C39.2175 214.107 39.1471 213.811 39.3124 213.744L49.3288 209.713C49.3763 209.694 49.4079 209.651 49.418 209.595L51.079 200.16C51.112 199.974 51.3479 199.994 51.4241 200.188L54.9676 209.24C55.0064 209.339 55.0985 209.405 55.1847 209.397L64.5568 208.492C64.7337 208.475 64.8675 208.74 64.7452 208.864L58.2105 215.454C58.153 215.513 58.1487 215.618 58.2004 215.707L63.5358 224.898C63.6436 225.083 63.4984 225.267 63.3273 225.162L54.5362 219.719C54.4484 219.665 54.3506 219.688 54.3104 219.771L49.8408 229.06C49.7574 229.234 49.4999 229.117 49.4913 228.905Z" fill="#FFD44D"/>
</g>
<mask id="mask4_705_8002" style="mask-type:luminance" maskUnits="userSpaceOnUse" x="40" y="150" width="78" height="89">
<path d="M82.7002 154.617C82.7002 154.617 81.114 164.957 90.2617 166.552C99.7143 168.202 102.267 158.309 102.267 158.309L110.418 160.575C110.418 160.575 112.628 227.45 117.745 235.402C117.745 235.402 78.9626 247.319 40.0332 227.167L75.8505 150.208L82.7002 154.617Z" fill="white"/>
</mask>
<g mask="url(#mask4_705_8002)">
<path d="M98.4808 176.627L100.859 172.675C100.881 172.64 100.875 172.591 100.849 172.564L98.3701 170.101C98.3197 170.051 98.3571 169.948 98.4204 169.96L102.246 170.773C102.263 170.778 102.282 170.77 102.296 170.756L104.673 168.231C104.721 168.181 104.787 168.236 104.771 168.31L104.042 171.776C104.033 171.813 104.049 171.852 104.076 171.868L107.086 173.498C107.142 173.528 107.131 173.635 107.069 173.648L103.786 174.319C103.757 174.325 103.734 174.356 103.733 174.394L103.517 178.265C103.513 178.343 103.432 178.37 103.402 178.303L101.83 174.865C101.814 174.83 101.78 174.817 101.752 174.835L98.557 176.743C98.4952 176.78 98.4406 176.693 98.4808 176.627Z" fill="#FFD44D"/>
</g>
<mask id="mask5_705_8002" style="mask-type:luminance" maskUnits="userSpaceOnUse" x="40" y="150" width="78" height="89">
<path d="M82.7002 154.617C82.7002 154.617 81.114 164.957 90.2617 166.552C99.7143 168.202 102.267 158.309 102.267 158.309L110.418 160.575C110.418 160.575 112.628 227.45 117.745 235.402C117.745 235.402 78.9626 247.319 40.0332 227.167L75.8505 150.208L82.7002 154.617Z" fill="white"/>
</mask>
<g mask="url(#mask5_705_8002)">
<path d="M75.826 206.582L76.9765 202.107C76.9865 202.069 76.9678 202.023 76.9362 202.005L73.8558 200.374C73.794 200.341 73.7997 200.23 73.8644 200.225L77.7617 199.886C77.7804 199.884 77.7962 199.873 77.8048 199.854L79.3623 196.746C79.3925 196.686 79.473 196.718 79.4788 196.794L79.7693 200.321C79.7721 200.36 79.798 200.393 79.8282 200.398L83.1776 201.079C83.2408 201.092 83.2595 201.198 83.2049 201.229L80.251 202.828C80.2251 202.843 80.2122 202.879 80.2208 202.916L81.1196 206.683C81.1383 206.759 81.0679 206.808 81.0204 206.753L78.5325 203.924C78.508 203.895 78.4707 203.893 78.4491 203.918L75.9324 206.677C75.8835 206.725 75.8073 206.657 75.826 206.582Z" fill="#FFD44D"/>
</g>
<mask id="mask6_705_8002" style="mask-type:luminance" maskUnits="userSpaceOnUse" x="40" y="150" width="78" height="89">
<path d="M82.7002 154.617C82.7002 154.617 81.114 164.957 90.2617 166.552C99.7143 168.202 102.267 158.309 102.267 158.309L110.418 160.575C110.418 160.575 112.628 227.45 117.745 235.402C117.745 235.402 78.9626 247.319 40.0332 227.167L75.8505 150.208L82.7002 154.617Z" fill="white"/>
</mask>
<g mask="url(#mask6_705_8002)">
<path d="M73.826 241.287L76.2046 237.335C76.2262 237.3 76.2219 237.252 76.1946 237.224L73.7153 234.761C73.665 234.711 73.7023 234.606 73.7656 234.621L77.591 235.433C77.6097 235.438 77.6269 235.431 77.6413 235.416L80.0185 232.892C80.0659 232.841 80.1321 232.896 80.1177 232.971L79.3886 236.436C79.38 236.473 79.3958 236.512 79.4231 236.528L82.4331 238.158C82.4891 238.188 82.4776 238.296 82.4158 238.309L79.1326 238.979C79.1039 238.985 79.0808 239.016 79.0794 239.054L78.8637 242.926C78.8594 243.003 78.7788 243.03 78.7486 242.963L77.1768 239.525C77.161 239.49 77.1265 239.477 77.0977 239.495L73.9022 241.403C73.8404 241.442 73.7858 241.354 73.826 241.287Z" fill="#FFD44D"/>
</g>
<path d="M98.6062 280.919C93.2697 280.634 87.9333 280.363 82.589 280.384C82.3797 280.384 82.2302 280.3 82.1201 280.178L82.2318 284.102L79.6855 294.92L98.9713 295.602L96.019 286.261C96.9239 284.87 97.7847 283.045 98.6062 280.919Z" fill="#CCC1FF" stroke="#CCC1FF" stroke-width="1.70894" stroke-miterlimit="10"/>
</svg>
