<svg width="24" height="24" viewBox="0 0 24 24" fill="none" xmlns="http://www.w3.org/2000/svg">
<path d="M10.8174 4.16674H6.44238C4.69222 4.16674 3.81714 4.16674 3.14866 4.50735C2.56066 4.80695 2.08259 5.28501 1.78299 5.87302C1.44238 6.54149 1.44238 7.41658 1.44238 9.16674V17.9167C1.44238 19.6669 1.44238 20.542 1.78299 21.2105C2.08259 21.7985 2.56066 22.2765 3.14866 22.5761C3.81714 22.9167 4.69222 22.9167 6.44238 22.9167H15.1924C16.9425 22.9167 17.8176 22.9167 18.4861 22.5761C19.0741 22.2765 19.5522 21.7985 19.8518 21.2105C20.1924 20.542 20.1924 19.6669 20.1924 17.9167V13.5417M7.69235 16.6667H9.43667C9.94623 16.6667 10.201 16.6667 10.4408 16.6092C10.6534 16.5581 10.8566 16.474 11.043 16.3597C11.2532 16.2309 11.4334 16.0507 11.7937 15.6904L21.7549 5.72924C22.6178 4.8663 22.6178 3.46719 21.7549 2.60424C20.8919 1.7413 19.4928 1.74129 18.6299 2.60424L8.66867 12.5654C8.30835 12.9257 8.12819 13.1059 7.99936 13.3161C7.88513 13.5025 7.80095 13.7058 7.74992 13.9183C7.69235 14.1581 7.69235 14.4129 7.69235 14.9225V16.6667Z" stroke="#EDF2FE" stroke-width="2" stroke-linecap="round" stroke-linejoin="round"/>
</svg>
