<svg width="21" height="20" viewBox="0 0 21 20" fill="none" xmlns="http://www.w3.org/2000/svg">
<path d="M7.35937 2.5H4.19271C3.726 2.5 3.49264 2.5 3.31438 2.59083C3.15758 2.67072 3.0301 2.79821 2.9502 2.95501C2.85938 3.13327 2.85938 3.36662 2.85938 3.83333V7C2.85938 7.46671 2.85938 7.70007 2.9502 7.87833C3.0301 8.03513 3.15758 8.16261 3.31438 8.24251C3.49264 8.33333 3.726 8.33333 4.19271 8.33333H7.35937C7.82609 8.33333 8.05944 8.33333 8.2377 8.24251C8.3945 8.16261 8.52199 8.03513 8.60188 7.87833C8.69271 7.70007 8.69271 7.46671 8.69271 7V3.83333C8.69271 3.36662 8.69271 3.13327 8.60188 2.95501C8.52199 2.79821 8.3945 2.67072 8.2377 2.59083C8.05944 2.5 7.82609 2.5 7.35937 2.5Z" stroke="#EDF2FE" stroke-width="2" stroke-linecap="round" stroke-linejoin="round"/>
<path d="M16.526 2.5H13.3594C12.8927 2.5 12.6593 2.5 12.481 2.59083C12.3242 2.67072 12.1968 2.79821 12.1169 2.95501C12.026 3.13327 12.026 3.36662 12.026 3.83333V7C12.026 7.46671 12.026 7.70007 12.1169 7.87833C12.1968 8.03513 12.3242 8.16261 12.481 8.24251C12.6593 8.33333 12.8927 8.33333 13.3594 8.33333H16.526C16.9928 8.33333 17.2261 8.33333 17.4044 8.24251C17.5612 8.16261 17.6887 8.03513 17.7685 7.87833C17.8594 7.70007 17.8594 7.46671 17.8594 7V3.83333C17.8594 3.36662 17.8594 3.13327 17.7685 2.95501C17.6887 2.79821 17.5612 2.67072 17.4044 2.59083C17.2261 2.5 16.9928 2.5 16.526 2.5Z" stroke="#EDF2FE" stroke-width="2" stroke-linecap="round" stroke-linejoin="round"/>
<path d="M16.526 11.6667H13.3594C12.8927 11.6667 12.6593 11.6667 12.481 11.7575C12.3242 11.8374 12.1968 11.9649 12.1169 12.1217C12.026 12.2999 12.026 12.5333 12.026 13V16.1667C12.026 16.6334 12.026 16.8667 12.1169 17.045C12.1968 17.2018 12.3242 17.3293 12.481 17.4092C12.6593 17.5 12.8927 17.5 13.3594 17.5H16.526C16.9928 17.5 17.2261 17.5 17.4044 17.4092C17.5612 17.3293 17.6887 17.2018 17.7685 17.045C17.8594 16.8667 17.8594 16.6334 17.8594 16.1667V13C17.8594 12.5333 17.8594 12.2999 17.7685 12.1217C17.6887 11.9649 17.5612 11.8374 17.4044 11.7575C17.2261 11.6667 16.9928 11.6667 16.526 11.6667Z" stroke="#EDF2FE" stroke-width="2" stroke-linecap="round" stroke-linejoin="round"/>
<path d="M7.35937 11.6667H4.19271C3.726 11.6667 3.49264 11.6667 3.31438 11.7575C3.15758 11.8374 3.0301 11.9649 2.9502 12.1217C2.85938 12.2999 2.85938 12.5333 2.85938 13V16.1667C2.85938 16.6334 2.85938 16.8667 2.9502 17.045C3.0301 17.2018 3.15758 17.3293 3.31438 17.4092C3.49264 17.5 3.726 17.5 4.19271 17.5H7.35937C7.82609 17.5 8.05944 17.5 8.2377 17.4092C8.3945 17.3293 8.52199 17.2018 8.60188 17.045C8.69271 16.8667 8.69271 16.6334 8.69271 16.1667V13C8.69271 12.5333 8.69271 12.2999 8.60188 12.1217C8.52199 11.9649 8.3945 11.8374 8.2377 11.7575C8.05944 11.6667 7.82609 11.6667 7.35937 11.6667Z" stroke="#EDF2FE" stroke-width="2" stroke-linecap="round" stroke-linejoin="round"/>
</svg>
