<svg width="136" height="36" viewBox="0 0 136 36" fill="none" xmlns="http://www.w3.org/2000/svg">
<path d="M33.5338 25.9279C33.5338 25.9279 35.866 25.1267 36.2545 22.4457C36.6431 19.7648 33.5849 19.3412 33.5849 19.3412C35.2832 18.2447 35.1156 16.0328 35.1156 16.0328C35.5893 12.0674 32.5087 11.5685 32.5087 11.5685C32.5087 11.5685 33.8539 10.2933 33.5138 8.39384C32.8529 4.70121 29.1862 5.2431 29.1862 5.2431C29.0173 3.35122 27.7532 1.73571 25.9667 1.24528C25.9397 1.23774 25.9127 1.23052 25.8856 1.22364C24.0598 0.743376 22.1231 1.54753 21.0563 3.16305L20.9065 3.39024C20.8641 3.15486 20.7729 2.90834 20.6568 2.66673C20.057 1.41739 18.9191 0.53455 17.6013 0.183449C14.47 -0.650538 12.6919 1.62949 12.6919 1.62949C11.567 -0.108312 8.50377 0.160169 8.50377 0.160169C1.74049 1.01088 2.63238 7.89947 2.63238 7.89947C2.63238 7.89947 -0.207516 5.60895 -2.73866 9.91166C-5.27013 14.214 -1.66919 17.7605 -1.66919 17.7605C-2.29872 17.9375 -2.99267 19.0695 -2.99267 19.0695C-4.94535 23.462 0.618286 25.3621 0.618286 25.3621C-1.8985 29.673 3.7349 30.1346 3.7349 30.1346C4.04799 32.6424 6.21129 30.8863 6.21129 30.8863C5.77269 33.9272 8.19635 32.7568 8.19635 32.7568C8.55084 34.6199 10.3026 32.8614 10.3026 32.8614L10.6267 32.8349C10.5926 33.6016 11.1421 34.2888 11.9325 34.4107C12.6301 34.5182 13.286 34.1488 13.5741 33.5525C13.9042 34.2681 14.6275 34.8264 15.5368 34.9667C16.8906 35.1755 18.1437 34.3809 18.3673 33.1866C18.5766 33.5629 18.9501 33.8462 19.4147 33.9176C20.0453 34.015 20.6398 33.6954 20.9225 33.1705C21.7463 35.5591 23.8275 33.9324 23.8275 33.9324C25.436 35.3332 26.3586 33.4584 26.3586 33.4584C26.3586 33.4584 27.8013 34.8762 29.7519 32.788C30.8454 31.6173 30.1318 29.4097 30.1318 29.4097C30.1318 29.4097 31.9112 31.0856 33.5017 29.5336C35.2605 27.8168 33.5338 25.9279 33.5338 25.9279Z" fill="#1A0000" stroke="#1A0000" stroke-width="0.298591" stroke-miterlimit="10" stroke-linecap="round"/>
<path d="M-0.177949 3.45403C0.25431 3.42485 0.799057 3.45402 0.811074 4.00182C0.815747 4.21884 0.734971 4.46766 0.622817 4.65288C0.561399 4.75418 0.490299 4.85842 0.367798 4.89711C0.140486 4.9689 0.0273307 4.72926 0.135479 4.55814C0.364794 4.19589 1.001 4.25096 1.25068 4.54961C1.49768 4.84466 1.35015 5.34196 0.970961 5.44097C1.00835 5.50424 1.04606 5.56751 1.08345 5.63078C1.38119 5.40425 1.76805 5.6534 1.84649 5.96615C1.88888 6.13465 1.86352 6.31495 1.80243 6.47592C1.75971 6.58869 1.68861 6.69064 1.70397 6.81686C1.73267 7.05322 2.01573 7.23319 2.14257 7.41972C2.32081 7.68198 2.4323 7.9731 2.48971 8.28224C2.51641 8.42582 2.73905 8.36484 2.71268 8.22191C2.64492 7.85606 2.50006 7.5102 2.27475 7.21057C2.11753 7.00142 1.92059 6.90832 1.99703 6.60311C2.03976 6.4333 2.10284 6.29398 2.09683 6.11335C2.07747 5.52982 1.44161 5.07348 0.919891 5.47015C0.824093 5.54293 0.929568 5.68684 1.03238 5.65995C1.47565 5.5439 1.71098 5.04005 1.55576 4.62272C1.3882 4.17131 0.816078 3.98904 0.375473 4.12935C0.153168 4.20016 -0.0704723 4.36013 -0.129553 4.59354C-0.18029 4.79384 -0.0958395 5.02365 0.105103 5.10594C0.659864 5.33345 0.985313 4.55093 1.03271 4.14639C1.06642 3.85889 0.992319 3.56581 0.746649 3.38748C0.483955 3.19668 0.132474 3.20684 -0.177618 3.2275C-0.325488 3.237 -0.32682 3.46386 -0.177949 3.45403Z" fill="#1A0000"/>
<path d="M36.3054 8.97801C35.8398 8.681 35.2179 8.47807 34.8698 9.04488C34.6455 9.41041 34.4959 10.1916 34.9706 10.4349C35.1648 10.5345 35.3868 10.4762 35.5116 10.3021C35.6592 10.0962 35.6088 9.82806 35.4759 9.62841C35.2116 9.23142 34.6241 9.04227 34.1948 9.29699C33.7703 9.54908 33.6851 10.1844 34.0433 10.5227C34.1444 10.6181 34.2736 10.4981 34.2249 10.385C33.9575 9.76446 33.122 9.95755 32.8577 10.4667C32.7826 10.6109 32.7622 10.7568 32.7322 10.9128C32.6814 11.1761 32.4174 11.1856 32.2085 11.2771C31.8573 11.4308 31.5542 11.6662 31.3112 11.9576C31.2178 12.0697 31.3803 12.2313 31.4748 12.1182C31.6824 11.8691 31.9307 11.6645 32.2245 11.52C32.4398 11.4141 32.8099 11.3924 32.9211 11.1499C32.9695 11.0446 32.9551 10.9207 32.9785 10.8096C33.0109 10.6545 33.081 10.5011 33.1951 10.3873C33.4415 10.1418 33.8794 10.1605 34.0256 10.4998C34.086 10.4539 34.1464 10.408 34.2072 10.3624C33.9538 10.1231 34.0153 9.67595 34.312 9.49302C34.6765 9.26846 35.279 9.51105 35.3604 9.93264C35.3875 10.0736 35.3367 10.2969 35.1221 10.2519C34.9402 10.2139 34.9041 9.98804 34.9001 9.84183C34.8951 9.65661 34.9335 9.45959 35.0053 9.28846C35.0901 9.08619 35.2393 8.91211 35.4769 8.89474C35.7363 8.87605 35.9823 9.04161 36.1896 9.17372C36.3138 9.25371 36.4299 9.05735 36.3054 8.97801Z" fill="#1A0000"/>
<path d="M4.61398 28.824L4.09093 28.036L3.52916 28.7211L3.66167 27.6357L3.04883 27.2577L3.82056 27.222L4.19173 26.4395L4.42238 27.2669L5.20913 27.4196L4.58928 27.755L4.61398 28.824Z" fill="white" stroke="white" stroke-width="0.0711279" stroke-miterlimit="10" stroke-linecap="round"/>
<path d="M4.05664 20.1364C4.05664 20.1364 4.05297 8.7192 15.2533 9.68826C25.8699 10.6068 23.8748 24.6653 21.0713 26.0808L20.8841 26.4408C20.8841 26.4408 22.6061 18.1609 18.868 14.0241C16.432 11.3284 12.335 10.9714 9.35124 13.0698C7.79677 14.1631 5.51431 17.1138 4.05664 20.1364Z" fill="#FFD44D" stroke="#FFD44D" stroke-width="0.272303" stroke-miterlimit="10"/>
<mask id="mask0_739_7608" style="mask-type:luminance" maskUnits="userSpaceOnUse" x="3" y="14" width="23" height="19">
<path d="M24.8387 24.7941C24.3053 24.2368 23.5453 24.2637 22.8674 24.5243C22.5219 24.6571 22.1984 24.8407 21.888 25.0387C21.7018 25.1574 21.3309 25.5898 21.1036 25.5429C20.9467 25.5108 20.9224 25.2564 20.8743 25.1351C20.4527 24.0706 19.5448 23.0829 18.8171 22.2079C18.0007 21.2267 17.1291 20.2918 16.261 19.3555C14.7796 17.758 13.4171 16.0022 12.5078 14.0234C12.2241 14.2736 11.6543 14.7778 11.5368 14.8977C10.4033 16.0563 9.16822 17.1365 7.83673 18.0718C7.21922 18.5055 6.57634 18.9093 5.8914 19.2326C5.28189 19.5204 4.61865 19.7591 3.93438 19.7656C3.93004 19.7656 3.92703 19.7637 3.92269 19.7633C3.76715 20.2498 3.64531 20.7517 3.56187 21.2674C2.56884 27.3984 5.7719 31.6221 11.5405 32.5118C14.9455 33.037 18.2243 31.669 20.3522 29.1804C21.1817 30.0066 22.8113 29.7463 24.0393 28.5733C25.293 27.3764 25.749 25.7458 24.8387 24.7941Z" fill="white"/>
</mask>
<g mask="url(#mask0_739_7608)">
<path d="M24.8387 24.7941C24.3053 24.2368 23.5453 24.2637 22.8674 24.5243C22.5219 24.6571 22.1984 24.8407 21.888 25.0387C21.7018 25.1574 21.3309 25.5898 21.1036 25.5429C20.9467 25.5108 20.9224 25.2564 20.8743 25.1351C20.4527 24.0706 19.5448 23.0829 18.8171 22.2079C18.0007 21.2267 17.1291 20.2918 16.261 19.3555C14.7796 17.758 13.4171 16.0022 12.5078 14.0234C12.2241 14.2736 11.6543 14.7778 11.5368 14.8977C10.4033 16.0563 9.16822 17.1365 7.83673 18.0718C7.21922 18.5055 6.57634 18.9093 5.8914 19.2326C5.28189 19.5204 4.61865 19.7591 3.93438 19.7656C3.93004 19.7656 3.92703 19.7637 3.92269 19.7633C3.76715 20.2498 3.64531 20.7517 3.56187 21.2674C2.56884 27.3984 5.7719 31.6221 11.5405 32.5118C14.9455 33.037 18.2243 31.669 20.3522 29.1804C21.1817 30.0066 22.8113 29.7463 24.0393 28.5733C25.293 27.3764 25.749 25.7458 24.8387 24.7941Z" fill="#CD5428" stroke="#CD5428" stroke-width="0.280389" stroke-miterlimit="10"/>
</g>
<mask id="mask1_739_7608" style="mask-type:luminance" maskUnits="userSpaceOnUse" x="3" y="14" width="23" height="19">
<path d="M24.8387 24.7941C24.3053 24.2368 23.5453 24.2637 22.8674 24.5243C22.5219 24.6571 22.1984 24.8407 21.888 25.0387C21.7018 25.1574 21.3309 25.5898 21.1036 25.5429C20.9467 25.5108 20.9224 25.2564 20.8743 25.1351C20.4527 24.0706 19.5448 23.0829 18.8171 22.2079C18.0007 21.2267 17.1291 20.2918 16.261 19.3555C14.7796 17.758 13.4171 16.0022 12.5078 14.0234C12.2241 14.2736 11.6543 14.7778 11.5368 14.8977C10.4033 16.0563 9.16822 17.1365 7.83673 18.0718C7.21922 18.5055 6.57634 18.9093 5.8914 19.2326C5.28189 19.5204 4.61865 19.7591 3.93438 19.7656C3.93004 19.7656 3.92703 19.7637 3.92269 19.7633C3.76715 20.2498 3.64531 20.7517 3.56187 21.2674C2.56884 27.3984 5.7719 31.6221 11.5405 32.5118C14.9455 33.037 18.2243 31.669 20.3522 29.1804C21.1817 30.0066 22.8113 29.7463 24.0393 28.5733C25.293 27.3764 25.749 25.7458 24.8387 24.7941Z" fill="white"/>
</mask>
<g mask="url(#mask1_739_7608)">
<path opacity="0.49" d="M17.734 29.368C17.2297 30.7681 15.6652 31.5015 14.2396 31.0061C12.8139 30.5108 12.0672 28.9743 12.5716 27.5741C13.076 26.174 14.6405 25.4406 16.0661 25.936C17.4917 26.4313 18.2384 27.9678 17.734 29.368Z" fill="#8B2A0C" stroke="#8B2A0C" stroke-width="0.337564" stroke-miterlimit="10"/>
</g>
<mask id="mask2_739_7608" style="mask-type:luminance" maskUnits="userSpaceOnUse" x="3" y="14" width="23" height="19">
<path d="M24.8387 24.7941C24.3053 24.2368 23.5453 24.2637 22.8674 24.5243C22.5219 24.6571 22.1984 24.8407 21.888 25.0387C21.7018 25.1574 21.3309 25.5898 21.1036 25.5429C20.9467 25.5108 20.9224 25.2564 20.8743 25.1351C20.4527 24.0706 19.5448 23.0829 18.8171 22.2079C18.0007 21.2267 17.1291 20.2918 16.261 19.3555C14.7796 17.758 13.4171 16.0022 12.5078 14.0234C12.2241 14.2736 11.6543 14.7778 11.5368 14.8977C10.4033 16.0563 9.16822 17.1365 7.83673 18.0718C7.21922 18.5055 6.57634 18.9093 5.8914 19.2326C5.28189 19.5204 4.61865 19.7591 3.93438 19.7656C3.93004 19.7656 3.92703 19.7637 3.92269 19.7633C3.76715 20.2498 3.64531 20.7517 3.56187 21.2674C2.56884 27.3984 5.7719 31.6221 11.5405 32.5118C14.9455 33.037 18.2243 31.669 20.3522 29.1804C21.1817 30.0066 22.8113 29.7463 24.0393 28.5733C25.293 27.3764 25.749 25.7458 24.8387 24.7941Z" fill="white"/>
</mask>
<g mask="url(#mask2_739_7608)">
<path opacity="0.49" d="M6.86493 27.1751C6.41365 28.4281 5.01339 29.0847 3.73731 28.6412C2.46156 28.1979 1.79298 26.8227 2.24459 25.5694C2.69588 24.3165 4.09613 23.6599 5.37222 24.1034C6.64797 24.5466 7.31622 25.9219 6.86493 27.1751Z" fill="#8B2A0C" stroke="#8B2A0C" stroke-width="0.302111" stroke-miterlimit="10"/>
</g>
<mask id="mask3_739_7608" style="mask-type:luminance" maskUnits="userSpaceOnUse" x="3" y="14" width="23" height="19">
<path d="M24.8387 24.7941C24.3053 24.2368 23.5453 24.2637 22.8674 24.5243C22.5219 24.6571 22.1984 24.8407 21.888 25.0387C21.7018 25.1574 21.3309 25.5898 21.1036 25.5429C20.9467 25.5108 20.9224 25.2564 20.8743 25.1351C20.4527 24.0706 19.5448 23.0829 18.8171 22.2079C18.0007 21.2267 17.1291 20.2918 16.261 19.3555C14.7796 17.758 13.4171 16.0022 12.5078 14.0234C12.2241 14.2736 11.6543 14.7778 11.5368 14.8977C10.4033 16.0563 9.16822 17.1365 7.83673 18.0718C7.21922 18.5055 6.57634 18.9093 5.8914 19.2326C5.28189 19.5204 4.61865 19.7591 3.93438 19.7656C3.93004 19.7656 3.92703 19.7637 3.92269 19.7633C3.76715 20.2498 3.64531 20.7517 3.56187 21.2674C2.56884 27.3984 5.7719 31.6221 11.5405 32.5118C14.9455 33.037 18.2243 31.669 20.3522 29.1804C21.1817 30.0066 22.8113 29.7463 24.0393 28.5733C25.293 27.3764 25.749 25.7458 24.8387 24.7941Z" fill="white"/>
</mask>
<g mask="url(#mask3_739_7608)">
<path d="M22.4509 30.5741L21.9282 29.786L21.3661 30.4711L21.4986 29.3854L20.8857 29.0074L21.6575 28.972L22.0286 28.1895L22.2596 29.0169L23.046 29.1697L22.4262 29.505L22.4509 30.5741Z" fill="white" stroke="white" stroke-width="0.0711279" stroke-miterlimit="10" stroke-linecap="round"/>
<path d="M21.9082 25.9405C22.3111 25.5839 22.7767 25.2741 23.3332 25.1315C23.6079 25.062 23.927 25.0469 24.2227 25.1787C24.5158 25.3183 24.7251 25.5753 24.7995 25.8943C24.8602 26.2162 24.7568 26.5129 24.6309 26.7634C24.4957 27.0138 24.3309 27.2377 24.1453 27.44C23.7771 27.8465 23.3482 28.1858 22.8862 28.4684C23.2644 28.0855 23.6222 27.6898 23.939 27.2758C24.0912 27.065 24.2391 26.8526 24.3409 26.6257C24.4447 26.4034 24.5128 26.1644 24.4664 25.9589C24.4297 25.7609 24.2718 25.556 24.0815 25.4616C23.8869 25.3567 23.6352 25.3514 23.3859 25.3859C22.8832 25.4695 22.3839 25.6891 21.9082 25.9405Z" fill="#8B2A0C"/>
<path d="M20.334 29.2029C20.4585 29.038 20.5523 28.8544 20.6414 28.6711C20.7289 28.4865 20.8066 28.2971 20.8731 28.104C21.0142 27.7204 21.1167 27.3241 21.2192 26.9258C21.1945 27.1297 21.1614 27.3329 21.1147 27.5339C21.0667 27.7342 21.0102 27.9329 20.9415 28.1276C20.797 28.5125 20.622 28.9003 20.334 29.2029Z" fill="#8B2A0C"/>
<path d="M12.4797 13.6297C12.1109 13.7936 11.7631 14.0461 11.6052 14.4247C11.473 14.7414 11.4863 15.1413 11.7287 15.4055C11.9383 15.634 12.3385 15.7393 12.5732 15.4859C12.7528 15.2918 12.7568 14.9528 12.5064 14.8148C12.187 14.6388 11.7287 14.7958 11.4773 15.0181C11.204 15.26 11.0841 15.6498 11.1639 16.0012C11.236 16.3192 11.5281 16.6198 11.8832 16.5064C12.1713 16.4146 12.2684 16.015 11.968 15.872C11.6242 15.7085 11.229 15.9671 11.0865 16.274C10.8959 16.6834 11.1092 17.1351 11.3845 17.4495C11.4763 17.5544 11.6302 17.402 11.5391 17.2978C11.3415 17.0722 11.1699 16.7572 11.2527 16.4507C11.2887 16.3176 11.3772 16.1959 11.494 16.1192C11.5711 16.0687 11.9693 15.9343 11.9353 16.1831C11.9086 16.3779 11.6215 16.3169 11.5294 16.234C11.4106 16.1268 11.3632 15.9573 11.3582 15.8035C11.3485 15.5042 11.509 15.2184 11.7744 15.0708C11.9446 14.9761 12.5375 14.8341 12.4834 15.1961C12.4296 15.5567 11.978 15.4069 11.8388 15.1934C11.4576 14.6079 12.0975 14.0339 12.5909 13.8146C12.718 13.7582 12.6072 13.5733 12.4797 13.6297Z" fill="#1A0000"/>
<path d="M8.76367 24.4935C8.85313 24.2355 9.01335 23.9919 9.24534 23.8152C9.47265 23.6362 9.78641 23.5356 10.0865 23.5733C10.2344 23.5897 10.3846 23.631 10.5197 23.7051C10.6509 23.7857 10.7654 23.8933 10.8409 24.0218C10.9967 24.2768 11.0221 24.5732 10.9747 24.8407C10.932 24.5732 10.8422 24.3165 10.6896 24.1224C10.5371 23.927 10.3121 23.8228 10.0625 23.8021C9.81612 23.768 9.56944 23.8359 9.34914 23.9624C9.12984 24.0929 8.93224 24.2778 8.76367 24.4935Z" fill="#8B2A0C"/>
<g opacity="0.53">
<path d="M8.77734 24.4943C8.77734 24.4943 9.29839 23.5246 10.2477 23.7607C11.0628 23.9633 10.9734 24.9231 10.9734 24.9231" fill="#8B2A0C"/>
<path d="M8.77734 24.495C8.87648 24.2406 9.04638 24.0033 9.28471 23.8351C9.5187 23.665 9.83613 23.5758 10.1345 23.6246C10.2817 23.6466 10.4299 23.6931 10.5625 23.7725C10.6906 23.8577 10.8008 23.9698 10.8712 24.1006C11.0174 24.3613 11.0311 24.6586 10.9734 24.9238C10.941 24.655 10.8612 24.395 10.716 24.1957C10.5711 23.9947 10.3502 23.8823 10.1015 23.8521C9.85683 23.8089 9.60748 23.8675 9.38251 23.9859C9.15853 24.1085 8.95392 24.2859 8.77734 24.495Z" fill="#8B2A0C"/>
</g>
<path d="M3.96183 21.8308C3.87538 23.2293 4.96788 24.4301 6.40185 24.5124C7.83581 24.5947 9.06817 23.528 9.15429 22.1295C9.24074 20.731 8.14824 19.5301 6.71427 19.4479C5.28064 19.3652 4.04828 20.4323 3.96183 21.8308Z" fill="white"/>
<path d="M5.22597 21.3514C5.03171 22.4119 5.67592 23.4243 6.66528 23.6128C7.65464 23.8013 8.61396 23.0941 8.80856 22.0339C9.00316 20.9738 8.3586 19.9611 7.36924 19.7726C6.37989 19.5841 5.42024 20.2909 5.22597 21.3514Z" fill="#280707" stroke="#280707" stroke-width="0.282609" stroke-miterlimit="10"/>
<path d="M9.2162 21.6125C9.08001 21.3332 8.9278 21.064 8.74355 20.8221C8.56531 20.5775 8.37104 20.348 8.1444 20.1608C7.91375 19.9796 7.66574 19.8334 7.40304 19.7298C7.13401 19.6429 6.85663 19.5858 6.56924 19.5931C5.9851 19.5914 5.41098 19.7524 4.95836 20.094C4.48838 20.4231 4.17795 20.9647 3.99437 21.5292L3.96366 21.6239L3.89122 21.5967C3.71965 21.5325 3.54942 21.464 3.38086 21.3892L3.38853 21.3623L3.91726 21.504L3.89723 21.5171C4.00839 20.9057 4.31013 20.3149 4.80081 19.911C5.28781 19.5059 5.93603 19.3095 6.56924 19.3187C6.88834 19.3174 7.20511 19.3803 7.50185 19.4944C7.79358 19.6203 8.06095 19.796 8.29126 20.0117C8.74122 20.4536 9.05932 21.0112 9.24391 21.6062L9.2162 21.6125Z" fill="black"/>
<path d="M3.98739 21.1518L3.49805 20.7627L4.11523 20.8837L3.98739 21.1518Z" fill="black"/>
<path d="M4.23244 20.5835L3.82422 20.1387L4.39967 20.337L4.23244 20.5835Z" fill="black"/>
<path d="M8.42602 23.8639C8.10825 24.119 7.73474 24.3098 7.33686 24.433C6.93932 24.5576 6.5094 24.6041 6.08648 24.5504C5.87352 24.5284 5.67024 24.4589 5.46863 24.3914C5.28037 24.2924 5.08344 24.2091 4.92522 24.0678C4.74898 23.9514 4.6178 23.7875 4.47894 23.6367C4.35177 23.4761 4.24929 23.2974 4.14648 23.126C4.42887 23.4184 4.70525 23.7052 5.04305 23.9039C5.36816 24.1167 5.73767 24.2527 6.12119 24.2957C6.50339 24.3488 6.89759 24.3189 7.28446 24.2396C7.67032 24.1544 8.05551 24.0337 8.42602 23.8639Z" fill="black"/>
<path d="M18.0384 24.3087C17.6712 25.756 16.1274 26.6418 14.59 26.2874C13.0525 25.9327 12.1036 24.4719 12.4704 23.0246C12.8376 21.5772 14.3814 20.6914 15.9191 21.0458C17.4566 21.4002 18.4052 22.861 18.0384 24.3087Z" fill="white"/>
<path d="M18.031 23.648C17.8911 24.7662 16.9041 25.5845 15.8259 25.4759C14.7478 25.3674 13.9871 24.3728 14.1269 23.2546C14.2668 22.1364 15.2538 21.3181 16.332 21.4267C17.4101 21.5355 18.1708 22.5298 18.031 23.648Z" fill="#280707" stroke="#280707" stroke-width="0.299669" stroke-miterlimit="10"/>
<path d="M12.584 22.57C12.8911 21.9714 13.3771 21.456 13.9956 21.1036C14.3053 20.9266 14.6575 20.8158 15.0217 20.7702C15.3862 20.7394 15.7603 20.759 16.1112 20.859C16.8031 21.038 17.4477 21.4685 17.8556 22.071C18.0585 22.3733 18.1643 22.724 18.2217 23.0666C18.2805 23.4128 18.2668 23.7587 18.1817 24.0986L18.0976 23.9976C18.2935 24.0212 18.4894 24.0494 18.685 24.0845L18.6844 24.114L18.0949 24.1006L18.0762 24.1002L18.0785 24.0809C18.1573 23.4361 18.0201 22.7512 17.6423 22.2133C17.2637 21.674 16.6666 21.3124 16.0294 21.1364C15.7123 21.0377 15.3771 21.0138 15.0467 21.0331C14.7172 21.0702 14.3948 21.1603 14.0944 21.3016C13.5006 21.5966 12.9915 22.0523 12.6093 22.586L12.584 22.57Z" fill="black"/>
<path d="M18.0918 23.3838L18.7647 23.4507L18.1359 23.6949L18.0918 23.3838Z" fill="black"/>
<path d="M17.9766 22.7534L18.6301 22.7305L18.0657 23.055L17.9766 22.7534Z" fill="black"/>
<path d="M12.7002 25.0723C12.8668 25.2119 13.0333 25.347 13.2142 25.4624C13.3871 25.5866 13.5697 25.6968 13.7573 25.7935C14.1325 25.9856 14.5274 26.1341 14.9366 26.1941C15.3442 26.2659 15.7651 26.2393 16.168 26.1279C16.5802 26.0354 16.9527 25.8236 17.3389 25.6194C17.1767 25.7607 17.0131 25.9099 16.8302 26.0321C16.6379 26.1397 16.449 26.261 16.233 26.3275C16.0268 26.4236 15.7984 26.4459 15.5748 26.4885C15.3478 26.4954 15.1182 26.5045 14.8935 26.4629C14.4446 26.3901 14.017 26.219 13.6478 25.9722C13.2793 25.7269 12.9475 25.4296 12.7002 25.0723Z" fill="black"/>
<path opacity="0.49" d="M11.2879 25.8658C11.2144 26.3215 10.7368 27.1388 9.674 26.9968C8.93899 26.8988 8.46134 26.0661 8.53477 25.6104C8.53477 25.6104 9.24241 25.4649 9.98676 25.5095C10.5041 25.5406 11.2879 25.8658 11.2879 25.8658Z" fill="#8B2A0C"/>
<path d="M8.05664 25.1982C8.33102 25.4297 8.62008 25.629 8.92216 25.7903C9.22591 25.9477 9.54735 26.0614 9.87647 26.0922C10.2036 26.1276 10.5417 26.0922 10.8588 25.9699C11.0254 25.9283 11.1706 25.8323 11.3321 25.7641C11.4863 25.6821 11.6299 25.5802 11.7924 25.4952C11.6753 25.6287 11.5534 25.7644 11.4163 25.8844C11.266 25.9863 11.1279 26.1158 10.9516 26.1833C10.6222 26.3633 10.2239 26.425 9.84409 26.3879C9.46223 26.346 9.10041 26.1997 8.79833 25.987C8.49624 25.7742 8.23555 25.5097 8.05664 25.1982Z" fill="#3B130E"/>
<path d="M4.82163 18.6806C4.89105 18.3449 5.08365 18.0368 5.34301 17.7994C5.59836 17.5545 5.92147 17.3831 6.25893 17.2713C6.60174 17.1752 6.95689 17.1372 7.3027 17.1716C7.47527 17.1825 7.64349 17.2287 7.80939 17.2638C7.97128 17.3264 8.13217 17.3769 8.28371 17.4559L8.28704 17.4575C8.29439 17.4614 8.29706 17.4703 8.29339 17.4772C8.29039 17.4828 8.28404 17.4857 8.27803 17.4847L7.79404 17.4195C7.63148 17.4155 7.46892 17.3978 7.3067 17.4051C6.98192 17.4133 6.65881 17.4614 6.34972 17.5549C5.73654 17.7427 5.16676 18.1351 4.84933 18.6934C4.84532 18.7006 4.83598 18.7032 4.82897 18.699C4.82296 18.6957 4.82029 18.6891 4.82163 18.6832V18.6806Z" fill="#2E2E2E"/>
<path d="M18.5152 20.5906C18.3293 20.3156 18.1116 20.092 17.893 19.8888C17.6684 19.6904 17.4307 19.5186 17.1717 19.3757C17.0408 19.3059 16.9107 19.2344 16.7691 19.1807C16.6353 19.1085 16.4864 19.0722 16.3436 19.0099L15.4203 18.7037L15.4153 18.702C15.4076 18.6994 15.4036 18.6912 15.4059 18.6837C15.4083 18.6775 15.4143 18.6735 15.4206 18.6738L15.9113 18.7024C16.0728 18.7296 16.2371 18.7437 16.3966 18.782C16.7174 18.8528 17.0292 18.963 17.3202 19.1171C17.8873 19.4426 18.3586 19.9573 18.5442 20.5841C18.5466 20.5916 18.5419 20.5995 18.5342 20.6018C18.5279 20.6034 18.5215 20.6011 18.5182 20.5959L18.5152 20.5906Z" fill="#2E2E2E"/>
</g>
<path d="M53.3904 27.932C54.2384 27.932 54.8464 27.78 55.2144 27.476C55.5984 27.156 55.7904 26.78 55.7904 26.348C55.7904 25.948 55.6384 25.628 55.3344 25.388C55.0464 25.132 54.6144 24.908 54.0384 24.716L52.7664 24.308C51.9024 24.02 51.1424 23.7 50.4864 23.348C49.8304 22.996 49.3184 22.548 48.9504 22.004C48.5824 21.444 48.3984 20.732 48.3984 19.868C48.3984 18.54 48.9024 17.484 49.9104 16.7C50.9184 15.916 52.3184 15.524 54.1104 15.524C55.0224 15.524 55.8304 15.612 56.5344 15.788C57.2544 15.964 57.8144 16.228 58.2144 16.58C58.6304 16.916 58.8384 17.332 58.8384 17.828C58.8384 18.18 58.7504 18.492 58.5744 18.764C58.3984 19.036 58.1904 19.26 57.9504 19.436C57.5824 19.196 57.0864 18.98 56.4624 18.788C55.8544 18.596 55.1904 18.5 54.4704 18.5C53.7024 18.5 53.1184 18.628 52.7184 18.884C52.3344 19.14 52.1424 19.468 52.1424 19.868C52.1424 20.188 52.2704 20.452 52.5264 20.66C52.7984 20.852 53.1904 21.028 53.7024 21.188L55.0224 21.62C56.4784 22.068 57.5984 22.66 58.3824 23.396C59.1664 24.132 59.5584 25.124 59.5584 26.372C59.5584 27.716 59.0384 28.812 57.9984 29.66C56.9584 30.492 55.4544 30.908 53.4864 30.908C52.5104 30.908 51.6384 30.796 50.8704 30.572C50.1024 30.364 49.4944 30.068 49.0464 29.684C48.5984 29.284 48.3744 28.82 48.3744 28.292C48.3744 27.876 48.4944 27.524 48.7344 27.236C48.9744 26.948 49.2464 26.724 49.5504 26.564C49.9824 26.916 50.5184 27.236 51.1584 27.524C51.8144 27.796 52.5584 27.932 53.3904 27.932ZM61.357 20.372H65.005V30.476C64.845 30.508 64.605 30.548 64.285 30.596C63.981 30.644 63.661 30.668 63.325 30.668C62.605 30.668 62.093 30.54 61.789 30.284C61.501 30.028 61.357 29.588 61.357 28.964V20.372ZM65.005 24.932H61.357V15.908C61.533 15.876 61.781 15.836 62.101 15.788C62.421 15.74 62.741 15.716 63.061 15.716C63.749 15.716 64.245 15.836 64.549 16.076C64.853 16.316 65.005 16.764 65.005 17.42V24.932ZM77.3157 26.876C77.1237 27.004 76.8837 27.124 76.5957 27.236C76.3077 27.332 75.9717 27.38 75.5877 27.38C75.0917 27.38 74.6757 27.316 74.3397 27.188C74.0197 27.06 73.8037 26.844 73.6917 26.54C73.1477 25.02 72.6837 23.748 72.2997 22.724C71.9317 21.7 71.6437 20.82 71.4357 20.084H71.3157C71.2677 21.092 71.2277 22.02 71.1957 22.868C71.1637 23.716 71.1317 24.532 71.0997 25.316C71.0837 26.1 71.0597 26.908 71.0277 27.74C70.9957 28.556 70.9557 29.452 70.9077 30.428C70.7157 30.476 70.4757 30.524 70.1877 30.572C69.8997 30.636 69.6117 30.668 69.3237 30.668C68.7157 30.668 68.2437 30.572 67.9077 30.38C67.5717 30.172 67.4037 29.812 67.4037 29.3C67.4037 28.948 67.4197 28.428 67.4517 27.74C67.4837 27.036 67.5237 26.236 67.5717 25.34C67.6357 24.428 67.6997 23.468 67.7637 22.46C67.8277 21.452 67.8917 20.46 67.9557 19.484C68.0357 18.492 68.0997 17.58 68.1477 16.748C68.2757 16.556 68.5317 16.364 68.9157 16.172C69.2997 15.964 69.8277 15.86 70.4997 15.86C71.2197 15.86 71.7957 15.98 72.2277 16.22C72.6597 16.444 72.9717 16.812 73.1637 17.324C73.4037 17.916 73.6597 18.596 73.9317 19.364C74.2037 20.116 74.4757 20.884 74.7477 21.668C75.0197 22.436 75.2677 23.14 75.4917 23.78H75.6117C76.0757 22.356 76.5397 20.972 77.0037 19.628C77.4677 18.284 77.8757 17.156 78.2277 16.244C78.4357 16.132 78.7077 16.044 79.0437 15.98C79.3957 15.9 79.7637 15.86 80.1477 15.86C80.8357 15.86 81.3877 15.964 81.8037 16.172C82.2357 16.364 82.4917 16.66 82.5717 17.06C82.6357 17.364 82.6997 17.844 82.7637 18.5C82.8437 19.156 82.9237 19.916 83.0037 20.78C83.0837 21.628 83.1637 22.524 83.2437 23.468C83.3237 24.396 83.3957 25.3 83.4597 26.18C83.5397 27.06 83.6037 27.86 83.6517 28.58C83.6997 29.284 83.7317 29.844 83.7477 30.26C83.5077 30.404 83.2517 30.508 82.9797 30.572C82.7237 30.636 82.3957 30.668 81.9957 30.668C81.4997 30.668 81.0677 30.58 80.6997 30.404C80.3317 30.212 80.1317 29.852 80.0997 29.324C80.0357 28.06 79.9797 26.86 79.9317 25.724C79.8837 24.588 79.8437 23.548 79.8117 22.604C79.7797 21.66 79.7477 20.86 79.7157 20.204H79.5957C79.3877 20.892 79.0917 21.764 78.7077 22.82C78.3397 23.86 77.8757 25.212 77.3157 26.876ZM93.635 21.764V24.356H88.283V21.764H93.635ZM91.835 24.356L92.123 22.364C93.451 22.364 94.547 22.524 95.411 22.844C96.291 23.164 96.955 23.612 97.403 24.188C97.851 24.764 98.075 25.46 98.075 26.276C98.075 27.828 97.499 28.98 96.347 29.732C95.195 30.484 93.555 30.86 91.427 30.86C91.043 30.86 90.603 30.844 90.107 30.812C89.627 30.78 89.131 30.724 88.619 30.644C88.123 30.564 87.667 30.452 87.251 30.308C86.419 30.004 86.003 29.468 86.003 28.7V17.228C86.003 16.908 86.091 16.668 86.267 16.508C86.443 16.332 86.683 16.188 86.987 16.076C87.531 15.9 88.187 15.772 88.955 15.692C89.723 15.612 90.515 15.572 91.331 15.572C93.299 15.572 94.827 15.916 95.915 16.604C97.003 17.276 97.547 18.316 97.547 19.724C97.547 20.492 97.323 21.148 96.875 21.692C96.427 22.236 95.771 22.652 94.907 22.94C94.059 23.212 93.027 23.348 91.811 23.348L91.643 21.764C92.427 21.764 93.003 21.612 93.371 21.308C93.739 21.004 93.923 20.572 93.923 20.012C93.923 19.484 93.707 19.076 93.275 18.788C92.843 18.5 92.203 18.356 91.355 18.356C91.051 18.356 90.723 18.364 90.371 18.38C90.035 18.396 89.763 18.428 89.555 18.476V27.836C89.811 27.916 90.139 27.972 90.539 28.004C90.939 28.02 91.315 28.028 91.667 28.028C92.483 28.028 93.131 27.876 93.611 27.572C94.107 27.268 94.355 26.788 94.355 26.132C94.355 25.524 94.139 25.076 93.707 24.788C93.291 24.5 92.667 24.356 91.835 24.356ZM100.025 20.372H103.673V30.476C103.513 30.508 103.273 30.548 102.953 30.596C102.649 30.644 102.329 30.668 101.993 30.668C101.273 30.668 100.761 30.54 100.457 30.284C100.169 30.028 100.025 29.588 100.025 28.964V20.372ZM103.673 24.932H100.025V15.908C100.201 15.876 100.449 15.836 100.769 15.788C101.089 15.74 101.409 15.716 101.729 15.716C102.417 15.716 102.913 15.836 103.217 16.076C103.521 16.316 103.673 16.764 103.673 17.42V24.932Z" fill="#7A5FFF"/>
</svg>
