<svg width="17" height="16" viewBox="0 0 17 16" fill="none" xmlns="http://www.w3.org/2000/svg">
<g id="image-03" clip-path="url(#clip0_1477_27130)">
<path id="Icon" d="M3.72637 13.5056L8.01412 9.21781C8.27153 8.9604 8.40024 8.8317 8.54865 8.78347C8.6792 8.74106 8.81982 8.74106 8.95037 8.78347C9.09879 8.8317 9.2275 8.96041 9.4849 9.21781L13.7441 13.477M10.0495 9.78242L11.9141 7.91781C12.1715 7.6604 12.3002 7.5317 12.4487 7.48347C12.5792 7.44106 12.7198 7.44106 12.8504 7.48347C12.9988 7.5317 13.1275 7.6604 13.3849 7.91781L15.2495 9.78242M7.44951 5.88242C7.44951 6.60039 6.86748 7.18242 6.14951 7.18242C5.43154 7.18242 4.84951 6.60039 4.84951 5.88242C4.84951 5.16445 5.43154 4.58242 6.14951 4.58242C6.86748 4.58242 7.44951 5.16445 7.44951 5.88242ZM5.36951 13.6824H12.1295C13.2216 13.6824 13.7677 13.6824 14.1848 13.4699C14.5517 13.2829 14.85 12.9846 15.037 12.6177C15.2495 12.2006 15.2495 11.6545 15.2495 10.5624V5.10242C15.2495 4.01032 15.2495 3.46427 15.037 3.04714C14.85 2.68022 14.5517 2.38191 14.1848 2.19496C13.7677 1.98242 13.2216 1.98242 12.1295 1.98242H5.36951C4.27741 1.98242 3.73136 1.98242 3.31423 2.19496C2.94731 2.38191 2.649 2.68022 2.46205 3.04714C2.24951 3.46427 2.24951 4.01032 2.24951 5.10242V10.5624C2.24951 11.6545 2.24951 12.2006 2.46205 12.6177C2.649 12.9846 2.94731 13.2829 3.31423 13.4699C3.73136 13.6824 4.27741 13.6824 5.36951 13.6824Z" stroke="#C1BCFF" stroke-width="1.56" stroke-linecap="round" stroke-linejoin="round"/>
</g>
<defs>
<clipPath id="clip0_1477_27130">
<rect width="15.6" height="15.6" fill="white" transform="translate(0.950195 0.0332031)"/>
</clipPath>
</defs>
</svg>
