<svg width="22" height="21" viewBox="0 0 22 21" fill="none" xmlns="http://www.w3.org/2000/svg">
<path d="M15.2344 19.875H5.57955C4.94849 19.875 4.63297 19.875 4.48686 19.7502C4.36008 19.6419 4.2928 19.4795 4.30588 19.3133C4.32096 19.1217 4.54407 18.8986 4.9903 18.4524L13.8475 9.59518C14.26 9.18266 14.4663 8.9764 14.7041 8.89912C14.9134 8.83114 15.1387 8.83114 15.3479 8.89912C15.5858 8.9764 15.792 9.18266 16.2046 9.59518L20.2344 13.625V14.875M15.2344 19.875C16.9845 19.875 17.8596 19.875 18.5281 19.5344C19.1161 19.2348 19.5942 18.7567 19.8938 18.1687C20.2344 17.5002 20.2344 16.6252 20.2344 14.875M15.2344 19.875H6.48437C4.73421 19.875 3.85913 19.875 3.19065 19.5344C2.60265 19.2348 2.12458 18.7567 1.82498 18.1687C1.48438 17.5002 1.48438 16.6252 1.48438 14.875V6.125C1.48438 4.37484 1.48438 3.49975 1.82498 2.83128C2.12458 2.24327 2.60265 1.76521 3.19065 1.4656C3.85913 1.125 4.73421 1.125 6.48438 1.125H15.2344C16.9845 1.125 17.8596 1.125 18.5281 1.4656C19.1161 1.76521 19.5942 2.24327 19.8938 2.83128C20.2344 3.49975 20.2344 4.37484 20.2344 6.125V14.875M9.29687 6.85417C9.29687 8.00476 8.36413 8.9375 7.21354 8.9375C6.06295 8.9375 5.13021 8.00476 5.13021 6.85417C5.13021 5.70357 6.06295 4.77083 7.21354 4.77083C8.36413 4.77083 9.29687 5.70357 9.29687 6.85417Z" stroke="#EDF2FE" stroke-width="2" stroke-linecap="round" stroke-linejoin="round"/>
</svg>
