<svg width="41" height="42" viewBox="0 0 41 42" fill="none" xmlns="http://www.w3.org/2000/svg">
<path d="M20.7276 27.0914C24.4614 27.0914 27.4856 24.0673 27.4856 20.3335V11.0414C27.4856 7.30762 24.4614 4.28345 20.7276 4.28345C16.9939 4.28345 13.9697 7.30762 13.9697 11.0414V20.3335C13.9697 24.0673 16.9939 27.0914 20.7276 27.0914Z" stroke="#7A5FFF" stroke-width="2" stroke-linecap="round" stroke-linejoin="round"/>
<path d="M7.80176 17.2078V20.0799C7.80176 27.2095 13.5967 33.0044 20.7263 33.0044C27.8559 33.0044 33.6508 27.2095 33.6508 20.0799V17.2078" stroke="#7A5FFF" stroke-width="2" stroke-linecap="round" stroke-linejoin="round"/>
<path d="M18.3779 11.7678C19.8985 11.2102 21.5542 11.2102 23.0747 11.7678" stroke="#7A5FFF" stroke-width="2" stroke-linecap="round" stroke-linejoin="round"/>
<path d="M19.376 15.3493C20.2714 15.1127 21.2006 15.1127 22.096 15.3493" stroke="#7A5FFF" stroke-width="2" stroke-linecap="round" stroke-linejoin="round"/>
<path d="M20.7266 33.0044V38.0728" stroke="#7A5FFF" stroke-width="2" stroke-linecap="round" stroke-linejoin="round"/>
</svg>
