<svg width="25" height="24" viewBox="0 0 25 24" fill="none" xmlns="http://www.w3.org/2000/svg">
<g clip-path="url(#clip0_739_7853)">
<path d="M24.3594 17V7C24.3578 5.67441 23.8305 4.40356 22.8932 3.46622C21.9558 2.52888 20.685 2.00159 19.3594 2H5.35938C4.03378 2.00159 2.76293 2.52888 1.82559 3.46622C0.888256 4.40356 0.360962 5.67441 0.359375 7V17C0.360962 18.3256 0.888256 19.5964 1.82559 20.5338C2.76293 21.4711 4.03378 21.9984 5.35938 22H19.3594C20.685 21.9984 21.9558 21.4711 22.8932 20.5338C23.8305 19.5964 24.3578 18.3256 24.3594 17V17ZM22.3594 7V17C22.3594 17.7956 22.0433 18.5587 21.4807 19.1213C20.9181 19.6839 20.155 20 19.3594 20H7.35938V4H19.3594C20.155 4 20.9181 4.31607 21.4807 4.87868C22.0433 5.44129 22.3594 6.20435 22.3594 7ZM2.35938 17V7C2.35938 6.20435 2.67545 5.44129 3.23805 4.87868C3.80066 4.31607 4.56373 4 5.35938 4V11H4.35938C4.09416 11 3.8398 11.1054 3.65227 11.2929C3.46473 11.4804 3.35938 11.7348 3.35938 12C3.35938 12.2652 3.46473 12.5196 3.65227 12.7071C3.8398 12.8946 4.09416 13 4.35938 13H5.35938V20C4.56373 20 3.80066 19.6839 3.23805 19.1213C2.67545 18.5587 2.35938 17.7956 2.35938 17Z" fill="#FDFDFF"/>
</g>
<defs>
<clipPath id="clip0_739_7853">
<rect width="24" height="24" fill="white" transform="matrix(0 1 -1 0 24.3594 0)"/>
</clipPath>
</defs>
</svg>
