<svg width="78" height="117" viewBox="0 0 78 117" fill="none" xmlns="http://www.w3.org/2000/svg">
<path d="M26.4631 32.2669H26.4621C26.4621 32.2593 26.4631 32.2517 26.4631 32.2441C26.4631 31.2067 25.6223 30.3648 24.5838 30.3648C24.4502 30.3648 24.3199 30.3789 24.1949 30.406C23.8223 29.5001 22.9327 28.8613 21.892 28.8613C21.1109 28.8613 20.4146 29.222 19.9584 29.7847C19.6555 29.6307 19.3205 29.5503 18.9807 29.55C17.8564 29.55 16.933 30.406 16.8255 31.5021C15.6034 31.5673 14.6225 32.5689 14.6062 33.8127C14.5888 35.1076 15.6262 36.1721 16.9211 36.1884C17.0221 36.1895 17.1199 36.183 17.2176 36.171C17.7184 37.2269 18.7928 37.9569 20.0388 37.9569C20.7905 37.9569 21.4792 37.6908 22.018 37.2487C22.4297 37.5539 22.9381 37.7364 23.4899 37.7364C24.6219 37.7364 25.5746 36.9771 25.8711 35.9397C26.058 36.0016 26.2567 36.0363 26.4642 36.0363C27.5049 36.0363 28.349 35.1923 28.349 34.1516C28.3479 33.1109 27.5049 32.2669 26.4631 32.2669Z" fill="#E3EBEE"/>
<path d="M28.1251 33.207C28.552 33.6383 28.25 34.6268 27.9567 34.9495C27.3788 35.5828 26.3186 35.435 25.8927 35.3438C25.7776 35.3188 25.7591 35.3275 25.7211 35.3503C25.6874 35.3709 25.6722 35.4035 25.6353 35.4807C25.4984 35.7761 25.1443 36.3486 24.3969 36.5789C23.618 36.819 22.8837 36.4529 22.5404 36.2346C22.41 36.152 22.4046 36.1498 22.346 36.1509C22.2862 36.152 22.2275 36.1954 22.1569 36.2508C21.8463 36.4953 21.1369 36.9265 20.043 36.8635C18.9708 36.8016 18.3571 36.1411 18.1463 35.8011C18.1061 35.7359 18.0627 35.6816 18.0127 35.6762C17.9551 35.6708 17.891 35.7294 17.8432 35.7772C17.387 36.2215 15.9509 36.3551 15.4751 35.598C15.9596 36.3747 16.708 36.7592 17.4761 36.769C17.5771 36.7701 17.6749 36.7636 17.7726 36.7516C18.2734 37.8075 19.3478 38.5375 20.5937 38.5375C21.3455 38.5375 22.0342 38.2714 22.573 37.8292C22.9847 38.1345 23.4931 38.317 24.0449 38.317C25.1769 38.317 26.1295 37.5577 26.4261 36.5202C26.6129 36.5822 26.8117 36.6169 27.0192 36.6169C28.0599 36.6169 28.9039 35.7729 28.9039 34.7322C28.9018 34.1782 28.6237 33.5525 28.1251 33.207Z" fill="#B9CDD2"/>
<path d="M72.8933 45.4671C72.8933 45.4671 77.0317 43.4677 77.14 38.4006C77.2484 33.3335 71.4855 33.2148 71.4855 33.2148C74.3817 30.8052 73.5671 26.7317 73.5671 26.7317C73.5399 19.2585 67.7185 19.0054 67.7185 19.0054C67.7185 19.0054 69.92 16.3415 68.8563 12.8856C66.7892 6.1679 60.119 7.97724 60.119 7.97724C59.3745 4.49876 56.6637 1.77229 53.242 1.25145C53.1904 1.24334 53.1389 1.23581 53.0867 1.22885C49.5943 0.735817 46.1894 2.65408 44.5811 5.88981L44.3552 6.3446C44.2225 5.91646 43.9977 5.47788 43.7271 5.05437C42.3303 2.86381 40.021 1.47161 37.4996 1.10777C31.5079 0.242782 28.7333 4.86897 28.7333 4.86897C26.2525 1.88585 20.6379 3.055 20.6379 3.055C8.29983 6.11518 11.5246 18.7215 11.5246 18.7215C11.5246 18.7215 5.74022 15.086 2.03173 23.6356C-1.67676 32.1852 5.80452 37.9881 5.80452 37.9881C4.67883 38.4551 3.65104 40.7105 3.65104 40.7105C1.03523 49.3007 11.7772 51.6147 11.7772 51.6147C8.09763 60.1765 18.6408 59.8022 18.6408 59.8022C19.7932 64.3942 23.4009 60.6579 23.4009 60.6579C23.2821 66.4052 27.5062 63.6996 27.5062 63.6996C28.5879 67.0842 31.4325 63.433 31.4325 63.433L32.027 63.3131C32.1388 64.7459 33.3137 65.9023 34.8062 65.9556C36.1236 66.0031 37.2545 65.1729 37.6514 64.0014C38.4266 65.2592 39.8941 66.1381 41.6107 66.2001C44.1669 66.2916 46.307 64.5414 46.449 62.2726C46.9229 62.9261 47.6795 63.3705 48.5567 63.4023C49.7473 63.4452 50.7756 62.7216 51.1795 61.6845C53.2513 65.9428 56.7361 62.4649 56.7361 62.4649C60.0361 64.7163 61.3183 61.0299 61.3183 61.0299C61.3183 61.0299 64.3147 63.349 67.4525 59.0415C69.2115 56.6267 67.3853 52.6807 67.3853 52.6807C67.3853 52.6807 71.0648 55.406 73.6575 52.1738C76.5236 48.5991 72.8933 45.4671 72.8933 45.4671Z" fill="#1A0000" stroke="#1A0000" stroke-width="0.574146" stroke-miterlimit="10" stroke-linecap="round"/>
<path d="M5.33254 11.3856C6.15813 11.1933 7.18765 11.1597 7.27455 12.2512C7.30352 12.615 7.23863 12.9957 7.11755 13.3387C7.03064 13.5843 6.86495 13.8862 6.57874 13.9325C6.23055 13.9893 6.09324 13.626 6.19926 13.352C6.49415 12.5867 7.69691 12.4968 8.24209 13.0148C8.75598 13.5032 8.59955 14.4296 7.95414 14.7129C8.03931 14.8236 8.12448 14.9342 8.21022 15.0443C8.62504 14.593 9.34113 14.7645 9.63487 15.265C9.78376 15.5182 9.83243 15.8201 9.81331 16.1097C9.79477 16.3913 9.64356 16.67 9.69223 16.9545C9.7658 17.3843 10.3069 17.623 10.5879 17.9058C11.0219 18.3414 11.3399 18.8669 11.5439 19.4451C11.6337 19.6995 12.0415 19.59 11.9512 19.3327C11.7235 18.6856 11.3724 18.0946 10.8869 17.6068C10.6012 17.32 10.1013 17.0912 10.1424 16.6433C10.1725 16.3137 10.2652 16.0414 10.2177 15.6996C10.1447 15.1752 9.84749 14.681 9.34693 14.4696C8.85563 14.2616 8.27801 14.3473 7.91185 14.7453C7.74152 14.9307 7.95357 15.1706 8.16793 15.0767C8.92226 14.7459 9.18181 13.7349 8.78958 13.0333C8.34521 12.239 7.234 12.0757 6.4762 12.4853C6.09324 12.6921 5.74272 13.0687 5.73577 13.5264C5.72998 13.9244 5.98316 14.3027 6.39566 14.3549C7.45358 14.4893 7.76817 12.9673 7.69285 12.1944C7.64361 11.6921 7.41476 11.2234 6.94895 10.9882C6.41536 10.7188 5.77517 10.848 5.22246 10.9772C4.95595 11.0403 5.06777 11.4476 5.33254 11.3856Z" fill="#1A0000"/>
<path d="M75.8473 14.5848C75.0165 13.9932 73.9059 13.5749 73.2251 14.6085C72.7947 15.262 72.4737 16.6432 73.2588 17.1612C73.6029 17.3877 74.0293 17.3251 74.2889 17.0024C74.5727 16.649 74.5241 16.1624 74.3184 15.7835C73.9047 15.021 72.8856 14.6033 72.0763 14.9689C71.2009 15.3634 70.95 16.5951 71.6082 17.2892C71.7472 17.4358 72.0363 17.2852 71.961 17.0841C71.5415 15.959 70.0908 16.083 69.5028 16.9862C69.3301 17.251 69.2351 17.547 69.1847 17.857C69.1007 18.379 68.6198 18.3709 68.2067 18.5337C67.5445 18.795 66.9675 19.2104 66.4941 19.7393C66.3134 19.9415 66.6112 20.2411 66.7925 20.0377C67.2166 19.5644 67.727 19.1791 68.3191 18.9404C68.7119 18.7822 69.2971 18.7782 69.5086 18.3506C69.6024 18.1606 69.5868 17.9236 69.6383 17.722C69.7113 17.4364 69.8533 17.1594 70.0711 16.9567C70.5062 16.5529 71.3214 16.572 71.5537 17.1954C71.6713 17.127 71.7889 17.0586 71.9065 16.9903C71.4129 16.47 71.6788 15.5384 72.3492 15.313C73.0305 15.0842 74.0693 15.6091 74.0693 16.4016C74.0693 16.8234 73.5867 17.0401 73.3318 16.6473C73.2246 16.4816 73.2165 16.2649 73.2188 16.0749C73.2234 15.7081 73.3254 15.2962 73.498 14.9724C74.0044 14.0205 74.9424 14.4573 75.6335 14.9492C75.856 15.1074 76.0669 14.7412 75.8473 14.5848Z" fill="#1A0000"/>
<path d="M56.1435 46.5006C56.1435 46.5006 64.6572 23.1298 39.0205 22.3216C17.1479 21.6321 20.8309 45.0806 20.8309 45.0806L21.5146 45.0244C21.5146 45.0244 21.5829 25.3991 40.1479 27.2519C57.4575 28.9796 55.0856 46.9368 55.0856 46.9368L56.1435 46.5006Z" fill="#FFD44D" stroke="#FFD44D" stroke-width="0.133021" stroke-miterlimit="10"/>
<path d="M59.501 46.776C58.1117 45.8856 56.2554 46.1399 54.7172 47.254C54.8441 46.5246 54.9315 45.7801 54.9669 45.02C54.9779 44.7813 54.9704 44.5472 54.9721 44.3103C54.727 44.3022 54.482 44.2946 54.2375 44.2784C51.8204 44.1168 49.4624 43.4957 47.3344 42.3254C45.5656 41.3527 43.9996 40.0375 42.7383 38.4611C41.5518 36.9779 40.7204 35.0625 40.1712 32.3477C38.4406 34.9606 35.8387 37.3336 33.5943 38.8591C30.1366 41.209 26.0869 42.9859 21.8842 43.3341C21.8813 43.3822 21.8761 43.4297 21.8738 43.4783C21.8501 43.9893 21.8524 44.4951 21.8715 44.9963C20.9891 44.3873 19.9677 44.1272 18.9631 44.3468C16.6862 44.8445 15.3577 47.6126 15.995 50.5297C16.6329 53.4462 18.9955 55.4074 21.2724 54.9097C22.4595 54.6501 23.3854 53.7701 23.9126 52.5766C26.5985 57.602 31.6662 61.1054 37.622 61.3829C43.6242 61.6627 49.0342 58.5979 52.1657 53.7799C52.4136 54.6542 52.9159 55.3981 53.6651 55.8778C55.6268 57.1356 58.5242 56.1182 60.1354 53.6044C61.7471 51.0917 61.4627 48.0344 59.501 46.776Z" fill="#CD5428" stroke="#CD5428" stroke-width="0.539095" stroke-miterlimit="10"/>
<path d="M35.3171 59.8574L34.9423 63.9228L32.2764 64.1632C32.2764 64.1632 30.4401 68.3346 35.6914 70.0148C40.9427 71.6949 43.0076 65.1875 43.0076 65.1875L39.7284 64.1632L39.9723 60.1639L35.3171 59.8574Z" fill="#CD5428" stroke="#CD5428" stroke-width="0.528782" stroke-miterlimit="10"/>
<path d="M22.4179 47.5246C21.7968 46.7709 21.0465 46.0774 20.1844 45.7894C19.3322 45.4864 18.3867 45.9337 17.8988 46.6504C17.4081 47.3873 17.3913 48.3902 17.513 49.3288C17.6474 50.2795 17.9041 51.2291 18.2378 52.1578C17.7256 51.3119 17.3311 50.3849 17.1161 49.3983C16.9093 48.4308 16.8572 47.3051 17.4591 46.359C17.7633 45.8955 18.2152 45.5583 18.721 45.3596C19.236 45.1614 19.8351 45.18 20.3281 45.3856C21.3246 45.8039 21.9706 46.6539 22.4179 47.5246Z" fill="#8B2A0C"/>
<path d="M23.9883 53.276C23.6598 52.5634 23.5306 51.7783 23.4396 51.0049C23.402 50.6156 23.3823 50.2251 23.3782 49.8352C23.3753 49.4447 23.395 49.0548 23.428 48.666C23.4611 49.4453 23.4866 50.221 23.5717 50.9916C23.6065 51.3774 23.6598 51.761 23.7247 52.1433C23.7948 52.5234 23.8672 52.9058 23.9883 53.276Z" fill="#8B2A0C"/>
<path d="M23.1437 56.5634L21.9665 55.2691L21.1571 56.6909L21.0737 54.6591L19.8564 54.1434L21.2371 53.8532L21.6739 52.3086L22.3361 53.7605L23.7996 53.8115L22.7816 54.6081L23.1437 56.5634Z" fill="white" stroke="white" stroke-width="0.136729" stroke-miterlimit="10" stroke-linecap="round"/>
<path d="M32.3459 38.4444C31.7723 38.3204 31.2231 38.296 30.6982 38.3007C30.1721 38.3186 29.6623 38.3853 29.1629 38.5162C28.6629 38.6489 28.1745 38.8389 27.6797 39.0602C27.4312 39.1685 27.1925 39.3059 26.9329 39.4194C26.6751 39.5399 26.4381 39.694 26.1537 39.8064L26.1432 39.8105C26.1299 39.8157 26.1154 39.8093 26.1102 39.796C26.1062 39.7856 26.1091 39.7746 26.1172 39.7676L26.7597 39.1993C26.9943 39.0353 27.2145 38.8499 27.4613 38.7039C27.9468 38.3986 28.4752 38.1616 29.029 38.0017C30.1437 37.7294 31.3697 37.8239 32.3754 38.3992C32.3876 38.4061 32.3916 38.4218 32.3847 38.4339C32.3789 38.4438 32.3679 38.4484 32.3575 38.4461L32.3459 38.4444Z" fill="#2E2E2E"/>
<path d="M45.0513 39.32C45.5027 38.9122 46.0971 38.6688 46.7118 38.5964C47.3288 38.5089 47.9649 38.597 48.5588 38.7888C49.141 39.0118 49.6816 39.327 50.1254 39.7424C50.3554 39.9388 50.5385 40.1839 50.7314 40.4086C50.889 40.6688 51.057 40.911 51.1815 41.1833L51.1844 41.189C51.1902 41.2024 51.1844 41.218 51.1717 41.2238C51.1613 41.2284 51.1497 41.2261 51.1422 41.2186L50.5414 40.6143C50.3195 40.4376 50.1138 40.2395 49.8797 40.0801C49.4203 39.7482 48.9163 39.4822 48.385 39.2911C47.3265 38.922 46.1127 38.8994 45.078 39.3675C45.0647 39.3733 45.049 39.3675 45.0432 39.3542C45.0386 39.3432 45.0415 39.331 45.0496 39.3235L45.0513 39.32Z" fill="#2E2E2E"/>
<path opacity="0.49" d="M33.8698 53.3715C33.4144 55.8796 31.0112 57.5435 28.5032 57.0875C25.9951 56.6322 24.3312 54.229 24.7871 51.7209C25.2425 49.2129 27.6457 47.549 30.1538 48.0049C32.6618 48.4609 34.3251 50.8635 33.8698 53.3715Z" fill="#8B2A0C" stroke="#8B2A0C" stroke-width="0.599001" stroke-miterlimit="10"/>
<path opacity="0.49" d="M50.996 54.6497C50.5405 57.1582 48.1369 58.8224 45.6284 58.367C43.1199 57.9115 41.4556 55.5079 41.9117 52.9994C42.3671 50.4909 44.7708 48.8266 47.2793 49.2821C49.7872 49.7381 51.4514 52.1412 50.996 54.6497Z" fill="#8B2A0C" stroke="#8B2A0C" stroke-width="0.599001" stroke-miterlimit="10"/>
<path d="M35.6245 49.6717C35.763 49.0767 36.0753 48.5095 36.5434 48.0698C37.0045 47.6283 37.6708 47.3433 38.3336 47.3688C38.6598 47.3769 38.9958 47.4394 39.3063 47.5779C39.6088 47.732 39.8805 47.9493 40.0699 48.2198C40.457 48.7581 40.5809 49.4104 40.523 50.0159C40.3701 49.4301 40.1343 48.8739 39.7588 48.4736C39.3869 48.0686 38.8747 47.8798 38.3249 47.8821C37.7803 47.8537 37.2543 48.0524 36.7983 48.3769C36.3423 48.7082 35.9565 49.163 35.6245 49.6717Z" fill="#8B2A0C"/>
<g opacity="0.53">
<path d="M40.5415 50.2059C40.5415 50.2059 40.5484 48.0536 38.7275 47.7598C36.607 47.418 35.6592 49.6764 35.6592 49.6764" fill="#8B2A0C"/>
<path d="M40.5415 50.2053C40.4111 49.6143 40.1967 49.0495 39.837 48.6346C39.4801 48.2158 38.9754 48.0078 38.4262 47.9898C37.8828 47.9411 37.3503 48.1202 36.8822 48.4266C36.4141 48.7407 36.0109 49.1804 35.6592 49.6757C35.8191 49.0865 36.1528 48.5309 36.6371 48.1092C37.1151 47.6851 37.7918 47.4261 38.4529 47.4771C38.7785 47.4985 39.1122 47.5721 39.4169 47.7239C39.7135 47.889 39.976 48.1167 40.1556 48.3942C40.5218 48.9463 40.6214 49.6027 40.5415 50.2053Z" fill="#8B2A0C"/>
</g>
<path d="M33.7084 42.5528C33.6638 43.1768 33.6273 43.7672 33.4888 44.3454C33.3788 44.9201 33.2142 45.4774 32.9489 45.96C32.4292 46.9363 31.5422 47.5249 30.4657 47.6356C29.4182 47.803 28.4333 47.376 27.7028 46.5382C26.938 45.7295 26.4374 44.6159 26.0325 43.5024L25.9705 43.3326L25.839 43.3929C25.4734 43.5615 25.1148 43.7486 24.7544 43.9305L24.7764 43.9879L25.9027 43.5586L25.8575 43.5331C26.1049 44.722 26.544 45.894 27.3042 46.8604C27.6819 47.3407 28.1668 47.7479 28.7311 48.0011C29.2972 48.2508 29.9339 48.325 30.5428 48.2392C31.1511 48.1628 31.7513 47.9501 32.2507 47.5863C32.7559 47.2271 33.1273 46.7086 33.3759 46.1507C33.8585 45.018 33.9054 43.7486 33.7681 42.5575L33.7084 42.5528Z" fill="black"/>
<path d="M26.1053 44.2796L24.7739 45.2344L26.3822 44.9215L26.1053 44.2796Z" fill="black"/>
<path d="M26.6272 45.4287L25.3335 46.584L27.0038 46.1176L26.6272 45.4287Z" fill="black"/>
<path d="M41.9352 44.1682C41.8987 44.7765 41.9845 45.4034 42.1137 46.021C42.2718 46.6322 42.5186 47.2342 42.8883 47.7915C43.2544 48.3495 43.8008 48.8298 44.452 49.1107C45.1037 49.3958 45.8239 49.4566 46.4959 49.3842C47.179 49.3141 47.8708 49.0464 48.4298 48.6067C48.982 48.1583 49.3765 47.565 49.6262 46.9538C50.0874 45.7076 50.1668 44.4278 49.957 43.192L49.7966 43.3449C50.1986 43.3675 50.603 43.371 51.0068 43.3797L51.0144 43.3189L49.818 43.1688L49.7792 43.1642L49.7803 43.2047C49.8186 44.4052 49.6656 45.6427 49.1622 46.7383C48.9125 47.284 48.5457 47.7788 48.0735 48.1438C47.599 48.5076 47.0203 48.7168 46.4258 48.7805C45.8337 48.8564 45.2196 48.8014 44.6646 48.5824C44.1055 48.3686 43.6298 47.9723 43.2573 47.5042C42.521 46.5436 42.1617 45.3518 41.9937 44.1503L41.9352 44.1682Z" fill="black"/>
<path d="M49.835 44.6738L51.4717 44.5881L49.9485 43.9838L49.835 44.6738Z" fill="black"/>
<path d="M49.5986 45.9865L51.3321 46.0352L49.7974 45.2275L49.5986 45.9865Z" fill="black"/>
<path opacity="0.49" d="M40.2626 52.1798C40.266 52.9984 39.2858 54.5806 37.7111 54.5876C36.1369 54.5945 35.2569 52.8489 35.3432 52.0326C35.3432 52.0326 36.1763 51.8235 37.7505 51.8165C39.3246 51.8096 40.2626 52.1798 40.2626 52.1798Z" fill="#8B2A0C"/>
<path d="M34.966 52.1111C34.9819 52.249 35.0255 52.385 35.1444 52.5122C35.2438 52.6398 35.4081 52.7599 35.651 52.8549C36.1158 53.0495 36.8823 53.1397 37.6869 53.1354C38.4877 53.1527 39.2635 53.078 39.8699 52.9131C40.1772 52.8324 40.4402 52.7306 40.6567 52.6173C40.891 52.5064 41.0663 52.3817 41.2172 52.2521L41.219 52.2506C41.2227 52.2473 41.2344 52.2457 41.2442 52.2469C41.2534 52.2481 41.2583 52.251 41.2571 52.2539C41.0952 52.525 40.7125 52.7878 40.0852 52.9837C39.4579 53.1829 38.5607 53.3564 37.6869 53.3463C36.8216 53.3439 35.8779 53.1497 35.3934 52.91C34.9041 52.6749 34.8164 52.3809 34.9267 52.109C34.928 52.1055 34.9378 52.1032 34.9488 52.1036C34.9586 52.1039 34.9654 52.1065 34.966 52.1096V52.1111Z" fill="#3B130E"/>
<path d="M40.1852 31.4905C39.976 32.2472 39.5565 32.9291 39.2083 33.6266C38.9117 34.2205 38.7333 34.8694 38.9998 35.5136C39.2425 36.1005 39.9036 36.5791 40.5554 36.3491C41.0594 36.1712 41.312 35.4904 40.987 35.0443C40.593 34.5026 39.7014 34.7923 39.2599 35.1069C38.6724 35.5258 38.37 36.2465 38.4813 36.9609C38.5774 37.5785 39.0386 38.2679 39.7425 38.1798C40.2715 38.1138 40.7408 37.4047 40.2141 37.0043C39.6145 36.5484 38.8098 37.1775 38.5867 37.7389C38.2553 38.5721 38.7709 39.4185 39.3961 39.9469C39.5907 40.112 39.8746 39.831 39.6782 39.6647C39.2246 39.2812 38.7721 38.703 38.9013 38.0663C38.9586 37.7836 39.1411 37.5078 39.3955 37.3647C39.5073 37.3015 39.7454 37.2123 39.8787 37.2795C40.1962 37.44 39.9592 37.7158 39.7379 37.7778C38.9279 38.006 38.7756 36.655 38.9332 36.177C39.1168 35.6202 39.8184 34.9893 40.4511 35.1741C40.8097 35.279 40.8155 35.7454 40.4997 35.9389C40.2298 36.104 39.8428 35.9568 39.6324 35.7587C39.1881 35.341 39.1916 34.6469 39.4129 34.1214C39.7726 33.2669 40.3201 32.4992 40.5698 31.5971C40.6388 31.3486 40.2541 31.2432 40.1852 31.4905Z" fill="#1A0000"/>
<path d="M54.4858 49.2013C55.0791 48.4226 55.8641 47.6984 56.9174 47.4603C57.4388 47.3438 58.0321 47.4307 58.5043 47.7158C58.9672 48.0003 59.3536 48.4116 59.5715 48.9209C59.999 49.9573 59.7505 51.057 59.3774 51.9735C58.9927 52.9069 58.4423 53.751 57.7899 54.4943C58.2807 53.638 58.7001 52.7487 58.9985 51.8362C59.2824 50.933 59.4417 49.9429 59.0877 49.1317C58.7326 48.3409 57.8803 47.7355 56.9881 47.8844C56.0895 48.0165 55.2297 48.5674 54.4858 49.2013Z" fill="#8B2A0C"/>
<path d="M51.9336 54.5873C52.1178 54.2437 52.2557 53.8805 52.3907 53.5178C52.5216 53.1534 52.6416 52.7849 52.743 52.4106C52.962 51.6667 53.1224 50.9078 53.2916 50.1465C53.2563 50.5347 53.2076 50.9222 53.1363 51.3064C53.0639 51.6899 52.9764 52.0711 52.871 52.4477C52.6462 53.1928 52.3814 53.943 51.9336 54.5873Z" fill="#8B2A0C"/>
<path d="M55.8294 57.8062L54.6521 56.5113L53.8422 57.9336L53.7593 55.9012L52.5415 55.3862L53.9227 55.0959L54.3595 53.5508L55.0217 55.0032L56.4852 55.0542L55.4673 55.8503L55.8294 57.8062Z" fill="white" stroke="white" stroke-width="0.136729" stroke-miterlimit="10" stroke-linecap="round"/>
<mask id="mask0_1477_26995" style="mask-type:luminance" maskUnits="userSpaceOnUse" x="19" y="62" width="33" height="30">
<path d="M32.965 63.923C32.965 63.923 32.8835 67.4029 36.6058 67.3325C40.4522 67.2602 40.9417 63.8636 40.9417 63.8636L44.3033 64.0767C44.3033 64.0767 48.7346 85.7771 51.1916 88.0434C51.1916 88.0434 36.4031 94.4438 19.8527 90.3793L30.0071 62.9259L32.965 63.923Z" fill="white"/>
</mask>
<g mask="url(#mask0_1477_26995)">
<path d="M32.965 63.923C32.965 63.923 32.8835 67.4029 36.6058 67.3325C40.4522 67.2602 40.9417 63.8636 40.9417 63.8636L44.3033 64.0767C44.3033 64.0767 48.7346 85.7771 51.1916 88.0434C51.1916 88.0434 36.4031 94.4438 19.8527 90.3793L30.0071 62.9259L32.965 63.923Z" fill="#7A5FFF" stroke="#7A5FFF" stroke-width="0.532027" stroke-miterlimit="10"/>
</g>
<mask id="mask1_1477_26995" style="mask-type:luminance" maskUnits="userSpaceOnUse" x="19" y="62" width="33" height="30">
<path d="M32.965 63.923C32.965 63.923 32.8835 67.4029 36.6058 67.3325C40.4522 67.2602 40.9417 63.8636 40.9417 63.8636L44.3033 64.0767C44.3033 64.0767 48.7346 85.7771 51.1916 88.0434C51.1916 88.0434 36.4031 94.4438 19.8527 90.3793L30.0071 62.9259L32.965 63.923Z" fill="white"/>
</mask>
<g mask="url(#mask1_1477_26995)">
<path d="M30.1663 75.4353L30.1098 71.2114C30.109 71.1744 30.0764 71.1398 30.0368 71.1347L26.2849 70.6292C26.2087 70.619 26.1833 70.5211 26.2505 70.4971L30.3094 69.0498C30.3283 69.0434 30.3417 69.0282 30.3463 69.0096L31.1152 65.8513C31.1303 65.7891 31.2249 65.7935 31.2535 65.8572L32.5751 68.833C32.5897 68.8653 32.6254 68.8865 32.66 68.8828L36.4273 68.4824C36.4982 68.4747 36.5494 68.5617 36.4987 68.6042L33.8075 70.8671C33.7838 70.8874 33.7807 70.9225 33.8006 70.9515L35.8392 73.9547C35.8802 74.015 35.82 74.0782 35.7529 74.0448L32.2879 72.3261C32.2534 72.3086 32.2137 72.3175 32.1966 72.3458L30.3035 75.4848C30.2688 75.5424 30.1673 75.5064 30.1663 75.4353Z" fill="#FFD44D"/>
</g>
<mask id="mask2_1477_26995" style="mask-type:luminance" maskUnits="userSpaceOnUse" x="19" y="62" width="33" height="30">
<path d="M32.965 63.923C32.965 63.923 32.8835 67.4029 36.6058 67.3325C40.4522 67.2602 40.9417 63.8636 40.9417 63.8636L44.3033 64.0767C44.3033 64.0767 48.7346 85.7771 51.1916 88.0434C51.1916 88.0434 36.4031 94.4438 19.8527 90.3793L30.0071 62.9259L32.965 63.923Z" fill="white"/>
</mask>
<g mask="url(#mask2_1477_26995)">
<path d="M39.8558 85.814L41.8814 81.8364C41.8992 81.8013 41.8874 81.7579 41.8545 81.7392L38.7803 79.9657C38.718 79.9296 38.7434 79.8291 38.8151 79.83L43.1211 79.8803C43.1411 79.8804 43.1602 79.8716 43.174 79.8553L45.4062 77.1625C45.4498 77.1096 45.5315 77.1464 45.5252 77.2158L45.2337 80.4617C45.2306 80.4968 45.2523 80.5294 45.2848 80.5381L48.8177 81.4686C48.8846 81.4862 48.8866 81.585 48.821 81.6077L45.3262 82.7953C45.295 82.8057 45.275 82.8378 45.2782 82.8719L45.6083 86.3923C45.6151 86.4629 45.5309 86.5012 45.4874 86.4466L43.2635 83.6358C43.2413 83.6076 43.2022 83.602 43.1733 83.6226L39.9551 85.9081C39.895 85.9502 39.822 85.8807 39.8558 85.814Z" fill="#FFD44D"/>
</g>
<mask id="mask3_1477_26995" style="mask-type:luminance" maskUnits="userSpaceOnUse" x="19" y="62" width="33" height="30">
<path d="M32.965 63.923C32.965 63.923 32.8835 67.4029 36.6058 67.3325C40.4522 67.2602 40.9417 63.8636 40.9417 63.8636L44.3033 64.0767C44.3033 64.0767 48.7346 85.7771 51.1916 88.0434C51.1916 88.0434 36.4031 94.4438 19.8527 90.3793L30.0071 62.9259L32.965 63.923Z" fill="white"/>
</mask>
<g mask="url(#mask3_1477_26995)">
<path d="M23.706 90.335L22.8378 86.2161C22.8301 86.1798 22.7908 86.151 22.7503 86.1509L18.9128 86.1659C18.8347 86.1661 18.791 86.074 18.8532 86.0413L22.6219 84.0768C22.6398 84.0677 22.6501 84.0515 22.6511 84.0326L22.8104 80.8434C22.8137 80.7807 22.9086 80.772 22.9492 80.8304L24.8391 83.5579C24.8598 83.5877 24.8999 83.6033 24.9337 83.5949L28.6124 82.6933C28.6818 82.6763 28.7491 82.7544 28.7071 82.8026L26.4587 85.3778C26.4389 85.4008 26.4428 85.4353 26.4681 85.461L29.0779 88.1181C29.1306 88.1716 29.0826 88.241 29.009 88.2178L25.2242 87.0086C25.1864 86.9964 25.1487 87.0102 25.1371 87.0401L23.8532 90.3631C23.8293 90.4252 23.7208 90.4039 23.706 90.335Z" fill="#FFD44D"/>
</g>
<mask id="mask4_1477_26995" style="mask-type:luminance" maskUnits="userSpaceOnUse" x="19" y="62" width="33" height="29">
<path d="M32.965 63.923C32.965 63.923 32.8835 67.4029 36.6058 67.3325C40.4522 67.2602 40.9417 63.8636 40.9417 63.8636L44.3033 64.0767C44.3033 64.0767 48.7346 85.7771 51.1916 88.0434C51.1916 88.0434 37.1203 80.7812 19.8527 90.3793L30.0071 62.9259L32.965 63.923Z" fill="white"/>
</mask>
<g mask="url(#mask4_1477_26995)">
<path d="M40.4095 70.0914L41.1454 68.6467C41.1522 68.6341 41.1473 68.6185 41.1355 68.6113L40.0188 67.9671C39.9962 67.954 40.0055 67.9178 40.0314 67.9179L41.5957 67.936C41.6028 67.9363 41.6098 67.9328 41.6148 67.9271L42.4259 66.9488C42.4421 66.9293 42.4713 66.9428 42.469 66.9683L42.3632 68.1473C42.3617 68.16 42.3701 68.1717 42.3818 68.1751L43.6652 68.5128C43.6891 68.519 43.6903 68.555 43.6664 68.5632L42.3965 68.9946C42.3853 68.9983 42.3779 69.0101 42.3793 69.0224L42.4992 70.301C42.5016 70.3266 42.471 70.3407 42.4554 70.3206L41.6477 69.2993C41.6396 69.2891 41.6252 69.2871 41.6153 69.2945L40.446 70.1245C40.4234 70.1407 40.397 70.1156 40.4095 70.0914Z" fill="#FFD44D"/>
</g>
<mask id="mask5_1477_26995" style="mask-type:luminance" maskUnits="userSpaceOnUse" x="19" y="62" width="33" height="29">
<path d="M32.965 63.923C32.965 63.923 32.8835 67.4029 36.6058 67.3325C40.4522 67.2602 40.9417 63.8636 40.9417 63.8636L44.3033 64.0767C44.3033 64.0767 48.7346 85.7771 51.1916 88.0434C51.1916 88.0434 38.8091 81.9265 19.8527 90.3793L30.0071 62.9259L32.965 63.923Z" fill="white"/>
</mask>
<g mask="url(#mask5_1477_26995)">
<path d="M32.9913 81.3408L33.2111 79.8048C33.213 79.7915 33.2032 79.7777 33.1897 79.7741L31.8781 79.4405C31.8518 79.4337 31.8482 79.3972 31.8736 79.3911L33.4053 79.0284C33.4127 79.0267 33.4183 79.0219 33.4208 79.0153L33.875 77.8995C33.8838 77.8778 33.9175 77.8829 33.9238 77.9074L34.2267 79.0407C34.2299 79.0532 34.242 79.0623 34.2543 79.0622L35.6223 79.0679C35.6481 79.0681 35.6612 79.1016 35.6411 79.115L34.5515 79.8285C34.5419 79.8349 34.5387 79.8475 34.5441 79.8591L35.1016 81.0313C35.1131 81.055 35.0877 81.0755 35.0659 81.0607L33.9263 80.2976C33.9151 80.2898 33.9001 80.2912 33.8929 80.3011L33.0387 81.3649C33.0217 81.3836 32.9878 81.3664 32.9913 81.3408Z" fill="#FFD44D"/>
</g>
<path d="M30.8703 87.3594C27.7977 87.1455 25.2662 89.7113 25.639 92.7686C26.2842 98.0605 27.4581 105.551 29.2198 108.968C29.4705 109.454 29.5468 110.018 29.3591 110.531C28.9516 111.648 29.7885 112.826 30.9768 112.809L32.3352 112.79C34.0193 112.766 35.2478 111.188 34.8584 109.549L34.835 109.451C34.7759 109.202 34.7522 108.946 34.7647 108.691L35.552 92.6314C35.6862 89.8928 33.6056 87.5498 30.8703 87.3594Z" fill="#B44A24" stroke="#B44A24" stroke-width="0.532027" stroke-miterlimit="10"/>
<path d="M35.0835 102.192C32.4547 102.269 29.8279 102.422 27.1978 102.471C27.8576 105.548 28.6743 108.272 29.6579 109.712L28.5144 112.844L35.6171 112.742L34.7457 109.075L35.0835 102.192Z" fill="white" stroke="white" stroke-width="0.532027" stroke-miterlimit="10"/>
<path d="M34.8184 107.61C33.8726 107.53 32.8981 107.686 31.974 107.837C30.9515 108.002 29.9268 108.196 28.8917 108.261C29.1356 108.826 29.3901 109.321 29.6588 109.714L28.5153 112.846L35.6179 112.744L34.7465 109.078L34.8184 107.61Z" fill="black" stroke="black" stroke-width="0.532027" stroke-miterlimit="10"/>
<path d="M41.146 87.4325C44.2215 87.2621 46.7167 89.8635 46.3008 92.9155C45.5809 98.1977 44.3014 105.671 42.4917 109.063C42.2342 109.545 42.15 110.108 42.3304 110.624C42.7222 111.746 41.8688 112.912 40.681 112.879L39.3224 112.84C37.6388 112.792 36.4328 111.197 36.8452 109.564L36.87 109.466C36.9326 109.218 36.9599 108.963 36.951 108.707L36.39 92.6385C36.2943 89.898 38.4081 87.5843 41.146 87.4325Z" fill="#B44A24" stroke="#B44A24" stroke-width="0.532027" stroke-miterlimit="10"/>
<path d="M44.4974 103.05C41.9208 103.162 39.3392 103.181 36.7601 103.241L36.9645 109.091L36.0415 112.745L43.1424 112.947L42.0431 109.799C42.9961 108.445 43.8146 105.927 44.4974 103.05Z" fill="white" stroke="white" stroke-width="0.532027" stroke-miterlimit="10"/>
<path d="M42.9881 107.994C41.0231 107.906 39.0581 107.822 37.0907 107.837C37.0136 107.837 36.9585 107.809 36.9177 107.768L36.9641 109.092L36.0411 112.746L43.142 112.948L42.0427 109.8C42.374 109.33 42.6885 108.713 42.9881 107.994Z" fill="black" stroke="black" stroke-width="0.532027" stroke-miterlimit="10"/>
<path opacity="0.49" d="M33.0999 89.6557C33.069 90.4959 31.8879 91.135 30.4624 91.0821C29.037 91.0292 27.9061 90.3054 27.9375 89.4646C27.9684 88.6244 29.1495 87.9853 30.575 88.0382C32.0004 88.0911 33.1307 88.8155 33.0999 89.6557Z" fill="#8B2A0C" stroke="#8B2A0C" stroke-width="0.25741" stroke-miterlimit="10"/>
<path opacity="0.49" d="M44.1077 89.6557C44.0768 90.4965 42.8957 91.135 41.4702 91.0821C40.0448 91.0292 38.9139 90.3054 38.9453 89.4646C38.9762 88.6238 40.1573 87.9853 41.5828 88.0382C43.0082 88.0911 44.1385 88.8149 44.1077 89.6557Z" fill="#8B2A0C" stroke="#8B2A0C" stroke-width="0.25741" stroke-miterlimit="10"/>
<g clip-path="url(#clip0_1477_26995)">
<path d="M44.0692 76.3751C43.6215 76.2532 43.172 76.1804 42.7914 76.1244C42.1526 76.0305 41.5778 75.9844 41.0344 75.9844C40.446 75.9844 39.8874 76.0399 39.3751 76.1508C38.6934 76.2969 38.137 76.5304 37.6724 76.8651C37.2226 77.1904 36.8576 77.6191 36.6083 78.1151C36.3594 77.6189 35.9943 77.1901 35.5443 76.8651C35.0796 76.5304 34.523 76.2969 33.8411 76.1508C33.3281 76.0399 32.7695 75.9844 32.1818 75.9844C31.6386 75.9844 31.0636 76.0303 30.4251 76.1244C30.0445 76.1804 29.5947 76.2534 29.1468 76.3751C28.906 76.4398 29.5269 87.5126 29.5269 87.5126C29.585 87.9522 29.585 87.9522 29.6627 88.1542C29.7437 88.366 29.9193 88.5027 30.1101 88.5027C30.2464 88.5027 30.3723 88.4338 30.4648 88.3086C30.8318 87.811 31.7864 87.5024 32.9555 87.5024C33.1496 87.5024 33.3438 87.5112 33.5333 87.5293L34.0977 87.5806C34.8563 87.6498 36.3191 87.8014 36.3205 87.8014C36.4144 87.8392 36.8035 87.8392 36.8983 87.8014C36.8997 87.8014 38.3623 87.6498 39.1206 87.5806L39.6848 87.5293C39.8866 87.5102 40.0891 87.5008 40.2918 87.501C41.4519 87.501 42.395 87.8021 42.753 88.2874C42.8457 88.4131 42.9719 88.482 43.1084 88.482C43.2988 88.482 43.4739 88.345 43.5551 88.1337C43.633 87.9329 44.3125 76.4398 44.0711 76.3751" fill="#8B2A0C"/>
<path d="M36.5518 78.1832C36.5166 78.0198 36.4698 77.8591 36.4118 77.7023C36.2033 77.1311 35.8299 76.6347 35.339 76.276C34.8659 75.9307 34.3168 75.7304 33.7681 75.6113C32.6897 75.3774 31.5677 75.4263 30.4836 75.5883C30.0708 75.6497 29.6556 75.7224 29.2505 75.8328C29.0851 75.8782 30.1049 87.3054 30.2205 87.1468C30.8136 86.3336 32.3345 86.1086 33.5509 86.2232C34.4971 86.3124 35.415 86.3915 36.352 86.4993C36.3677 86.5019 36.3816 86.5113 36.3965 86.5172C36.4838 86.552 36.5744 86.4609 36.5744 86.3633L36.5744 78.3361C36.5749 78.2841 36.5638 78.2342 36.5527 78.1834" fill="#A7A9AC"/>
<path d="M36.5535 77.4982C36.5214 77.339 36.4783 77.1822 36.4246 77.0289C36.2212 76.4478 35.8747 75.9754 35.4344 75.6341C34.9985 75.2975 34.4929 75.1015 33.9855 74.9845C32.9906 74.7557 31.9554 74.8042 30.9551 74.9619C30.5743 75.0217 30.1919 75.0923 29.8176 75.2015C29.6646 75.2455 30.6327 86.2943 30.7388 86.1389C31.5443 84.9685 32.6175 84.8703 33.7854 84.9868C34.6591 85.0739 35.537 85.2963 36.3685 85.6284C36.3825 85.6339 36.3962 85.6396 36.4097 85.6456C36.4902 85.6793 36.5738 85.591 36.5738 85.4954L36.5738 77.6486C36.5738 77.5971 36.5637 77.5481 36.5535 77.4982Z" fill="#E6E7E8"/>
<path d="M30.5484 76.3217L30.5522 76.3578C30.7801 76.326 31.0087 76.2992 31.2378 76.2773C32.1369 76.1881 33.0675 76.1603 33.9624 76.2902C34.4181 76.3554 34.874 76.4667 35.2656 76.6571C35.4949 76.7685 35.6956 76.9055 35.8597 77.0648C35.689 76.7904 35.4315 76.5632 35.1159 76.3949C34.7586 76.2045 34.343 76.0939 33.9297 76.028C33.1146 75.8986 32.2657 75.9259 31.4473 76.0151C31.1359 76.0494 30.8219 76.0887 30.5159 76.1502C30.3907 76.1756 30.4333 76.3262 30.5494 76.3217M30.5484 77.4477L30.5522 77.4837C30.7801 77.452 31.0087 77.425 31.2378 77.4028C32.1369 77.314 33.0675 77.2863 33.9624 77.4162C34.4181 77.4814 34.874 77.5927 35.2656 77.7831C35.4949 77.8949 35.6956 78.0314 35.8597 78.1908C35.689 77.9161 35.4315 77.6897 35.1159 77.5209C34.7586 77.3305 34.343 77.2194 33.9297 77.154C33.1146 77.025 32.2657 77.0518 31.4473 77.1415C31.1357 77.1756 30.8217 77.2152 30.5157 77.2766C30.3907 77.3009 30.4333 77.452 30.5494 77.4477M30.628 78.5721L30.632 78.6081C30.8599 78.5757 31.0885 78.5487 31.3176 78.5271C32.2167 78.4374 33.1473 78.4106 34.042 78.5396C34.4976 78.6057 34.9531 78.7161 35.3447 78.907C35.5744 79.0188 35.7754 79.156 35.9397 79.3146C35.7686 79.04 35.5111 78.814 35.195 78.6448C34.8377 78.4544 34.4225 78.3438 34.0088 78.2779C33.1937 78.1484 32.3447 78.1767 31.5266 78.2654C31.2145 78.299 30.9008 78.3388 30.5946 78.3995C30.4693 78.425 30.5119 78.577 30.6285 78.5721M30.7377 79.8466L30.7421 79.8819C30.9701 79.8502 31.1987 79.8235 31.4278 79.8019C32.3268 79.7127 33.2575 79.6849 34.1521 79.8143C34.6073 79.8805 35.0632 79.9913 35.4548 80.1813C35.6846 80.2931 35.8856 80.43 36.0494 80.5892C35.8785 80.3145 35.6217 80.0876 35.3052 79.9188C34.9483 79.7284 34.5327 79.6183 34.1189 79.5519C33.3038 79.4229 32.4549 79.4502 31.6372 79.5394C31.3249 79.5736 31.0114 79.6133 30.7052 79.6748C30.58 79.6997 30.6226 79.8513 30.7386 79.8466M30.7377 80.9711L30.7421 81.0072C30.97 80.9749 31.1986 80.9481 31.4278 80.9267C32.3268 80.8375 33.2575 80.8097 34.1521 80.9396C34.6073 81.0048 35.0632 81.1161 35.4548 81.3065C35.6846 81.4183 35.8856 81.5549 36.0494 81.714C35.8785 81.4393 35.6217 81.2129 35.3052 81.0441C34.9483 80.8537 34.5327 80.7426 34.1189 80.6772C33.3038 80.5473 32.4549 80.575 31.6372 80.6642C31.3249 80.6979 31.0114 80.7381 30.7052 80.7996C30.58 80.8255 30.6226 80.9754 30.7386 80.9711M30.8179 82.0974L30.8219 82.1322C31.05 82.1004 31.2788 82.0735 31.508 82.0517C32.4071 81.962 33.3373 81.9352 34.2326 82.0642C34.6876 82.1303 35.1437 82.2412 35.5353 82.4311C35.7646 82.5429 35.9654 82.6797 36.1299 82.839C35.9588 82.5643 35.7017 82.3386 35.3857 82.1692C35.0288 81.9787 34.6127 81.8677 34.1994 81.8022C33.3843 81.6723 32.5354 81.7005 31.7175 81.7886C31.4054 81.8232 31.0912 81.8629 30.7854 81.9244C30.6602 81.9498 30.7028 82.1009 30.8189 82.0974" fill="#243438"/>
<path d="M36.5959 78.1832C36.6307 78.0186 36.6782 77.8576 36.7359 77.7023C36.9448 77.1312 37.3183 76.6349 37.8092 76.276C38.2823 75.9307 38.8314 75.7304 39.38 75.6113C40.4582 75.3774 41.5804 75.4263 42.6638 75.5883C43.0769 75.6497 43.4921 75.7224 43.8971 75.8328C44.0631 75.8782 43.0432 87.2843 42.9277 87.1266C42.3343 86.3124 40.8136 86.1086 39.5972 86.2232C38.6511 86.3124 37.7329 86.3915 36.7962 86.4993C36.7809 86.5019 36.7665 86.5113 36.7517 86.5172C36.6644 86.552 36.5737 86.4609 36.5737 86.3633L36.5737 78.3361C36.5733 78.2841 36.5843 78.2342 36.5954 78.1834" fill="#A7A9AC"/>
<path d="M36.594 77.4982C36.6267 77.3382 36.6702 77.1807 36.7234 77.0289C36.9265 76.4478 37.2728 75.9745 37.7129 75.6341C38.149 75.2975 38.6567 75.1015 39.1625 74.9845C40.1574 74.7557 41.1925 74.8042 42.1924 74.9619C42.573 75.0219 42.9561 75.0923 43.3297 75.2018C43.4826 75.2458 42.5151 86.2945 42.4087 86.1392C41.6035 84.9687 40.5305 84.8706 39.3626 84.9871C38.4889 85.0732 37.6115 85.2966 36.779 85.6287C36.7653 85.6342 36.7517 85.6399 36.7383 85.6458C36.6578 85.6795 36.5737 85.5912 36.5737 85.4957L36.5737 77.6488C36.574 77.5971 36.5846 77.5481 36.594 77.4982Z" fill="#E6E7E8"/>
<path d="M42.6002 76.3217L42.5962 76.3578C42.3681 76.326 42.1394 76.2992 41.9101 76.2773C41.0113 76.1881 40.0804 76.1603 39.1858 76.2902C38.7306 76.3554 38.2747 76.4667 37.8831 76.6571C37.6533 76.7685 37.453 76.9055 37.2885 77.0648C37.4594 76.7904 37.7166 76.5632 38.0327 76.3949C38.39 76.2045 38.805 76.0939 39.219 76.028C40.0341 75.8986 40.8807 75.9259 41.7014 76.0151C42.013 76.0494 42.3265 76.0887 42.633 76.1502C42.7582 76.1756 42.7156 76.3262 42.5993 76.3217M42.6002 77.4477L42.5962 77.4837C42.3681 77.4521 42.1394 77.4251 41.9101 77.4028C41.0113 77.314 40.0804 77.2863 39.1858 77.4162C38.7306 77.4814 38.2747 77.5927 37.8831 77.7831C37.6533 77.8949 37.453 78.0314 37.2885 78.1908C37.4594 77.9161 37.7166 77.6897 38.0327 77.5209C38.39 77.3305 38.805 77.2194 39.219 77.154C40.0341 77.025 40.8807 77.0518 41.7014 77.1415C42.013 77.1756 42.3265 77.2145 42.633 77.2766C42.7582 77.3009 42.7156 77.452 42.5993 77.4477M42.5202 78.5721L42.5157 78.6081C42.2877 78.5757 42.059 78.5487 41.8297 78.5271C40.931 78.4374 40.0004 78.4106 39.1058 78.5396C38.6506 78.6057 38.1942 78.7161 37.8026 78.907C37.5731 79.0188 37.3723 79.156 37.2085 79.3146C37.3794 79.04 37.6362 78.814 37.9525 78.6448C38.3095 78.4544 38.7245 78.3438 39.1411 78.2779C39.9557 78.1484 40.8028 78.1767 41.6228 78.2649C41.9344 78.299 42.2486 78.3386 42.5546 78.3995C42.6798 78.425 42.6374 78.577 42.5214 78.5721M42.4096 79.8466L42.4056 79.8819C42.1777 79.8503 41.9491 79.8236 41.72 79.8019C40.8211 79.7127 39.8902 79.6849 38.9956 79.8143C38.54 79.8805 38.0841 79.9913 37.6924 80.1813C37.4629 80.2931 37.2622 80.43 37.0979 80.5892C37.2687 80.3145 37.526 80.0876 37.8426 79.9188C38.1994 79.7284 38.6148 79.6183 39.0288 79.5519C39.8439 79.4229 40.6905 79.4502 41.5112 79.5394C41.8228 79.5736 42.1368 79.6133 42.4428 79.6738C42.5682 79.6997 42.5256 79.8513 42.4091 79.8466M42.4096 80.9711L42.4056 81.0072C42.1777 80.9749 41.9491 80.9481 41.72 80.9267C40.8211 80.8375 39.8902 80.8097 38.9956 80.9396C38.54 81.0048 38.0841 81.1161 37.6924 81.3065C37.4629 81.4183 37.2622 81.5549 37.0979 81.714C37.2687 81.4393 37.526 81.2129 37.8426 81.0441C38.1994 80.8537 38.6148 80.7426 39.0288 80.6772C39.8439 80.5473 40.6905 80.575 41.5112 80.6642C41.8228 80.6979 42.1368 80.7381 42.4428 80.7991C42.5682 80.8255 42.5256 80.9754 42.4091 80.9711M42.3296 82.0974L42.3263 82.1322C42.0982 82.1004 41.8694 82.0735 41.6402 82.0517C40.7411 81.962 39.8105 81.9352 38.9156 82.0642C38.4602 82.1303 38.0047 82.2412 37.6129 82.4311C37.3836 82.5429 37.1824 82.6797 37.0186 82.839C37.1892 82.5643 37.4467 82.3386 37.7625 82.1692C38.1198 81.9787 38.535 81.8677 38.9511 81.8022C39.7657 81.6723 40.6128 81.7005 41.4333 81.7886C41.7449 81.8232 42.0587 81.8629 42.3651 81.9244C42.4901 81.9498 42.4473 82.1009 42.3307 82.0974" fill="#243438"/>
<path d="M37.2392 86.3353C37.2392 86.4476 36.6701 86.5385 36.5738 86.5385C36.4776 86.5385 35.9087 86.4474 35.9087 86.3353L36.3997 77.6174C36.3997 77.5051 36.4778 77.4141 36.5738 77.4141C36.6701 77.4141 36.7482 77.5051 36.7482 77.6174L37.2392 86.3353Z" fill="#A7A9AC"/>
</g>
<path d="M29.3795 63.5107C28.5104 67.8559 24.502 78.1388 24.502 78.1388L34.6361 81.3417C36.7387 79.8971 38.3808 81.5575 38.3808 81.5575C40.6199 81.5478 39.9125 83.1042 39.9125 83.1042C38.8961 88.4653 21.6839 87.5434 18.2377 78.8635C17.5361 77.0957 20.3989 67.5661 23.5858 65.2488C25.1794 64.0901 27.3517 63.8003 29.3795 63.5107Z" fill="#B44A24" stroke="#B44A24" stroke-width="0.528782" stroke-miterlimit="10"/>
<path d="M44.4431 64.2492C44.4431 64.2492 50.22 65.1365 56.776 69.6647L63.1297 58.2579C63.216 58.0589 63.5181 58.1397 63.5021 58.3576L63.3445 60.5201L64.5977 58.3924C64.6933 58.2298 64.9476 58.33 64.9111 58.5161C64.7003 59.589 64.4021 61.1489 64.4513 61.1323C64.5029 61.1156 65.3354 59.5345 65.8686 58.6169C65.9686 58.445 66.2359 58.5429 66.2099 58.7416L65.9008 61.1029L67.3422 59.3471C67.4898 59.1674 67.7856 59.3142 67.7324 59.5423C67.1534 62.0208 63.8525 71.5605 61.2513 74.3647C58.7476 76.1573 57.306 76.0164 49.6345 74.1021L46.1812 73.1295L44.4431 64.2492Z" fill="#B44A24" stroke="#B44A24" stroke-width="0.26274" stroke-miterlimit="10" stroke-linecap="round"/>
<path d="M66.7742 63.4594C66.1602 63.8037 65.5488 63.8801 65.4085 63.63L64.4602 61.939L66.6836 60.6922L67.6319 62.3832C67.7721 62.6332 67.3881 63.1151 66.7742 63.4594Z" fill="#FF6E83"/>
<path d="M66.1729 62.3876C65.4724 62.7805 64.7749 62.8676 64.6149 62.5823L63.6438 60.8506L66.1805 59.4281L67.1516 61.1597C67.3116 61.445 66.8734 61.9948 66.1729 62.3876Z" fill="#BFBCAF"/>
<path d="M62.6808 54.8131L61.6362 53.9605C61.5602 53.8985 61.4482 53.9098 61.3862 53.9858C61.3708 54.0047 61.3595 54.0266 61.3529 54.05C61.3463 54.0735 61.3445 54.0981 61.3478 54.1222L61.5306 55.4582C61.5836 55.8459 61.941 56.1173 62.3287 56.0642C62.7165 56.0112 62.9878 55.6538 62.9348 55.2661C62.9095 55.0816 62.8142 54.9225 62.6808 54.8131Z" fill="#2B2622"/>
<path d="M66.5895 60.1642C66.5903 60.1663 66.5911 60.1685 66.5918 60.1707C66.6942 60.4651 66.2648 60.9834 65.5957 61.3587C64.9264 61.7339 64.2603 61.83 64.0626 61.589C64.0611 61.5873 64.0596 61.5856 64.0582 61.5838C64.0564 61.5815 64.0546 61.5793 64.0529 61.577C64.0481 61.5707 64.0436 61.5641 64.0396 61.5569L64.0376 61.5533L64.0376 61.5533L61.7828 57.5326C61.7828 57.5326 61.513 55.084 61.942 54.8435C62.3709 54.6029 64.3195 56.11 64.3195 56.11L66.5763 60.1343C66.5803 60.1415 66.5836 60.1488 66.5865 60.1562C66.5876 60.1588 66.5885 60.1615 66.5895 60.1642Z" fill="#FFD469"/>
<path d="M61.7826 57.532L61.8352 57.0777C61.8429 57.0109 61.9138 56.9713 61.9748 56.9997L62.272 57.1382C62.3307 57.1656 62.3993 57.1299 62.4107 57.0661L62.4749 56.7048C62.4862 56.6413 62.5543 56.6056 62.6129 56.6324L62.914 56.7698C62.9755 56.7979 63.0465 56.757 63.053 56.6897L63.0839 56.3733C63.0903 56.3082 63.1572 56.2672 63.2181 56.2912L63.5624 56.4266C63.6205 56.4495 63.6849 56.4133 63.6956 56.3518L63.7597 55.9841C63.7707 55.9208 63.8383 55.8848 63.897 55.911L64.3292 56.1039L62.0874 54.3256C62.2331 54.5853 61.5605 54.9625 61.4148 54.7028L61.7826 57.532Z" fill="#E5AA6E"/>
<path d="M62.4672 57.6002C62.4438 57.5936 62.419 57.5941 62.3958 57.6016C62.3727 57.6091 62.3524 57.6233 62.3373 57.6424C62.3223 57.6615 62.3132 57.6847 62.3113 57.7089C62.3095 57.7332 62.3148 57.7574 62.3267 57.7786L64.2097 61.1364C64.2257 61.1648 64.2523 61.1857 64.2836 61.1945C64.315 61.2033 64.3486 61.1993 64.377 61.1834C64.4054 61.1674 64.4263 61.1409 64.4352 61.1095C64.444 61.0782 64.4401 61.0446 64.4242 61.0162L62.5411 57.6584C62.5332 57.6443 62.5226 57.6319 62.51 57.6219C62.4973 57.6119 62.4827 57.6045 62.4672 57.6002ZM63.3989 57.1773L65.2819 60.5351C65.2899 60.5492 65.2949 60.5647 65.2968 60.5808C65.2988 60.5968 65.2975 60.6131 65.2932 60.6286C65.2888 60.6442 65.2814 60.6587 65.2714 60.6714C65.2614 60.6841 65.249 60.6947 65.2349 60.7026C65.2208 60.7105 65.2053 60.7156 65.1893 60.7175C65.1732 60.7194 65.157 60.7181 65.1414 60.7137C65.1259 60.7093 65.1113 60.7019 65.0986 60.6919C65.086 60.6819 65.0754 60.6695 65.0675 60.6554L63.1844 57.2976C63.1686 57.2691 63.1646 57.2356 63.1735 57.2042C63.1823 57.1729 63.2032 57.1463 63.2316 57.1304C63.26 57.1144 63.2936 57.1104 63.325 57.1192C63.3563 57.128 63.3829 57.1489 63.3989 57.1773ZM64.2567 56.6963L66.1397 60.0541C66.1476 60.0682 66.1527 60.0837 66.1546 60.0997C66.1566 60.1158 66.1553 60.132 66.1509 60.1476C66.1466 60.1631 66.1392 60.1777 66.1292 60.1904C66.1192 60.2031 66.1068 60.2137 66.0927 60.2216C66.0786 60.2295 66.0631 60.2346 66.0471 60.2365C66.031 60.2384 66.0148 60.2371 65.9992 60.2327C65.9836 60.2283 65.9691 60.2209 65.9564 60.2109C65.9437 60.2009 65.9332 60.1885 65.9253 60.1744L64.0422 56.8165C64.0263 56.7881 64.0224 56.7545 64.0312 56.7232C64.0401 56.6918 64.061 56.6653 64.0894 56.6494C64.1178 56.6334 64.1514 56.6294 64.1828 56.6382C64.2141 56.647 64.2407 56.6679 64.2567 56.6963Z" fill="#FFB636"/>
<defs>
<clipPath id="clip0_1477_26995">
<rect width="15.0634" height="15.0634" fill="white" transform="translate(29.0903 74.1211)"/>
</clipPath>
</defs>
</svg>
