<svg width="148" height="222" viewBox="0 0 148 222" fill="none" xmlns="http://www.w3.org/2000/svg">
<path d="M49.6513 60.7393H49.6492C49.6492 60.7248 49.6513 60.7103 49.6513 60.6957C49.6513 58.7136 48.0448 57.105 46.0606 57.105C45.8053 57.105 45.5562 57.132 45.3175 57.1839C44.6056 55.4529 42.9057 54.2324 40.9173 54.2324C39.425 54.2324 38.0946 54.9215 37.2228 55.9967C36.644 55.7025 36.0041 55.5489 35.3548 55.5483C33.2066 55.5483 31.4424 57.1839 31.2369 59.2781C28.9019 59.4027 27.0276 61.3163 26.9965 63.6929C26.9633 66.1669 28.9455 68.201 31.4195 68.2321C31.6126 68.2342 31.7994 68.2217 31.9862 68.1989C32.943 70.2164 34.9957 71.6111 37.3764 71.6111C38.8127 71.6111 40.1286 71.1026 41.1581 70.2579C41.9447 70.8411 42.9161 71.1898 43.9705 71.1898C46.1332 71.1898 47.9535 69.739 48.5201 67.7568C48.8771 67.8751 49.257 67.9415 49.6534 67.9415C51.6418 67.9415 53.2545 66.3288 53.2545 64.3404C53.2524 62.352 51.6418 60.7393 49.6513 60.7393Z" fill="#E3EBEE"/>
<path d="M52.8262 62.5342C53.6419 63.3582 53.0649 65.2469 52.5045 65.8634C51.4003 67.0734 49.3746 66.7912 48.5609 66.6168C48.3409 66.5691 48.3056 66.5857 48.233 66.6293C48.1686 66.6687 48.1396 66.731 48.069 66.8783C47.8075 67.4429 47.1309 68.5367 45.7029 68.9767C44.2147 69.4354 42.8116 68.736 42.1557 68.3188C41.9067 68.161 41.8963 68.1569 41.7842 68.159C41.6701 68.161 41.558 68.2441 41.4231 68.3499C40.8294 68.8169 39.4741 69.6409 37.384 69.5205C35.3354 69.4022 34.1627 68.1403 33.7601 67.4906C33.6833 67.3661 33.6002 67.2623 33.5048 67.2519C33.3948 67.2416 33.2723 67.3536 33.181 67.445C32.3092 68.2939 29.5653 68.5492 28.6562 67.1025C29.582 68.5865 31.012 69.3213 32.4794 69.34C32.6725 69.342 32.8593 69.3296 33.0461 69.3068C34.0029 71.3242 36.0556 72.719 38.4363 72.719C39.8726 72.719 41.1885 72.2105 42.218 71.3657C43.0046 71.9489 43.976 72.2976 45.0304 72.2976C47.1931 72.2976 49.0134 70.8468 49.58 68.8647C49.937 68.983 50.3169 69.0494 50.7133 69.0494C52.7017 69.0494 54.3144 67.4367 54.3144 65.4483C54.3102 64.3897 53.7789 63.1942 52.8262 62.5342Z" fill="#B9CDD2"/>
<path d="M138.365 85.9621C138.365 85.9621 146.272 82.1419 146.479 72.4604C146.686 62.7788 135.675 62.5519 135.675 62.5519C141.208 57.948 139.652 50.1649 139.652 50.1649C139.6 35.8861 128.477 35.4024 128.477 35.4024C128.477 35.4024 132.684 30.3125 130.651 23.7095C126.702 10.8742 113.957 14.3312 113.957 14.3312C112.535 7.68499 107.355 2.4756 100.817 1.48043C100.719 1.46494 100.62 1.45055 100.521 1.43726C93.8479 0.495233 87.3422 4.1604 84.2693 10.3428L83.8376 11.2118C83.5841 10.3937 83.1546 9.55577 82.6376 8.74658C79.9687 4.56113 75.5564 1.90108 70.7388 1.20591C59.2906 -0.446797 53.9893 8.39235 53.9893 8.39235C49.2492 2.69257 38.5216 4.92643 38.5216 4.92643C14.9476 10.7734 21.109 34.86 21.109 34.86C21.109 34.86 10.057 27.9137 2.9713 44.2493C-4.11441 60.5848 10.1799 71.6722 10.1799 71.6722C8.02904 72.5644 6.06528 76.8739 6.06528 76.8739C1.06731 93.2869 21.5916 97.7081 21.5916 97.7081C14.5613 114.067 34.7059 113.352 34.7059 113.352C36.9076 122.126 43.8007 114.987 43.8007 114.987C43.5738 125.968 51.6447 120.798 51.6447 120.798C53.7114 127.265 59.1466 120.289 59.1466 120.289L60.2824 120.06C60.496 122.798 62.741 125.007 65.5925 125.109C68.1098 125.2 70.2706 123.613 71.0288 121.375C72.51 123.778 75.3139 125.458 78.5939 125.576C83.4778 125.751 87.567 122.407 87.8382 118.072C88.7437 119.321 90.1894 120.17 91.8653 120.231C94.1401 120.312 96.105 118.93 96.8766 116.948C100.835 125.085 107.494 118.439 107.494 118.439C113.799 122.741 116.249 115.697 116.249 115.697C116.249 115.697 121.974 120.129 127.969 111.898C131.33 107.285 127.841 99.7449 127.841 99.7449C127.841 99.7449 134.871 104.952 139.825 98.7764C145.301 91.9464 138.365 85.9621 138.365 85.9621Z" fill="#1A0000" stroke="#1A0000" stroke-width="1.09701" stroke-miterlimit="10" stroke-linecap="round"/>
<path d="M9.27735 20.8437C10.8548 20.4762 12.8219 20.412 12.9879 22.4975C13.0433 23.1927 12.9193 23.92 12.6879 24.5753C12.5219 25.0447 12.2053 25.6214 11.6584 25.71C10.9932 25.8184 10.7308 25.1244 10.9334 24.6008C11.4968 23.1385 13.7949 22.9669 14.8365 23.9565C15.8184 24.8897 15.5195 26.6597 14.2864 27.201C14.4491 27.4125 14.6118 27.6239 14.7757 27.8342C15.5683 26.9719 16.9365 27.2996 17.4977 28.256C17.7822 28.7397 17.8752 29.3165 17.8386 29.8699C17.8032 30.4079 17.5143 30.9404 17.6073 31.4839C17.7479 32.3053 18.7818 32.7613 19.3187 33.3015C20.1478 34.134 20.7555 35.138 21.1452 36.2428C21.3167 36.7287 22.096 36.5195 21.9234 36.028C21.4883 34.7915 20.8175 33.6624 19.8899 32.7303C19.3441 32.1824 18.3888 31.7451 18.4674 30.8895C18.525 30.2596 18.7021 29.7393 18.6113 29.0862C18.4718 28.0844 17.904 27.1402 16.9475 26.7361C16.0088 26.3387 14.9052 26.5025 14.2056 27.263C13.8801 27.6173 14.2853 28.0755 14.6949 27.8962C16.1361 27.2641 16.632 25.3325 15.8826 23.9919C15.0336 22.4743 12.9104 22.1621 11.4625 22.9447C10.7308 23.3399 10.0611 24.0595 10.0478 24.934C10.0367 25.6945 10.5205 26.4173 11.3086 26.5169C13.33 26.7738 13.931 23.8657 13.7871 22.389C13.6931 21.4293 13.2558 20.5338 12.3658 20.0843C11.3463 19.5696 10.1231 19.8165 9.06703 20.0633C8.55782 20.184 8.77147 20.9622 9.27735 20.8437Z" fill="#1A0000"/>
<path d="M144.009 26.9552C142.422 25.825 140.3 25.0258 138.999 27.0006C138.177 28.2493 137.564 30.8883 139.064 31.8779C139.721 32.3107 140.536 32.1912 141.032 31.5746C141.574 30.8994 141.481 29.9695 141.088 29.2455C140.298 27.7888 138.351 26.9906 136.804 27.6891C135.132 28.443 134.652 30.7964 135.91 32.1226C136.175 32.4026 136.728 32.1148 136.584 31.7307C135.782 29.581 133.011 29.8178 131.887 31.5436C131.557 32.0495 131.376 32.6152 131.279 33.2074C131.119 34.2048 130.2 34.1893 129.411 34.5003C128.145 34.9996 127.043 35.7933 126.139 36.8039C125.793 37.1903 126.362 37.7626 126.709 37.374C127.519 36.4696 128.494 35.7335 129.625 35.2774C130.376 34.9752 131.494 34.9675 131.898 34.1505C132.077 33.7874 132.048 33.3347 132.146 32.9495C132.286 32.4037 132.557 31.8746 132.973 31.4872C133.804 30.7156 135.362 30.7521 135.806 31.9432C136.03 31.8126 136.255 31.682 136.48 31.5514C135.537 30.5573 136.045 28.7773 137.326 28.3467C138.627 27.9094 140.612 28.9123 140.612 30.4267C140.612 31.2326 139.69 31.6466 139.203 30.896C138.998 30.5794 138.983 30.1654 138.987 29.8023C138.996 29.1016 139.191 28.3146 139.521 27.6958C140.488 25.877 142.28 26.7117 143.601 27.6515C144.026 27.9537 144.429 27.2541 144.009 26.9552Z" fill="#1A0000"/>
<path d="M106.361 87.9377C106.361 87.9377 122.628 43.2836 73.6444 41.7394C31.853 40.4221 38.89 85.2245 38.89 85.2245L40.1962 85.1171C40.1962 85.1171 40.3268 47.6196 75.7985 51.1597C108.871 54.4607 104.34 88.7712 104.34 88.7712L106.361 87.9377Z" fill="#FFD44D" stroke="#FFD44D" stroke-width="0.25416" stroke-miterlimit="10"/>
<path d="M112.776 88.4635C110.122 86.762 106.575 87.248 103.636 89.3767C103.878 87.983 104.046 86.5606 104.113 85.1082C104.134 84.6522 104.12 84.2049 104.123 83.7522C103.655 83.7367 103.187 83.7223 102.719 83.6913C98.1011 83.3825 93.5958 82.1958 89.5299 79.9597C86.1503 78.1011 83.1582 75.5883 80.7483 72.5762C78.4812 69.7424 76.8927 66.0828 75.8433 60.8955C72.5368 65.8879 67.5654 70.4221 63.277 73.3367C56.6706 77.8266 48.9329 81.2217 40.903 81.887C40.8974 81.9788 40.8875 82.0696 40.883 82.1626C40.8377 83.1389 40.8421 84.1053 40.8786 85.0628C39.1927 83.8994 37.2411 83.4024 35.3216 83.8219C30.9712 84.7728 28.433 90.0619 29.6506 95.6355C30.8694 101.208 35.3836 104.955 39.734 104.004C42.0022 103.508 43.7711 101.827 44.7785 99.5464C49.9104 109.148 59.593 115.842 70.9727 116.372C82.4409 116.907 92.7777 111.051 98.7609 101.846C99.2347 103.516 100.194 104.937 101.626 105.854C105.374 108.257 110.91 106.313 113.988 101.51C117.068 96.7093 116.524 90.8678 112.776 88.4635Z" fill="#CD5428" stroke="#CD5428" stroke-width="1.03003" stroke-miterlimit="10"/>
<path d="M66.5693 113.456L65.853 121.224L60.7593 121.683C60.7593 121.683 57.2508 129.653 67.2844 132.863C77.3179 136.074 81.2632 123.64 81.2632 123.64L74.9977 121.683L75.4637 114.042L66.5693 113.456Z" fill="#CD5428" stroke="#CD5428" stroke-width="1.01033" stroke-miterlimit="10"/>
<path d="M41.9227 89.8962C40.736 88.456 39.3025 87.131 37.6553 86.5808C36.027 86.0019 34.2204 86.8565 33.2883 88.2258C32.3507 89.6338 32.3186 91.55 32.5511 93.3433C32.8079 95.1598 33.2983 96.9742 33.9359 98.7486C32.9573 97.1324 32.2035 95.3613 31.7928 93.4761C31.3976 91.6275 31.298 89.4766 32.4481 87.669C33.0293 86.7834 33.8927 86.1391 34.8591 85.7595C35.8432 85.3809 36.9878 85.4163 37.9298 85.8093C39.8338 86.6085 41.0681 88.2324 41.9227 89.8962Z" fill="#8B2A0C"/>
<path d="M44.924 100.884C44.2963 99.5228 44.0495 98.0228 43.8757 96.545C43.8037 95.8011 43.7661 95.055 43.7583 94.31C43.7528 93.5639 43.7904 92.8189 43.8535 92.0762C43.9166 93.565 43.9654 95.0473 44.1281 96.5195C44.1945 97.2568 44.2963 97.9896 44.4203 98.7202C44.5543 99.4464 44.6926 100.177 44.924 100.884Z" fill="#8B2A0C"/>
<path d="M43.3093 107.167L41.0599 104.694L39.5135 107.41L39.3541 103.528L37.0283 102.543L39.6662 101.988L40.5009 99.0371L41.7662 101.811L44.5623 101.909L42.6174 103.431L43.3093 107.167Z" fill="white" stroke="white" stroke-width="0.261245" stroke-miterlimit="10" stroke-linecap="round"/>
<path d="M60.8924 72.5461C59.7965 72.3092 58.7471 72.2627 57.7442 72.2715C56.739 72.3058 55.7649 72.4332 54.8107 72.6833C53.8554 72.9368 52.9222 73.2999 51.9769 73.7228C51.502 73.9298 51.0459 74.1921 50.55 74.4091C50.0574 74.6393 49.6046 74.9338 49.0611 75.1485L49.0412 75.1563C49.0157 75.1662 48.9881 75.1541 48.9781 75.1286C48.9703 75.1087 48.9759 75.0877 48.9914 75.0744L50.219 73.9884C50.6673 73.6752 51.088 73.3209 51.5595 73.042C52.4872 72.4586 53.4967 72.0059 54.555 71.7003C56.6848 71.1801 59.0271 71.3605 60.9488 72.4597C60.9721 72.473 60.9798 72.5029 60.9666 72.5261C60.9555 72.5449 60.9345 72.5538 60.9145 72.5494L60.8924 72.5461Z" fill="#2E2E2E"/>
<path d="M85.1682 74.2159C86.0305 73.4366 87.1662 72.9717 88.3407 72.8333C89.5197 72.6662 90.7351 72.8344 91.8697 73.2008C92.9822 73.627 94.0151 74.2292 94.863 75.0229C95.3025 75.3982 95.6523 75.8664 96.0209 76.2959C96.322 76.793 96.643 77.2557 96.881 77.776L96.8865 77.787C96.8976 77.8125 96.8865 77.8424 96.8622 77.8534C96.8422 77.8623 96.8201 77.8579 96.8057 77.8435L95.6578 76.6889C95.2338 76.3513 94.8409 75.9727 94.3936 75.6683C93.5158 75.034 92.5527 74.5259 91.5377 74.1606C89.5152 73.4555 87.1961 73.4123 85.2191 74.3067C85.1936 74.3178 85.1637 74.3067 85.1527 74.2812C85.1438 74.2602 85.1493 74.237 85.1648 74.2226L85.1682 74.2159Z" fill="#2E2E2E"/>
<path opacity="0.49" d="M63.8033 101.067C62.9333 105.859 58.3416 109.038 53.5495 108.167C48.7574 107.297 45.5782 102.705 46.4494 97.9128C47.3195 93.1207 51.9112 89.9415 56.7032 90.8127C61.4953 91.6839 64.6734 96.2745 63.8033 101.067Z" fill="#8B2A0C" stroke="#8B2A0C" stroke-width="1.14449" stroke-miterlimit="10"/>
<path opacity="0.49" d="M96.5253 103.508C95.6551 108.3 91.0625 111.48 86.2696 110.61C81.4766 109.74 78.2968 105.147 79.1682 100.354C80.0384 95.5614 84.631 92.3816 89.4239 93.2518C94.2157 94.1232 97.3955 98.7146 96.5253 103.508Z" fill="#8B2A0C" stroke="#8B2A0C" stroke-width="1.1445" stroke-miterlimit="10"/>
<path d="M67.1562 93.9979C67.4208 92.8611 68.0175 91.7774 68.9119 90.9372C69.793 90.0937 71.0661 89.549 72.3324 89.5977C72.9557 89.6132 73.5977 89.7328 74.191 89.9974C74.7689 90.2918 75.288 90.7069 75.65 91.2239C76.3895 92.2523 76.6264 93.4987 76.5157 94.6555C76.2234 93.5363 75.7729 92.4736 75.0556 91.7087C74.3449 90.935 73.3663 90.5741 72.3158 90.5785C71.2753 90.5243 70.2702 90.904 69.399 91.5239C68.5278 92.1571 67.7905 93.026 67.1562 93.9979Z" fill="#8B2A0C"/>
<g opacity="0.53">
<path d="M76.5511 95.0153C76.5511 95.0153 76.5644 90.903 73.0852 90.3417C69.0337 89.6886 67.2227 94.0036 67.2227 94.0036" fill="#8B2A0C"/>
<path d="M76.5511 95.0149C76.302 93.8858 75.8924 92.8065 75.205 92.0139C74.5231 91.2136 73.5589 90.8162 72.5095 90.7819C71.4712 90.6889 70.4539 91.0309 69.5595 91.6165C68.665 92.2165 67.8946 93.0567 67.2227 94.0032C67.5282 92.8774 68.1658 91.8158 69.0912 91.0099C70.0045 90.1996 71.2974 89.7048 72.5605 89.8022C73.1826 89.8432 73.8202 89.9838 74.4025 90.2738C74.9692 90.5893 75.4707 91.0243 75.8138 91.5545C76.5134 92.6095 76.7038 93.8637 76.5511 95.0149Z" fill="#8B2A0C"/>
</g>
<path d="M63.4959 80.394C63.4107 81.5862 63.3409 82.7142 63.0764 83.819C62.866 84.9171 62.5517 85.982 62.0447 86.9041C61.0517 88.7693 59.3569 89.894 57.3002 90.1054C55.2988 90.4253 53.417 89.6095 52.0211 88.0088C50.5599 86.4635 49.6034 84.3359 48.8297 82.2083L48.7112 81.884L48.4599 81.9991C47.7614 82.3212 47.0762 82.6788 46.3877 83.0264L46.4298 83.136L48.5817 82.3157L48.4954 82.267C48.968 84.5385 49.8071 86.7779 51.2595 88.6243C51.9812 89.542 52.9077 90.3202 53.9859 90.8039C55.0674 91.281 56.284 91.4227 57.4474 91.2589C58.6097 91.1128 59.7566 90.7065 60.7108 90.0113C61.676 89.325 62.3856 88.3343 62.8605 87.2683C63.7826 85.1041 63.8723 82.6788 63.6099 80.4029L63.4959 80.394Z" fill="black"/>
<path d="M48.9696 83.6923L46.4258 85.5166L49.4987 84.9188L48.9696 83.6923Z" fill="black"/>
<path d="M49.965 85.8884L47.4932 88.0957L50.6846 87.2046L49.965 85.8884Z" fill="black"/>
<path d="M79.2134 83.4826C79.1437 84.6449 79.3075 85.8426 79.5544 87.0227C79.8566 88.1905 80.3281 89.3407 81.0344 90.4056C81.734 91.4716 82.7779 92.3893 84.0221 92.9261C85.2674 93.4708 86.6434 93.587 87.9275 93.4486C89.2326 93.3147 90.5543 92.8033 91.6225 91.9631C92.6775 91.1063 93.4313 89.9727 93.9084 88.8049C94.7896 86.4238 94.9412 83.9785 94.5405 81.6173L94.2339 81.9096C95.0021 81.9528 95.7748 81.9594 96.5463 81.976L96.5607 81.8598L94.2748 81.5731L94.2007 81.5642L94.2029 81.6417C94.2759 83.9353 93.9837 86.2998 93.0217 88.3931C92.5446 89.4359 91.8439 90.3812 90.9418 91.0786C90.0352 91.7738 88.9293 92.1734 87.7935 92.2952C86.6622 92.4402 85.4888 92.335 84.4284 91.9166C83.3601 91.5081 82.4513 90.7509 81.7395 89.8565C80.3326 88.0212 79.6463 85.7441 79.3252 83.4483L79.2134 83.4826Z" fill="black"/>
<path d="M94.3066 84.4502L97.4338 84.2864L94.5236 83.1318L94.3066 84.4502Z" fill="black"/>
<path d="M93.8555 86.9539L97.1675 87.0469L94.2352 85.5038L93.8555 86.9539Z" fill="black"/>
<path opacity="0.49" d="M76.0178 98.788C76.0244 100.352 74.1514 103.375 71.1427 103.389C68.1351 103.402 66.4536 100.067 66.6185 98.5068C66.6185 98.5068 68.2103 98.1072 71.218 98.0939C74.2256 98.0807 76.0178 98.788 76.0178 98.788Z" fill="#8B2A0C"/>
<path d="M65.8973 98.6591C65.9278 98.9225 66.011 99.1823 66.2383 99.4254C66.4281 99.6693 66.7421 99.8987 67.2061 100.08C68.0942 100.452 69.5588 100.624 71.096 100.616C72.6263 100.649 74.1084 100.506 75.2672 100.191C75.8542 100.037 76.3569 99.8427 76.7705 99.6263C77.218 99.4143 77.5531 99.176 77.8414 98.9285L77.8449 98.9255C77.8519 98.9192 77.8742 98.9163 77.8929 98.9185C77.9105 98.9207 77.9199 98.9263 77.9175 98.9318C77.6082 99.4499 76.8771 99.952 75.6784 100.326C74.4798 100.707 72.7657 101.038 71.096 101.019C69.4428 101.015 67.6396 100.644 66.714 100.185C65.779 99.7364 65.6115 99.1745 65.8224 98.655C65.8247 98.6483 65.8434 98.6439 65.8645 98.6446C65.8833 98.6454 65.8962 98.6502 65.8973 98.6561V98.6591Z" fill="#3B130E"/>
<path d="M75.8704 59.2566C75.4708 60.7023 74.6693 62.0052 74.004 63.338C73.4372 64.4726 73.0963 65.7124 73.6055 66.9434C74.0693 68.0647 75.3324 68.9791 76.5777 68.5396C77.5408 68.1998 78.0234 66.8991 77.4024 66.0467C76.6497 65.0117 74.946 65.5652 74.1025 66.1663C72.9801 66.9666 72.4022 68.3437 72.6148 69.7086C72.7985 70.8886 73.6797 72.2059 75.0246 72.0376C76.0353 71.9114 76.9319 70.5565 75.9257 69.7916C74.78 68.9204 73.2424 70.1226 72.8162 71.1952C72.1831 72.7871 73.1683 74.4043 74.3627 75.4139C74.7346 75.7294 75.277 75.1925 74.9018 74.8748C74.035 74.142 73.1705 73.0372 73.4173 71.8207C73.5269 71.2805 73.8756 70.7536 74.3616 70.4801C74.5752 70.3595 75.0302 70.189 75.2848 70.3174C75.8914 70.624 75.4386 71.151 75.0158 71.2694C73.4682 71.7056 73.1771 69.1241 73.4782 68.2109C73.8291 67.1471 75.1697 65.9416 76.3785 66.2947C77.0637 66.4951 77.0747 67.3862 76.4715 67.7559C75.9556 68.0714 75.2161 67.7902 74.8143 67.4116C73.9653 66.6135 73.9719 65.2873 74.3948 64.2833C75.0822 62.6505 76.1283 61.1838 76.6054 59.4603C76.7371 58.9854 76.0021 58.7839 75.8704 59.2566Z" fill="#1A0000"/>
<path d="M103.193 93.098C104.327 91.6102 105.827 90.2265 107.839 89.7716C108.836 89.5491 109.969 89.7151 110.871 90.2598C111.756 90.8033 112.494 91.5892 112.91 92.5622C113.727 94.5426 113.252 96.6436 112.54 98.3949C111.804 100.178 110.753 101.791 109.506 103.211C110.444 101.575 111.245 99.876 111.816 98.1325C112.358 96.4067 112.662 94.5149 111.986 92.9652C111.307 91.4542 109.679 90.2974 107.974 90.5819C106.257 90.8343 104.615 91.887 103.193 93.098Z" fill="#8B2A0C"/>
<path d="M98.3174 103.39C98.6694 102.734 98.9329 102.04 99.1908 101.347C99.441 100.65 99.6701 99.9464 99.8638 99.2313C100.282 97.81 100.589 96.3598 100.912 94.9053C100.845 95.6469 100.752 96.3875 100.615 97.1214C100.477 97.8542 100.31 98.5826 100.108 99.3022C99.679 100.726 99.1731 102.159 98.3174 103.39Z" fill="#8B2A0C"/>
<path d="M105.761 109.54L103.511 107.066L101.964 109.783L101.805 105.9L99.4785 104.916L102.118 104.361L102.952 101.409L104.217 104.184L107.014 104.282L105.069 105.803L105.761 109.54Z" fill="white" stroke="white" stroke-width="0.261245" stroke-miterlimit="10" stroke-linecap="round"/>
<mask id="mask0_875_11817" style="mask-type:luminance" maskUnits="userSpaceOnUse" x="37" y="119" width="60" height="56">
<path d="M62.0742 121.221C62.0742 121.221 61.9185 127.87 69.0305 127.735C76.3798 127.597 77.315 121.107 77.315 121.107L83.738 121.514C83.738 121.514 92.2048 162.977 96.8994 167.307C96.8994 167.307 68.6432 179.536 37.0209 171.77L56.4226 119.316L62.0742 121.221Z" fill="white"/>
</mask>
<g mask="url(#mask0_875_11817)">
<path d="M62.0742 121.221C62.0742 121.221 61.9185 127.87 69.0305 127.735C76.3798 127.597 77.315 121.107 77.315 121.107L83.738 121.514C83.738 121.514 92.2048 162.977 96.8994 167.307C96.8994 167.307 68.6432 179.536 37.0209 171.77L56.4226 119.316L62.0742 121.221Z" fill="#7A5FFF" stroke="#7A5FFF" stroke-width="1.01653" stroke-miterlimit="10"/>
</g>
<mask id="mask1_875_11817" style="mask-type:luminance" maskUnits="userSpaceOnUse" x="37" y="119" width="60" height="56">
<path d="M62.0742 121.221C62.0742 121.221 61.9185 127.87 69.0305 127.735C76.3798 127.597 77.315 121.107 77.315 121.107L83.738 121.514C83.738 121.514 92.2048 162.977 96.8994 167.307C96.8994 167.307 68.6432 179.536 37.0209 171.77L56.4226 119.316L62.0742 121.221Z" fill="white"/>
</mask>
<g mask="url(#mask1_875_11817)">
<path d="M56.7272 143.22L56.6192 135.149C56.6178 135.078 56.5555 135.012 56.4799 135.002L49.3111 134.037C49.1655 134.017 49.1171 133.83 49.2454 133.784L57.0006 131.019C57.0368 131.007 57.0623 130.978 57.0712 130.942L58.5403 124.908C58.5692 124.789 58.75 124.797 58.8045 124.919L61.3296 130.605C61.3576 130.666 61.4258 130.707 61.492 130.7L68.6899 129.935C68.8255 129.92 68.9232 130.086 68.8265 130.167L63.6843 134.491C63.639 134.53 63.6331 134.597 63.6713 134.653L67.5664 140.391C67.6446 140.506 67.5296 140.627 67.4015 140.563L60.781 137.279C60.715 137.246 60.6392 137.262 60.6065 137.317L56.9893 143.314C56.9231 143.424 56.7291 143.355 56.7272 143.22Z" fill="#FFD44D"/>
</g>
<mask id="mask2_875_11817" style="mask-type:luminance" maskUnits="userSpaceOnUse" x="37" y="119" width="60" height="56">
<path d="M62.0742 121.221C62.0742 121.221 61.9185 127.87 69.0305 127.735C76.3798 127.597 77.315 121.107 77.315 121.107L83.738 121.514C83.738 121.514 92.2048 162.977 96.8994 167.307C96.8994 167.307 68.6432 179.536 37.0209 171.77L56.4226 119.316L62.0742 121.221Z" fill="white"/>
</mask>
<g mask="url(#mask2_875_11817)">
<path d="M75.24 163.048L79.1102 155.448C79.1442 155.381 79.1217 155.298 79.0587 155.262L73.1849 151.874C73.066 151.805 73.1145 151.613 73.2516 151.614L81.4789 151.711C81.5171 151.711 81.5536 151.694 81.5799 151.663L85.8449 146.518C85.9283 146.417 86.0844 146.487 86.0723 146.62L85.5153 152.821C85.5094 152.889 85.5509 152.951 85.6131 152.967L92.3633 154.745C92.491 154.779 92.4948 154.968 92.3695 155.011L85.692 157.28C85.6324 157.3 85.5942 157.361 85.6003 157.427L86.231 164.153C86.244 164.288 86.0832 164.361 86.0001 164.257L81.7509 158.886C81.7085 158.832 81.6338 158.822 81.5786 158.861L75.4296 163.228C75.3148 163.308 75.1754 163.175 75.24 163.048Z" fill="#FFD44D"/>
</g>
<mask id="mask3_875_11817" style="mask-type:luminance" maskUnits="userSpaceOnUse" x="37" y="119" width="60" height="56">
<path d="M62.0742 121.221C62.0742 121.221 61.9185 127.87 69.0305 127.735C76.3798 127.597 77.315 121.107 77.315 121.107L83.738 121.514C83.738 121.514 92.2048 162.977 96.8994 167.307C96.8994 167.307 68.6432 179.536 37.0209 171.77L56.4226 119.316L62.0742 121.221Z" fill="white"/>
</mask>
<g mask="url(#mask3_875_11817)">
<path d="M44.3839 171.686L42.7249 163.816C42.7103 163.746 42.6352 163.692 42.5577 163.691L35.2255 163.72C35.0764 163.72 34.9928 163.544 35.1116 163.482L42.3125 159.728C42.3467 159.711 42.3663 159.68 42.3683 159.644L42.6726 153.55C42.679 153.431 42.8602 153.414 42.9378 153.526L46.5487 158.737C46.5883 158.794 46.6649 158.824 46.7296 158.808L53.7583 157.085C53.8909 157.052 54.0195 157.202 53.9392 157.294L49.6432 162.214C49.6055 162.258 49.6129 162.324 49.6612 162.373L54.6477 167.45C54.7484 167.552 54.6567 167.685 54.5161 167.641L47.2845 165.33C47.2123 165.307 47.1403 165.333 47.1182 165.39L44.6651 171.739C44.6194 171.858 44.412 171.817 44.3839 171.686Z" fill="#FFD44D"/>
</g>
<mask id="mask4_875_11817" style="mask-type:luminance" maskUnits="userSpaceOnUse" x="37" y="119" width="60" height="53">
<path d="M62.0742 121.221C62.0742 121.221 61.9185 127.87 69.0305 127.735C76.3798 127.597 77.315 121.107 77.315 121.107L83.738 121.514C83.738 121.514 92.2048 162.977 96.8994 167.307C96.8994 167.307 70.0137 153.431 37.0209 171.77L56.4226 119.316L62.0742 121.221Z" fill="white"/>
</mask>
<g mask="url(#mask4_875_11817)">
<path d="M76.2988 133.006L77.7048 130.246C77.7177 130.222 77.7084 130.192 77.6859 130.178L75.5523 128.948C75.509 128.922 75.5269 128.853 75.5763 128.854L78.5651 128.888C78.5787 128.889 78.5921 128.882 78.6016 128.871L80.1515 127.002C80.1824 126.965 80.2382 126.991 80.2338 127.039L80.0315 129.292C80.0288 129.316 80.0447 129.338 80.0671 129.345L82.5193 129.99C82.565 130.002 82.5672 130.071 82.5215 130.086L80.0952 130.911C80.0739 130.918 80.0596 130.94 80.0623 130.964L80.2914 133.407C80.296 133.456 80.2376 133.483 80.2078 133.444L78.6646 131.493C78.6491 131.473 78.6215 131.47 78.6025 131.484L76.3685 133.07C76.3253 133.101 76.2749 133.053 76.2988 133.006Z" fill="#FFD44D"/>
</g>
<mask id="mask5_875_11817" style="mask-type:luminance" maskUnits="userSpaceOnUse" x="37" y="119" width="60" height="53">
<path d="M62.0742 121.221C62.0742 121.221 61.9185 127.87 69.0305 127.735C76.3798 127.597 77.315 121.107 77.315 121.107L83.738 121.514C83.738 121.514 92.2048 162.977 96.8994 167.307C96.8994 167.307 73.2405 155.619 37.0209 171.77L56.4226 119.316L62.0742 121.221Z" fill="white"/>
</mask>
<g mask="url(#mask5_875_11817)">
<path d="M62.124 154.501L62.544 151.566C62.5477 151.541 62.5288 151.514 62.503 151.508L59.9971 150.87C59.9467 150.857 59.9399 150.787 59.9885 150.776L62.915 150.083C62.9291 150.08 62.9399 150.07 62.9446 150.058L63.8125 147.926C63.8293 147.884 63.8937 147.894 63.9058 147.941L64.4845 150.106C64.4906 150.13 64.5136 150.148 64.5372 150.147L67.1509 150.158C67.2003 150.159 67.2253 150.223 67.1869 150.248L65.105 151.612C65.0868 151.624 65.0806 151.648 65.091 151.67L66.1562 153.91C66.1781 153.955 66.1295 153.994 66.0879 153.966L63.9105 152.508C63.8891 152.493 63.8604 152.496 63.8466 152.514L62.2145 154.547C62.1822 154.583 62.1174 154.55 62.124 154.501Z" fill="#FFD44D"/>
</g>
<path d="M58.0718 166.004C52.201 165.595 47.3642 170.497 48.0765 176.339C49.3093 186.45 51.5522 200.762 54.9182 207.29C55.3972 208.22 55.543 209.296 55.1844 210.278C54.4057 212.411 56.0049 214.663 58.2753 214.63L60.8708 214.593C64.0885 214.547 66.4357 211.533 65.6917 208.402L65.6471 208.214C65.5341 207.739 65.4889 207.25 65.5128 206.762L67.017 176.077C67.2735 170.844 63.298 166.368 58.0718 166.004Z" fill="#B44A24" stroke="#B44A24" stroke-width="1.01653" stroke-miterlimit="10"/>
<path d="M66.1228 194.345C61.0999 194.493 56.0809 194.785 51.0556 194.879C52.3164 200.758 53.8767 205.963 55.7561 208.713L53.5713 214.697L67.1421 214.503L65.4772 207.497L66.1228 194.345Z" fill="white" stroke="white" stroke-width="1.01653" stroke-miterlimit="10"/>
<path d="M65.6149 204.694C63.8077 204.541 61.9458 204.84 60.1802 205.127C58.2265 205.443 56.2687 205.813 54.291 205.938C54.7568 207.018 55.2432 207.963 55.7565 208.714L53.5717 214.698L67.1425 214.504L65.4776 207.498L65.6149 204.694Z" fill="black" stroke="black" stroke-width="1.01653" stroke-miterlimit="10"/>
<path d="M77.705 166.143C83.5813 165.817 88.3487 170.787 87.554 176.619C86.1786 186.712 83.7339 200.99 80.2761 207.471C79.7841 208.393 79.6233 209.467 79.968 210.454C80.7166 212.597 79.086 214.826 76.8166 214.762L74.2207 214.688C71.0039 214.596 68.6995 211.549 69.4876 208.429L69.5349 208.242C69.6545 207.768 69.7066 207.28 69.6896 206.791L68.6178 176.09C68.435 170.853 72.4737 166.433 77.705 166.143Z" fill="#B44A24" stroke="#B44A24" stroke-width="1.01653" stroke-miterlimit="10"/>
<path d="M84.108 195.987C79.185 196.2 74.2525 196.236 69.3247 196.352L69.7153 207.527L67.9517 214.509L81.5193 214.895L79.4188 208.881C81.2396 206.294 82.8036 201.484 84.108 195.987Z" fill="white" stroke="white" stroke-width="1.01653" stroke-miterlimit="10"/>
<path d="M81.2249 205.43C77.4705 205.261 73.7161 205.101 69.9569 205.129C69.8097 205.129 69.7043 205.075 69.6265 204.997L69.7151 207.527L67.9516 214.509L81.5191 214.895L79.4187 208.881C80.0516 207.981 80.6525 206.802 81.2249 205.43Z" fill="black" stroke="black" stroke-width="1.01653" stroke-miterlimit="10"/>
<path opacity="0.49" d="M62.3318 170.393C62.2728 171.998 60.016 173.22 57.2925 173.118C54.5689 173.017 52.4082 171.634 52.4683 170.028C52.5272 168.423 54.784 167.202 57.5075 167.303C60.2311 167.404 62.3907 168.788 62.3318 170.393Z" fill="#8B2A0C" stroke="#8B2A0C" stroke-width="0.491826" stroke-miterlimit="10"/>
<path opacity="0.49" d="M83.364 170.393C83.305 172 81.0483 173.22 78.3247 173.118C75.6011 173.017 73.4404 171.634 73.5005 170.028C73.5595 168.422 75.8162 167.202 78.5398 167.303C81.2633 167.404 83.423 168.787 83.364 170.393Z" fill="#8B2A0C" stroke="#8B2A0C" stroke-width="0.491826" stroke-miterlimit="10"/>
<g clip-path="url(#clip0_875_11817)">
<path d="M83.2907 145.013C82.4353 144.78 81.5764 144.641 80.8492 144.534C79.6287 144.355 78.5305 144.267 77.4922 144.267C76.3679 144.267 75.3007 144.373 74.3217 144.585C73.0194 144.864 71.9563 145.31 71.0686 145.949C70.2091 146.571 69.5117 147.39 69.0354 148.338C68.5597 147.39 67.8623 146.57 67.0023 145.949C66.1146 145.31 65.051 144.864 63.7482 144.585C62.7679 144.373 61.7007 144.267 60.5778 144.267C59.5399 144.267 58.4413 144.354 57.2212 144.534C56.494 144.641 55.6346 144.781 54.7789 145.013C54.3188 145.137 55.5051 166.293 55.5051 166.293C55.6162 167.133 55.6162 167.133 55.7646 167.519C55.9193 167.924 56.2548 168.185 56.6195 168.185C56.8799 168.185 57.1205 168.053 57.2972 167.814C57.9983 166.863 59.8223 166.274 62.056 166.274C62.427 166.274 62.798 166.291 63.16 166.325L64.2384 166.423C65.6878 166.555 68.4827 166.845 68.4854 166.845C68.6649 166.917 69.4082 166.917 69.5895 166.845C69.5922 166.845 72.3866 166.555 73.8356 166.423L74.9135 166.325C75.2991 166.289 75.6861 166.271 76.0733 166.271C78.2899 166.271 80.0919 166.846 80.7759 167.774C80.9531 168.014 81.1941 168.146 81.455 168.146C81.8188 168.146 82.1534 167.884 82.3085 167.48C82.4574 167.096 83.7557 145.137 83.2943 145.013" fill="#8B2A0C"/>
<path d="M68.9273 148.47C68.86 148.158 68.7706 147.851 68.6597 147.551C68.2615 146.46 67.5481 145.511 66.61 144.826C65.7061 144.166 64.6569 143.784 63.6086 143.556C61.5481 143.109 59.4043 143.203 57.333 143.512C56.5442 143.629 55.7509 143.768 54.977 143.979C54.6608 144.066 56.6094 165.9 56.8302 165.597C57.9635 164.043 60.8695 163.613 63.1936 163.832C65.0014 164.002 66.7552 164.153 68.5455 164.359C68.5756 164.364 68.6022 164.382 68.6305 164.394C68.7973 164.46 68.9705 164.286 68.9705 164.099L68.9705 148.762C68.9714 148.663 68.9502 148.568 68.9291 148.47" fill="#A7A9AC"/>
<path d="M68.9307 147.159C68.8693 146.855 68.7869 146.555 68.6842 146.263C68.2957 145.152 67.6337 144.25 66.7923 143.598C65.9595 142.955 64.9935 142.58 64.0239 142.356C62.123 141.919 60.1452 142.012 58.234 142.313C57.5063 142.427 56.7756 142.562 56.0605 142.771C55.7682 142.855 57.6179 163.966 57.8207 163.669C59.3596 161.432 61.4102 161.245 63.6417 161.468C65.311 161.634 66.9884 162.059 68.5772 162.693C68.6039 162.704 68.6301 162.715 68.6559 162.726C68.8097 162.791 68.9694 162.622 68.9694 162.439L68.9694 147.447C68.9694 147.348 68.95 147.255 68.9307 147.159Z" fill="#E6E7E8"/>
<path d="M57.4573 144.915L57.4645 144.984C57.9 144.923 58.3367 144.872 58.7745 144.83C60.4923 144.66 62.2705 144.607 63.9803 144.855C64.8509 144.979 65.722 145.192 66.4703 145.556C66.9083 145.769 67.2919 146.03 67.6053 146.335C67.2793 145.81 66.7873 145.376 66.1843 145.055C65.5016 144.691 64.7074 144.48 63.9178 144.354C62.3604 144.106 60.7383 144.159 59.1747 144.329C58.5797 144.395 57.9798 144.47 57.3952 144.587C57.156 144.636 57.2374 144.924 57.4591 144.915M57.4573 147.066L57.4645 147.135C57.9 147.075 58.3368 147.023 58.7745 146.981C60.4923 146.811 62.2705 146.758 63.9803 147.006C64.8509 147.131 65.722 147.343 66.4703 147.707C66.9083 147.921 67.2919 148.182 67.6053 148.486C67.2793 147.961 66.7873 147.529 66.1843 147.206C65.5016 146.842 64.7074 146.63 63.9178 146.505C62.3604 146.259 60.7383 146.31 59.1747 146.481C58.5793 146.547 57.9794 146.622 57.3948 146.739C57.156 146.786 57.2374 147.074 57.4591 147.066M57.6093 149.215L57.6169 149.283C58.0523 149.222 58.4891 149.17 58.9269 149.129C60.6448 148.957 62.4229 148.906 64.1323 149.153C65.0029 149.279 65.8731 149.49 66.6214 149.855C67.0603 150.068 67.4444 150.33 67.7582 150.633C67.4313 150.109 66.9393 149.677 66.3354 149.354C65.6527 148.99 64.8594 148.778 64.0689 148.653C62.5115 148.405 60.8894 148.459 59.3263 148.629C58.7299 148.693 58.1305 148.769 57.5454 148.885C57.3062 148.934 57.3876 149.224 57.6102 149.215M57.8188 151.65L57.8274 151.717C58.2629 151.657 58.6997 151.606 59.1374 151.564C60.8553 151.394 62.6334 151.341 64.3427 151.588C65.2125 151.715 66.0835 151.926 66.8319 152.289C67.2708 152.503 67.6548 152.765 67.9678 153.069C67.6413 152.544 67.1507 152.11 66.5458 151.788C65.8641 151.424 65.0699 151.214 64.2793 151.087C62.722 150.84 61.0999 150.892 59.5376 151.063C58.9409 151.128 58.3419 151.204 57.7568 151.322C57.5175 151.369 57.5989 151.659 57.8206 151.65M57.8188 153.798L57.8274 153.867C58.2628 153.806 58.6996 153.754 59.1374 153.714C60.8553 153.543 62.6334 153.49 64.3427 153.738C65.2125 153.863 66.0835 154.076 66.8319 154.439C67.2708 154.653 67.6548 154.914 67.9678 155.218C67.6413 154.693 67.1507 154.26 66.5458 153.938C65.8641 153.574 65.0699 153.362 64.2793 153.237C62.722 152.989 61.0999 153.042 59.5376 153.212C58.9409 153.276 58.3419 153.353 57.7568 153.471C57.5175 153.52 57.5989 153.807 57.8206 153.798M57.9722 155.95L57.9798 156.017C58.4156 155.956 58.8527 155.905 59.2907 155.863C61.0086 155.692 62.7858 155.64 64.4965 155.887C65.3658 156.013 66.2373 156.225 66.9857 156.588C67.4237 156.802 67.8073 157.063 68.1216 157.367C67.7947 156.843 67.3036 156.411 66.6996 156.088C66.0179 155.724 65.2228 155.511 64.4331 155.386C62.8758 155.138 61.2537 155.192 59.691 155.36C59.0947 155.426 58.4943 155.502 57.9101 155.62C57.6709 155.668 57.7523 155.957 57.974 155.95" fill="#243438"/>
<path d="M69.012 148.47C69.0786 148.156 69.1694 147.848 69.2796 147.551C69.6788 146.46 70.3924 145.512 71.3303 144.826C72.2342 144.166 73.2833 143.784 74.3316 143.556C76.3917 143.109 78.5359 143.203 80.6059 143.512C81.3951 143.629 82.1884 143.768 82.9624 143.979C83.2794 144.066 81.3308 165.859 81.11 165.558C79.9763 164.002 77.0708 163.613 74.7467 163.832C72.9389 164.002 71.1846 164.153 69.3947 164.359C69.3655 164.364 69.3381 164.382 69.3097 164.394C69.1429 164.46 68.9698 164.286 68.9698 164.099L68.9698 148.762C68.9689 148.663 68.99 148.568 69.0111 148.47" fill="#A7A9AC"/>
<path d="M69.0084 147.159C69.0709 146.853 69.1541 146.553 69.2557 146.263C69.6438 145.152 70.3054 144.248 71.1463 143.598C71.9796 142.955 72.9496 142.58 73.916 142.356C75.817 141.919 77.7948 142.012 79.7051 142.313C80.4323 142.428 81.1644 142.562 81.8781 142.771C82.1704 142.856 80.3217 163.966 80.1184 163.669C78.5799 161.433 76.5297 161.245 74.2983 161.468C72.629 161.633 70.9525 162.059 69.3619 162.694C69.3358 162.704 69.3099 162.715 69.2841 162.727C69.1303 162.791 68.9697 162.622 68.9697 162.44L68.9697 147.447C68.9702 147.348 68.9904 147.255 69.0084 147.159Z" fill="#E6E7E8"/>
<path d="M80.4841 144.915L80.4765 144.984C80.0407 144.923 79.6036 144.872 79.1656 144.83C77.4481 144.66 75.6696 144.607 73.9602 144.855C73.0905 144.979 72.2194 145.192 71.4711 145.556C71.0322 145.769 70.6495 146.03 70.3351 146.335C70.6616 145.81 71.1532 145.376 71.7571 145.055C72.4398 144.691 73.2326 144.48 74.0236 144.354C75.581 144.106 77.1986 144.159 78.7667 144.329C79.3621 144.395 79.9611 144.47 80.5466 144.587C80.7859 144.636 80.7045 144.924 80.4823 144.915M80.4841 147.066L80.4765 147.135C80.0406 147.075 79.6035 147.023 79.1656 146.981C77.4481 146.811 75.6696 146.758 73.9602 147.006C73.0905 147.131 72.2194 147.343 71.4711 147.707C71.0322 147.921 70.6495 148.182 70.3351 148.486C70.6616 147.961 71.1532 147.529 71.7571 147.206C72.4398 146.842 73.2326 146.63 74.0236 146.505C75.581 146.259 77.1986 146.31 78.7667 146.481C79.3621 146.547 79.9611 146.621 80.5466 146.739C80.7859 146.786 80.7045 147.074 80.4823 147.066M80.3312 149.215L80.3227 149.283C79.887 149.222 79.4499 149.17 79.0118 149.129C77.2948 148.957 75.5167 148.906 73.8073 149.153C72.9376 149.279 72.0656 149.49 71.3173 149.855C70.8788 150.068 70.4952 150.33 70.1822 150.633C70.5087 150.109 70.9994 149.677 71.6038 149.354C72.286 148.99 73.0788 148.778 73.8748 148.653C75.4312 148.405 77.0497 148.459 78.6165 148.628C79.2119 148.693 79.8123 148.769 80.3969 148.885C80.6361 148.934 80.5552 149.224 80.3335 149.215M80.1199 151.65L80.1122 151.717C79.6767 151.657 79.2399 151.606 78.8022 151.564C77.0848 151.394 75.3062 151.341 73.5969 151.588C72.7262 151.715 71.8552 151.926 71.1068 152.289C70.6684 152.503 70.2848 152.765 69.9709 153.069C70.2974 152.544 70.7889 152.11 71.3938 151.788C72.0755 151.424 72.8692 151.214 73.6603 151.087C75.2176 150.84 76.8352 150.892 78.4033 151.063C78.9987 151.128 79.5986 151.204 80.1833 151.32C80.423 151.369 80.3416 151.659 80.119 151.65M80.1199 153.798L80.1122 153.867C79.6768 153.806 79.24 153.754 78.8022 153.714C77.0848 153.543 75.3062 153.49 73.5969 153.738C72.7262 153.863 71.8552 154.076 71.1068 154.439C70.6684 154.653 70.2848 154.914 69.9709 155.218C70.2974 154.693 70.7889 154.26 71.3938 153.938C72.0755 153.574 72.8692 153.362 73.6603 153.237C75.2176 152.989 76.8352 153.042 78.4033 153.212C78.9987 153.276 79.5986 153.353 80.1833 153.47C80.423 153.52 80.3416 153.807 80.119 153.798M79.967 155.95L79.9607 156.017C79.5249 155.956 79.0878 155.905 78.6498 155.863C76.9319 155.692 75.1537 155.64 73.444 155.887C72.5738 156.013 71.7036 156.225 70.9548 156.588C70.5168 156.802 70.1323 157.063 69.8193 157.367C70.1454 156.843 70.6374 156.411 71.2409 156.088C71.9235 155.724 72.7168 155.511 73.5119 155.386C75.0683 155.138 76.6868 155.192 78.2545 155.36C78.8499 155.426 79.4493 155.502 80.0349 155.62C80.2737 155.668 80.1918 155.957 79.9692 155.95" fill="#243438"/>
<path d="M70.2414 164.045C70.2414 164.259 69.154 164.433 68.9701 164.433C68.7862 164.433 67.6992 164.259 67.6992 164.045L68.6373 147.388C68.6373 147.173 68.7866 146.999 68.9701 146.999C69.154 146.999 69.3033 147.173 69.3033 147.388L70.2414 164.045Z" fill="#A7A9AC"/>
</g>
<path d="M55.2242 120.436C53.5638 128.739 45.9051 148.386 45.9051 148.386L65.268 154.506C69.2854 151.746 72.4229 154.918 72.4229 154.918C76.7011 154.899 75.3495 157.873 75.3495 157.873C73.4074 168.117 40.5206 166.355 33.936 149.771C32.5954 146.393 38.0654 128.185 44.1545 123.757C47.1993 121.543 51.3498 120.99 55.2242 120.436Z" fill="#B44A24" stroke="#B44A24" stroke-width="1.01033" stroke-miterlimit="10"/>
<path d="M84.0052 121.849C84.0052 121.849 95.043 123.544 107.569 132.196L119.709 110.402C119.874 110.021 120.451 110.176 120.421 110.592L120.12 114.724L122.514 110.659C122.697 110.348 123.183 110.539 123.113 110.895C122.71 112.945 122.14 115.925 122.234 115.894C122.333 115.862 123.924 112.841 124.942 111.087C125.133 110.759 125.644 110.946 125.595 111.326L125.004 115.837L127.758 112.483C128.04 112.139 128.605 112.42 128.504 112.856C127.397 117.591 121.09 135.819 116.12 141.176C111.336 144.602 108.582 144.332 93.9243 140.675L87.3261 138.816L84.0052 121.849Z" fill="#B44A24" stroke="#B44A24" stroke-width="0.50201" stroke-miterlimit="10" stroke-linecap="round"/>
<path d="M126.673 120.344C125.5 121.001 124.332 121.147 124.064 120.67L122.252 117.439L126.5 115.056L128.312 118.287C128.58 118.765 127.846 119.686 126.673 120.344Z" fill="#FF6E83"/>
<path d="M125.523 118.296C124.185 119.047 122.852 119.213 122.547 118.668L120.691 115.359L125.538 112.641L127.393 115.95C127.699 116.495 126.862 117.545 125.523 118.296Z" fill="#BFBCAF"/>
<path d="M118.851 103.821L116.855 102.192C116.71 102.074 116.496 102.095 116.378 102.241C116.348 102.277 116.327 102.319 116.314 102.363C116.302 102.408 116.298 102.455 116.304 102.501L116.654 105.054C116.755 105.795 117.438 106.313 118.179 106.212C118.92 106.11 119.438 105.428 119.337 104.687C119.288 104.334 119.106 104.03 118.851 103.821Z" fill="#2B2622"/>
<path d="M126.32 114.046C126.321 114.051 126.323 114.055 126.324 114.059C126.52 114.621 125.699 115.612 124.421 116.329C123.142 117.046 121.869 117.229 121.491 116.769C121.489 116.766 121.486 116.762 121.483 116.759C121.48 116.755 121.476 116.75 121.473 116.746C121.464 116.734 121.455 116.721 121.448 116.708L121.444 116.701L121.444 116.701L117.136 109.018C117.136 109.018 116.62 104.34 117.44 103.88C118.259 103.421 121.982 106.3 121.982 106.3L126.294 113.989C126.302 114.003 126.308 114.017 126.314 114.031C126.316 114.036 126.318 114.041 126.32 114.046Z" fill="#FFD469"/>
<path d="M117.135 109.018L117.235 108.15C117.25 108.023 117.386 107.947 117.502 108.001L118.07 108.266C118.182 108.318 118.313 108.25 118.335 108.128L118.458 107.438C118.479 107.317 118.609 107.248 118.721 107.299L119.297 107.562C119.414 107.616 119.55 107.538 119.562 107.409L119.621 106.805C119.633 106.68 119.761 106.602 119.878 106.648L120.535 106.906C120.646 106.95 120.77 106.881 120.79 106.763L120.912 106.061C120.933 105.94 121.063 105.871 121.175 105.921L122.001 106.29L117.717 102.892C117.996 103.388 116.711 104.109 116.432 103.613L117.135 109.018Z" fill="#E5AA6E"/>
<path d="M118.443 109.149C118.398 109.136 118.351 109.137 118.306 109.152C118.262 109.166 118.223 109.193 118.195 109.23C118.166 109.266 118.149 109.31 118.145 109.357C118.141 109.403 118.152 109.449 118.174 109.49L121.772 115.905C121.803 115.96 121.854 116 121.913 116.016C121.973 116.033 122.038 116.026 122.092 115.995C122.146 115.965 122.186 115.914 122.203 115.854C122.22 115.794 122.212 115.73 122.182 115.676L118.584 109.26C118.569 109.233 118.549 109.209 118.525 109.19C118.5 109.171 118.473 109.157 118.443 109.149ZM120.223 108.341L123.821 114.757C123.836 114.784 123.846 114.813 123.849 114.844C123.853 114.874 123.851 114.906 123.842 114.935C123.834 114.965 123.82 114.993 123.801 115.017C123.782 115.041 123.758 115.062 123.731 115.077C123.704 115.092 123.674 115.101 123.644 115.105C123.613 115.109 123.582 115.106 123.552 115.098C123.523 115.089 123.495 115.075 123.471 115.056C123.446 115.037 123.426 115.013 123.411 114.986L119.813 108.571C119.783 108.516 119.775 108.452 119.792 108.392C119.809 108.332 119.849 108.282 119.903 108.251C119.958 108.221 120.022 108.213 120.082 108.23C120.142 108.247 120.192 108.287 120.223 108.341ZM121.862 107.422L125.46 113.837C125.475 113.864 125.485 113.894 125.488 113.925C125.492 113.955 125.49 113.986 125.481 114.016C125.473 114.046 125.459 114.074 125.44 114.098C125.421 114.122 125.397 114.142 125.37 114.158C125.343 114.173 125.313 114.182 125.283 114.186C125.252 114.19 125.221 114.187 125.191 114.179C125.162 114.17 125.134 114.156 125.11 114.137C125.085 114.118 125.065 114.094 125.05 114.067L121.452 107.652C121.422 107.597 121.414 107.533 121.431 107.473C121.448 107.413 121.488 107.363 121.542 107.332C121.597 107.302 121.661 107.294 121.721 107.311C121.781 107.328 121.831 107.368 121.862 107.422Z" fill="#FFB636"/>
<defs>
<clipPath id="clip0_875_11817">
<rect width="28.7812" height="28.7812" fill="white" transform="translate(54.6709 140.708)"/>
</clipPath>
</defs>
</svg>
