<svg width="232" height="31" viewBox="0 0 232 31" fill="none" xmlns="http://www.w3.org/2000/svg">
<path d="M17.216 4.908V7.572H10.376V30H7.1V7.572H0.224V4.908H17.216ZM18.9446 20.064C18.9446 18.048 19.3526 16.284 20.1686 14.772C20.9846 13.236 22.1006 12.048 23.5166 11.208C24.9566 10.368 26.5526 9.948 28.3046 9.948C30.0326 9.948 31.5326 10.32 32.8046 11.064C34.0766 11.808 35.0246 12.744 35.6486 13.872V10.272H38.9606V30H35.6486V26.328C35.0006 27.48 34.0286 28.44 32.7326 29.208C31.4606 29.952 29.9726 30.324 28.2686 30.324C26.5166 30.324 24.9326 29.892 23.5166 29.028C22.1006 28.164 20.9846 26.952 20.1686 25.392C19.3526 23.832 18.9446 22.056 18.9446 20.064ZM35.6486 20.1C35.6486 18.612 35.3486 17.316 34.7486 16.212C34.1486 15.108 33.3326 14.268 32.3006 13.692C31.2926 13.092 30.1766 12.792 28.9526 12.792C27.7286 12.792 26.6126 13.08 25.6046 13.656C24.5966 14.232 23.7926 15.072 23.1926 16.176C22.5926 17.28 22.2926 18.576 22.2926 20.064C22.2926 21.576 22.5926 22.896 23.1926 24.024C23.7926 25.128 24.5966 25.98 25.6046 26.58C26.6126 27.156 27.7286 27.444 28.9526 27.444C30.1766 27.444 31.2926 27.156 32.3006 26.58C33.3326 25.98 34.1486 25.128 34.7486 24.024C35.3486 22.896 35.6486 21.588 35.6486 20.1ZM46.6927 3.36V30H43.4167V3.36H46.6927ZM62.2121 30L54.4721 21.288V30H51.1961V3.36H54.4721V19.02L62.0681 10.272H66.6401L57.3521 20.1L66.6761 30H62.2121ZM81.1571 12.972V24.6C81.1571 25.56 81.3611 26.244 81.7691 26.652C82.1771 27.036 82.8851 27.228 83.8931 27.228H86.3051V30H83.3531C81.5291 30 80.1611 29.58 79.2491 28.74C78.3371 27.9 77.8811 26.52 77.8811 24.6V12.972H75.3251V10.272H77.8811V5.304H81.1571V10.272H86.3051V12.972H81.1571ZM97.7983 30.324C95.9503 30.324 94.2703 29.904 92.7583 29.064C91.2703 28.224 90.0943 27.036 89.2303 25.5C88.3903 23.94 87.9703 22.14 87.9703 20.1C87.9703 18.084 88.4023 16.308 89.2663 14.772C90.1543 13.212 91.3543 12.024 92.8663 11.208C94.3783 10.368 96.0703 9.948 97.9423 9.948C99.8143 9.948 101.506 10.368 103.018 11.208C104.53 12.024 105.718 13.2 106.582 14.736C107.47 16.272 107.914 18.06 107.914 20.1C107.914 22.14 107.458 23.94 106.546 25.5C105.658 27.036 104.446 28.224 102.91 29.064C101.374 29.904 99.6703 30.324 97.7983 30.324ZM97.7983 27.444C98.9743 27.444 100.078 27.168 101.11 26.616C102.142 26.064 102.97 25.236 103.594 24.132C104.242 23.028 104.566 21.684 104.566 20.1C104.566 18.516 104.254 17.172 103.63 16.068C103.006 14.964 102.19 14.148 101.182 13.62C100.174 13.068 99.0823 12.792 97.9063 12.792C96.7063 12.792 95.6023 13.068 94.5943 13.62C93.6103 14.148 92.8183 14.964 92.2183 16.068C91.6183 17.172 91.3183 18.516 91.3183 20.1C91.3183 21.708 91.6063 23.064 92.1823 24.168C92.7823 25.272 93.5743 26.1 94.5583 26.652C95.5423 27.18 96.6223 27.444 97.7983 27.444ZM128.263 18.432C126.855 17.952 125.575 17.472 124.423 16.992C123.271 16.48 122.279 15.872 121.447 15.168C120.615 14.464 119.959 13.632 119.479 12.672C119.031 11.68 118.807 10.48 118.807 9.072C118.807 6.352 119.847 4.176 121.927 2.544C124.039 0.911999 126.983 0.0959988 130.759 0.0959988C132.135 0.0959988 133.415 0.191998 134.599 0.383998C135.783 0.575999 136.791 0.879999 137.623 1.296C138.487 1.68 139.159 2.192 139.639 2.832C140.119 3.44 140.359 4.16 140.359 4.992C140.359 5.824 140.167 6.544 139.783 7.152C139.399 7.728 138.935 8.224 138.391 8.64C137.687 8.192 136.743 7.808 135.559 7.488C134.375 7.136 133.079 6.96 131.671 6.96C130.231 6.96 129.175 7.168 128.503 7.584C127.831 7.968 127.495 8.464 127.495 9.072C127.495 9.552 127.703 9.952 128.119 10.272C128.535 10.56 129.159 10.832 129.991 11.088L132.535 11.904C135.543 12.864 137.847 14.096 139.447 15.6C141.079 17.072 141.895 19.088 141.895 21.648C141.895 24.368 140.823 26.576 138.679 28.272C136.535 29.936 133.383 30.768 129.223 30.768C127.751 30.768 126.375 30.64 125.095 30.384C123.847 30.16 122.743 29.824 121.783 29.376C120.855 28.896 120.119 28.32 119.575 27.648C119.063 26.944 118.807 26.144 118.807 25.248C118.807 24.32 119.079 23.536 119.623 22.896C120.167 22.224 120.759 21.712 121.399 21.36C122.295 22.064 123.383 22.672 124.663 23.184C125.975 23.696 127.399 23.952 128.935 23.952C130.503 23.952 131.607 23.712 132.247 23.232C132.887 22.752 133.207 22.192 133.207 21.552C133.207 20.912 132.951 20.432 132.439 20.112C131.927 19.76 131.207 19.424 130.279 19.104L128.263 18.432ZM153.405 29.808C153.053 29.904 152.493 30 151.725 30.096C150.989 30.192 150.253 30.24 149.517 30.24C148.781 30.24 148.125 30.176 147.549 30.048C147.005 29.952 146.541 29.76 146.157 29.472C145.773 29.184 145.485 28.784 145.293 28.272C145.101 27.76 145.005 27.088 145.005 26.256V0.912C145.357 0.847999 145.917 0.767999 146.685 0.672C147.453 0.544 148.189 0.48 148.893 0.48C149.629 0.48 150.269 0.544 150.813 0.672C151.389 0.767999 151.869 0.959998 152.253 1.248C152.637 1.536 152.925 1.936 153.117 2.448C153.309 2.96 153.405 3.632 153.405 4.464V29.808ZM178.302 22.848C177.886 23.2 177.342 23.488 176.67 23.712C176.03 23.904 175.278 24 174.414 24C173.262 24 172.302 23.856 171.534 23.568C170.798 23.28 170.318 22.784 170.094 22.08C169.198 19.264 168.462 16.992 167.886 15.264C167.31 13.504 166.862 11.968 166.542 10.656H166.302C166.206 12.544 166.126 14.272 166.062 15.84C166.03 17.376 165.998 18.88 165.966 20.352C165.966 21.824 165.934 23.312 165.87 24.816C165.838 26.32 165.774 27.984 165.678 29.808C165.262 29.968 164.718 30.096 164.046 30.192C163.374 30.32 162.702 30.384 162.03 30.384C160.622 30.384 159.518 30.16 158.718 29.712C157.95 29.264 157.566 28.448 157.566 27.264L158.958 2.784C159.214 2.368 159.774 1.92 160.638 1.44C161.502 0.959999 162.718 0.719999 164.286 0.719999C165.982 0.719999 167.31 0.991999 168.27 1.536C169.23 2.048 169.934 2.896 170.382 4.08C170.67 4.848 170.974 5.728 171.294 6.72C171.646 7.712 171.982 8.736 172.302 9.792C172.654 10.848 172.99 11.904 173.31 12.96C173.63 13.984 173.918 14.912 174.174 15.744H174.414C175.182 13.056 175.95 10.464 176.718 7.968C177.486 5.44 178.19 3.328 178.83 1.632C179.31 1.376 179.918 1.168 180.654 1.008C181.422 0.815999 182.27 0.719999 183.198 0.719999C184.766 0.719999 186.046 0.959999 187.038 1.44C188.03 1.888 188.606 2.544 188.766 3.408C188.894 4.048 189.022 5.04 189.15 6.384C189.31 7.696 189.47 9.184 189.63 10.848C189.79 12.512 189.95 14.272 190.11 16.128C190.27 17.984 190.414 19.776 190.542 21.504C190.702 23.2 190.83 24.768 190.926 26.208C191.022 27.616 191.086 28.704 191.118 29.472C190.574 29.792 189.998 30.016 189.39 30.144C188.814 30.304 188.062 30.384 187.134 30.384C185.918 30.384 184.894 30.176 184.062 29.76C183.23 29.344 182.782 28.528 182.718 27.312C182.526 23.824 182.398 20.688 182.334 17.904C182.302 15.12 182.238 12.784 182.142 10.896H181.902C181.582 12.144 181.118 13.712 180.51 15.6C179.902 17.488 179.166 19.904 178.302 22.848ZM203.16 24C203.608 24.128 204.184 24.224 204.888 24.288C205.592 24.32 206.264 24.336 206.904 24.336C208.184 24.336 209.24 24.08 210.072 23.568C210.936 23.024 211.368 22.192 211.368 21.072C211.368 20.016 211.016 19.264 210.312 18.816C209.608 18.368 208.536 18.144 207.096 18.144H203.16V24ZM203.16 12.288H206.664C208.04 12.288 209.032 12.032 209.64 11.52C210.28 11.008 210.6 10.256 210.6 9.264C210.6 8.4 210.232 7.712 209.496 7.2C208.792 6.688 207.72 6.432 206.28 6.432C205.8 6.432 205.24 6.448 204.6 6.48C203.992 6.512 203.512 6.56 203.16 6.624V12.288ZM206.28 30.768C205.736 30.768 205.096 30.752 204.36 30.72C203.624 30.688 202.856 30.624 202.056 30.528C201.288 30.432 200.52 30.304 199.752 30.144C198.984 30.016 198.28 29.824 197.64 29.568C195.88 28.896 195 27.728 195 26.064V3.648C195 2.976 195.176 2.464 195.528 2.112C195.912 1.728 196.424 1.424 197.064 1.2C198.152 0.815998 199.512 0.543998 201.144 0.383998C202.776 0.191998 204.456 0.0959988 206.184 0.0959988C210.28 0.0959988 213.432 0.783998 215.64 2.16C217.848 3.536 218.952 5.664 218.952 8.544C218.952 9.984 218.536 11.232 217.704 12.288C216.872 13.312 215.752 14.064 214.344 14.544C215.944 14.992 217.272 15.808 218.328 16.992C219.416 18.176 219.96 19.664 219.96 21.456C219.96 24.624 218.776 26.976 216.408 28.512C214.072 30.016 210.696 30.768 206.28 30.768ZM231.679 29.808C231.327 29.904 230.767 30 229.999 30.096C229.263 30.192 228.527 30.24 227.791 30.24C227.055 30.24 226.399 30.176 225.823 30.048C225.279 29.952 224.815 29.76 224.431 29.472C224.047 29.184 223.759 28.784 223.567 28.272C223.375 27.76 223.279 27.088 223.279 26.256V0.912C223.631 0.847999 224.191 0.767999 224.959 0.672C225.727 0.544 226.463 0.48 227.167 0.48C227.903 0.48 228.543 0.544 229.087 0.672C229.663 0.767999 230.143 0.959998 230.527 1.248C230.911 1.536 231.199 1.936 231.391 2.448C231.583 2.96 231.679 3.632 231.679 4.464V29.808Z" fill="#5E30F7"/>
</svg>
