<svg width="316" height="237" viewBox="0 0 316 237" fill="none" xmlns="http://www.w3.org/2000/svg">
<g clip-path="url(#clip0_1803_16694)">
<rect width="315.586" height="235.813" transform="translate(0.169922 0.562988)" fill="url(#paint0_linear_1803_16694)"/>
<g filter="url(#filter0_d_1803_16694)">
<rect x="-19.1162" y="183.791" width="169.598" height="47.3379" rx="23.6689" transform="rotate(-9.22493 -19.1162 183.791)" fill="url(#paint1_linear_1803_16694)" shape-rendering="crispEdges"/>
<path d="M11.6205 206.83L14.2334 197.081L15.8948 196.811L21.4718 205.23L19.7066 205.517L14.8591 197.898L15.534 197.789L13.3597 206.548L11.6205 206.83ZM13.161 204.422L13.4003 203.024L18.3065 202.228L18.9758 203.478L13.161 204.422ZM25.6029 204.653C24.876 204.771 24.2025 204.725 23.5822 204.515C22.9692 204.295 22.459 203.942 22.0517 203.458C21.6444 202.973 21.3853 202.389 21.2742 201.706C21.1618 201.013 21.2228 200.377 21.4573 199.798C21.6903 199.209 22.0634 198.718 22.5767 198.324C23.0986 197.928 23.723 197.671 24.4498 197.553C25.1247 197.444 25.7399 197.486 26.2954 197.68C26.8582 197.864 27.3165 198.198 27.6705 198.682L26.5425 199.611C26.2814 199.316 25.9868 199.115 25.6587 199.009C25.3392 198.901 25.0064 198.875 24.6603 198.931C24.2622 198.996 23.9172 199.141 23.6251 199.366C23.3331 199.591 23.1229 199.882 22.9946 200.241C22.8649 200.59 22.8366 200.99 22.9096 201.44C22.9827 201.89 23.1368 202.265 23.3719 202.564C23.6056 202.855 23.8966 203.06 24.2449 203.182C24.5932 203.303 24.9663 203.331 25.3643 203.266C25.7105 203.21 26.018 203.08 26.2869 202.877C26.5644 202.672 26.7803 202.388 26.9346 202.025L28.2987 202.55C28.1147 203.113 27.7864 203.579 27.3136 203.949C26.848 204.308 26.2778 204.543 25.6029 204.653ZM33.0432 203.444C32.3163 203.562 31.6428 203.516 31.0225 203.306C30.4095 203.086 29.8993 202.734 29.492 202.249C29.0847 201.765 28.8256 201.181 28.7146 200.497C28.6021 199.805 28.6631 199.169 28.8976 198.589C29.1306 198.001 29.5037 197.509 30.017 197.115C30.5389 196.72 31.1633 196.463 31.8901 196.345C32.565 196.235 33.1802 196.277 33.7357 196.471C34.2985 196.655 34.7568 196.989 35.1108 197.474L33.9828 198.403C33.7217 198.108 33.4271 197.907 33.099 197.8C32.7795 197.692 32.4467 197.666 32.1006 197.723C31.7025 197.787 31.3575 197.932 31.0654 198.157C30.7734 198.382 30.5632 198.674 30.4349 199.032C30.3052 199.382 30.2769 199.782 30.35 200.232C30.423 200.682 30.5771 201.056 30.8122 201.356C31.0459 201.646 31.3369 201.852 31.6852 201.973C32.0335 202.094 32.4066 202.122 32.8046 202.058C33.1508 202.002 33.4583 201.872 33.7272 201.668C34.0047 201.463 34.2206 201.179 34.3749 200.817L35.739 201.341C35.555 201.904 35.2267 202.37 34.7539 202.74C34.2883 203.1 33.7181 203.335 33.0432 203.444ZM40.4186 202.247C39.7091 202.362 39.0528 202.313 38.4498 202.1C37.8454 201.879 37.3396 201.525 36.9323 201.041C36.525 200.557 36.2659 199.972 36.1549 199.289C36.0424 198.597 36.1034 197.961 36.3379 197.381C36.5709 196.792 36.9397 196.302 37.4443 195.909C37.9489 195.516 38.556 195.262 39.2655 195.147C39.9837 195.03 40.6443 195.078 41.2473 195.291C41.8589 195.503 42.3633 195.847 42.7605 196.324C43.1664 196.8 43.4263 197.389 43.5401 198.089C43.6511 198.773 43.5901 199.409 43.3571 199.998C43.1327 200.585 42.7646 201.08 42.2528 201.482C41.7482 201.875 41.1368 202.13 40.4186 202.247ZM40.193 200.858C40.5911 200.793 40.9318 200.649 41.2152 200.425C41.4986 200.202 41.7001 199.911 41.8198 199.555C41.9481 199.196 41.9764 198.796 41.9047 198.355C41.8316 197.905 41.6782 197.535 41.4445 197.244C41.2181 196.943 40.935 196.732 40.5954 196.609C40.2558 196.487 39.8913 196.457 39.5019 196.521C39.1039 196.585 38.7632 196.729 38.4798 196.953C38.2051 197.175 38.0035 197.466 37.8752 197.824C37.7455 198.174 37.7172 198.573 37.7903 199.023C37.8619 199.465 38.0153 199.835 38.2504 200.134C38.4856 200.434 38.7686 200.645 39.0995 200.769C39.4392 200.891 39.8037 200.921 40.193 200.858ZM53.2641 192.873C53.8179 192.783 54.3244 192.812 54.7835 192.96C55.2513 193.106 55.6429 193.384 55.9582 193.795C56.2722 194.197 56.4861 194.748 56.5999 195.449L57.2449 199.421L55.6225 199.684L55.0112 195.92C54.9114 195.306 54.7028 194.869 54.3854 194.61C54.068 194.35 53.6583 194.261 53.1565 194.343C52.8017 194.401 52.4985 194.53 52.2469 194.73C52.004 194.93 51.8292 195.193 51.7226 195.522C51.6247 195.848 51.6137 196.245 51.6896 196.713L52.2609 200.23L50.6385 200.494L50.0271 196.73C49.9274 196.115 49.7188 195.678 49.4013 195.419C49.0839 195.16 48.6743 195.071 48.1724 195.152C47.8176 195.21 47.5144 195.339 47.2628 195.54C47.0199 195.739 46.8451 196.003 46.7386 196.331C46.6407 196.658 46.6296 197.055 46.7055 197.522L47.2768 201.039L45.6544 201.303L44.5287 194.372L46.0733 194.121L46.3726 195.964L46.0115 195.463C46.172 194.975 46.454 194.579 46.8573 194.274C47.2694 193.967 47.7609 193.767 48.332 193.674C48.981 193.569 49.5694 193.638 50.0973 193.881C50.6339 194.122 51.0327 194.555 51.2939 195.178L50.622 195.061C50.7627 194.505 51.0673 194.029 51.5359 193.634C52.0045 193.238 52.5806 192.984 53.2641 192.873ZM63.1748 198.551C62.6124 198.642 62.0765 198.596 61.567 198.412C61.0663 198.227 60.6353 197.897 60.2741 197.423C59.9201 196.939 59.6778 196.294 59.5471 195.49C59.415 194.676 59.4366 193.989 59.6118 193.428C59.7958 192.865 60.0966 192.421 60.5145 192.095C60.9309 191.761 61.4334 191.547 62.0218 191.451C62.7053 191.34 63.3306 191.389 63.8976 191.599C64.4732 191.808 64.9553 192.151 65.3438 192.63C65.7411 193.107 65.998 193.705 66.1146 194.423C66.2313 195.141 66.1774 195.794 65.953 196.381C65.7359 196.958 65.3873 197.436 64.9073 197.816C64.4359 198.195 63.8584 198.44 63.1748 198.551ZM59.7271 201.602L58.1925 192.153L59.7371 191.902L60.0027 193.537L60.2501 195.389L60.6792 197.211L61.3496 201.338L59.7271 201.602ZM62.7676 197.191C63.1569 197.128 63.489 196.985 63.7637 196.763C64.0471 196.54 64.253 196.249 64.3813 195.89C64.5096 195.532 64.5379 195.132 64.4663 194.691C64.3932 194.241 64.2398 193.871 64.0061 193.58C63.771 193.281 63.4836 193.07 63.144 192.947C62.813 192.823 62.4529 192.793 62.0635 192.856C61.6741 192.92 61.3377 193.063 61.0543 193.287C60.7709 193.51 60.5651 193.801 60.4368 194.16C60.3071 194.509 60.2787 194.909 60.3518 195.359C60.4235 195.8 60.5769 196.171 60.812 196.47C61.0471 196.769 61.3345 196.98 61.6741 197.103C62.0137 197.225 62.3782 197.255 62.7676 197.191ZM68.2161 197.639L66.652 188.008L68.2744 187.745L69.8386 197.375L68.2161 197.639ZM71.968 197.029L70.8423 190.098L72.4647 189.835L73.5904 196.766L71.968 197.029ZM71.4745 188.823C71.1717 188.873 70.9053 188.818 70.6753 188.66C70.454 188.501 70.3216 188.287 70.2781 188.019C70.2331 187.742 70.291 187.497 70.4519 187.284C70.62 187.062 70.8555 186.926 71.1583 186.877C71.4612 186.827 71.7225 186.878 71.9424 187.029C72.1695 187.17 72.3049 187.374 72.3484 187.642C72.3948 187.928 72.339 188.186 72.1809 188.416C72.0215 188.637 71.786 188.773 71.4745 188.823ZM77.8762 196.163C77.2964 196.257 76.7264 196.274 76.166 196.214C75.6129 196.144 75.163 196.026 74.8164 195.861L75.2391 194.526C75.5829 194.675 75.9817 194.779 76.4354 194.838C76.8892 194.898 77.3323 194.893 77.765 194.822C78.2755 194.739 78.632 194.61 78.8345 194.435C79.0456 194.259 79.1322 194.054 79.0943 193.82C79.0634 193.63 78.9623 193.5 78.7911 193.43C78.6185 193.352 78.4025 193.307 78.1431 193.295C77.8838 193.284 77.5948 193.282 77.2763 193.29C76.9664 193.296 76.6501 193.289 76.3274 193.271C76.0119 193.242 75.7174 193.179 75.444 193.081C75.1692 192.975 74.9342 192.813 74.7391 192.596C74.544 192.379 74.4141 192.072 74.3495 191.674C74.2778 191.232 74.3414 190.831 74.5404 190.47C74.7379 190.101 75.0476 189.793 75.4694 189.547C75.8985 189.291 76.4246 189.112 77.0476 189.011C77.5148 188.935 77.9949 188.91 78.4876 188.937C78.9804 188.963 79.398 189.046 79.7404 189.186L79.3177 190.52C78.9565 190.375 78.6016 190.295 78.2529 190.28C77.9115 190.256 77.5763 190.27 77.2475 190.324C76.7543 190.404 76.3985 190.537 76.1801 190.724C75.9704 190.909 75.8838 191.114 75.9203 191.339C75.954 191.546 76.0572 191.689 76.2298 191.768C76.4024 191.846 76.6191 191.896 76.8799 191.915C77.1407 191.935 77.426 191.942 77.7359 191.936C78.053 191.92 78.3693 191.927 78.6848 191.955C79.0003 191.984 79.2948 192.047 79.5682 192.145C79.8489 192.232 80.0867 192.385 80.2818 192.602C80.4769 192.819 80.6061 193.122 80.6694 193.511C80.7396 193.944 80.671 194.341 80.4634 194.704C80.2644 195.065 79.9461 195.374 79.5083 195.632C79.0692 195.88 78.5251 196.058 77.8762 196.163ZM85.194 187.688C85.7478 187.598 86.2586 187.626 86.7264 187.772C87.2028 187.916 87.603 188.193 87.9271 188.603C88.2497 189.003 88.4679 189.554 88.5817 190.255L89.2268 194.226L87.6043 194.49L86.993 190.726C86.8932 190.111 86.6717 189.677 86.3283 189.422C85.9935 189.165 85.5666 189.079 85.0474 189.163C84.6667 189.225 84.3419 189.358 84.073 189.562C83.8041 189.765 83.6127 190.036 83.4989 190.374C83.3923 190.702 83.377 191.1 83.4529 191.567L84.022 195.072L82.3996 195.335L80.8355 185.704L82.4579 185.441L83.1999 190.01L82.7567 189.496C82.9273 189.015 83.223 188.621 83.6436 188.312C84.0715 187.994 84.5883 187.786 85.194 187.688ZM98.8947 185.462C99.4484 185.373 99.9549 185.401 100.414 185.549C100.882 185.695 101.273 185.973 101.589 186.384C101.903 186.786 102.117 187.337 102.23 188.038L102.875 192.01L101.253 192.273L100.642 188.509C100.542 187.895 100.333 187.458 100.016 187.199C99.6985 186.939 99.2888 186.85 98.787 186.932C98.4322 186.99 98.129 187.119 97.8774 187.32C97.6345 187.519 97.4597 187.783 97.3532 188.111C97.2552 188.437 97.2442 188.834 97.3201 189.302L97.8914 192.819L96.269 193.083L95.6576 189.319C95.5579 188.704 95.3493 188.267 95.0318 188.008C94.7144 187.749 94.3048 187.66 93.8029 187.741C93.4481 187.799 93.1449 187.928 92.8933 188.129C92.6504 188.328 92.4757 188.592 92.3691 188.92C92.2712 189.247 92.2602 189.644 92.336 190.111L92.9073 193.629L91.2849 193.892L90.1592 186.961L91.7038 186.71L92.0031 188.553L91.642 188.052C91.8026 187.565 92.0845 187.168 92.4879 186.863C92.8999 186.556 93.3914 186.356 93.9625 186.263C94.6115 186.158 95.1999 186.227 95.7278 186.47C96.2644 186.711 96.6632 187.144 96.9244 187.767L96.2526 187.65C96.3932 187.094 96.6978 186.619 97.1664 186.223C97.635 185.827 98.2111 185.573 98.8947 185.462ZM108.234 191.233C107.464 191.358 106.764 191.316 106.135 191.107C105.514 190.888 104.999 190.537 104.592 190.052C104.193 189.566 103.938 188.982 103.827 188.298C103.715 187.606 103.767 186.971 103.985 186.394C104.209 185.807 104.565 185.319 105.052 184.929C105.548 184.537 106.142 184.285 106.834 184.173C107.509 184.063 108.134 184.113 108.71 184.321C109.286 184.53 109.768 184.878 110.158 185.365C110.548 185.852 110.802 186.459 110.92 187.186C110.932 187.255 110.94 187.334 110.945 187.422C110.96 187.508 110.969 187.591 110.973 187.671L105.197 188.609L105.022 187.531L109.941 186.732L109.36 187.173C109.304 186.774 109.165 186.437 108.942 186.162C108.72 185.887 108.444 185.688 108.113 185.564C107.79 185.439 107.434 185.408 107.045 185.471C106.647 185.536 106.311 185.679 106.036 185.901C105.77 186.122 105.576 186.402 105.453 186.742C105.338 187.071 105.314 187.444 105.381 187.859L105.424 188.119C105.491 188.534 105.646 188.886 105.888 189.176C106.131 189.465 106.439 189.668 106.813 189.785C107.187 189.902 107.599 189.924 108.049 189.85C108.439 189.787 108.779 189.67 109.071 189.498C109.363 189.326 109.609 189.091 109.809 188.792L110.841 189.65C110.589 190.064 110.241 190.409 109.797 190.686C109.361 190.952 108.84 191.134 108.234 191.233ZM115.83 182.712C116.384 182.622 116.894 182.65 117.362 182.796C117.839 182.941 118.239 183.218 118.563 183.627C118.885 184.027 119.104 184.578 119.218 185.279L119.863 189.251L118.24 189.514L117.629 185.75C117.529 185.136 117.307 184.701 116.964 184.446C116.629 184.19 116.202 184.104 115.683 184.188C115.303 184.25 114.978 184.382 114.709 184.586C114.44 184.789 114.249 185.06 114.135 185.399C114.028 185.727 114.013 186.124 114.089 186.592L114.658 190.096L113.035 190.36L111.91 183.429L113.454 183.178L113.758 185.047L113.393 184.52C113.563 184.039 113.859 183.645 114.279 183.337C114.707 183.019 115.224 182.81 115.83 182.712ZM124.544 188.584C123.783 188.707 123.163 188.608 122.684 188.286C122.204 187.956 121.902 187.405 121.777 186.635L120.767 180.418L122.389 180.155L123.393 186.333C123.446 186.662 123.57 186.904 123.764 187.059C123.966 187.212 124.219 187.264 124.522 187.215C124.885 187.156 125.173 187.012 125.384 186.782L126.026 187.863C125.861 188.05 125.646 188.205 125.382 188.328C125.118 188.451 124.839 188.536 124.544 188.584ZM120.093 183.485L119.882 182.187L124.503 181.437L124.713 182.735L120.093 183.485Z" fill="white"/>
</g>
<g filter="url(#filter1_d_1803_16694)">
<rect x="177.863" y="118.908" width="195.598" height="47.3379" rx="23.6689" transform="rotate(24.859 177.863 118.908)" fill="url(#paint2_linear_1803_16694)" shape-rendering="crispEdges"/>
<path d="M190.308 155.168L197.936 148.557L199.463 149.265L199.364 159.364L197.741 158.612L197.996 149.585L198.616 149.873L191.907 155.909L190.308 155.168ZM192.933 154.037L193.915 153.013L198.425 155.103L198.278 156.513L192.933 154.037ZM200.283 159.789L203.234 153.418L204.726 154.109L201.774 160.48L200.283 159.789ZM204.472 152.716C204.194 152.587 204.004 152.393 203.902 152.133C203.808 151.877 203.818 151.626 203.933 151.379C204.051 151.125 204.236 150.955 204.488 150.869C204.752 150.778 205.023 150.798 205.302 150.927C205.58 151.056 205.768 151.244 205.866 151.492C205.975 151.736 205.972 151.981 205.858 152.228C205.737 152.491 205.546 152.673 205.286 152.775C205.03 152.869 204.759 152.849 204.472 152.716ZM207.029 162.915L209.981 156.544L211.4 157.202L210.588 158.955L210.658 158.365C211.048 158.024 211.498 157.836 212.007 157.801C212.523 157.77 213.088 157.897 213.7 158.18L213.043 159.6C212.986 159.555 212.93 159.519 212.875 159.493C212.823 159.46 212.769 159.43 212.713 159.404C212.148 159.142 211.622 159.101 211.133 159.28C210.648 159.452 210.254 159.864 209.952 160.516L208.52 163.606L207.029 162.915ZM214.878 166.653C214.17 166.325 213.614 165.899 213.211 165.373C212.818 164.844 212.589 164.264 212.523 163.635C212.465 163.009 212.582 162.382 212.873 161.753C213.168 161.117 213.567 160.621 214.07 160.265C214.585 159.904 215.154 159.699 215.776 159.649C216.406 159.603 217.039 159.727 217.675 160.022C218.296 160.309 218.786 160.701 219.146 161.196C219.506 161.691 219.711 162.25 219.76 162.872C219.81 163.494 219.681 164.139 219.371 164.807C219.342 164.871 219.304 164.941 219.26 165.017C219.223 165.096 219.184 165.17 219.143 165.238L213.833 162.778L214.292 161.788L218.814 163.883L218.086 163.922C218.263 163.56 218.337 163.203 218.307 162.851C218.277 162.498 218.159 162.178 217.955 161.89C217.758 161.606 217.48 161.381 217.123 161.215C216.757 161.045 216.398 160.976 216.046 161.006C215.701 161.04 215.383 161.163 215.092 161.376C214.812 161.584 214.583 161.879 214.406 162.261L214.296 162.499C214.119 162.881 214.05 163.26 214.088 163.635C214.127 164.011 214.268 164.351 214.513 164.658C214.757 164.964 215.086 165.213 215.5 165.405C215.858 165.571 216.206 165.665 216.544 165.686C216.882 165.707 217.217 165.65 217.551 165.515L217.924 166.804C217.483 167.005 217.002 167.096 216.479 167.076C215.969 167.052 215.435 166.911 214.878 166.653ZM222.229 170.059C221.56 169.749 221.028 169.334 220.632 168.812C220.248 168.286 220.023 167.708 219.957 167.079C219.891 166.449 220.004 165.82 220.295 165.192C220.59 164.556 220.997 164.063 221.516 163.714C222.039 163.358 222.623 163.16 223.269 163.121C223.923 163.086 224.584 163.223 225.252 163.532C225.873 163.82 226.359 164.2 226.71 164.672C227.073 165.139 227.265 165.673 227.287 166.272L225.832 166.41C225.781 166.019 225.65 165.688 225.438 165.415C225.234 165.147 224.973 164.939 224.654 164.792C224.289 164.622 223.922 164.549 223.554 164.571C223.186 164.594 222.848 164.718 222.541 164.943C222.238 165.16 221.99 165.475 221.799 165.889C221.607 166.302 221.525 166.699 221.552 167.078C221.582 167.45 221.708 167.784 221.928 168.079C222.149 168.375 222.442 168.607 222.808 168.777C223.126 168.924 223.454 168.989 223.791 168.971C224.135 168.957 224.473 168.843 224.804 168.629L225.64 169.828C225.172 170.191 224.639 170.393 224.04 170.434C223.453 170.471 222.849 170.346 222.229 170.059ZM229.008 173.2C228.356 172.898 227.84 172.49 227.46 171.975C227.084 171.453 226.862 170.877 226.797 170.248C226.731 169.618 226.843 168.989 227.135 168.361C227.429 167.725 227.836 167.232 228.355 166.883C228.878 166.526 229.459 166.327 230.097 166.284C230.735 166.242 231.38 166.371 232.032 166.674C232.692 166.98 233.212 167.39 233.592 167.904C233.981 168.422 234.205 168.99 234.267 169.608C234.336 170.229 234.222 170.862 233.923 171.506C233.632 172.135 233.225 172.627 232.702 172.984C232.188 173.344 231.605 173.548 230.956 173.595C230.318 173.637 229.669 173.506 229.008 173.2ZM229.6 171.923C229.966 172.093 230.329 172.164 230.689 172.138C231.049 172.112 231.378 171.984 231.677 171.756C231.985 171.531 232.232 171.215 232.42 170.81C232.612 170.396 232.692 170.003 232.661 169.632C232.642 169.256 232.527 168.922 232.314 168.63C232.101 168.338 231.816 168.11 231.458 167.944C231.092 167.774 230.729 167.703 230.369 167.729C230.017 167.759 229.687 167.887 229.38 168.112C229.077 168.329 228.83 168.644 228.638 169.057C228.45 169.463 228.369 169.856 228.396 170.235C228.423 170.615 228.539 170.949 228.744 171.237C228.957 171.529 229.242 171.757 229.6 171.923ZM244.9 172.636C245.409 172.871 245.812 173.179 246.11 173.559C246.416 173.942 246.584 174.392 246.615 174.908C246.65 175.417 246.518 175.994 246.219 176.638L244.528 180.289L243.037 179.598L244.64 176.138C244.901 175.573 244.973 175.095 244.856 174.702C244.738 174.309 244.449 174.006 243.987 173.792C243.661 173.641 243.338 173.578 243.017 173.604C242.704 173.632 242.411 173.753 242.139 173.965C241.875 174.181 241.643 174.503 241.444 174.933L239.946 178.166L238.455 177.475L240.058 174.015C240.32 173.451 240.392 172.972 240.274 172.579C240.157 172.187 239.867 171.883 239.406 171.67C239.08 171.519 238.756 171.456 238.435 171.481C238.122 171.51 237.83 171.63 237.558 171.842C237.294 172.058 237.062 172.381 236.863 172.81L235.365 176.044L233.874 175.353L236.825 168.981L238.245 169.639L237.46 171.333L237.442 170.716C237.848 170.402 238.304 170.232 238.809 170.205C239.322 170.182 239.841 170.292 240.366 170.535C240.963 170.811 241.412 171.198 241.713 171.695C242.022 172.196 242.11 172.778 241.977 173.44L241.486 172.967C241.914 172.585 242.433 172.362 243.043 172.297C243.653 172.231 244.272 172.344 244.9 172.636ZM257.46 178.455C257.969 178.691 258.373 178.998 258.67 179.378C258.976 179.761 259.144 180.211 259.175 180.728C259.21 181.237 259.078 181.813 258.78 182.457L257.088 186.108L255.597 185.417L257.2 181.957C257.462 181.393 257.534 180.914 257.416 180.521C257.298 180.129 257.009 179.825 256.548 179.612C256.221 179.461 255.898 179.398 255.577 179.423C255.264 179.452 254.972 179.572 254.7 179.784C254.435 180 254.204 180.323 254.005 180.752L252.507 183.986L251.015 183.295L252.618 179.835C252.88 179.27 252.952 178.791 252.834 178.399C252.717 178.006 252.427 177.703 251.966 177.489C251.64 177.338 251.316 177.275 250.996 177.3C250.683 177.329 250.39 177.45 250.118 177.662C249.854 177.877 249.622 178.2 249.423 178.63L247.925 181.863L246.434 181.172L249.386 174.801L250.805 175.459L250.02 177.153L250.002 176.536C250.408 176.221 250.864 176.051 251.369 176.024C251.883 176.001 252.402 176.111 252.927 176.354C253.523 176.631 253.972 177.017 254.273 177.514C254.582 178.015 254.67 178.597 254.537 179.26L254.046 178.786C254.474 178.405 254.993 178.181 255.603 178.116C256.213 178.051 256.832 178.164 257.46 178.455ZM261.962 188.468C261.254 188.14 260.698 187.713 260.294 187.188C259.902 186.658 259.673 186.079 259.607 185.449C259.549 184.823 259.665 184.196 259.957 183.568C260.251 182.932 260.65 182.435 261.154 182.079C261.668 181.719 262.237 181.513 262.859 181.463C263.489 181.417 264.122 181.542 264.759 181.836C265.379 182.124 265.869 182.515 266.229 183.01C266.589 183.506 266.794 184.064 266.844 184.686C266.894 185.309 266.764 185.954 266.454 186.622C266.425 186.686 266.388 186.755 266.343 186.831C266.306 186.911 266.267 186.984 266.226 187.052L260.917 184.592L261.375 183.602L265.897 185.697L265.169 185.736C265.346 185.374 265.42 185.017 265.39 184.665C265.36 184.313 265.243 183.993 265.038 183.705C264.841 183.42 264.564 183.195 264.206 183.029C263.84 182.86 263.481 182.79 263.129 182.82C262.785 182.854 262.467 182.977 262.175 183.19C261.895 183.398 261.666 183.693 261.49 184.075L261.379 184.314C261.202 184.696 261.133 185.074 261.172 185.45C261.21 185.825 261.352 186.166 261.596 186.472C261.841 186.779 262.17 187.028 262.583 187.22C262.941 187.385 263.289 187.479 263.627 187.5C263.965 187.522 264.301 187.465 264.634 187.329L265.008 188.618C264.567 188.82 264.085 188.91 263.563 188.891C263.052 188.867 262.518 188.726 261.962 188.468ZM273.028 185.668C273.537 185.903 273.944 186.213 274.25 186.596C274.563 186.983 274.739 187.436 274.779 187.957C274.821 188.469 274.693 189.048 274.395 189.692L272.703 193.343L271.212 192.652L272.815 189.192C273.077 188.627 273.137 188.143 272.995 187.739C272.862 187.339 272.556 187.029 272.079 186.808C271.729 186.646 271.386 186.573 271.049 186.591C270.712 186.609 270.402 186.726 270.118 186.943C269.846 187.155 269.61 187.475 269.411 187.905L267.919 191.126L266.428 190.435L269.379 184.064L270.799 184.722L270.003 186.44L269.996 185.799C270.407 185.497 270.872 185.336 271.394 185.316C271.926 185.292 272.471 185.41 273.028 185.668ZM277.265 195.558C276.652 195.274 276.162 194.883 275.794 194.384C275.438 193.881 275.233 193.322 275.179 192.708C275.126 192.094 275.252 191.456 275.558 190.796C275.864 190.136 276.268 189.628 276.771 189.272C277.275 188.915 277.831 188.714 278.442 188.669C279.06 188.627 279.676 188.748 280.288 189.032C280.821 189.278 281.243 189.619 281.554 190.053C281.869 190.479 282.039 190.988 282.064 191.579C282.09 192.17 281.929 192.84 281.583 193.588C281.24 194.327 280.837 194.885 280.374 195.259C279.914 195.626 279.418 195.831 278.886 195.874C278.354 195.918 277.813 195.812 277.265 195.558ZM278.035 194.364C278.393 194.53 278.748 194.598 279.1 194.568C279.46 194.541 279.794 194.416 280.101 194.191C280.416 193.97 280.667 193.656 280.855 193.251C281.047 192.837 281.123 192.442 281.085 192.067C281.058 191.687 280.938 191.352 280.725 191.06C280.521 190.772 280.239 190.545 279.881 190.379C279.523 190.213 279.164 190.144 278.804 190.17C278.452 190.2 278.119 190.326 277.804 190.547C277.5 190.764 277.253 191.079 277.061 191.493C276.873 191.898 276.793 192.291 276.82 192.671C276.855 193.054 276.975 193.39 277.179 193.678C277.392 193.969 277.677 194.198 278.035 194.364ZM279.415 196.453L280.112 194.949L280.956 193.283L281.622 191.533L283.457 187.572L284.937 188.258L280.835 197.111L279.415 196.453ZM286.723 199.839L287.32 198.55L287.364 198.237L288.409 195.982C288.611 195.545 288.637 195.146 288.485 194.785C288.336 194.417 287.996 194.11 287.463 193.863C287.105 193.697 286.725 193.589 286.324 193.538C285.93 193.491 285.568 193.511 285.237 193.6L285.156 192.243C285.619 192.139 286.115 192.132 286.643 192.222C287.183 192.308 287.708 192.469 288.217 192.705C289.139 193.132 289.748 193.685 290.043 194.363C290.349 195.036 290.289 195.834 289.861 196.757L288.131 200.491L286.723 199.839ZM284.68 198.993C284.203 198.772 283.822 198.499 283.538 198.174C283.257 197.842 283.084 197.486 283.018 197.107C282.963 196.725 283.021 196.35 283.19 195.984C283.356 195.627 283.589 195.343 283.889 195.134C284.196 194.929 284.584 194.833 285.051 194.847C285.518 194.86 286.074 195.016 286.718 195.315L288.567 196.171L288.108 197.162L286.366 196.355C285.857 196.119 285.477 196.044 285.224 196.13C284.976 196.208 284.796 196.366 284.685 196.605C284.56 196.875 284.568 197.14 284.709 197.398C284.85 197.657 285.111 197.875 285.493 198.051C285.859 198.221 286.224 198.289 286.588 198.254C286.959 198.224 287.284 198.075 287.563 197.807L287.399 198.818C287.082 199.126 286.689 199.296 286.22 199.33C285.758 199.367 285.245 199.255 284.68 198.993ZM292.404 202.572C291.705 202.248 291.247 201.818 291.031 201.284C290.818 200.741 290.876 200.116 291.204 199.408L293.852 193.693L295.343 194.384L292.712 200.063C292.572 200.365 292.539 200.635 292.613 200.872C292.694 201.113 292.874 201.297 293.153 201.426C293.487 201.581 293.806 201.623 294.11 201.551L294.035 202.806C293.794 202.868 293.529 202.876 293.242 202.83C292.954 202.783 292.675 202.698 292.404 202.572ZM291.575 195.855L292.128 194.662L296.375 196.63L295.822 197.823L291.575 195.855ZM295.102 203.721L298.054 197.349L299.545 198.04L296.593 204.412L295.102 203.721ZM299.292 196.648C299.013 196.519 298.823 196.324 298.721 196.065C298.627 195.809 298.638 195.557 298.752 195.311C298.87 195.056 299.055 194.886 299.307 194.8C299.571 194.71 299.842 194.729 300.121 194.858C300.399 194.987 300.587 195.176 300.685 195.424C300.794 195.668 300.792 195.913 300.677 196.159C300.556 196.422 300.365 196.604 300.105 196.706C299.849 196.8 299.578 196.78 299.292 196.648ZM301.375 206.729C300.723 206.426 300.207 206.018 299.827 205.504C299.45 204.982 299.229 204.406 299.164 203.776C299.098 203.147 299.21 202.518 299.502 201.89C299.796 201.253 300.203 200.761 300.722 200.412C301.245 200.055 301.826 199.855 302.464 199.813C303.102 199.77 303.747 199.9 304.399 200.202C305.059 200.508 305.579 200.918 305.959 201.433C306.347 201.951 306.572 202.518 306.634 203.136C306.703 203.758 306.589 204.391 306.29 205.035C305.999 205.663 305.592 206.156 305.069 206.513C304.555 206.873 303.972 207.077 303.323 207.124C302.685 207.166 302.035 207.035 301.375 206.729ZM301.967 205.452C302.333 205.622 302.696 205.693 303.056 205.667C303.416 205.64 303.745 205.513 304.044 205.284C304.352 205.059 304.599 204.744 304.787 204.338C304.979 203.925 305.059 203.532 305.028 203.161C305.009 202.785 304.894 202.451 304.681 202.159C304.468 201.867 304.183 201.638 303.825 201.473C303.459 201.303 303.096 201.232 302.736 201.258C302.384 201.288 302.054 201.416 301.747 201.64C301.444 201.857 301.196 202.173 301.005 202.586C300.817 202.992 300.736 203.384 300.763 203.764C300.79 204.144 300.906 204.478 301.111 204.766C301.324 205.057 301.609 205.286 301.967 205.452ZM312.841 204.114C313.35 204.349 313.757 204.659 314.063 205.042C314.376 205.429 314.552 205.882 314.591 206.403C314.634 206.915 314.506 207.494 314.208 208.138L312.516 211.789L311.025 211.098L312.628 207.638C312.89 207.073 312.95 206.589 312.808 206.185C312.675 205.785 312.369 205.475 311.892 205.254C311.542 205.092 311.199 205.019 310.862 205.037C310.525 205.055 310.215 205.172 309.931 205.389C309.659 205.601 309.423 205.921 309.224 206.351L307.732 209.572L306.24 208.881L309.192 202.51L310.612 203.168L309.816 204.886L309.809 204.245C310.219 203.943 310.685 203.782 311.206 203.762C311.739 203.738 312.284 203.856 312.841 204.114ZM316.338 213.661C315.805 213.414 315.323 213.109 314.893 212.745C314.474 212.377 314.168 212.028 313.973 211.696L315.071 210.828C315.273 211.143 315.545 211.453 315.887 211.757C316.23 212.06 316.6 212.304 316.997 212.488C317.467 212.706 317.834 212.799 318.1 212.767C318.374 212.74 318.56 212.618 318.66 212.404C318.741 212.229 318.73 212.064 318.627 211.91C318.528 211.749 318.375 211.59 318.166 211.436C317.958 211.281 317.719 211.118 317.451 210.945C317.191 210.776 316.933 210.594 316.676 210.398C316.431 210.197 316.223 209.98 316.051 209.746C315.883 209.504 315.779 209.238 315.739 208.949C315.699 208.66 315.764 208.332 315.933 207.967C316.121 207.561 316.399 207.264 316.766 207.077C317.136 206.881 317.565 206.8 318.053 206.833C318.552 206.861 319.087 207.008 319.66 207.273C320.09 207.472 320.501 207.721 320.894 208.019C321.287 208.317 321.587 208.62 321.792 208.927L320.694 209.796C320.477 209.473 320.228 209.207 319.947 209C319.678 208.788 319.392 208.613 319.09 208.473C318.636 208.263 318.267 208.173 317.982 208.206C317.704 208.241 317.518 208.363 317.422 208.569C317.333 208.76 317.339 208.937 317.438 209.098C317.537 209.26 317.688 209.422 317.893 209.585C318.098 209.747 318.331 209.913 318.591 210.082C318.862 210.246 319.121 210.429 319.366 210.629C319.611 210.83 319.82 211.047 319.991 211.281C320.175 211.511 320.286 211.771 320.326 212.06C320.366 212.349 320.303 212.672 320.137 213.03C319.953 213.428 319.674 213.719 319.299 213.902C318.932 214.09 318.495 214.168 317.988 214.136C317.484 214.096 316.935 213.938 316.338 213.661Z" fill="white"/>
</g>
<g filter="url(#filter2_d_1803_16694)">
<rect x="-21.376" y="61.927" width="149.598" height="47.3379" rx="23.6689" transform="rotate(16.5937 -21.376 61.927)" fill="url(#paint3_linear_1803_16694)" shape-rendering="crispEdges"/>
<path d="M1.2218 97.6696C0.549703 97.4694 -0.0436403 97.1736 -0.558232 96.7825C-1.06192 96.3854 -1.46791 95.9214 -1.7762 95.3905C-2.07359 94.8536 -2.25728 94.2729 -2.32729 93.6483C-2.39729 93.0238 -2.33465 92.3838 -2.13938 91.7285C-1.94411 91.0732 -1.64624 90.5034 -1.24577 90.019C-0.84531 89.5346 -0.370763 89.1547 0.177866 88.8791C0.728999 88.5951 1.32275 88.429 1.95912 88.3808C2.598 88.3242 3.25769 88.3973 3.93818 88.6001C4.66068 88.8154 5.28263 89.1379 5.804 89.5677C6.32789 89.9891 6.72306 90.5048 6.98951 91.1147L5.6343 91.7948C5.4177 91.3552 5.137 90.9926 4.79222 90.7069C4.44993 90.4128 4.04776 90.1969 3.58569 90.0592C3.12363 89.9215 2.67684 89.8707 2.24532 89.9068C1.8222 89.9454 1.42652 90.0607 1.05826 90.2528C0.698404 90.4474 0.382337 90.71 0.110056 91.0405C-0.153823 91.3735 -0.353357 91.7668 -0.488546 92.2205C-0.623735 92.6741 -0.672048 93.1125 -0.633484 93.5356C-0.586518 93.9613 -0.465724 94.354 -0.2711 94.7139C-0.0680752 95.0762 0.199933 95.3893 0.532923 95.6532C0.874315 95.9196 1.27604 96.1216 1.73811 96.2593C2.20018 96.397 2.65367 96.4407 3.0986 96.3903C3.54603 96.3316 3.98194 96.1733 4.40633 95.9156L5.16446 97.2392C4.6101 97.5954 3.99713 97.8106 3.32554 97.8849C2.65395 97.9592 1.9527 97.8874 1.2218 97.6696ZM8.92084 99.9227C8.23195 99.7175 7.66247 99.3877 7.21242 98.9334C6.76487 98.4707 6.46328 97.9327 6.30765 97.3192C6.15202 96.7057 6.1731 96.0671 6.37088 95.4034C6.57116 94.7313 6.90307 94.1853 7.36663 93.7655C7.83269 93.3372 8.37837 93.0562 9.00367 92.9224C9.62897 92.7885 10.2861 92.8243 10.975 93.0296C11.6723 93.2374 12.2459 93.5684 12.696 94.0226C13.1545 94.4794 13.4585 95.0091 13.6083 95.6117C13.7664 96.2168 13.7441 96.8596 13.5413 97.5401C13.3435 98.2038 13.0116 98.7498 12.5455 99.178C12.0879 99.6088 11.5409 99.894 10.9047 100.034C10.2794 100.168 9.61814 100.131 8.92084 99.9227ZM9.32266 98.5744C9.70911 98.6895 10.0786 98.7081 10.4311 98.6302C10.7836 98.5523 11.0915 98.3788 11.3546 98.1096C11.6262 97.843 11.8258 97.4954 11.9535 97.0669C12.0837 96.6301 12.1068 96.2299 12.023 95.8665C11.9502 95.4972 11.7875 95.1835 11.5352 94.9253C11.2828 94.6672 10.9676 94.4818 10.5895 94.3691C10.2031 94.2539 9.83357 94.2353 9.48106 94.3132C9.13695 94.3936 8.82911 94.5672 8.55756 94.8338C8.2885 95.0921 8.08888 95.4397 7.9587 95.8765C7.83102 96.305 7.80783 96.7051 7.88912 97.0769C7.97041 97.4488 8.13305 97.7625 8.37702 98.0181C8.62939 98.2763 8.9446 98.4617 9.32266 98.5744ZM19.8911 95.6865C20.4288 95.8467 20.8764 96.0945 21.2339 96.4297C21.5997 96.7674 21.8394 97.191 21.9528 97.7004C22.0688 98.2015 22.0254 98.7923 21.8226 99.4728L20.6735 103.329L19.0983 102.86L20.1873 99.205C20.365 98.6085 20.3549 98.1207 20.1569 97.7415C19.9673 97.3649 19.6204 97.1014 19.1164 96.9512C18.7467 96.8411 18.3965 96.819 18.0658 96.8851C17.7351 96.9512 17.4449 97.1117 17.1951 97.3666C16.9563 97.6156 16.7693 97.9669 16.6341 98.4206L15.6202 101.823L14.0449 101.354L16.0503 94.6243L17.5499 95.0712L17.0091 96.8858L16.9097 96.2525C17.2726 95.8941 17.7105 95.6679 18.2234 95.5737C18.7471 95.4737 19.303 95.5113 19.8911 95.6865ZM25.7452 104.936C25.0395 104.726 24.4532 104.391 23.9864 103.932C23.5304 103.467 23.2246 102.927 23.069 102.314C22.9134 101.7 22.9345 101.062 23.1322 100.398C23.3325 99.726 23.6644 99.1801 24.128 98.7602C24.5941 98.332 25.1439 98.0522 25.7776 97.9209C26.4197 97.7921 27.0936 97.8328 27.7993 98.0431C28.4546 98.2384 28.9901 98.5443 29.4056 98.9608C29.8321 99.3715 30.0992 99.8719 30.2069 100.462L28.7868 100.807C28.6803 100.428 28.5026 100.119 28.2536 99.8799C28.013 99.6435 27.7247 99.4753 27.3887 99.3752C27.0022 99.26 26.6285 99.2401 26.2676 99.3155C25.9067 99.3909 25.5905 99.5619 25.3189 99.8286C25.0499 100.087 24.8502 100.434 24.7201 100.871C24.5899 101.308 24.5654 101.713 24.6467 102.084C24.7305 102.448 24.9028 102.76 25.1636 103.02C25.4244 103.281 25.748 103.469 26.1344 103.584C26.4705 103.684 26.8039 103.701 27.1346 103.635C27.4737 103.572 27.7916 103.41 28.0884 103.151L29.0878 104.217C28.6772 104.644 28.1785 104.92 27.5918 105.048C27.016 105.169 26.4005 105.132 25.7452 104.936ZM33.0447 107.111C32.297 106.889 31.6855 106.546 31.2103 106.085C30.7459 105.617 30.4359 105.076 30.2803 104.463C30.1331 103.852 30.1583 103.215 30.3561 102.551C30.5564 101.879 30.8799 101.33 31.3267 100.905C31.7843 100.475 32.3174 100.19 32.9259 100.051C33.5428 99.9147 34.1873 99.9467 34.8594 100.147C35.5147 100.342 36.056 100.659 36.4834 101.097C36.9107 101.536 37.1938 102.059 37.3326 102.668C37.4715 103.276 37.4357 103.933 37.2254 104.639C37.2054 104.706 37.1787 104.781 37.1452 104.862C37.1202 104.946 37.0922 105.025 37.0613 105.098L31.4535 103.427L31.7652 102.381L36.5412 103.804L35.8261 103.948C35.9497 103.564 35.9713 103.2 35.8909 102.855C35.8105 102.511 35.6483 102.211 35.4043 101.956C35.1687 101.703 34.8619 101.52 34.4839 101.407C34.0974 101.292 33.7321 101.275 33.388 101.355C33.0523 101.438 32.7554 101.606 32.4972 101.858C32.25 102.104 32.0663 102.429 31.9461 102.833L31.871 103.085C31.7508 103.488 31.7368 103.872 31.829 104.238C31.9212 104.604 32.1103 104.921 32.3963 105.189C32.6823 105.458 33.0437 105.657 33.4806 105.787C33.8586 105.9 34.2164 105.942 34.5539 105.915C34.8914 105.887 35.2153 105.783 35.5256 105.601L36.0808 106.823C35.6732 107.085 35.2096 107.244 34.6899 107.3C34.1812 107.35 33.6328 107.287 33.0447 107.111ZM43.5933 102.75C44.131 102.91 44.5786 103.158 44.936 103.493C45.3019 103.83 45.5416 104.254 45.655 104.764C45.771 105.265 45.7276 105.855 45.5248 106.536L44.3757 110.392L42.8005 109.923L43.8895 106.268C44.0672 105.672 44.0571 105.184 43.8591 104.805C43.6695 104.428 43.3226 104.165 42.8185 104.014C42.4489 103.904 42.0987 103.882 41.768 103.948C41.4373 104.014 41.1471 104.175 40.8973 104.43C40.6585 104.679 40.4715 105.03 40.3363 105.484L39.3224 108.886L37.7471 108.417L39.7524 101.687L41.2521 102.134L40.7113 103.949L40.6119 103.316C40.9748 102.957 41.4127 102.731 41.9256 102.637C42.4493 102.537 43.0052 102.574 43.5933 102.75ZM48.8806 111.83C48.1413 111.61 47.6264 111.251 47.3358 110.753C47.0477 110.246 47.015 109.619 47.2378 108.871L49.0366 102.835L50.6118 103.304L48.8243 109.303C48.7292 109.622 48.7352 109.894 48.8422 110.118C48.9577 110.344 49.1624 110.501 49.4564 110.589C49.8093 110.694 50.1309 110.689 50.4212 110.574L50.528 111.827C50.2981 111.924 50.0375 111.969 49.7461 111.965C49.4548 111.96 49.1663 111.916 48.8806 111.83ZM47.094 105.302L47.4695 104.042L51.9557 105.379L51.5802 106.639L47.094 105.302ZM51.7149 112.579L53.7203 105.85L55.2199 106.297L54.6678 108.149L54.6529 107.555C54.9897 107.161 55.4074 106.91 55.906 106.803C56.4129 106.698 56.9898 106.742 57.6367 106.934L57.1899 108.434C57.1277 108.397 57.0672 108.37 57.0083 108.353C56.952 108.327 56.8945 108.305 56.8357 108.287C56.2392 108.11 55.7119 108.145 55.254 108.392C54.7985 108.632 54.4681 109.096 54.2628 109.785L53.2902 113.048L51.7149 112.579ZM60.6112 115.23L61.0168 113.869L61.0149 113.553L61.7247 111.171C61.8624 110.709 61.8302 110.311 61.628 109.976C61.4284 109.633 61.0471 109.378 60.4843 109.21C60.1062 109.097 59.7148 109.045 59.3101 109.052C58.9138 109.062 58.5584 109.135 58.2437 109.27L57.968 107.939C58.4118 107.769 58.9016 107.691 59.4374 107.704C59.984 107.712 60.5262 107.795 61.0638 107.956C62.0384 108.246 62.7202 108.705 63.1093 109.334C63.5092 109.956 63.564 110.754 63.2736 111.729L62.0982 115.673L60.6112 115.23ZM58.4678 114.687C57.9638 114.537 57.5477 114.322 57.2197 114.041C56.8943 113.752 56.6716 113.425 56.5517 113.06C56.4427 112.689 56.4458 112.31 56.5609 111.924C56.6736 111.546 56.8632 111.232 57.1297 110.982C57.4047 110.735 57.7743 110.584 58.2385 110.53C58.7027 110.477 59.2751 110.551 59.9556 110.754L61.9089 111.336L61.5972 112.382L59.7573 111.834C59.2197 111.673 58.8321 111.654 58.5947 111.775C58.3598 111.888 58.2048 112.071 58.1297 112.323C58.0446 112.608 58.0904 112.869 58.2672 113.105C58.4439 113.34 58.7339 113.518 59.1372 113.638C59.5237 113.753 59.8944 113.768 60.2494 113.682C60.6128 113.598 60.9131 113.404 61.1501 113.099L61.1331 114.123C60.8642 114.473 60.4998 114.698 60.0399 114.799C59.5883 114.902 59.0643 114.865 58.4678 114.687ZM66.6265 117.119C65.8872 116.898 65.3723 116.539 65.0817 116.041C64.7936 115.534 64.7609 114.907 64.9837 114.159L66.7825 108.123L68.3577 108.593L66.5702 114.591C66.4751 114.91 66.481 115.182 66.5881 115.406C66.7035 115.632 66.9083 115.789 67.2023 115.877C67.5552 115.982 67.8768 115.977 68.1671 115.863L68.2739 117.116C68.044 117.212 67.7834 117.258 67.492 117.253C67.2007 117.249 66.9122 117.204 66.6265 117.119ZM64.8399 110.59L65.2154 109.33L69.7016 110.667L69.3261 111.927L64.8399 110.59ZM69.4608 117.867L71.4661 111.138L73.0414 111.607L71.0361 118.337L69.4608 117.867ZM72.5905 110.265C72.2965 110.178 72.0804 110.013 71.9422 109.77C71.8125 109.531 71.7864 109.28 71.864 109.02C71.9441 108.751 72.1029 108.556 72.3403 108.435C72.5886 108.307 72.8598 108.288 73.1538 108.375C73.4478 108.463 73.661 108.622 73.7932 108.854C73.9364 109.08 73.9692 109.323 73.8916 109.583C73.8089 109.86 73.6464 110.068 73.404 110.206C73.1641 110.336 72.893 110.356 72.5905 110.265ZM76.1017 119.942C75.4128 119.737 74.8433 119.407 74.3932 118.953C73.9457 118.49 73.6441 117.952 73.4885 117.339C73.3329 116.725 73.3539 116.087 73.5517 115.423C73.752 114.751 74.0839 114.205 74.5475 113.785C75.0135 113.357 75.5592 113.076 76.1845 112.942C76.8098 112.808 77.4669 112.844 78.1558 113.049C78.8531 113.257 79.4268 113.588 79.8768 114.042C80.3353 114.499 80.6394 115.029 80.7891 115.631C80.9472 116.236 80.9249 116.879 80.7221 117.56C80.5243 118.223 80.1924 118.769 79.7264 119.197C79.2687 119.628 78.7218 119.913 78.0856 120.053C77.4603 120.187 76.799 120.15 76.1017 119.942ZM76.5035 118.594C76.8899 118.709 77.2594 118.728 77.6119 118.65C77.9644 118.572 78.2723 118.398 78.5354 118.129C78.807 117.862 79.0066 117.515 79.1343 117.086C79.2645 116.65 79.2877 116.249 79.2039 115.886C79.131 115.517 78.9684 115.203 78.716 114.945C78.4636 114.687 78.1484 114.501 77.7703 114.389C77.3839 114.273 77.0144 114.255 76.6619 114.333C76.3178 114.413 76.0099 114.587 75.7384 114.853C75.4693 115.112 75.2697 115.459 75.1395 115.896C75.0118 116.324 74.9887 116.725 75.0699 117.096C75.1512 117.468 75.3139 117.782 75.5578 118.038C75.8102 118.296 76.1254 118.481 76.5035 118.594ZM87.072 115.706C87.6096 115.866 88.0572 116.114 88.4147 116.449C88.7805 116.787 89.0202 117.21 89.1337 117.72C89.2496 118.221 89.2062 118.812 89.0034 119.492L87.8543 123.348L86.2791 122.879L87.3681 119.224C87.5459 118.628 87.5357 118.14 87.3377 117.761C87.1481 117.384 86.8012 117.121 86.2972 116.971C85.9275 116.861 85.5773 116.838 85.2466 116.905C84.9159 116.971 84.6257 117.131 84.376 117.386C84.1371 117.635 83.9501 117.986 83.8149 118.44L82.801 121.843L81.2258 121.373L83.2311 114.644L84.7307 115.091L84.1899 116.905L84.0905 116.272C84.4534 115.914 84.8913 115.687 85.4042 115.593C85.9279 115.493 86.4839 115.531 87.072 115.706Z" fill="white"/>
</g>
<g filter="url(#filter3_d_1803_16694)">
<rect x="213.19" y="47.8037" width="134.598" height="47.3379" rx="23.6689" transform="rotate(-12.3689 213.19 47.8037)" fill="url(#paint4_linear_1803_16694)" shape-rendering="crispEdges"/>
<path d="M250.452 68.0933C249.75 68.2472 249.079 68.2777 248.44 68.1846C247.807 68.0811 247.227 67.8717 246.7 67.5565C246.171 67.2327 245.725 66.8145 245.361 66.3019C244.998 65.7894 244.743 65.1991 244.596 64.5312C244.45 63.8633 244.434 63.2205 244.55 62.6028C244.666 61.9851 244.897 61.4228 245.244 60.916C245.597 60.3988 246.045 59.9641 246.587 59.6119C247.127 59.2511 247.748 58.9938 248.45 58.8398C249.212 58.6727 249.924 58.6466 250.587 58.7616C251.258 58.8747 251.856 59.125 252.38 59.5126L251.552 60.7711C251.124 60.497 250.687 60.3236 250.24 60.2511C249.8 60.1681 249.336 60.1801 248.848 60.2871C248.377 60.3904 247.957 60.5632 247.589 60.8056C247.22 61.048 246.921 61.3424 246.692 61.6888C246.463 62.0353 246.309 62.419 246.231 62.84C246.161 63.2591 246.177 63.6999 246.279 64.1622C246.378 64.6161 246.547 65.0187 246.786 65.3703C247.033 65.7199 247.334 66.0084 247.689 66.2357C248.042 66.4544 248.433 66.5977 248.86 66.6654C249.288 66.7332 249.742 66.7145 250.221 66.6093C250.666 66.5117 251.08 66.3493 251.461 66.1221C251.848 65.8845 252.194 65.5575 252.497 65.1409L253.721 66.1783C253.333 66.6584 252.848 67.0654 252.266 67.3994C251.69 67.723 251.086 67.9543 250.452 68.0933ZM252.093 66.3064L251.355 62.9413L252.935 62.5948L253.721 66.1783L252.093 66.3064ZM259.094 66.1578C258.392 66.3118 257.734 66.299 257.12 66.1195C256.505 65.9314 255.98 65.6067 255.547 65.1452C255.114 64.6838 254.823 64.1149 254.674 63.4384C254.524 62.7534 254.55 62.115 254.753 61.5232C254.953 60.9228 255.294 60.4127 255.777 59.9928C256.259 59.5729 256.851 59.286 257.553 59.132C258.264 58.9762 258.926 58.988 259.54 59.1675C260.162 59.3452 260.685 59.6613 261.108 60.1161C261.539 60.5689 261.831 61.1421 261.983 61.8357C262.131 62.5122 262.105 63.1506 261.905 63.751C261.713 64.3495 261.372 64.8639 260.884 65.2942C260.401 65.7141 259.805 66.0019 259.094 66.1578ZM258.793 64.7835C259.187 64.6971 259.519 64.5345 259.79 64.2956C260.06 64.0568 260.246 63.7559 260.345 63.3929C260.454 63.0281 260.46 62.6273 260.364 62.1906C260.267 61.7454 260.093 61.384 259.844 61.1067C259.601 60.8188 259.307 60.6231 258.961 60.5194C258.616 60.4158 258.25 60.4062 257.865 60.4907C257.471 60.5771 257.139 60.7397 256.868 60.9785C256.606 61.2155 256.42 61.5164 256.312 61.8812C256.202 62.2375 256.195 62.6383 256.293 63.0835C256.389 63.5202 256.562 63.8816 256.813 64.1675C257.064 64.4535 257.359 64.6492 257.696 64.7547C258.042 64.8584 258.407 64.868 258.793 64.7835ZM268.408 64.021L268.104 62.6339L267.949 62.3582L267.417 59.9306C267.314 59.4596 267.092 59.1267 266.754 58.9318C266.413 58.7283 265.956 58.6895 265.382 58.8153C264.997 58.8998 264.629 59.0433 264.278 59.2458C263.936 59.4464 263.66 59.6819 263.45 59.9523L262.565 58.9215C262.871 58.5582 263.262 58.2527 263.737 58.0049C264.219 57.7466 264.734 57.5574 265.282 57.4372C266.275 57.2194 267.094 57.2911 267.738 57.6523C268.39 58.0031 268.824 58.6751 269.042 59.6684L269.924 63.6887L268.408 64.021ZM266.27 64.5841C265.756 64.6968 265.288 64.7098 264.865 64.623C264.44 64.5277 264.087 64.3494 263.805 64.088C263.53 63.8163 263.35 63.4835 263.263 63.0896C263.179 62.7043 263.193 62.3377 263.305 61.9901C263.426 61.6405 263.676 61.3298 264.056 61.0579C264.436 60.7861 264.973 60.5742 265.667 60.4221L267.658 59.9855L267.892 61.0515L266.016 61.4628C265.468 61.5829 265.12 61.7536 264.971 61.9747C264.82 62.1873 264.773 62.422 264.829 62.6789C264.893 62.97 265.059 63.1759 265.328 63.2964C265.597 63.417 265.937 63.4322 266.348 63.3421C266.742 63.2557 267.073 63.0888 267.342 62.8414C267.619 62.5921 267.788 62.2769 267.848 61.8958L268.329 62.7999C268.263 63.2362 268.053 63.6097 267.7 63.9206C267.354 64.2296 266.878 64.4508 266.27 64.5841ZM271.984 63.2368L269.894 53.7064L271.5 53.3543L273.59 62.8847L271.984 63.2368ZM280.762 61.3118L276.741 55.0051L278.256 54.6727L281.741 60.2491L281.022 60.4068L281.955 53.8615L283.304 53.5657L286.827 59.1337L286.121 59.2886L287.016 52.7517L288.442 52.4391L287.416 59.8528L285.874 60.1908L282.696 55.2741L283.171 55.1699L282.304 60.9738L280.762 61.3118ZM291.05 59.0558L289.546 52.197L291.151 51.8449L292.655 58.7037L291.05 59.0558ZM290.107 50.8893C289.807 50.955 289.538 50.9152 289.3 50.77C289.07 50.623 288.926 50.4167 288.868 50.1513C288.808 49.8773 288.853 49.6297 289.002 49.4086C289.157 49.177 289.385 49.0283 289.685 48.9626C289.984 48.8969 290.248 48.9333 290.476 49.0718C290.71 49.1999 290.857 49.3966 290.915 49.6621C290.977 49.9446 290.935 50.2051 290.79 50.4433C290.643 50.673 290.415 50.8217 290.107 50.8893ZM297.133 50.4523C297.681 50.3321 298.193 50.3321 298.668 50.4523C299.152 50.5706 299.566 50.8251 299.912 51.216C300.257 51.5982 300.505 52.1361 300.657 52.8297L301.519 56.76L299.913 57.1121L299.096 53.3873C298.963 52.7793 298.718 52.3574 298.361 52.1216C298.013 51.8838 297.582 51.8213 297.068 51.934C296.691 52.0166 296.374 52.1669 296.117 52.3849C295.859 52.6029 295.683 52.8838 295.588 53.2277C295.5 53.5612 295.506 53.9592 295.608 54.4216L296.368 57.8895L294.763 58.2416L293.258 51.3828L294.787 51.0476L295.193 52.8972L294.799 52.3912C294.943 51.9019 295.216 51.4919 295.62 51.1612C296.029 50.82 296.534 50.5837 297.133 50.4523ZM305.926 48.5241C306.474 48.4039 306.986 48.4039 307.461 48.5241C307.944 48.6424 308.359 48.8969 308.705 49.2877C309.049 49.67 309.297 50.2079 309.449 50.9015L310.311 54.8318L308.706 55.1839L307.889 51.4591C307.756 50.8511 307.511 50.4292 307.154 50.1934C306.805 49.9556 306.374 49.8931 305.861 50.0058C305.484 50.0884 305.167 50.2387 304.91 50.4567C304.652 50.6746 304.476 50.9556 304.381 51.2995C304.292 51.633 304.299 52.031 304.4 52.4934L305.161 55.9613L303.555 56.3134L302.051 49.4546L303.58 49.1194L303.985 50.969L303.592 50.463C303.736 49.9737 304.009 49.5637 304.412 49.233C304.822 48.8918 305.327 48.6555 305.926 48.5241ZM315.604 53.7653C314.842 53.9325 314.141 53.9291 313.502 53.7552C312.869 53.5709 312.336 53.248 311.903 52.7866C311.478 52.3233 311.192 51.7534 311.043 51.077C310.893 50.3919 310.911 49.7554 311.096 49.1673C311.288 48.5688 311.616 48.0615 312.081 47.6454C312.555 47.2274 313.134 46.9433 313.819 46.7931C314.487 46.6466 315.114 46.6617 315.701 46.8383C316.287 47.0149 316.788 47.3357 317.204 47.8009C317.62 48.2661 317.907 48.8583 318.065 49.5776C318.08 49.6461 318.092 49.7241 318.103 49.8116C318.121 49.8972 318.135 49.9795 318.143 50.0585L312.428 51.3119L312.194 50.2458L317.062 49.1783L316.506 49.6502C316.428 49.2545 316.271 48.9255 316.034 48.6634C315.797 48.4012 315.509 48.2174 315.172 48.1119C314.843 48.0045 314.486 47.993 314.101 48.0775C313.707 48.1639 313.379 48.3256 313.117 48.5625C312.864 48.7976 312.685 49.0881 312.581 49.4339C312.484 49.7693 312.481 50.1425 312.571 50.5535L312.627 50.8104C312.717 51.2214 312.891 51.5647 313.149 51.8402C313.407 52.1157 313.726 52.3015 314.106 52.3977C314.486 52.4938 314.899 52.4931 315.344 52.3954C315.73 52.3109 316.063 52.1749 316.345 51.9874C316.627 51.8 316.86 51.5515 317.043 51.242L318.121 52.0423C317.891 52.4696 317.563 52.8333 317.135 53.1335C316.714 53.4233 316.204 53.6339 315.604 53.7653ZM320.351 52.6303L318.847 45.7715L320.375 45.4363L320.789 47.3244L320.488 46.8115C320.592 46.304 320.836 45.8825 321.22 45.547C321.613 45.2096 322.139 44.9686 322.798 44.824L323.134 46.3525C323.061 46.3504 322.995 46.3559 322.935 46.3691C322.874 46.3736 322.813 46.3825 322.753 46.3956C322.145 46.529 321.7 46.8149 321.42 47.2534C321.137 47.6833 321.073 48.2494 321.227 48.9515L321.956 52.2782L320.351 52.6303Z" fill="white"/>
</g>
<g filter="url(#filter4_d_1803_16694)">
<rect x="80.5195" y="13.7124" width="137.598" height="47.3379" rx="23.6689" transform="rotate(24.8087 80.5195 13.7124)" fill="url(#paint5_linear_1803_16694)" shape-rendering="crispEdges"/>
<path d="M96.6913 51.8145C96.0388 51.5128 95.4565 51.1326 94.9443 50.6737C94.4358 50.2069 94.0745 49.7453 93.8605 49.2891L94.9548 48.3318C95.1676 48.7489 95.4803 49.159 95.8927 49.5621C96.3051 49.9652 96.77 50.2863 97.2872 50.5254C97.7248 50.7277 98.101 50.8436 98.4157 50.8732C98.7304 50.9028 98.9882 50.8674 99.189 50.7671C99.3936 50.6589 99.5437 50.5013 99.6393 50.2944C99.757 50.0398 99.7593 49.7946 99.6462 49.5588C99.5367 49.315 99.355 49.0813 99.1011 48.8577C98.8587 48.6298 98.5769 48.3933 98.2556 48.1482C97.9423 47.9068 97.6305 47.6516 97.3202 47.3827C97.0216 47.1094 96.7637 46.8212 96.5465 46.518C96.341 46.2105 96.2129 45.8712 96.1623 45.5002C96.1117 45.1291 96.1894 44.7208 96.3954 44.2752C96.6051 43.8216 96.9157 43.463 97.3273 43.1994C97.7505 42.9314 98.2603 42.8001 98.8566 42.8054C99.4646 42.8063 100.151 42.9834 100.914 43.3365C101.416 43.5682 101.884 43.8618 102.318 44.2171C102.753 44.5725 103.098 44.9541 103.353 45.362L102.307 46.3414C102.036 45.9457 101.725 45.6042 101.375 45.3168C101.029 45.0215 100.673 44.7892 100.307 44.62C99.877 44.4214 99.5029 44.3113 99.1846 44.2897C98.8742 44.2717 98.6167 44.3169 98.4121 44.4251C98.2155 44.5371 98.0676 44.7005 97.9682 44.9153C97.8505 45.1699 97.8424 45.4173 97.9439 45.6574C98.0571 45.8931 98.2366 46.121 98.4826 46.341C98.7366 46.5646 99.0224 46.8029 99.34 47.056C99.6613 47.3011 99.9731 47.5563 100.275 47.8215C100.586 48.0905 100.845 48.3747 101.055 48.6743C101.272 48.9775 101.402 49.3128 101.444 49.6801C101.495 50.0512 101.419 50.4556 101.217 50.8932C101.011 51.3388 100.696 51.6956 100.273 51.9635C99.8614 52.2271 99.3516 52.3585 98.7436 52.3575C98.1393 52.3486 97.4552 52.1676 96.6913 51.8145ZM112.544 51.1748C113.053 51.4102 113.457 51.7175 113.755 52.0967C114.061 52.4795 114.229 52.9293 114.261 53.4461C114.296 53.9549 114.165 54.5316 113.867 55.1761L112.178 58.8285L110.686 58.1389L112.287 54.6774C112.548 54.1125 112.619 53.6337 112.501 53.2412C112.383 52.8487 112.094 52.5457 111.632 52.3324C111.306 52.1816 110.982 52.119 110.662 52.1445C110.349 52.1737 110.056 52.2944 109.784 52.5067C109.52 52.7227 109.289 53.0455 109.09 53.4752L107.595 56.7099L106.103 56.0202L107.703 52.5588C107.964 51.9938 108.036 51.5151 107.918 51.1225C107.8 50.73 107.51 50.4271 107.049 50.2137C106.723 50.0629 106.399 50.0003 106.078 50.0258C105.765 50.055 105.473 50.1758 105.201 50.3881C104.937 50.604 104.706 50.9269 104.507 51.3566L103.012 54.5912L101.52 53.9015L104.466 47.5278L105.886 48.1843L105.103 49.8792L105.084 49.262C105.49 48.9476 105.946 48.7767 106.451 48.7495C106.964 48.7259 107.483 48.8355 108.008 49.0782C108.605 49.3541 109.054 49.7404 109.356 50.2371C109.665 50.7375 109.754 51.3192 109.621 51.9822L109.13 51.509C109.558 51.1272 110.076 50.9034 110.686 50.8376C111.296 50.7719 111.915 50.8843 112.544 51.1748ZM118.012 61.525L118.608 60.236L118.651 59.9228L119.694 57.6669C119.896 57.2293 119.921 56.8304 119.769 56.4703C119.62 56.1023 119.28 55.795 118.747 55.5486C118.388 55.383 118.009 55.2751 117.607 55.2246C117.213 55.1779 116.851 55.1988 116.52 55.2874L116.438 53.9308C116.901 53.8264 117.397 53.819 117.926 53.9087C118.465 53.9942 118.99 54.1546 119.499 54.39C120.422 54.8167 121.032 55.3687 121.327 56.046C121.634 56.7191 121.574 57.5171 121.147 58.4402L119.42 62.1761L118.012 61.525ZM115.968 60.6817C115.491 60.461 115.11 60.1883 114.825 59.8636C114.544 59.531 114.371 59.1755 114.304 58.7971C114.249 58.4144 114.306 58.04 114.476 57.674C114.641 57.3159 114.874 57.0323 115.173 56.823C115.481 56.6175 115.868 56.5213 116.335 56.5344C116.802 56.5476 117.358 56.7031 118.003 57.001L119.853 57.8562L119.395 58.8469L117.652 58.0414C117.143 57.806 116.762 57.7313 116.51 57.8175C116.261 57.8958 116.082 58.0542 115.971 58.2929C115.846 58.5635 115.854 58.828 115.996 59.0864C116.137 59.3449 116.399 59.5624 116.781 59.739C117.147 59.9082 117.511 59.9754 117.875 59.9407C118.247 59.9097 118.572 59.7605 118.85 59.4931L118.687 60.5042C118.371 60.812 117.978 60.9829 117.508 61.0169C117.046 61.0546 116.533 60.9428 115.968 60.6817ZM121.335 63.0612L124.281 56.6874L125.702 57.344L124.891 59.0986L124.961 58.5081C125.351 58.1667 125.8 57.9784 126.309 57.9431C126.825 57.9116 127.39 58.0375 128.003 58.3207L127.346 59.741C127.29 59.6957 127.234 59.6602 127.178 59.6344C127.126 59.6007 127.072 59.571 127.017 59.5452C126.452 59.2841 125.925 59.2434 125.436 59.4231C124.951 59.5948 124.558 60.007 124.256 60.6595L122.827 63.7509L121.335 63.0612ZM128.883 66.6514C128.182 66.3277 127.724 65.8986 127.508 65.3639C127.295 64.8214 127.352 64.196 127.68 63.4878L130.322 57.7705L131.814 58.4601L129.188 64.1416C129.048 64.444 129.015 64.7137 129.089 64.9507C129.171 65.1913 129.351 65.376 129.63 65.5048C129.964 65.6593 130.283 65.7005 130.587 65.6284L130.514 66.8838C130.272 66.9461 130.008 66.9542 129.72 66.9081C129.432 66.8621 129.153 66.7765 128.883 66.6514ZM128.047 59.9347L128.599 58.7411L132.848 60.7053L132.296 61.8989L128.047 59.9347ZM137.558 70.7049C136.905 70.4033 136.323 70.0231 135.811 69.5642C135.302 69.0973 134.941 68.6358 134.727 68.1795L135.821 67.2223C136.034 67.6394 136.347 68.0495 136.759 68.4526C137.172 68.8557 137.636 69.1768 138.154 69.4159C138.591 69.6182 138.967 69.7341 139.282 69.7637C139.597 69.7933 139.855 69.7579 140.056 69.6576C140.26 69.5493 140.41 69.3918 140.506 69.1849C140.624 68.9303 140.626 68.685 140.513 68.4493C140.403 68.2055 140.222 67.9718 139.968 67.7482C139.725 67.5203 139.443 67.2838 139.122 67.0387C138.809 66.7973 138.497 66.5421 138.187 66.2731C137.888 65.9999 137.63 65.7117 137.413 65.4085C137.207 65.101 137.079 64.7617 137.029 64.3907C136.978 64.0196 137.056 63.6113 137.262 63.1657C137.472 62.7121 137.782 62.3535 138.194 62.0899C138.617 61.8219 139.127 61.6906 139.723 61.6958C140.331 61.6968 141.017 61.8738 141.781 62.227C142.282 62.4587 142.75 62.7522 143.185 63.1076C143.619 63.463 143.964 63.8446 144.22 64.2525L143.173 65.2318C142.902 64.8362 142.592 64.4946 142.242 64.2073C141.895 63.912 141.539 63.6797 141.173 63.5105C140.743 63.3119 140.369 63.2018 140.051 63.1802C139.741 63.1622 139.483 63.2074 139.279 63.3156C139.082 63.4276 138.934 63.5909 138.835 63.8058C138.717 64.0604 138.709 64.3078 138.81 64.5478C138.924 64.7836 139.103 65.0115 139.349 65.2314C139.603 65.4551 139.889 65.6934 140.206 65.9465C140.528 66.1915 140.84 66.4467 141.142 66.712C141.452 66.981 141.712 67.2652 141.921 67.5647C142.138 67.8679 142.268 68.2032 142.311 68.5706C142.361 68.9417 142.286 69.346 142.083 69.7837C141.877 70.2293 141.563 70.5861 141.139 70.854C140.728 71.1176 140.218 71.249 139.61 71.248C139.006 71.2391 138.322 71.0581 137.558 70.7049ZM144.747 73.9845C144.046 73.6609 143.588 73.2317 143.372 72.6971C143.159 72.1545 143.216 71.5291 143.544 70.8209L146.186 65.1036L147.678 65.7933L145.052 71.4748C144.912 71.7771 144.879 72.0468 144.953 72.2838C145.035 72.5245 145.216 72.7092 145.494 72.8379C145.828 72.9924 146.147 73.0336 146.451 72.9615L146.378 74.2169C146.136 74.2792 145.872 74.2874 145.584 74.2413C145.296 74.1952 145.017 74.1096 144.747 73.9845ZM143.911 67.2678L144.463 66.0742L148.712 68.0384L148.16 69.232L143.911 67.2678ZM150.104 76.4609C149.563 76.2108 149.131 75.8906 148.809 75.5004C148.491 75.1023 148.313 74.643 148.273 74.1225C148.237 73.5941 148.366 73.0116 148.661 72.375L150.343 68.7346L151.835 69.4242L150.246 72.8618C149.982 73.4347 149.91 73.9233 150.033 74.3274C150.166 74.7273 150.472 75.0376 150.949 75.2583C151.3 75.4201 151.635 75.4883 151.956 75.4628C152.285 75.4409 152.587 75.3199 152.863 75.0996C153.146 74.883 153.385 74.5639 153.58 74.1421L155.07 70.9194L156.562 71.6091L153.616 77.9829L152.195 77.3263L152.99 75.6076L152.998 76.2486C152.592 76.5631 152.13 76.7361 151.614 76.7676C151.1 76.7912 150.597 76.6889 150.104 76.4609ZM158.228 80.2164C157.615 79.9331 157.125 79.5422 156.757 79.0436C156.4 78.5407 156.195 77.9822 156.141 77.3681C156.086 76.754 156.212 76.1167 156.517 75.4562C156.823 74.7958 157.227 74.2872 157.73 73.9306C158.232 73.5739 158.789 73.3725 159.4 73.3263C160.018 73.2838 160.633 73.4042 161.246 73.6874C161.779 73.9339 162.202 74.2739 162.513 74.7076C162.828 75.1333 162.999 75.6419 163.025 76.2333C163.051 76.8248 162.891 77.4945 162.545 78.2425C162.203 78.9825 161.8 79.5401 161.337 79.9151C160.878 80.2822 160.382 80.4876 159.85 80.5314C159.318 80.5752 158.777 80.4702 158.228 80.2164ZM158.998 79.022C159.356 79.1875 159.711 79.2551 160.063 79.2246C160.423 79.1979 160.756 79.072 161.063 78.8469C161.378 78.6254 161.629 78.3118 161.817 77.9059C162.008 77.4922 162.084 77.0976 162.045 76.7223C162.018 76.3426 161.898 76.0071 161.685 75.7155C161.48 75.4276 161.198 75.2009 160.84 75.0354C160.482 74.8699 160.123 74.8005 159.763 74.8272C159.411 74.8576 159.078 74.9835 158.763 75.205C158.46 75.4222 158.212 75.7376 158.021 76.1514C157.834 76.5572 157.753 76.95 157.781 77.3296C157.816 77.7129 157.936 78.0485 158.141 78.3364C158.354 78.6279 158.64 78.8565 158.998 79.022ZM160.379 81.1094L161.075 79.6055L161.918 77.9381L162.582 76.1881L164.414 72.2254L165.894 72.9095L161.8 81.7659L160.379 81.1094ZM163.18 85.3156C162.869 85.1721 162.583 84.9769 162.321 84.73C162.058 84.4831 161.866 84.2204 161.743 83.9417L162.848 83.1195C162.936 83.3246 163.058 83.5112 163.212 83.679C163.366 83.8469 163.543 83.9768 163.742 84.0687C164.012 84.1938 164.262 84.2273 164.492 84.1693C164.722 84.1112 164.982 83.9562 165.272 83.7041L166.028 83.0396L166.23 82.9157L171.246 78.3965L172.678 79.0586L166.51 84.5663C166.091 84.9517 165.693 85.2267 165.318 85.3912C164.95 85.5594 164.59 85.6293 164.236 85.6009C163.89 85.5762 163.538 85.4811 163.18 85.3156ZM165.497 83.7501L165.671 75.8199L167.223 76.5372L167.019 83.121L165.497 83.7501Z" fill="white"/>
</g>
</g>
<defs>
<filter id="filter0_d_1803_16694" x="-95.2951" y="97.0798" width="327.351" height="226.272" filterUnits="userSpaceOnUse" color-interpolation-filters="sRGB">
<feFlood flood-opacity="0" result="BackgroundImageFix"/>
<feColorMatrix in="SourceAlpha" type="matrix" values="0 0 0 0 0 0 0 0 0 0 0 0 0 0 0 0 0 0 127 0" result="hardAlpha"/>
<feOffset dy="16.6559"/>
<feGaussianBlur stdDeviation="38.0895"/>
<feComposite in2="hardAlpha" operator="out"/>
<feColorMatrix type="matrix" values="0 0 0 0 0.584314 0 0 0 0 0.498039 0 0 0 0 1 0 0 0 0.53 0"/>
<feBlend mode="normal" in2="BackgroundImageFix" result="effect1_dropShadow_1803_16694"/>
<feBlend mode="normal" in="SourceGraphic" in2="effect1_dropShadow_1803_16694" result="shape"/>
</filter>
<filter id="filter1_d_1803_16694" x="81.784" y="59.3847" width="349.733" height="277.536" filterUnits="userSpaceOnUse" color-interpolation-filters="sRGB">
<feFlood flood-opacity="0" result="BackgroundImageFix"/>
<feColorMatrix in="SourceAlpha" type="matrix" values="0 0 0 0 0 0 0 0 0 0 0 0 0 0 0 0 0 0 127 0" result="hardAlpha"/>
<feOffset dy="16.6559"/>
<feGaussianBlur stdDeviation="38.0895"/>
<feComposite in2="hardAlpha" operator="out"/>
<feColorMatrix type="matrix" values="0 0 0 0 0.584314 0 0 0 0 0.498039 0 0 0 0 1 0 0 0 0.53 0"/>
<feBlend mode="normal" in2="BackgroundImageFix" result="effect1_dropShadow_1803_16694"/>
<feBlend mode="normal" in="SourceGraphic" in2="effect1_dropShadow_1803_16694" result="shape"/>
</filter>
<filter id="filter2_d_1803_16694" x="-111.073" y="2.404" width="309.244" height="240.447" filterUnits="userSpaceOnUse" color-interpolation-filters="sRGB">
<feFlood flood-opacity="0" result="BackgroundImageFix"/>
<feColorMatrix in="SourceAlpha" type="matrix" values="0 0 0 0 0 0 0 0 0 0 0 0 0 0 0 0 0 0 127 0" result="hardAlpha"/>
<feOffset dy="16.6559"/>
<feGaussianBlur stdDeviation="38.0895"/>
<feComposite in2="hardAlpha" operator="out"/>
<feColorMatrix type="matrix" values="0 0 0 0 0.584314 0 0 0 0 0.498039 0 0 0 0 1 0 0 0 0.53 0"/>
<feBlend mode="normal" in2="BackgroundImageFix" result="effect1_dropShadow_1803_16694"/>
<feBlend mode="normal" in="SourceGraphic" in2="effect1_dropShadow_1803_16694" result="shape"/>
</filter>
<filter id="filter3_d_1803_16694" x="137.012" y="-40.5508" width="293.971" height="227.428" filterUnits="userSpaceOnUse" color-interpolation-filters="sRGB">
<feFlood flood-opacity="0" result="BackgroundImageFix"/>
<feColorMatrix in="SourceAlpha" type="matrix" values="0 0 0 0 0 0 0 0 0 0 0 0 0 0 0 0 0 0 127 0" result="hardAlpha"/>
<feOffset dy="16.6559"/>
<feGaussianBlur stdDeviation="38.0895"/>
<feComposite in2="hardAlpha" operator="out"/>
<feColorMatrix type="matrix" values="0 0 0 0 0.584314 0 0 0 0 0.498039 0 0 0 0 1 0 0 0 0.53 0"/>
<feBlend mode="normal" in2="BackgroundImageFix" result="effect1_dropShadow_1803_16694"/>
<feBlend mode="normal" in="SourceGraphic" in2="effect1_dropShadow_1803_16694" result="shape"/>
</filter>
<filter id="filter4_d_1803_16694" x="-15.5217" y="-45.8106" width="297.12" height="253.062" filterUnits="userSpaceOnUse" color-interpolation-filters="sRGB">
<feFlood flood-opacity="0" result="BackgroundImageFix"/>
<feColorMatrix in="SourceAlpha" type="matrix" values="0 0 0 0 0 0 0 0 0 0 0 0 0 0 0 0 0 0 127 0" result="hardAlpha"/>
<feOffset dy="16.6559"/>
<feGaussianBlur stdDeviation="38.0895"/>
<feComposite in2="hardAlpha" operator="out"/>
<feColorMatrix type="matrix" values="0 0 0 0 0.584314 0 0 0 0 0.498039 0 0 0 0 1 0 0 0 0.53 0"/>
<feBlend mode="normal" in2="BackgroundImageFix" result="effect1_dropShadow_1803_16694"/>
<feBlend mode="normal" in="SourceGraphic" in2="effect1_dropShadow_1803_16694" result="shape"/>
</filter>
<linearGradient id="paint0_linear_1803_16694" x1="157.793" y1="0" x2="157.793" y2="235.813" gradientUnits="userSpaceOnUse">
<stop stop-color="white"/>
<stop offset="1" stop-color="#CABFFF"/>
</linearGradient>
<linearGradient id="paint1_linear_1803_16694" x1="-19.1162" y1="231.129" x2="-19.1162" y2="183.791" gradientUnits="userSpaceOnUse">
<stop stop-color="#E4DFFF"/>
<stop offset="0.355769" stop-color="#A18FFF"/>
<stop offset="1" stop-color="#7A5FFF"/>
</linearGradient>
<linearGradient id="paint2_linear_1803_16694" x1="177.863" y1="166.246" x2="177.863" y2="118.908" gradientUnits="userSpaceOnUse">
<stop stop-color="#E4DFFF"/>
<stop offset="0.355769" stop-color="#A18FFF"/>
<stop offset="1" stop-color="#7A5FFF"/>
</linearGradient>
<linearGradient id="paint3_linear_1803_16694" x1="-21.376" y1="109.265" x2="-21.376" y2="61.927" gradientUnits="userSpaceOnUse">
<stop stop-color="#E4DFFF"/>
<stop offset="0.355769" stop-color="#A18FFF"/>
<stop offset="1" stop-color="#7A5FFF"/>
</linearGradient>
<linearGradient id="paint4_linear_1803_16694" x1="213.19" y1="95.1416" x2="213.19" y2="47.8037" gradientUnits="userSpaceOnUse">
<stop stop-color="#E4DFFF"/>
<stop offset="0.355769" stop-color="#A18FFF"/>
<stop offset="1" stop-color="#7A5FFF"/>
</linearGradient>
<linearGradient id="paint5_linear_1803_16694" x1="80.5195" y1="61.0503" x2="80.5195" y2="13.7124" gradientUnits="userSpaceOnUse">
<stop stop-color="#E4DFFF"/>
<stop offset="0.355769" stop-color="#A18FFF"/>
<stop offset="1" stop-color="#7A5FFF"/>
</linearGradient>
<clipPath id="clip0_1803_16694">
<rect width="315.586" height="235.813" fill="white" transform="translate(0.169922 0.562988)"/>
</clipPath>
</defs>
</svg>
