<svg width="316" height="237" viewBox="0 0 316 237" fill="none" xmlns="http://www.w3.org/2000/svg">
<rect width="315.586" height="235.813" transform="translate(0.362305 0.562988)" fill="url(#paint0_linear_1803_13027)"/>
<path d="M28.3025 135.693L35.0728 160.465C35.4944 162.007 37.0875 162.922 38.6372 162.499L71.2856 153.576L89.0826 156.862L80.3578 146.307L74.0403 123.192C73.6187 121.65 72.0254 120.735 70.4759 121.158L30.3368 132.128C28.7871 132.552 27.881 134.15 28.3025 135.693Z" fill="url(#paint1_linear_1803_13027)"/>
<path d="M37.0545 140.467L68.0186 132.004L68.3113 133.075L37.3472 141.538L37.0545 140.467Z" fill="#1E1E2F"/>
<path d="M38.5071 145.782L69.4712 137.319L69.764 138.39L38.7999 146.853L38.5071 145.782Z" fill="#1E1E2F"/>
<path d="M39.9598 151.097L70.9238 142.635L71.2166 143.706L40.2525 152.168L39.9598 151.097Z" fill="#1E1E2F"/>
<path d="M294.145 83.0535C301.27 93.2751 297.407 108.273 285.525 116.556C273.636 124.842 258.228 123.277 251.103 113.056C250.563 112.281 250.088 111.489 249.677 110.664L230.095 105.942L248.146 96.1847C249.592 89.9043 253.594 83.8351 259.734 79.5557C271.616 71.2732 287.024 72.8383 294.145 83.0535Z" fill="url(#paint2_linear_1803_13027)"/>
<path d="M280.967 109.714C280.848 109.797 280.698 109.837 280.544 109.815C280.16 109.761 271.107 108.472 266.765 107.359C260.277 105.681 255.913 100.783 257.033 96.4397C257.392 95.0533 258.283 93.8319 259.61 92.9074C261.703 91.4479 264.736 90.7999 267.995 91.1034C268.838 87.9404 270.495 85.3196 272.59 83.8597C273.915 82.9356 275.369 82.5225 276.794 82.6641C281.258 83.1167 284.343 88.9072 283.673 95.5727C283.22 100.029 281.291 108.973 281.209 109.352C281.176 109.504 281.087 109.631 280.967 109.714ZM260.29 93.8839C259.2 94.6436 258.473 95.6301 258.186 96.7377C257.229 100.445 261.211 104.693 267.062 106.206C270.735 107.148 278.096 108.254 280.161 108.557C280.593 106.514 282.105 99.2225 282.488 95.4528C283.093 89.4409 280.485 84.235 276.675 83.8487C275.537 83.7354 274.36 84.0767 273.27 84.8363C271.302 86.2084 269.755 88.7783 269.026 91.887C268.956 92.1829 268.675 92.3789 268.374 92.3417C265.204 91.9504 262.258 92.5124 260.29 93.8839Z" fill="#2B2150"/>
<mask id="path-7-inside-1_1803_13027" fill="white">
<path d="M133.142 113.416C128.253 113.416 123.412 112.568 118.896 110.919C114.379 109.27 110.275 106.853 106.818 103.806C103.361 100.76 100.619 97.1425 98.7484 93.1617C96.8775 89.1809 95.9146 84.9144 95.9146 80.6056C95.9146 76.2968 96.8775 72.0303 98.7484 68.0495C100.619 64.0687 103.361 60.4517 106.818 57.4049C110.275 54.3582 114.379 51.9414 118.896 50.2925C123.412 48.6436 128.253 47.7949 133.142 47.7949L133.142 80.6056V113.416Z"/>
</mask>
<path d="M133.142 113.416C128.253 113.416 123.412 112.568 118.896 110.919C114.379 109.27 110.275 106.853 106.818 103.806C103.361 100.76 100.619 97.1425 98.7484 93.1617C96.8775 89.1809 95.9146 84.9144 95.9146 80.6056C95.9146 76.2968 96.8775 72.0303 98.7484 68.0495C100.619 64.0687 103.361 60.4517 106.818 57.4049C110.275 54.3582 114.379 51.9414 118.896 50.2925C123.412 48.6436 128.253 47.7949 133.142 47.7949L133.142 80.6056V113.416Z" stroke="#F83B41" stroke-width="5.25976" mask="url(#path-7-inside-1_1803_13027)"/>
<mask id="path-8-inside-2_1803_13027" fill="white">
<path d="M183.62 113.416C188.509 113.416 193.35 112.568 197.866 110.919C202.383 109.27 206.487 106.853 209.944 103.806C213.401 100.76 216.143 97.1425 218.014 93.1617C219.885 89.1809 220.848 84.9144 220.848 80.6056C220.848 76.2968 219.885 72.0303 218.014 68.0495C216.143 64.0687 213.401 60.4517 209.944 57.4049C206.487 54.3582 202.383 51.9414 197.866 50.2925C193.35 48.6436 188.509 47.7949 183.62 47.7949L183.62 80.6056V113.416Z"/>
</mask>
<path d="M183.62 113.416C188.509 113.416 193.35 112.568 197.866 110.919C202.383 109.27 206.487 106.853 209.944 103.806C213.401 100.76 216.143 97.1425 218.014 93.1617C219.885 89.1809 220.848 84.9144 220.848 80.6056C220.848 76.2968 219.885 72.0303 218.014 68.0495C216.143 64.0687 213.401 60.4517 209.944 57.4049C206.487 54.3582 202.383 51.9414 197.866 50.2925C193.35 48.6436 188.509 47.7949 183.62 47.7949L183.62 80.6056V113.416Z" stroke="#F83B41" stroke-width="5.25976" mask="url(#path-8-inside-2_1803_13027)"/>
<path d="M187.291 191.692H130.993L146.395 170.041C152.758 161.06 156.332 149.518 156.409 137.536C156.408 137.703 161.37 137.574 161.893 137.536C161.97 149.517 165.524 161.059 171.907 170.041L187.291 191.692Z" fill="#F83B41"/>
<path fill-rule="evenodd" clip-rule="evenodd" d="M134.261 128.421C141.207 134.549 150.359 137.682 159.509 137.624C165.098 137.589 170.687 136.363 175.771 133.903C187.749 128.107 195.868 115.876 195.868 102.481V45.271H122.416V102.481C122.416 112.388 126.851 121.883 134.261 128.421ZM165.722 79.3126L159.141 65.9762L152.559 79.3126L137.842 81.4511L148.491 91.8312L145.977 106.489L159.141 99.5686L172.304 106.489L169.79 91.8312L180.44 81.4511L165.722 79.3126Z" fill="#FF5A5F"/>
<defs>
<linearGradient id="paint0_linear_1803_13027" x1="157.793" y1="0" x2="157.793" y2="235.813" gradientUnits="userSpaceOnUse">
<stop offset="0.182692" stop-color="#FDFDFF"/>
<stop offset="1" stop-color="#FFA0A3"/>
</linearGradient>
<linearGradient id="paint1_linear_1803_13027" x1="53.1235" y1="125.901" x2="62.5888" y2="160.056" gradientUnits="userSpaceOnUse">
<stop offset="0.115385" stop-color="#FF5A5F"/>
<stop offset="0.442308" stop-color="#FFA0A3"/>
<stop offset="0.899038" stop-color="#FDFDFF"/>
</linearGradient>
<linearGradient id="paint2_linear_1803_13027" x1="254.33" y1="83.3223" x2="280.121" y2="120.322" gradientUnits="userSpaceOnUse">
<stop stop-color="#FFA0A3"/>
<stop offset="1" stop-color="#F83B41"/>
</linearGradient>
</defs>
</svg>
