<svg width="317" height="237" viewBox="0 0 317 237" fill="none" xmlns="http://www.w3.org/2000/svg">
<rect width="315.586" height="235.813" transform="translate(0.964844 0.562988)" fill="#DCFCE8"/>
<g filter="url(#filter0_d_1803_18198)">
<path d="M30.7705 73.3232C30.7705 65.5768 37.0502 59.2971 44.7965 59.2971H271.843C279.589 59.2971 285.869 65.5768 285.869 73.3232V92.609C285.869 100.355 279.589 106.635 271.843 106.635H44.7965C37.0502 106.635 30.7705 100.355 30.7705 92.609V73.3232Z" fill="url(#paint0_linear_1803_18198)"/>
</g>
<path d="M143.154 82.8338V84.6642H145.012V85.071H143.154V86.9294H145.223V87.3362H142.663V82.4271H145.223V82.8338H143.154ZM147.985 87.3362L146.997 85.7933L146.043 87.3362H145.524L146.758 85.4216L145.538 83.5071H146.092L147.067 85.0289L148.014 83.5071H148.525L147.305 85.4006L148.54 87.3362H147.985ZM149.479 84.3486C149.601 84.0915 149.792 83.8788 150.054 83.7105C150.321 83.5375 150.636 83.451 151.001 83.451C151.347 83.451 151.658 83.5328 151.934 83.6964C152.214 83.8554 152.431 84.0845 152.586 84.3837C152.745 84.6782 152.824 85.0219 152.824 85.4146C152.824 85.8073 152.745 86.1533 152.586 86.4525C152.431 86.7518 152.214 86.9832 151.934 87.1468C151.658 87.3105 151.347 87.3923 151.001 87.3923C150.641 87.3923 150.328 87.3081 150.061 87.1398C149.795 86.9668 149.601 86.7518 149.479 86.4946V89.1455H148.995V83.5071H149.479V84.3486ZM152.326 85.4146C152.326 85.0967 152.263 84.8232 152.137 84.5941C152.015 84.3603 151.847 84.1827 151.632 84.0611C151.417 83.9395 151.174 83.8788 150.903 83.8788C150.641 83.8788 150.4 83.9419 150.18 84.0681C149.965 84.1943 149.795 84.3743 149.668 84.6081C149.542 84.8419 149.479 85.1131 149.479 85.4216C149.479 85.7302 149.542 86.0014 149.668 86.2351C149.795 86.4689 149.965 86.6489 150.18 86.7751C150.4 86.9014 150.641 86.9645 150.903 86.9645C151.174 86.9645 151.417 86.9037 151.632 86.7822C151.847 86.6559 152.015 86.4759 152.137 86.2422C152.263 86.0037 152.326 85.7279 152.326 85.4146ZM154.008 82.1465V87.3362H153.517V82.1465H154.008ZM154.685 85.4146C154.685 85.0219 154.762 84.6782 154.916 84.3837C155.075 84.0845 155.293 83.8554 155.569 83.6964C155.849 83.5328 156.165 83.451 156.515 83.451C156.88 83.451 157.193 83.5351 157.455 83.7034C157.722 83.8718 157.913 84.0868 158.03 84.3486V83.5071H158.521V87.3362H158.03V86.4876C157.909 86.7494 157.715 86.9668 157.448 87.1398C157.186 87.3081 156.873 87.3923 156.508 87.3923C156.162 87.3923 155.849 87.3105 155.569 87.1468C155.293 86.9832 155.075 86.7518 154.916 86.4525C154.762 86.1533 154.685 85.8073 154.685 85.4146ZM158.03 85.4216C158.03 85.1131 157.967 84.8419 157.841 84.6081C157.715 84.3743 157.542 84.1943 157.322 84.0681C157.107 83.9419 156.868 83.8788 156.606 83.8788C156.335 83.8788 156.092 83.9395 155.877 84.0611C155.662 84.1827 155.491 84.3603 155.365 84.5941C155.244 84.8232 155.183 85.0967 155.183 85.4146C155.183 85.7279 155.244 86.0037 155.365 86.2422C155.491 86.4759 155.662 86.6559 155.877 86.7822C156.092 86.9037 156.335 86.9645 156.606 86.9645C156.868 86.9645 157.107 86.9014 157.322 86.7751C157.542 86.6489 157.715 86.4689 157.841 86.2351C157.967 86.0014 158.03 85.7302 158.03 85.4216ZM159.677 82.7847C159.579 82.7847 159.494 82.7497 159.424 82.6795C159.354 82.6094 159.319 82.5229 159.319 82.4201C159.319 82.3172 159.354 82.233 159.424 82.1676C159.494 82.0975 159.579 82.0624 159.677 82.0624C159.775 82.0624 159.859 82.0975 159.929 82.1676C159.999 82.233 160.034 82.3172 160.034 82.4201C160.034 82.5229 159.999 82.6094 159.929 82.6795C159.859 82.7497 159.775 82.7847 159.677 82.7847ZM159.922 83.5071V87.3362H159.431V83.5071H159.922ZM162.619 83.4369C163.077 83.4369 163.451 83.5795 163.741 83.8647C164.031 84.1453 164.176 84.5544 164.176 85.092V87.3362H163.692V85.1481C163.692 84.732 163.587 84.4141 163.376 84.1943C163.171 83.9746 162.888 83.8647 162.528 83.8647C162.158 83.8647 161.864 83.9816 161.644 84.2154C161.424 84.4492 161.314 84.7928 161.314 85.2463V87.3362H160.824V83.5071H161.314V84.1593C161.436 83.9255 161.611 83.7479 161.84 83.6263C162.07 83.5001 162.329 83.4369 162.619 83.4369ZM169.374 87.3362L168.161 85.2884H167.256V87.3362H166.765V82.4341H168.238C168.785 82.4341 169.199 82.565 169.479 82.8268C169.764 83.0886 169.907 83.4323 169.907 83.8577C169.907 84.2131 169.804 84.5169 169.598 84.7694C169.397 85.0172 169.098 85.1785 168.701 85.2533L169.963 87.3362H169.374ZM167.256 84.8886H168.245C168.628 84.8886 168.916 84.7951 169.107 84.6081C169.304 84.4211 169.402 84.171 169.402 83.8577C169.402 83.5351 169.309 83.2873 169.122 83.1143C168.935 82.9367 168.64 82.8478 168.238 82.8478H167.256V84.8886ZM172.347 87.3923C171.987 87.3923 171.662 87.3128 171.372 87.1538C171.087 86.9902 170.86 86.7611 170.692 86.4666C170.528 86.1673 170.446 85.819 170.446 85.4216C170.446 85.0242 170.531 84.6782 170.699 84.3837C170.867 84.0845 171.096 83.8554 171.386 83.6964C171.676 83.5328 172.001 83.451 172.361 83.451C172.721 83.451 173.046 83.5328 173.336 83.6964C173.63 83.8554 173.859 84.0845 174.023 84.3837C174.191 84.6782 174.275 85.0242 174.275 85.4216C174.275 85.8144 174.191 86.1603 174.023 86.4596C173.855 86.7588 173.623 86.9902 173.329 87.1538C173.034 87.3128 172.707 87.3923 172.347 87.3923ZM172.347 86.9645C172.599 86.9645 172.833 86.9084 173.048 86.7962C173.263 86.6793 173.436 86.5063 173.567 86.2772C173.703 86.0434 173.771 85.7583 173.771 85.4216C173.771 85.085 173.705 84.8021 173.574 84.5731C173.443 84.3393 173.27 84.1663 173.055 84.0541C172.84 83.9372 172.606 83.8788 172.354 83.8788C172.101 83.8788 171.868 83.9372 171.653 84.0541C171.438 84.1663 171.265 84.3393 171.134 84.5731C171.007 84.8021 170.944 85.085 170.944 85.4216C170.944 85.7583 171.007 86.0434 171.134 86.2772C171.265 86.5063 171.435 86.6793 171.646 86.7962C171.861 86.9084 172.094 86.9645 172.347 86.9645ZM174.736 85.4216C174.736 85.0242 174.815 84.6782 174.974 84.3837C175.133 84.0845 175.353 83.8554 175.633 83.6964C175.914 83.5328 176.234 83.451 176.594 83.451C177.066 83.451 177.454 83.5679 177.758 83.8016C178.067 84.0354 178.265 84.3533 178.354 84.7554H177.828C177.763 84.4795 177.62 84.2645 177.4 84.1102C177.185 83.9512 176.917 83.8718 176.594 83.8718C176.337 83.8718 176.105 83.9302 175.9 84.0471C175.694 84.164 175.53 84.3393 175.409 84.5731C175.292 84.8021 175.233 85.085 175.233 85.4216C175.233 85.7583 175.292 86.0434 175.409 86.2772C175.53 86.511 175.694 86.6863 175.9 86.8032C176.105 86.9201 176.337 86.9785 176.594 86.9785C176.917 86.9785 177.185 86.9014 177.4 86.7471C177.62 86.5881 177.763 86.3684 177.828 86.0879H178.354C178.265 86.4806 178.067 86.7962 177.758 87.0346C177.45 87.2731 177.062 87.3923 176.594 87.3923C176.234 87.3923 175.914 87.3128 175.633 87.1538C175.353 86.9902 175.133 86.7611 174.974 86.4666C174.815 86.1673 174.736 85.819 174.736 85.4216ZM180.727 87.3923C180.367 87.3923 180.042 87.3128 179.752 87.1538C179.467 86.9902 179.24 86.7611 179.072 86.4666C178.908 86.1673 178.826 85.819 178.826 85.4216C178.826 85.0242 178.91 84.6782 179.079 84.3837C179.247 84.0845 179.476 83.8554 179.766 83.6964C180.056 83.5328 180.381 83.451 180.741 83.451C181.101 83.451 181.426 83.5328 181.715 83.6964C182.01 83.8554 182.239 84.0845 182.403 84.3837C182.571 84.6782 182.655 85.0242 182.655 85.4216C182.655 85.8144 182.571 86.1603 182.403 86.4596C182.234 86.7588 182.003 86.9902 181.708 87.1538C181.414 87.3128 181.087 87.3923 180.727 87.3923ZM180.727 86.9645C180.979 86.9645 181.213 86.9084 181.428 86.7962C181.643 86.6793 181.816 86.5063 181.947 86.2772C182.082 86.0434 182.15 85.7583 182.15 85.4216C182.15 85.085 182.085 84.8021 181.954 84.5731C181.823 84.3393 181.65 84.1663 181.435 84.0541C181.22 83.9372 180.986 83.8788 180.734 83.8788C180.481 83.8788 180.247 83.9372 180.032 84.0541C179.817 84.1663 179.644 84.3393 179.513 84.5731C179.387 84.8021 179.324 85.085 179.324 85.4216C179.324 85.7583 179.387 86.0434 179.513 86.2772C179.644 86.5063 179.815 86.6793 180.025 86.7962C180.24 86.9084 180.474 86.9645 180.727 86.9645ZM183.115 85.4216C183.115 85.0242 183.195 84.6782 183.354 84.3837C183.513 84.0845 183.732 83.8554 184.013 83.6964C184.293 83.5328 184.614 83.451 184.974 83.451C185.446 83.451 185.834 83.5679 186.138 83.8016C186.446 84.0354 186.645 84.3533 186.734 84.7554H186.208C186.143 84.4795 186 84.2645 185.78 84.1102C185.565 83.9512 185.296 83.8718 184.974 83.8718C184.717 83.8718 184.485 83.9302 184.279 84.0471C184.074 84.164 183.91 84.3393 183.789 84.5731C183.672 84.8021 183.613 85.085 183.613 85.4216C183.613 85.7583 183.672 86.0434 183.789 86.2772C183.91 86.511 184.074 86.6863 184.279 86.8032C184.485 86.9201 184.717 86.9785 184.974 86.9785C185.296 86.9785 185.565 86.9014 185.78 86.7471C186 86.5881 186.143 86.3684 186.208 86.0879H186.734C186.645 86.4806 186.446 86.7962 186.138 87.0346C185.829 87.2731 185.441 87.3923 184.974 87.3923C184.614 87.3923 184.293 87.3128 184.013 87.1538C183.732 86.9902 183.513 86.7611 183.354 86.4666C183.195 86.1673 183.115 85.819 183.115 85.4216ZM189.106 87.3923C188.746 87.3923 188.421 87.3128 188.132 87.1538C187.846 86.9902 187.62 86.7611 187.451 86.4666C187.288 86.1673 187.206 85.819 187.206 85.4216C187.206 85.0242 187.29 84.6782 187.458 84.3837C187.627 84.0845 187.856 83.8554 188.146 83.6964C188.435 83.5328 188.76 83.451 189.12 83.451C189.48 83.451 189.805 83.5328 190.095 83.6964C190.39 83.8554 190.619 84.0845 190.782 84.3837C190.951 84.6782 191.035 85.0242 191.035 85.4216C191.035 85.8144 190.951 86.1603 190.782 86.4596C190.614 86.7588 190.383 86.9902 190.088 87.1538C189.794 87.3128 189.466 87.3923 189.106 87.3923ZM189.106 86.9645C189.359 86.9645 189.593 86.9084 189.808 86.7962C190.023 86.6793 190.196 86.5063 190.327 86.2772C190.462 86.0434 190.53 85.7583 190.53 85.4216C190.53 85.085 190.465 84.8021 190.334 84.5731C190.203 84.3393 190.03 84.1663 189.815 84.0541C189.6 83.9372 189.366 83.8788 189.113 83.8788C188.861 83.8788 188.627 83.9372 188.412 84.0541C188.197 84.1663 188.024 84.3393 187.893 84.5731C187.767 84.8021 187.704 85.085 187.704 85.4216C187.704 85.7583 187.767 86.0434 187.893 86.2772C188.024 86.5063 188.195 86.6793 188.405 86.7962C188.62 86.9084 188.854 86.9645 189.106 86.9645ZM193.209 85.4146C193.209 85.0219 193.286 84.6782 193.441 84.3837C193.599 84.0845 193.817 83.8554 194.093 83.6964C194.373 83.5328 194.689 83.451 195.039 83.451C195.404 83.451 195.717 83.5351 195.979 83.7034C196.246 83.8718 196.437 84.0868 196.554 84.3486V83.5071H197.045V87.3362H196.554V86.4876C196.433 86.7494 196.239 86.9668 195.972 87.1398C195.71 87.3081 195.397 87.3923 195.032 87.3923C194.687 87.3923 194.373 87.3105 194.093 87.1468C193.817 86.9832 193.599 86.7518 193.441 86.4525C193.286 86.1533 193.209 85.8073 193.209 85.4146ZM196.554 85.4216C196.554 85.1131 196.491 84.8419 196.365 84.6081C196.239 84.3743 196.066 84.1943 195.846 84.0681C195.631 83.9419 195.392 83.8788 195.131 83.8788C194.859 83.8788 194.616 83.9395 194.401 84.0611C194.186 84.1827 194.016 84.3603 193.889 84.5941C193.768 84.8232 193.707 85.0967 193.707 85.4146C193.707 85.7279 193.768 86.0037 193.889 86.2422C194.016 86.4759 194.186 86.6559 194.401 86.7822C194.616 86.9037 194.859 86.9645 195.131 86.9645C195.392 86.9645 195.631 86.9014 195.846 86.7751C196.066 86.6489 196.239 86.4689 196.365 86.2351C196.491 86.0014 196.554 85.7302 196.554 85.4216ZM198.446 84.1873C198.554 83.9489 198.718 83.7642 198.937 83.6333C199.162 83.5024 199.435 83.4369 199.758 83.4369V83.9489H199.625C199.269 83.9489 198.984 84.0447 198.769 84.2364C198.554 84.4281 198.446 84.7484 198.446 85.1972V87.3362H197.956V83.5071H198.446V84.1873ZM200.924 83.9208V86.2983C200.924 86.532 200.969 86.6933 201.057 86.7822C201.146 86.871 201.303 86.9154 201.527 86.9154H201.976V87.3362H201.45C201.104 87.3362 200.847 87.2567 200.679 87.0977C200.51 86.9341 200.426 86.6676 200.426 86.2983V83.9208H199.893V83.5071H200.426V82.5463H200.924V83.5071H201.976V83.9208H200.924ZM204.535 82.7847C204.437 82.7847 204.353 82.7497 204.282 82.6795C204.212 82.6094 204.177 82.5229 204.177 82.4201C204.177 82.3172 204.212 82.233 204.282 82.1676C204.353 82.0975 204.437 82.0624 204.535 82.0624C204.633 82.0624 204.717 82.0975 204.787 82.1676C204.858 82.233 204.893 82.3172 204.893 82.4201C204.893 82.5229 204.858 82.6094 204.787 82.6795C204.717 82.7497 204.633 82.7847 204.535 82.7847ZM204.78 83.5071V87.3362H204.289V83.5071H204.78ZM207.477 83.4369C207.935 83.4369 208.309 83.5795 208.599 83.8647C208.889 84.1453 209.034 84.5544 209.034 85.092V87.3362H208.55V85.1481C208.55 84.732 208.445 84.4141 208.234 84.1943C208.029 83.9746 207.746 83.8647 207.386 83.8647C207.016 83.8647 206.722 83.9816 206.502 84.2154C206.282 84.4492 206.173 84.7928 206.173 85.2463V87.3362H205.682V83.5071H206.173V84.1593C206.294 83.9255 206.469 83.7479 206.699 83.6263C206.928 83.5001 207.187 83.4369 207.477 83.4369ZM212.942 87.3923C212.502 87.3923 212.142 87.2918 211.862 87.0907C211.586 86.885 211.432 86.6068 211.399 86.2562H211.904C211.927 86.4712 212.028 86.6466 212.205 86.7822C212.388 86.9131 212.631 86.9785 212.935 86.9785C213.201 86.9785 213.409 86.9154 213.559 86.7892C213.713 86.6629 213.79 86.5063 213.79 86.3193C213.79 86.1884 213.748 86.0809 213.664 85.9967C213.58 85.9125 213.472 85.8471 213.341 85.8003C213.215 85.7489 213.042 85.6951 212.822 85.639C212.537 85.5642 212.306 85.4894 212.128 85.4146C211.951 85.3398 211.799 85.2299 211.672 85.085C211.551 84.9354 211.49 84.7367 211.49 84.4889C211.49 84.3019 211.546 84.1289 211.658 83.9699C211.771 83.811 211.929 83.6847 212.135 83.5912C212.341 83.4977 212.575 83.451 212.837 83.451C213.248 83.451 213.58 83.5562 213.832 83.7666C214.085 83.9723 214.22 84.2575 214.239 84.6221H213.748C213.734 84.3977 213.645 84.2177 213.482 84.0821C213.323 83.9419 213.103 83.8718 212.822 83.8718C212.575 83.8718 212.374 83.9302 212.219 84.0471C212.065 84.164 211.988 84.3089 211.988 84.4819C211.988 84.6315 212.032 84.7554 212.121 84.8536C212.215 84.9471 212.329 85.0219 212.465 85.078C212.6 85.1294 212.783 85.1879 213.012 85.2533C213.288 85.3281 213.507 85.4006 213.671 85.4707C213.835 85.5408 213.975 85.6437 214.092 85.7793C214.209 85.9149 214.27 86.0949 214.274 86.3193C214.274 86.525 214.218 86.7097 214.106 86.8733C213.994 87.0323 213.837 87.1585 213.636 87.252C213.435 87.3455 213.204 87.3923 212.942 87.3923ZM215.233 82.7847C215.135 82.7847 215.051 82.7497 214.981 82.6795C214.911 82.6094 214.876 82.5229 214.876 82.4201C214.876 82.3172 214.911 82.233 214.981 82.1676C215.051 82.0975 215.135 82.0624 215.233 82.0624C215.332 82.0624 215.416 82.0975 215.486 82.1676C215.556 82.233 215.591 82.3172 215.591 82.4201C215.591 82.5229 215.556 82.6094 215.486 82.6795C215.416 82.7497 215.332 82.7847 215.233 82.7847ZM215.479 83.5071V87.3362H214.988V83.5071H215.479ZM220.939 83.4369C221.387 83.4369 221.752 83.5795 222.033 83.8647C222.318 84.1453 222.46 84.5544 222.46 85.092V87.3362H221.976V85.1481C221.976 84.732 221.876 84.4141 221.675 84.1943C221.474 83.9746 221.2 83.8647 220.854 83.8647C220.494 83.8647 220.207 83.984 219.992 84.2224C219.777 84.4608 219.669 84.8068 219.669 85.2603V87.3362H219.185V85.1481C219.185 84.732 219.085 84.4141 218.884 84.1943C218.683 83.9746 218.407 83.8647 218.056 83.8647C217.696 83.8647 217.409 83.984 217.194 84.2224C216.979 84.4608 216.871 84.8068 216.871 85.2603V87.3362H216.38V83.5071H216.871V84.1663C216.993 83.9279 217.166 83.7479 217.39 83.6263C217.614 83.5001 217.864 83.4369 218.14 83.4369C218.472 83.4369 218.762 83.5164 219.01 83.6754C219.262 83.8343 219.445 84.0681 219.557 84.3767C219.66 84.0728 219.835 83.8414 220.083 83.6824C220.335 83.5188 220.621 83.4369 220.939 83.4369ZM223.824 84.3486C223.946 84.0915 224.137 83.8788 224.399 83.7105C224.666 83.5375 224.981 83.451 225.346 83.451C225.692 83.451 226.003 83.5328 226.279 83.6964C226.559 83.8554 226.777 84.0845 226.931 84.3837C227.09 84.6782 227.169 85.0219 227.169 85.4146C227.169 85.8073 227.09 86.1533 226.931 86.4525C226.777 86.7518 226.559 86.9832 226.279 87.1468C226.003 87.3105 225.692 87.3923 225.346 87.3923C224.986 87.3923 224.673 87.3081 224.406 87.1398C224.14 86.9668 223.946 86.7518 223.824 86.4946V89.1455H223.34V83.5071H223.824V84.3486ZM226.671 85.4146C226.671 85.0967 226.608 84.8232 226.482 84.5941C226.36 84.3603 226.192 84.1827 225.977 84.0611C225.762 83.9395 225.519 83.8788 225.248 83.8788C224.986 83.8788 224.745 83.9419 224.525 84.0681C224.31 84.1943 224.14 84.3743 224.013 84.6081C223.887 84.8419 223.824 85.1131 223.824 85.4216C223.824 85.7302 223.887 86.0014 224.013 86.2351C224.14 86.4689 224.31 86.6489 224.525 86.7751C224.745 86.9014 224.986 86.9645 225.248 86.9645C225.519 86.9645 225.762 86.9037 225.977 86.7822C226.192 86.6559 226.36 86.4759 226.482 86.2422C226.608 86.0037 226.671 85.7279 226.671 85.4146ZM228.353 82.1465V87.3362H227.862V82.1465H228.353ZM232.719 85.2253C232.719 85.3936 232.714 85.5221 232.705 85.611H229.528C229.542 85.9009 229.612 86.1486 229.738 86.3544C229.865 86.5601 230.031 86.7167 230.236 86.8242C230.442 86.9271 230.666 86.9785 230.91 86.9785C231.227 86.9785 231.494 86.9014 231.709 86.7471C231.929 86.5928 232.074 86.3847 232.144 86.1229H232.663C232.569 86.497 232.368 86.8032 232.06 87.0416C231.756 87.2754 231.372 87.3923 230.91 87.3923C230.55 87.3923 230.227 87.3128 229.942 87.1538C229.657 86.9902 229.432 86.7611 229.268 86.4666C229.109 86.1673 229.03 85.819 229.03 85.4216C229.03 85.0242 229.109 84.6759 229.268 84.3767C229.427 84.0775 229.649 83.8484 229.935 83.6894C230.22 83.5304 230.545 83.451 230.91 83.451C231.274 83.451 231.592 83.5304 231.863 83.6894C232.139 83.8484 232.35 84.0634 232.494 84.3346C232.644 84.6011 232.719 84.898 232.719 85.2253ZM232.221 85.2112C232.226 84.926 232.167 84.6829 232.046 84.4819C231.929 84.2808 231.767 84.1289 231.562 84.026C231.356 83.9232 231.132 83.8718 230.888 83.8718C230.524 83.8718 230.213 83.9886 229.956 84.2224C229.699 84.4562 229.556 84.7858 229.528 85.2112H232.221ZM235.759 83.9208V86.2983C235.759 86.532 235.803 86.6933 235.892 86.7822C235.981 86.871 236.138 86.9154 236.362 86.9154H236.811V87.3362H236.285C235.939 87.3362 235.682 87.2567 235.513 87.0977C235.345 86.9341 235.261 86.6676 235.261 86.2983V83.9208H234.728V83.5071H235.261V82.5463H235.759V83.5071H236.811V83.9208H235.759ZM240.875 85.2253C240.875 85.3936 240.87 85.5221 240.86 85.611H237.684C237.698 85.9009 237.768 86.1486 237.894 86.3544C238.02 86.5601 238.186 86.7167 238.392 86.8242C238.598 86.9271 238.822 86.9785 239.065 86.9785C239.383 86.9785 239.65 86.9014 239.865 86.7471C240.084 86.5928 240.229 86.3847 240.299 86.1229H240.818C240.725 86.497 240.524 86.8032 240.215 87.0416C239.911 87.2754 239.528 87.3923 239.065 87.3923C238.705 87.3923 238.383 87.3128 238.097 87.1538C237.812 86.9902 237.588 86.7611 237.424 86.4666C237.265 86.1673 237.186 85.819 237.186 85.4216C237.186 85.0242 237.265 84.6759 237.424 84.3767C237.583 84.0775 237.805 83.8484 238.09 83.6894C238.376 83.5304 238.7 83.451 239.065 83.451C239.43 83.451 239.748 83.5304 240.019 83.6894C240.295 83.8484 240.505 84.0634 240.65 84.3346C240.8 84.6011 240.875 84.898 240.875 85.2253ZM240.377 85.2112C240.381 84.926 240.323 84.6829 240.201 84.4819C240.084 84.2808 239.923 84.1289 239.717 84.026C239.512 83.9232 239.287 83.8718 239.044 83.8718C238.679 83.8718 238.369 83.9886 238.111 84.2224C237.854 84.4562 237.712 84.7858 237.684 85.2112H240.377ZM242.053 84.1873C242.161 83.9489 242.324 83.7642 242.544 83.6333C242.769 83.5024 243.042 83.4369 243.365 83.4369V83.9489H243.231C242.876 83.9489 242.591 84.0447 242.376 84.2364C242.161 84.4281 242.053 84.7484 242.053 85.1972V87.3362H241.562V83.5071H242.053V84.1873ZM248.451 83.4369C248.9 83.4369 249.265 83.5795 249.545 83.8647C249.83 84.1453 249.973 84.5544 249.973 85.092V87.3362H249.489V85.1481C249.489 84.732 249.389 84.4141 249.188 84.1943C248.987 83.9746 248.713 83.8647 248.367 83.8647C248.007 83.8647 247.72 83.984 247.504 84.2224C247.289 84.4608 247.182 84.8068 247.182 85.2603V87.3362H246.698V85.1481C246.698 84.732 246.597 84.4141 246.396 84.1943C246.195 83.9746 245.919 83.8647 245.569 83.8647C245.209 83.8647 244.921 83.984 244.706 84.2224C244.491 84.4608 244.384 84.8068 244.384 85.2603V87.3362H243.893V83.5071H244.384V84.1663C244.505 83.9279 244.678 83.7479 244.903 83.6263C245.127 83.5001 245.377 83.4369 245.653 83.4369C245.985 83.4369 246.275 83.5164 246.523 83.6754C246.775 83.8343 246.957 84.0681 247.07 84.3767C247.172 84.0728 247.348 83.8414 247.596 83.6824C247.848 83.5188 248.133 83.4369 248.451 83.4369ZM252.171 87.3923C251.732 87.3923 251.372 87.2918 251.091 87.0907C250.815 86.885 250.661 86.6068 250.628 86.2562H251.133C251.157 86.4712 251.257 86.6466 251.435 86.7822C251.617 86.9131 251.86 86.9785 252.164 86.9785C252.431 86.9785 252.639 86.9154 252.788 86.7892C252.943 86.6629 253.02 86.5063 253.02 86.3193C253.02 86.1884 252.978 86.0809 252.894 85.9967C252.81 85.9125 252.702 85.8471 252.571 85.8003C252.445 85.7489 252.272 85.6951 252.052 85.639C251.767 85.5642 251.535 85.4894 251.358 85.4146C251.18 85.3398 251.028 85.2299 250.902 85.085C250.78 84.9354 250.72 84.7367 250.72 84.4889C250.72 84.3019 250.776 84.1289 250.888 83.9699C251 83.811 251.159 83.6847 251.365 83.5912C251.571 83.4977 251.804 83.451 252.066 83.451C252.478 83.451 252.81 83.5562 253.062 83.7666C253.314 83.9723 253.45 84.2575 253.469 84.6221H252.978C252.964 84.3977 252.875 84.2177 252.711 84.0821C252.552 83.9419 252.333 83.8718 252.052 83.8718C251.804 83.8718 251.603 83.9302 251.449 84.0471C251.295 84.164 251.218 84.3089 251.218 84.4819C251.218 84.6315 251.262 84.7554 251.351 84.8536C251.444 84.9471 251.559 85.0219 251.694 85.078C251.83 85.1294 252.012 85.1879 252.241 85.2533C252.517 85.3281 252.737 85.4006 252.901 85.4707C253.064 85.5408 253.205 85.6437 253.321 85.7793C253.438 85.9149 253.499 86.0949 253.504 86.3193C253.504 86.525 253.448 86.7097 253.335 86.8733C253.223 87.0323 253.067 87.1585 252.866 87.252C252.665 87.3455 252.433 87.3923 252.171 87.3923Z" fill="#1E1E2F"/>
<path d="M136.253 88.0375H135.762V81.7959H136.253V88.0375Z" fill="#1E1E2F"/>
<path d="M46.2897 82.8058C46.8227 82.8058 47.2832 82.904 47.6712 83.1003C48.0593 83.2967 48.3538 83.5725 48.5549 83.9279C48.7606 84.2785 48.8634 84.6876 48.8634 85.1551C48.8634 85.5292 48.798 85.8868 48.6671 86.2281C48.5409 86.5694 48.3562 86.8476 48.1131 87.0627C47.8746 87.2777 47.5918 87.3853 47.2645 87.3853C47.026 87.3853 46.839 87.3338 46.7034 87.231C46.5679 87.1235 46.4837 86.9738 46.451 86.7822C46.306 86.9692 46.1237 87.1164 45.904 87.224C45.6842 87.3315 45.4551 87.3853 45.2167 87.3853C44.8567 87.3853 44.5738 87.2777 44.3681 87.0627C44.1671 86.8429 44.0665 86.546 44.0665 86.172C44.0665 85.8167 44.139 85.4847 44.2839 85.1762C44.4336 84.8676 44.6416 84.6221 44.9081 84.4398C45.1746 84.2528 45.4738 84.1593 45.8058 84.1593C46.2125 84.1593 46.4977 84.2972 46.6614 84.5731L46.7245 84.2224H47.4188L47.0681 86.2281C47.0541 86.3263 47.0471 86.4128 47.0471 86.4876C47.0471 86.6092 47.0705 86.7003 47.1172 86.7611C47.1686 86.8219 47.2575 86.8523 47.3837 86.8523C47.5614 86.8523 47.7133 86.7658 47.8395 86.5928C47.9658 86.4151 48.0593 86.1977 48.1201 85.9406C48.1855 85.6834 48.2183 85.4333 48.2183 85.1902C48.2183 84.5964 48.0453 84.1429 47.6993 83.8297C47.3533 83.5164 46.8507 83.3598 46.1915 83.3598C45.6398 83.3598 45.1442 83.4907 44.7047 83.7525C44.2699 84.0143 43.9286 84.3743 43.6808 84.8325C43.433 85.2907 43.3091 85.8003 43.3091 86.3614C43.3091 86.9598 43.4868 87.4157 43.8421 87.7289C44.1975 88.0422 44.7047 88.1988 45.364 88.1988C45.8081 88.1988 46.1962 88.117 46.5281 87.9533L46.6333 88.4863C46.2079 88.6687 45.731 88.7598 45.2027 88.7598C44.693 88.7598 44.2465 88.664 43.8632 88.4723C43.4798 88.2806 43.1829 88.0071 42.9725 87.6518C42.7621 87.3011 42.6569 86.892 42.6569 86.4245C42.6569 85.7559 42.8112 85.1458 43.1198 84.5941C43.433 84.0424 43.8655 83.6076 44.4172 83.2897C44.9689 82.9671 45.593 82.8058 46.2897 82.8058ZM45.4621 86.7681C45.6585 86.7681 45.8362 86.712 45.9951 86.5998C46.1588 86.4829 46.2873 86.331 46.3808 86.144C46.4743 85.9523 46.5211 85.7489 46.5211 85.5338C46.5211 85.3094 46.458 85.1271 46.3317 84.9868C46.2102 84.8419 46.0372 84.7694 45.8128 84.7694C45.6117 84.7694 45.4341 84.8325 45.2798 84.9588C45.1302 85.0803 45.0133 85.2393 44.9291 85.4357C44.8497 85.632 44.8099 85.8377 44.8099 86.0528C44.8099 86.2725 44.8637 86.4479 44.9712 86.5788C45.0788 86.705 45.2424 86.7681 45.4621 86.7681ZM51.2787 87.3853C50.9514 87.3853 50.6568 87.3292 50.395 87.217C50.1332 87.1001 49.9275 86.9364 49.7779 86.726C49.6283 86.5157 49.5535 86.2702 49.5535 85.9897H50.4091C50.4278 86.2001 50.5096 86.3731 50.6545 86.5086C50.8041 86.6442 51.0122 86.712 51.2787 86.712C51.5545 86.712 51.7696 86.6466 51.9239 86.5157C52.0782 86.3801 52.1553 86.2071 52.1553 85.9967C52.1553 85.8331 52.1062 85.6998 52.008 85.597C51.9145 85.4941 51.7953 85.4146 51.6504 85.3585C51.5101 85.3024 51.3137 85.2416 51.0613 85.1762C50.7433 85.092 50.4839 85.0079 50.2828 84.9237C50.0865 84.8349 49.9181 84.6993 49.7779 84.5169C49.6376 84.3346 49.5675 84.0915 49.5675 83.7876C49.5675 83.5071 49.6376 83.2616 49.7779 83.0512C49.9181 82.8408 50.1145 82.6795 50.367 82.5673C50.6194 82.4551 50.9117 82.399 51.2436 82.399C51.7158 82.399 52.1015 82.5182 52.4007 82.7567C52.7046 82.9904 52.873 83.313 52.9057 83.7245H52.022C52.008 83.5468 51.9239 83.3949 51.7696 83.2686C51.6153 83.1424 51.4119 83.0793 51.1594 83.0793C50.9304 83.0793 50.7433 83.1377 50.5984 83.2546C50.4535 83.3715 50.381 83.5398 50.381 83.7595C50.381 83.9092 50.4254 84.033 50.5142 84.1312C50.6078 84.2247 50.7246 84.2995 50.8649 84.3556C51.0052 84.4118 51.1968 84.4725 51.44 84.538C51.7626 84.6268 52.0244 84.7156 52.2254 84.8045C52.4311 84.8933 52.6041 85.0312 52.7444 85.2182C52.8893 85.4006 52.9618 85.646 52.9618 85.9546C52.9618 86.2024 52.894 86.4362 52.7584 86.6559C52.6275 86.8757 52.4335 87.0533 52.1763 87.1889C51.9239 87.3198 51.6246 87.3853 51.2787 87.3853ZM54.1015 82.9601C53.9566 82.9601 53.835 82.911 53.7368 82.8128C53.6387 82.7146 53.5896 82.593 53.5896 82.4481C53.5896 82.3032 53.6387 82.1816 53.7368 82.0834C53.835 81.9852 53.9566 81.9362 54.1015 81.9362C54.2418 81.9362 54.361 81.9852 54.4592 82.0834C54.5574 82.1816 54.6065 82.3032 54.6065 82.4481C54.6065 82.593 54.5574 82.7146 54.4592 82.8128C54.361 82.911 54.2418 82.9601 54.1015 82.9601ZM54.4942 83.472V87.3362H53.6948V83.472H54.4942ZM60.0112 83.4089C60.3151 83.4089 60.5863 83.472 60.8247 83.5982C61.0678 83.7245 61.2572 83.9115 61.3928 84.1593C61.533 84.4071 61.6031 84.7063 61.6031 85.057V87.3362H60.8107V85.1762C60.8107 84.8302 60.7242 84.566 60.5512 84.3837C60.3782 84.1967 60.1421 84.1032 59.8429 84.1032C59.5437 84.1032 59.3052 84.1967 59.1276 84.3837C58.9546 84.566 58.8681 84.8302 58.8681 85.1762V87.3362H58.0756V85.1762C58.0756 84.8302 57.9891 84.566 57.8161 84.3837C57.6431 84.1967 57.407 84.1032 57.1078 84.1032C56.8086 84.1032 56.5701 84.1967 56.3925 84.3837C56.2195 84.566 56.133 84.8302 56.133 85.1762V87.3362H55.3335V83.472H56.133V83.9138C56.2639 83.7549 56.4299 83.631 56.6309 83.5421C56.832 83.4533 57.047 83.4089 57.2761 83.4089C57.5847 83.4089 57.8605 83.4743 58.1036 83.6053C58.3468 83.7362 58.5338 83.9255 58.6647 84.1733C58.7816 83.9395 58.9639 83.7549 59.2117 83.6193C59.4595 83.479 59.726 83.4089 60.0112 83.4089ZM63.2096 84.0471C63.3452 83.8601 63.5298 83.7081 63.7636 83.5912C64.002 83.4697 64.2662 83.4089 64.5561 83.4089C64.8974 83.4089 65.2059 83.4907 65.4818 83.6543C65.7576 83.818 65.975 84.0518 66.134 84.3556C66.293 84.6549 66.3724 84.9985 66.3724 85.3866C66.3724 85.7746 66.293 86.1229 66.134 86.4315C65.975 86.7354 65.7553 86.9738 65.4748 87.1468C65.1989 87.3151 64.8927 87.3993 64.5561 87.3993C64.2568 87.3993 63.9903 87.3409 63.7566 87.224C63.5275 87.1071 63.3452 86.9575 63.2096 86.7751V87.3362H62.4101V82.1465H63.2096V84.0471ZM65.5589 85.3866C65.5589 85.1201 65.5028 84.891 65.3906 84.6993C65.2831 84.5029 65.1381 84.3556 64.9558 84.2575C64.7781 84.1546 64.5865 84.1032 64.3807 84.1032C64.1797 84.1032 63.988 84.1546 63.8057 84.2575C63.628 84.3603 63.4831 84.5099 63.3709 84.7063C63.2633 84.9027 63.2096 85.1341 63.2096 85.4006C63.2096 85.6671 63.2633 85.9009 63.3709 86.1019C63.4831 86.2983 63.628 86.4479 63.8057 86.5507C63.988 86.6536 64.1797 86.705 64.3807 86.705C64.5865 86.705 64.7781 86.6536 64.9558 86.5507C65.1381 86.4432 65.2831 86.2889 65.3906 86.0879C65.5028 85.8868 65.5589 85.6531 65.5589 85.3866ZM67.3594 82.9601C67.2145 82.9601 67.0929 82.911 66.9947 82.8128C66.8965 82.7146 66.8475 82.593 66.8475 82.4481C66.8475 82.3032 66.8965 82.1816 66.9947 82.0834C67.0929 81.9852 67.2145 81.9362 67.3594 81.9362C67.4997 81.9362 67.6189 81.9852 67.7171 82.0834C67.8153 82.1816 67.8643 82.3032 67.8643 82.4481C67.8643 82.593 67.8153 82.7146 67.7171 82.8128C67.6189 82.911 67.4997 82.9601 67.3594 82.9601ZM67.7521 83.472V87.3362H66.9527V83.472H67.7521Z" fill="#1E1E2F"/>
<rect x="78.1084" y="74.1997" width="52.5325" height="20.1624" rx="1.75325" fill="#22C55D"/>
<path d="M89.4873 87.8424C89.0841 87.8424 88.7218 87.7722 88.4003 87.632C88.0847 87.4859 87.8364 87.2872 87.6552 87.0359C87.474 86.7787 87.3805 86.4836 87.3747 86.1505H88.225C88.2542 86.4368 88.3711 86.6794 88.5757 86.8781C88.786 87.0709 89.0899 87.1674 89.4873 87.1674C89.8672 87.1674 90.1653 87.0739 90.3815 86.8868C90.6036 86.694 90.7146 86.4485 90.7146 86.1505C90.7146 85.9167 90.6503 85.7268 90.5218 85.5807C90.3932 85.4346 90.2325 85.3235 90.0396 85.2476C89.8468 85.1716 89.5867 85.0898 89.2594 85.0021C88.8562 84.8969 88.5318 84.7917 88.2864 84.6865C88.0468 84.5813 87.8393 84.4177 87.664 84.1956C87.4945 83.9677 87.4097 83.6638 87.4097 83.2839C87.4097 82.9508 87.4945 82.6557 87.664 82.3985C87.8334 82.1414 88.0701 81.9427 88.374 81.8024C88.6838 81.6621 89.0373 81.592 89.4348 81.592C90.0075 81.592 90.475 81.7352 90.8374 82.0216C91.2055 82.3079 91.413 82.6878 91.4598 83.1612H90.5831C90.5539 82.9274 90.4312 82.7229 90.215 82.5475C89.9987 82.3664 89.7124 82.2758 89.3559 82.2758C89.0227 82.2758 88.751 82.3634 88.5406 82.5388C88.3302 82.7083 88.225 82.9479 88.225 83.2576C88.225 83.4797 88.2864 83.6609 88.4091 83.8011C88.5377 83.9414 88.6925 84.0495 88.8737 84.1255C89.0607 84.1956 89.3208 84.2774 89.6539 84.3709C90.0572 84.482 90.3815 84.593 90.627 84.704C90.8724 84.8092 91.0828 84.9758 91.2581 85.2037C91.4335 85.4258 91.5211 85.7297 91.5211 86.1154C91.5211 86.4135 91.4422 86.694 91.2844 86.957C91.1266 87.22 90.8929 87.4333 90.5831 87.5969C90.2734 87.7606 89.9081 87.8424 89.4873 87.8424ZM93.1071 82.1969C92.9551 82.1969 92.8265 82.1443 92.7214 82.0391C92.6162 81.9339 92.5636 81.8053 92.5636 81.6534C92.5636 81.5014 92.6162 81.3729 92.7214 81.2677C92.8265 81.1625 92.9551 81.1099 93.1071 81.1099C93.2532 81.1099 93.3759 81.1625 93.4753 81.2677C93.5804 81.3729 93.633 81.5014 93.633 81.6534C93.633 81.8053 93.5804 81.9339 93.4753 82.0391C93.3759 82.1443 93.2532 82.1969 93.1071 82.1969ZM93.4928 82.9771V87.781H92.6951V82.9771H93.4928ZM100.629 82.8894C101.003 82.8894 101.336 82.9683 101.629 83.1261C101.921 83.2781 102.152 83.5089 102.321 83.8187C102.491 84.1284 102.575 84.5053 102.575 84.9495V87.781H101.786V85.0635C101.786 84.5842 101.667 84.219 101.427 83.9677C101.193 83.7105 100.875 83.582 100.472 83.582C100.057 83.582 99.7264 83.7164 99.481 83.9852C99.2355 84.2482 99.1128 84.631 99.1128 85.1336V87.781H98.3238V85.0635C98.3238 84.5842 98.204 84.219 97.9644 83.9677C97.7306 83.7105 97.4121 83.582 97.0089 83.582C96.5939 83.582 96.2637 83.7164 96.0183 83.9852C95.7728 84.2482 95.6501 84.631 95.6501 85.1336V87.781H94.8524V82.9771H95.6501V83.6696C95.8079 83.4183 96.0183 83.2255 96.2813 83.091C96.5501 82.9566 96.8452 82.8894 97.1667 82.8894C97.5699 82.8894 97.9264 82.98 98.2362 83.1612C98.5459 83.3423 98.7767 83.6083 98.9287 83.9589C99.0631 83.6199 99.2852 83.357 99.5949 83.1699C99.9047 82.9829 100.249 82.8894 100.629 82.8894ZM104.682 83.8625C104.84 83.5878 105.073 83.3599 105.383 83.1787C105.699 82.9917 106.064 82.8982 106.479 82.8982C106.905 82.8982 107.291 83.0005 107.636 83.205C107.987 83.4096 108.261 83.6988 108.46 84.0729C108.659 84.4411 108.758 84.8706 108.758 85.3615C108.758 85.8466 108.659 86.2791 108.46 86.6589C108.261 87.0388 107.987 87.3339 107.636 87.5443C107.291 87.7547 106.905 87.8599 106.479 87.8599C106.07 87.8599 105.707 87.7693 105.392 87.5881C105.082 87.4011 104.845 87.1703 104.682 86.8956V90.0602H103.884V82.9771H104.682V83.8625ZM107.943 85.3615C107.943 84.9992 107.87 84.6836 107.724 84.4148C107.578 84.1459 107.379 83.9414 107.128 83.8011C106.882 83.6609 106.61 83.5907 106.312 83.5907C106.02 83.5907 105.748 83.6638 105.497 83.8099C105.252 83.9501 105.053 84.1576 104.901 84.4323C104.755 84.7011 104.682 85.0138 104.682 85.3703C104.682 85.7326 104.755 86.0511 104.901 86.3258C105.053 86.5946 105.252 86.8021 105.497 86.9482C105.748 87.0885 106.02 87.1586 106.312 87.1586C106.61 87.1586 106.882 87.0885 107.128 86.9482C107.379 86.8021 107.578 86.5946 107.724 86.3258C107.87 86.0511 107.943 85.7297 107.943 85.3615ZM110.606 81.294V87.781H109.808V81.294H110.606ZM112.377 82.1969C112.226 82.1969 112.097 82.1443 111.992 82.0391C111.887 81.9339 111.834 81.8053 111.834 81.6534C111.834 81.5014 111.887 81.3729 111.992 81.2677C112.097 81.1625 112.226 81.1099 112.377 81.1099C112.524 81.1099 112.646 81.1625 112.746 81.2677C112.851 81.3729 112.903 81.5014 112.903 81.6534C112.903 81.8053 112.851 81.9339 112.746 82.0391C112.646 82.1443 112.524 82.1969 112.377 82.1969ZM112.763 82.9771V87.781H111.965V82.9771H112.763ZM116.078 83.6346H115.07V87.781H114.272V83.6346H113.649V82.9771H114.272V82.6352C114.272 82.0975 114.409 81.706 114.684 81.4605C114.964 81.2092 115.411 81.0836 116.025 81.0836V81.7498C115.674 81.7498 115.426 81.8199 115.28 81.9602C115.14 82.0946 115.07 82.3196 115.07 82.6352V82.9771H116.078V83.6346ZM121.145 82.9771L118.253 90.0427H117.429L118.375 87.7284L116.438 82.9771H117.323L118.831 86.8693L120.321 82.9771H121.145Z" fill="#FDFDFF"/>
<g clip-path="url(#clip0_1803_18198)">
<path d="M274.022 83.6505L272.044 81.651C271.996 81.6031 271.939 81.565 271.877 81.5391C271.815 81.5131 271.748 81.4998 271.68 81.4998C271.613 81.4998 271.546 81.5131 271.484 81.5391C271.421 81.565 271.365 81.6031 271.317 81.651V81.651C271.222 81.7468 271.169 81.8764 271.169 82.0115C271.169 82.1466 271.222 82.2762 271.317 82.372L273.138 84.2078H262.711C262.575 84.2078 262.445 84.2617 262.349 84.3576C262.254 84.4535 262.2 84.5836 262.2 84.7192V84.7192C262.2 84.8548 262.254 84.9849 262.349 85.0808C262.445 85.1767 262.575 85.2306 262.711 85.2306H273.169L271.317 87.0766C271.269 87.1241 271.231 87.1807 271.205 87.243C271.179 87.3053 271.166 87.3722 271.166 87.4397C271.166 87.5072 271.179 87.574 271.205 87.6363C271.231 87.6987 271.269 87.7552 271.317 87.8028C271.365 87.8507 271.421 87.8887 271.484 87.9147C271.546 87.9406 271.613 87.954 271.68 87.954C271.748 87.954 271.815 87.9406 271.877 87.9147C271.939 87.8887 271.996 87.8507 272.044 87.8028L274.022 85.8186C274.31 85.531 274.471 85.1411 274.471 84.7346C274.471 84.328 274.31 83.9381 274.022 83.6505V83.6505Z" fill="#7A5FFF"/>
</g>
<rect x="35.1533" y="118.908" width="119.221" height="65.7471" rx="1.75325" fill="#FDFDFF"/>
<rect x="43.043" y="130.304" width="104.319" height="8.76627" fill="#D9D9D9"/>
<rect x="43.043" y="147.836" width="104.319" height="8.76627" fill="#D9D9D9"/>
<rect x="43.043" y="165.369" width="104.319" height="8.76627" fill="#D9D9D9"/>
<rect x="162.264" y="118.908" width="119.221" height="65.7471" rx="1.75325" fill="#86EFAC"/>
<rect x="169.277" y="130.304" width="104.319" height="8.76627" fill="#6B7280"/>
<rect x="169.277" y="147.836" width="102.565" height="8.76627" fill="#6B7280"/>
<rect x="169.277" y="165.369" width="39.4482" height="8.76627" fill="#6B7280"/>
<defs>
<filter id="filter0_d_1803_18198" x="17.6211" y="45.2711" width="281.397" height="73.6367" filterUnits="userSpaceOnUse" color-interpolation-filters="sRGB">
<feFlood flood-opacity="0" result="BackgroundImageFix"/>
<feColorMatrix in="SourceAlpha" type="matrix" values="0 0 0 0 0 0 0 0 0 0 0 0 0 0 0 0 0 0 127 0" result="hardAlpha"/>
<feOffset dy="-0.876627"/>
<feGaussianBlur stdDeviation="6.57471"/>
<feComposite in2="hardAlpha" operator="out"/>
<feColorMatrix type="matrix" values="0 0 0 0 0.290196 0 0 0 0 0.870588 0 0 0 0 0.501961 0 0 0 1 0"/>
<feBlend mode="normal" in2="BackgroundImageFix" result="effect1_dropShadow_1803_18198"/>
<feBlend mode="normal" in="SourceGraphic" in2="effect1_dropShadow_1803_18198" result="shape"/>
</filter>
<linearGradient id="paint0_linear_1803_18198" x1="20.251" y1="59.2971" x2="272.72" y2="42.2029" gradientUnits="userSpaceOnUse">
<stop offset="0.0528846" stop-color="#FDFDFF"/>
<stop offset="0.653846" stop-color="#86EFAC"/>
<stop offset="1" stop-color="#7A5FFF"/>
</linearGradient>
<clipPath id="clip0_1803_18198">
<rect width="12.2728" height="12.2728" fill="white" transform="translate(262.2 78.5828)"/>
</clipPath>
</defs>
</svg>
