<svg width="80" height="70" viewBox="0 0 80 70" fill="none" xmlns="http://www.w3.org/2000/svg">
<path d="M75.0555 47.4797C75.0555 47.4797 79.3613 45.4238 79.4977 40.1635C79.6341 34.9032 73.6518 34.7533 73.6518 34.7533C76.6702 32.266 75.8436 28.0324 75.8436 28.0324C75.8509 20.2738 69.808 19.9832 69.808 19.9832C69.808 19.9832 72.1062 17.2279 71.0183 13.635C68.9037 6.65103 61.9711 8.49829 61.9711 8.49829C61.2142 4.88333 58.4131 2.04054 54.863 1.48312C54.8091 1.47455 54.7559 1.46661 54.702 1.45866C51.0785 0.930607 47.5351 2.90512 45.85 6.25698L45.6132 6.72813C45.478 6.2833 45.2461 5.82684 44.9677 5.38568C43.528 3.1046 41.1367 1.64894 38.521 1.25917C32.3043 0.333404 29.4022 5.12257 29.4022 5.12257C26.8409 2.01363 21.0066 3.20066 21.0066 3.20066C8.18416 6.31939 11.4724 19.4221 11.4724 19.4221C11.4724 19.4221 5.48455 15.6211 1.59363 24.4786C-2.29668 33.3368 5.44234 39.3968 5.44234 39.3968C4.27121 39.8765 3.1937 42.2127 3.1937 42.2127C0.437197 51.1185 11.5782 53.5715 11.5782 53.5715C7.71791 62.4425 18.665 62.1041 18.665 62.1041C19.8398 66.8768 23.6022 63.0146 23.6022 63.0146C23.4517 68.981 27.8499 66.1921 27.8499 66.1921C28.9567 69.711 31.9274 65.9345 31.9274 65.9345L32.5448 65.8127C32.6543 67.3002 33.8683 68.5068 35.4175 68.5692C36.7851 68.6249 37.9629 67.7683 38.3809 66.5537C39.1794 67.8631 40.6986 68.7828 42.481 68.855C45.1341 68.9627 47.3644 67.1552 47.5229 64.8007C48.0112 65.4817 48.795 65.9461 49.7061 65.9834C50.9421 66.0336 52.0128 65.2871 52.4375 64.2121C54.568 68.6426 58.2026 65.0485 58.2026 65.0485C61.6181 67.4012 62.966 63.5806 62.966 63.5806C62.966 63.5806 66.0658 66.003 69.3436 61.5455C71.1811 59.0466 69.3038 54.9415 69.3038 54.9415C69.3038 54.9415 73.1109 57.788 75.8179 54.4447C78.8093 50.7483 75.0555 47.4797 75.0555 47.4797Z" fill="#F99D07" stroke="#F99D07" stroke-width="0.596029" stroke-miterlimit="10" stroke-linecap="round"/>
<path d="M35.6184 58.0542L35.6649 62.2927L32.7922 62.3514C32.7922 62.3514 31.6804 68.2377 38.3486 68.625C44.0629 68.9566 44.9373 62.1636 44.9373 62.1636L41.3719 62.0541V57.8413L35.6184 58.0542Z" fill="#FDFDFF" stroke="#FDFDFF" stroke-width="0.441652" stroke-miterlimit="10"/>
<path d="M59.7633 43.4564C58.2979 42.5698 56.3778 42.8837 54.8114 44.0817C54.9234 43.3212 54.9944 42.5465 55.0103 41.7566C55.0152 41.5088 55.0011 41.2659 54.9968 41.0199C54.7423 41.0181 54.4877 41.0168 54.2332 41.0064C51.7208 40.9036 50.1373 38.9713 47.8972 37.8143C46.0353 36.8524 45.3579 36.6811 44.0069 35.0786C42.7354 33.5715 39.0776 30.2539 38.4339 27.4509C36.7084 30.2093 33.9685 33.3567 31.6794 35.0009C28.1538 37.5328 24.9824 40.4239 20.6308 40.8987C20.6295 40.9489 20.6253 40.9985 20.624 41.0486C20.613 41.5791 20.6289 42.1041 20.6626 42.6242C19.7301 42.016 18.6636 41.7737 17.6265 42.0283C15.2769 42.6065 13.973 45.5147 14.7133 48.5252C15.4537 51.535 17.9587 53.5064 20.3083 52.9282C21.5333 52.6266 22.4701 51.6886 22.9853 50.4361C25.9088 55.5789 31.2621 59.0782 37.4512 59.2055C43.6881 59.334 49.2201 56.0072 52.3394 50.9225C52.6203 51.8232 53.1618 52.5813 53.9523 53.0598C56.0223 54.3123 59.0015 53.1779 60.6059 50.526C62.2108 47.8741 61.8339 44.7089 59.7633 43.4564Z" fill="#FDFDFF" stroke="#FDFDFF" stroke-width="0.559683" stroke-miterlimit="10"/>
<path d="M21.2947 45.2338C20.6295 44.4684 19.8323 43.769 18.9297 43.493C18.037 43.2018 17.0678 43.6913 16.5808 44.4482C16.0913 45.2265 16.101 46.2673 16.2528 47.2383C16.418 48.2216 16.7099 49.2 17.0813 50.1545C16.5269 49.2906 16.0925 48.3391 15.8422 47.3209C15.6018 46.3224 15.5167 45.1555 16.1163 44.1575C16.4192 43.6686 16.8794 43.3064 17.3988 43.0861C17.9281 42.8671 18.5504 42.8695 19.0674 43.0696C20.1131 43.4777 20.8064 44.3423 21.2947 45.2338Z" fill="#6B7280"/>
<path d="M23.4633 51.0708C22.9897 50.4081 22.7045 49.6328 22.4616 48.8619C22.3478 48.4721 22.2517 48.0781 22.171 47.681C22.092 47.2832 22.0364 46.8819 21.9941 46.4792C22.1795 47.2673 22.3564 48.0536 22.5932 48.8227C22.7039 49.2094 22.833 49.5906 22.9737 49.9675C23.1194 50.3414 23.2675 50.7171 23.4633 51.0708Z" fill="#6B7280"/>
<path d="M54.6211 46.1071C55.2158 45.2829 56.0107 44.5101 57.0974 44.2348C57.6352 44.1002 58.2532 44.1742 58.7513 44.4575C59.2395 44.7408 59.6513 45.1563 59.8918 45.6794C60.3635 46.7441 60.1347 47.8914 59.7725 48.8526C59.3986 49.8316 58.8504 50.7225 58.1932 51.5112C58.6797 50.6093 59.0908 49.675 59.376 48.7198C59.6464 47.7751 59.7853 46.7429 59.3956 45.9107C59.0058 45.1 58.1051 44.4936 57.183 44.6729C56.253 44.8344 55.3755 45.4298 54.6211 46.1071Z" fill="#6B7280"/>
<path d="M52.0176 51.3902C52.1993 51.0286 52.3327 50.6474 52.4636 50.2681C52.5897 49.8862 52.7041 49.5008 52.7996 49.1098C53.007 48.3321 53.1526 47.5397 53.3074 46.7449C53.2811 47.1487 53.2413 47.5525 53.1771 47.9527C53.1122 48.3529 53.0315 48.7506 52.9323 49.144C52.72 49.9236 52.4649 50.7098 52.0176 51.3902Z" fill="#6B7280"/>
<path d="M56.3459 54.9957L55.3192 53.4972L54.2845 54.8445L54.4877 52.7428L53.3086 52.0403L54.7704 51.9381L55.4391 50.4109L55.9133 51.9987L57.4118 52.2587L56.2511 52.933L56.3459 54.9957Z" fill="white" stroke="white" stroke-width="0.141955" stroke-miterlimit="10" stroke-linecap="round"/>
<path d="M21.3874 54.7978L20.1313 53.4865L19.3291 54.9838L19.1877 52.8771L17.9102 52.3754L19.3358 52.037L19.7476 50.4216L20.4739 51.9103L21.9944 51.9244L20.9591 52.778L21.3874 54.7978Z" fill="white" stroke="white" stroke-width="0.141955" stroke-miterlimit="10" stroke-linecap="round"/>
<path opacity="0.49" d="M33.2992 50.6297C33.0625 53.2657 30.733 55.2103 28.0971 54.9729C25.4611 54.7361 23.5166 52.4066 23.754 49.7707C23.9914 47.1347 26.3202 45.1902 28.9562 45.4276C31.5921 45.6644 33.5367 47.9938 33.2992 50.6297Z" fill="#6B7280" stroke="#6B7280" stroke-width="0.621911" stroke-miterlimit="10"/>
<path opacity="0.49" d="M52.018 50.3993C51.7806 53.0352 49.4518 54.9798 46.8158 54.7424C44.1799 54.5056 42.2353 52.1762 42.4727 49.5402C42.7102 46.9042 45.039 44.9597 47.6749 45.1971C50.3103 45.4345 52.2548 47.7633 52.018 50.3993Z" fill="#6B7280" stroke="#6B7280" stroke-width="0.621911" stroke-miterlimit="10"/>
<path d="M38.2336 27.3966C38.0911 28.181 37.7392 28.914 37.4455 29.6495C37.1824 30.3079 37.0325 31.0011 37.3691 31.6693C37.6695 32.2659 38.4331 32.7199 39.0878 32.3925C39.5804 32.1465 39.7743 31.4031 39.3681 30.9877C38.87 30.4792 37.9601 30.9081 37.5361 31.3034C36.9499 31.8492 36.7651 32.7297 37.0545 33.4725C37.2871 34.0685 37.9167 34.6143 38.5806 34.3108C39.086 34.0795 39.2683 33.2755 38.6479 33.0515C37.9387 32.7951 37.2614 33.5104 37.128 34.1437C36.9438 35.0175 37.5612 35.7811 38.2306 36.2516C38.449 36.4052 38.6564 36.046 38.4398 35.8937C37.9436 35.5449 37.448 34.9912 37.5183 34.3383C37.5514 34.0354 37.7129 33.7227 37.9736 33.5526C38.0568 33.4982 38.2942 33.363 38.3835 33.4241C38.438 33.5637 38.4931 33.7026 38.5475 33.8415C38.4533 33.9296 38.3425 33.9767 38.2159 33.9822C37.4761 34.025 37.2497 32.9334 37.3684 32.3956C37.5012 31.7953 38.0776 31.1939 38.7256 31.1871C39.1307 31.1828 39.3099 31.5726 39.0615 31.8896C38.7923 32.2328 38.2502 32.0652 37.9834 31.8168C37.5453 31.4093 37.5073 30.7392 37.6787 30.202C37.9681 29.2922 38.4606 28.4545 38.6332 27.5061C38.6809 27.246 38.2814 27.1341 38.2336 27.3966Z" fill="#F99D07"/>
<path d="M30.7719 32.0229C30.1674 31.9482 29.5971 31.9745 29.055 32.0278C28.5122 32.0951 27.9921 32.2119 27.488 32.3943C26.9832 32.5778 26.4961 32.8201 26.0048 33.0949C25.7582 33.2301 25.5239 33.3941 25.2663 33.536C25.0105 33.6847 24.7804 33.8658 24.4965 34.0084L24.4855 34.0139C24.4726 34.0207 24.4567 34.0151 24.45 34.0023C24.4451 33.9919 24.4469 33.9803 24.4543 33.9723L25.0656 33.3243C25.2926 33.1334 25.503 32.9205 25.7447 32.7467C26.2183 32.3857 26.7427 32.0914 27.3001 31.8742C28.4272 31.4887 29.7036 31.4716 30.797 31.9733C30.8105 31.9794 30.816 31.9953 30.8098 32.0082C30.805 32.0192 30.7939 32.0247 30.7823 32.0235L30.7719 32.0229Z" fill="#2E2E2E"/>
<path d="M43.9927 31.7407C44.4216 31.2769 45.0133 30.9698 45.6417 30.8376C46.2719 30.6895 46.9376 30.7213 47.5691 30.8645C48.192 31.0407 48.7806 31.3161 49.2774 31.7046C49.5332 31.8863 49.7461 32.1225 49.9658 32.3367C50.153 32.5906 50.3495 32.8256 50.5031 33.0954L50.5061 33.1015C50.5135 33.1144 50.5092 33.1309 50.4957 33.1388C50.4853 33.1444 50.4731 33.1431 50.4645 33.1358L49.7871 32.5667C49.5412 32.4046 49.3105 32.2192 49.0529 32.0766C48.5469 31.7762 48.0005 31.5486 47.4339 31.4005C46.305 31.1178 45.0476 31.2078 44.0214 31.7878C44.008 31.7952 43.9915 31.7909 43.9841 31.7774C43.978 31.767 43.9798 31.7536 43.9878 31.7456L43.9927 31.7407Z" fill="#2E2E2E"/>
<path d="M35.2129 46.6414C35.3004 46.0136 35.5702 45.3981 36.0132 44.8994C36.4489 44.3995 37.1109 44.0427 37.7987 44.0079C38.137 43.9858 38.4901 44.0189 38.8242 44.1339C39.1515 44.2649 39.4526 44.4643 39.6741 44.7268C40.1244 45.2469 40.3141 45.9102 40.3104 46.5417C40.0975 45.9506 39.802 45.3974 39.3761 45.0181C38.9539 44.6338 38.4063 44.4864 37.8384 44.5402C37.2725 44.5616 36.7475 44.8162 36.3057 45.1943C35.8651 45.5786 35.5084 46.0846 35.2129 46.6414Z" fill="#6B7280"/>
<g opacity="0.53">
<path d="M40.3456 46.7329C40.3456 46.7329 40.1522 44.5063 38.242 44.3729C36.0172 44.2175 35.248 46.6405 35.248 46.6405" fill="#6B7280"/>
<path d="M40.3469 46.7331C40.1572 46.1341 39.8831 45.57 39.4719 45.1747C39.0638 44.7751 38.5229 44.6069 37.9533 44.6399C37.3873 44.6405 36.8531 44.8749 36.3979 45.2359C35.9432 45.6042 35.5676 46.0968 35.25 46.6414C35.3607 46.0172 35.6532 45.4115 36.1152 44.9299C36.5698 44.4472 37.2453 44.1155 37.9337 44.107C38.2727 44.0984 38.6245 44.1437 38.9537 44.2722C39.2761 44.4147 39.5686 44.6264 39.7797 44.8969C40.2092 45.4335 40.3738 46.1023 40.3469 46.7331Z" fill="#6B7280"/>
</g>
<path d="M50.8982 42.139C50.8266 44.6538 48.6636 46.6228 46.068 46.5365C43.4719 46.4503 41.4257 44.3417 41.4979 41.8275C41.5695 39.3127 43.7325 37.3437 46.3281 37.43C48.9243 37.5163 50.9704 39.6242 50.8982 42.139Z" fill="white"/>
<path d="M47.7125 44.7209C49.5028 44.4893 50.7581 42.787 50.5164 40.9187C50.2747 39.0503 48.6274 37.7235 46.8372 37.9551C45.047 38.1868 43.7916 39.8891 44.0334 41.7574C44.2751 43.6257 45.9223 44.9525 47.7125 44.7209Z" fill="#280707" stroke="#280707" stroke-width="0.521747" stroke-miterlimit="10"/>
<path d="M41.3496 41.0118C41.6396 39.9196 42.2613 38.9051 43.1589 38.1298C44.0523 37.3326 45.3286 36.9881 46.5261 37.0792C47.7052 37.1576 48.8879 37.6562 49.7611 38.4994C50.1973 38.924 50.4965 39.4619 50.7168 40.0046C50.9395 40.5522 51.0472 41.1262 51.0332 41.7173L50.8637 41.5802C51.191 41.557 51.5196 41.5404 51.8506 41.5355L51.8592 41.5845L50.893 41.7515L50.863 41.757L50.86 41.7252C50.7523 40.6349 50.2726 39.5616 49.468 38.809C48.6615 38.0564 47.5754 37.6538 46.482 37.5632C45.935 37.5106 45.3806 37.5522 44.8501 37.696C44.3251 37.8539 43.824 38.0956 43.3823 38.426C42.5091 39.0972 41.8312 40.0181 41.3967 41.0283L41.3496 41.0118Z" fill="black"/>
<path d="M50.6328 40.5785L51.747 40.4751L50.8048 41.0784L50.6328 40.5785Z" fill="black"/>
<path d="M50.2109 39.5835L51.2621 39.3394L50.4532 40.0534L50.2109 39.5835Z" fill="black"/>
<path d="M42.7598 45.392C43.4157 45.7041 44.0979 45.9292 44.782 46.0944C45.4685 46.2492 46.1685 46.3196 46.8532 46.2492C47.541 46.1991 48.2073 45.9782 48.8063 45.6282C49.4268 45.302 49.9414 44.807 50.4682 44.3022C50.2693 44.6021 50.0741 44.919 49.8306 45.1944C49.573 45.4575 49.3197 45.7353 48.9972 45.9317C48.7041 46.1721 48.345 46.3025 48.0042 46.4646C47.6413 46.5717 47.2766 46.6776 46.8979 46.7057C46.1453 46.7736 45.3872 46.6726 44.6853 46.4377C43.9829 46.2058 43.3227 45.8558 42.7598 45.392Z" fill="black"/>
<path d="M23.8443 41.6473C23.575 44.0789 25.4345 46.2645 27.9971 46.5288C30.5602 46.7932 32.856 45.0365 33.1252 42.6049C33.3944 40.1733 31.5349 37.9877 28.9724 37.7233C26.4093 37.459 24.1135 39.2157 23.8443 41.6473Z" fill="white"/>
<path d="M26.5597 40.98C26.1247 42.8132 27.1967 44.6323 28.954 45.0447C30.7113 45.4565 32.4888 44.305 32.9244 42.4718C33.3595 40.6392 32.2875 38.8195 30.5302 38.4077C28.7723 37.9953 26.9948 39.1468 26.5597 40.98Z" fill="#280707" stroke="#280707" stroke-width="0.521747" stroke-miterlimit="10"/>
<path d="M33.2771 41.7087C33.055 41.2008 32.8005 40.7119 32.4872 40.2714C32.1843 39.8259 31.8484 39.4123 31.4568 39.0697C31.0572 38.7362 30.6259 38.4676 30.1676 38.2632C29.7007 38.0766 29.2026 37.9793 28.696 37.9683C27.6674 37.926 26.6242 38.1157 25.7878 38.686C24.925 39.2171 24.2978 40.1313 23.9234 41.1237L23.8609 41.2889L23.7368 41.2363C23.4345 41.1084 23.1347 40.9732 22.8379 40.8269L22.8526 40.7792L23.7888 41.0705L23.7527 41.0925C24.0054 40.007 24.627 38.9956 25.5399 38.3397C26.4553 37.6886 27.6069 37.417 28.7192 37.483C29.2785 37.51 29.8329 37.6336 30.3468 37.8569C30.8541 38.0931 31.3234 38.4107 31.7187 38.8071C32.4976 39.6099 33.0379 40.622 33.3267 41.6989L33.2771 41.7087Z" fill="black"/>
<path d="M23.9507 40.4708L23.0996 39.7439L24.1894 39.999L23.9507 40.4708Z" fill="black"/>
<path d="M24.4355 39.5014L23.7324 38.6833L24.7396 39.0694L24.4355 39.5014Z" fill="black"/>
<path d="M31.6776 45.5695C31.0829 45.9911 30.3988 46.2915 29.6811 46.4733C28.9634 46.6568 28.2004 46.7021 27.4545 46.5797C27.0788 46.5241 26.7227 46.3925 26.3684 46.2591C26.0398 46.0725 25.6911 45.9165 25.4163 45.6552C25.1092 45.4362 24.8766 45.1406 24.6392 44.8598C24.4159 44.5667 24.2446 44.2375 24.0684 43.9236C24.5566 44.4651 25.0345 44.9962 25.6293 45.367C26.2014 45.7592 26.8499 46.0284 27.5322 46.1282C28.2101 46.2481 28.9132 46.2285 29.6095 46.1245C30.304 46.0076 31.0009 45.8333 31.6776 45.5695Z" fill="black"/>
<path opacity="0.49" d="M42.2636 47.4573C42.4581 48.0093 41.5464 50.7284 39.2513 51.2767C37.1495 51.7784 34.8862 50.5271 34.7656 49.4722C34.7656 49.4722 36.72 47.6954 38.815 47.4561C40.9101 47.2169 42.2636 47.4573 42.2636 47.4573Z" fill="#6B7280"/>
<path d="M33.5098 49.1164C33.9522 49.2265 34.3927 49.3232 34.8412 49.3691C35.2854 49.4352 35.7321 49.4603 36.1775 49.4688C37.0672 49.47 37.9532 49.3648 38.797 49.1145C39.642 48.8747 40.4564 48.5106 41.187 48.007C41.9445 47.5347 42.5784 46.8965 43.2313 46.2583C42.9706 46.6279 42.7124 47.0115 42.4095 47.3566C42.0834 47.6791 41.7756 48.0285 41.395 48.2965C40.6803 48.8924 39.8158 49.2975 38.923 49.5606C38.0254 49.8145 37.0825 49.9112 36.1598 49.8237C35.2401 49.7368 34.3297 49.5214 33.5098 49.1164Z" fill="#3B130E"/>
</svg>
