<svg width="79" height="68" viewBox="0 0 79 68" fill="none" xmlns="http://www.w3.org/2000/svg">
<path d="M74.5555 46.4797C74.5555 46.4797 78.8613 44.4238 78.9977 39.1635C79.1341 33.9032 73.1518 33.7533 73.1518 33.7533C76.1702 31.266 75.3436 27.0324 75.3436 27.0324C75.3509 19.2738 69.308 18.9832 69.308 18.9832C69.308 18.9832 71.6062 16.2279 70.5183 12.635C68.4037 5.65103 61.4711 7.49829 61.4711 7.49829C60.7142 3.88333 57.9131 1.04054 54.363 0.483118C54.3091 0.474552 54.2559 0.466611 54.202 0.458656C50.5785 -0.0693928 47.0351 1.90512 45.35 5.25698L45.1132 5.72813C44.978 5.2833 44.7461 4.82684 44.4677 4.38568C43.028 2.1046 40.6367 0.648938 38.021 0.259173C31.8043 -0.666596 28.9022 4.12257 28.9022 4.12257C26.3409 1.01363 20.5066 2.20066 20.5066 2.20066C7.68416 5.31939 10.9724 18.4221 10.9724 18.4221C10.9724 18.4221 4.98455 14.6211 1.09363 23.4786C-2.79668 32.3368 4.94234 38.3968 4.94234 38.3968C3.77121 38.8765 2.6937 41.2127 2.6937 41.2127C-0.0628031 50.1185 11.0782 52.5715 11.0782 52.5715C7.21791 61.4425 18.165 61.1041 18.165 61.1041C19.3398 65.8768 23.1022 62.0146 23.1022 62.0146C22.9517 67.981 27.3499 65.1921 27.3499 65.1921C28.4567 68.711 31.4274 64.9345 31.4274 64.9345L32.0448 64.8127C32.1543 66.3002 33.3683 67.5068 34.9175 67.5692C36.2851 67.6249 37.4629 66.7683 37.8809 65.5537C38.6794 66.8631 40.1986 67.7828 41.981 67.855C44.6341 67.9627 46.8644 66.1552 47.0229 63.8007C47.5112 64.4817 48.295 64.9461 49.2061 64.9834C50.4421 65.0336 51.5128 64.2871 51.9375 63.2121C54.068 67.6426 57.7026 64.0485 57.7026 64.0485C61.1181 66.4012 62.466 62.5806 62.466 62.5806C62.466 62.5806 65.5658 65.003 68.8436 60.5455C70.6811 58.0466 68.8038 53.9415 68.8038 53.9415C68.8038 53.9415 72.6109 56.788 75.3179 53.4447C78.3093 49.7483 74.5555 46.4797 74.5555 46.4797Z" fill="#7A5FFF"/>
<path d="M35.1184 57.0542L35.1649 61.2927L32.2922 61.3514C32.2922 61.3514 31.1804 67.2377 37.8486 67.625C43.5629 67.9566 44.4373 61.1636 44.4373 61.1636L40.8719 61.0541V56.8413L35.1184 57.0542Z" fill="#FDFDFF" stroke="#FDFDFF" stroke-width="0.441652" stroke-miterlimit="10"/>
<path d="M59.2633 42.4564C57.7979 41.5698 55.8778 41.8837 54.3114 43.0817C54.4234 42.3212 54.4944 41.5465 54.5103 40.7566C54.5152 40.5088 54.5011 40.2659 54.4968 40.0199C54.2423 40.0181 53.9877 40.0168 53.7332 40.0064C51.2208 39.9036 49.6373 37.9713 47.3972 36.8143C45.5353 35.8524 44.8579 35.6811 43.5069 34.0786C42.2354 32.5715 38.5776 29.2539 37.9339 26.4509C36.2084 29.2093 33.4685 32.3567 31.1794 34.0009C27.6538 36.5328 24.4824 39.4239 20.1308 39.8987C20.1295 39.9489 20.1253 39.9985 20.124 40.0486C20.113 40.5791 20.1289 41.1041 20.1626 41.6242C19.2301 41.016 18.1636 40.7737 17.1265 41.0283C14.7769 41.6065 13.473 44.5147 14.2133 47.5252C14.9537 50.535 17.4587 52.5064 19.8083 51.9282C21.0333 51.6266 21.9701 50.6886 22.4853 49.4361C25.4088 54.5789 30.7621 58.0782 36.9512 58.2055C43.1881 58.334 48.7201 55.0072 51.8394 49.9225C52.1203 50.8232 52.6618 51.5813 53.4523 52.0598C55.5223 53.3123 58.5015 52.1779 60.1059 49.526C61.7108 46.8741 61.3339 43.7089 59.2633 42.4564Z" fill="#FDFDFF" stroke="#FDFDFF" stroke-width="0.559683" stroke-miterlimit="10"/>
<path d="M20.7947 44.2338C20.1295 43.4684 19.3323 42.769 18.4297 42.493C17.537 42.2018 16.5678 42.6913 16.0808 43.4482C15.5913 44.2265 15.601 45.2673 15.7528 46.2383C15.918 47.2216 16.2099 48.2 16.5813 49.1545C16.0269 48.2906 15.5925 47.3391 15.3422 46.3209C15.1018 45.3224 15.0167 44.1555 15.6163 43.1575C15.9192 42.6686 16.3794 42.3064 16.8988 42.0861C17.4281 41.8671 18.0504 41.8695 18.5674 42.0696C19.6131 42.4777 20.3064 43.3423 20.7947 44.2338Z" fill="#6B7280"/>
<path d="M22.9633 50.0708C22.4897 49.4081 22.2045 48.6328 21.9616 47.8619C21.8478 47.4721 21.7517 47.0781 21.671 46.681C21.592 46.2832 21.5364 45.8819 21.4941 45.4792C21.6795 46.2673 21.8564 47.0536 22.0932 47.8227C22.2039 48.2094 22.333 48.5906 22.4737 48.9675C22.6194 49.3414 22.7675 49.7171 22.9633 50.0708Z" fill="#6B7280"/>
<path d="M54.1211 45.1071C54.7158 44.2829 55.5107 43.5101 56.5974 43.2348C57.1352 43.1002 57.7532 43.1742 58.2513 43.4575C58.7395 43.7408 59.1513 44.1563 59.3918 44.6794C59.8635 45.7441 59.6347 46.8914 59.2725 47.8526C58.8986 48.8316 58.3504 49.7225 57.6932 50.5112C58.1797 49.6093 58.5908 48.675 58.876 47.7198C59.1464 46.7751 59.2853 45.7429 58.8956 44.9107C58.5058 44.1 57.6051 43.4936 56.683 43.6729C55.753 43.8344 54.8755 44.4298 54.1211 45.1071Z" fill="#6B7280"/>
<path d="M51.5176 50.3902C51.6993 50.0286 51.8327 49.6474 51.9636 49.2681C52.0897 48.8862 52.2041 48.5008 52.2996 48.1098C52.507 47.3321 52.6526 46.5397 52.8074 45.7449C52.7811 46.1487 52.7413 46.5525 52.6771 46.9527C52.6122 47.3529 52.5315 47.7506 52.4323 48.144C52.22 48.9236 51.9649 49.7098 51.5176 50.3902Z" fill="#6B7280"/>
<path d="M55.8459 53.9957L54.8192 52.4972L53.7845 53.8445L53.9877 51.7428L52.8086 51.0403L54.2704 50.9381L54.9391 49.4109L55.4133 50.9987L56.9118 51.2587L55.7511 51.933L55.8459 53.9957Z" fill="white" stroke="white" stroke-width="0.141955" stroke-miterlimit="10" stroke-linecap="round"/>
<path d="M20.8874 53.7978L19.6313 52.4865L18.8291 53.9838L18.6877 51.8771L17.4102 51.3754L18.8358 51.037L19.2476 49.4216L19.9739 50.9103L21.4944 50.9244L20.4591 51.778L20.8874 53.7978Z" fill="white" stroke="white" stroke-width="0.141955" stroke-miterlimit="10" stroke-linecap="round"/>
<path opacity="0.49" d="M32.7992 49.6297C32.5625 52.2657 30.233 54.2103 27.5971 53.9729C24.9611 53.7361 23.0166 51.4066 23.254 48.7707C23.4914 46.1347 25.8202 44.1902 28.4562 44.4276C31.0921 44.6644 33.0367 46.9938 32.7992 49.6297Z" fill="#6B7280" stroke="#6B7280" stroke-width="0.621911" stroke-miterlimit="10"/>
<path opacity="0.49" d="M51.518 49.3993C51.2806 52.0352 48.9518 53.9798 46.3158 53.7424C43.6799 53.5056 41.7353 51.1762 41.9727 48.5402C42.2102 45.9042 44.539 43.9597 47.1749 44.1971C49.8103 44.4345 51.7548 46.7633 51.518 49.3993Z" fill="#6B7280" stroke="#6B7280" stroke-width="0.621911" stroke-miterlimit="10"/>
<path d="M37.7336 26.3966C37.5911 27.181 37.2392 27.914 36.9455 28.6495C36.6824 29.3079 36.5325 30.0011 36.8691 30.6693C37.1695 31.2659 37.9331 31.7199 38.5878 31.3925C39.0804 31.1465 39.2743 30.4031 38.8681 29.9877C38.37 29.4792 37.4601 29.9081 37.0361 30.3034C36.4499 30.8492 36.2651 31.7297 36.5545 32.4725C36.7871 33.0685 37.4167 33.6143 38.0806 33.3108C38.586 33.0795 38.7683 32.2755 38.1479 32.0515C37.4387 31.7951 36.7614 32.5104 36.628 33.1437C36.4438 34.0175 37.0612 34.7811 37.7306 35.2516C37.949 35.4052 38.1564 35.046 37.9398 34.8937C37.4436 34.5449 36.948 33.9912 37.0183 33.3383C37.0514 33.0354 37.2129 32.7227 37.4736 32.5526C37.5568 32.4982 37.7942 32.363 37.8835 32.4241C37.938 32.5637 37.9931 32.7026 38.0475 32.8415C37.9533 32.9296 37.8425 32.9767 37.7159 32.9822C36.9761 33.025 36.7497 31.9334 36.8684 31.3956C37.0012 30.7953 37.5776 30.1939 38.2256 30.1871C38.6307 30.1828 38.8099 30.5726 38.5615 30.8896C38.2923 31.2328 37.7502 31.0652 37.4834 30.8168C37.0453 30.4093 37.0073 29.7392 37.1787 29.202C37.4681 28.2922 37.9606 27.4545 38.1332 26.5061C38.1809 26.246 37.7814 26.1341 37.7336 26.3966Z" fill="#1A0000"/>
<path d="M30.2719 31.0229C29.6674 30.9482 29.0971 30.9745 28.555 31.0278C28.0122 31.0951 27.4921 31.2119 26.988 31.3943C26.4832 31.5778 25.9961 31.8201 25.5048 32.0949C25.2582 32.2301 25.0239 32.3941 24.7663 32.536C24.5105 32.6847 24.2804 32.8658 23.9965 33.0084L23.9855 33.0139C23.9726 33.0207 23.9567 33.0151 23.95 33.0023C23.9451 32.9919 23.9469 32.9803 23.9543 32.9723L24.5656 32.3243C24.7926 32.1334 25.003 31.9205 25.2447 31.7467C25.7183 31.3857 26.2427 31.0914 26.8001 30.8742C27.9272 30.4887 29.2036 30.4716 30.297 30.9733C30.3105 30.9794 30.316 30.9953 30.3098 31.0082C30.305 31.0192 30.2939 31.0247 30.2823 31.0235L30.2719 31.0229Z" fill="#2E2E2E"/>
<path d="M43.4927 30.7407C43.9216 30.2769 44.5133 29.9698 45.1417 29.8376C45.7719 29.6895 46.4376 29.7213 47.0691 29.8645C47.692 30.0407 48.2806 30.3161 48.7774 30.7046C49.0332 30.8863 49.2461 31.1225 49.4658 31.3367C49.653 31.5906 49.8495 31.8256 50.0031 32.0954L50.0061 32.1015C50.0135 32.1144 50.0092 32.1309 49.9957 32.1388C49.9853 32.1444 49.9731 32.1431 49.9645 32.1358L49.2871 31.5667C49.0412 31.4046 48.8105 31.2192 48.5529 31.0766C48.0469 30.7762 47.5005 30.5486 46.9339 30.4005C45.805 30.1178 44.5476 30.2078 43.5214 30.7878C43.508 30.7952 43.4915 30.7909 43.4841 30.7774C43.478 30.767 43.4798 30.7536 43.4878 30.7456L43.4927 30.7407Z" fill="#2E2E2E"/>
<path d="M34.7129 45.6414C34.8004 45.0136 35.0702 44.3981 35.5132 43.8994C35.9489 43.3995 36.6109 43.0427 37.2987 43.0079C37.637 42.9858 37.9901 43.0189 38.3242 43.1339C38.6515 43.2649 38.9526 43.4643 39.1741 43.7268C39.6244 44.2469 39.8141 44.9102 39.8104 45.5417C39.5975 44.9506 39.302 44.3974 38.8761 44.0181C38.4539 43.6338 37.9063 43.4864 37.3384 43.5402C36.7725 43.5616 36.2475 43.8162 35.8057 44.1943C35.3651 44.5786 35.0084 45.0846 34.7129 45.6414Z" fill="#6B7280"/>
<g opacity="0.53">
<path d="M39.8456 45.7329C39.8456 45.7329 39.6522 43.5063 37.742 43.3729C35.5172 43.2175 34.748 45.6405 34.748 45.6405" fill="#6B7280"/>
<path d="M39.8469 45.7331C39.6572 45.1341 39.3831 44.57 38.9719 44.1747C38.5638 43.7751 38.0229 43.6069 37.4533 43.6399C36.8873 43.6405 36.3531 43.8749 35.8979 44.2359C35.4432 44.6042 35.0676 45.0968 34.75 45.6414C34.8607 45.0172 35.1532 44.4115 35.6152 43.9299C36.0698 43.4472 36.7453 43.1155 37.4337 43.107C37.7727 43.0984 38.1245 43.1437 38.4537 43.2722C38.7761 43.4147 39.0686 43.6264 39.2797 43.8969C39.7092 44.4335 39.8738 45.1023 39.8469 45.7331Z" fill="#6B7280"/>
</g>
<path d="M50.3982 41.139C50.3266 43.6538 48.1636 45.6228 45.568 45.5365C42.9719 45.4503 40.9257 43.3417 40.9979 40.8275C41.0695 38.3127 43.2325 36.3437 45.8281 36.43C48.4243 36.5163 50.4704 38.6242 50.3982 41.139Z" fill="white"/>
<path d="M47.2125 43.7209C49.0028 43.4893 50.2581 41.787 50.0164 39.9187C49.7747 38.0503 48.1274 36.7235 46.3372 36.9551C44.547 37.1868 43.2916 38.8891 43.5334 40.7574C43.7751 42.6257 45.4223 43.9525 47.2125 43.7209Z" fill="#280707" stroke="#280707" stroke-width="0.521747" stroke-miterlimit="10"/>
<path d="M40.8496 40.0118C41.1396 38.9196 41.7613 37.9051 42.6589 37.1298C43.5523 36.3326 44.8286 35.9881 46.0261 36.0792C47.2052 36.1576 48.3879 36.6562 49.2611 37.4994C49.6973 37.924 49.9965 38.4619 50.2168 39.0046C50.4395 39.5522 50.5472 40.1262 50.5332 40.7173L50.3637 40.5802C50.691 40.557 51.0196 40.5404 51.3506 40.5355L51.3592 40.5845L50.393 40.7515L50.363 40.757L50.36 40.7252C50.2523 39.6349 49.7726 38.5616 48.968 37.809C48.1615 37.0564 47.0754 36.6538 45.982 36.5632C45.435 36.5106 44.8806 36.5522 44.3501 36.696C43.8251 36.8539 43.324 37.0956 42.8823 37.426C42.0091 38.0972 41.3312 39.0181 40.8967 40.0283L40.8496 40.0118Z" fill="black"/>
<path d="M50.1328 39.5785L51.247 39.4751L50.3048 40.0784L50.1328 39.5785Z" fill="black"/>
<path d="M49.7109 38.5835L50.7621 38.3394L49.9532 39.0534L49.7109 38.5835Z" fill="black"/>
<path d="M42.2598 44.392C42.9157 44.7041 43.5979 44.9292 44.282 45.0944C44.9685 45.2492 45.6685 45.3196 46.3532 45.2492C47.041 45.1991 47.7073 44.9782 48.3063 44.6282C48.9268 44.302 49.4414 43.807 49.9682 43.3022C49.7693 43.6021 49.5741 43.919 49.3306 44.1944C49.073 44.4575 48.8197 44.7353 48.4972 44.9317C48.2041 45.1721 47.845 45.3025 47.5042 45.4646C47.1413 45.5717 46.7766 45.6776 46.3979 45.7057C45.6453 45.7736 44.8872 45.6726 44.1853 45.4377C43.4829 45.2058 42.8227 44.8558 42.2598 44.392Z" fill="black"/>
<path d="M23.3443 40.6473C23.075 43.0789 24.9345 45.2645 27.4971 45.5288C30.0602 45.7932 32.356 44.0365 32.6252 41.6049C32.8944 39.1733 31.0349 36.9877 28.4724 36.7233C25.9093 36.459 23.6135 38.2157 23.3443 40.6473Z" fill="white"/>
<path d="M26.0597 39.98C25.6247 41.8132 26.6967 43.6323 28.454 44.0447C30.2113 44.4565 31.9888 43.305 32.4244 41.4718C32.8595 39.6392 31.7875 37.8195 30.0302 37.4077C28.2723 36.9953 26.4948 38.1468 26.0597 39.98Z" fill="#280707" stroke="#280707" stroke-width="0.521747" stroke-miterlimit="10"/>
<path d="M32.7771 40.7087C32.555 40.2008 32.3005 39.7119 31.9872 39.2714C31.6843 38.8259 31.3484 38.4123 30.9568 38.0697C30.5572 37.7362 30.1259 37.4676 29.6676 37.2632C29.2007 37.0766 28.7026 36.9793 28.196 36.9683C27.1674 36.926 26.1242 37.1157 25.2878 37.686C24.425 38.2171 23.7978 39.1313 23.4234 40.1237L23.3609 40.2889L23.2368 40.2363C22.9345 40.1084 22.6347 39.9732 22.3379 39.8269L22.3526 39.7792L23.2888 40.0705L23.2527 40.0925C23.5054 39.007 24.127 37.9956 25.0399 37.3397C25.9553 36.6886 27.1069 36.417 28.2192 36.483C28.7785 36.51 29.3329 36.6336 29.8468 36.8569C30.3541 37.0931 30.8234 37.4107 31.2187 37.8071C31.9976 38.6099 32.5379 39.622 32.8267 40.6989L32.7771 40.7087Z" fill="black"/>
<path d="M23.4507 39.4708L22.5996 38.7439L23.6894 38.999L23.4507 39.4708Z" fill="black"/>
<path d="M23.9355 38.5014L23.2324 37.6833L24.2396 38.0694L23.9355 38.5014Z" fill="black"/>
<path d="M31.1776 44.5695C30.5829 44.9911 29.8988 45.2915 29.1811 45.4733C28.4634 45.6568 27.7004 45.7021 26.9545 45.5797C26.5788 45.5241 26.2227 45.3925 25.8684 45.2591C25.5398 45.0725 25.1911 44.9165 24.9163 44.6552C24.6092 44.4362 24.3766 44.1406 24.1392 43.8598C23.9159 43.5667 23.7446 43.2375 23.5684 42.9236C24.0566 43.4651 24.5345 43.9962 25.1293 44.367C25.7014 44.7592 26.3499 45.0284 27.0322 45.1282C27.7101 45.2481 28.4132 45.2285 29.1095 45.1245C29.804 45.0076 30.5009 44.8333 31.1776 44.5695Z" fill="black"/>
<path opacity="0.49" d="M41.7636 46.4573C41.9581 47.0093 41.0464 49.7284 38.7513 50.2767C36.6495 50.7784 34.3862 49.5271 34.2656 48.4722C34.2656 48.4722 36.22 46.6954 38.315 46.4561C40.4101 46.2169 41.7636 46.4573 41.7636 46.4573Z" fill="#6B7280"/>
<path d="M33.0098 48.1164C33.4522 48.2265 33.8927 48.3232 34.3412 48.3691C34.7854 48.4352 35.2321 48.4603 35.6775 48.4688C36.5672 48.47 37.4532 48.3648 38.297 48.1145C39.142 47.8747 39.9564 47.5106 40.687 47.007C41.4445 46.5347 42.0784 45.8965 42.7313 45.2583C42.4706 45.6279 42.2124 46.0115 41.9095 46.3566C41.5834 46.6791 41.2756 47.0285 40.895 47.2965C40.1803 47.8924 39.3158 48.2975 38.423 48.5606C37.5254 48.8145 36.5825 48.9112 35.6598 48.8237C34.7401 48.7368 33.8297 48.5214 33.0098 48.1164Z" fill="#3B130E"/>
</svg>
