<svg width="80" height="68" viewBox="0 0 80 68" fill="none" xmlns="http://www.w3.org/2000/svg">
<path d="M75.0555 46.4797C75.0555 46.4797 79.3613 44.4238 79.4977 39.1635C79.6341 33.9032 73.6518 33.7533 73.6518 33.7533C76.6702 31.266 75.8436 27.0324 75.8436 27.0324C75.8509 19.2738 69.808 18.9832 69.808 18.9832C69.808 18.9832 72.1062 16.2279 71.0183 12.635C68.9037 5.65103 61.9711 7.49829 61.9711 7.49829C61.2142 3.88333 58.4131 1.04054 54.863 0.483118C54.8091 0.474552 54.7559 0.466611 54.702 0.458656C51.0785 -0.0693928 47.5351 1.90512 45.85 5.25698L45.6132 5.72813C45.478 5.2833 45.2461 4.82684 44.9677 4.38568C43.528 2.1046 41.1367 0.648938 38.521 0.259173C32.3043 -0.666596 29.4022 4.12257 29.4022 4.12257C26.8409 1.01363 21.0066 2.20066 21.0066 2.20066C8.18416 5.31939 11.4724 18.4221 11.4724 18.4221C11.4724 18.4221 5.48455 14.6211 1.59363 23.4786C-2.29668 32.3368 5.44234 38.3968 5.44234 38.3968C4.27121 38.8765 3.1937 41.2127 3.1937 41.2127C0.437197 50.1185 11.5782 52.5715 11.5782 52.5715C7.71791 61.4425 18.665 61.1041 18.665 61.1041C19.8398 65.8768 23.6022 62.0146 23.6022 62.0146C23.4517 67.981 27.8499 65.1921 27.8499 65.1921C28.9567 68.711 31.9274 64.9345 31.9274 64.9345L32.5448 64.8127C32.6543 66.3002 33.8683 67.5068 35.4175 67.5692C36.7851 67.6249 37.9629 66.7683 38.3809 65.5537C39.1794 66.8631 40.6986 67.7828 42.481 67.855C45.1341 67.9627 47.3644 66.1552 47.5229 63.8007C48.0112 64.4817 48.795 64.9461 49.7061 64.9834C50.9421 65.0336 52.0128 64.2871 52.4375 63.2121C54.568 67.6426 58.2026 64.0485 58.2026 64.0485C61.6181 66.4012 62.966 62.5806 62.966 62.5806C62.966 62.5806 66.0658 65.003 69.3436 60.5455C71.1811 58.0466 69.3038 53.9415 69.3038 53.9415C69.3038 53.9415 73.1109 56.788 75.8179 53.4447C78.8093 49.7483 75.0555 46.4797 75.0555 46.4797Z" fill="#FF5A5F"/>
<path d="M35.6184 57.0542L35.6649 61.2927L32.7922 61.3514C32.7922 61.3514 31.6804 67.2377 38.3486 67.625C44.0629 67.9566 44.9373 61.1636 44.9373 61.1636L41.3719 61.0541V56.8413L35.6184 57.0542Z" fill="#FDFDFF" stroke="#FDFDFF" stroke-width="0.441652" stroke-miterlimit="10"/>
<path d="M59.7633 42.4564C58.2979 41.5698 56.3778 41.8837 54.8114 43.0817C54.9234 42.3212 54.9944 41.5465 55.0103 40.7566C55.0152 40.5088 55.0011 40.2659 54.9968 40.0199C54.7423 40.0181 54.4877 40.0168 54.2332 40.0064C51.7208 39.9036 50.1373 37.9713 47.8972 36.8143C46.0353 35.8524 45.3579 35.6811 44.0069 34.0786C42.7354 32.5715 39.0776 29.2539 38.4339 26.4509C36.7084 29.2093 33.9685 32.3567 31.6794 34.0009C28.1538 36.5328 24.9824 39.4239 20.6308 39.8987C20.6295 39.9489 20.6253 39.9985 20.624 40.0486C20.613 40.5791 20.6289 41.1041 20.6626 41.6242C19.7301 41.016 18.6636 40.7737 17.6265 41.0283C15.2769 41.6065 13.973 44.5147 14.7133 47.5252C15.4537 50.535 17.9587 52.5064 20.3083 51.9282C21.5333 51.6266 22.4701 50.6886 22.9853 49.4361C25.9088 54.5789 31.2621 58.0782 37.4512 58.2055C43.6881 58.334 49.2201 55.0072 52.3394 49.9225C52.6203 50.8232 53.1618 51.5813 53.9523 52.0598C56.0223 53.3123 59.0015 52.1779 60.6059 49.526C62.2108 46.8741 61.8339 43.7089 59.7633 42.4564Z" fill="#FDFDFF" stroke="#FDFDFF" stroke-width="0.559683" stroke-miterlimit="10"/>
<path d="M21.2947 44.2338C20.6295 43.4684 19.8323 42.769 18.9297 42.493C18.037 42.2018 17.0678 42.6913 16.5808 43.4482C16.0913 44.2265 16.101 45.2673 16.2528 46.2383C16.418 47.2216 16.7099 48.2 17.0813 49.1545C16.5269 48.2906 16.0925 47.3391 15.8422 46.3209C15.6018 45.3224 15.5167 44.1555 16.1163 43.1575C16.4192 42.6686 16.8794 42.3064 17.3988 42.0861C17.9281 41.8671 18.5504 41.8695 19.0674 42.0696C20.1131 42.4777 20.8064 43.3423 21.2947 44.2338Z" fill="#6B7280"/>
<path d="M23.4633 50.0708C22.9897 49.4081 22.7045 48.6328 22.4616 47.8619C22.3478 47.4721 22.2517 47.0781 22.171 46.681C22.092 46.2832 22.0364 45.8819 21.9941 45.4792C22.1795 46.2673 22.3564 47.0536 22.5932 47.8227C22.7039 48.2094 22.833 48.5906 22.9737 48.9675C23.1194 49.3414 23.2675 49.7171 23.4633 50.0708Z" fill="#6B7280"/>
<path d="M54.6211 45.1071C55.2158 44.2829 56.0107 43.5101 57.0974 43.2348C57.6352 43.1002 58.2532 43.1742 58.7513 43.4575C59.2395 43.7408 59.6513 44.1563 59.8918 44.6794C60.3635 45.7441 60.1347 46.8914 59.7725 47.8526C59.3986 48.8316 58.8504 49.7225 58.1932 50.5112C58.6797 49.6093 59.0908 48.675 59.376 47.7198C59.6464 46.7751 59.7853 45.7429 59.3956 44.9107C59.0058 44.1 58.1051 43.4936 57.183 43.6729C56.253 43.8344 55.3755 44.4298 54.6211 45.1071Z" fill="#6B7280"/>
<path d="M52.0176 50.3902C52.1993 50.0286 52.3327 49.6474 52.4636 49.2681C52.5897 48.8862 52.7041 48.5008 52.7996 48.1098C53.007 47.3321 53.1526 46.5397 53.3074 45.7449C53.2811 46.1487 53.2413 46.5525 53.1771 46.9527C53.1122 47.3529 53.0315 47.7506 52.9323 48.144C52.72 48.9236 52.4649 49.7098 52.0176 50.3902Z" fill="#6B7280"/>
<path d="M56.3459 53.9957L55.3192 52.4972L54.2845 53.8445L54.4877 51.7428L53.3086 51.0403L54.7704 50.9381L55.4391 49.4109L55.9133 50.9987L57.4118 51.2587L56.2511 51.933L56.3459 53.9957Z" fill="white" stroke="white" stroke-width="0.141955" stroke-miterlimit="10" stroke-linecap="round"/>
<path d="M21.3874 53.7978L20.1313 52.4865L19.3291 53.9838L19.1877 51.8771L17.9102 51.3754L19.3358 51.037L19.7476 49.4216L20.4739 50.9103L21.9944 50.9244L20.9591 51.778L21.3874 53.7978Z" fill="white" stroke="white" stroke-width="0.141955" stroke-miterlimit="10" stroke-linecap="round"/>
<path opacity="0.49" d="M33.2992 49.6297C33.0625 52.2657 30.733 54.2103 28.0971 53.9729C25.4611 53.7361 23.5166 51.4066 23.754 48.7707C23.9914 46.1347 26.3202 44.1902 28.9562 44.4276C31.5921 44.6644 33.5367 46.9938 33.2992 49.6297Z" fill="#6B7280" stroke="#6B7280" stroke-width="0.621911" stroke-miterlimit="10"/>
<path opacity="0.49" d="M52.018 49.3993C51.7806 52.0352 49.4518 53.9798 46.8158 53.7424C44.1799 53.5056 42.2353 51.1762 42.4727 48.5402C42.7102 45.9042 45.039 43.9597 47.6749 44.1971C50.3103 44.4345 52.2548 46.7633 52.018 49.3993Z" fill="#6B7280" stroke="#6B7280" stroke-width="0.621911" stroke-miterlimit="10"/>
<path d="M38.2336 26.3966C38.0911 27.181 37.7392 27.914 37.4455 28.6495C37.1824 29.3079 37.0325 30.0011 37.3691 30.6693C37.6695 31.2659 38.4331 31.7199 39.0878 31.3925C39.5804 31.1465 39.7743 30.4031 39.3681 29.9877C38.87 29.4792 37.9601 29.9081 37.5361 30.3034C36.9499 30.8492 36.7651 31.7297 37.0545 32.4725C37.2871 33.0685 37.9167 33.6143 38.5806 33.3108C39.086 33.0795 39.2683 32.2755 38.6479 32.0515C37.9387 31.7951 37.2614 32.5104 37.128 33.1437C36.9438 34.0175 37.5612 34.7811 38.2306 35.2516C38.449 35.4052 38.6564 35.046 38.4398 34.8937C37.9436 34.5449 37.448 33.9912 37.5183 33.3383C37.5514 33.0354 37.7129 32.7227 37.9736 32.5526C38.0568 32.4982 38.2942 32.363 38.3835 32.4241C38.438 32.5637 38.4931 32.7026 38.5475 32.8415C38.4533 32.9296 38.3425 32.9767 38.2159 32.9822C37.4761 33.025 37.2497 31.9334 37.3684 31.3956C37.5012 30.7953 38.0776 30.1939 38.7256 30.1871C39.1307 30.1828 39.3099 30.5726 39.0615 30.8896C38.7923 31.2328 38.2502 31.0652 37.9834 30.8168C37.5453 30.4093 37.5073 29.7392 37.6787 29.202C37.9681 28.2922 38.4606 27.4545 38.6332 26.5061C38.6809 26.246 38.2814 26.1341 38.2336 26.3966Z" fill="#1A0000"/>
<path d="M30.7719 31.0229C30.1674 30.9482 29.5971 30.9745 29.055 31.0278C28.5122 31.0951 27.9921 31.2119 27.488 31.3943C26.9832 31.5778 26.4961 31.8201 26.0048 32.0949C25.7582 32.2301 25.5239 32.3941 25.2663 32.536C25.0105 32.6847 24.7804 32.8658 24.4965 33.0084L24.4855 33.0139C24.4726 33.0207 24.4567 33.0151 24.45 33.0023C24.4451 32.9919 24.4469 32.9803 24.4543 32.9723L25.0656 32.3243C25.2926 32.1334 25.503 31.9205 25.7447 31.7467C26.2183 31.3857 26.7427 31.0914 27.3001 30.8742C28.4272 30.4887 29.7036 30.4716 30.797 30.9733C30.8105 30.9794 30.816 30.9953 30.8098 31.0082C30.805 31.0192 30.7939 31.0247 30.7823 31.0235L30.7719 31.0229Z" fill="#2E2E2E"/>
<path d="M43.9927 30.7407C44.4216 30.2769 45.0133 29.9698 45.6417 29.8376C46.2719 29.6895 46.9376 29.7213 47.5691 29.8645C48.192 30.0407 48.7806 30.3161 49.2774 30.7046C49.5332 30.8863 49.7461 31.1225 49.9658 31.3367C50.153 31.5906 50.3495 31.8256 50.5031 32.0954L50.5061 32.1015C50.5135 32.1144 50.5092 32.1309 50.4957 32.1388C50.4853 32.1444 50.4731 32.1431 50.4645 32.1358L49.7871 31.5667C49.5412 31.4046 49.3105 31.2192 49.0529 31.0766C48.5469 30.7762 48.0005 30.5486 47.4339 30.4005C46.305 30.1178 45.0476 30.2078 44.0214 30.7878C44.008 30.7952 43.9915 30.7909 43.9841 30.7774C43.978 30.767 43.9798 30.7536 43.9878 30.7456L43.9927 30.7407Z" fill="#2E2E2E"/>
<path d="M35.2129 45.6414C35.3004 45.0136 35.5702 44.3981 36.0132 43.8994C36.4489 43.3995 37.1109 43.0427 37.7987 43.0079C38.137 42.9858 38.4901 43.0189 38.8242 43.1339C39.1515 43.2649 39.4526 43.4643 39.6741 43.7268C40.1244 44.2469 40.3141 44.9102 40.3104 45.5417C40.0975 44.9506 39.802 44.3974 39.3761 44.0181C38.9539 43.6338 38.4063 43.4864 37.8384 43.5402C37.2725 43.5616 36.7475 43.8162 36.3057 44.1943C35.8651 44.5786 35.5084 45.0846 35.2129 45.6414Z" fill="#6B7280"/>
<g opacity="0.53">
<path d="M40.3456 45.7329C40.3456 45.7329 40.1522 43.5063 38.242 43.3729C36.0172 43.2175 35.248 45.6405 35.248 45.6405" fill="#6B7280"/>
<path d="M40.3469 45.7331C40.1572 45.1341 39.8831 44.57 39.4719 44.1747C39.0638 43.7751 38.5229 43.6069 37.9533 43.6399C37.3873 43.6405 36.8531 43.8749 36.3979 44.2359C35.9432 44.6042 35.5676 45.0968 35.25 45.6414C35.3607 45.0172 35.6532 44.4115 36.1152 43.9299C36.5698 43.4472 37.2453 43.1155 37.9337 43.107C38.2727 43.0984 38.6245 43.1437 38.9537 43.2722C39.2761 43.4147 39.5686 43.6264 39.7797 43.8969C40.2092 44.4335 40.3738 45.1023 40.3469 45.7331Z" fill="#6B7280"/>
</g>
<path d="M50.8982 41.139C50.8266 43.6538 48.6636 45.6228 46.068 45.5365C43.4719 45.4503 41.4257 43.3417 41.4979 40.8275C41.5695 38.3127 43.7325 36.3437 46.3281 36.43C48.9243 36.5163 50.9704 38.6242 50.8982 41.139Z" fill="white"/>
<path d="M47.7125 43.7209C49.5028 43.4893 50.7581 41.787 50.5164 39.9187C50.2747 38.0503 48.6274 36.7235 46.8372 36.9551C45.047 37.1868 43.7916 38.8891 44.0334 40.7574C44.2751 42.6257 45.9223 43.9525 47.7125 43.7209Z" fill="#280707" stroke="#280707" stroke-width="0.521747" stroke-miterlimit="10"/>
<path d="M41.3496 40.0118C41.6396 38.9196 42.2613 37.9051 43.1589 37.1298C44.0523 36.3326 45.3286 35.9881 46.5261 36.0792C47.7052 36.1576 48.8879 36.6562 49.7611 37.4994C50.1973 37.924 50.4965 38.4619 50.7168 39.0046C50.9395 39.5522 51.0472 40.1262 51.0332 40.7173L50.8637 40.5802C51.191 40.557 51.5196 40.5404 51.8506 40.5355L51.8592 40.5845L50.893 40.7515L50.863 40.757L50.86 40.7252C50.7523 39.6349 50.2726 38.5616 49.468 37.809C48.6615 37.0564 47.5754 36.6538 46.482 36.5632C45.935 36.5106 45.3806 36.5522 44.8501 36.696C44.3251 36.8539 43.824 37.0956 43.3823 37.426C42.5091 38.0972 41.8312 39.0181 41.3967 40.0283L41.3496 40.0118Z" fill="black"/>
<path d="M50.6328 39.5785L51.747 39.4751L50.8048 40.0784L50.6328 39.5785Z" fill="black"/>
<path d="M50.2109 38.5835L51.2621 38.3394L50.4532 39.0534L50.2109 38.5835Z" fill="black"/>
<path d="M42.7598 44.392C43.4157 44.7041 44.0979 44.9292 44.782 45.0944C45.4685 45.2492 46.1685 45.3196 46.8532 45.2492C47.541 45.1991 48.2073 44.9782 48.8063 44.6282C49.4268 44.302 49.9414 43.807 50.4682 43.3022C50.2693 43.6021 50.0741 43.919 49.8306 44.1944C49.573 44.4575 49.3197 44.7353 48.9972 44.9317C48.7041 45.1721 48.345 45.3025 48.0042 45.4646C47.6413 45.5717 47.2766 45.6776 46.8979 45.7057C46.1453 45.7736 45.3872 45.6726 44.6853 45.4377C43.9829 45.2058 43.3227 44.8558 42.7598 44.392Z" fill="black"/>
<path d="M23.8443 40.6473C23.575 43.0789 25.4345 45.2645 27.9971 45.5288C30.5602 45.7932 32.856 44.0365 33.1252 41.6049C33.3944 39.1733 31.5349 36.9877 28.9724 36.7233C26.4093 36.459 24.1135 38.2157 23.8443 40.6473Z" fill="white"/>
<path d="M26.5597 39.98C26.1247 41.8132 27.1967 43.6323 28.954 44.0447C30.7113 44.4565 32.4888 43.305 32.9244 41.4718C33.3595 39.6392 32.2875 37.8195 30.5302 37.4077C28.7723 36.9953 26.9948 38.1468 26.5597 39.98Z" fill="#280707" stroke="#280707" stroke-width="0.521747" stroke-miterlimit="10"/>
<path d="M33.2771 40.7087C33.055 40.2008 32.8005 39.7119 32.4872 39.2714C32.1843 38.8259 31.8484 38.4123 31.4568 38.0697C31.0572 37.7362 30.6259 37.4676 30.1676 37.2632C29.7007 37.0766 29.2026 36.9793 28.696 36.9683C27.6674 36.926 26.6242 37.1157 25.7878 37.686C24.925 38.2171 24.2978 39.1313 23.9234 40.1237L23.8609 40.2889L23.7368 40.2363C23.4345 40.1084 23.1347 39.9732 22.8379 39.8269L22.8526 39.7792L23.7888 40.0705L23.7527 40.0925C24.0054 39.007 24.627 37.9956 25.5399 37.3397C26.4553 36.6886 27.6069 36.417 28.7192 36.483C29.2785 36.51 29.8329 36.6336 30.3468 36.8569C30.8541 37.0931 31.3234 37.4107 31.7187 37.8071C32.4976 38.6099 33.0379 39.622 33.3267 40.6989L33.2771 40.7087Z" fill="black"/>
<path d="M23.9507 39.4708L23.0996 38.7439L24.1894 38.999L23.9507 39.4708Z" fill="black"/>
<path d="M24.4355 38.5014L23.7324 37.6833L24.7396 38.0694L24.4355 38.5014Z" fill="black"/>
<path d="M31.6776 44.5695C31.0829 44.9911 30.3988 45.2915 29.6811 45.4733C28.9634 45.6568 28.2004 45.7021 27.4545 45.5797C27.0788 45.5241 26.7227 45.3925 26.3684 45.2591C26.0398 45.0725 25.6911 44.9165 25.4163 44.6552C25.1092 44.4362 24.8766 44.1406 24.6392 43.8598C24.4159 43.5667 24.2446 43.2375 24.0684 42.9236C24.5566 43.4651 25.0345 43.9962 25.6293 44.367C26.2014 44.7592 26.8499 45.0284 27.5322 45.1282C28.2101 45.2481 28.9132 45.2285 29.6095 45.1245C30.304 45.0076 31.0009 44.8333 31.6776 44.5695Z" fill="black"/>
<path opacity="0.49" d="M42.2636 46.4573C42.4581 47.0093 41.5464 49.7284 39.2513 50.2767C37.1495 50.7784 34.8862 49.5271 34.7656 48.4722C34.7656 48.4722 36.72 46.6954 38.815 46.4561C40.9101 46.2169 42.2636 46.4573 42.2636 46.4573Z" fill="#6B7280"/>
<path d="M33.5098 48.1164C33.9522 48.2265 34.3927 48.3232 34.8412 48.3691C35.2854 48.4352 35.7321 48.4603 36.1775 48.4688C37.0672 48.47 37.9532 48.3648 38.797 48.1145C39.642 47.8747 40.4564 47.5106 41.187 47.007C41.9445 46.5347 42.5784 45.8965 43.2313 45.2583C42.9706 45.6279 42.7124 46.0115 42.4095 46.3566C42.0834 46.6791 41.7756 47.0285 41.395 47.2965C40.6803 47.8924 39.8158 48.2975 38.923 48.5606C38.0254 48.8145 37.0825 48.9112 36.1598 48.8237C35.2401 48.7368 34.3297 48.5214 33.5098 48.1164Z" fill="#3B130E"/>
</svg>
