<svg width="79" height="69" viewBox="0 0 79 69" fill="none" xmlns="http://www.w3.org/2000/svg">
<path d="M74.5555 46.9797C74.5555 46.9797 78.8613 44.9238 78.9977 39.6635C79.1341 34.4032 73.1518 34.2533 73.1518 34.2533C76.1702 31.766 75.3436 27.5324 75.3436 27.5324C75.3509 19.7738 69.308 19.4832 69.308 19.4832C69.308 19.4832 71.6062 16.7279 70.5183 13.135C68.4037 6.15103 61.4711 7.99829 61.4711 7.99829C60.7142 4.38333 57.9131 1.54054 54.363 0.983118C54.3091 0.974552 54.2559 0.966611 54.202 0.958656C50.5785 0.430607 47.0351 2.40512 45.35 5.75698L45.1132 6.22813C44.978 5.7833 44.7461 5.32684 44.4677 4.88568C43.028 2.6046 40.6367 1.14894 38.021 0.759173C31.8043 -0.166596 28.9022 4.62257 28.9022 4.62257C26.3409 1.51363 20.5066 2.70066 20.5066 2.70066C7.68416 5.81939 10.9724 18.9221 10.9724 18.9221C10.9724 18.9221 4.98455 15.1211 1.09363 23.9786C-2.79668 32.8368 4.94234 38.8968 4.94234 38.8968C3.77121 39.3765 2.6937 41.7127 2.6937 41.7127C-0.0628031 50.6185 11.0782 53.0715 11.0782 53.0715C7.21791 61.9425 18.165 61.6041 18.165 61.6041C19.3398 66.3768 23.1022 62.5146 23.1022 62.5146C22.9517 68.481 27.3499 65.6921 27.3499 65.6921C28.4567 69.211 31.4274 65.4345 31.4274 65.4345L32.0448 65.3127C32.1543 66.8002 33.3683 68.0068 34.9175 68.0692C36.2851 68.1249 37.4629 67.2683 37.8809 66.0537C38.6794 67.3631 40.1986 68.2828 41.981 68.355C44.6341 68.4627 46.8644 66.6552 47.0229 64.3007C47.5112 64.9817 48.295 65.4461 49.2061 65.4834C50.4421 65.5336 51.5128 64.7871 51.9375 63.7121C54.068 68.1426 57.7026 64.5485 57.7026 64.5485C61.1181 66.9012 62.466 63.0806 62.466 63.0806C62.466 63.0806 65.5658 65.503 68.8436 61.0455C70.6811 58.5466 68.8038 54.4415 68.8038 54.4415C68.8038 54.4415 72.6109 57.288 75.3179 53.9447C78.3093 50.2483 74.5555 46.9797 74.5555 46.9797Z" fill="#15803C"/>
<path d="M35.1184 57.5542L35.1649 61.7927L32.2922 61.8514C32.2922 61.8514 31.1804 67.7377 37.8486 68.125C43.5629 68.4566 44.4373 61.6636 44.4373 61.6636L40.8719 61.5541V57.3413L35.1184 57.5542Z" fill="#FDFDFF" stroke="#FDFDFF" stroke-width="0.441652" stroke-miterlimit="10"/>
<path d="M59.2633 42.9564C57.7979 42.0698 55.8778 42.3837 54.3114 43.5817C54.4234 42.8212 54.4944 42.0465 54.5103 41.2566C54.5152 41.0088 54.5011 40.7659 54.4968 40.5199C54.2423 40.5181 53.9877 40.5168 53.7332 40.5064C51.2208 40.4036 49.6373 38.4713 47.3972 37.3143C45.5353 36.3524 44.8579 36.1811 43.5069 34.5786C42.2354 33.0715 38.5776 29.7539 37.9339 26.9509C36.2084 29.7093 33.4685 32.8567 31.1794 34.5009C27.6538 37.0328 24.4824 39.9239 20.1308 40.3987C20.1295 40.4489 20.1253 40.4985 20.124 40.5486C20.113 41.0791 20.1289 41.6041 20.1626 42.1242C19.2301 41.516 18.1636 41.2737 17.1265 41.5283C14.7769 42.1065 13.473 45.0147 14.2133 48.0252C14.9537 51.035 17.4587 53.0064 19.8083 52.4282C21.0333 52.1266 21.9701 51.1886 22.4853 49.9361C25.4088 55.0789 30.7621 58.5782 36.9512 58.7055C43.1881 58.834 48.7201 55.5072 51.8394 50.4225C52.1203 51.3232 52.6618 52.0813 53.4523 52.5598C55.5223 53.8123 58.5015 52.6779 60.1059 50.026C61.7108 47.3741 61.3339 44.2089 59.2633 42.9564Z" fill="#FDFDFF" stroke="#FDFDFF" stroke-width="0.559683" stroke-miterlimit="10"/>
<path d="M20.7947 44.7338C20.1295 43.9684 19.3323 43.269 18.4297 42.993C17.537 42.7018 16.5678 43.1913 16.0808 43.9482C15.5913 44.7265 15.601 45.7673 15.7528 46.7383C15.918 47.7216 16.2099 48.7 16.5813 49.6545C16.0269 48.7906 15.5925 47.8391 15.3422 46.8209C15.1018 45.8224 15.0167 44.6555 15.6163 43.6575C15.9192 43.1686 16.3794 42.8064 16.8988 42.5861C17.4281 42.3671 18.0504 42.3695 18.5674 42.5696C19.6131 42.9777 20.3064 43.8423 20.7947 44.7338Z" fill="#6B7280"/>
<path d="M22.9633 50.5708C22.4897 49.9081 22.2045 49.1328 21.9616 48.3619C21.8478 47.9721 21.7517 47.5781 21.671 47.181C21.592 46.7832 21.5364 46.3819 21.4941 45.9792C21.6795 46.7673 21.8564 47.5536 22.0932 48.3227C22.2039 48.7094 22.333 49.0906 22.4737 49.4675C22.6194 49.8414 22.7675 50.2171 22.9633 50.5708Z" fill="#6B7280"/>
<path d="M54.1211 45.6071C54.7158 44.7829 55.5107 44.0101 56.5974 43.7348C57.1352 43.6002 57.7532 43.6742 58.2513 43.9575C58.7395 44.2408 59.1513 44.6563 59.3918 45.1794C59.8635 46.2441 59.6347 47.3914 59.2725 48.3526C58.8986 49.3316 58.3504 50.2225 57.6932 51.0112C58.1797 50.1093 58.5908 49.175 58.876 48.2198C59.1464 47.2751 59.2853 46.2429 58.8956 45.4107C58.5058 44.6 57.6051 43.9936 56.683 44.1729C55.753 44.3344 54.8755 44.9298 54.1211 45.6071Z" fill="#6B7280"/>
<path d="M51.5176 50.8902C51.6993 50.5286 51.8327 50.1474 51.9636 49.7681C52.0897 49.3862 52.2041 49.0008 52.2996 48.6098C52.507 47.8321 52.6526 47.0397 52.8074 46.2449C52.7811 46.6487 52.7413 47.0525 52.6771 47.4527C52.6122 47.8529 52.5315 48.2506 52.4323 48.644C52.22 49.4236 51.9649 50.2098 51.5176 50.8902Z" fill="#6B7280"/>
<path d="M55.8459 54.4957L54.8192 52.9972L53.7845 54.3445L53.9877 52.2428L52.8086 51.5403L54.2704 51.4381L54.9391 49.9109L55.4133 51.4987L56.9118 51.7587L55.7511 52.433L55.8459 54.4957Z" fill="white" stroke="white" stroke-width="0.141955" stroke-miterlimit="10" stroke-linecap="round"/>
<path d="M20.8874 54.2978L19.6313 52.9865L18.8291 54.4838L18.6877 52.3771L17.4102 51.8754L18.8358 51.537L19.2476 49.9216L19.9739 51.4103L21.4944 51.4244L20.4591 52.278L20.8874 54.2978Z" fill="white" stroke="white" stroke-width="0.141955" stroke-miterlimit="10" stroke-linecap="round"/>
<path opacity="0.49" d="M32.7992 50.1297C32.5625 52.7657 30.233 54.7103 27.5971 54.4729C24.9611 54.2361 23.0166 51.9066 23.254 49.2707C23.4914 46.6347 25.8202 44.6902 28.4562 44.9276C31.0921 45.1644 33.0367 47.4938 32.7992 50.1297Z" fill="#6B7280" stroke="#6B7280" stroke-width="0.621911" stroke-miterlimit="10"/>
<path opacity="0.49" d="M51.518 49.8993C51.2806 52.5352 48.9518 54.4798 46.3158 54.2424C43.6799 54.0056 41.7353 51.6762 41.9727 49.0402C42.2102 46.4042 44.539 44.4597 47.1749 44.6971C49.8103 44.9345 51.7548 47.2633 51.518 49.8993Z" fill="#6B7280" stroke="#6B7280" stroke-width="0.621911" stroke-miterlimit="10"/>
<path d="M37.7336 26.8966C37.5911 27.681 37.2392 28.414 36.9455 29.1495C36.6824 29.8079 36.5325 30.5011 36.8691 31.1693C37.1695 31.7659 37.9331 32.2199 38.5878 31.8925C39.0804 31.6465 39.2743 30.9031 38.8681 30.4877C38.37 29.9792 37.4601 30.4081 37.0361 30.8034C36.4499 31.3492 36.2651 32.2297 36.5545 32.9725C36.7871 33.5685 37.4167 34.1143 38.0806 33.8108C38.586 33.5795 38.7683 32.7755 38.1479 32.5515C37.4387 32.2951 36.7614 33.0104 36.628 33.6437C36.4438 34.5175 37.0612 35.2811 37.7306 35.7516C37.949 35.9052 38.1564 35.546 37.9398 35.3937C37.4436 35.0449 36.948 34.4912 37.0183 33.8383C37.0514 33.5354 37.2129 33.2227 37.4736 33.0526C37.5568 32.9982 37.7942 32.863 37.8835 32.9241C37.938 33.0637 37.9931 33.2026 38.0475 33.3415C37.9533 33.4296 37.8425 33.4767 37.7159 33.4822C36.9761 33.525 36.7497 32.4334 36.8684 31.8956C37.0012 31.2953 37.5776 30.6939 38.2256 30.6871C38.6307 30.6828 38.8099 31.0726 38.5615 31.3896C38.2923 31.7328 37.7502 31.5652 37.4834 31.3168C37.0453 30.9093 37.0073 30.2392 37.1787 29.702C37.4681 28.7922 37.9606 27.9545 38.1332 27.0061C38.1809 26.746 37.7814 26.6341 37.7336 26.8966Z" fill="#1A0000"/>
<path d="M30.2719 31.5229C29.6674 31.4482 29.0971 31.4745 28.555 31.5278C28.0122 31.5951 27.4921 31.7119 26.988 31.8943C26.4832 32.0778 25.9961 32.3201 25.5048 32.5949C25.2582 32.7301 25.0239 32.8941 24.7663 33.036C24.5105 33.1847 24.2804 33.3658 23.9965 33.5084L23.9855 33.5139C23.9726 33.5207 23.9567 33.5151 23.95 33.5023C23.9451 33.4919 23.9469 33.4803 23.9543 33.4723L24.5656 32.8243C24.7926 32.6334 25.003 32.4205 25.2447 32.2467C25.7183 31.8857 26.2427 31.5914 26.8001 31.3742C27.9272 30.9887 29.2036 30.9716 30.297 31.4733C30.3105 31.4794 30.316 31.4953 30.3098 31.5082C30.305 31.5192 30.2939 31.5247 30.2823 31.5235L30.2719 31.5229Z" fill="#2E2E2E"/>
<path d="M43.4927 31.2407C43.9216 30.7769 44.5133 30.4698 45.1417 30.3376C45.7719 30.1895 46.4376 30.2213 47.0691 30.3645C47.692 30.5407 48.2806 30.8161 48.7774 31.2046C49.0332 31.3863 49.2461 31.6225 49.4658 31.8367C49.653 32.0906 49.8495 32.3256 50.0031 32.5954L50.0061 32.6015C50.0135 32.6144 50.0092 32.6309 49.9957 32.6388C49.9853 32.6444 49.9731 32.6431 49.9645 32.6358L49.2871 32.0667C49.0412 31.9046 48.8105 31.7192 48.5529 31.5766C48.0469 31.2762 47.5005 31.0486 46.9339 30.9005C45.805 30.6178 44.5476 30.7078 43.5214 31.2878C43.508 31.2952 43.4915 31.2909 43.4841 31.2774C43.478 31.267 43.4798 31.2536 43.4878 31.2456L43.4927 31.2407Z" fill="#2E2E2E"/>
<path d="M34.7129 46.1414C34.8004 45.5136 35.0702 44.8981 35.5132 44.3994C35.9489 43.8995 36.6109 43.5427 37.2987 43.5079C37.637 43.4858 37.9901 43.5189 38.3242 43.6339C38.6515 43.7649 38.9526 43.9643 39.1741 44.2268C39.6244 44.7469 39.8141 45.4102 39.8104 46.0417C39.5975 45.4506 39.302 44.8974 38.8761 44.5181C38.4539 44.1338 37.9063 43.9864 37.3384 44.0402C36.7725 44.0616 36.2475 44.3162 35.8057 44.6943C35.3651 45.0786 35.0084 45.5846 34.7129 46.1414Z" fill="#6B7280"/>
<g opacity="0.53">
<path d="M39.8456 46.2329C39.8456 46.2329 39.6522 44.0063 37.742 43.8729C35.5172 43.7175 34.748 46.1405 34.748 46.1405" fill="#6B7280"/>
<path d="M39.8469 46.2331C39.6572 45.6341 39.3831 45.07 38.9719 44.6747C38.5638 44.2751 38.0229 44.1069 37.4533 44.1399C36.8873 44.1405 36.3531 44.3749 35.8979 44.7359C35.4432 45.1042 35.0676 45.5968 34.75 46.1414C34.8607 45.5172 35.1532 44.9115 35.6152 44.4299C36.0698 43.9472 36.7453 43.6155 37.4337 43.607C37.7727 43.5984 38.1245 43.6437 38.4537 43.7722C38.7761 43.9147 39.0686 44.1264 39.2797 44.3969C39.7092 44.9335 39.8738 45.6023 39.8469 46.2331Z" fill="#6B7280"/>
</g>
<path d="M50.3982 41.639C50.3266 44.1538 48.1636 46.1228 45.568 46.0365C42.9719 45.9503 40.9257 43.8417 40.9979 41.3275C41.0695 38.8127 43.2325 36.8437 45.8281 36.93C48.4243 37.0163 50.4704 39.1242 50.3982 41.639Z" fill="white"/>
<path d="M47.2125 44.2209C49.0028 43.9893 50.2581 42.287 50.0164 40.4187C49.7747 38.5503 48.1274 37.2235 46.3372 37.4551C44.547 37.6868 43.2916 39.3891 43.5334 41.2574C43.7751 43.1257 45.4223 44.4525 47.2125 44.2209Z" fill="#280707" stroke="#280707" stroke-width="0.521747" stroke-miterlimit="10"/>
<path d="M40.8496 40.5118C41.1396 39.4196 41.7613 38.4051 42.6589 37.6298C43.5523 36.8326 44.8286 36.4881 46.0261 36.5792C47.2052 36.6576 48.3879 37.1562 49.2611 37.9994C49.6973 38.424 49.9965 38.9619 50.2168 39.5046C50.4395 40.0522 50.5472 40.6262 50.5332 41.2173L50.3637 41.0802C50.691 41.057 51.0196 41.0404 51.3506 41.0355L51.3592 41.0845L50.393 41.2515L50.363 41.257L50.36 41.2252C50.2523 40.1349 49.7726 39.0616 48.968 38.309C48.1615 37.5564 47.0754 37.1538 45.982 37.0632C45.435 37.0106 44.8806 37.0522 44.3501 37.196C43.8251 37.3539 43.324 37.5956 42.8823 37.926C42.0091 38.5972 41.3312 39.5181 40.8967 40.5283L40.8496 40.5118Z" fill="black"/>
<path d="M50.1328 40.0785L51.247 39.9751L50.3048 40.5784L50.1328 40.0785Z" fill="black"/>
<path d="M49.7109 39.0835L50.7621 38.8394L49.9532 39.5534L49.7109 39.0835Z" fill="black"/>
<path d="M42.2598 44.892C42.9157 45.2041 43.5979 45.4292 44.282 45.5944C44.9685 45.7492 45.6685 45.8196 46.3532 45.7492C47.041 45.6991 47.7073 45.4782 48.3063 45.1282C48.9268 44.802 49.4414 44.307 49.9682 43.8022C49.7693 44.1021 49.5741 44.419 49.3306 44.6944C49.073 44.9575 48.8197 45.2353 48.4972 45.4317C48.2041 45.6721 47.845 45.8025 47.5042 45.9646C47.1413 46.0717 46.7766 46.1776 46.3979 46.2057C45.6453 46.2736 44.8872 46.1726 44.1853 45.9377C43.4829 45.7058 42.8227 45.3558 42.2598 44.892Z" fill="black"/>
<path d="M23.3443 41.1473C23.075 43.5789 24.9345 45.7645 27.4971 46.0288C30.0602 46.2932 32.356 44.5365 32.6252 42.1049C32.8944 39.6733 31.0349 37.4877 28.4724 37.2233C25.9093 36.959 23.6135 38.7157 23.3443 41.1473Z" fill="white"/>
<path d="M26.0597 40.48C25.6247 42.3132 26.6967 44.1323 28.454 44.5447C30.2113 44.9565 31.9888 43.805 32.4244 41.9718C32.8595 40.1392 31.7875 38.3195 30.0302 37.9077C28.2723 37.4953 26.4948 38.6468 26.0597 40.48Z" fill="#280707" stroke="#280707" stroke-width="0.521747" stroke-miterlimit="10"/>
<path d="M32.7771 41.2087C32.555 40.7008 32.3005 40.2119 31.9872 39.7714C31.6843 39.3259 31.3484 38.9123 30.9568 38.5697C30.5572 38.2362 30.1259 37.9676 29.6676 37.7632C29.2007 37.5766 28.7026 37.4793 28.196 37.4683C27.1674 37.426 26.1242 37.6157 25.2878 38.186C24.425 38.7171 23.7978 39.6313 23.4234 40.6237L23.3609 40.7889L23.2368 40.7363C22.9345 40.6084 22.6347 40.4732 22.3379 40.3269L22.3526 40.2792L23.2888 40.5705L23.2527 40.5925C23.5054 39.507 24.127 38.4956 25.0399 37.8397C25.9553 37.1886 27.1069 36.917 28.2192 36.983C28.7785 37.01 29.3329 37.1336 29.8468 37.3569C30.3541 37.5931 30.8234 37.9107 31.2187 38.3071C31.9976 39.1099 32.5379 40.122 32.8267 41.1989L32.7771 41.2087Z" fill="black"/>
<path d="M23.4507 39.9708L22.5996 39.2439L23.6894 39.499L23.4507 39.9708Z" fill="black"/>
<path d="M23.9355 39.0014L23.2324 38.1833L24.2396 38.5694L23.9355 39.0014Z" fill="black"/>
<path d="M31.1776 45.0695C30.5829 45.4911 29.8988 45.7915 29.1811 45.9733C28.4634 46.1568 27.7004 46.2021 26.9545 46.0797C26.5788 46.0241 26.2227 45.8925 25.8684 45.7591C25.5398 45.5725 25.1911 45.4165 24.9163 45.1552C24.6092 44.9362 24.3766 44.6406 24.1392 44.3598C23.9159 44.0667 23.7446 43.7375 23.5684 43.4236C24.0566 43.9651 24.5345 44.4962 25.1293 44.867C25.7014 45.2592 26.3499 45.5284 27.0322 45.6282C27.7101 45.7481 28.4132 45.7285 29.1095 45.6245C29.804 45.5076 30.5009 45.3333 31.1776 45.0695Z" fill="black"/>
<path opacity="0.49" d="M41.7636 46.9573C41.9581 47.5093 41.0464 50.2284 38.7513 50.7767C36.6495 51.2784 34.3862 50.0271 34.2656 48.9722C34.2656 48.9722 36.22 47.1954 38.315 46.9561C40.4101 46.7169 41.7636 46.9573 41.7636 46.9573Z" fill="#6B7280"/>
<path d="M33.0098 48.6164C33.4522 48.7265 33.8927 48.8232 34.3412 48.8691C34.7854 48.9352 35.2321 48.9603 35.6775 48.9688C36.5672 48.97 37.4532 48.8648 38.297 48.6145C39.142 48.3747 39.9564 48.0106 40.687 47.507C41.4445 47.0347 42.0784 46.3965 42.7313 45.7583C42.4706 46.1279 42.2124 46.5115 41.9095 46.8566C41.5834 47.1791 41.2756 47.5285 40.895 47.7965C40.1803 48.3924 39.3158 48.7975 38.423 49.0606C37.5254 49.3145 36.5825 49.4112 35.6598 49.3237C34.7401 49.2368 33.8297 49.0214 33.0098 48.6164Z" fill="#3B130E"/>
</svg>
