<svg width="247" height="390" viewBox="0 0 247 390" fill="none" xmlns="http://www.w3.org/2000/svg">
<path d="M136.8 292.829L141.617 316.85C141.617 316.85 166.238 332.689 170.012 343.393C170.012 343.393 168.362 353.397 156.866 361.815L156.878 353.792C156.878 353.792 117.312 336.77 112.871 327.301C108.43 317.832 110.496 307.033 110.496 307.033L136.8 292.829Z" fill="#B44A24" stroke="#B44A24" stroke-width="0.9183" stroke-miterlimit="10"/>
<path d="M136.011 343.819C141.134 337.392 146.165 330.892 151.841 324.905C152.029 324.707 152.102 324.498 152.096 324.306C159.29 329.834 167.903 337.413 170.01 343.392C170.01 343.392 168.36 353.397 156.864 361.814L156.876 353.791C156.876 353.791 146.651 349.389 136.011 343.819Z" fill="white" stroke="white" stroke-width="0.9183" stroke-miterlimit="10"/>
<path d="M149.604 350.509C149.918 350.151 150.223 349.787 150.536 349.428C154.899 344.435 159.478 339.599 163.956 334.703C166.808 337.702 169.065 340.71 170.011 343.394C170.011 343.394 168.361 353.398 156.865 361.816L156.877 353.793C156.877 353.793 153.947 352.527 149.604 350.509Z" fill="black" stroke="black" stroke-width="0.9183" stroke-miterlimit="10"/>
<path opacity="0.49" d="M113.846 329.463C115.283 331.345 119.362 330.504 122.957 327.585C126.551 324.668 128.3 320.776 126.863 318.895C125.426 317.013 121.346 317.854 117.751 320.773C114.156 323.691 112.408 327.583 113.846 329.463Z" fill="#8B2A0C" stroke="#8B2A0C" stroke-width="0.4443" stroke-miterlimit="10"/>
<path opacity="0.39" d="M101.665 390C139.351 390 169.902 383.702 169.902 375.933C169.902 368.165 139.351 361.867 101.665 361.867C63.9786 361.867 33.4277 368.165 33.4277 375.933C33.4277 383.702 63.9786 390 101.665 390Z" fill="#7A5FFF"/>
<path d="M232.331 143.923C232.331 143.923 245.647 137.497 245.995 121.211C246.344 104.924 227.801 104.543 227.801 104.543C237.12 96.798 234.499 83.7053 234.499 83.7053C234.411 59.6855 215.679 58.8717 215.679 58.8717C215.679 58.8717 222.763 50.3096 219.341 39.2019C212.689 17.6103 191.227 23.4258 191.227 23.4258C188.831 12.2455 180.109 3.48225 169.099 1.80819C168.933 1.78212 168.767 1.75791 168.599 1.73556C157.362 0.15088 146.406 6.31643 141.231 16.7165L140.504 18.1783C140.077 16.8022 139.353 15.3925 138.483 14.0313C133.988 6.99054 126.557 2.5158 118.444 1.34638C99.1649 -1.4338 90.2372 13.4354 90.2372 13.4354C82.2547 3.84724 64.1887 7.60504 64.1887 7.60504C24.4886 17.4409 34.8648 57.9593 34.8648 57.9593C34.8648 57.9593 16.2526 46.2743 4.31979 73.754C-7.61298 101.234 16.4595 119.885 16.4595 119.885C12.8373 121.386 9.53024 128.635 9.53024 128.635C1.11336 156.245 35.6776 163.683 35.6776 163.683C23.838 191.201 57.7628 189.998 57.7628 189.998C61.4707 204.758 73.0791 192.749 73.0791 192.749C72.6969 211.221 86.2888 202.525 86.2888 202.525C89.7693 213.404 98.9225 201.668 98.9225 201.668L100.835 201.283C101.195 205.888 104.976 209.605 109.778 209.776C114.017 209.929 117.656 207.26 118.933 203.495C121.427 207.538 126.149 210.363 131.673 210.562C139.898 210.856 146.784 205.231 147.241 197.939C148.766 200.039 151.2 201.467 154.023 201.57C157.854 201.708 161.163 199.382 162.462 196.048C169.128 209.735 180.342 198.557 180.342 198.557C190.96 205.793 195.086 193.944 195.086 193.944C195.086 193.944 204.727 201.398 214.824 187.553C220.484 179.792 214.608 167.109 214.608 167.109C214.608 167.109 226.447 175.868 234.789 165.479C244.012 153.99 232.331 143.923 232.331 143.923Z" fill="#1A0000" stroke="#1A0000" stroke-width="1.84423" stroke-miterlimit="10" stroke-linecap="round"/>
<path d="M14.9381 34.3827C17.5946 33.7645 20.9073 33.6565 21.1869 37.1647C21.2801 38.3342 21.0713 39.5576 20.6817 40.66C20.4021 41.4495 19.8689 42.4197 18.948 42.5687C17.8276 42.7512 17.3858 41.5836 17.727 40.7028C18.6758 38.2429 22.5459 37.9543 24.3001 39.619C25.9537 41.1888 25.4504 44.1664 23.3736 45.077C23.6477 45.4327 23.9217 45.7883 24.1976 46.1421C25.5324 44.6915 27.8365 45.2427 28.7817 46.8516C29.2608 47.6654 29.4174 48.6355 29.3559 49.5666C29.2962 50.4716 28.8096 51.3673 28.9662 52.2816C29.203 53.6633 30.9442 54.4305 31.8483 55.3393C33.2446 56.7396 34.268 58.4286 34.9242 60.287C35.2132 61.1045 36.5256 60.7525 36.2348 59.9257C35.5021 57.8457 34.3724 55.9463 32.8102 54.3784C31.8912 53.4566 30.2824 52.7211 30.4147 51.2816C30.5117 50.2221 30.8099 49.3469 30.6571 48.2482C30.4222 46.563 29.4658 44.9746 27.8552 44.2949C26.2743 43.6264 24.4157 43.902 23.2375 45.1813C22.6895 45.7772 23.3718 46.5481 24.0615 46.2464C26.4887 45.1831 27.3239 41.9337 26.0618 39.6786C24.632 37.1256 21.0564 36.6005 18.618 37.917C17.3858 38.5818 16.258 39.7922 16.2356 41.2633C16.2169 42.5426 17.0316 43.7586 18.3589 43.9262C21.763 44.3582 22.7752 39.4663 22.5329 36.9822C22.3744 35.3678 21.6381 33.8613 20.1392 33.1053C18.4223 32.2394 16.3624 32.6546 14.5839 33.0699C13.7264 33.2728 14.0862 34.5819 14.9381 34.3827Z" fill="#1A0000"/>
<path d="M241.838 44.6617C239.165 42.7605 235.591 41.416 233.401 44.7381C232.015 46.8386 230.983 51.2779 233.509 52.9427C234.616 53.6708 235.988 53.4697 236.823 52.4324C237.737 51.2965 237.58 49.7323 236.918 48.5145C235.587 46.0639 232.308 44.7213 229.704 45.8963C226.887 47.1644 226.08 51.1234 228.198 53.3542C228.645 53.8253 229.575 53.3412 229.333 52.695C227.983 49.0787 223.315 49.4772 221.423 52.3803C220.867 53.2313 220.562 54.1829 220.4 55.1791C220.129 56.8569 218.582 56.8308 217.253 57.3541C215.122 58.1939 213.265 59.5291 211.742 61.2292C211.161 61.8791 212.119 62.8418 212.702 62.1882C214.067 60.6668 215.709 59.4285 217.614 58.6613C218.878 58.1529 220.761 58.1399 221.442 56.7656C221.744 56.1549 221.693 55.3932 221.859 54.7452C222.094 53.8272 222.551 52.9371 223.252 52.2853C224.652 50.9874 227.275 51.0489 228.022 53.0525C228.401 52.8328 228.779 52.6131 229.158 52.3933C227.569 50.7211 228.425 47.7268 230.582 47.0024C232.774 46.2669 236.117 47.954 236.117 50.5014C236.117 51.857 234.564 52.5535 233.744 51.2909C233.399 50.7584 233.373 50.0619 233.38 49.4511C233.395 48.2724 233.723 46.9484 234.279 45.9075C235.908 42.848 238.926 44.252 241.15 45.833C241.866 46.3414 242.544 45.1645 241.838 44.6617Z" fill="#1A0000"/>
<path d="M178.437 147.247C178.437 147.247 205.831 72.1302 123.34 69.5325C52.961 67.3166 64.8117 142.683 64.8117 142.683L67.0115 142.503C67.0115 142.503 67.2314 79.4243 126.968 85.3794C182.665 90.9323 175.033 148.649 175.033 148.649L178.437 147.247Z" fill="#FFD44D" stroke="#FFD44D" stroke-width="0.427281" stroke-miterlimit="10"/>
<path d="M189.238 148.13C184.767 145.268 178.794 146.085 173.845 149.666C174.253 147.322 174.535 144.929 174.648 142.486C174.684 141.718 174.659 140.966 174.665 140.205C173.876 140.178 173.088 140.154 172.301 140.102C164.524 139.583 156.936 137.586 150.089 133.825C144.398 130.698 139.359 126.471 135.3 121.404C131.483 116.637 128.807 110.481 127.04 101.755C121.472 110.153 113.1 117.781 105.878 122.684C94.7522 130.236 81.7214 135.948 68.1985 137.067C68.1892 137.221 68.1724 137.374 68.1649 137.531C68.0885 139.173 68.096 140.799 68.1575 142.409C65.3183 140.452 62.0317 139.616 58.7992 140.322C51.4728 141.921 47.1982 150.819 49.2489 160.195C51.3013 169.569 58.9036 175.872 66.2299 174.272C70.0496 173.438 73.0286 170.61 74.7251 166.774C83.3675 182.926 99.6737 194.186 118.838 195.078C138.151 195.978 155.559 186.127 165.635 170.641C166.433 173.451 168.049 175.842 170.459 177.384C176.772 181.427 186.094 178.157 191.279 170.077C196.465 162.001 195.55 152.174 189.238 148.13Z" fill="#CD5428" stroke="#CD5428" stroke-width="1.73164" stroke-miterlimit="10"/>
<path d="M111.421 190.173L110.215 203.24L102.816 199.27C102.816 199.27 95.7282 217.42 112.625 222.82C129.522 228.221 136.167 207.305 136.167 207.305L125.615 204.013L126.4 191.158L111.421 190.173Z" fill="#CD5428" stroke="#CD5428" stroke-width="1.69852" stroke-miterlimit="10"/>
<path d="M69.9166 150.541C67.9182 148.119 65.5041 145.89 62.7301 144.964C59.9879 143.99 56.9455 145.428 55.3759 147.731C53.7969 150.1 53.7428 153.323 54.1343 156.34C54.5668 159.396 55.3926 162.448 56.4664 165.433C54.8185 162.714 53.5489 159.735 52.8573 156.564C52.1918 153.454 52.024 149.836 53.9609 146.795C54.9396 145.305 56.3937 144.221 58.0212 143.583C59.6784 142.946 61.606 143.005 63.1925 143.666C66.3989 145.011 68.4775 147.743 69.9166 150.541Z" fill="#8B2A0C"/>
<path d="M74.9678 169.025C73.9108 166.735 73.4951 164.211 73.2024 161.725C73.0812 160.474 73.0179 159.219 73.0048 157.966C72.9955 156.711 73.0589 155.457 73.1651 154.208C73.2714 156.712 73.3534 159.206 73.6275 161.683C73.7393 162.923 73.9108 164.155 74.1196 165.384C74.3452 166.606 74.5782 167.835 74.9678 169.025Z" fill="#8B2A0C"/>
<path d="M72.2503 179.595L68.4623 175.435L65.858 180.004L65.5896 173.474L61.6729 171.816L66.1153 170.883L67.5209 165.919L69.6517 170.585L74.3606 170.749L71.0852 173.31L72.2503 179.595Z" fill="white" stroke="white" stroke-width="0.439192" stroke-miterlimit="10" stroke-linecap="round"/>
<path d="M101.859 121.356C100.014 120.958 98.2465 120.879 96.5575 120.894C94.8649 120.952 93.2243 121.166 91.6174 121.587C90.0086 122.013 88.4371 122.624 86.845 123.335C86.0453 123.684 85.2773 124.125 84.4421 124.49C83.6125 124.877 82.8501 125.373 81.9347 125.734L81.9012 125.747C81.8583 125.764 81.8117 125.743 81.7949 125.7C81.7819 125.667 81.7912 125.631 81.8173 125.609L83.8847 123.782C84.6397 123.255 85.3481 122.66 86.1422 122.19C87.7044 121.209 89.4046 120.447 91.1868 119.933C94.7735 119.058 98.7182 119.362 101.954 121.211C101.994 121.233 102.007 121.283 101.984 121.322C101.966 121.354 101.93 121.369 101.897 121.362L101.859 121.356Z" fill="#2E2E2E"/>
<path d="M142.744 124.164C144.196 122.853 146.109 122.071 148.087 121.838C150.072 121.557 152.119 121.84 154.03 122.457C155.904 123.174 157.643 124.187 159.071 125.522C159.811 126.153 160.4 126.941 161.021 127.663C161.528 128.499 162.068 129.278 162.469 130.153L162.479 130.171C162.497 130.214 162.479 130.265 162.438 130.283C162.404 130.298 162.367 130.291 162.343 130.266L160.409 128.324C159.695 127.756 159.034 127.119 158.28 126.607C156.802 125.54 155.18 124.686 153.471 124.071C150.065 122.885 146.159 122.812 142.83 124.317C142.787 124.335 142.737 124.317 142.718 124.274C142.703 124.239 142.712 124.2 142.739 124.175L142.744 124.164Z" fill="#2E2E2E"/>
<path opacity="0.49" d="M106.763 169.332C105.298 177.393 97.5651 182.742 89.4949 181.276C81.4248 179.812 76.0708 172.088 77.5379 164.027C79.0032 155.966 86.7359 150.618 94.8061 152.083C102.876 153.549 108.228 161.271 106.763 169.332Z" fill="#8B2A0C" stroke="#8B2A0C" stroke-width="1.92407" stroke-miterlimit="10"/>
<path opacity="0.49" d="M161.313 173.537C159.848 181.598 152.115 186.946 144.045 185.483C135.975 184.019 130.621 176.295 132.088 168.234C133.553 160.172 141.286 154.824 149.356 156.288C157.424 157.753 162.778 165.476 161.313 173.537Z" fill="#8B2A0C" stroke="#8B2A0C" stroke-width="1.92407" stroke-miterlimit="10"/>
<path d="M112.41 157.441C112.856 155.528 113.861 153.705 115.367 152.292C116.851 150.873 118.995 149.957 121.127 150.039C122.177 150.065 123.258 150.266 124.257 150.711C125.23 151.206 126.105 151.905 126.714 152.774C127.959 154.504 128.358 156.601 128.172 158.547C127.68 156.664 126.921 154.876 125.713 153.59C124.516 152.288 122.868 151.681 121.099 151.688C119.347 151.597 117.654 152.236 116.187 153.279C114.72 154.344 113.478 155.806 112.41 157.441Z" fill="#8B2A0C"/>
<g opacity="0.53">
<path d="M128.233 159.154C128.233 159.154 128.255 152.236 122.396 151.292C115.573 150.193 112.523 157.452 112.523 157.452" fill="#8B2A0C"/>
<path d="M128.233 159.154C127.814 157.254 127.124 155.439 125.966 154.105C124.818 152.759 123.194 152.09 121.427 152.033C119.678 151.876 117.965 152.452 116.459 153.437C114.952 154.446 113.655 155.859 112.523 157.452C113.038 155.558 114.112 153.772 115.67 152.416C117.208 151.053 119.386 150.221 121.513 150.385C122.56 150.454 123.634 150.69 124.615 151.178C125.569 151.709 126.414 152.441 126.992 153.333C128.17 155.107 128.49 157.217 128.233 159.154Z" fill="#8B2A0C"/>
</g>
<path d="M106.245 152.945C106.101 150.94 105.984 149.042 105.538 147.184C105.184 145.337 104.655 143.545 103.801 141.994C102.129 138.856 99.2746 136.964 95.8109 136.609C92.4404 136.071 89.2713 137.443 86.9205 140.136C84.4598 142.735 82.8491 146.314 81.546 149.893L81.3466 150.439L80.9234 150.245C79.7471 149.703 78.5931 149.102 77.4336 148.517L77.5044 148.333L81.1284 149.713L80.983 149.795C81.7791 145.973 83.1921 142.206 85.638 139.1C86.8534 137.557 88.4137 136.247 90.2295 135.434C92.0508 134.631 94.0996 134.393 96.0589 134.668C98.0163 134.914 99.9476 135.598 101.555 136.767C103.18 137.922 104.375 139.588 105.175 141.381C106.728 145.022 106.879 149.102 106.437 152.93L106.245 152.945Z" fill="black"/>
<path d="M81.781 147.398L77.4971 144.329L82.6721 145.335L81.781 147.398Z" fill="black"/>
<path d="M83.4587 143.703L79.2959 139.99L84.6704 141.489L83.4587 143.703Z" fill="black"/>
<path d="M132.714 153.377C132.596 151.422 132.872 149.407 133.288 147.422C133.797 145.458 134.591 143.523 135.78 141.732C136.959 139.938 138.716 138.395 140.812 137.491C142.909 136.575 145.226 136.38 147.389 136.613C149.587 136.838 151.812 137.698 153.611 139.112C155.388 140.553 156.658 142.46 157.461 144.424C158.945 148.43 159.2 152.543 158.525 156.515L158.009 156.024C159.303 155.951 160.604 155.94 161.903 155.912L161.928 156.107L158.078 156.59L157.953 156.605L157.957 156.474C158.08 152.616 157.588 148.638 155.968 145.117C155.164 143.363 153.984 141.773 152.465 140.599C150.938 139.43 149.076 138.758 147.163 138.553C145.258 138.309 143.282 138.486 141.496 139.19C139.697 139.877 138.167 141.151 136.968 142.655C134.598 145.743 133.443 149.573 132.902 153.435L132.714 153.377Z" fill="black"/>
<path d="M158.134 151.75L163.4 152.026L158.499 153.968L158.134 151.75Z" fill="black"/>
<path d="M157.372 147.536L162.95 147.38L158.011 149.975L157.372 147.536Z" fill="black"/>
<path opacity="0.49" d="M127.333 165.498C127.344 168.129 124.19 173.215 119.123 173.237C114.058 173.259 111.226 167.649 111.504 165.025C111.504 165.025 114.185 164.353 119.25 164.331C124.315 164.308 127.333 165.498 127.333 165.498Z" fill="#8B2A0C"/>
<path d="M110.711 158.331C110.76 159.655 110.892 160.96 111.254 162.182C111.556 163.407 112.055 164.56 112.794 165.472C114.207 167.34 116.537 168.206 118.983 168.165C121.417 168.33 123.776 167.614 125.619 166.031C126.553 165.256 127.353 164.278 128.011 163.191C128.723 162.126 129.256 160.928 129.715 159.685L129.721 159.67C129.732 159.638 129.767 159.623 129.797 159.634C129.825 159.645 129.84 159.673 129.836 159.701C129.344 162.305 128.181 164.828 126.274 166.709C124.367 168.621 121.604 169.472 118.947 169.375C116.317 169.353 113.483 168.303 112.011 166.001C110.523 163.744 110.256 160.921 110.592 158.31C110.596 158.277 110.626 158.254 110.659 158.258C110.689 158.262 110.709 158.286 110.711 158.316V158.331Z" fill="#3B130E"/>
<path d="M127.087 98.9991C126.414 101.431 125.064 103.623 123.944 105.865C122.99 107.774 122.415 109.859 123.273 111.93C124.054 113.816 126.181 115.354 128.278 114.615C129.9 114.043 130.713 111.855 129.667 110.422C128.399 108.68 125.53 109.611 124.11 110.623C122.22 111.969 121.247 114.285 121.604 116.581C121.914 118.567 123.398 120.782 125.663 120.499C127.365 120.287 128.875 118.008 127.18 116.721C125.251 115.256 122.661 117.278 121.944 119.082C120.877 121.76 122.537 124.481 124.548 126.179C125.174 126.71 126.088 125.807 125.456 125.272C123.996 124.039 122.54 122.181 122.956 120.134C123.141 119.226 123.728 118.339 124.546 117.879C124.906 117.676 125.672 117.39 126.101 117.606C127.123 118.121 126.36 119.008 125.648 119.207C123.042 119.941 122.551 115.598 123.059 114.062C123.65 112.272 125.907 110.245 127.943 110.839C129.097 111.176 129.115 112.675 128.099 113.297C127.231 113.827 125.985 113.354 125.309 112.718C123.879 111.375 123.89 109.144 124.602 107.455C125.76 104.708 127.521 102.241 128.325 99.3418C128.547 98.5429 127.309 98.204 127.087 98.9991Z" fill="#1A0000"/>
<path d="M173.1 155.925C175.009 153.422 177.535 151.094 180.924 150.329C182.601 149.955 184.51 150.234 186.03 151.15C187.519 152.065 188.763 153.387 189.464 155.024C190.839 158.355 190.04 161.889 188.839 164.835C187.601 167.835 185.83 170.548 183.731 172.937C185.31 170.185 186.66 167.327 187.62 164.394C188.533 161.491 189.046 158.308 187.907 155.701C186.764 153.16 184.022 151.214 181.151 151.692C178.26 152.117 175.493 153.888 173.1 155.925Z" fill="#8B2A0C"/>
<path d="M164.891 173.241C165.483 172.137 165.927 170.969 166.361 169.803C166.783 168.632 167.169 167.448 167.495 166.245C168.2 163.854 168.716 161.414 169.26 158.968C169.147 160.215 168.99 161.461 168.761 162.696C168.528 163.928 168.246 165.154 167.907 166.364C167.184 168.759 166.332 171.17 164.891 173.241Z" fill="#8B2A0C"/>
<path d="M177.423 183.585L173.635 179.423L171.029 183.995L170.762 177.462L166.844 175.807L171.288 174.874L172.694 169.908L174.824 174.576L179.533 174.74L176.258 177.299L177.423 183.585Z" fill="white" stroke="white" stroke-width="0.439192" stroke-miterlimit="10" stroke-linecap="round"/>
<path d="M68.6895 296.105C68.6895 296.105 73.1002 354.307 83.2787 369.315L79.5596 379.367L102.415 379.131L99.6576 367.334L103.3 298.649L68.6895 296.105Z" fill="#B44A24" stroke="#B44A24" stroke-width="1.70894" stroke-miterlimit="10"/>
<path d="M100.832 345.214C92.3717 345.43 83.9176 345.888 75.4541 346.013C77.5383 355.91 80.1314 364.677 83.2782 369.315L79.5591 379.367L102.414 379.131L99.657 367.334L100.832 345.214Z" fill="white" stroke="white" stroke-width="1.70894" stroke-miterlimit="10"/>
<path d="M99.9093 362.621C96.8669 362.351 93.7295 362.841 90.7542 363.312C87.462 363.831 84.1624 364.44 80.831 364.638C81.6084 366.457 82.4212 368.051 83.2806 369.317L79.5615 379.369L102.417 379.133L99.6595 367.336L99.9093 362.621Z" fill="black" stroke="black" stroke-width="1.70894" stroke-miterlimit="10"/>
<path opacity="0.49" d="M94.4642 334.032C94.3542 336.732 90.5457 338.771 85.9597 338.583C81.3738 338.395 77.7442 336.054 77.856 333.352C77.966 330.652 81.7746 328.613 86.3605 328.801C90.9465 328.989 94.5742 331.331 94.4642 334.032Z" fill="#8B2A0C" stroke="#8B2A0C" stroke-width="0.826834" stroke-miterlimit="10"/>
<path d="M185.761 259.075C187.591 259.762 189.361 260.667 191.059 261.626C194.435 263.535 197.703 265.888 200.119 268.957C200.507 269.449 201.014 269.963 201.098 270.613C201.172 271.197 200.922 271.527 200.27 271.557C200.27 271.557 200.605 273.758 199.153 273.387C199.153 273.387 199.377 275.108 197.563 274.385C196.146 273.819 191.484 271.039 189.517 269.853C189.223 269.676 188.872 269.966 188.988 270.29C189.523 271.775 190.516 274.534 190.196 274.808C188.896 275.91 181.132 269.637 179.816 267.832C179.816 267.832 143.941 241.07 140.086 225.86L143.251 207.916L185.761 259.075Z" fill="#CD5428" stroke="#CD5428" stroke-width="0.34819" stroke-miterlimit="10"/>
<path d="M195.251 267.505C196.222 268.108 197.074 268.857 197.989 269.529C198.827 270.296 199.727 270.985 200.508 271.821C199.537 271.218 198.685 270.469 197.77 269.797C196.932 269.03 196.032 268.341 195.251 267.505Z" fill="#280707"/>
<path d="M193.714 269.339C194.788 269.974 195.75 270.758 196.771 271.464C197.716 272.266 198.723 272.991 199.616 273.864C198.54 273.229 197.58 272.445 196.559 271.739C195.613 270.937 194.607 270.212 193.714 269.339Z" fill="#280707"/>
<path d="M159.018 226.897C151.656 218.037 143.245 207.914 143.245 207.914L140.079 225.858C141.173 230.174 144.848 235.42 149.546 240.72C153.699 236.938 156.656 231.953 159.018 226.897Z" fill="white" stroke="white" stroke-width="0.34819" stroke-miterlimit="10"/>
<path d="M93.7638 222.641L32.531 143.936C32.0979 143.386 32.8636 142.738 33.4198 143.182L40.6049 149.026L34.0446 138.216C33.8128 137.815 34.3985 137.464 34.7059 137.82L43.8851 147.868L38.0881 135.906C37.8774 135.319 38.7375 134.954 39.0985 135.478L46.752 146.366C46.752 146.366 42.6455 134.816 43.0663 134.996C43.487 135.177 49.2796 145.855 49.2796 145.855L50.3281 140.348C50.343 139.949 50.893 139.8 51.153 140.125L55.7653 150.791L104.76 202.452L93.7638 222.641Z" fill="#B44A24" stroke="#B44A24" stroke-width="1.36298" stroke-miterlimit="10"/>
<path d="M78.6545 176.14C73.1735 179.574 68.3698 184.135 65.9882 190.01L86.9563 216.081L97.5923 195.469L78.6545 176.14Z" fill="white" stroke="white" stroke-width="1.36298" stroke-miterlimit="10"/>
<path d="M27.3516 148.899C28.5092 147.558 29.8738 146.454 31.1303 145.225C32.521 144.151 33.8036 142.951 35.2893 141.987L35.3117 142.013L27.3739 148.925L27.3516 148.899Z" fill="#8B2A0C"/>
<path d="M39.0619 144.424C38.6537 144.761 38.292 145.139 37.9658 145.534C37.6526 145.94 37.414 146.402 37.3245 146.886C37.194 147.359 37.2089 147.88 37.3953 148.353C37.5613 148.834 37.8502 149.268 38.1392 149.713C37.7514 149.357 37.3767 148.949 37.1828 148.434C36.9479 147.942 36.879 147.357 36.9908 146.81C37.3096 145.737 38.1075 144.881 39.0619 144.424Z" fill="#8B2A0C"/>
<path d="M53.4521 173.131C54.2332 172.01 55.2362 171.111 56.1198 170.094C57.1507 169.224 58.0623 168.236 59.1958 167.468L59.22 167.493L53.4764 173.155L53.4521 173.131Z" fill="#8B2A0C"/>
<mask id="mask0_1437_18571" style="mask-type:luminance" maskUnits="userSpaceOnUse" x="51" y="194" width="102" height="116">
<path d="M106.908 200.19C106.908 200.19 104.851 213.597 116.71 215.666C128.963 217.806 132.272 204.977 132.272 204.977L142.838 207.916C142.838 207.916 145.704 294.63 152.336 304.941C152.336 304.941 102.063 320.393 51.5986 294.264L98.0285 194.473L106.908 200.19Z" fill="white"/>
</mask>
<g mask="url(#mask0_1437_18571)">
<path d="M106.908 200.19C106.908 200.19 104.851 213.597 116.71 215.666C128.963 217.806 132.272 204.977 132.272 204.977L142.838 207.916C142.838 207.916 145.704 294.63 152.336 304.941C152.336 304.941 102.063 320.393 51.5986 294.264L98.0285 194.473L106.908 200.19Z" fill="#7A5FFF" stroke="#7A5FFF" stroke-width="1.70894" stroke-miterlimit="10"/>
</g>
<mask id="mask1_1437_18571" style="mask-type:luminance" maskUnits="userSpaceOnUse" x="51" y="194" width="102" height="116">
<path d="M106.908 200.19C106.908 200.19 104.851 213.597 116.71 215.666C128.963 217.806 132.272 204.977 132.272 204.977L142.838 207.916C142.838 207.916 145.704 294.63 152.336 304.941C152.336 304.941 102.063 320.393 51.5986 294.264L98.0285 194.473L106.908 200.19Z" fill="white"/>
</mask>
<g mask="url(#mask1_1437_18571)">
<path d="M92.0739 242.96L94.0761 226.588C94.0929 226.444 94.0071 226.29 93.8841 226.245L82.2291 221.93C81.9923 221.843 81.9625 221.448 82.1881 221.398L95.8266 218.353C95.8899 218.34 95.9403 218.29 95.9645 218.221L100.038 206.489C100.118 206.259 100.416 206.335 100.474 206.599L103.134 218.94C103.164 219.074 103.267 219.178 103.378 219.186L115.55 220.007C115.779 220.022 115.897 220.39 115.714 220.523L105.998 227.582C105.912 227.645 105.884 227.779 105.932 227.904L110.856 240.801C110.955 241.06 110.731 241.267 110.535 241.096L100.418 232.269C100.317 232.18 100.187 232.189 100.118 232.288L92.484 243.237C92.3442 243.438 92.0404 243.235 92.0739 242.96Z" fill="#FFD44D"/>
</g>
<mask id="mask2_1437_18571" style="mask-type:luminance" maskUnits="userSpaceOnUse" x="51" y="194" width="102" height="116">
<path d="M106.908 200.19C106.908 200.19 104.851 213.597 116.71 215.666C128.963 217.806 132.272 204.977 132.272 204.977L142.838 207.916C142.838 207.916 145.704 294.63 152.336 304.941C152.336 304.941 102.063 320.393 51.5986 294.264L98.0285 194.473L106.908 200.19Z" fill="white"/>
</mask>
<g mask="url(#mask2_1437_18571)">
<path d="M117.485 289.189L125.973 275.08C126.048 274.955 126.033 274.78 125.938 274.687L117.09 265.894C116.911 265.715 117.043 265.343 117.271 265.391L130.921 268.294C130.984 268.307 131.049 268.285 131.101 268.231L139.582 259.22C139.748 259.043 139.988 259.237 139.932 259.501L137.33 271.871C137.302 272.005 137.354 272.145 137.453 272.199L148.192 278.02C148.396 278.13 148.351 278.514 148.131 278.56L136.418 280.955C136.314 280.975 136.234 281.087 136.226 281.221L135.456 295.044C135.441 295.321 135.154 295.416 135.044 295.178L129.433 282.908C129.377 282.785 129.256 282.739 129.153 282.8L117.752 289.616C117.539 289.74 117.344 289.426 117.485 289.189Z" fill="#FFD44D"/>
</g>
<mask id="mask3_1437_18571" style="mask-type:luminance" maskUnits="userSpaceOnUse" x="51" y="194" width="102" height="116">
<path d="M106.908 200.19C106.908 200.19 104.851 213.597 116.71 215.666C128.963 217.806 132.272 204.977 132.272 204.977L142.838 207.916C142.838 207.916 145.704 294.63 152.336 304.941C152.336 304.941 102.063 320.393 51.5986 294.264L98.0285 194.473L106.908 200.19Z" fill="white"/>
</mask>
<g mask="url(#mask3_1437_18571)">
<path d="M63.859 296.517L63.2289 280.041C63.2233 279.895 63.1133 279.759 62.9846 279.733L50.789 277.378C50.5411 277.329 50.4497 276.946 50.6641 276.858L63.6483 271.631C63.7098 271.607 63.7508 271.551 63.7639 271.478L65.917 259.244C65.9599 259.004 66.2656 259.03 66.3645 259.281L70.9578 271.018C71.0082 271.147 71.1275 271.233 71.2393 271.221L83.3883 270.048C83.6176 270.026 83.791 270.37 83.6326 270.531L75.1616 279.076C75.087 279.152 75.0815 279.288 75.1486 279.404L82.0648 291.321C82.2046 291.562 82.0163 291.8 81.7945 291.664L70.3986 284.607C70.2849 284.536 70.1581 284.566 70.1059 284.674L64.312 296.718C64.2038 296.943 63.8701 296.792 63.859 296.517Z" fill="#FFD44D"/>
</g>
<mask id="mask4_1437_18571" style="mask-type:luminance" maskUnits="userSpaceOnUse" x="51" y="194" width="102" height="116">
<path d="M106.908 200.19C106.908 200.19 104.851 213.597 116.71 215.666C128.963 217.806 132.272 204.977 132.272 204.977L142.838 207.916C142.838 207.916 145.704 294.63 152.336 304.941C152.336 304.941 102.063 320.393 51.5986 294.264L98.0285 194.473L106.908 200.19Z" fill="white"/>
</mask>
<g mask="url(#mask4_1437_18571)">
<path d="M127.364 228.729L130.448 223.604C130.476 223.56 130.468 223.496 130.435 223.461L127.221 220.267C127.156 220.202 127.204 220.068 127.286 220.085L132.245 221.139C132.267 221.145 132.291 221.135 132.31 221.117L135.392 217.843C135.453 217.778 135.539 217.849 135.518 217.945L134.573 222.439C134.562 222.487 134.583 222.537 134.618 222.558L138.52 224.671C138.592 224.711 138.577 224.85 138.497 224.867L134.241 225.737C134.204 225.744 134.174 225.785 134.172 225.833L133.893 230.854C133.887 230.954 133.783 230.99 133.744 230.902L131.706 226.444C131.686 226.4 131.641 226.383 131.605 226.405L127.463 228.88C127.383 228.928 127.312 228.815 127.364 228.729Z" fill="#FFD44D"/>
</g>
<mask id="mask5_1437_18571" style="mask-type:luminance" maskUnits="userSpaceOnUse" x="51" y="194" width="102" height="116">
<path d="M106.908 200.19C106.908 200.19 104.851 213.597 116.71 215.666C128.963 217.806 132.272 204.977 132.272 204.977L142.838 207.916C142.838 207.916 145.704 294.63 152.336 304.941C152.336 304.941 102.063 320.393 51.5986 294.264L98.0285 194.473L106.908 200.19Z" fill="white"/>
</mask>
<g mask="url(#mask5_1437_18571)">
<path d="M97.9968 267.572L99.4882 261.769C99.5012 261.719 99.477 261.659 99.436 261.637L95.4428 259.522C95.3627 259.479 95.3701 259.335 95.454 259.328L100.506 258.888C100.53 258.887 100.551 258.872 100.562 258.847L102.581 254.818C102.62 254.74 102.724 254.78 102.732 254.879L103.108 259.453C103.112 259.503 103.146 259.546 103.185 259.553L107.527 260.436C107.609 260.453 107.633 260.59 107.562 260.629L103.733 262.704C103.699 262.723 103.683 262.769 103.694 262.818L104.859 267.702C104.883 267.801 104.792 267.864 104.73 267.793L101.505 264.125C101.474 264.087 101.425 264.084 101.397 264.117L98.1348 267.694C98.0714 267.756 97.9726 267.668 97.9968 267.572Z" fill="#FFD44D"/>
</g>
<mask id="mask6_1437_18571" style="mask-type:luminance" maskUnits="userSpaceOnUse" x="51" y="194" width="102" height="116">
<path d="M106.908 200.19C106.908 200.19 104.851 213.597 116.71 215.666C128.963 217.806 132.272 204.977 132.272 204.977L142.838 207.916C142.838 207.916 145.704 294.63 152.336 304.941C152.336 304.941 102.063 320.393 51.5986 294.264L98.0285 194.473L106.908 200.19Z" fill="white"/>
</mask>
<g mask="url(#mask6_1437_18571)">
<path d="M95.4043 312.572L98.4877 307.448C98.5157 307.403 98.5101 307.34 98.4747 307.304L95.2608 304.111C95.1956 304.045 95.244 303.91 95.326 303.928L100.285 304.982C100.309 304.988 100.331 304.978 100.35 304.96L103.432 301.686C103.493 301.621 103.579 301.692 103.56 301.789L102.615 306.282C102.604 306.33 102.624 306.381 102.66 306.401L106.562 308.515C106.634 308.554 106.619 308.693 106.539 308.71L102.283 309.58C102.246 309.587 102.216 309.628 102.214 309.677L101.935 314.697C101.929 314.797 101.825 314.833 101.786 314.745L99.7479 310.287C99.7274 310.243 99.6827 310.226 99.6454 310.248L95.5031 312.723C95.423 312.773 95.3521 312.66 95.4043 312.572Z" fill="#FFD44D"/>
</g>
</svg>
