<svg width="219" height="201" viewBox="0 0 219 201" fill="none" xmlns="http://www.w3.org/2000/svg">
<path d="M202.918 140.343C202.918 140.343 215.535 136.037 217.637 121.629C219.739 107.222 203.194 104.946 203.194 104.946C212.382 99.0527 211.475 87.1663 211.475 87.1663C214.038 65.8563 197.372 63.175 197.372 63.175C197.372 63.175 204.649 56.3219 202.809 46.1144C199.234 26.2702 179.397 29.1823 179.397 29.1823C178.483 19.0153 171.644 10.3336 161.98 7.698C161.833 7.65748 161.687 7.61871 161.541 7.58171C151.663 5.00077 141.186 9.32228 135.414 18.0041L134.603 19.225C134.374 17.9601 133.881 16.6353 133.252 15.3369C130.007 8.62291 123.851 3.87853 116.722 1.99172C99.7816 -2.49014 90.162 9.76275 90.162 9.76275C84.0763 0.423791 67.5043 1.86661 67.5043 1.86661C30.9147 6.43831 35.7399 43.4576 35.7399 43.4576C35.7399 43.4576 20.376 31.1484 6.68242 54.2712C-7.01294 77.3922 12.4683 96.4507 12.4683 96.4507C9.06251 97.402 5.30818 103.485 5.30818 103.485C-5.25588 127.091 24.8436 137.302 24.8436 137.302C11.2277 160.469 41.7046 162.949 41.7046 162.949C43.3984 176.426 55.1019 166.989 55.1019 166.989C52.7291 183.331 65.8412 177.041 65.8412 177.041C67.759 187.053 77.2359 177.603 77.2359 177.603L78.9893 177.461C78.8052 181.581 81.7775 185.274 86.0537 185.929C89.8279 186.507 93.3763 184.522 94.9348 181.317C96.7207 185.163 100.634 188.163 105.553 188.917C112.877 190.039 119.656 185.769 120.866 179.351C121.999 181.373 124.019 182.895 126.533 183.279C129.944 183.803 133.16 182.085 134.69 179.265C139.147 192.101 150.406 183.359 150.406 183.359C159.108 190.887 164.1 180.811 164.1 180.811C164.1 180.811 171.904 188.431 182.458 177.209C188.373 170.917 184.513 159.054 184.513 159.054C184.513 159.054 194.139 168.06 202.744 159.72C212.259 150.494 202.918 140.343 202.918 140.343Z" fill="#1A0000" stroke="#1A0000" stroke-width="1.70036" stroke-miterlimit="10" stroke-linecap="round"/>
<path d="M20.5425 19.5737C22.8811 19.4169 25.8282 19.5737 25.8932 22.5175C25.9185 23.6838 25.4815 25.021 24.8747 26.0163C24.5424 26.5607 24.1578 27.1209 23.495 27.3288C22.2653 27.7146 21.6531 26.4268 22.2382 25.5072C23.4788 23.5605 26.9207 23.8564 28.2714 25.4614C29.6078 27.0469 28.8096 29.7195 26.7582 30.2515C26.9604 30.5915 27.1645 30.9316 27.3667 31.2716C28.9775 30.0542 31.0705 31.3932 31.4948 33.0739C31.7242 33.9794 31.5869 34.9483 31.2565 35.8134C31.0253 36.4194 30.6407 36.9673 30.7238 37.6456C30.8791 38.9158 32.4104 39.883 33.0966 40.8854C34.0609 42.2948 34.664 43.8592 34.9746 45.5205C35.1191 46.2922 36.3236 45.9645 36.1809 45.1963C35.8144 43.2302 35.0306 41.3716 33.8117 39.7614C32.9612 38.6374 31.8957 38.1371 32.3093 36.4969C32.5404 35.5843 32.8817 34.8356 32.8492 33.8649C32.7444 30.729 29.3044 28.2767 26.4819 30.4084C25.9636 30.7995 26.5342 31.5728 27.0904 31.4284C29.4886 30.8047 30.7617 28.097 29.922 25.8543C29.0155 23.4284 25.9203 22.4489 23.5366 23.2029C22.3339 23.5834 21.124 24.4431 20.8044 25.6975C20.5299 26.7739 20.9867 28.0089 22.0739 28.4511C25.0751 29.6737 26.8358 25.4685 27.0922 23.2945C27.2746 21.7494 26.8737 20.1745 25.5446 19.2161C24.1235 18.1907 22.2219 18.2453 20.5443 18.3563C19.7443 18.4074 19.7371 19.6266 20.5425 19.5737Z" fill="#1A0000"/>
<path d="M217.909 49.2495C215.389 47.6533 212.025 46.5628 210.142 49.6088C208.928 51.5731 208.119 55.7714 210.687 57.0786C211.738 57.6142 212.939 57.3006 213.614 56.3651C214.412 55.2587 214.14 53.8176 213.421 52.7447C211.991 50.6112 208.813 49.5947 206.49 50.9636C204.193 52.3184 203.733 55.7326 205.67 57.5507C206.218 58.0634 206.917 57.4186 206.653 56.8108C205.206 53.4758 200.686 54.5135 199.256 57.2495C198.85 58.0246 198.74 58.8086 198.577 59.6472C198.303 61.0618 196.874 61.113 195.744 61.6045C193.844 62.4308 192.204 63.6957 190.89 65.2618C190.384 65.8644 191.264 66.7329 191.775 66.1251C192.898 64.7862 194.241 63.6869 195.831 62.9099C196.995 62.3409 198.998 62.2246 199.599 60.9209C199.861 60.3554 199.783 59.6895 199.91 59.0922C200.085 58.2589 200.464 57.4344 201.082 56.8231C202.415 55.5036 204.784 55.604 205.575 57.4274C205.902 57.1808 206.228 56.9341 206.557 56.6892C205.187 55.4032 205.519 53.0002 207.124 52.0171C209.096 50.8103 212.356 52.114 212.796 54.3796C212.943 55.1372 212.668 56.3369 211.507 56.0955C210.523 55.8912 210.328 54.6773 210.306 53.8916C210.279 52.8962 210.487 51.8374 210.875 50.9178C211.334 49.8308 212.141 48.8953 213.427 48.8019C214.83 48.7015 216.161 49.5912 217.282 50.3012C217.954 50.731 218.582 49.6758 217.909 49.2495Z" fill="#1A0000"/>
<path d="M46.4617 155.907L43.6319 151.671L40.5927 155.353L41.3097 149.52L37.9941 147.489L42.1692 147.297L44.1773 143.092L45.4251 147.538L49.6814 148.359L46.328 150.162L46.4617 155.907Z" fill="white" stroke="white" stroke-width="0.405046" stroke-miterlimit="10" stroke-linecap="round"/>
<path d="M43.4473 109.214C43.4473 109.214 43.4274 47.858 104.022 53.0657C161.458 58.002 150.664 133.552 135.497 141.159L134.484 143.094C134.484 143.094 143.8 98.5977 123.577 76.3664C110.398 61.8796 88.2335 59.9611 72.0912 71.2379C63.6815 77.1133 51.3333 92.9707 43.4473 109.214Z" fill="#FFD44D" stroke="#FFD44D" stroke-width="1.55066" stroke-miterlimit="10"/>
<path d="M85.9217 171.495L86.7596 182.436H80.3164C79.5381 182.436 79.0361 183.237 79.3919 183.914L88.0345 200.328H99.1367L108.505 181.141C108.942 180.244 108.242 179.217 107.227 179.264L101.49 179.534V170.408L85.9217 171.495Z" fill="#B44A24" stroke="#B44A24" stroke-width="0.829234" stroke-miterlimit="10"/>
<mask id="mask0_1967_6733" style="mask-type:luminance" maskUnits="userSpaceOnUse" x="39" y="76" width="120" height="101">
<path d="M155.876 134.245C152.99 131.25 148.878 131.395 145.211 132.795C143.342 133.509 141.592 134.495 139.913 135.559C138.905 136.197 136.899 138.521 135.669 138.269C134.82 138.096 134.688 136.729 134.428 136.077C132.148 130.357 127.236 125.049 123.299 120.347C118.882 115.074 114.167 110.049 109.47 105.018C101.456 96.433 94.0844 86.9971 89.1653 76.3633C87.6304 77.7075 84.5479 80.417 83.9122 81.0618C77.7796 87.2878 71.0981 93.0927 63.8947 98.1189C60.5539 100.45 57.0759 102.62 53.3704 104.357C50.0729 105.904 46.4847 107.187 42.7828 107.222C42.7593 107.222 42.7431 107.211 42.7196 107.209C41.8781 109.824 41.219 112.521 40.7675 115.292C35.3952 148.24 52.7239 170.938 83.9321 175.72C102.353 178.542 120.092 171.19 131.604 157.817C136.091 162.257 144.907 160.858 151.551 154.554C158.334 148.122 160.801 139.359 155.876 134.245Z" fill="white"/>
</mask>
<g mask="url(#mask0_1967_6733)">
<path d="M155.876 134.245C152.99 131.25 148.878 131.395 145.211 132.795C143.342 133.509 141.592 134.495 139.913 135.559C138.905 136.197 136.899 138.521 135.669 138.269C134.82 138.096 134.688 136.729 134.428 136.077C132.148 130.357 127.236 125.049 123.299 120.347C118.882 115.074 114.167 110.049 109.47 105.018C101.456 96.433 94.0844 86.9971 89.1653 76.3633C87.6304 77.7075 84.5479 80.417 83.9122 81.0618C77.7796 87.2878 71.0981 93.0927 63.8947 98.1189C60.5539 100.45 57.0759 102.62 53.3704 104.357C50.0729 105.904 46.4847 107.187 42.7828 107.222C42.7593 107.222 42.7431 107.211 42.7196 107.209C41.8781 109.824 41.219 112.521 40.7675 115.292C35.3952 148.24 52.7239 170.938 83.9321 175.72C102.353 178.542 120.092 171.19 131.604 157.817C136.091 162.257 144.907 160.858 151.551 154.554C158.334 148.122 160.801 139.359 155.876 134.245Z" fill="#CD5428" stroke="#CD5428" stroke-width="1.59671" stroke-miterlimit="10"/>
</g>
<mask id="mask1_1967_6733" style="mask-type:luminance" maskUnits="userSpaceOnUse" x="39" y="76" width="120" height="101">
<path d="M155.876 134.245C152.99 131.25 148.878 131.395 145.211 132.795C143.342 133.509 141.592 134.495 139.913 135.559C138.905 136.197 136.899 138.521 135.669 138.269C134.82 138.096 134.688 136.729 134.428 136.077C132.148 130.357 127.236 125.049 123.299 120.347C118.882 115.074 114.167 110.049 109.47 105.018C101.456 96.433 94.0844 86.9971 89.1653 76.3633C87.6304 77.7075 84.5479 80.417 83.9122 81.0618C77.7796 87.2878 71.0981 93.0927 63.8947 98.1189C60.5539 100.45 57.0759 102.62 53.3704 104.357C50.0729 105.904 46.4847 107.187 42.7828 107.222C42.7593 107.222 42.7431 107.211 42.7196 107.209C41.8781 109.824 41.219 112.521 40.7675 115.292C35.3952 148.24 52.7239 170.938 83.9321 175.72C102.353 178.542 120.092 171.19 131.604 157.817C136.091 162.257 144.907 160.858 151.551 154.554C158.334 148.122 160.801 139.359 155.876 134.245Z" fill="white"/>
</mask>
<g mask="url(#mask1_1967_6733)">
<path opacity="0.49" d="M117.443 158.824C114.715 166.348 106.251 170.289 98.5381 167.627C90.8255 164.965 86.7858 156.708 89.5144 149.184C92.243 141.659 100.707 137.718 108.42 140.38C116.132 143.042 120.172 151.3 117.443 158.824Z" fill="#8B2A0C" stroke="#8B2A0C" stroke-width="1.9223" stroke-miterlimit="10"/>
</g>
<mask id="mask2_1967_6733" style="mask-type:luminance" maskUnits="userSpaceOnUse" x="39" y="76" width="120" height="101">
<path d="M155.876 134.245C152.99 131.25 148.878 131.395 145.211 132.795C143.342 133.509 141.592 134.495 139.913 135.559C138.905 136.197 136.899 138.521 135.669 138.269C134.82 138.096 134.688 136.729 134.428 136.077C132.148 130.357 127.236 125.049 123.299 120.347C118.882 115.074 114.167 110.049 109.47 105.018C101.456 96.433 94.0844 86.9971 89.1653 76.3633C87.6304 77.7075 84.5479 80.417 83.9122 81.0618C77.7796 87.2878 71.0981 93.0927 63.8947 98.1189C60.5539 100.45 57.0759 102.62 53.3704 104.357C50.0729 105.904 46.4847 107.187 42.7828 107.222C42.7593 107.222 42.7431 107.211 42.7196 107.209C41.8781 109.824 41.219 112.521 40.7675 115.292C35.3952 148.24 52.7239 170.938 83.9321 175.72C102.353 178.542 120.092 171.19 131.604 157.817C136.091 162.257 144.907 160.858 151.551 154.554C158.334 148.122 160.801 139.359 155.876 134.245Z" fill="white"/>
</mask>
<g mask="url(#mask2_1967_6733)">
<path opacity="0.49" d="M58.6344 147.033C56.193 153.767 48.6175 157.295 41.7139 154.912C34.812 152.53 31.195 145.139 33.6382 138.404C36.0797 131.671 43.6551 128.142 50.5588 130.526C57.4606 132.908 61.0759 140.298 58.6344 147.033Z" fill="#8B2A0C" stroke="#8B2A0C" stroke-width="1.72041" stroke-miterlimit="10"/>
</g>
<mask id="mask3_1967_6733" style="mask-type:luminance" maskUnits="userSpaceOnUse" x="39" y="76" width="120" height="101">
<path d="M155.876 134.245C152.99 131.25 148.878 131.395 145.211 132.795C143.342 133.509 141.592 134.495 139.913 135.559C138.905 136.197 136.899 138.521 135.669 138.269C134.82 138.096 134.688 136.729 134.428 136.077C132.148 130.357 127.236 125.049 123.299 120.347C118.882 115.074 114.167 110.049 109.47 105.018C101.456 96.433 94.0844 86.9971 89.1653 76.3633C87.6304 77.7075 84.5479 80.417 83.9122 81.0618C77.7796 87.2878 71.0981 93.0927 63.8947 98.1189C60.5539 100.45 57.0759 102.62 53.3704 104.357C50.0729 105.904 46.4847 107.187 42.7828 107.222C42.7593 107.222 42.7431 107.211 42.7196 107.209C41.8781 109.824 41.219 112.521 40.7675 115.292C35.3952 148.24 52.7239 170.938 83.9321 175.72C102.353 178.542 120.092 171.19 131.604 157.817C136.091 162.257 144.907 160.858 151.551 154.554C158.334 148.122 160.801 139.359 155.876 134.245Z" fill="white"/>
</mask>
<g mask="url(#mask3_1967_6733)">
<path d="M142.952 165.311L140.124 161.076L137.083 164.758L137.8 158.923L134.484 156.892L138.659 156.701L140.668 152.496L141.917 156.943L146.172 157.764L142.818 159.566L142.952 165.311Z" fill="white" stroke="white" stroke-width="0.405046" stroke-miterlimit="10" stroke-linecap="round"/>
<path d="M140.014 140.403C142.193 138.486 144.712 136.821 147.723 136.055C149.209 135.681 150.935 135.6 152.535 136.309C154.121 137.059 155.253 138.44 155.656 140.154C155.984 141.884 155.425 143.479 154.744 144.825C154.012 146.171 153.12 147.374 152.116 148.461C150.124 150.646 147.804 152.469 145.305 153.988C147.351 151.93 149.287 149.803 151 147.578C151.824 146.446 152.624 145.304 153.174 144.085C153.736 142.89 154.105 141.606 153.853 140.501C153.655 139.437 152.801 138.336 151.771 137.829C150.719 137.265 149.357 137.237 148.008 137.422C145.288 137.871 142.587 139.052 140.014 140.403Z" fill="#8B2A0C"/>
<path d="M131.498 157.94C132.172 157.054 132.679 156.067 133.161 155.083C133.634 154.091 134.055 153.072 134.414 152.035C135.178 149.974 135.733 147.844 136.287 145.703C136.153 146.799 135.975 147.891 135.722 148.971C135.462 150.048 135.157 151.115 134.785 152.162C134.003 154.23 133.056 156.314 131.498 157.94Z" fill="#8B2A0C"/>
<path d="M89.0173 74.2638C87.0218 75.1447 85.1402 76.5013 84.286 78.5361C83.5709 80.2379 83.6431 82.3872 84.9542 83.8072C86.0882 85.0351 88.2534 85.6006 89.5229 84.2388C90.4944 83.1959 90.5161 81.3742 89.1618 80.6325C87.4336 79.6865 84.9542 80.5304 83.5944 81.7248C82.1154 83.025 81.4671 85.1197 81.8987 87.0082C82.2888 88.7171 83.8689 90.3327 85.7902 89.7231C87.3487 89.2298 87.8742 87.0823 86.249 86.3141C84.389 85.435 82.2508 86.825 81.4798 88.474C80.4486 90.6744 81.6026 93.1021 83.0924 94.7916C83.589 95.3553 84.4215 94.5362 83.9285 93.9759C82.8594 92.7639 81.9312 91.0708 82.3791 89.4236C82.5741 88.7083 83.0526 88.0547 83.6847 87.6425C84.1018 87.3712 86.2562 86.6488 86.072 87.986C85.9275 89.0325 84.3745 88.7048 83.8761 88.2591C83.2332 87.683 82.9768 86.7722 82.9497 85.9459C82.8973 84.3375 83.7659 82.8012 85.2016 82.0085C86.1225 81.4993 89.3297 80.7365 89.0372 82.6814C88.7464 84.6193 86.3031 83.8142 85.5501 82.6673C83.4878 79.5209 86.9496 76.4361 89.6186 75.2575C90.3066 74.9545 89.7071 73.9608 89.0173 74.2638Z" fill="#1A0000"/>
<path d="M68.8926 132.609C69.3765 131.222 70.2433 129.913 71.4984 128.964C72.7282 128.002 74.4256 127.461 76.049 127.663C76.849 127.751 77.6617 127.973 78.393 128.372C79.1027 128.805 79.7221 129.383 80.1302 130.073C80.9735 131.444 81.1108 133.037 80.8544 134.474C80.6232 133.037 80.1374 131.657 79.3122 130.614C78.4869 129.564 77.2698 129.004 75.919 128.893C74.5863 128.71 73.2518 129.075 72.06 129.755C70.8736 130.456 69.8045 131.449 68.8926 132.609Z" fill="#8B2A0C"/>
<g opacity="0.53">
<path d="M68.9785 132.624C68.9785 132.624 71.7974 127.413 76.9332 128.681C81.343 129.77 80.859 134.929 80.859 134.929" fill="#8B2A0C"/>
<path d="M68.9785 132.624C69.5148 131.257 70.434 129.981 71.7234 129.078C72.9893 128.163 74.7066 127.684 76.321 127.946C77.1174 128.065 77.9192 128.315 78.6361 128.741C79.3295 129.199 79.9254 129.802 80.3065 130.505C81.0974 131.905 81.1714 133.503 80.859 134.928C80.6839 133.484 80.2523 132.087 79.4667 131.015C78.683 129.935 77.4876 129.331 76.1422 129.169C74.8186 128.937 73.4696 129.252 72.2525 129.888C71.0408 130.547 69.9338 131.5 68.9785 132.624Z" fill="#8B2A0C"/>
</g>
<path d="M42.9283 118.328C42.4606 125.844 48.3711 132.297 56.1289 132.739C63.8867 133.181 70.5538 127.449 71.0197 119.933C71.4874 112.418 65.5769 105.964 57.8191 105.522C50.0631 105.078 43.396 110.813 42.9283 118.328Z" fill="white"/>
<path d="M49.7612 115.755C48.7102 121.455 52.1955 126.895 57.5479 127.908C62.9004 128.921 68.0903 125.121 69.1431 119.423C70.1959 113.726 66.7088 108.284 61.3564 107.271C56.0039 106.258 50.8122 110.056 49.7612 115.755Z" fill="#280707" stroke="#280707" stroke-width="1.60935" stroke-miterlimit="10"/>
<path d="M71.3487 117.155C70.6119 115.654 69.7884 114.207 68.7916 112.907C67.8273 111.593 66.7763 110.36 65.5502 109.354C64.3024 108.379 62.9606 107.594 61.5394 107.037C60.0839 106.57 58.5833 106.264 57.0285 106.302C53.8683 106.294 50.7623 107.159 48.3136 108.994C45.771 110.763 44.0916 113.674 43.0984 116.707L42.9323 117.216L42.5404 117.07C41.6122 116.725 40.6912 116.357 39.7793 115.955L39.8208 115.81L42.6812 116.572L42.5729 116.642C43.1742 113.356 44.8067 110.182 47.4613 108.011C50.096 105.834 53.6029 104.778 57.0285 104.828C58.7549 104.821 60.4686 105.159 62.074 105.772C63.6523 106.449 65.0987 107.393 66.3447 108.552C68.779 110.927 70.5 113.924 71.4986 117.121L71.3487 117.155Z" fill="black"/>
<path d="M43.0614 114.675L40.4141 112.584L43.753 113.234L43.0614 114.675Z" fill="black"/>
<path d="M44.3823 111.625L42.1738 109.234L45.2871 110.3L44.3823 111.625Z" fill="black"/>
<path d="M67.0841 129.261C65.3649 130.631 63.3442 131.657 61.1917 132.319C59.041 132.988 56.7151 133.239 54.4271 132.95C53.275 132.832 52.1752 132.458 51.0845 132.095C50.066 131.563 49.0006 131.116 48.1446 130.356C47.1912 129.731 46.4815 128.85 45.7302 128.04C45.0422 127.176 44.4878 126.216 43.9316 125.295C45.4594 126.866 46.9546 128.408 48.7821 129.476C50.541 130.619 52.54 131.35 54.6149 131.581C56.6826 131.866 58.8152 131.706 60.9082 131.28C62.9957 130.821 65.0796 130.173 67.0841 129.261Z" fill="black"/>
<path d="M119.08 131.642C117.094 139.42 108.742 144.18 100.425 142.275C92.1069 140.369 86.9729 132.519 88.9575 124.741C90.9439 116.963 99.2959 112.203 107.615 114.107C115.933 116.011 121.065 123.862 119.08 131.642Z" fill="white"/>
<path d="M119.043 128.093C118.286 134.102 112.946 138.499 107.113 137.916C101.281 137.333 97.1651 131.988 97.9217 125.979C98.6783 119.97 104.018 115.572 109.851 116.155C115.684 116.74 119.799 122.084 119.043 128.093Z" fill="#280707" stroke="#280707" stroke-width="1.7065" stroke-miterlimit="10"/>
<path d="M89.5742 122.298C91.2356 119.082 93.8649 116.312 97.211 114.418C98.8869 113.467 100.792 112.871 102.762 112.626C104.734 112.461 106.758 112.567 108.656 113.104C112.4 114.066 115.887 116.379 118.094 119.617C119.192 121.241 119.764 123.126 120.075 124.967C120.392 126.828 120.318 128.686 119.858 130.513L119.403 129.971C120.463 130.098 121.523 130.249 122.581 130.438L122.577 130.596L119.388 130.524L119.287 130.522L119.3 130.418C119.726 126.953 118.984 123.273 116.94 120.382C114.892 117.484 111.661 115.54 108.214 114.594C106.498 114.064 104.685 113.935 102.898 114.039C101.115 114.238 99.3708 114.723 97.7456 115.482C94.533 117.068 91.7791 119.517 89.7114 122.385L89.5742 122.298Z" fill="black"/>
<path d="M119.373 126.674L123.014 127.033L119.611 128.346L119.373 126.674Z" fill="black"/>
<path d="M118.746 123.283L122.282 123.16L119.228 124.904L118.746 123.283Z" fill="black"/>
<path d="M90.1992 135.75C91.1003 136.5 92.0014 137.226 92.9802 137.846C93.9156 138.514 94.9034 139.106 95.9182 139.626C97.948 140.658 100.084 141.456 102.298 141.779C104.503 142.164 106.78 142.022 108.96 141.423C111.19 140.926 113.205 139.788 115.295 138.69C114.417 139.45 113.532 140.251 112.543 140.908C111.503 141.486 110.48 142.138 109.312 142.496C108.196 143.012 106.961 143.132 105.751 143.361C104.523 143.398 103.281 143.447 102.065 143.223C99.6365 142.832 97.3232 141.913 95.326 140.586C93.3324 139.268 91.5373 137.67 90.1992 135.75Z" fill="black"/>
<path opacity="0.49" d="M82.5674 140.009C82.1701 142.458 79.586 146.85 73.8363 146.087C69.8598 145.561 67.2757 141.086 67.673 138.637C67.673 138.637 71.5013 137.855 75.5283 138.094C78.3273 138.262 82.5674 140.009 82.5674 140.009Z" fill="#8B2A0C"/>
<path d="M65.0898 136.414C66.5742 137.658 68.1381 138.729 69.7723 139.596C71.4156 140.441 73.1546 141.053 74.9352 141.218C76.7049 141.409 78.5342 141.218 80.2497 140.561C81.1508 140.337 81.9364 139.821 82.8104 139.455C83.6447 139.014 84.4212 138.466 85.3006 138.01C84.6668 138.727 84.0076 139.457 83.2654 140.101C82.4528 140.649 81.7052 141.345 80.7517 141.708C78.9694 142.675 76.815 143.006 74.76 142.807C72.6942 142.582 70.7366 141.796 69.1024 140.653C67.4681 139.509 66.0578 138.088 65.0898 136.414Z" fill="#3B130E"/>
<path d="M47.5819 101.399C47.9575 99.5949 48.9995 97.9389 50.4026 96.6634C51.784 95.3474 53.5321 94.4259 55.3578 93.8252C57.2124 93.309 59.1337 93.1047 61.0046 93.2897C61.9382 93.3478 62.8483 93.5962 63.7458 93.7847C64.6216 94.1212 65.492 94.3925 66.3119 94.8171L66.3299 94.8258C66.3697 94.847 66.3841 94.8946 66.3643 94.9316C66.348 94.9616 66.3137 94.9774 66.2812 94.9721L63.6627 94.6215C62.7833 94.6004 61.9039 94.5053 61.0262 94.544C59.2692 94.5881 57.5211 94.847 55.8489 95.3491C52.5316 96.3586 49.4491 98.4674 47.7318 101.468C47.7101 101.506 47.6595 101.52 47.6216 101.498C47.5891 101.48 47.5747 101.445 47.5819 101.413V101.399Z" fill="#2E2E2E"/>
<path d="M121.661 111.656C120.655 110.178 119.478 108.977 118.295 107.885C117.079 106.819 115.794 105.896 114.392 105.127C113.684 104.752 112.98 104.368 112.214 104.079C111.49 103.692 110.685 103.496 109.912 103.161L104.917 101.516L104.89 101.507C104.849 101.493 104.827 101.449 104.84 101.408C104.852 101.375 104.885 101.354 104.919 101.356L107.574 101.509C108.448 101.655 109.336 101.731 110.199 101.937C111.935 102.317 113.621 102.909 115.196 103.737C118.264 105.487 120.814 108.253 121.818 111.621C121.83 111.662 121.805 111.704 121.764 111.716C121.729 111.725 121.695 111.713 121.677 111.685L121.661 111.656Z" fill="#2E2E2E"/>
</g>
</svg>
