<svg width="99" height="88" viewBox="0 0 99 88" fill="none" xmlns="http://www.w3.org/2000/svg">
<rect width="99" height="87.7192" fill="#F99D07"/>
<path d="M84.5555 56.3393C84.5555 56.3393 88.8613 54.2834 88.9977 49.0231C89.1341 43.7628 83.1518 43.6129 83.1518 43.6129C86.1702 41.1256 85.3436 36.8921 85.3436 36.8921C85.3509 29.1335 79.308 28.8428 79.308 28.8428C79.308 28.8428 81.6062 26.0875 80.5183 22.4946C78.4037 15.5107 71.4711 17.3579 71.4711 17.3579C70.7142 13.7429 67.9131 10.9002 64.363 10.3427C64.3091 10.3342 64.2559 10.3262 64.202 10.3183C60.5785 9.79023 57.0351 11.7647 55.35 15.1166L55.1132 15.5878C54.978 15.1429 54.7461 14.6865 54.4677 14.2453C53.028 11.9642 50.6367 10.5086 48.021 10.1188C41.8043 9.19302 38.9022 13.9822 38.9022 13.9822C36.3409 10.8733 30.5066 12.0603 30.5066 12.0603C17.6842 15.179 20.9724 28.2817 20.9724 28.2817C20.9724 28.2817 14.9846 24.4807 11.0936 33.3383C7.20332 42.1964 14.9423 48.2564 14.9423 48.2564C13.7712 48.7361 12.6937 51.0723 12.6937 51.0723C9.9372 59.9781 21.0782 62.4312 21.0782 62.4312C17.2179 71.3021 28.165 70.9638 28.165 70.9638C29.3398 75.7364 33.1022 71.8742 33.1022 71.8742C32.9517 77.8406 37.3499 75.0517 37.3499 75.0517C38.4567 78.5706 41.4274 74.7941 41.4274 74.7941L42.0448 74.6723C42.1543 76.1598 43.3683 77.3664 44.9175 77.4288C46.2851 77.4845 47.4629 76.6279 47.8809 75.4133C48.6794 76.7227 50.1986 77.6424 51.981 77.7146C54.6341 77.8223 56.8644 76.0148 57.0229 73.6603C57.5112 74.3413 58.295 74.8057 59.2061 74.843C60.4421 74.8932 61.5128 74.1467 61.9375 73.0717C64.068 77.5023 67.7026 73.9081 67.7026 73.9081C71.1181 76.2608 72.466 72.4402 72.466 72.4402C72.466 72.4402 75.5658 74.8626 78.8436 70.4051C80.6811 67.9062 78.8038 63.8011 78.8038 63.8011C78.8038 63.8011 82.6109 66.6476 85.3179 63.3043C88.3093 59.6079 84.5555 56.3393 84.5555 56.3393Z" fill="#1E1E2F" stroke="#F99D07" stroke-width="0.596029" stroke-miterlimit="10" stroke-linecap="round"/>
<path d="M45.1184 66.9141L45.1649 71.1526L42.2922 71.2113C42.2922 71.2113 41.1804 77.0976 47.8486 77.4849C53.5629 77.8165 54.4373 71.0235 54.4373 71.0235L50.8719 70.9139V66.7012L45.1184 66.9141Z" fill="#FDFDFF" stroke="#FDFDFF" stroke-width="0.441652" stroke-miterlimit="10"/>
<path d="M69.2633 52.316C67.7979 51.4294 65.8778 51.7433 64.3114 52.9413C64.4234 52.1808 64.4944 51.4061 64.5103 50.6162C64.5152 50.3684 64.5011 50.1255 64.4968 49.8795C64.2423 49.8777 63.9877 49.8764 63.7332 49.866C61.2208 49.7633 59.6373 47.8309 57.3972 46.6739C55.5353 45.712 54.8579 45.5407 53.5069 43.9382C52.2354 42.4311 48.5776 39.1136 47.9339 36.3105C46.2084 39.0689 43.4685 42.2164 41.1794 43.8605C37.6538 46.3924 34.4824 49.2835 30.1308 49.7584C30.1295 49.8085 30.1253 49.8581 30.124 49.9083C30.113 50.4388 30.1289 50.9638 30.1626 51.4839C29.2301 50.8756 28.1636 50.6333 27.1265 50.8879C24.7769 51.4661 23.473 54.3743 24.2133 57.3848C24.9537 60.3946 27.4587 62.3661 29.8083 61.7878C31.0333 61.4862 31.9701 60.5482 32.4853 59.2957C35.4088 64.4385 40.7621 67.9378 46.9512 68.0651C53.1881 68.1936 58.7201 64.8668 61.8394 59.7821C62.1203 60.6828 62.6618 61.4409 63.4523 61.9194C65.5223 63.1719 68.5015 62.0375 70.1059 59.3856C71.7108 56.7338 71.3339 53.5685 69.2633 52.316Z" fill="#FDFDFF" stroke="#FDFDFF" stroke-width="0.559683" stroke-miterlimit="10"/>
<path d="M30.7947 54.0934C30.1295 53.328 29.3323 52.6286 28.4297 52.3526C27.537 52.0614 26.5678 52.5509 26.0808 53.3078C25.5913 54.0861 25.601 55.1269 25.7528 56.0979C25.918 57.0812 26.2099 58.0596 26.5813 59.0141C26.0269 58.1502 25.5925 57.1987 25.3422 56.1806C25.1018 55.182 25.0167 54.0151 25.6163 53.0171C25.9192 52.5283 26.3794 52.166 26.8988 51.9457C27.4281 51.7267 28.0504 51.7292 28.5674 51.9292C29.6131 52.3374 30.3064 53.2019 30.7947 54.0934Z" fill="#6B7280"/>
<path d="M32.9633 59.9304C32.4897 59.2677 32.2045 58.4925 31.9616 57.7215C31.8478 57.3317 31.7517 56.9377 31.671 56.5406C31.592 56.1429 31.5364 55.7415 31.4941 55.3389C31.6795 56.127 31.8564 56.9132 32.0932 57.6823C32.2039 58.0691 32.333 58.4503 32.4737 58.8272C32.6194 59.201 32.7675 59.5767 32.9633 59.9304Z" fill="#6B7280"/>
<path d="M64.1211 54.9668C64.7158 54.1426 65.5107 53.3698 66.5974 53.0944C67.1352 52.9598 67.7532 53.0338 68.2513 53.3171C68.7395 53.6004 69.1513 54.0159 69.3918 54.539C69.8635 55.6037 69.6347 56.751 69.2725 57.7122C68.8986 58.6912 68.3504 59.5821 67.6932 60.3708C68.1797 59.4689 68.5908 58.5346 68.876 57.5795C69.1464 56.6347 69.2853 55.6025 68.8956 54.7703C68.5058 53.9596 67.6051 53.3532 66.683 53.5325C65.753 53.6941 64.8755 54.2894 64.1211 54.9668Z" fill="#6B7280"/>
<path d="M61.5176 60.2499C61.6993 59.8882 61.8327 59.507 61.9636 59.1277C62.0897 58.7459 62.2041 58.3604 62.2996 57.9694C62.507 57.1917 62.6526 56.3993 62.8074 55.6045C62.7811 56.0083 62.7413 56.4122 62.6771 56.8123C62.6122 57.2125 62.5315 57.6102 62.4323 58.0037C62.22 58.7832 61.9649 59.5695 61.5176 60.2499Z" fill="#6B7280"/>
<path d="M65.8459 63.8553L64.8192 62.3568L63.7845 63.7042L63.9877 61.6024L62.8086 60.8999L64.2704 60.7978L64.9391 59.2705L65.4133 60.8583L66.9118 61.1184L65.7511 61.7927L65.8459 63.8553Z" fill="#6B7280"/>
<path d="M30.8874 63.6574L29.6313 62.3461L28.8291 63.8434L28.6877 61.7367L27.4102 61.235L28.8358 60.8966L29.2476 59.2812L29.9739 60.77L31.4944 60.784L30.4591 61.6376L30.8874 63.6574Z" fill="#6B7280"/>
<path opacity="0.49" d="M42.7992 59.4894C42.5625 62.1253 40.233 64.0699 37.5971 63.8325C34.9611 63.5957 33.0166 61.2663 33.254 58.6303C33.4914 55.9943 35.8202 54.0498 38.4562 54.2872C41.0921 54.524 43.0367 56.8534 42.7992 59.4894Z" fill="#6B7280" stroke="#6B7280" stroke-width="0.621911" stroke-miterlimit="10"/>
<path opacity="0.49" d="M61.518 59.2589C61.2806 61.8949 58.9518 63.8394 56.3158 63.602C53.6799 63.3652 51.7353 61.0358 51.9727 58.3998C52.2102 55.7639 54.539 53.8193 57.1749 54.0567C59.8103 54.2941 61.7548 56.6229 61.518 59.2589Z" fill="#6B7280" stroke="#6B7280" stroke-width="0.621911" stroke-miterlimit="10"/>
<path d="M47.7336 36.2562C47.5911 37.0406 47.2392 37.7736 46.9455 38.5091C46.6824 39.1675 46.5325 39.8607 46.8691 40.5289C47.1695 41.1255 47.9331 41.5795 48.5878 41.2521C49.0804 41.0062 49.2743 40.2627 48.8681 39.8473C48.37 39.3388 47.4601 39.7677 47.0361 40.163C46.4499 40.7088 46.2651 41.5893 46.5545 42.3321C46.7871 42.9281 47.4167 43.4739 48.0806 43.1704C48.586 42.9391 48.7683 42.1351 48.1479 41.9111C47.4387 41.6548 46.7614 42.37 46.628 43.0033C46.4438 43.8771 47.0612 44.6407 47.7306 45.1112C47.949 45.2648 48.1564 44.9057 47.9398 44.7533C47.4436 44.4045 46.948 43.8508 47.0183 43.1979C47.0514 42.895 47.2129 42.5824 47.4736 42.4123C47.5568 42.3578 47.7942 42.2226 47.8835 42.2838C47.938 42.4233 47.9931 42.5622 48.0475 42.7011C47.9533 42.7892 47.8425 42.8363 47.7159 42.8418C46.9761 42.8846 46.7497 41.793 46.8684 41.2552C47.0012 40.655 47.5776 40.0535 48.2256 40.0467C48.6307 40.0425 48.8099 40.4322 48.5615 40.7492C48.2923 41.0924 47.7502 40.9248 47.4834 40.6764C47.0453 40.2689 47.0073 39.5989 47.1787 39.0616C47.4681 38.1518 47.9606 37.3141 48.1332 36.3657C48.1809 36.1057 47.7814 35.9937 47.7336 36.2562Z" fill="#1E1E2F"/>
<path d="M40.2719 40.8827C39.6674 40.8081 39.0971 40.8344 38.555 40.8876C38.0122 40.9549 37.4921 41.0718 36.988 41.2541C36.4832 41.4377 35.9961 41.68 35.5048 41.9547C35.2582 42.09 35.0239 42.254 34.7663 42.3959C34.5105 42.5446 34.2804 42.7257 33.9965 42.8683L33.9855 42.8738C33.9726 42.8805 33.9567 42.875 33.95 42.8622C33.9451 42.8517 33.9469 42.8401 33.9543 42.8322L34.5656 42.1842C34.7926 41.9933 35.003 41.7804 35.2447 41.6066C35.7183 41.2456 36.2427 40.9513 36.8001 40.734C37.9272 40.3486 39.2036 40.3314 40.297 40.8332C40.3105 40.8393 40.316 40.8552 40.3098 40.868C40.305 40.8791 40.2939 40.8846 40.2823 40.8834L40.2719 40.8827Z" fill="#2E2E2E"/>
<path d="M53.4927 40.6006C53.9216 40.1368 54.5133 39.8296 55.1417 39.6975C55.7719 39.5494 56.4376 39.5812 57.0691 39.7244C57.692 39.9006 58.2806 40.1759 58.7774 40.5645C59.0332 40.7462 59.2461 40.9824 59.4658 41.1965C59.653 41.4505 59.8495 41.6854 60.0031 41.9553L60.0061 41.9614C60.0135 41.9742 60.0092 41.9908 59.9957 41.9987C59.9853 42.0042 59.9731 42.003 59.9645 41.9956L59.2871 41.4266C59.0412 41.2645 58.8105 41.0791 58.5529 40.9365C58.0469 40.6361 57.5005 40.4084 56.9339 40.2604C55.805 39.9777 54.5476 40.0676 53.5214 40.6477C53.508 40.655 53.4915 40.6507 53.4841 40.6373C53.478 40.6269 53.4798 40.6134 53.4878 40.6055L53.4927 40.6006Z" fill="#2E2E2E"/>
<path d="M44.7129 55.5013C44.8004 54.8735 45.0702 54.2579 45.5132 53.7592C45.9489 53.2593 46.6109 52.9026 47.2987 52.8677C47.637 52.8457 47.9901 52.8788 48.3242 52.9938C48.6515 53.1247 48.9526 53.3242 49.1741 53.5867C49.6244 54.1068 49.8141 54.7701 49.8104 55.4015C49.5975 54.8105 49.302 54.2573 48.8761 53.8779C48.4539 53.4937 47.9063 53.3462 47.3384 53.4001C46.7725 53.4215 46.2475 53.676 45.8057 54.0542C45.3651 54.4384 45.0084 54.9445 44.7129 55.5013Z" fill="#6B7280"/>
<g opacity="0.53">
<path d="M49.8456 55.5928C49.8456 55.5928 49.6522 53.3661 47.742 53.2328C45.5172 53.0773 44.748 55.5004 44.748 55.5004" fill="#6B7280"/>
<path d="M49.8469 55.593C49.6572 54.994 49.3831 54.4298 48.9719 54.0345C48.5638 53.635 48.0229 53.4667 47.4533 53.4998C46.8873 53.5004 46.3531 53.7347 45.8979 54.0957C45.4432 54.4641 45.0676 54.9566 44.75 55.5012C44.8607 54.8771 45.1532 54.2713 45.6152 53.7898C46.0698 53.307 46.7453 52.9754 47.4337 52.9668C47.7727 52.9583 48.1245 53.0035 48.4537 53.132C48.7761 53.2746 49.0686 53.4863 49.2797 53.7568C49.7092 54.2934 49.8738 54.9622 49.8469 55.593Z" fill="#6B7280"/>
</g>
<path d="M60.3982 50.9988C60.3266 53.5136 58.1636 55.4827 55.568 55.3964C52.9719 55.3101 50.9257 53.2016 50.9979 50.6874C51.0695 48.1726 53.2325 46.2036 55.8281 46.2898C58.4243 46.3761 60.4704 48.484 60.3982 50.9988Z" fill="white"/>
<path d="M57.2125 53.5808C59.0028 53.3492 60.2581 51.6468 60.0164 49.7785C59.7747 47.9102 58.1274 46.5834 56.3372 46.815C54.547 47.0466 53.2916 48.7489 53.5334 50.6173C53.7751 52.4856 55.4223 53.8124 57.2125 53.5808Z" fill="#1E1E2F" stroke="#280707" stroke-width="0.521747" stroke-miterlimit="10"/>
<path d="M50.8496 49.8716C51.1396 48.7794 51.7613 47.7649 52.6589 46.9897C53.5523 46.1924 54.8286 45.8479 56.0261 45.9391C57.2052 46.0174 58.3879 46.5161 59.2611 47.3593C59.6973 47.7839 59.9965 48.3217 60.2168 48.8645C60.4395 49.4121 60.5472 49.9861 60.5332 50.5771L60.3637 50.4401C60.691 50.4168 61.0196 50.4003 61.3506 50.3954L61.3592 50.4443L60.393 50.6114L60.363 50.6169L60.36 50.5851C60.2523 49.4947 59.7726 48.4215 58.968 47.6689C58.1615 46.9163 57.0754 46.5137 55.982 46.4231C55.435 46.3705 54.8806 46.4121 54.3501 46.5559C53.8251 46.7137 53.324 46.9554 52.8823 47.2858C52.0091 47.9571 51.3312 48.8779 50.8967 49.8881L50.8496 49.8716Z" fill="black"/>
<path d="M60.1328 49.4384L61.247 49.335L60.3048 49.9383L60.1328 49.4384Z" fill="black"/>
<path d="M59.7109 48.4433L60.7621 48.1992L59.9532 48.9133L59.7109 48.4433Z" fill="black"/>
<path d="M52.2598 54.2519C52.9157 54.5639 53.5979 54.7891 54.282 54.9543C54.9685 55.1091 55.6685 55.1795 56.3532 55.1091C57.041 55.0589 57.7073 54.838 58.3063 54.488C58.9268 54.1619 59.4414 53.6669 59.9682 53.1621C59.7693 53.4619 59.5741 53.7789 59.3306 54.0542C59.073 54.3173 58.8197 54.5951 58.4972 54.7915C58.2041 55.032 57.845 55.1623 57.5042 55.3245C57.1413 55.4316 56.7766 55.5374 56.3979 55.5656C55.6453 55.6335 54.8872 55.5325 54.1853 55.2976C53.4829 55.0656 52.8227 54.7157 52.2598 54.2519Z" fill="black"/>
<path d="M33.3443 50.5069C33.075 52.9385 34.9345 55.1241 37.4971 55.3885C40.0602 55.6528 42.356 53.8961 42.6252 51.4645C42.8944 49.0329 41.0349 46.8473 38.4724 46.583C35.9093 46.3186 33.6135 48.0753 33.3443 50.5069Z" fill="white"/>
<path d="M36.0597 49.8396C35.6247 51.6728 36.6967 53.4919 38.454 53.9043C40.2113 54.3161 41.9888 53.1646 42.4244 51.3314C42.8595 49.4988 41.7875 47.6791 40.0302 47.2673C38.2723 46.8549 36.4948 48.0065 36.0597 49.8396Z" fill="#1E1E2F" stroke="#280707" stroke-width="0.521747" stroke-miterlimit="10"/>
<path d="M42.7771 50.5683C42.555 50.0604 42.3005 49.5715 41.9872 49.131C41.6843 48.6855 41.3484 48.2719 40.9568 47.9293C40.5572 47.5958 40.1259 47.3272 39.6676 47.1228C39.2007 46.9362 38.7026 46.8389 38.196 46.8279C37.1674 46.7857 36.1242 46.9753 35.2878 47.5456C34.425 48.0767 33.7978 48.9909 33.4234 49.9833L33.3609 50.1485L33.2368 50.0959C32.9345 49.968 32.6347 49.8328 32.3379 49.6866L32.3526 49.6388L33.2888 49.9301L33.2527 49.9521C33.5054 48.8667 34.127 47.8552 35.0399 47.1993C35.9553 46.5483 37.1069 46.2766 38.2192 46.3427C38.7785 46.3696 39.3329 46.4932 39.8468 46.7165C40.3541 46.9527 40.8234 47.2703 41.2187 47.6668C41.9976 48.4695 42.5379 49.4816 42.8267 50.5585L42.7771 50.5683Z" fill="black"/>
<path d="M33.4507 49.3304L32.5996 48.6035L33.6894 48.8587L33.4507 49.3304Z" fill="black"/>
<path d="M33.9355 48.3611L33.2324 47.543L34.2396 47.9291L33.9355 48.3611Z" fill="black"/>
<path d="M41.1776 54.4292C40.5829 54.8507 39.8988 55.1512 39.1811 55.3329C38.4634 55.5164 37.7004 55.5617 36.9545 55.4394C36.5788 55.3837 36.2227 55.2521 35.8684 55.1187C35.5398 54.9321 35.1911 54.7761 34.9163 54.5148C34.6092 54.2958 34.3766 54.0002 34.1392 53.7194C33.9159 53.4263 33.7446 53.0971 33.5684 52.7832C34.0566 53.3247 34.5345 53.8558 35.1293 54.2266C35.7014 54.6188 36.3499 54.8881 37.0322 54.9878C37.7101 55.1077 38.4132 55.0882 39.1095 54.9841C39.804 54.8673 40.5009 54.6929 41.1776 54.4292Z" fill="black"/>
<path opacity="0.49" d="M51.7636 56.3172C51.9581 56.8691 51.0464 59.5883 48.7513 60.1365C46.6495 60.6383 44.3862 59.387 44.2656 58.3321C44.2656 58.3321 46.22 56.5552 48.315 56.316C50.4101 56.0767 51.7636 56.3172 51.7636 56.3172Z" fill="#6B7280"/>
<path d="M43.0098 57.9762C43.4522 58.0864 43.8927 58.1831 44.3412 58.229C44.7854 58.295 45.2321 58.3201 45.6775 58.3287C46.5672 58.3299 47.4532 58.2247 48.297 57.9744C49.142 57.7345 49.9564 57.3705 50.687 56.8669C51.4445 56.3945 52.0784 55.7564 52.7313 55.1182C52.4706 55.4877 52.2124 55.8714 51.9095 56.2165C51.5834 56.5389 51.2756 56.8883 50.895 57.1563C50.1803 57.7523 49.3158 58.1574 48.423 58.4205C47.5254 58.6744 46.5825 58.7711 45.6598 58.6836C44.7401 58.5967 43.8297 58.3813 43.0098 57.9762Z" fill="#3B130E"/>
</svg>
