<svg width="250" height="476" viewBox="0 0 250 476" fill="none" xmlns="http://www.w3.org/2000/svg">
<path d="M35.0093 266.382C35.0093 266.382 20.5732 263.695 15.9507 248.349C11.3281 233.003 28.9762 227.903 28.9762 227.903C18.0183 222.946 17.0799 209.865 17.0799 209.865C10.839 187.079 28.5513 181.52 28.5513 181.52C28.5513 181.52 19.5177 175.217 19.8689 163.815C20.5506 141.652 42.621 141.679 42.621 141.679C41.9696 130.47 48.0102 119.937 58.107 115.535C58.2599 115.469 58.4129 115.403 58.5658 115.339C68.9043 110.966 81.0121 114.006 88.7031 122.541L89.7851 123.74C89.8304 122.328 90.1533 120.806 90.6254 119.293C93.0726 111.472 99.0076 105.331 106.464 102.149C124.184 94.5866 136.643 106.396 136.643 106.396C141.757 95.2682 160.037 94.2108 160.037 94.2108C200.619 93.3856 201.359 134.437 201.359 134.437C201.359 134.437 216.095 118.606 234.752 141.598C253.408 164.59 235.281 188.418 235.281 188.418C239.142 188.915 244.216 194.938 244.216 194.938C259.542 218.954 228.42 234.836 228.42 234.836C246.998 257.891 214.213 265.421 214.213 265.421C214.551 280.358 200.279 271.941 200.279 271.941C205.51 289.35 190.211 284.584 190.211 284.584C189.744 295.783 177.895 287.003 177.895 287.003L175.963 287.125C176.83 291.582 174.192 296.07 169.641 297.46C165.625 298.687 161.44 297.09 159.224 293.848C157.902 298.315 154.125 302.202 148.893 303.801C141.1 306.184 133.027 302.611 130.669 295.817C129.764 298.198 127.808 300.173 125.134 300.991C121.503 302.101 117.724 300.742 115.602 297.915C112.826 312.591 99.1511 304.862 99.1511 304.862C90.8935 314.434 83.8256 304.26 83.8256 304.26C83.8256 304.26 76.5595 313.79 63.2526 303.249C55.7919 297.341 58.0749 283.819 58.0749 283.819C58.0749 283.819 49.0507 295.147 38.3308 287.433C26.4817 278.909 35.0093 266.382 35.0093 266.382Z" fill="#1A0000" stroke="#1A0000" stroke-width="1.84789" stroke-miterlimit="10" stroke-linecap="round"/>
<path d="M213.745 105.92C211.788 106.073 209.545 106.307 208.144 107.85C206.715 109.425 206.945 111.649 207.723 113.469C208.456 115.178 209.774 117.27 211.8 117.514C213.541 117.724 215.008 116.417 214.723 114.621C214.068 110.491 207.861 111.158 205.74 113.509C203.229 116.292 205.081 120.794 208.718 121.213C209.403 121.293 209.623 120.252 209.062 119.946C205.687 118.118 202.313 121.379 202.777 124.846C202.921 125.921 203.376 126.663 203.814 127.615C204.237 128.532 204.271 128.893 203.714 129.699C203.419 130.126 203.117 130.541 202.857 130.991C201.661 133.045 201.061 135.34 200.968 137.706C200.934 138.58 202.294 138.578 202.328 137.706C202.404 135.753 202.866 133.863 203.78 132.128C204.365 131.021 205.772 129.805 205.67 128.461C205.619 127.79 205.193 127.286 204.868 126.729C204.377 125.891 204.056 124.962 204.086 123.978C204.15 121.844 206.307 119.999 208.378 121.121C208.493 120.7 208.607 120.277 208.722 119.854C206.416 119.587 205.17 116.706 206.443 114.802C207.698 112.926 211.186 112.138 212.836 113.924C213.79 114.955 213.116 116.6 211.584 116.085C210.901 115.854 210.344 115.218 209.944 114.659C209.234 113.664 208.659 112.51 208.501 111.29C208.082 108.054 211.286 107.468 213.748 107.278C214.611 107.212 214.617 105.852 213.745 105.92Z" fill="#1A0000"/>
<path d="M4.64456 171.85C6.6726 170.107 9.50882 168.423 11.484 171.238C12.0826 172.092 12.4565 173.123 12.6717 174.137C12.8322 174.894 13.106 176.429 12.2639 176.962C10.8722 177.843 9.86949 176.535 10.1924 175.136C10.7041 172.919 13.4743 171.376 15.6231 172.046C17.6134 172.666 18.7256 175.343 17.3755 177.064C17.755 177.285 18.1327 177.504 18.5104 177.724C19.1543 175.409 22.0755 175.277 23.6371 176.716C24.2904 177.318 24.7587 178.123 25.0231 178.965C25.2365 179.643 25.2799 180.37 25.7728 180.925C26.6584 181.92 28.439 181.779 29.6325 182.115C31.585 182.666 33.3411 183.673 34.8574 185.011C35.5107 185.589 36.4757 184.632 35.8185 184.05C34.1285 182.555 32.1722 181.422 29.995 180.804C29.3586 180.623 28.7185 180.515 28.0671 180.404C27.1002 180.238 26.8227 179.962 26.445 179.018C26.0919 178.134 25.871 177.311 25.2799 176.527C23.1877 173.752 18.2724 173.506 17.198 177.362C17.028 177.97 17.8967 178.58 18.3329 178.023C20.5214 175.239 18.6879 171.012 15.1888 170.579C11.9844 170.184 6.74624 174.048 9.28978 177.583C10.2547 178.924 12.0561 179.071 13.2212 177.921C14.8187 176.34 14.1446 173.661 13.3534 171.857C12.6396 170.232 11.4236 168.723 9.5938 168.364C7.29951 167.917 5.30547 169.491 3.67964 170.889C3.01873 171.459 3.98366 172.416 4.64456 171.85Z" fill="#1A0000"/>
<path d="M203.418 208.449C203.418 208.449 198.618 146.237 133.479 161.509C71.7352 175.987 90.6088 251.931 108.355 257.805L112.64 259.331C112.64 259.331 86.4243 192.262 140.919 172.348C140.919 172.348 173.505 164.644 203.418 208.449Z" fill="#FFD44D" stroke="#FFD44D" stroke-width="1.68512" stroke-miterlimit="10"/>
<path d="M161.186 287.643L161.065 295.906C161.065 295.906 168.028 296.259 170.352 297.753C172.677 299.247 156.97 315.046 156.97 315.046L135.235 297.035L146.163 295.802L146.25 286.017L161.186 287.643Z" fill="#B44A24" stroke="#B44A24" stroke-width="1.98555" stroke-miterlimit="10"/>
<path d="M85.0412 253.512C90.4134 245.997 101.188 251.552 107.229 254.666C108.909 256.305 110.739 257.795 112.459 259.393C112.656 259.574 112.933 259.606 113.19 259.546C113.451 260.055 114.164 260.331 114.586 259.736C118.239 254.57 122.89 250.159 126.948 245.304C130.457 241.108 133.363 236.463 136.006 231.712C138.76 226.763 141.161 221.628 143.19 216.358C147.17 206.016 149.953 195.034 150.831 184.025C150.792 184.261 150.831 184.025 150.831 184.025C150.945 183.347 151.232 182.227 151.362 181.553C152.493 182.459 153.634 183.353 154.791 184.227C162.479 190.031 170.693 195.288 179.35 199.618C183.365 201.626 187.504 203.435 191.821 204.739C195.662 205.899 199.776 206.726 203.813 206.178C203.84 206.175 203.855 206.161 203.88 206.156C205.218 208.867 206.374 211.7 207.314 214.642C218.499 249.647 203.304 277.095 170.096 287.245C150.493 293.237 129.988 288.048 115.288 275.318C111.121 280.861 101.294 280.736 93.04 274.93C84.6125 269.002 80.5055 259.857 85.0412 253.512Z" fill="#CD5428"/>
<mask id="mask0_1437_18702" style="mask-type:luminance" maskUnits="userSpaceOnUse" x="83" y="181" width="128" height="109">
<path d="M85.0412 253.513C90.4134 245.998 101.188 251.553 107.229 254.667C108.909 256.306 110.739 257.796 112.459 259.394C112.656 259.575 112.933 259.607 113.19 259.546C113.451 260.056 114.164 260.332 114.586 259.737C118.239 254.571 122.89 250.16 126.948 245.305C130.457 241.109 133.363 236.464 136.006 231.713C138.76 226.764 141.161 221.629 143.19 216.359C147.17 206.017 149.953 195.035 150.831 184.026C150.792 184.262 150.831 184.026 150.831 184.026C150.945 183.348 151.232 182.228 151.362 181.554C152.493 182.46 153.634 183.354 154.791 184.228C162.479 190.032 170.693 195.289 179.35 199.619C183.365 201.627 187.504 203.436 191.821 204.74C195.662 205.9 199.776 206.727 203.813 206.179C203.84 206.176 203.855 206.162 203.88 206.157C205.218 208.868 206.374 211.701 207.314 214.643C218.499 249.648 203.304 277.096 170.096 287.246C150.493 293.238 129.988 288.049 115.288 275.319C111.121 280.862 101.294 280.737 93.04 274.93C84.6125 269.003 80.5055 259.858 85.0412 253.513Z" fill="white"/>
</mask>
<g mask="url(#mask0_1437_18702)">
<path opacity="0.49" d="M132.231 269.358C136.419 277.113 146.274 280.061 154.241 275.942C162.208 271.822 165.271 262.196 161.08 254.44C156.892 246.685 147.037 243.737 139.07 247.856C131.104 251.974 128.041 261.601 132.231 269.358Z" fill="#8B2A0C" stroke="#8B2A0C" stroke-width="1.8698" stroke-miterlimit="10"/>
</g>
<mask id="mask1_1437_18702" style="mask-type:luminance" maskUnits="userSpaceOnUse" x="83" y="181" width="128" height="109">
<path d="M85.0412 253.513C90.4134 245.998 101.188 251.553 107.229 254.667C108.909 256.306 110.739 257.796 112.459 259.394C112.656 259.575 112.933 259.607 113.19 259.546C113.451 260.056 114.164 260.332 114.586 259.737C118.239 254.571 122.89 250.16 126.948 245.305C130.457 241.109 133.363 236.464 136.006 231.713C138.76 226.764 141.161 221.629 143.19 216.359C147.17 206.017 149.953 195.035 150.831 184.026C150.792 184.262 150.831 184.026 150.831 184.026C150.945 183.348 151.232 182.228 151.362 181.554C152.493 182.46 153.634 183.354 154.791 184.228C162.479 190.032 170.693 195.289 179.35 199.619C183.365 201.627 187.504 203.436 191.821 204.74C195.662 205.9 199.776 206.727 203.813 206.179C203.84 206.176 203.855 206.162 203.88 206.157C205.218 208.868 206.374 211.701 207.314 214.643C218.499 249.648 203.304 277.096 170.096 287.246C150.493 293.238 129.988 288.049 115.288 275.319C111.121 280.862 101.294 280.737 93.04 274.93C84.6125 269.003 80.5055 259.858 85.0412 253.513Z" fill="white"/>
</mask>
<g mask="url(#mask1_1437_18702)">
<path opacity="0.49" d="M196.03 261.765C199.78 268.706 208.598 271.344 215.731 267.658C222.861 263.97 225.603 255.356 221.852 248.414C218.102 241.473 209.284 238.835 202.154 242.521C195.022 246.207 192.28 254.823 196.03 261.765Z" fill="#8B2A0C" stroke="#8B2A0C" stroke-width="1.8698" stroke-miterlimit="10"/>
</g>
<path d="M103.311 257.697C100.309 256.641 97.2026 255.797 94.1926 255.729C92.7065 255.735 91.2299 255.961 90.1516 256.719C89.1018 257.417 88.3238 258.747 88.2464 259.938C88.1312 261.181 88.7411 262.536 89.5493 263.756C90.3518 265.004 91.413 266.126 92.4988 267.233C94.7346 269.389 97.1912 271.4 99.7518 273.319C96.7966 272.074 93.9792 270.465 91.4527 268.4C90.18 267.374 89.0111 266.2 87.9877 264.838C87.0322 263.464 86.1352 261.785 86.2561 259.8C86.326 258.82 86.7036 257.893 87.1738 257.126C87.6553 256.339 88.3238 255.614 89.1358 255.136C90.7691 254.16 92.6197 254.007 94.2795 254.184C97.635 254.553 100.63 255.958 103.311 257.697Z" fill="#8B2A0C"/>
<path d="M115.885 274.672C113.94 273.163 112.569 271.048 111.381 268.922C110.805 267.84 110.297 266.724 109.838 265.591C109.387 264.454 109.013 263.289 108.688 262.113C109.64 264.36 110.59 266.593 111.757 268.718C112.318 269.79 112.941 270.829 113.615 271.834C114.302 272.831 115.012 273.82 115.885 274.672Z" fill="#8B2A0C"/>
<path d="M150.816 182.287C152.572 182.772 154.337 183.552 155.521 184.991C156.592 186.292 157.138 188.284 156.294 189.84C155.591 191.135 153.176 192.215 152.566 190.227C151.898 188.051 155.844 188.55 156.896 189.011C158.626 189.766 159.806 191.524 159.774 193.427C159.761 194.224 159.536 195.125 158.922 195.68C158.571 195.999 158.08 196.2 157.599 196.149C156.883 196.073 156.26 195.304 157 194.761C158.293 193.809 160.276 195.214 160.854 196.373C161.74 198.154 160.933 200.24 159.932 201.778C159.479 202.472 160.591 203.116 161.041 202.425C162.253 200.563 163.041 198.11 162.078 195.967C161.313 194.264 159.398 193.004 157.504 193.28C155.691 193.543 154.421 195.542 156.143 196.915C157.757 198.201 159.953 197.013 160.667 195.346C162.574 190.886 157.891 186.471 153.507 187.43C151.609 187.846 150.563 189.617 151.696 191.345C152.781 193.001 154.985 192.889 156.388 191.711C158.218 190.174 158.337 187.542 157.357 185.495C156.19 183.061 153.648 181.737 151.158 181.046C150.361 180.827 150.019 182.066 150.816 182.287Z" fill="#1A0000"/>
<path d="M188.012 246.329C187.079 244.611 185.943 243.062 184.555 241.893C183.159 240.753 181.515 240.001 179.751 239.948C177.982 239.799 176.276 240.249 174.947 241.416C173.608 242.573 172.675 244.278 172.011 246.11C172.005 244.152 172.615 242.094 174.037 240.5C174.736 239.695 175.676 239.093 176.688 238.695C177.721 238.343 178.811 238.24 179.859 238.298C181.983 238.391 184.052 239.441 185.442 240.964C186.849 242.484 187.725 244.382 188.012 246.329Z" fill="#8B2A0C"/>
<g opacity="0.53">
<path d="M187.899 246.331C187.899 246.331 185.473 238.923 178.49 239.438C172.494 239.88 171.899 246.703 171.899 246.703" fill="#8B2A0C"/>
<path d="M187.9 246.33C186.901 244.647 185.707 243.144 184.276 242.028C182.839 240.941 181.168 240.248 179.402 240.259C177.629 240.174 175.941 240.684 174.655 241.898C173.36 243.103 172.493 244.844 171.9 246.702C171.817 244.746 172.347 242.663 173.711 241.018C174.379 240.189 175.299 239.553 176.296 239.118C177.316 238.727 178.401 238.588 179.449 238.607C181.578 238.622 183.681 239.598 185.128 241.067C186.589 242.532 187.537 244.396 187.9 246.33Z" fill="#8B2A0C"/>
</g>
<path d="M163.483 227.356C163.938 229.072 164.106 230.883 164.208 232.698C164.227 234.514 164.055 236.353 163.619 238.202C163.181 240.043 162.324 241.901 160.851 243.419C159.365 244.93 157.212 245.806 155.15 245.899C153.028 246.078 150.811 245.225 149.23 243.922C147.652 242.583 146.575 240.915 145.769 239.225C144.277 235.77 143.514 232.209 143.448 228.583L143.994 228.91C143.029 229.206 142.043 229.45 141.063 229.708L141.001 229.548L143.815 228.445L143.924 228.402L143.943 228.521C144.47 231.989 145.412 235.443 147.038 238.553C147.856 240.098 148.898 241.548 150.254 242.638C151.609 243.71 153.333 244.331 155.065 244.192C156.797 244.141 158.492 243.446 159.75 242.26C161.013 241.063 161.821 239.456 162.369 237.802C163.415 234.441 163.553 230.872 163.313 227.346L163.483 227.356Z" fill="black"/>
<path d="M144.526 233.059L140.407 233.612L143.812 231.231L144.526 233.059Z" fill="black"/>
<path d="M145.523 237.349L141.044 237.22L145.043 235.202L145.523 237.349Z" fill="black"/>
<path d="M188.553 227.087C189.066 228.548 189.499 229.97 190.118 231.334C190.67 232.707 191.283 234.047 192.073 235.226C192.879 236.376 193.712 237.488 194.779 238.109C195.817 238.74 197.012 238.898 198.183 238.572C200.515 238.171 201.926 235.513 202.555 232.767C203.329 230.001 203.508 226.987 203.62 224.001L203.637 223.546L204.003 223.626C204.798 223.799 205.587 224.018 206.378 224.226L206.36 224.37L203.946 224.041L204.035 223.954C204.328 226.968 204.313 230.027 203.731 233.012C203.418 234.495 202.962 235.977 202.132 237.274C201.335 238.579 200.039 239.638 198.512 239.971C197.011 240.348 195.353 240.067 194.069 239.21C192.768 238.364 191.837 237.089 191.102 235.767C189.658 233.086 188.891 230.093 188.415 227.13L188.553 227.087Z" fill="black"/>
<path d="M204.02 226.386L207.129 227.655L203.79 228.02L204.02 226.386Z" fill="black"/>
<path d="M203.819 229.78L207.335 230.609L203.868 231.63L203.819 229.78Z" fill="black"/>
<path d="M138.117 222.295C138.347 220.335 139.285 218.477 140.632 216.99C141.956 215.465 143.693 214.326 145.541 213.527C147.428 212.814 149.412 212.428 151.376 212.462C152.354 212.443 153.325 212.628 154.277 212.751C155.219 213.034 156.152 213.248 157.043 213.629L157.062 213.637C157.105 213.656 157.124 213.705 157.107 213.748C157.092 213.782 157.06 213.801 157.024 213.799L154.265 213.652C153.348 213.707 152.422 213.682 151.512 213.799C149.684 213.999 147.889 214.428 146.189 215.11C142.822 216.477 139.799 218.998 138.277 222.353C138.258 222.397 138.207 222.416 138.164 222.397C138.13 222.382 138.111 222.346 138.115 222.31L138.117 222.295Z" fill="#2E2E2E"/>
<path d="M185.573 212.231C187.582 209.245 191.387 207.657 195.086 207.825C196.926 207.978 198.768 208.39 200.336 209.311C201.163 209.676 201.839 210.303 202.551 210.814C203.185 211.451 203.812 212.064 204.341 212.769L204.352 212.784C204.379 212.82 204.371 212.869 204.337 212.895C204.311 212.916 204.275 212.916 204.246 212.899C203.54 212.45 202.855 211.966 202.133 211.545C201.374 211.196 200.67 210.727 199.869 210.478C198.332 209.817 196.665 209.53 195.015 209.423C193.355 209.304 191.68 209.562 190.092 210.051C188.506 210.55 186.985 211.32 185.681 212.349C185.647 212.376 185.596 212.37 185.569 212.336C185.547 212.308 185.547 212.27 185.565 212.244L185.573 212.231Z" fill="#2E2E2E"/>
<path opacity="0.49" d="M186.86 254.946C186.86 254.946 186.133 266.096 178.158 266.763C169.776 267.464 167.44 256.102 167.44 256.102C167.44 256.102 171.413 254.415 177.086 253.941C182.758 253.466 186.86 254.946 186.86 254.946Z" fill="#8B2A0C"/>
<path d="M162.908 246.546C163.594 248.364 164.353 250.124 165.288 251.755C166.162 253.404 167.189 254.962 168.449 256.221C169.669 257.515 171.087 258.491 172.61 259.14C174.144 259.82 175.853 259.837 177.556 259.83L177.758 259.824C178.819 259.811 180.32 259.367 181.527 258.757C182.77 258.106 183.931 257.228 185.003 256.206C186.106 255.198 186.935 253.916 187.836 252.662C188.257 252.012 188.659 251.342 189.069 250.668C189.413 249.963 189.802 249.268 190.198 248.566L190.208 248.549C190.23 248.507 190.281 248.494 190.323 248.517C190.359 248.538 190.374 248.581 190.361 248.619L189.562 250.868C189.241 251.595 188.922 252.327 188.58 253.045C187.819 254.441 187.018 255.836 185.944 257.027C184.9 258.232 183.685 259.31 182.286 260.105C180.887 260.887 179.346 261.452 177.698 261.503H177.718C175.779 261.597 173.768 261.495 171.967 260.666C170.175 259.873 168.615 258.627 167.361 257.137C166.107 255.64 165.174 253.914 164.41 252.137C163.664 250.349 163.08 248.492 162.738 246.58C162.731 246.534 162.761 246.489 162.806 246.481C162.848 246.474 162.886 246.498 162.901 246.534L162.908 246.546Z" fill="#3B130E"/>
<path d="M104.429 288.643L106.823 283.584L110.728 287.112L109.002 280.875L112.286 278.138L107.707 278.594L104.84 274.333L104.2 279.371L99.7002 280.941L103.643 282.368L104.429 288.643Z" fill="white" stroke="white" stroke-width="0.440163" stroke-miterlimit="10" stroke-linecap="round"/>
<path d="M121.829 398.985C122.454 400.422 117.783 452.131 117.783 452.131L111.967 468.411L135.234 472.24L139.602 454.046L157.76 395.634L121.829 398.985Z" fill="#B44A24" stroke="#B44A24" stroke-width="0.856345" stroke-miterlimit="10" stroke-linecap="round"/>
<path d="M119.777 429.249C118.77 441.198 117.783 452.129 117.783 452.129L111.967 468.408L135.234 472.238L139.602 454.044L146.134 433.033C137.344 431.817 128.465 431.048 119.777 429.249Z" fill="white" stroke="white" stroke-width="0.856345" stroke-miterlimit="10" stroke-linecap="round"/>
<path d="M136.566 451.337C130.502 449.745 124.369 448.448 118.221 447.222C117.951 450.259 117.783 452.132 117.783 452.132L111.967 468.411L135.234 472.24L139.602 454.047L140.127 452.36C138.947 452.003 137.767 451.65 136.566 451.337Z" fill="black" stroke="black" stroke-width="0.856345" stroke-miterlimit="10" stroke-linecap="round"/>
<path d="M172.422 400.708L181.308 471.568L199.005 475.397L209.871 472.525C209.871 472.525 202.474 457.204 202.474 455.767C202.474 454.33 203.947 386.341 203.947 386.341L172.422 400.708Z" fill="#B44A24" stroke="#B44A24" stroke-width="0.856345" stroke-miterlimit="10" stroke-linecap="round"/>
<path d="M202.824 438.541H177.164L181.305 471.567L199.002 475.396L209.868 472.524C209.868 472.524 202.471 457.203 202.471 455.766C202.471 455.311 202.62 448.126 202.824 438.541Z" fill="white" stroke="white" stroke-width="0.856345" stroke-miterlimit="10" stroke-linecap="round"/>
<path d="M202.524 452.995H178.979L181.309 471.57L199.006 475.399L209.871 472.527C209.871 472.527 202.475 457.206 202.475 455.769C202.473 455.608 202.492 454.619 202.524 452.995Z" fill="black" stroke="black" stroke-width="0.856345" stroke-miterlimit="10" stroke-linecap="round"/>
<path opacity="0.49" d="M143.644 419.292C143.52 421.962 139.653 423.962 135.009 423.754C130.364 423.549 126.701 421.216 126.825 418.545C126.95 415.874 130.817 413.877 135.461 414.082C140.104 414.29 143.767 416.622 143.644 419.292Z" fill="#8B2A0C" stroke="#8B2A0C" stroke-width="0.828398" stroke-miterlimit="10"/>
<path opacity="0.49" d="M201.928 419.292C201.803 421.962 197.936 423.962 193.292 423.754C188.647 423.549 184.984 421.216 185.109 418.545C185.233 415.874 189.099 413.877 193.744 414.082C198.387 414.29 202.052 416.622 201.928 419.292Z" fill="#8B2A0C" stroke="#8B2A0C" stroke-width="0.828398" stroke-miterlimit="10"/>
<path d="M172.42 296.107C172.42 296.107 175.502 290.906 201.335 320.609L189.485 285.2C189.26 284.529 190.168 284.067 190.604 284.629L194.936 290.213L193.335 282.326C193.212 281.723 194.047 281.412 194.364 281.942C196.192 285.001 198.869 289.431 198.952 289.284C199.041 289.131 197.612 283.485 196.904 280.099C196.771 279.465 197.633 279.119 198.003 279.658L202.4 286.053L202.066 278.657C202.032 277.9 203.069 277.611 203.437 278.279C207.437 285.547 219.418 311.472 219.227 323.936C218.989 339.307 214.063 347.842 193.775 337.173L183.204 330.319L172.42 296.107Z" fill="#B44A24" stroke="#B44A24" stroke-width="0.856345" stroke-miterlimit="10" stroke-linecap="round"/>
<path d="M200.104 318.47C200.819 321.05 201.371 323.665 201.935 326.276C202.451 328.897 202.979 331.517 203.342 334.17C202.626 331.59 202.075 328.975 201.51 326.363C200.995 323.741 200.468 321.121 200.104 318.47Z" fill="#8B2A0C"/>
<path d="M120.914 362.357C120.914 362.357 112.964 367.38 113.795 368.163C114.624 368.947 121.936 365.903 121.826 364.247C121.713 362.593 120.914 362.357 120.914 362.357Z" fill="#9C322C" stroke="#9C322C" stroke-width="0.856345" stroke-miterlimit="10" stroke-linecap="round"/>
<path d="M137.448 313.831L119.823 337.885L128.362 348.775L122.514 369.219C116.515 370.384 112.115 368.704 115.582 367.924C119.049 367.144 121.715 362.593 121.715 362.593C121.715 362.593 98.1942 356.528 100.162 336.061C101.944 317.514 128.947 299.511 133.996 296.297C134.521 295.963 135.127 295.793 135.754 295.798L139.601 295.828L137.448 313.831Z" fill="#B44A24" stroke="#B44A24" stroke-width="0.856345" stroke-miterlimit="10" stroke-linecap="round"/>
<path d="M119.824 337.884C118.829 338.173 117.817 338.299 116.805 338.435C115.787 338.522 114.771 338.624 113.736 338.556C114.731 338.265 115.744 338.141 116.756 338.003C117.774 337.918 118.789 337.818 119.824 337.884Z" fill="#8B2A0C"/>
<mask id="mask2_1437_18702" style="mask-type:luminance" maskUnits="userSpaceOnUse" x="111" y="295" width="107" height="111">
<path d="M134.992 295.219H141.63C141.63 295.219 143.068 307.929 155.084 307.331C167.101 306.732 166.323 295.219 166.323 295.219H173.744L217.266 386.358C217.266 386.358 157.508 415.778 111.154 400.749C111.156 400.747 139.373 327.532 134.992 295.219Z" fill="white"/>
</mask>
<g mask="url(#mask2_1437_18702)">
<path d="M134.992 295.219H141.63C141.63 295.219 143.068 307.929 155.084 307.331C167.101 306.732 166.323 295.219 166.323 295.219H173.744L217.266 386.358C217.266 386.358 157.508 415.778 111.154 400.749C111.154 400.749 139.373 327.532 134.992 295.219Z" fill="#7A5FFF" stroke="#7A5FFF" stroke-width="1.59864" stroke-miterlimit="10" stroke-linecap="round"/>
</g>
<mask id="mask3_1437_18702" style="mask-type:luminance" maskUnits="userSpaceOnUse" x="111" y="295" width="107" height="111">
<path d="M134.992 295.219H141.63C141.63 295.219 143.068 307.929 155.084 307.331C167.101 306.732 166.323 295.219 166.323 295.219H173.744L217.266 386.358C217.266 386.358 157.508 415.778 111.154 400.749C111.156 400.747 139.373 327.532 134.992 295.219Z" fill="white"/>
</mask>
<g mask="url(#mask3_1437_18702)">
<path d="M143.298 341.342L141.668 325.107C141.653 324.963 141.534 324.835 141.402 324.816L128.928 323.156C128.675 323.122 128.558 322.748 128.771 322.65L141.583 316.781C141.644 316.755 141.683 316.696 141.691 316.623L143.13 304.424C143.158 304.184 143.47 304.194 143.585 304.437L148.936 315.777C148.995 315.899 149.121 315.979 149.233 315.962L161.446 314.14C161.677 314.106 161.873 314.436 161.722 314.602L153.672 323.504C153.6 323.583 153.604 323.719 153.678 323.828L161.39 335.221C161.545 335.449 161.369 335.696 161.137 335.574L149.189 329.225C149.07 329.161 148.944 329.197 148.897 329.308L143.764 341.518C143.672 341.745 143.326 341.614 143.298 341.342Z" fill="#FFD44D"/>
</g>
<mask id="mask4_1437_18702" style="mask-type:luminance" maskUnits="userSpaceOnUse" x="111" y="295" width="107" height="111">
<path d="M134.992 295.219H141.63C141.63 295.219 143.068 307.929 155.084 307.331C167.101 306.732 166.323 295.219 166.323 295.219H173.744L217.266 386.358C217.266 386.358 157.508 415.778 111.154 400.749C111.156 400.747 139.373 327.532 134.992 295.219Z" fill="white"/>
</mask>
<g mask="url(#mask4_1437_18702)">
<path d="M178.619 380.507L183.899 365.064C183.946 364.928 183.891 364.762 183.778 364.692L173.09 358.106C172.873 357.972 172.922 357.583 173.156 357.581L187.29 357.451C187.356 357.451 187.417 357.413 187.454 357.351L193.852 346.831C193.978 346.623 194.258 346.759 194.262 347.027L194.417 359.528C194.418 359.664 194.5 359.787 194.609 359.817L206.511 363.129C206.736 363.191 206.777 363.573 206.57 363.663L195.517 368.492C195.419 368.535 195.365 368.66 195.387 368.79L197.674 382.299C197.719 382.571 197.457 382.724 197.296 382.518L189.042 371.879C188.959 371.774 188.829 371.753 188.742 371.836L178.972 380.864C178.793 381.026 178.53 380.766 178.619 380.507Z" fill="#FFD44D"/>
</g>
<mask id="mask5_1437_18702" style="mask-type:luminance" maskUnits="userSpaceOnUse" x="111" y="295" width="107" height="111">
<path d="M134.992 295.219H141.63C141.63 295.219 143.068 307.929 155.084 307.331C167.101 306.732 166.323 295.219 166.323 295.219H173.744L217.266 386.358C217.266 386.358 157.508 415.778 111.154 400.749C111.156 400.747 139.373 327.532 134.992 295.219Z" fill="white"/>
</mask>
<g mask="url(#mask5_1437_18702)">
<path d="M127.216 399.101L122.96 383.332C122.922 383.192 122.784 383.085 122.65 383.088L110.072 383.436C109.818 383.443 109.64 383.092 109.835 382.962L121.519 375.127C121.574 375.091 121.602 375.027 121.601 374.954L121.03 362.682C121.019 362.44 121.329 362.398 121.482 362.621L128.61 372.965C128.687 373.079 128.825 373.135 128.933 373.101L140.686 369.359C140.907 369.289 141.156 369.583 141.033 369.772L134.543 379.842C134.484 379.931 134.511 380.065 134.601 380.162L144.068 390.181C144.258 390.383 144.124 390.653 143.877 390.57L131.053 386.204C130.925 386.161 130.806 386.216 130.778 386.333L127.705 399.205C127.651 399.439 127.288 399.366 127.216 399.101Z" fill="#FFD44D"/>
</g>
<mask id="mask6_1437_18702" style="mask-type:luminance" maskUnits="userSpaceOnUse" x="111" y="295" width="107" height="111">
<path d="M134.992 295.219H141.63C141.63 295.219 143.068 307.929 155.084 307.331C167.101 306.732 166.323 295.219 166.323 295.219H173.744L217.266 386.358C217.266 386.358 157.508 415.778 111.154 400.749C111.156 400.747 139.373 327.532 134.992 295.219Z" fill="white"/>
</mask>
<g mask="url(#mask6_1437_18702)">
<path d="M175.054 320.022L176.972 314.411C176.989 314.362 176.968 314.302 176.929 314.275L173.046 311.883C172.967 311.834 172.986 311.694 173.071 311.692L178.205 311.645C178.23 311.645 178.251 311.632 178.266 311.609L180.59 307.787C180.636 307.712 180.738 307.761 180.739 307.859L180.796 312.4C180.796 312.449 180.826 312.495 180.866 312.506L185.19 313.709C185.271 313.732 185.286 313.869 185.211 313.903L181.196 315.658C181.161 315.673 181.142 315.718 181.149 315.765L181.98 320.673C181.997 320.771 181.901 320.828 181.842 320.752L178.844 316.887C178.813 316.847 178.766 316.842 178.734 316.872L175.184 320.152C175.118 320.21 175.022 320.116 175.054 320.022Z" fill="#FFD44D"/>
</g>
<mask id="mask7_1437_18702" style="mask-type:luminance" maskUnits="userSpaceOnUse" x="111" y="295" width="107" height="111">
<path d="M134.992 295.219H141.63C141.63 295.219 143.068 307.929 155.084 307.331C167.101 306.732 166.323 295.219 166.323 295.219H173.744L217.266 386.358C217.266 386.358 157.508 415.778 111.154 400.749C111.156 400.747 139.373 327.532 134.992 295.219Z" fill="white"/>
</mask>
<g mask="url(#mask7_1437_18702)">
<path d="M154.581 363.826L154.775 357.904C154.777 357.851 154.741 357.8 154.694 357.787L150.281 356.603C150.191 356.579 150.168 356.439 150.249 356.414L155.147 354.904C155.17 354.896 155.187 354.877 155.195 354.853L156.301 350.529C156.324 350.444 156.435 350.462 156.464 350.555L157.844 354.891C157.859 354.938 157.901 354.972 157.942 354.972L162.431 354.891C162.516 354.889 162.57 355.017 162.508 355.07L159.179 357.895C159.149 357.919 159.143 357.968 159.166 358.012L161.394 362.476C161.439 362.567 161.364 362.646 161.286 362.591L157.289 359.743C157.249 359.715 157.202 359.721 157.179 359.759L154.741 363.913C154.696 363.988 154.577 363.924 154.581 363.826Z" fill="#FFD44D"/>
</g>
<mask id="mask8_1437_18702" style="mask-type:luminance" maskUnits="userSpaceOnUse" x="111" y="295" width="107" height="111">
<path d="M134.992 295.219H141.63C141.63 295.219 143.068 307.929 155.084 307.331C167.101 306.732 166.323 295.219 166.323 295.219H173.744L217.266 386.358C217.266 386.358 157.508 415.778 111.154 400.749C111.156 400.747 139.373 327.532 134.992 295.219Z" fill="white"/>
</mask>
<g mask="url(#mask8_1437_18702)">
<path d="M161.942 407.826L163.861 402.216C163.878 402.167 163.859 402.107 163.818 402.08L159.935 399.688C159.856 399.639 159.875 399.499 159.96 399.497L165.094 399.45C165.119 399.45 165.139 399.437 165.154 399.414L167.479 395.592C167.524 395.516 167.626 395.566 167.628 395.664L167.685 400.205C167.685 400.254 167.715 400.299 167.755 400.311L172.077 401.514C172.158 401.536 172.173 401.674 172.098 401.708L168.083 403.462C168.047 403.478 168.028 403.523 168.036 403.57L168.867 408.478C168.884 408.576 168.788 408.633 168.729 408.557L165.73 404.692C165.7 404.652 165.653 404.646 165.621 404.675L162.071 407.955C162.007 408.013 161.91 407.919 161.942 407.826Z" fill="#FFD44D"/>
</g>
</svg>
