<svg width="216" height="294" viewBox="0 0 216 294" fill="none" xmlns="http://www.w3.org/2000/svg">
<path opacity="0.39" d="M85.2171 293.602C132.281 293.602 170.434 285.733 170.434 276.027C170.434 266.321 132.281 258.453 85.2171 258.453C38.153 258.453 0 266.321 0 276.027C0 285.733 38.153 293.602 85.2171 293.602Z" fill="#7A5FFF"/>
<path d="M200.384 137.126C200.384 137.126 212.453 132.908 214.463 118.791C216.474 104.674 200.648 102.444 200.648 102.444C209.437 96.6699 208.57 85.0233 208.57 85.0233C211.021 64.1434 195.079 61.5162 195.079 61.5162C195.079 61.5162 202.04 54.8013 200.28 44.7998C196.86 25.3561 177.884 28.2094 177.884 28.2094C177.01 18.2476 170.469 9.74103 161.224 7.15866C161.084 7.11896 160.944 7.08096 160.804 7.04471C151.355 4.51585 141.333 8.75016 135.812 17.2568L135.037 18.4531C134.817 17.2137 134.346 15.9156 133.745 14.6434C130.64 8.0649 124.752 3.41627 117.932 1.56753C101.727 -2.82389 92.5257 9.18174 92.5257 9.18174C86.7044 0.0312405 70.8522 1.44494 70.8522 1.44494C35.8519 5.92439 40.4675 42.1967 40.4675 42.1967C40.4675 42.1967 25.7709 30.1358 12.6721 52.792C-0.428365 75.4464 18.2067 94.1203 18.2067 94.1203C14.9488 95.0525 11.3576 101.013 11.3576 101.013C1.25238 124.142 30.0444 134.147 30.0444 134.147C17.02 156.846 46.173 159.277 46.173 159.277C47.7933 172.482 58.9885 163.235 58.9885 163.235C56.7187 179.247 69.2613 173.085 69.2613 173.085C71.0957 182.895 80.1611 173.635 80.1611 173.635L81.8383 173.495C81.6621 177.533 84.5054 181.151 88.5959 181.793C92.2061 182.359 95.6004 180.414 97.0911 177.274C98.7995 181.042 102.543 183.982 107.248 184.721C114.254 185.82 120.739 181.636 121.896 175.348C122.979 177.329 124.912 178.821 127.317 179.197C130.58 179.71 133.656 178.027 135.12 175.263C139.383 187.84 150.153 179.275 150.153 179.275C158.477 186.651 163.252 176.779 163.252 176.779C163.252 176.779 170.717 184.244 180.812 173.249C186.471 167.084 182.778 155.46 182.778 155.46C182.778 155.46 191.987 164.285 200.218 156.113C209.319 147.073 200.384 137.126 200.384 137.126Z" fill="#1A0000" stroke="#1A0000" stroke-width="0.9416" stroke-miterlimit="10" stroke-linecap="round"/>
<path d="M25.931 18.7948C28.1679 18.6412 30.987 18.7948 31.0492 21.6792C31.0734 22.822 30.6554 24.1321 30.075 25.1074C29.7571 25.6408 29.3892 26.1897 28.7552 26.3934C27.5789 26.7715 26.9933 25.5096 27.553 24.6086C28.7397 22.7011 32.0321 22.9911 33.3242 24.5637C34.6024 26.1172 33.8389 28.7359 31.8766 29.2572C32.0701 29.5903 32.2653 29.9235 32.4587 30.2566C33.9996 29.0638 36.0016 30.3758 36.4075 32.0225C36.6269 32.9098 36.4957 33.8592 36.1795 34.7067C35.9584 35.3006 35.5905 35.8374 35.67 36.502C35.8185 37.7466 37.2833 38.6942 37.9397 39.6764C38.8622 41.0574 39.4391 42.5902 39.7362 44.218C39.8744 44.9741 41.0266 44.653 40.8901 43.9004C40.5394 41.974 39.7898 40.1529 38.6238 38.5751C37.8102 37.4738 36.791 36.9836 37.1866 35.3765C37.4077 34.4823 37.7342 33.7487 37.7031 32.7976C37.6029 29.725 34.3122 27.3221 31.6123 29.4108C31.1166 29.794 31.6624 30.5518 32.1945 30.4103C34.4884 29.7992 35.7062 27.1461 34.903 24.9487C34.0359 22.5717 31.0751 21.6119 28.795 22.3507C27.6445 22.7236 26.4872 23.5659 26.1814 24.795C25.9189 25.8497 26.3559 27.0598 27.3958 27.493C30.2667 28.691 31.9509 24.5706 32.1962 22.4405C32.3707 20.9266 31.9872 19.3834 30.7158 18.4444C29.3564 17.4397 27.5374 17.4932 25.9327 17.602C25.1675 17.6521 25.1606 18.8466 25.931 18.7948Z" fill="#1A0000"/>
<path d="M214.724 47.8724C212.314 46.3085 209.096 45.2399 207.295 48.2245C206.134 50.1492 205.36 54.2627 207.816 55.5436C208.822 56.0683 209.97 55.7611 210.616 54.8445C211.38 53.7604 211.119 52.3484 210.431 51.2971C209.063 49.2067 206.023 48.2107 203.802 49.552C201.605 50.8794 201.164 54.2247 203.017 56.0061C203.541 56.5085 204.209 55.8767 203.957 55.2812C202.574 52.0135 198.25 53.0302 196.882 55.711C196.493 56.4705 196.388 57.2386 196.232 58.0603C195.97 59.4464 194.603 59.4965 193.522 59.9781C191.705 60.7877 190.136 62.0271 188.879 63.5617C188.395 64.152 189.236 65.003 189.725 64.4075C190.8 63.0956 192.085 62.0185 193.605 61.2572C194.719 60.6997 196.635 60.5857 197.21 59.3084C197.46 58.7543 197.386 58.1017 197.507 57.5165C197.675 56.7001 198.037 55.8922 198.628 55.2932C199.903 54.0003 202.169 54.0987 202.926 55.8853C203.239 55.6437 203.551 55.402 203.866 55.1621C202.555 53.9019 202.872 51.5474 204.408 50.5842C206.294 49.4018 209.412 50.6792 209.834 52.899C209.974 53.6413 209.711 54.8168 208.6 54.5803C207.659 54.3801 207.472 53.1907 207.452 52.4209C207.426 51.4456 207.624 50.4081 207.996 49.5071C208.435 48.442 209.207 47.5254 210.437 47.4339C211.779 47.3355 213.052 48.2073 214.125 48.9029C214.767 49.3241 215.368 48.2901 214.724 47.8724Z" fill="#1A0000"/>
<path d="M50.7213 152.377L48.0145 148.228L45.1073 151.835L45.7931 146.12L42.6216 144.13L46.6153 143.941L48.5362 139.821L49.7298 144.178L53.8012 144.982L50.5935 146.748L50.7213 152.377Z" fill="white" stroke="white" stroke-width="0.2243" stroke-miterlimit="10" stroke-linecap="round"/>
<path d="M47.8389 106.627C47.8389 106.627 47.8199 46.5087 105.782 51.6113C160.723 56.4481 150.399 130.474 135.891 137.927L134.922 139.823C134.922 139.823 143.833 96.2246 124.488 74.4418C111.882 60.2474 90.6797 58.3676 75.2386 69.4169C67.1942 75.1737 55.3824 90.7111 47.8389 106.627Z" fill="#FFD44D" stroke="#FFD44D" stroke-width="0.8587" stroke-miterlimit="10"/>
<path d="M88.4656 167.651L89.2671 178.37H83.1037C82.3592 178.37 81.879 179.156 82.2193 179.819L90.4866 195.901H101.107L110.068 177.102C110.486 176.223 109.816 175.217 108.845 175.263L103.357 175.527V166.586L88.4656 167.651Z" fill="#B44A24" stroke="#B44A24" stroke-width="0.4592" stroke-miterlimit="10"/>
<mask id="mask0_1432_14586" style="mask-type:luminance" maskUnits="userSpaceOnUse" x="44" y="74" width="114" height="99">
<path d="M155.389 131.152C152.628 128.218 148.695 128.359 145.187 129.732C143.399 130.431 141.725 131.397 140.119 132.44C139.155 133.065 137.236 135.342 136.059 135.095C135.248 134.926 135.121 133.586 134.873 132.947C132.691 127.343 127.992 122.142 124.227 117.534C120.002 112.368 115.491 107.445 110.998 102.515C103.332 94.1032 96.2812 84.8577 91.5758 74.4385C90.1075 75.7556 87.1588 78.4104 86.5508 79.0422C80.6846 85.1425 74.2933 90.8303 67.4027 95.7551C64.2071 98.0389 60.8801 100.166 57.3356 101.868C54.1813 103.383 50.749 104.64 47.2079 104.674C47.1854 104.674 47.1699 104.664 47.1474 104.662C46.3425 107.224 45.712 109.867 45.2801 112.582C40.1412 144.865 56.7171 167.105 86.5698 171.79C104.191 174.555 121.159 167.352 132.171 154.249C136.464 158.599 144.897 157.228 151.252 151.052C157.74 144.749 160.099 136.163 155.389 131.152Z" fill="white"/>
</mask>
<g mask="url(#mask0_1432_14586)">
<path d="M155.389 131.152C152.628 128.218 148.695 128.359 145.187 129.732C143.399 130.431 141.725 131.397 140.119 132.44C139.155 133.065 137.236 135.342 136.059 135.095C135.248 134.926 135.121 133.586 134.873 132.947C132.691 127.343 127.992 122.142 124.227 117.534C120.002 112.368 115.491 107.445 110.998 102.515C103.332 94.1032 96.2812 84.8577 91.5758 74.4385C90.1075 75.7556 87.1588 78.4104 86.5508 79.0422C80.6846 85.1425 74.2933 90.8303 67.4027 95.7551C64.2071 98.0389 60.8801 100.166 57.3356 101.868C54.1813 103.383 50.749 104.64 47.2079 104.674C47.1854 104.674 47.1699 104.664 47.1474 104.662C46.3425 107.224 45.712 109.867 45.2801 112.582C40.1412 144.865 56.7171 167.105 86.5698 171.79C104.191 174.555 121.159 167.352 132.171 154.249C136.464 158.599 144.897 157.228 151.252 151.052C157.74 144.749 160.099 136.163 155.389 131.152Z" fill="#CD5428" stroke="#CD5428" stroke-width="0.8842" stroke-miterlimit="10"/>
</g>
<mask id="mask1_1432_14586" style="mask-type:luminance" maskUnits="userSpaceOnUse" x="44" y="74" width="114" height="99">
<path d="M155.389 131.152C152.628 128.218 148.695 128.359 145.187 129.732C143.399 130.431 141.725 131.397 140.119 132.44C139.155 133.065 137.236 135.342 136.059 135.095C135.248 134.926 135.121 133.586 134.873 132.947C132.691 127.343 127.992 122.142 124.227 117.534C120.002 112.368 115.491 107.445 110.998 102.515C103.332 94.1032 96.2812 84.8577 91.5758 74.4385C90.1075 75.7556 87.1588 78.4104 86.5508 79.0422C80.6846 85.1425 74.2933 90.8303 67.4027 95.7551C64.2071 98.0389 60.8801 100.166 57.3356 101.868C54.1813 103.383 50.749 104.64 47.2079 104.674C47.1854 104.674 47.1699 104.664 47.1474 104.662C46.3425 107.224 45.712 109.867 45.2801 112.582C40.1412 144.865 56.7171 167.105 86.5698 171.79C104.191 174.555 121.159 167.352 132.171 154.249C136.464 158.599 144.897 157.228 151.252 151.052C157.74 144.749 160.099 136.163 155.389 131.152Z" fill="white"/>
</mask>
<g mask="url(#mask1_1432_14586)">
<path opacity="0.49" d="M118.624 155.234C116.014 162.607 107.918 166.468 100.54 163.86C93.1626 161.252 89.2985 153.161 91.9085 145.788C94.5186 138.416 102.615 134.554 109.993 137.163C117.37 139.771 121.234 147.862 118.624 155.234Z" fill="#8B2A0C" stroke="#8B2A0C" stroke-width="1.0645" stroke-miterlimit="10"/>
</g>
<mask id="mask2_1432_14586" style="mask-type:luminance" maskUnits="userSpaceOnUse" x="44" y="74" width="114" height="99">
<path d="M155.389 131.152C152.628 128.218 148.695 128.359 145.187 129.732C143.399 130.431 141.725 131.397 140.119 132.44C139.155 133.065 137.236 135.342 136.059 135.095C135.248 134.926 135.121 133.586 134.873 132.947C132.691 127.343 127.992 122.142 124.227 117.534C120.002 112.368 115.491 107.445 110.998 102.515C103.332 94.1032 96.2812 84.8577 91.5758 74.4385C90.1075 75.7556 87.1588 78.4104 86.5508 79.0422C80.6846 85.1425 74.2933 90.8303 67.4027 95.7551C64.2071 98.0389 60.8801 100.166 57.3356 101.868C54.1813 103.383 50.749 104.64 47.2079 104.674C47.1854 104.674 47.1699 104.664 47.1474 104.662C46.3425 107.224 45.712 109.867 45.2801 112.582C40.1412 144.865 56.7171 167.105 86.5698 171.79C104.191 174.555 121.159 167.352 132.171 154.249C136.464 158.599 144.897 157.228 151.252 151.052C157.74 144.749 160.099 136.163 155.389 131.152Z" fill="white"/>
</mask>
<g mask="url(#mask2_1432_14586)">
<path opacity="0.49" d="M62.3715 143.683C60.0361 150.28 52.7897 153.738 46.1859 151.402C39.5838 149.068 36.1239 141.827 38.461 135.228C40.7965 128.63 48.0428 125.173 54.6466 127.508C61.2487 129.842 64.7069 137.083 62.3715 143.683Z" fill="#8B2A0C" stroke="#8B2A0C" stroke-width="0.9527" stroke-miterlimit="10"/>
</g>
<mask id="mask3_1432_14586" style="mask-type:luminance" maskUnits="userSpaceOnUse" x="44" y="74" width="114" height="99">
<path d="M155.389 131.152C152.628 128.218 148.695 128.359 145.187 129.732C143.399 130.431 141.725 131.397 140.119 132.44C139.155 133.065 137.236 135.342 136.059 135.095C135.248 134.926 135.121 133.586 134.873 132.947C132.691 127.343 127.992 122.142 124.227 117.534C120.002 112.368 115.491 107.445 110.998 102.515C103.332 94.1032 96.2812 84.8577 91.5758 74.4385C90.1075 75.7556 87.1588 78.4104 86.5508 79.0422C80.6846 85.1425 74.2933 90.8303 67.4027 95.7551C64.2071 98.0389 60.8801 100.166 57.3356 101.868C54.1813 103.383 50.749 104.64 47.2079 104.674C47.1854 104.674 47.1699 104.664 47.1474 104.662C46.3425 107.224 45.712 109.867 45.2801 112.582C40.1412 144.865 56.7171 167.105 86.5698 171.79C104.191 174.555 121.159 167.352 132.171 154.249C136.464 158.599 144.897 157.228 151.252 151.052C157.74 144.749 160.099 136.163 155.389 131.152Z" fill="white"/>
</mask>
<g mask="url(#mask3_1432_14586)">
<path d="M143.024 161.592L140.318 157.442L137.41 161.05L138.095 155.333L134.924 153.342L138.918 153.156L140.838 149.035L142.034 153.392L146.104 154.197L142.896 155.963L143.024 161.592Z" fill="white" stroke="white" stroke-width="0.2243" stroke-miterlimit="10" stroke-linecap="round"/>
<path d="M140.213 137.187C142.298 135.309 144.708 133.678 147.587 132.927C149.009 132.561 150.66 132.481 152.191 133.175C153.707 133.911 154.79 135.264 155.175 136.944C155.49 138.639 154.954 140.201 154.303 141.52C153.604 142.838 152.75 144.017 151.79 145.082C149.885 147.223 147.665 149.01 145.274 150.498C147.231 148.481 149.083 146.398 150.722 144.218C151.51 143.108 152.275 141.989 152.802 140.795C153.339 139.624 153.692 138.366 153.452 137.284C153.262 136.241 152.444 135.162 151.46 134.665C150.453 134.113 149.15 134.085 147.86 134.266C145.259 134.706 142.674 135.863 140.213 137.187Z" fill="#8B2A0C"/>
<path d="M132.065 154.371C132.709 153.503 133.195 152.536 133.656 151.571C134.108 150.599 134.511 149.602 134.855 148.585C135.585 146.565 136.116 144.478 136.646 142.381C136.518 143.455 136.347 144.525 136.105 145.583C135.857 146.638 135.565 147.684 135.209 148.709C134.461 150.736 133.556 152.778 132.065 154.371Z" fill="#8B2A0C"/>
<path d="M91.4335 72.3826C89.5247 73.2457 87.7248 74.5748 86.9078 76.5686C86.2237 78.2361 86.2928 80.342 87.5469 81.7333C88.6317 82.9365 90.7028 83.4906 91.9172 82.1562C92.8465 81.1343 92.8673 79.3495 91.5717 78.6227C89.9186 77.6958 87.5469 78.5226 86.2462 79.693C84.8314 80.9669 84.2113 83.0193 84.6241 84.8698C84.9973 86.5442 86.5087 88.1271 88.3467 87.5299C89.8374 87.0465 90.3401 84.9423 88.7854 84.1897C87.0062 83.3283 84.961 84.6903 84.2234 86.306C83.2371 88.462 84.3409 90.8407 85.766 92.4961C86.241 93.0484 87.0373 92.2458 86.5657 91.6969C85.5431 90.5093 84.6552 88.8504 85.0836 87.2364C85.2702 86.5356 85.7279 85.8952 86.3325 85.4912C86.7315 85.2254 88.7923 84.5176 88.6161 85.8278C88.4779 86.8532 86.9924 86.5321 86.5156 86.0954C85.9007 85.5309 85.6554 84.6385 85.6295 83.8289C85.5794 82.2529 86.4103 80.7477 87.7835 79.9709C88.6645 79.472 91.7324 78.7246 91.4525 80.6303C91.1744 82.5291 88.8372 81.7402 88.1169 80.6165C86.1442 77.5335 89.4557 74.511 92.0087 73.3562C92.6669 73.0593 92.0934 72.0857 91.4335 72.3826Z" fill="#1A0000"/>
<path d="M72.1841 129.549C72.647 128.19 73.4762 126.908 74.6767 125.977C75.8531 125.035 77.4768 124.505 79.0297 124.703C79.7949 124.79 80.5723 125.007 81.2719 125.397C81.9507 125.822 82.5432 126.388 82.9336 127.065C83.7403 128.408 83.8716 129.968 83.6263 131.377C83.4052 129.968 82.9405 128.617 82.1511 127.595C81.3617 126.566 80.1974 126.017 78.9053 125.908C77.6305 125.729 76.354 126.086 75.2139 126.752C74.079 127.439 73.0564 128.413 72.1841 129.549Z" fill="#8B2A0C"/>
<g opacity="0.53">
<path d="M72.2646 129.564C72.2646 129.564 74.9611 124.458 79.8738 125.701C84.0921 126.768 83.6291 131.822 83.6291 131.822" fill="#8B2A0C"/>
<path d="M72.2646 129.564C72.7777 128.225 73.6569 126.975 74.8903 126.089C76.1012 125.194 77.7439 124.724 79.2882 124.981C80.05 125.097 80.8169 125.342 81.5027 125.76C82.166 126.209 82.7361 126.799 83.1006 127.488C83.8571 128.86 83.928 130.426 83.6291 131.822C83.4616 130.407 83.0487 129.038 82.2973 127.988C81.5476 126.93 80.4041 126.338 79.1172 126.179C77.851 125.951 76.5607 126.26 75.3964 126.884C74.2373 127.529 73.1784 128.463 72.2646 129.564Z" fill="#8B2A0C"/>
</g>
<path d="M47.3432 115.56C46.8958 122.924 52.5495 129.247 59.9704 129.68C67.3912 130.113 73.7687 124.496 74.2144 117.132C74.6618 109.768 69.008 103.445 61.5872 103.012C54.1681 102.577 47.7906 108.196 47.3432 115.56Z" fill="white"/>
<path d="M53.8835 113.038C52.8781 118.622 56.212 123.953 61.3319 124.945C66.4519 125.938 71.4164 122.214 72.4235 116.632C73.4306 111.049 70.095 105.717 64.975 104.725C59.855 103.732 54.8888 107.454 53.8835 113.038Z" fill="#280707" stroke="#280707" stroke-width="0.8912" stroke-miterlimit="10"/>
<path d="M74.5326 114.408C73.8278 112.938 73.0401 111.52 72.0866 110.247C71.1642 108.959 70.1589 107.75 68.986 106.765C67.7924 105.81 66.5089 105.04 65.1494 104.495C63.7572 104.037 62.3217 103.737 60.8345 103.775C57.8115 103.766 54.8404 104.614 52.4981 106.413C50.0659 108.146 48.4595 110.997 47.5094 113.97L47.3505 114.469L46.9756 114.325C46.0878 113.987 45.2068 113.626 44.3345 113.233L44.3742 113.091L47.1104 113.837L47.0067 113.906C47.582 110.687 49.1435 107.576 51.6828 105.449C54.203 103.316 57.5576 102.282 60.8345 102.33C62.4858 102.323 64.1251 102.655 65.6608 103.255C67.1705 103.918 68.5541 104.844 69.746 105.979C72.0745 108.306 73.7207 111.243 74.676 114.376L74.5326 114.408Z" fill="black"/>
<path d="M47.4742 111.978L44.9419 109.929L48.1358 110.566L47.4742 111.978Z" fill="black"/>
<path d="M48.7395 108.99L46.627 106.647L49.605 107.692L48.7395 108.99Z" fill="black"/>
<path d="M70.451 126.269C68.8065 127.612 66.8736 128.617 64.8145 129.266C62.7572 129.922 60.5324 130.167 58.3438 129.884C57.2417 129.768 56.1897 129.402 55.1464 129.046C54.1721 128.525 53.153 128.087 52.3342 127.343C51.4221 126.73 50.7433 125.867 50.0247 125.073C49.3665 124.227 48.8362 123.286 48.3042 122.383C49.7656 123.923 51.1958 125.433 52.944 126.48C54.6264 127.6 56.5386 128.316 58.5234 128.542C60.5013 128.822 62.5413 128.665 64.5433 128.247C66.5402 127.798 68.5336 127.163 70.451 126.269Z" fill="black"/>
<path d="M120.191 128.603C118.29 136.224 110.301 140.888 102.345 139.022C94.3886 137.154 89.4776 129.463 91.376 121.841C93.2762 114.22 101.265 109.556 109.223 111.422C117.18 113.288 122.089 120.98 120.191 128.603Z" fill="white"/>
<path d="M120.154 125.125C119.43 131.013 114.322 135.321 108.743 134.75C103.163 134.178 99.2267 128.941 99.9505 123.053C100.674 117.165 105.782 112.857 111.362 113.428C116.941 114.001 120.878 119.237 120.154 125.125Z" fill="#280707" stroke="#280707" stroke-width="0.945" stroke-miterlimit="10"/>
<path d="M91.9634 119.449C93.5526 116.297 96.0677 113.583 99.2685 111.728C100.872 110.795 102.694 110.212 104.578 109.972C106.465 109.81 108.401 109.913 110.217 110.44C113.797 111.382 117.133 113.649 119.244 116.822C120.294 118.413 120.842 120.26 121.139 122.064C121.443 123.887 121.372 125.708 120.932 127.498L120.496 126.966C121.51 127.091 122.524 127.239 123.536 127.424L123.533 127.579L120.483 127.508L120.386 127.507L120.398 127.405C120.806 124.009 120.096 120.403 118.14 117.571C116.181 114.731 113.091 112.827 109.793 111.9C108.152 111.381 106.418 111.255 104.708 111.356C103.003 111.552 101.334 112.026 99.7798 112.77C96.7068 114.324 94.0725 116.723 92.0946 119.533L91.9634 119.449Z" fill="black"/>
<path d="M120.467 123.737L123.949 124.089L120.695 125.375L120.467 123.737Z" fill="black"/>
<path d="M119.869 120.416L123.251 120.295L120.33 122.004L119.869 120.416Z" fill="black"/>
<path d="M92.564 132.628C93.4259 133.364 94.2879 134.075 95.2242 134.682C96.1189 135.337 97.0638 135.917 98.0346 136.426C99.9762 137.437 102.02 138.219 104.137 138.535C106.247 138.913 108.425 138.774 110.51 138.187C112.643 137.7 114.571 136.585 116.569 135.509C115.73 136.253 114.884 137.039 113.937 137.683C112.942 138.249 111.964 138.887 110.847 139.238C109.779 139.744 108.598 139.861 107.44 140.085C106.266 140.122 105.077 140.17 103.915 139.951C101.591 139.568 99.3785 138.667 97.468 137.367C95.561 136.076 93.844 134.51 92.564 132.628Z" fill="black"/>
<path opacity="0.49" d="M85.26 136.804C84.88 139.203 82.4081 143.507 76.9081 142.759C73.1044 142.243 70.6325 137.859 71.0126 135.459C71.0126 135.459 74.6746 134.693 78.5267 134.928C81.2041 135.092 85.26 136.804 85.26 136.804Z" fill="#8B2A0C"/>
<path d="M68.541 133.281C69.9609 134.5 71.4568 135.549 73.0201 136.398C74.592 137.227 76.2555 137.826 77.9587 137.988C79.6515 138.175 81.4014 137.988 83.0424 137.344C83.9044 137.125 84.6558 136.619 85.4918 136.26C86.2899 135.829 87.0327 135.292 87.8739 134.845C87.2676 135.547 86.6371 136.262 85.9271 136.894C85.1498 137.431 84.4347 138.112 83.5226 138.468C81.8177 139.416 79.7569 139.74 77.7912 139.545C75.815 139.324 73.9425 138.554 72.3793 137.434C70.816 136.314 69.4669 134.921 68.541 133.281Z" fill="#3B130E"/>
<path d="M51.7957 98.9711C52.155 97.2035 53.1517 95.5809 54.4939 94.3311C55.8153 93.0417 57.4874 92.1388 59.2338 91.5502C61.0078 91.0444 62.8458 90.8442 64.6353 91.0255C65.5284 91.0824 66.399 91.3259 67.2575 91.5106C68.0953 91.8403 68.9279 92.1061 69.7121 92.5221L69.7294 92.5307C69.7674 92.5514 69.7812 92.5981 69.7622 92.6343C69.7467 92.6636 69.7138 92.6791 69.6827 92.674L67.178 92.3304C66.3368 92.3097 65.4956 92.2166 64.6561 92.2545C62.9753 92.2977 61.3032 92.5514 59.7036 93.0434C56.5304 94.0325 53.5818 96.0987 51.9391 99.0384C51.9183 99.0764 51.8699 99.0902 51.8337 99.0678C51.8026 99.0505 51.7888 99.016 51.7957 98.9849V98.9711Z" fill="#2E2E2E"/>
<path d="M122.657 109.021C121.695 107.573 120.569 106.395 119.438 105.325C118.275 104.281 117.045 103.376 115.705 102.624C115.028 102.256 114.354 101.88 113.622 101.597C112.929 101.217 112.158 101.025 111.419 100.697L106.641 99.085L106.615 99.0764C106.576 99.0626 106.555 99.0194 106.567 98.9797C106.579 98.9469 106.61 98.9262 106.643 98.928L109.182 99.0781C110.018 99.2214 110.868 99.2956 111.694 99.4976C113.354 99.8704 114.967 100.45 116.473 101.262C119.408 102.976 121.847 105.686 122.808 108.986C122.82 109.026 122.796 109.068 122.756 109.08C122.723 109.088 122.69 109.076 122.673 109.049L122.657 109.021Z" fill="#2E2E2E"/>
</g>
<path d="M33.736 264.386C33.736 264.386 44.9743 189.314 71.2029 210.66L72.1927 264.386L60.1373 261.391L52.6025 278.34L25.6328 274.094C25.6328 274.094 28.4415 270.932 33.736 264.386Z" fill="#9E332D" stroke="#9E332D" stroke-width="0.7319" stroke-miterlimit="10"/>
<path opacity="0.49" d="M69.467 215.373C68.8555 217.739 65.0207 218.804 60.8992 217.753C56.7776 216.702 53.9326 213.929 54.5441 211.563C55.1556 209.196 58.9904 208.131 63.112 209.182C67.2318 210.234 70.0768 213.006 69.467 215.373Z" fill="#8B2A0C" stroke="#8B2A0C" stroke-width="0.4387" stroke-miterlimit="10"/>
<path d="M35.933 252.841C34.4474 259.623 33.734 264.384 33.734 264.384C28.4396 270.93 25.6309 274.09 25.6309 274.09L52.6005 278.337L59.6224 262.542C51.8422 259.036 43.9377 255.808 35.933 252.841Z" fill="white" stroke="white" stroke-width="0.7319" stroke-miterlimit="10"/>
<path d="M44.6476 266.261C42.5938 265.748 40.5434 265.222 38.5154 264.612C37.0178 264.162 35.5132 263.342 33.9603 262.986C33.81 263.884 33.734 264.384 33.734 264.384C28.4396 270.93 25.6309 274.091 25.6309 274.091L52.6005 278.337L56.5269 269.504C52.5694 268.411 48.6362 267.257 44.6476 266.261Z" fill="black" stroke="black" stroke-width="0.7319" stroke-miterlimit="10"/>
<path d="M65.4681 220.674C63.1361 234.278 61.692 248.075 62.0634 261.867L72.1928 264.384L71.203 210.658C70.037 209.709 68.9004 208.956 67.7897 208.369C66.9657 212.462 66.1728 216.56 65.4681 220.674Z" fill="#7A5FFF" stroke="#7A5FFF" stroke-width="0.6888" stroke-miterlimit="10"/>
<path d="M78.7104 179.967C78.7104 179.967 69.7556 177.69 70.1702 215.987C70.5847 254.286 70.1564 267.327 70.1564 267.327C70.1564 267.327 58.9836 271.467 61.262 272.088C63.5405 272.709 83.2206 270.225 83.2206 270.225C83.2206 270.225 89.9435 201.083 78.7104 179.967Z" fill="#B44A24" stroke="#B44A24" stroke-width="0.7324" stroke-miterlimit="10"/>
<path d="M84.2381 209.105C84.3763 209.075 84.5128 209.036 84.6527 209.005C83.8547 197.097 82.1031 186.341 78.7105 179.967C78.7105 179.967 70.8751 177.98 70.2031 209.082C74.7513 210.284 79.6416 210.083 84.2381 209.105Z" fill="white" stroke="white" stroke-width="0.7324" stroke-miterlimit="10"/>
<mask id="mask4_1432_14586" style="mask-type:luminance" maskUnits="userSpaceOnUse" x="78" y="174" width="68" height="101">
<path d="M84.6894 178.368C84.6894 178.368 86.9195 187.472 96.237 187.024C105.555 186.575 106.601 175.37 106.601 175.37C106.601 175.37 114.28 172.539 120.856 181.243C127.432 189.944 131.084 216.41 131.084 216.41C131.084 216.41 166.884 261.493 124.507 273.357C124.507 273.357 101.493 277.555 88.3428 268.246L78.4795 179.941C78.4795 179.941 80.1101 178.368 84.6894 178.368Z" fill="white"/>
</mask>
<g mask="url(#mask4_1432_14586)">
<path d="M84.6894 178.368C84.6894 178.368 86.9195 187.472 96.237 187.024C105.555 186.575 106.601 175.37 106.601 175.37C106.601 175.37 114.28 172.539 120.856 181.243C127.432 189.944 131.084 216.41 131.084 216.41C131.084 216.41 166.884 261.493 124.507 273.357C124.507 273.357 101.493 277.555 88.3428 268.246L78.4795 179.941C78.4795 179.941 80.1101 178.368 84.6894 178.368Z" fill="#7A5FFF" stroke="#7A5FFF" stroke-width="0.6888" stroke-miterlimit="10"/>
</g>
<mask id="mask5_1432_14586" style="mask-type:luminance" maskUnits="userSpaceOnUse" x="78" y="174" width="68" height="101">
<path d="M84.6894 178.368C84.6894 178.368 86.9195 187.472 96.237 187.024C105.555 186.575 106.601 175.37 106.601 175.37C106.601 175.37 114.28 172.539 120.856 181.243C127.432 189.944 131.084 216.41 131.084 216.41C131.084 216.41 166.884 261.493 124.507 273.357C124.507 273.357 101.493 277.555 88.3428 268.246L78.4795 179.941C78.4795 179.941 80.1101 178.368 84.6894 178.368Z" fill="white"/>
</mask>
<g mask="url(#mask5_1432_14586)">
<path d="M89.1862 219.959L83.8485 205.63C83.8019 205.504 83.6654 205.414 83.5445 205.43L72.1144 206.842C71.8829 206.871 71.6895 206.559 71.8536 206.421L81.7774 198.106C81.824 198.068 81.8448 198.006 81.8344 197.936L80.1796 186.547C80.1467 186.323 80.4249 186.259 80.5855 186.452L88.0392 195.477C88.1204 195.575 88.2499 195.616 88.3466 195.575L98.711 191.068C98.9062 190.983 99.1583 191.237 99.0651 191.424L94.0815 201.372C94.0366 201.46 94.0729 201.582 94.1645 201.665L103.717 210.184C103.909 210.355 103.812 210.62 103.579 210.562L91.4888 207.603C91.3679 207.574 91.2642 207.634 91.2504 207.746L89.6405 220.011C89.6128 220.237 89.276 220.199 89.1862 219.959Z" fill="#FFD44D"/>
</g>
<mask id="mask6_1432_14586" style="mask-type:luminance" maskUnits="userSpaceOnUse" x="78" y="174" width="68" height="101">
<path d="M84.6894 178.368C84.6894 178.368 86.9195 187.472 96.237 187.024C105.555 186.575 106.601 175.37 106.601 175.37C106.601 175.37 114.28 172.539 120.856 181.243C127.432 189.944 131.084 216.41 131.084 216.41C131.084 216.41 166.884 261.493 124.507 273.357C124.507 273.357 101.493 277.555 88.3428 268.246L78.4795 179.941C78.4795 179.941 80.1101 178.368 84.6894 178.368Z" fill="white"/>
</mask>
<g mask="url(#mask6_1432_14586)">
<path d="M129.818 247.19L130.782 231.961C130.79 231.827 130.702 231.689 130.585 231.652L119.554 228.183C119.329 228.112 119.281 227.748 119.486 227.693L131.955 224.269C132.013 224.254 132.057 224.206 132.076 224.14L135.209 213.111C135.271 212.894 135.551 212.951 135.619 213.194L138.755 224.485C138.79 224.608 138.892 224.701 138.996 224.703L150.315 224.92C150.529 224.925 150.657 225.26 150.495 225.39L141.879 232.35C141.803 232.412 141.784 232.536 141.835 232.65L147.099 244.355C147.204 244.592 147.009 244.79 146.817 244.642L136.966 236.931C136.867 236.853 136.748 236.867 136.69 236.962L130.215 247.428C130.096 247.62 129.802 247.443 129.818 247.19Z" fill="#FFD44D"/>
</g>
<mask id="mask7_1432_14586" style="mask-type:luminance" maskUnits="userSpaceOnUse" x="78" y="174" width="68" height="101">
<path d="M84.6894 178.368C84.6894 178.368 86.9195 187.472 96.237 187.024C105.555 186.575 106.601 175.37 106.601 175.37C106.601 175.37 114.28 172.539 120.856 181.243C127.432 189.944 131.084 216.41 131.084 216.41C131.084 216.41 166.884 261.493 124.507 273.357C124.507 273.357 101.493 277.555 88.3428 268.246L78.4795 179.941C78.4795 179.941 80.1101 178.368 84.6894 178.368Z" fill="white"/>
</mask>
<g mask="url(#mask7_1432_14586)">
<path d="M88.8215 276.057L81.2746 262.763C81.2089 262.646 81.0604 262.58 80.9412 262.615L69.9015 265.87C69.6769 265.936 69.4368 265.66 69.5767 265.496L78.0288 255.665C78.0685 255.619 78.0789 255.555 78.0582 255.489L74.6103 244.502C74.5429 244.286 74.8055 244.177 74.9938 244.343L83.781 252.049C83.8777 252.133 84.0125 252.152 84.0988 252.097L93.5943 245.957C93.7739 245.841 94.0624 246.05 94.0002 246.251L90.6767 256.892C90.6473 256.987 90.7009 257.101 90.8045 257.169L101.58 264.034C101.798 264.172 101.744 264.448 101.504 264.431L89.1169 263.474C88.9925 263.464 88.901 263.542 88.9044 263.654L89.2758 276.036C89.2879 276.262 88.9476 276.279 88.8215 276.057Z" fill="#FFD44D"/>
</g>
<mask id="mask8_1432_14586" style="mask-type:luminance" maskUnits="userSpaceOnUse" x="78" y="174" width="68" height="101">
<path d="M84.6894 178.368C84.6894 178.368 86.9195 187.472 96.237 187.024C105.555 186.575 106.601 175.37 106.601 175.37C106.601 175.37 114.28 172.539 120.856 181.243C127.432 189.944 131.084 216.41 131.084 216.41C131.084 216.41 166.884 261.493 124.507 273.357C124.507 273.357 101.493 277.555 88.3428 268.246L78.4795 179.941C78.4795 179.941 80.1101 178.368 84.6894 178.368Z" fill="white"/>
</mask>
<g mask="url(#mask8_1432_14586)">
<path d="M112.153 193.214L112.504 187.681C112.507 187.633 112.474 187.583 112.431 187.569L108.423 186.309C108.342 186.283 108.325 186.152 108.399 186.131L112.929 184.888C112.949 184.883 112.965 184.866 112.972 184.842L114.11 180.835C114.132 180.756 114.234 180.776 114.259 180.864L115.399 184.966C115.411 185.011 115.449 185.044 115.487 185.045L119.598 185.125C119.676 185.126 119.722 185.247 119.664 185.296L116.534 187.824C116.506 187.847 116.499 187.892 116.518 187.933L118.43 192.185C118.468 192.271 118.397 192.344 118.328 192.288L114.749 189.487C114.713 189.459 114.67 189.464 114.649 189.497L112.296 193.298C112.253 193.371 112.148 193.307 112.153 193.214Z" fill="#FFD44D"/>
</g>
<mask id="mask9_1432_14586" style="mask-type:luminance" maskUnits="userSpaceOnUse" x="78" y="174" width="68" height="101">
<path d="M84.6894 178.368C84.6894 178.368 86.9195 187.472 96.237 187.024C105.555 186.575 106.601 175.37 106.601 175.37C106.601 175.37 114.28 172.539 120.856 181.243C127.432 189.944 131.084 216.41 131.084 216.41C131.084 216.41 166.884 261.493 124.507 273.357C124.507 273.357 101.493 277.555 88.3428 268.246L78.4795 179.941C78.4795 179.941 80.1101 178.368 84.6894 178.368Z" fill="white"/>
</mask>
<g mask="url(#mask9_1432_14586)">
<path d="M104.559 237.694L103.31 232.282C103.3 232.234 103.255 232.196 103.21 232.196L99.0226 232.154C98.938 232.153 98.8827 232.032 98.9483 231.99L102.918 229.477C102.937 229.465 102.947 229.444 102.947 229.42L102.888 225.243C102.887 225.16 102.99 225.151 103.039 225.227L105.3 228.832C105.324 228.871 105.369 228.892 105.405 228.882L109.354 227.758C109.428 227.737 109.508 227.841 109.465 227.903L107.198 231.241C107.178 231.271 107.185 231.317 107.214 231.35L110.256 234.873C110.316 234.944 110.27 235.034 110.188 235.003L105.97 233.358C105.927 233.34 105.887 233.358 105.877 233.397L104.718 237.732C104.699 237.815 104.58 237.785 104.559 237.694Z" fill="#FFD44D"/>
</g>
<mask id="mask10_1432_14586" style="mask-type:luminance" maskUnits="userSpaceOnUse" x="78" y="174" width="68" height="101">
<path d="M84.6894 178.368C84.6894 178.368 86.9195 187.472 96.237 187.024C105.555 186.575 106.601 175.37 106.601 175.37C106.601 175.37 114.28 172.539 120.856 181.243C127.432 189.944 131.084 216.41 131.084 216.41C131.084 216.41 166.884 261.493 124.507 273.357C124.507 273.357 101.493 277.555 88.3428 268.246L78.4795 179.941C78.4795 179.941 80.1101 178.368 84.6894 178.368Z" fill="white"/>
</mask>
<g mask="url(#mask10_1432_14586)">
<path d="M121.625 275.841L121.976 270.308C121.979 270.26 121.947 270.21 121.905 270.196L117.898 268.936C117.816 268.91 117.799 268.779 117.873 268.758L122.403 267.515C122.423 267.51 122.441 267.493 122.448 267.469L123.586 263.462C123.608 263.383 123.71 263.404 123.734 263.492L124.875 267.593C124.887 267.638 124.925 267.671 124.961 267.673L129.072 267.752C129.15 267.754 129.196 267.875 129.138 267.923L126.008 270.452C125.98 270.474 125.973 270.519 125.992 270.56L127.904 274.812C127.942 274.898 127.871 274.971 127.802 274.916L124.223 272.114C124.187 272.086 124.144 272.09 124.123 272.124L121.772 275.925C121.725 275.996 121.618 275.934 121.625 275.841Z" fill="#FFD44D"/>
</g>
<path d="M93.1045 215.373C93.1045 215.373 95.4797 189.495 106.597 175.37C106.597 175.37 116.49 172.222 122.696 184.225C123.577 185.931 123.498 187.983 122.43 189.58L104.146 216.949L93.1045 215.373Z" fill="#9E332D" stroke="#9E332D" stroke-width="0.7319" stroke-miterlimit="10"/>
<path d="M107.776 199.763C110.189 200.296 112.775 200.36 115.288 200.27L122.431 189.58C123.498 187.983 123.578 185.933 122.697 184.225C116.49 172.222 106.598 175.37 106.598 175.37C102.357 180.758 99.3927 187.852 97.3423 194.57C100.515 196.861 103.818 198.889 107.776 199.763Z" fill="white" stroke="white" stroke-width="0.7324" stroke-miterlimit="10"/>
<path d="M70.4499 269.539C70.4499 269.539 78.5082 195.188 105.784 202.336C105.784 202.336 115.891 205.768 127.336 231.789C127.336 231.789 125.332 254.664 92.5657 270.654L83.1618 281.693L70.1753 280.904L70.4499 269.539Z" fill="#CD5428" stroke="#CD5428" stroke-width="0.9305" stroke-miterlimit="10"/>
<path d="M97.407 259.81C97.2982 259.825 97.179 259.818 97.0477 259.77C89.1673 256.944 79.9397 257.813 71.7415 256.905C70.4529 264.23 69.7671 269.299 69.7671 269.299L70.173 280.904L83.1595 281.693L92.5634 270.654C92.9227 270.479 93.2561 270.298 93.6085 270.122C94.0766 268.691 94.5464 267.262 95.1303 265.867C95.9646 263.878 96.9371 261.948 97.6367 259.906C97.5607 259.875 97.4847 259.841 97.407 259.81Z" fill="white"/>
<path d="M92.9067 271.467C94.3508 267.738 95.8329 264.023 97.3617 260.331L102.012 249.278L106.829 238.298C108.457 234.647 110.131 231.017 111.844 227.402C110.4 231.133 108.92 234.846 107.389 238.538L102.739 249.589L97.9196 260.569C96.2942 264.22 94.6186 267.852 92.9067 271.467Z" fill="#8B2A0C"/>
<path d="M70.6173 269.269C70.5654 269.269 70.5292 269.25 70.4825 269.242C70.4618 269.43 70.4497 269.539 70.4497 269.539L70.1733 280.905L87.8358 282.333L92.3011 270.964C85.4158 268.822 77.6754 269.266 70.6173 269.269Z" fill="black" stroke="black" stroke-width="0.9305" stroke-miterlimit="10"/>
<path d="M70.1744 276.202C70.1744 276.202 62.2768 281.82 62.8019 281.694C63.3253 281.568 83.1609 281.694 83.1609 281.694" fill="black"/>
<path d="M70.1744 276.202C70.1744 276.202 62.2768 281.82 62.8019 281.694C63.3253 281.568 83.1609 281.694 83.1609 281.694" stroke="black" stroke-width="0.9305" stroke-miterlimit="10"/>
<path opacity="0.49" d="M106.448 211.615C106.334 214.055 102.798 215.882 98.5484 215.694C94.2991 215.505 90.9479 213.374 91.0619 210.933C91.1759 208.492 94.7136 206.666 98.9612 206.854C103.211 207.04 106.562 209.172 106.448 211.615Z" fill="#8B2A0C" stroke="#8B2A0C" stroke-width="0.4387" stroke-miterlimit="10"/>
</svg>
