<svg width="99" height="16" viewBox="0 0 99 16" fill="none" xmlns="http://www.w3.org/2000/svg">
<g id="group">
<g id="group_2">
<g id="group_3">
<path id="vector" d="M5.70029 5.14618C5.70029 5.14618 2.54757 5.49769 0.444426 5.7327C0.254864 5.7558 0.0872511 5.88335 0.0243963 6.07719C-0.0384586 6.27102 0.0243961 6.47289 0.164073 6.60044C1.72646 8.03563 4.07404 10.1849 4.07404 10.1849C4.07205 10.1849 3.42953 13.3114 3.00252 15.3973C2.9666 15.5862 3.03444 15.786 3.19807 15.9055C3.36069 16.0251 3.57021 16.0271 3.73483 15.9337C5.57458 14.8811 8.33021 13.2983 8.33021 13.2983C8.33021 13.2983 11.0868 14.8811 12.9236 15.9347C13.0912 16.0271 13.3007 16.0251 13.4634 15.9055C13.627 15.786 13.6948 15.5862 13.6579 15.3984C13.2309 13.3114 12.5894 10.1849 12.5894 10.1849C12.5894 10.1849 14.9369 8.03563 16.4993 6.60346C16.639 6.47189 16.7009 6.27002 16.639 6.07719C16.5772 5.88436 16.4095 5.75681 16.22 5.73471C14.1168 5.49769 10.9631 5.14618 10.9631 5.14618C10.9631 5.14618 9.65615 2.23563 8.78516 0.295273C8.70335 0.121524 8.53174 0 8.33021 0C8.12868 0 7.95607 0.122528 7.87825 0.295273C7.00627 2.23563 5.70029 5.14618 5.70029 5.14618Z" fill="#FBBF24"/>
</g>
</g>
<g id="group_4">
<g id="group_5">
<path id="vector_2" d="M26.2833 5.14618C26.2833 5.14618 23.1306 5.49769 21.0274 5.7327C20.8379 5.7558 20.6703 5.88335 20.6074 6.07719C20.5445 6.27102 20.6074 6.47289 20.7471 6.60044C22.3095 8.03563 24.657 10.1849 24.657 10.1849C24.6551 10.1849 24.0125 13.3114 23.5855 15.3973C23.5496 15.5862 23.6175 15.786 23.7811 15.9055C23.9437 16.0251 24.1532 16.0271 24.3178 15.9337C26.1576 14.8811 28.9132 13.2983 28.9132 13.2983C28.9132 13.2983 31.6699 14.8811 33.5066 15.9347C33.6742 16.0271 33.8837 16.0251 34.0464 15.9055C34.21 15.786 34.2778 15.5862 34.2409 15.3984C33.8139 13.3114 33.1724 10.1849 33.1724 10.1849C33.1724 10.1849 35.52 8.03563 37.0823 6.60346C37.222 6.47189 37.2839 6.27002 37.222 6.07719C37.1602 5.88436 36.9926 5.75681 36.803 5.73471C34.6999 5.49769 31.5461 5.14618 31.5461 5.14618C31.5461 5.14618 30.2392 2.23563 29.3682 0.295273C29.2864 0.121524 29.1148 0 28.9132 0C28.7117 0 28.5391 0.122528 28.4613 0.295273C27.5893 2.23563 26.2833 5.14618 26.2833 5.14618Z" fill="#FBBF24"/>
</g>
</g>
<g id="group_6">
<g id="group_7">
<path id="vector_3" d="M46.8702 5.14618C46.8702 5.14618 43.7175 5.49769 41.6143 5.7327C41.4248 5.7558 41.2572 5.88335 41.1943 6.07719C41.1315 6.27102 41.1943 6.47289 41.334 6.60044C42.8964 8.03563 45.244 10.1849 45.244 10.1849C45.242 10.1849 44.5995 13.3114 44.1724 15.3973C44.1365 15.5862 44.2044 15.786 44.368 15.9055C44.5306 16.0251 44.7401 16.0271 44.9047 15.9337C46.7445 14.8811 49.5001 13.2983 49.5001 13.2983C49.5001 13.2983 52.2568 14.8811 54.0935 15.9347C54.2611 16.0271 54.4707 16.0251 54.6333 15.9055C54.7969 15.786 54.8647 15.5862 54.8278 15.3984C54.4008 13.3114 53.7593 10.1849 53.7593 10.1849C53.7593 10.1849 56.1069 8.03563 57.6693 6.60346C57.8089 6.47189 57.8708 6.27002 57.8089 6.07719C57.7471 5.88436 57.5795 5.75681 57.3899 5.73471C55.2868 5.49769 52.1331 5.14618 52.1331 5.14618C52.1331 5.14618 50.8261 2.23563 49.9551 0.295273C49.8733 0.121524 49.7017 0 49.5001 0C49.2986 0 49.126 0.122528 49.0482 0.295273C48.1762 2.23563 46.8702 5.14618 46.8702 5.14618Z" fill="#FBBF24"/>
</g>
</g>
<g id="group_8">
<g id="group_9">
<path id="vector_4" d="M67.4503 5.14618C67.4503 5.14618 64.2976 5.49769 62.1944 5.7327C62.0049 5.7558 61.8373 5.88335 61.7744 6.07719C61.7115 6.27102 61.7744 6.47289 61.9141 6.60044C63.4765 8.03563 65.824 10.1849 65.824 10.1849C65.822 10.1849 65.1795 13.3114 64.7525 15.3973C64.7166 15.5862 64.7844 15.786 64.9481 15.9055C65.1107 16.0251 65.3202 16.0271 65.4848 15.9337C67.3246 14.8811 70.0802 13.2983 70.0802 13.2983C70.0802 13.2983 72.8368 14.8811 74.6736 15.9347C74.8412 16.0271 75.0507 16.0251 75.2134 15.9055C75.377 15.786 75.4448 15.5862 75.4079 15.3984C74.9809 13.3114 74.3394 10.1849 74.3394 10.1849C74.3394 10.1849 76.6869 8.03563 78.2493 6.60346C78.389 6.47189 78.4509 6.27002 78.389 6.07719C78.3272 5.88436 78.1595 5.75681 77.97 5.73471C75.8668 5.49769 72.7131 5.14618 72.7131 5.14618C72.7131 5.14618 71.4061 2.23563 70.5352 0.295273C70.4533 0.121524 70.2817 0 70.0802 0C69.8787 0 69.7061 0.122528 69.6283 0.295273C68.7563 2.23563 67.4503 5.14618 67.4503 5.14618Z" fill="#FBBF24"/>
</g>
</g>
<g id="group_10">
<g id="group_11">
<path id="vector_5" d="M88.0372 5.14618C88.0372 5.14618 84.8845 5.49769 82.7813 5.7327C82.5918 5.7558 82.4242 5.88335 82.3613 6.07719C82.2985 6.27102 82.3613 6.47289 82.501 6.60044C84.0634 8.03563 86.411 10.1849 86.411 10.1849C86.409 10.1849 85.7664 13.3114 85.3394 15.3973C85.3035 15.5862 85.3714 15.786 85.535 15.9055C85.6976 16.0251 85.9071 16.0271 86.0717 15.9337C87.9115 14.8811 90.6671 13.2983 90.6671 13.2983C90.6671 13.2983 93.4238 14.8811 95.2605 15.9347C95.4281 16.0271 95.6376 16.0251 95.8003 15.9055C95.9639 15.786 96.0317 15.5862 95.9948 15.3984C95.5678 13.3114 94.9263 10.1849 94.9263 10.1849C94.9263 10.1849 97.2739 8.03563 98.8363 6.60346C98.9759 6.47189 99.0378 6.27002 98.9759 6.07719C98.9141 5.88436 98.7465 5.75681 98.5569 5.73471C96.4538 5.49769 93.3 5.14618 93.3 5.14618C93.3 5.14618 91.9931 2.23563 91.1221 0.295273C91.0403 0.121524 90.8687 0 90.6671 0C90.4656 0 90.293 0.122528 90.2152 0.295273C89.3432 2.23563 88.0372 5.14618 88.0372 5.14618Z" fill="#FBBF24"/>
</g>
</g>
</g>
</svg>
