<svg width="29" height="33" viewBox="0 0 29 33" fill="none" xmlns="http://www.w3.org/2000/svg">
<g id="frame" clip-path="url(#clip0_1437_18825)">
<path id="vector" d="M6.15182 14.2263C5.44286 14.2263 4.77225 14.3686 4.1406 14.5913V14.2263C4.1406 12.0423 5.94441 10.2667 8.16303 10.2667C9.2736 10.2667 10.1743 9.38014 10.1743 8.28692C10.1743 7.1937 9.27549 6.30713 8.16303 6.30713C3.72704 6.30713 0.118164 9.85838 0.118164 14.2263V20.1657C0.118164 23.4459 2.81948 26.1051 6.15182 26.1051C9.48415 26.1051 12.1855 23.4459 12.1855 20.1657C12.1855 16.8854 9.48289 14.2263 6.15182 14.2263ZM22.2416 14.2263C21.5326 14.2263 20.862 14.3689 20.2303 14.59V14.2263C20.2303 12.0423 22.0341 10.2667 24.2528 10.2667C25.3633 10.2667 26.264 9.38014 26.264 8.28692C26.264 7.1937 25.3633 6.30713 24.2528 6.30713C19.8168 6.30713 16.2079 9.85962 16.2079 14.2263V20.1657C16.2079 23.4459 18.9092 26.1051 22.2416 26.1051C25.5739 26.1051 28.2752 23.4459 28.2752 20.1657C28.2752 16.8854 25.5726 14.2263 22.2416 14.2263Z" fill="white"/>
</g>
<defs>
<clipPath id="clip0_1437_18825">
<rect width="28.157" height="31.6767" fill="white" transform="translate(0.118164 0.367676)"/>
</clipPath>
</defs>
</svg>
