<svg width="92" height="27" viewBox="0 0 92 27" fill="none" xmlns="http://www.w3.org/2000/svg">
<path d="M29.7395 19.8603C29.7395 19.8603 31.6053 19.2652 31.9161 17.2736C32.2269 15.282 29.7804 14.9674 29.7804 14.9674C31.1391 14.1528 31.005 12.5097 31.005 12.5097C31.3839 9.56399 28.9195 9.19335 28.9195 9.19335C28.9195 9.19335 29.9956 8.24603 29.7235 6.83503C29.1948 4.09194 26.2614 4.49448 26.2614 4.49448C26.1263 3.08909 25.1151 1.88899 23.6859 1.52467C23.6643 1.51907 23.6426 1.51371 23.621 1.5086C22.1603 1.15183 20.611 1.7492 19.7576 2.9493L19.6377 3.11807C19.6038 2.94322 19.5309 2.76009 19.4379 2.58061C18.9581 1.65253 18.0478 0.996704 16.9935 0.735886C14.4885 0.116352 13.066 1.81009 13.066 1.81009C12.1661 0.519149 9.71552 0.718592 9.71552 0.718592C4.30489 1.35055 5.01841 6.46779 5.01841 6.46779C5.01841 6.46779 2.74649 4.76626 0.721575 7.96256C-1.3036 11.1586 1.57715 13.7931 1.57715 13.7931C1.07353 13.9246 0.518362 14.7655 0.518362 14.7655C-1.04378 18.0285 3.40713 19.44 3.40713 19.44C1.3937 22.6424 5.90042 22.9853 5.90042 22.9853C6.1509 24.8483 7.88153 23.5437 7.88153 23.5437C7.53065 25.8026 9.46958 24.9333 9.46958 24.9333C9.75317 26.3172 11.1546 25.0109 11.1546 25.0109L11.4138 24.9912C11.3866 25.5608 11.8261 26.0713 12.4585 26.1618C13.0166 26.2417 13.5413 25.9673 13.7718 25.5243C14.0358 26.0559 14.6145 26.4706 15.3419 26.5749C16.425 26.73 17.4274 26.1397 17.6063 25.2525C17.7738 25.5321 18.0726 25.7425 18.4443 25.7956C18.9487 25.8679 19.4243 25.6305 19.6505 25.2406C20.3095 27.0149 21.9745 25.8065 21.9745 25.8065C23.2613 26.8471 23.9994 25.4544 23.9994 25.4544C23.9994 25.4544 25.1535 26.5077 26.714 24.9564C27.5888 24.0868 27.0179 22.4468 27.0179 22.4468C27.0179 22.4468 28.4415 23.6917 29.7139 22.5389C31.1209 21.2635 29.7395 19.8603 29.7395 19.8603Z" fill="#1A0000" stroke="#1A0000" stroke-width="0.203034" stroke-miterlimit="10" stroke-linecap="round"/>
<path d="M2.77004 3.16549C3.11585 3.14381 3.55165 3.16548 3.56126 3.57242C3.565 3.73363 3.50038 3.91847 3.41066 4.05606C3.36152 4.13131 3.30464 4.20875 3.20664 4.23749C3.02479 4.29082 2.93427 4.1128 3.02079 3.98568C3.20424 3.71658 3.7132 3.7575 3.91294 3.97935C4.11055 4.19852 3.99252 4.56795 3.68917 4.6415C3.71908 4.6885 3.74925 4.7355 3.77916 4.7825C4.01735 4.61423 4.32684 4.79931 4.3896 5.03163C4.42351 5.15681 4.40322 5.29075 4.35435 5.41032C4.32017 5.49409 4.26329 5.56983 4.27558 5.66359C4.29854 5.83917 4.52498 5.97287 4.62646 6.11143C4.76905 6.30625 4.85824 6.52251 4.90417 6.75216C4.92553 6.85882 5.10364 6.81352 5.08255 6.70734C5.02834 6.43556 4.91245 6.17865 4.7322 5.95606C4.60643 5.80069 4.44888 5.73153 4.51003 5.50481C4.54421 5.37866 4.59468 5.27516 4.58987 5.14098C4.57438 4.7075 4.06569 4.36851 3.64832 4.66318C3.57168 4.71724 3.65606 4.82414 3.7383 4.80417C4.09292 4.71797 4.28118 4.34367 4.15701 4.03366C4.02296 3.69832 3.56526 3.56292 3.21278 3.66715C3.03494 3.71975 2.85602 3.83859 2.80876 4.01198C2.76817 4.16078 2.83573 4.3315 2.99648 4.39262C3.44029 4.56163 3.70065 3.98033 3.73857 3.67982C3.76554 3.46624 3.70626 3.24853 3.50972 3.11605C3.29957 2.97432 3.01838 2.98186 2.77031 2.99721C2.65201 3.00427 2.65095 3.17279 2.77004 3.16549Z" fill="#1A0000"/>
<path d="M31.9572 7.26902C31.5847 7.04838 31.0872 6.89763 30.8087 7.31869C30.6293 7.59023 30.5096 8.17056 30.8893 8.35125C31.0448 8.42529 31.2223 8.38194 31.3222 8.25263C31.4402 8.09969 31.3999 7.90048 31.2936 7.75217C31.0821 7.45726 30.6122 7.31675 30.2688 7.50597C29.9291 7.69324 29.861 8.16519 30.1475 8.41651C30.2284 8.48738 30.3318 8.39825 30.2928 8.31424C30.0789 7.85324 29.4105 7.99668 29.199 8.37487C29.1389 8.48203 29.1227 8.59039 29.0986 8.70631C29.058 8.90186 28.8468 8.90893 28.6797 8.97688C28.3987 9.09109 28.1563 9.26594 27.9619 9.48244C27.8871 9.56572 28.0171 9.68578 28.0927 9.60176C28.2588 9.41668 28.4575 9.26472 28.6925 9.15733C28.8647 9.07867 29.1608 9.0626 29.2498 8.88239C29.2885 8.80422 29.277 8.71216 29.2957 8.6296C29.3216 8.51441 29.3777 8.40044 29.469 8.31594C29.6661 8.13354 30.0164 8.14742 30.1334 8.39947C30.1817 8.36538 30.23 8.33128 30.2786 8.29743C30.076 8.11966 30.1251 7.78749 30.3625 7.6516C30.6541 7.48478 31.1361 7.66499 31.2012 7.97817C31.2229 8.08288 31.1823 8.24873 31.0106 8.21536C30.8651 8.18711 30.8362 8.01932 30.833 7.91071C30.829 7.77312 30.8597 7.62676 30.9171 7.49964C30.9849 7.34938 31.1043 7.22006 31.2944 7.20716C31.5019 7.19328 31.6987 7.31626 31.8646 7.4144C31.9639 7.47382 32.0568 7.32795 31.9572 7.26902Z" fill="#1A0000"/>
<path d="M6.6032 22.0116L6.18475 21.4262L5.73534 21.9352L5.84135 21.1289L5.35107 20.8481L5.96846 20.8215L6.2654 20.2402L6.44992 20.8549L7.07931 20.9684L6.58343 21.2175L6.6032 22.0116Z" fill="white" stroke="white" stroke-width="0.048365" stroke-miterlimit="10" stroke-linecap="round"/>
<path d="M6.1582 15.5578C6.1582 15.5578 6.15527 7.07643 15.1156 7.79629C23.6088 8.47866 22.0128 18.9221 19.7699 19.9736L19.6201 20.241C19.6201 20.241 20.9978 14.0903 18.0073 11.0172C16.0585 9.01466 12.7809 8.74946 10.3939 10.3083C9.15031 11.1204 7.32434 13.3124 6.1582 15.5578Z" fill="#FFD44D" stroke="#FFD44D" stroke-width="0.185159" stroke-miterlimit="10"/>
<mask id="mask0_1432_23337" style="mask-type:luminance" maskUnits="userSpaceOnUse" x="5" y="11" width="19" height="14">
<path d="M22.7834 19.0187C22.3567 18.6047 21.7486 18.6246 21.2063 18.8182C20.9299 18.9169 20.6711 19.0533 20.4228 19.2003C20.2738 19.2885 19.9771 19.6097 19.7953 19.5749C19.6698 19.551 19.6503 19.362 19.6118 19.2719C19.2746 18.4812 18.5482 17.7475 17.9661 17.0975C17.3129 16.3686 16.6157 15.6741 15.9212 14.9786C14.7361 13.7918 13.646 12.4875 12.9186 11.0176C12.6917 11.2034 12.2358 11.5779 12.1418 11.6671C11.235 12.5277 10.247 13.3301 9.18179 14.0249C8.68777 14.3471 8.17347 14.6471 7.62552 14.8872C7.13792 15.101 6.60732 15.2783 6.0599 15.2832C6.05643 15.2832 6.05403 15.2817 6.05056 15.2815C5.92612 15.6429 5.82865 16.0157 5.7619 16.3988C4.96747 20.9533 7.52992 24.0909 12.1448 24.7518C14.8688 25.1419 17.4919 24.1257 19.1942 22.2771C19.8578 22.8908 21.1614 22.6974 22.1438 21.8261C23.1468 20.9369 23.5116 19.7256 22.7834 19.0187Z" fill="white"/>
</mask>
<g mask="url(#mask0_1432_23337)">
<path d="M22.7834 19.0187C22.3567 18.6047 21.7486 18.6246 21.2063 18.8182C20.9299 18.9169 20.6711 19.0533 20.4228 19.2003C20.2738 19.2885 19.9771 19.6097 19.7953 19.5749C19.6698 19.551 19.6503 19.362 19.6118 19.2719C19.2746 18.4812 18.5482 17.7475 17.9661 17.0975C17.3129 16.3686 16.6157 15.6741 15.9212 14.9786C14.7361 13.7918 13.646 12.4875 12.9186 11.0176C12.6917 11.2034 12.2358 11.5779 12.1418 11.6671C11.235 12.5277 10.247 13.3301 9.18179 14.0249C8.68777 14.3471 8.17347 14.6471 7.62552 14.8872C7.13792 15.101 6.60732 15.2783 6.0599 15.2832C6.05643 15.2832 6.05403 15.2817 6.05056 15.2815C5.92612 15.6429 5.82865 16.0157 5.7619 16.3988C4.96747 20.9533 7.52992 24.0909 12.1448 24.7518C14.8688 25.1419 17.4919 24.1257 19.1942 22.2771C19.8578 22.8908 21.1614 22.6974 22.1438 21.8261C23.1468 20.9369 23.5116 19.7256 22.7834 19.0187Z" fill="#CD5428" stroke="#CD5428" stroke-width="0.190657" stroke-miterlimit="10"/>
</g>
<mask id="mask1_1432_23337" style="mask-type:luminance" maskUnits="userSpaceOnUse" x="5" y="11" width="19" height="14">
<path d="M22.7834 19.0187C22.3567 18.6047 21.7486 18.6246 21.2063 18.8182C20.9299 18.9169 20.6711 19.0533 20.4228 19.2003C20.2738 19.2885 19.9771 19.6097 19.7953 19.5749C19.6698 19.551 19.6503 19.362 19.6118 19.2719C19.2746 18.4812 18.5482 17.7475 17.9661 17.0975C17.3129 16.3686 16.6157 15.6741 15.9212 14.9786C14.7361 13.7918 13.646 12.4875 12.9186 11.0176C12.6917 11.2034 12.2358 11.5779 12.1418 11.6671C11.235 12.5277 10.247 13.3301 9.18179 14.0249C8.68777 14.3471 8.17347 14.6471 7.62552 14.8872C7.13792 15.101 6.60732 15.2783 6.0599 15.2832C6.05643 15.2832 6.05403 15.2817 6.05056 15.2815C5.92612 15.6429 5.82865 16.0157 5.7619 16.3988C4.96747 20.9533 7.52992 24.0909 12.1448 24.7518C14.8688 25.1419 17.4919 24.1257 19.1942 22.2771C19.8578 22.8908 21.1614 22.6974 22.1438 21.8261C23.1468 20.9369 23.5116 19.7256 22.7834 19.0187Z" fill="white"/>
</mask>
<g mask="url(#mask1_1432_23337)">
<path opacity="0.49" d="M17.1002 22.4164C16.6967 23.4565 15.4451 24.0013 14.3046 23.6333C13.1641 23.2653 12.5668 22.1239 12.9703 21.0838C13.3738 20.0437 14.6253 19.4989 15.7658 19.8669C16.9063 20.2349 17.5037 21.3763 17.1002 22.4164Z" fill="#8B2A0C" stroke="#8B2A0C" stroke-width="0.229534" stroke-miterlimit="10"/>
</g>
<mask id="mask2_1432_23337" style="mask-type:luminance" maskUnits="userSpaceOnUse" x="5" y="11" width="19" height="14">
<path d="M22.7834 19.0187C22.3567 18.6047 21.7486 18.6246 21.2063 18.8182C20.9299 18.9169 20.6711 19.0533 20.4228 19.2003C20.2738 19.2885 19.9771 19.6097 19.7953 19.5749C19.6698 19.551 19.6503 19.362 19.6118 19.2719C19.2746 18.4812 18.5482 17.7475 17.9661 17.0975C17.3129 16.3686 16.6157 15.6741 15.9212 14.9786C14.7361 13.7918 13.646 12.4875 12.9186 11.0176C12.6917 11.2034 12.2358 11.5779 12.1418 11.6671C11.235 12.5277 10.247 13.3301 9.18179 14.0249C8.68777 14.3471 8.17347 14.6471 7.62552 14.8872C7.13792 15.101 6.60732 15.2783 6.0599 15.2832C6.05643 15.2832 6.05403 15.2817 6.05056 15.2815C5.92612 15.6429 5.82865 16.0157 5.7619 16.3988C4.96747 20.9533 7.52992 24.0909 12.1448 24.7518C14.8688 25.1419 17.4919 24.1257 19.1942 22.2771C19.8578 22.8908 21.1614 22.6974 22.1438 21.8261C23.1468 20.9369 23.5116 19.7256 22.7834 19.0187Z" fill="white"/>
</mask>
<g mask="url(#mask2_1432_23337)">
<path opacity="0.49" d="M8.4041 20.7871C8.04308 21.7179 6.92287 22.2057 5.90201 21.8762C4.88141 21.5469 4.34654 20.5253 4.70783 19.5943C5.06886 18.6636 6.18907 18.1758 7.20993 18.5053C8.23053 18.8345 8.76513 19.8561 8.4041 20.7871Z" fill="#8B2A0C" stroke="#8B2A0C" stroke-width="0.205427" stroke-miterlimit="10"/>
</g>
<mask id="mask3_1432_23337" style="mask-type:luminance" maskUnits="userSpaceOnUse" x="5" y="11" width="19" height="14">
<path d="M22.7834 19.0187C22.3567 18.6047 21.7486 18.6246 21.2063 18.8182C20.9299 18.9169 20.6711 19.0533 20.4228 19.2003C20.2738 19.2885 19.9771 19.6097 19.7953 19.5749C19.6698 19.551 19.6503 19.362 19.6118 19.2719C19.2746 18.4812 18.5482 17.7475 17.9661 17.0975C17.3129 16.3686 16.6157 15.6741 15.9212 14.9786C14.7361 13.7918 13.646 12.4875 12.9186 11.0176C12.6917 11.2034 12.2358 11.5779 12.1418 11.6671C11.235 12.5277 10.247 13.3301 9.18179 14.0249C8.68777 14.3471 8.17347 14.6471 7.62552 14.8872C7.13792 15.101 6.60732 15.2783 6.0599 15.2832C6.05643 15.2832 6.05403 15.2817 6.05056 15.2815C5.92612 15.6429 5.82865 16.0157 5.7619 16.3988C4.96747 20.9533 7.52992 24.0909 12.1448 24.7518C14.8688 25.1419 17.4919 24.1257 19.1942 22.2771C19.8578 22.8908 21.1614 22.6974 22.1438 21.8261C23.1468 20.9369 23.5116 19.7256 22.7834 19.0187Z" fill="white"/>
</mask>
<g mask="url(#mask3_1432_23337)">
<path d="M20.873 23.3134L20.4548 22.728L20.0051 23.2369L20.1111 22.4304L19.6208 22.1496L20.2382 22.1233L20.5352 21.542L20.72 22.1567L21.3491 22.2701L20.8532 22.5193L20.873 23.3134Z" fill="white" stroke="white" stroke-width="0.048365" stroke-miterlimit="10" stroke-linecap="round"/>
<path d="M20.439 19.8704C20.7613 19.6054 21.1338 19.3753 21.5789 19.2694C21.7987 19.2177 22.054 19.2065 22.2906 19.3044C22.525 19.4082 22.6925 19.5991 22.752 19.8361C22.8006 20.0752 22.7178 20.2956 22.6171 20.4816C22.509 20.6677 22.3771 20.834 22.2286 20.9843C21.9341 21.2863 21.5909 21.5383 21.2214 21.7482C21.5239 21.4638 21.8102 21.1699 22.0636 20.8623C22.1854 20.7057 22.3037 20.5479 22.3851 20.3794C22.4681 20.2143 22.5226 20.0367 22.4855 19.884C22.4561 19.7369 22.3298 19.5847 22.1776 19.5146C22.0219 19.4367 21.8206 19.4328 21.6211 19.4583C21.219 19.5204 20.8195 19.6836 20.439 19.8704Z" fill="#8B2A0C"/>
<path d="M19.1797 22.2951C19.2793 22.1726 19.3543 22.0362 19.4256 21.9C19.4956 21.7629 19.5578 21.6222 19.6109 21.4788C19.7239 21.1938 19.8059 20.8994 19.8879 20.6035C19.8681 20.755 19.8417 20.906 19.8043 21.0553C19.7658 21.204 19.7207 21.3516 19.6657 21.4963C19.5501 21.7822 19.4101 22.0703 19.1797 22.2951Z" fill="#8B2A0C"/>
<path d="M12.8972 10.7276C12.6021 10.8493 12.3239 11.0369 12.1976 11.3181C12.0918 11.5534 12.1025 11.8505 12.2964 12.0468C12.4641 12.2165 12.7842 12.2947 12.972 12.1064C13.1156 11.9623 13.1188 11.7105 12.9186 11.6079C12.663 11.4772 12.2964 11.5938 12.0953 11.7589C11.8766 11.9386 11.7807 12.2282 11.8446 12.4893C11.9022 12.7255 12.1359 12.9488 12.42 12.8645C12.6505 12.7963 12.7282 12.4995 12.4878 12.3933C12.2128 12.2718 11.8966 12.4639 11.7826 12.6919C11.6301 12.996 11.8008 13.3316 12.0211 13.5652C12.0945 13.6431 12.2176 13.5299 12.1447 13.4524C11.9866 13.2849 11.8494 13.0508 11.9156 12.8231C11.9444 12.7243 12.0152 12.6339 12.1086 12.5769C12.1703 12.5394 12.4889 12.4396 12.4617 12.6244C12.4403 12.7691 12.2107 12.7238 12.137 12.6622C12.0419 12.5825 12.004 12.4566 12 12.3424C11.9922 12.1201 12.1207 11.9077 12.333 11.7981C12.4691 11.7278 12.9434 11.6223 12.9001 11.8912C12.8571 12.159 12.4958 12.0477 12.3845 11.8892C12.0795 11.4543 12.5914 11.0279 12.9861 10.8649C13.0879 10.823 12.9992 10.6857 12.8972 10.7276Z" fill="#1A0000"/>
<path d="M9.92432 18.7939C9.99588 18.6023 10.1241 18.4213 10.3096 18.2901C10.4915 18.1571 10.7425 18.0823 10.9826 18.1103C11.1009 18.1225 11.221 18.1532 11.3292 18.2082C11.4341 18.2681 11.5257 18.348 11.5861 18.4435C11.7108 18.6329 11.7311 18.8531 11.6931 19.0518C11.659 18.8531 11.5871 18.6624 11.4651 18.5182C11.3431 18.3731 11.1631 18.2957 10.9633 18.2803C10.7663 18.255 10.5689 18.3054 10.3927 18.3994C10.2173 18.4963 10.0592 18.6337 9.92432 18.7939Z" fill="#8B2A0C"/>
<g opacity="0.53">
<path d="M9.93555 18.7952C9.93555 18.7952 10.3524 18.0748 11.1118 18.2502C11.7639 18.4007 11.6924 19.1137 11.6924 19.1137" fill="#8B2A0C"/>
<path d="M9.93555 18.7951C10.0149 18.6061 10.1508 18.4298 10.3414 18.3049C10.5286 18.1785 10.7826 18.1123 11.0213 18.1486C11.1391 18.1649 11.2576 18.1994 11.3636 18.2584C11.4662 18.3217 11.5543 18.405 11.6106 18.5022C11.7276 18.6958 11.7386 18.9166 11.6924 19.1137C11.6665 18.914 11.6026 18.7208 11.4865 18.5728C11.3706 18.4235 11.1938 18.34 10.9949 18.3176C10.7991 18.2854 10.5997 18.329 10.4197 18.4169C10.2405 18.508 10.0768 18.6397 9.93555 18.7951Z" fill="#8B2A0C"/>
</g>
<path d="M6.08196 16.8185C6.0128 17.8573 6.8868 18.7494 8.03398 18.8105C9.18115 18.8716 10.167 18.0792 10.2359 17.0403C10.3051 16.0014 9.43109 15.1094 8.28392 15.0483C7.13701 14.9869 6.15112 15.7796 6.08196 16.8185Z" fill="white"/>
<path d="M7.09308 16.462C6.93767 17.2498 7.45304 18.0019 8.24453 18.1419C9.03601 18.2819 9.80347 17.7566 9.95915 16.9691C10.1148 16.1815 9.59919 15.4292 8.8077 15.2892C8.01621 15.1492 7.2485 15.6742 7.09308 16.462Z" fill="#280707" stroke="#280707" stroke-width="0.192166" stroke-miterlimit="10"/>
<path d="M10.2857 16.6554C10.1768 16.4479 10.055 16.2479 9.90758 16.0682C9.76499 15.8865 9.60958 15.7161 9.42826 15.577C9.24374 15.4424 9.04533 15.3337 8.83518 15.2568C8.61995 15.1922 8.39805 15.1499 8.16813 15.1552C7.70082 15.154 7.24153 15.2736 6.87943 15.5273C6.50345 15.7718 6.25511 16.1742 6.10824 16.5935L6.08367 16.6639L6.02572 16.6437C5.88847 16.5959 5.75228 16.545 5.61743 16.4895L5.62357 16.4696L6.04655 16.5748L6.03053 16.5845C6.11945 16.1303 6.36085 15.6915 6.75339 15.3915C7.14299 15.0905 7.66157 14.9446 8.16813 14.9514C8.42342 14.9504 8.67683 14.9972 8.91422 15.0819C9.14761 15.1754 9.3615 15.306 9.54576 15.4662C9.90572 15.7945 10.1602 16.2087 10.3079 16.6507L10.2857 16.6554Z" fill="black"/>
<path d="M6.10265 16.3135L5.71118 16.0244L6.20493 16.1143L6.10265 16.3135Z" fill="black"/>
<path d="M6.29826 15.891L5.97168 15.5605L6.43204 15.7079L6.29826 15.891Z" fill="black"/>
<path d="M9.6541 18.3285C9.39988 18.5179 9.10107 18.6597 8.78277 18.7512C8.46473 18.8438 8.1208 18.8783 7.78247 18.8384C7.6121 18.8221 7.44947 18.7705 7.28819 18.7203C7.13758 18.6467 6.98003 18.5849 6.85346 18.4799C6.71247 18.3935 6.60752 18.2717 6.49643 18.1597C6.39469 18.0404 6.31271 17.9076 6.23047 17.7803C6.45638 17.9975 6.67748 18.2106 6.94772 18.3582C7.20781 18.5162 7.50342 18.6173 7.81024 18.6492C8.11599 18.6886 8.43136 18.6665 8.74085 18.6075C9.04954 18.5442 9.35769 18.4546 9.6541 18.3285Z" fill="black"/>
<path d="M17.3436 18.6576C17.0499 19.7328 15.8148 20.3908 14.5849 20.1275C13.3549 19.864 12.5957 18.7789 12.8892 17.7037C13.1829 16.6285 14.418 15.9705 15.6482 16.2338C16.8781 16.497 17.6371 17.5822 17.3436 18.6576Z" fill="white"/>
<path d="M17.3377 18.169C17.2258 18.9997 16.4361 19.6075 15.5736 19.5269C14.7111 19.4463 14.1025 18.7075 14.2144 17.8768C14.3263 17.0461 15.1159 16.4383 15.9785 16.5189C16.841 16.5997 17.4495 17.3384 17.3377 18.169Z" fill="#280707" stroke="#280707" stroke-width="0.203767" stroke-miterlimit="10"/>
<path d="M12.98 17.3674C13.2257 16.9227 13.6145 16.5399 14.1093 16.2781C14.3571 16.1466 14.6388 16.0643 14.9301 16.0304C15.2217 16.0075 15.5211 16.0221 15.8017 16.0964C16.3553 16.2294 16.8709 16.5491 17.1972 16.9968C17.3596 17.2213 17.4442 17.4819 17.4902 17.7363C17.5372 17.9935 17.5262 18.2504 17.4581 18.503L17.3908 18.428C17.5476 18.4455 17.7043 18.4664 17.8608 18.4925L17.8603 18.5144L17.3887 18.5044L17.3737 18.5042L17.3756 18.4898C17.4386 18.0108 17.3289 17.5021 17.0266 17.1024C16.7238 16.7018 16.2461 16.4332 15.7363 16.3025C15.4826 16.2291 15.2145 16.2114 14.9501 16.2257C14.6866 16.2533 14.4286 16.3202 14.1883 16.4252C13.7133 16.6444 13.306 16.9829 13.0003 17.3793L12.98 17.3674Z" fill="black"/>
<path d="M17.3862 17.9717L17.9246 18.0214L17.4215 18.2028L17.3862 17.9717Z" fill="black"/>
<path d="M17.2937 17.5034L17.8166 17.4863L17.365 17.7274L17.2937 17.5034Z" fill="black"/>
<path d="M13.073 19.2275C13.2062 19.3313 13.3395 19.4316 13.4842 19.5173C13.6226 19.6096 13.7686 19.6915 13.9187 19.7633C14.2188 19.906 14.5347 20.0163 14.8621 20.0609C15.1882 20.1142 15.5249 20.0945 15.8472 20.0117C16.177 19.943 16.475 19.7857 16.784 19.634C16.6542 19.7389 16.5233 19.8498 16.377 19.9406C16.2232 20.0205 16.0721 20.1106 15.8993 20.16C15.7343 20.2314 15.5516 20.2479 15.3727 20.2796C15.1911 20.2847 15.0074 20.2915 14.8277 20.2606C14.4685 20.2065 14.1264 20.0794 13.8311 19.896C13.5363 19.7139 13.2709 19.493 13.073 19.2275Z" fill="black"/>
<path opacity="0.49" d="M11.9426 19.8159C11.8838 20.1544 11.5017 20.7616 10.6515 20.6561C10.0634 20.5833 9.68133 19.9647 9.74007 19.6262C9.74007 19.6262 10.3062 19.5181 10.9017 19.5512C11.3156 19.5744 11.9426 19.8159 11.9426 19.8159Z" fill="#8B2A0C"/>
<path d="M9.35791 19.3203C9.57741 19.4922 9.80866 19.6403 10.0503 19.7601C10.2933 19.877 10.5505 19.9615 10.8138 19.9844C11.0755 20.0107 11.346 19.9844 11.5997 19.8936C11.7329 19.8626 11.8491 19.7913 11.9783 19.7406C12.1017 19.6798 12.2165 19.604 12.3465 19.5409C12.2528 19.6401 12.1553 19.7409 12.0456 19.83C11.9254 19.9057 11.8149 20.0019 11.6739 20.0521C11.4103 20.1858 11.0918 20.2316 10.7879 20.2041C10.4824 20.1729 10.1929 20.0643 9.95126 19.9062C9.70959 19.7482 9.50104 19.5517 9.35791 19.3203Z" fill="#3B130E"/>
<path d="M6.77029 14.4788C6.82583 14.2295 6.97991 14.0006 7.18739 13.8243C7.39167 13.6423 7.65016 13.515 7.92013 13.4319C8.19438 13.3606 8.4785 13.3323 8.75515 13.3579C8.8932 13.3659 9.02778 13.4003 9.1605 13.4263C9.29001 13.4728 9.41872 13.5103 9.53995 13.569L9.54262 13.5702C9.5485 13.5732 9.55064 13.5797 9.5477 13.5849C9.5453 13.589 9.54022 13.5912 9.53542 13.5905L9.14822 13.542C9.01817 13.5391 8.88813 13.5259 8.75835 13.5313C8.49853 13.5374 8.24004 13.5732 7.99276 13.6426C7.50222 13.7821 7.0464 14.0736 6.79245 14.4883C6.78925 14.4937 6.78177 14.4957 6.77616 14.4925C6.77135 14.4901 6.76922 14.4852 6.77029 14.4808V14.4788Z" fill="#2E2E2E"/>
<path d="M17.7252 15.8956C17.5765 15.6913 17.4024 15.5252 17.2275 15.3742C17.0478 15.2269 16.8577 15.0993 16.6504 14.9931C16.5458 14.9412 16.4416 14.8881 16.3284 14.8482C16.2213 14.7946 16.1022 14.7676 15.9879 14.7213L15.2493 14.4939L15.2453 14.4926C15.2392 14.4907 15.236 14.4846 15.2378 14.479C15.2397 14.4744 15.2445 14.4715 15.2496 14.4717L15.6421 14.4929C15.7714 14.5131 15.9027 14.5236 16.0304 14.5521C16.287 14.6047 16.5364 14.6865 16.7693 14.8009C17.223 15.0428 17.6 15.4251 17.7485 15.8907C17.7503 15.8963 17.7466 15.9022 17.7405 15.9039C17.7354 15.9051 17.7303 15.9034 17.7276 15.8995L17.7252 15.8956Z" fill="#2E2E2E"/>
</g>
<path d="M41.0032 17.6343C41.8173 17.6343 42.401 17.4884 42.7542 17.1966C43.1229 16.8894 43.3072 16.5284 43.3072 16.1137C43.3072 15.7297 43.1613 15.4225 42.8694 15.1921C42.593 14.9463 42.1782 14.7313 41.6253 14.547L40.4042 14.1553C39.5747 13.8788 38.8451 13.5716 38.2154 13.2337C37.5856 12.8958 37.0941 12.4657 36.7408 11.9434C36.3875 11.4058 36.2109 10.7223 36.2109 9.89289C36.2109 8.61801 36.6947 7.60425 37.6624 6.85161C38.6301 6.09897 39.9741 5.72265 41.6944 5.72265C42.5699 5.72265 43.3456 5.80713 44.0214 5.97609C44.7126 6.14505 45.2502 6.39849 45.6342 6.73641C46.0336 7.05897 46.2333 7.45833 46.2333 7.93449C46.2333 8.27241 46.1488 8.57193 45.9798 8.83305C45.8109 9.09417 45.6112 9.30921 45.3808 9.47817C45.0275 9.24777 44.5514 9.04041 43.9523 8.85609C43.3686 8.67177 42.7312 8.57961 42.04 8.57961C41.3027 8.57961 40.7421 8.70249 40.3581 8.94825C39.9894 9.19401 39.8051 9.50889 39.8051 9.89289C39.8051 10.2001 39.928 10.4535 40.1738 10.6532C40.4349 10.8375 40.8112 11.0065 41.3027 11.1601L42.5699 11.5748C43.9677 12.0049 45.0429 12.5732 45.7955 13.2798C46.5482 13.9863 46.9245 14.9386 46.9245 16.1367C46.9245 17.427 46.4253 18.4791 45.4269 19.2932C44.4285 20.0919 42.9846 20.4913 41.0954 20.4913C40.1584 20.4913 39.3213 20.3838 38.584 20.1687C37.8467 19.969 37.263 19.6849 36.833 19.3162C36.4029 18.9322 36.1878 18.4868 36.1878 17.9799C36.1878 17.5806 36.303 17.2426 36.5334 16.9662C36.7638 16.6897 37.025 16.4746 37.3168 16.321C37.7315 16.659 38.2461 16.9662 38.8605 17.2426C39.4902 17.5038 40.2045 17.6343 41.0032 17.6343ZM48.6512 10.3767H52.1533V20.0766C51.9997 20.1073 51.7693 20.1457 51.4621 20.1918C51.1703 20.2378 50.8631 20.2609 50.5405 20.2609C49.8493 20.2609 49.3578 20.138 49.0659 19.8922C48.7895 19.6465 48.6512 19.2241 48.6512 18.625V10.3767ZM52.1533 14.7543H48.6512V6.09129C48.8202 6.06057 49.0583 6.02217 49.3655 5.97609C49.6727 5.93001 49.9799 5.90697 50.2871 5.90697C50.9475 5.90697 51.4237 6.02217 51.7155 6.25257C52.0074 6.48297 52.1533 6.91305 52.1533 7.54281V14.7543ZM63.9716 16.6206C63.7872 16.7434 63.5568 16.8586 63.2804 16.9662C63.0039 17.0583 62.6813 17.1044 62.3127 17.1044C61.8365 17.1044 61.4372 17.043 61.1146 16.9201C60.8074 16.7972 60.6 16.5898 60.4925 16.298C59.9703 14.8388 59.5248 13.6177 59.1562 12.6346C58.8029 11.6516 58.5264 10.8068 58.3268 10.1002H58.2116C58.1655 11.0679 58.1271 11.9588 58.0964 12.7729C58.0656 13.587 58.0349 14.3703 58.0042 15.123C57.9888 15.8756 57.9658 16.6513 57.9351 17.45C57.9044 18.2334 57.866 19.0935 57.8199 20.0305C57.6356 20.0766 57.4052 20.1226 57.1287 20.1687C56.8522 20.2302 56.5757 20.2609 56.2992 20.2609C55.7156 20.2609 55.2624 20.1687 54.9399 19.9844C54.6173 19.7847 54.456 19.4391 54.456 18.9476C54.456 18.6097 54.4714 18.1105 54.5021 17.45C54.5328 16.7742 54.5712 16.0062 54.6173 15.146C54.6788 14.2705 54.7402 13.3489 54.8016 12.3812C54.8631 11.4135 54.9245 10.4612 54.986 9.52425C55.0628 8.57193 55.1242 7.69641 55.1703 6.89769C55.2932 6.71337 55.5389 6.52905 55.9076 6.34473C56.2762 6.14505 56.7831 6.04521 57.4282 6.04521C58.1194 6.04521 58.6724 6.16041 59.0871 6.39081C59.5018 6.60585 59.8013 6.95913 59.9856 7.45065C60.216 8.01897 60.4618 8.67177 60.7229 9.40905C60.984 10.131 61.2452 10.8682 61.5063 11.6209C61.7674 12.3582 62.0055 13.034 62.2205 13.6484H62.3357C62.7812 12.2814 63.2266 10.9527 63.672 9.66249C64.1175 8.37225 64.5092 7.28937 64.8471 6.41385C65.0468 6.30633 65.3079 6.22185 65.6304 6.16041C65.9684 6.08361 66.3216 6.04521 66.6903 6.04521C67.3508 6.04521 67.8807 6.14505 68.28 6.34473C68.6948 6.52905 68.9405 6.81321 69.0173 7.19721C69.0788 7.48905 69.1402 7.94985 69.2016 8.57961C69.2784 9.20937 69.3552 9.93897 69.432 10.7684C69.5088 11.5825 69.5856 12.4426 69.6624 13.3489C69.7392 14.2398 69.8084 15.1076 69.8698 15.9524C69.9466 16.7972 70.008 17.5652 70.0541 18.2564C70.1002 18.9322 70.1309 19.4698 70.1463 19.8692C69.9159 20.0074 69.6701 20.1073 69.409 20.1687C69.1632 20.2302 68.8484 20.2609 68.4644 20.2609C67.9882 20.2609 67.5735 20.1764 67.2202 20.0074C66.8669 19.8231 66.6749 19.4775 66.6442 18.9706C66.5828 17.7572 66.529 16.6052 66.4829 15.5146C66.4368 14.4241 66.3984 13.4257 66.3677 12.5194C66.337 11.6132 66.3063 10.8452 66.2756 10.2154H66.1604C65.9607 10.8759 65.6765 11.713 65.3079 12.7268C64.9546 13.7252 64.5092 15.0231 63.9716 16.6206ZM79.638 11.713V14.2014H74.5001V11.713H79.638ZM77.91 14.2014L78.1865 12.289C79.4614 12.289 80.5136 12.4426 81.343 12.7498C82.1878 13.057 82.8252 13.4871 83.2553 14.0401C83.6854 14.593 83.9004 15.2612 83.9004 16.0446C83.9004 17.5345 83.3475 18.6404 82.2416 19.3623C81.1356 20.0842 79.5612 20.4452 77.5184 20.4452C77.1497 20.4452 76.7273 20.4298 76.2512 20.3991C75.7904 20.3684 75.3142 20.3146 74.8227 20.2378C74.3465 20.161 73.9088 20.0535 73.5094 19.9153C72.7107 19.6234 72.3113 19.1089 72.3113 18.3716V7.35849C72.3113 7.05129 72.3958 6.82089 72.5648 6.66729C72.7337 6.49833 72.9641 6.36009 73.256 6.25257C73.7782 6.08361 74.408 5.96073 75.1452 5.88393C75.8825 5.80713 76.6428 5.76873 77.4262 5.76873C79.3155 5.76873 80.7824 6.09897 81.8268 6.75945C82.8713 7.40457 83.3936 8.40297 83.3936 9.75465C83.3936 10.4919 83.1785 11.1217 82.7484 11.6439C82.3184 12.1662 81.6886 12.5655 80.8592 12.842C80.0451 13.1031 79.0544 13.2337 77.887 13.2337L77.7257 11.713C78.4784 11.713 79.0313 11.5671 79.3846 11.2753C79.7379 10.9834 79.9145 10.5687 79.9145 10.0311C79.9145 9.52425 79.7072 9.13257 79.2924 8.85609C78.8777 8.57961 78.2633 8.44137 77.4492 8.44137C77.1574 8.44137 76.8425 8.44905 76.5046 8.46441C76.182 8.47977 75.9209 8.51049 75.7212 8.55657V17.5422C75.967 17.619 76.2819 17.6727 76.6659 17.7034C77.0499 17.7188 77.4108 17.7265 77.7488 17.7265C78.5321 17.7265 79.1542 17.5806 79.615 17.2887C80.0912 16.9969 80.3292 16.5361 80.3292 15.9063C80.3292 15.3226 80.1219 14.8926 79.7072 14.6161C79.3078 14.3396 78.7088 14.2014 77.91 14.2014ZM85.7726 10.3767H89.2747V20.0766C89.1211 20.1073 88.8907 20.1457 88.5835 20.1918C88.2917 20.2378 87.9845 20.2609 87.6619 20.2609C86.9707 20.2609 86.4792 20.138 86.1873 19.8922C85.9109 19.6465 85.7726 19.2241 85.7726 18.625V10.3767ZM89.2747 14.7543H85.7726V6.09129C85.9416 6.06057 86.1797 6.02217 86.4869 5.97609C86.7941 5.93001 87.1013 5.90697 87.4085 5.90697C88.0689 5.90697 88.5451 6.02217 88.8369 6.25257C89.1288 6.48297 89.2747 6.91305 89.2747 7.54281V14.7543Z" fill="#1E1E2F"/>
</svg>
