<svg width="145" height="54" viewBox="0 0 145 54" fill="none" xmlns="http://www.w3.org/2000/svg">
<path d="M48.3981 36.6319C48.3981 36.6319 51.3717 35.7162 51.8671 32.6523C52.3625 29.5883 48.4632 29.1043 48.4632 29.1043C50.6286 27.851 50.415 25.3232 50.415 25.3232C51.0189 20.7914 47.0911 20.2211 47.0911 20.2211C47.0911 20.2211 48.8063 18.7637 48.3726 16.593C47.5299 12.3728 42.8548 12.9921 42.8548 12.9921C42.6395 10.83 41.0277 8.98366 38.75 8.42318C38.7155 8.41456 38.681 8.40631 38.6466 8.39845C36.3186 7.84957 33.8493 8.7686 32.4891 10.6149L32.298 10.8746C32.244 10.6056 32.1278 10.3238 31.9797 10.0477C31.2149 8.61987 29.7641 7.61091 28.0838 7.20966C24.0914 6.25653 21.8242 8.86227 21.8242 8.86227C20.39 6.87622 16.4843 7.18305 16.4843 7.18305C7.86103 8.15529 8.99821 16.028 8.99821 16.028C8.99821 16.028 5.37728 13.4102 2.15003 18.3276C-1.07765 23.2446 3.51363 27.2977 3.51363 27.2977C2.71096 27.5 1.82615 28.7937 1.82615 28.7937C-0.663552 33.8137 6.4302 35.9852 6.4302 35.9852C3.22124 40.912 10.4039 41.4395 10.4039 41.4395C10.8031 44.3056 13.5614 42.2986 13.5614 42.2986C13.0022 45.7739 16.0924 44.4364 16.0924 44.4364C16.5444 46.5655 18.7779 44.5559 18.7779 44.5559L19.1911 44.5255C19.1477 45.4019 19.8482 46.1871 20.856 46.3265C21.7455 46.4494 22.5818 46.0272 22.9491 45.3457C23.37 46.1635 24.2922 46.8016 25.4515 46.9619C27.1777 47.2006 28.7754 46.2924 29.0606 44.9275C29.3274 45.3577 29.8036 45.6814 30.3961 45.763C31.2 45.8743 31.958 45.509 32.3185 44.9092C33.3688 47.6389 36.0224 45.7799 36.0224 45.7799C38.0733 47.3808 39.2496 45.2381 39.2496 45.2381C39.2496 45.2381 41.089 46.8585 43.5762 44.472C44.9704 43.1341 44.0605 40.6111 44.0605 40.6111C44.0605 40.6111 46.3293 42.5264 48.3573 40.7527C50.5997 38.7907 48.3981 36.6319 48.3981 36.6319Z" fill="#7A5FFF" stroke="#7A5FFF" stroke-width="0.24579" stroke-miterlimit="10" stroke-linecap="round"/>
<path d="M5.42146 10.949C5.9726 10.9156 6.66716 10.949 6.68248 11.575C6.68844 11.823 6.58545 12.1074 6.44245 12.3191C6.36414 12.4349 6.27349 12.554 6.11729 12.5982C5.82747 12.6803 5.68319 12.4064 5.82108 12.2108C6.11346 11.7968 6.92464 11.8598 7.24298 12.2011C7.55792 12.5383 7.36981 13.1066 6.88634 13.2198C6.93401 13.2921 6.98209 13.3644 7.02976 13.4367C7.40939 13.1778 7.90264 13.4626 8.00266 13.82C8.05671 14.0125 8.02437 14.2186 7.94649 14.4026C7.89201 14.5314 7.80136 14.648 7.82094 14.7922C7.85754 15.0623 8.21844 15.268 8.38016 15.4812C8.60743 15.7809 8.74957 16.1136 8.82277 16.4669C8.85682 16.631 9.14069 16.5613 9.10707 16.398C9.02067 15.9799 8.83597 15.5846 8.54869 15.2422C8.34824 15.0031 8.09714 14.8967 8.1946 14.5479C8.24908 14.3539 8.32951 14.1946 8.32185 13.9882C8.29717 13.3213 7.48642 12.7998 6.82122 13.2531C6.69908 13.3363 6.83356 13.5008 6.96464 13.47C7.52983 13.3374 7.82987 12.7616 7.63197 12.2846C7.41833 11.7687 6.68886 11.5604 6.12708 11.7208C5.84364 11.8017 5.55849 11.9845 5.48316 12.2513C5.41847 12.4802 5.52615 12.7428 5.78235 12.8369C6.48969 13.0969 6.90464 12.2026 6.96507 11.7403C7.00806 11.4117 6.91357 11.0767 6.60034 10.8729C6.2654 10.6549 5.81725 10.6665 5.42188 10.6901C5.23334 10.7009 5.23164 10.9602 5.42146 10.949Z" fill="#7A5FFF"/>
<path d="M51.9322 17.262C51.3385 16.9225 50.5456 16.6906 50.1017 17.3384C49.8158 17.7561 49.6251 18.649 50.2303 18.927C50.478 19.0409 50.761 18.9742 50.9202 18.7752C51.1083 18.5399 51.044 18.2335 50.8746 18.0053C50.5376 17.5516 49.7885 17.3354 49.2412 17.6265C48.6999 17.9146 48.5913 18.6407 49.048 19.0274C49.1769 19.1364 49.3416 18.9993 49.2795 18.87C48.9386 18.1608 47.8734 18.3815 47.5363 18.9633C47.4405 19.1281 47.4146 19.2949 47.3763 19.4732C47.3116 19.7741 46.9749 19.7849 46.7085 19.8895C46.2608 20.0652 45.8744 20.3342 45.5645 20.6672C45.4454 20.7954 45.6526 20.9801 45.7731 20.8508C46.0378 20.5661 46.3544 20.3323 46.7289 20.1671C47.0035 20.0461 47.4754 20.0213 47.6171 19.7441C47.6789 19.6238 47.6606 19.4822 47.6903 19.3552C47.7316 19.178 47.821 19.0026 47.9666 18.8726C48.2806 18.592 48.839 18.6134 49.0254 19.0011C49.1025 18.9487 49.1795 18.8962 49.2569 18.8442C48.9339 18.5707 49.0122 18.0596 49.3906 17.8506C49.8553 17.5939 50.6235 17.8712 50.7274 18.353C50.7618 18.5141 50.6972 18.7692 50.4235 18.7179C50.1916 18.6744 50.1456 18.4163 50.1405 18.2492C50.1341 18.0375 50.183 17.8124 50.2745 17.6168C50.3826 17.3856 50.5729 17.1867 50.8759 17.1668C51.2066 17.1455 51.5202 17.3347 51.7845 17.4856C51.9429 17.5771 52.091 17.3526 51.9322 17.262Z" fill="#7A5FFF"/>
<path d="M10.8154 30.0132C10.8154 30.0132 10.8108 16.965 25.0914 18.0724C38.6278 19.1222 36.084 35.189 32.5095 36.8068L32.2707 37.2182C32.2707 37.2182 34.4664 27.7555 29.7002 23.0277C26.5942 19.9469 21.3705 19.5389 17.5661 21.937C15.5842 23.1865 12.674 26.5588 10.8154 30.0132Z" fill="#FDFDFF" stroke="#FDFDFF" stroke-width="0.22415" stroke-miterlimit="10"/>
<mask id="mask0_1432_19396" style="mask-type:luminance" maskUnits="userSpaceOnUse" x="9" y="23" width="29" height="22">
<path d="M37.3128 35.3329C36.6327 34.696 35.6636 34.7267 34.7992 35.0246C34.3588 35.1763 33.9463 35.3861 33.5505 35.6124C33.3131 35.7481 32.8402 36.2422 32.5504 36.1887C32.3504 36.1519 32.3193 35.8612 32.258 35.7226C31.7205 34.5061 30.5629 33.3772 29.6351 32.3773C28.5941 31.2559 27.4829 30.1874 26.3759 29.1174C24.4872 27.2917 22.7499 25.285 21.5906 23.0236C21.2289 23.3094 20.5024 23.8856 20.3526 24.0228C18.9073 25.3468 17.3326 26.5813 15.6349 27.6502C14.8475 28.1459 14.0279 28.6075 13.1546 28.9769C12.3774 29.3058 11.5318 29.5786 10.6593 29.5861C10.6538 29.5861 10.6499 29.5838 10.6444 29.5834C10.4461 30.1394 10.2907 30.713 10.1844 31.3024C8.91822 38.3092 13.0022 43.1363 20.3572 44.1531C24.6987 44.7533 28.8793 43.1899 31.5924 40.3459C32.65 41.29 34.7277 40.9925 36.2935 39.652C37.892 38.2841 38.4734 36.4206 37.3128 35.3329Z" fill="white"/>
</mask>
<g mask="url(#mask0_1432_19396)">
<path d="M37.3128 35.3339C36.6327 34.697 35.6636 34.7277 34.7992 35.0256C34.3588 35.1773 33.9463 35.3871 33.5505 35.6134C33.3131 35.749 32.8402 36.2432 32.5504 36.1896C32.3504 36.1529 32.3193 35.8622 32.258 35.7235C31.7205 34.507 30.5629 33.3782 29.6351 32.3782C28.5941 31.2569 27.4829 30.1884 26.3759 29.1183C24.4872 27.2926 22.7499 25.286 21.5906 23.0245C21.2289 23.3104 20.5024 23.8866 20.3526 24.0237C18.9073 25.3478 17.3326 26.5823 15.6349 27.6512C14.8475 28.1469 14.0279 28.6084 13.1546 28.9778C12.3774 29.3068 11.5318 29.5795 10.6593 29.587C10.6538 29.587 10.6499 29.5848 10.6444 29.5844C10.4461 30.1404 10.2907 30.714 10.1844 31.3033C8.91822 38.3102 13.0022 43.1373 20.3572 44.1541C24.6987 44.7543 28.8793 43.1909 31.5924 40.3468C32.65 41.291 34.7277 40.9935 36.2935 39.653C37.892 38.2851 38.4734 36.4215 37.3128 35.3339Z" fill="#FDFDFF" stroke="#FDFDFF" stroke-width="0.230806" stroke-miterlimit="10"/>
</g>
<mask id="mask1_1432_19396" style="mask-type:luminance" maskUnits="userSpaceOnUse" x="9" y="23" width="29" height="22">
<path d="M37.3128 35.3329C36.6327 34.696 35.6636 34.7267 34.7992 35.0246C34.3588 35.1763 33.9463 35.3861 33.5505 35.6124C33.3131 35.7481 32.8402 36.2422 32.5504 36.1887C32.3504 36.1519 32.3193 35.8612 32.258 35.7226C31.7205 34.5061 30.5629 33.3772 29.6351 32.3773C28.5941 31.2559 27.4829 30.1874 26.3759 29.1174C24.4872 27.2917 22.7499 25.285 21.5906 23.0236C21.2289 23.3094 20.5024 23.8856 20.3526 24.0228C18.9073 25.3468 17.3326 26.5813 15.6349 27.6502C14.8475 28.1459 14.0279 28.6075 13.1546 28.9769C12.3774 29.3058 11.5318 29.5786 10.6593 29.5861C10.6538 29.5861 10.6499 29.5838 10.6444 29.5834C10.4461 30.1394 10.2907 30.713 10.1844 31.3024C8.91822 38.3092 13.0022 43.1363 20.3572 44.1531C24.6987 44.7533 28.8793 43.1899 31.5924 40.3459C32.65 41.29 34.7277 40.9925 36.2935 39.652C37.892 38.2841 38.4734 36.4206 37.3128 35.3329Z" fill="white"/>
</mask>
<g mask="url(#mask1_1432_19396)">
<path d="M33.5781 36.6439C34.0918 36.2363 34.6855 35.8822 35.395 35.7193C35.7452 35.6398 36.1521 35.6226 36.5292 35.7732C36.9028 35.9328 37.1697 36.2266 37.2646 36.5911C37.342 36.959 37.2101 37.2981 37.0497 37.5843C36.8773 37.8705 36.6671 38.1264 36.4304 38.3576C35.961 38.8222 35.4141 39.21 34.8251 39.5329C35.3073 39.0953 35.7635 38.6431 36.1674 38.1699C36.3615 37.929 36.55 37.6862 36.6798 37.427C36.8122 37.1729 36.899 36.8998 36.8399 36.6649C36.793 36.4386 36.5917 36.2045 36.3491 36.0966C36.101 35.9767 35.7801 35.9707 35.4622 36.01C34.8213 36.1055 34.1846 36.3566 33.5781 36.6439Z" fill="#1C1C1C"/>
<path d="M31.5713 40.3723C31.73 40.1838 31.8496 39.974 31.9633 39.7646C32.0748 39.5536 32.1739 39.3371 32.2586 39.1164C32.4386 38.6781 32.5693 38.2251 32.7 37.7699C32.6685 38.0029 32.6263 38.2352 32.5667 38.4649C32.5055 38.6938 32.4335 38.9208 32.3459 39.1434C32.1616 39.5832 31.9386 40.0265 31.5713 40.3723Z" fill="#1C1C1C"/>
<path d="M21.5572 22.577C21.0869 22.7643 20.6435 23.0528 20.4422 23.4856C20.2736 23.8475 20.2907 24.3046 20.5996 24.6065C20.8669 24.8677 21.3772 24.9879 21.6764 24.6983C21.9053 24.4765 21.9105 24.0891 21.5913 23.9314C21.184 23.7302 20.5996 23.9097 20.2792 24.1637C19.9306 24.4402 19.7778 24.8857 19.8795 25.2873C19.9715 25.6507 20.3439 25.9943 20.7967 25.8646C21.164 25.7597 21.2878 25.303 20.9048 25.1397C20.4664 24.9527 19.9625 25.2483 19.7808 25.599C19.5378 26.067 19.8097 26.5832 20.1609 26.9425C20.2779 27.0624 20.4741 26.8882 20.3579 26.7691C20.106 26.5113 19.8872 26.1513 19.9927 25.801C20.0387 25.6488 20.1515 25.5098 20.3004 25.4222C20.3988 25.3645 20.9065 25.2109 20.8631 25.4952C20.829 25.7178 20.463 25.6481 20.3456 25.5533C20.1941 25.4308 20.1336 25.2371 20.1272 25.0614C20.1149 24.7193 20.3196 24.3926 20.6579 24.224C20.875 24.1157 21.6309 23.9535 21.5619 24.3671C21.4934 24.7793 20.9176 24.608 20.7401 24.3641C20.2541 23.695 21.0699 23.039 21.6989 22.7883C21.8611 22.7239 21.7198 22.5126 21.5572 22.577Z" fill="#1A0000"/>
<path d="M16.8057 34.9874C16.9197 34.6926 17.124 34.4142 17.4198 34.2122C17.7096 34.0077 18.1097 33.8927 18.4923 33.9357C18.6808 33.9545 18.8723 34.0017 19.0447 34.0864C19.212 34.1785 19.3579 34.3014 19.4541 34.4483C19.6529 34.7398 19.6852 35.0785 19.6248 35.3842C19.5703 35.0785 19.4558 34.7851 19.2613 34.5633C19.0668 34.34 18.78 34.2209 18.4616 34.1973C18.1476 34.1583 17.833 34.2359 17.5521 34.3805C17.2725 34.5296 17.0206 34.7409 16.8057 34.9874Z" fill="#7A5FFF"/>
<g opacity="0.53">
<path d="M16.8315 34.9869C16.8315 34.9869 17.4959 33.8786 18.7063 34.1484C19.7456 34.3799 19.6315 35.4769 19.6315 35.4769" fill="#7A5FFF"/>
<path d="M16.8315 34.9871C16.9579 34.6964 17.1746 34.4251 17.4784 34.2329C17.7768 34.0385 18.1815 33.9365 18.562 33.9924C18.7497 34.0175 18.9386 34.0707 19.1076 34.1613C19.271 34.2588 19.4115 34.3869 19.5013 34.5364C19.6877 34.8342 19.7051 35.174 19.6315 35.4771C19.5902 35.1699 19.4885 34.8728 19.3034 34.645C19.1187 34.4154 18.8369 34.2869 18.5199 34.2524C18.2079 34.2029 17.89 34.27 17.6031 34.4052C17.3176 34.5454 17.0567 34.7481 16.8315 34.9871Z" fill="#7A5FFF"/>
</g>
<path d="M10.6922 31.949C10.5819 33.5473 11.9749 34.9196 13.8032 35.0137C15.6316 35.1077 17.2028 33.8886 17.3126 32.2903C17.4229 30.692 16.0299 29.3196 14.2016 29.2256C12.3737 29.1312 10.8024 30.3507 10.6922 31.949Z" fill="#FDFDFF"/>
<path d="M12.3033 31.4016C12.0557 32.6136 12.877 33.7706 14.1385 33.986C15.3999 34.2014 16.6231 33.3933 16.8712 32.1817C17.1193 30.97 16.2975 29.8127 15.0361 29.5973C13.7746 29.3818 12.551 30.1896 12.3033 31.4016Z" fill="black" stroke="black" stroke-width="0.232633" stroke-miterlimit="10"/>
<path d="M17.3928 31.6982C17.2192 31.379 17.0251 31.0714 16.7902 30.7949C16.5629 30.5155 16.3152 30.2532 16.0262 30.0393C15.7322 29.8321 15.4159 29.665 15.081 29.5466C14.738 29.4473 14.3843 29.3821 14.0179 29.3904C13.2731 29.3885 12.5411 29.5724 11.964 29.9628C11.3647 30.339 10.9689 30.9579 10.7349 31.6031L10.6957 31.7114L10.6034 31.6803C10.3846 31.6068 10.1676 31.5285 9.95264 31.4431L9.96242 31.4124L10.6366 31.5742L10.611 31.5892C10.7527 30.8905 11.1375 30.2154 11.7631 29.7538C12.384 29.2907 13.2105 29.0663 14.0179 29.0768C14.4247 29.0753 14.8286 29.1472 15.207 29.2776C15.5789 29.4215 15.9198 29.6223 16.2135 29.8688C16.7872 30.3738 17.1928 31.0111 17.4281 31.6911L17.3928 31.6982Z" fill="black"/>
<path d="M10.725 31.1693L10.1011 30.7246L10.888 30.8629L10.725 31.1693Z" fill="black"/>
<path d="M11.0342 30.5217L10.5137 30.0133L11.2474 30.24L11.0342 30.5217Z" fill="black"/>
<path d="M16.3881 34.2738C15.983 34.5653 15.5067 34.7833 14.9994 34.9242C14.4926 35.0665 13.9444 35.1198 13.4052 35.0583C13.1337 35.0332 12.8745 34.9538 12.6174 34.8766C12.3774 34.7635 12.1263 34.6683 11.9245 34.5068C11.6998 34.3738 11.5326 34.1865 11.3555 34.0141C11.1934 33.8306 11.0627 33.6264 10.9316 33.4304C11.2917 33.7646 11.6441 34.0924 12.0748 34.3195C12.4893 34.5626 12.9604 34.7181 13.4494 34.7672C13.9367 34.8279 14.4394 34.7938 14.9326 34.7031C15.4246 34.6057 15.9157 34.4678 16.3881 34.2738Z" fill="black"/>
<path d="M28.6363 34.7833C28.1681 36.4374 26.1998 37.4497 24.2395 37.0447C22.2792 36.6393 21.0693 34.9698 21.537 33.3157C22.0051 31.6616 23.9735 30.6493 25.9342 31.0543C27.8945 31.4593 29.104 33.1288 28.6363 34.7833Z" fill="#FDFDFF"/>
<path d="M28.6263 34.0277C28.448 35.3057 27.1895 36.2408 25.8148 36.1168C24.4402 35.9928 23.4703 34.8561 23.6486 33.5782C23.8269 32.3002 25.0854 31.3651 26.46 31.4891C27.8347 31.6135 28.8046 32.7498 28.6263 34.0277Z" fill="black" stroke="black" stroke-width="0.246677" stroke-miterlimit="10"/>
<path d="M21.6719 32.797C22.0634 32.1129 22.6831 31.5239 23.4717 31.1211C23.8666 30.9188 24.3156 30.7922 24.78 30.7401C25.2447 30.7049 25.7218 30.7274 26.1691 30.8416C27.0513 31.0462 27.8732 31.5381 28.3932 32.2268C28.652 32.5722 28.7869 32.9731 28.8601 33.3646C28.935 33.7602 28.9176 34.1555 28.809 34.544L28.7018 34.4286C28.9516 34.4556 29.2014 34.4878 29.4508 34.5279L29.45 34.5616L28.6984 34.5463L28.6745 34.5459L28.6775 34.5238C28.778 33.7868 28.603 33.0042 28.1213 32.3894C27.6387 31.7731 26.8773 31.3598 26.0648 31.1586C25.6605 31.0458 25.2332 31.0185 24.8119 31.0406C24.3918 31.0829 23.9807 31.186 23.5977 31.3474C22.8405 31.6846 22.1915 32.2054 21.7042 32.8153L21.6719 32.797Z" fill="black"/>
<path d="M28.7007 33.7275L29.5587 33.804L28.7569 34.0831L28.7007 33.7275Z" fill="black"/>
<path d="M28.5542 33.0066L29.3875 32.9803L28.6678 33.3513L28.5542 33.0066Z" fill="black"/>
<path d="M21.8301 35.6549C22.0424 35.8145 22.2548 35.9689 22.4855 36.1008C22.7059 36.2427 22.9387 36.3686 23.1779 36.4792C23.6563 36.6987 24.1598 36.8684 24.6815 36.937C25.2012 37.019 25.7379 36.9887 26.2515 36.8613C26.7771 36.7557 27.2521 36.5136 27.7445 36.2802C27.5377 36.4417 27.3291 36.6122 27.0959 36.7519C26.8508 36.8748 26.6099 37.0134 26.3345 37.0895C26.0715 37.1992 25.7804 37.2247 25.4953 37.2734C25.2059 37.2813 24.9131 37.2918 24.6266 37.2442C24.0542 37.161 23.509 36.9655 23.0383 36.6834C22.5685 36.4031 22.1454 36.0633 21.8301 35.6549Z" fill="black"/>
<path opacity="0.49" d="M20.0383 36.5622C19.9447 37.083 19.3356 38.017 17.9806 37.8548C17.0434 37.7428 16.4344 36.7911 16.528 36.2704C16.528 36.2704 17.4303 36.104 18.3793 36.155C19.039 36.1906 20.0383 36.5622 20.0383 36.5622Z" fill="#7A5FFF"/>
<path d="M15.9204 35.7975C16.2702 36.062 16.6388 36.2898 17.024 36.4741C17.4113 36.654 17.8211 36.784 18.2407 36.8192C18.6578 36.8596 19.0889 36.8192 19.4932 36.6794C19.7056 36.6318 19.8907 36.5221 20.0967 36.4441C20.2934 36.3505 20.4764 36.234 20.6836 36.1369C20.5342 36.2894 20.3789 36.4445 20.204 36.5816C20.0125 36.6982 19.8363 36.8461 19.6116 36.9233C19.1915 37.129 18.6838 37.1995 18.1994 37.1571C17.7126 37.1092 17.2512 36.9421 16.8661 36.6989C16.4809 36.4557 16.1485 36.1534 15.9204 35.7975Z" fill="#3B130E"/>
<path d="M11.7929 28.3493C11.8814 27.9656 12.127 27.6134 12.4577 27.3422C12.7833 27.0623 13.1952 26.8664 13.6255 26.7386C14.0626 26.6288 14.5154 26.5854 14.9563 26.6247C15.1764 26.6371 15.3908 26.6899 15.6024 26.73C15.8088 26.8016 16.0139 26.8593 16.2071 26.9496L16.2114 26.9514C16.2208 26.9559 16.2242 26.966 16.2195 26.9739C16.2156 26.9803 16.2076 26.9836 16.1999 26.9825L15.5828 26.908C15.3755 26.9035 15.1683 26.8832 14.9614 26.8915C14.5473 26.9008 14.1354 26.9559 13.7413 27.0627C12.9594 27.2774 12.233 27.7258 11.8282 28.3639C11.8231 28.3721 11.8112 28.3751 11.8023 28.3702C11.7946 28.3665 11.7912 28.359 11.7929 28.3523V28.3493Z" fill="#2E2E2E"/>
<path d="M29.2499 30.5318C29.0128 30.2175 28.7353 29.962 28.4566 29.7297C28.1702 29.503 27.8671 29.3067 27.5369 29.1433C27.37 29.0635 27.2041 28.9819 27.0236 28.9204C26.853 28.838 26.6631 28.7964 26.481 28.7252L25.3038 28.3753L25.2974 28.3734C25.2876 28.3704 25.2825 28.3611 25.2855 28.3524C25.2885 28.3453 25.2961 28.3408 25.3042 28.3412L25.9298 28.3738C26.1358 28.4049 26.3452 28.421 26.5487 28.4648C26.9577 28.5458 27.3552 28.6717 27.7263 28.8477C28.4493 29.2198 29.0503 29.808 29.2869 30.5243C29.2899 30.533 29.2839 30.5419 29.2741 30.5446C29.2661 30.5464 29.258 30.5438 29.2537 30.5378L29.2499 30.5318Z" fill="#2E2E2E"/>
</g>
<path d="M66.0675 34.148C67.3395 34.148 68.2515 33.92 68.8035 33.464C69.3795 32.984 69.6675 32.42 69.6675 31.772C69.6675 31.172 69.4395 30.692 68.9835 30.332C68.5515 29.948 67.9035 29.612 67.0395 29.324L65.1315 28.712C63.8355 28.28 62.6955 27.8 61.7115 27.272C60.7275 26.744 59.9595 26.072 59.4075 25.256C58.8555 24.416 58.5795 23.348 58.5795 22.052C58.5795 20.06 59.3355 18.476 60.8475 17.3C62.3595 16.124 64.4595 15.536 67.1475 15.536C68.5155 15.536 69.7275 15.668 70.7835 15.932C71.8635 16.196 72.7035 16.592 73.3035 17.12C73.9275 17.624 74.2395 18.248 74.2395 18.992C74.2395 19.52 74.1075 19.988 73.8435 20.396C73.5795 20.804 73.2675 21.14 72.9075 21.404C72.3555 21.044 71.6115 20.72 70.6755 20.432C69.7635 20.144 68.7675 20 67.6875 20C66.5355 20 65.6595 20.192 65.0595 20.576C64.4835 20.96 64.1955 21.452 64.1955 22.052C64.1955 22.532 64.3875 22.928 64.7715 23.24C65.1795 23.528 65.7675 23.792 66.5355 24.032L68.5155 24.68C70.6995 25.352 72.3795 26.24 73.5555 27.344C74.7315 28.448 75.3195 29.936 75.3195 31.808C75.3195 33.824 74.5395 35.468 72.9795 36.74C71.4195 37.988 69.1635 38.612 66.2115 38.612C64.7475 38.612 63.4395 38.444 62.2875 38.108C61.1355 37.796 60.2235 37.352 59.5515 36.776C58.8795 36.176 58.5435 35.48 58.5435 34.688C58.5435 34.064 58.7235 33.536 59.0835 33.104C59.4435 32.672 59.8515 32.336 60.3075 32.096C60.9555 32.624 61.7595 33.104 62.7195 33.536C63.7035 33.944 64.8195 34.148 66.0675 34.148ZM78.0175 22.808H83.4895V37.964C83.2495 38.012 82.8895 38.072 82.4095 38.144C81.9535 38.216 81.4735 38.252 80.9695 38.252C79.8895 38.252 79.1215 38.06 78.6655 37.676C78.2335 37.292 78.0175 36.632 78.0175 35.696V22.808ZM83.4895 29.648H78.0175V16.112C78.2815 16.064 78.6535 16.004 79.1335 15.932C79.6135 15.86 80.0935 15.824 80.5735 15.824C81.6055 15.824 82.3495 16.004 82.8055 16.364C83.2615 16.724 83.4895 17.396 83.4895 18.38V29.648ZM101.956 32.564C101.668 32.756 101.308 32.936 100.876 33.104C100.444 33.248 99.9395 33.32 99.3635 33.32C98.6195 33.32 97.9955 33.224 97.4915 33.032C97.0115 32.84 96.6875 32.516 96.5195 32.06C95.7035 29.78 95.0075 27.872 94.4315 26.336C93.8795 24.8 93.4475 23.48 93.1355 22.376H92.9555C92.8835 23.888 92.8235 25.28 92.7755 26.552C92.7275 27.824 92.6795 29.048 92.6315 30.224C92.6075 31.4 92.5715 32.612 92.5235 33.86C92.4755 35.084 92.4155 36.428 92.3435 37.892C92.0555 37.964 91.6955 38.036 91.2635 38.108C90.8315 38.204 90.3995 38.252 89.9675 38.252C89.0555 38.252 88.3475 38.108 87.8435 37.82C87.3395 37.508 87.0875 36.968 87.0875 36.2C87.0875 35.672 87.1115 34.892 87.1595 33.86C87.2075 32.804 87.2675 31.604 87.3395 30.26C87.4355 28.892 87.5315 27.452 87.6275 25.94C87.7235 24.428 87.8195 22.94 87.9155 21.476C88.0355 19.988 88.1315 18.62 88.2035 17.372C88.3955 17.084 88.7795 16.796 89.3555 16.508C89.9315 16.196 90.7235 16.04 91.7315 16.04C92.8115 16.04 93.6755 16.22 94.3235 16.58C94.9715 16.916 95.4395 17.468 95.7275 18.236C96.0875 19.124 96.4715 20.144 96.8795 21.296C97.2875 22.424 97.6955 23.576 98.1035 24.752C98.5115 25.904 98.8835 26.96 99.2195 27.92H99.3995C100.096 25.784 100.792 23.708 101.488 21.692C102.184 19.676 102.796 17.984 103.324 16.616C103.636 16.448 104.044 16.316 104.548 16.22C105.076 16.1 105.628 16.04 106.204 16.04C107.236 16.04 108.064 16.196 108.688 16.508C109.336 16.796 109.72 17.24 109.84 17.84C109.936 18.296 110.032 19.016 110.128 20C110.248 20.984 110.368 22.124 110.488 23.42C110.608 24.692 110.728 26.036 110.848 27.452C110.968 28.844 111.076 30.2 111.172 31.52C111.292 32.84 111.388 34.04 111.46 35.12C111.532 36.176 111.58 37.016 111.604 37.64C111.244 37.856 110.86 38.012 110.452 38.108C110.068 38.204 109.576 38.252 108.976 38.252C108.232 38.252 107.584 38.12 107.032 37.856C106.48 37.568 106.18 37.028 106.132 36.236C106.036 34.34 105.952 32.54 105.88 30.836C105.808 29.132 105.748 27.572 105.7 26.156C105.652 24.74 105.604 23.54 105.556 22.556H105.376C105.064 23.588 104.62 24.896 104.044 26.48C103.492 28.04 102.796 30.068 101.956 32.564ZM126.434 24.896V28.784H118.406V24.896H126.434ZM123.734 28.784L124.166 25.796C126.158 25.796 127.802 26.036 129.098 26.516C130.418 26.996 131.414 27.668 132.086 28.532C132.758 29.396 133.094 30.44 133.094 31.664C133.094 33.992 132.23 35.72 130.502 36.848C128.774 37.976 126.314 38.54 123.122 38.54C122.546 38.54 121.886 38.516 121.142 38.468C120.422 38.42 119.678 38.336 118.91 38.216C118.166 38.096 117.482 37.928 116.858 37.712C115.61 37.256 114.986 36.452 114.986 35.3V18.092C114.986 17.612 115.118 17.252 115.382 17.012C115.646 16.748 116.006 16.532 116.462 16.364C117.278 16.1 118.262 15.908 119.414 15.788C120.566 15.668 121.754 15.608 122.978 15.608C125.93 15.608 128.222 16.124 129.854 17.156C131.486 18.164 132.302 19.724 132.302 21.836C132.302 22.988 131.966 23.972 131.294 24.788C130.622 25.604 129.638 26.228 128.342 26.66C127.07 27.068 125.522 27.272 123.698 27.272L123.446 24.896C124.622 24.896 125.486 24.668 126.038 24.212C126.59 23.756 126.866 23.108 126.866 22.268C126.866 21.476 126.542 20.864 125.894 20.432C125.246 20 124.286 19.784 123.014 19.784C122.558 19.784 122.066 19.796 121.538 19.82C121.034 19.844 120.626 19.892 120.314 19.964V34.004C120.698 34.124 121.19 34.208 121.79 34.256C122.39 34.28 122.954 34.292 123.482 34.292C124.706 34.292 125.678 34.064 126.398 33.608C127.142 33.152 127.514 32.432 127.514 31.448C127.514 30.536 127.19 29.864 126.542 29.432C125.918 29 124.982 28.784 123.734 28.784ZM136.02 22.808H141.492V37.964C141.252 38.012 140.892 38.072 140.412 38.144C139.956 38.216 139.476 38.252 138.972 38.252C137.892 38.252 137.124 38.06 136.668 37.676C136.236 37.292 136.02 36.632 136.02 35.696V22.808ZM141.492 29.648H136.02V16.112C136.284 16.064 136.656 16.004 137.136 15.932C137.616 15.86 138.096 15.824 138.576 15.824C139.608 15.824 140.352 16.004 140.808 16.364C141.264 16.724 141.492 17.396 141.492 18.38V29.648Z" fill="#1E1E2F"/>
</svg>
