<svg width="37" height="28" viewBox="0 0 37 28" fill="none" xmlns="http://www.w3.org/2000/svg">
<path d="M33.5278 20.6105C33.5278 20.6105 35.5686 19.982 35.9086 17.8793C36.2485 15.7765 33.5725 15.4443 33.5725 15.4443C35.0586 14.5842 34.912 12.8494 34.912 12.8494C35.3265 9.73927 32.6309 9.34794 32.6309 9.34794C32.6309 9.34794 33.8079 8.34773 33.5103 6.85796C32.932 3.96172 29.7235 4.38674 29.7235 4.38674C29.5757 2.90288 28.4696 1.63578 26.9064 1.25112C26.8828 1.24521 26.8591 1.23955 26.8354 1.23415C25.2378 0.857467 23.5431 1.48819 22.6097 2.75529L22.4785 2.93348C22.4414 2.74887 22.3617 2.55551 22.26 2.36601C21.7352 1.38611 20.7395 0.693678 19.5864 0.418299C16.8464 -0.235823 15.2905 1.55247 15.2905 1.55247C14.3062 0.189462 11.6258 0.400039 11.6258 0.400039C5.70767 1.06727 6.48811 6.47021 6.48811 6.47021C6.48811 6.47021 4.0031 4.67369 1.78828 8.04843C-0.426846 11.4229 2.7241 14.2045 2.7241 14.2045C2.17324 14.3433 1.566 15.2312 1.566 15.2312C-0.142654 18.6764 4.72571 20.1667 4.72571 20.1667C2.52344 23.5478 7.45284 23.9099 7.45284 23.9099C7.72681 25.8769 9.61977 24.4994 9.61977 24.4994C9.23598 26.8845 11.3568 25.9666 11.3568 25.9666C11.6669 27.4278 13.1998 26.0486 13.1998 26.0486L13.4834 26.0278C13.4536 26.6292 13.9343 27.1681 14.626 27.2638C15.2364 27.3481 15.8104 27.0583 16.0624 26.5906C16.3513 27.1519 16.9842 27.5898 17.7799 27.6999C18.9645 27.8636 20.061 27.2404 20.2567 26.3037C20.4398 26.5989 20.7666 26.821 21.1732 26.8771C21.725 26.9534 22.2451 26.7027 22.4925 26.2911C23.2134 28.1645 25.0345 26.8886 25.0345 26.8886C26.442 27.9873 27.2493 26.5168 27.2493 26.5168C27.2493 26.5168 28.5117 27.6289 30.2186 25.991C31.1754 25.0728 30.551 23.3414 30.551 23.3414C30.551 23.3414 32.108 24.6558 33.4998 23.4385C35.0387 22.092 33.5278 20.6105 33.5278 20.6105Z" fill="#7A5FFF" stroke="#7A5FFF" stroke-width="0.168683" stroke-miterlimit="10" stroke-linecap="round"/>
<path d="M4.03473 2.9849C4.41297 2.96201 4.88964 2.98489 4.90015 3.41455C4.90424 3.58476 4.83356 3.77992 4.73542 3.92519C4.68168 4.00464 4.61947 4.08641 4.51227 4.11675C4.31337 4.17306 4.21435 3.9851 4.30899 3.85088C4.50965 3.56676 5.06635 3.60996 5.28482 3.8442C5.50096 4.07561 5.37186 4.46566 5.04006 4.54331C5.07277 4.59294 5.10578 4.64257 5.13849 4.69219C5.39902 4.51452 5.73754 4.70993 5.80618 4.95523C5.84327 5.08739 5.82108 5.22881 5.76763 5.35505C5.73024 5.44351 5.66803 5.52347 5.68146 5.62247C5.70658 5.80785 5.95426 5.94901 6.06525 6.09531C6.22122 6.30101 6.31878 6.52934 6.36901 6.77181C6.39238 6.88443 6.5872 6.8366 6.56412 6.72449C6.50483 6.43754 6.37807 6.16628 6.18092 5.93127C6.04335 5.76722 5.87102 5.6942 5.93791 5.45482C5.97529 5.32163 6.03049 5.21235 6.02524 5.07068C6.0083 4.613 5.45189 4.25508 4.99537 4.5662C4.91155 4.62328 5.00384 4.73616 5.0938 4.71507C5.48168 4.62405 5.6876 4.22886 5.55178 3.90154C5.40516 3.54748 4.90453 3.40452 4.51899 3.51457C4.32447 3.57011 4.12877 3.69558 4.07708 3.87865C4.03268 4.03575 4.10658 4.216 4.28241 4.28054C4.76784 4.45898 5.05262 3.84523 5.09409 3.52794C5.12359 3.30244 5.05875 3.07257 4.84378 2.9327C4.61392 2.78305 4.30636 2.79102 4.03502 2.80722C3.90563 2.81468 3.90446 2.99261 4.03473 2.9849Z" fill="#7A5FFF"/>
<path d="M35.9532 7.31435C35.5457 7.0814 35.0016 6.92223 34.697 7.3668C34.5007 7.65349 34.3698 8.26622 34.7852 8.45701C34.9552 8.53517 35.1494 8.48941 35.2586 8.35287C35.3877 8.1914 35.3436 7.98107 35.2274 7.82448C34.996 7.5131 34.482 7.36475 34.1064 7.56453C33.7348 7.76226 33.6604 8.26056 33.9738 8.52591C34.0623 8.60073 34.1753 8.50663 34.1327 8.41792C33.8987 7.93119 33.1676 8.08263 32.9363 8.48194C32.8706 8.59508 32.8528 8.7095 32.8265 8.83189C32.7821 9.03836 32.5511 9.04582 32.3682 9.11756C32.0609 9.23815 31.7957 9.42276 31.5831 9.65134C31.5013 9.73928 31.6436 9.86604 31.7262 9.77733C31.9079 9.58192 32.1252 9.42148 32.3822 9.30809C32.5706 9.22503 32.8945 9.20806 32.9918 9.01779C33.0341 8.93526 33.0216 8.83806 33.042 8.75089C33.0704 8.62927 33.1317 8.50894 33.2316 8.41972C33.4472 8.22713 33.8304 8.2418 33.9583 8.50792C34.0112 8.47192 34.064 8.43592 34.1172 8.40018C33.8955 8.21248 33.9492 7.86176 34.2089 7.71829C34.5278 7.54216 35.055 7.73243 35.1263 8.06309C35.15 8.17365 35.1056 8.34876 34.9178 8.31353C34.7586 8.2837 34.727 8.10654 34.7235 7.99187C34.7192 7.84659 34.7527 7.69206 34.8155 7.55785C34.8897 7.3992 35.0203 7.26266 35.2282 7.24904C35.4552 7.23438 35.6705 7.36423 35.8518 7.46785C35.9605 7.53059 36.0621 7.37658 35.9532 7.31435Z" fill="#7A5FFF"/>
<path d="M7.7373 16.0667C7.7373 16.0667 7.73409 7.1119 17.5348 7.87196C26.8246 8.59242 25.0789 19.6189 22.6257 20.7291L22.4618 21.0115C22.4618 21.0115 23.9687 14.5173 20.6977 11.2727C18.5661 9.15835 14.9811 8.87834 12.3702 10.5242C11.01 11.3817 9.01281 13.6961 7.7373 16.0667Z" fill="#FDFDFF" stroke="#FDFDFF" stroke-width="0.153832" stroke-miterlimit="10"/>
<mask id="mask0_1138_22907" style="mask-type:luminance" maskUnits="userSpaceOnUse" x="7" y="11" width="20" height="15">
<path d="M25.9289 19.7173C25.4622 19.2802 24.7971 19.3013 24.2039 19.5057C23.9016 19.6098 23.6186 19.7538 23.3469 19.9091C23.184 20.0022 22.8595 20.3414 22.6606 20.3046C22.5233 20.2794 22.502 20.0799 22.4599 19.9847C22.091 19.1498 21.2966 18.3751 20.6598 17.6889C19.9454 16.9193 19.1828 16.186 18.4231 15.4516C17.1268 14.1987 15.9346 12.8215 15.139 11.2695C14.8907 11.4657 14.3921 11.8612 14.2893 11.9553C13.2974 12.864 12.2167 13.7112 11.0516 14.4447C10.5113 14.7849 9.94873 15.1017 9.34939 15.3552C8.81605 15.581 8.23569 15.7682 7.63693 15.7733C7.63314 15.7733 7.63051 15.7718 7.62671 15.7715C7.4906 16.1531 7.38399 16.5467 7.31097 16.9512C6.44204 21.7599 9.24482 25.0727 14.2925 25.7705C17.272 26.1824 20.1411 25.1095 22.0031 23.1576C22.7289 23.8056 24.1548 23.6014 25.2294 22.6814C26.3264 21.7427 26.7254 20.4638 25.9289 19.7173Z" fill="white"/>
</mask>
<g mask="url(#mask0_1138_22907)">
<path d="M25.9289 19.7193C25.4622 19.2822 24.7971 19.3033 24.2039 19.5077C23.9016 19.6118 23.6186 19.7558 23.3469 19.9111C23.184 20.0042 22.8595 20.3433 22.6606 20.3065C22.5233 20.2813 22.502 20.0818 22.4599 19.9867C22.091 19.1518 21.2966 18.3771 20.6598 17.6908C19.9454 16.9213 19.1828 16.1879 18.4231 15.4536C17.1268 14.2006 15.9346 12.8235 15.139 11.2715C14.8907 11.4677 14.3921 11.8631 14.2893 11.9572C13.2974 12.8659 12.2167 13.7131 11.0516 14.4467C10.5113 14.7869 9.94873 15.1037 9.34939 15.3572C8.81605 15.5829 8.23569 15.7701 7.63693 15.7753C7.63314 15.7753 7.63051 15.7737 7.62671 15.7735C7.4906 16.155 7.38399 16.5487 7.31097 16.9531C6.44204 21.7619 9.24482 25.0746 14.2925 25.7725C17.272 26.1844 20.1411 25.1114 22.0031 23.1596C22.7289 23.8075 24.1548 23.6034 25.2294 22.6834C26.3264 21.7446 26.7254 20.4657 25.9289 19.7193Z" fill="#FDFDFF" stroke="#FDFDFF" stroke-width="0.1584" stroke-miterlimit="10"/>
</g>
<mask id="mask1_1138_22907" style="mask-type:luminance" maskUnits="userSpaceOnUse" x="7" y="11" width="20" height="15">
<path d="M25.9289 19.7173C25.4622 19.2802 24.7971 19.3013 24.2039 19.5057C23.9016 19.6098 23.6186 19.7538 23.3469 19.9091C23.184 20.0022 22.8595 20.3414 22.6606 20.3046C22.5233 20.2794 22.502 20.0799 22.4599 19.9847C22.091 19.1498 21.2966 18.3751 20.6598 17.6889C19.9454 16.9193 19.1828 16.186 18.4231 15.4516C17.1268 14.1987 15.9346 12.8215 15.139 11.2695C14.8907 11.4657 14.3921 11.8612 14.2893 11.9553C13.2974 12.864 12.2167 13.7112 11.0516 14.4447C10.5113 14.7849 9.94873 15.1017 9.34939 15.3552C8.81605 15.581 8.23569 15.7682 7.63693 15.7733C7.63314 15.7733 7.63051 15.7718 7.62671 15.7715C7.4906 16.1531 7.38399 16.5467 7.31097 16.9512C6.44204 21.7599 9.24482 25.0727 14.2925 25.7705C17.272 26.1824 20.1411 25.1095 22.0031 23.1576C22.7289 23.8056 24.1548 23.6014 25.2294 22.6814C26.3264 21.7427 26.7254 20.4638 25.9289 19.7173Z" fill="white"/>
</mask>
<g mask="url(#mask1_1138_22907)">
<path d="M23.3594 20.6141C23.7119 20.3344 24.1194 20.0914 24.6063 19.9795C24.8466 19.925 25.1259 19.9132 25.3846 20.0166C25.6411 20.1261 25.8242 20.3277 25.8894 20.5779C25.9425 20.8304 25.852 21.0631 25.7419 21.2595C25.6236 21.4559 25.4793 21.6316 25.3169 21.7902C24.9947 22.109 24.6194 22.3752 24.2152 22.5968C24.5461 22.2965 24.8592 21.9861 25.1364 21.6614C25.2696 21.4961 25.399 21.3294 25.488 21.1515C25.5789 20.9772 25.6385 20.7897 25.5979 20.6285C25.5657 20.4732 25.4276 20.3125 25.2611 20.2385C25.0908 20.1562 24.8706 20.1521 24.6524 20.1791C24.2125 20.2446 23.7756 20.4169 23.3594 20.6141Z" fill="#1C1C1C"/>
<path d="M21.9824 23.1737C22.0914 23.0443 22.1734 22.9003 22.2514 22.7566C22.3279 22.6119 22.396 22.4632 22.4541 22.3118C22.5777 22.011 22.6673 21.7001 22.757 21.3877C22.7354 21.5476 22.7065 21.707 22.6656 21.8647C22.6235 22.0218 22.5742 22.1776 22.514 22.3303C22.3875 22.6322 22.2345 22.9363 21.9824 23.1737Z" fill="#1C1C1C"/>
<path d="M15.1129 10.9624C14.7902 11.091 14.4858 11.2889 14.3477 11.5859C14.232 11.8343 14.2437 12.148 14.4557 12.3552C14.6392 12.5344 14.9894 12.617 15.1947 12.4182C15.3518 12.266 15.3553 12.0001 15.1363 11.8919C14.8568 11.7538 14.4557 11.877 14.2358 12.0513C13.9966 12.2411 13.8917 12.5468 13.9615 12.8224C14.0246 13.0718 14.2802 13.3076 14.591 13.2187C14.843 13.1467 14.928 12.8332 14.6652 12.7211C14.3643 12.5928 14.0185 12.7957 13.8938 13.0364C13.727 13.3575 13.9136 13.7118 14.1546 13.9584C14.2349 14.0407 14.3696 13.9211 14.2898 13.8394C14.1169 13.6625 13.9668 13.4154 14.0392 13.1749C14.0708 13.0705 14.1482 12.9752 14.2504 12.915C14.3179 12.8754 14.6663 12.77 14.6365 12.9651C14.6132 13.1179 14.362 13.07 14.2814 13.005C14.1774 12.9209 14.1359 12.788 14.1315 12.6674C14.1231 12.4326 14.2635 12.2084 14.4958 12.0927C14.6447 12.0184 15.1634 11.9071 15.1161 12.1909C15.0691 12.4738 14.6739 12.3563 14.5521 12.1889C14.2186 11.7297 14.7785 11.2794 15.2102 11.1074C15.3215 11.0632 15.2245 10.9182 15.1129 10.9624Z" fill="#1A0000"/>
<path d="M11.8584 19.4818C11.9367 19.2795 12.0769 19.0884 12.2799 18.9498C12.4788 18.8094 12.7533 18.7305 13.0159 18.7601C13.1453 18.7729 13.2767 18.8053 13.395 18.8634C13.5098 18.9267 13.61 19.011 13.676 19.1118C13.8124 19.3119 13.8346 19.5443 13.7931 19.7541C13.7557 19.5443 13.6772 19.343 13.5437 19.1908C13.4102 19.0375 13.2134 18.9558 12.9949 18.9396C12.7793 18.9128 12.5635 18.966 12.3707 19.0653C12.1788 19.1676 12.0059 19.3126 11.8584 19.4818Z" fill="#7A5FFF"/>
<g opacity="0.53">
<path d="M11.8721 19.4785C11.8721 19.4785 12.328 18.7179 13.1587 18.9031C13.8719 19.062 13.7937 19.8148 13.7937 19.8148" fill="#7A5FFF"/>
<path d="M11.8721 19.4802C11.9588 19.2807 12.1075 19.0945 12.316 18.9626C12.5208 18.8292 12.7985 18.7592 13.0597 18.7975C13.1885 18.8148 13.3182 18.8513 13.4341 18.9135C13.5463 18.9804 13.6427 19.0683 13.7043 19.1709C13.8322 19.3753 13.8442 19.6085 13.7937 19.8165C13.7653 19.6057 13.6955 19.4018 13.5685 19.2455C13.4417 19.0878 13.2483 18.9996 13.0307 18.976C12.8167 18.942 12.5985 18.9881 12.4016 19.0809C12.2056 19.1771 12.0266 19.3162 11.8721 19.4802Z" fill="#7A5FFF"/>
</g>
<path d="M7.65361 17.394C7.57796 18.4909 8.53394 19.4328 9.78871 19.4973C11.0435 19.5618 12.1218 18.7252 12.1972 17.6283C12.2728 16.5314 11.3169 15.5895 10.0621 15.525C8.80761 15.4602 7.72926 16.2971 7.65361 17.394Z" fill="#FDFDFF"/>
<path d="M8.76169 17.018C8.5917 17.8498 9.15541 18.6438 10.0211 18.7917C10.8869 18.9395 11.7263 18.3849 11.8966 17.5534C12.0668 16.7218 11.5028 15.9276 10.6371 15.7797C9.7714 15.6319 8.93168 16.1862 8.76169 17.018Z" fill="black" stroke="black" stroke-width="0.159654" stroke-miterlimit="10"/>
<path d="M12.2536 17.2222C12.1344 17.0031 12.0012 16.792 11.84 16.6023C11.684 16.4104 11.514 16.2305 11.3157 16.0836C11.1139 15.9415 10.8969 15.8268 10.667 15.7455C10.4316 15.6774 10.1889 15.6326 9.93739 15.6383C9.42626 15.637 8.92388 15.7633 8.52782 16.0312C8.11658 16.2893 7.84494 16.7141 7.6843 17.1569L7.65743 17.2312L7.59405 17.2098C7.44392 17.1594 7.29496 17.1057 7.14746 17.0471L7.15418 17.026L7.61683 17.1371L7.59931 17.1474C7.69657 16.6678 7.96061 16.2045 8.38996 15.8877C8.8161 15.5699 9.38332 15.4159 9.93739 15.4231C10.2166 15.4221 10.4938 15.4714 10.7535 15.5609C11.0087 15.6596 11.2427 15.7975 11.4442 15.9667C11.8379 16.3133 12.1163 16.7506 12.2778 17.2173L12.2536 17.2222Z" fill="black"/>
<path d="M7.67623 16.8589L7.24805 16.5537L7.7881 16.6486L7.67623 16.8589Z" fill="black"/>
<path d="M7.89237 16.4153L7.53516 16.0664L8.0387 16.222L7.89237 16.4153Z" fill="black"/>
<path d="M11.5621 18.9899C11.2841 19.19 10.9572 19.3396 10.6091 19.4363C10.2612 19.534 9.88501 19.5705 9.51495 19.5283C9.3286 19.5111 9.15072 19.4566 8.9743 19.4036C8.80957 19.326 8.63725 19.2607 8.4988 19.1499C8.34459 19.0586 8.2298 18.93 8.10829 18.8117C7.99701 18.6857 7.90734 18.5456 7.81738 18.4111C8.06448 18.6405 8.30632 18.8655 8.60191 19.0213C8.88639 19.1882 9.20972 19.2949 9.54532 19.3285C9.87975 19.3702 10.2247 19.3468 10.5632 19.2846C10.9009 19.2177 11.2379 19.1231 11.5621 18.9899Z" fill="black"/>
<path d="M19.9714 19.3401C19.6501 20.4753 18.2992 21.17 16.9539 20.8921C15.6086 20.6139 14.7782 19.4681 15.0992 18.3329C15.4205 17.1977 16.7714 16.503 18.117 16.7809C19.4623 17.0589 20.2924 18.2046 19.9714 19.3401Z" fill="#FDFDFF"/>
<path d="M19.9648 18.8202C19.8425 19.6972 18.9788 20.339 18.0354 20.2539C17.0919 20.1688 16.4263 19.3887 16.5487 18.5116C16.6711 17.6346 17.5347 16.9928 18.4782 17.0779C19.4216 17.1633 20.0872 17.9431 19.9648 18.8202Z" fill="black" stroke="black" stroke-width="0.169292" stroke-miterlimit="10"/>
<path d="M15.1885 17.9758C15.4572 17.5063 15.8825 17.1021 16.4237 16.8257C16.6947 16.6868 17.0029 16.5999 17.3215 16.5642C17.6405 16.54 17.9679 16.5554 18.2749 16.6339C18.8803 16.7743 19.4443 17.1119 19.8013 17.5845C19.9789 17.8215 20.0714 18.0966 20.1217 18.3653C20.1731 18.6369 20.1611 18.9081 20.0866 19.1748L20.013 19.0956C20.1845 19.1141 20.3559 19.1362 20.5271 19.1637L20.5265 19.1868L20.0107 19.1763L19.9943 19.1761L19.9964 19.1609C20.0653 18.6551 19.9453 18.118 19.6146 17.696C19.2834 17.2731 18.7609 16.9895 18.2033 16.8514C17.9258 16.774 17.6326 16.7552 17.3434 16.7704C17.0551 16.7995 16.773 16.8702 16.5101 16.981C15.9905 17.2124 15.5451 17.5698 15.2107 17.9884L15.1885 17.9758Z" fill="black"/>
<path d="M20.0137 18.6133L20.6025 18.6657L20.0522 18.8573L20.0137 18.6133Z" fill="black"/>
<path d="M19.918 18.1196L20.4899 18.1016L19.996 18.3561L19.918 18.1196Z" fill="black"/>
<path d="M15.3008 19.9385C15.4465 20.048 15.5923 20.1539 15.7506 20.2445C15.9019 20.3419 16.0616 20.4283 16.2258 20.5042C16.5541 20.6548 16.8996 20.7713 17.2577 20.8184C17.6143 20.8747 17.9826 20.8538 18.3352 20.7664C18.6959 20.6939 19.0219 20.5278 19.3598 20.3676C19.2178 20.4784 19.0747 20.5954 18.9147 20.6913C18.7464 20.7757 18.5811 20.8708 18.3921 20.923C18.2116 20.9983 18.0119 21.0158 17.8162 21.0493C17.6175 21.0547 17.4166 21.0618 17.22 21.0292C16.8272 20.9721 16.453 20.8379 16.13 20.6443C15.8075 20.452 15.5172 20.2187 15.3008 19.9385Z" fill="black"/>
<path opacity="0.49" d="M14.0708 20.5596C14.0066 20.917 13.5886 21.558 12.6586 21.4467C12.0155 21.3698 11.5975 20.7167 11.6618 20.3593C11.6618 20.3593 12.281 20.2451 12.9323 20.2801C13.385 20.3045 14.0708 20.5596 14.0708 20.5596Z" fill="#7A5FFF"/>
<path d="M11.2451 20.0361C11.4852 20.2177 11.7381 20.374 12.0025 20.5005C12.2683 20.6239 12.5495 20.7131 12.8375 20.7373C13.1238 20.7651 13.4196 20.7373 13.6971 20.6414C13.8429 20.6087 13.9699 20.5334 14.1113 20.4799C14.2462 20.4156 14.3718 20.3357 14.5141 20.2691C14.4115 20.3737 14.3049 20.4802 14.1849 20.5743C14.0535 20.6543 13.9325 20.7558 13.7783 20.8088C13.49 20.9499 13.1416 20.9983 12.8092 20.9692C12.4751 20.9363 12.1584 20.8216 11.8941 20.6548C11.6298 20.4879 11.4017 20.2804 11.2451 20.0361Z" fill="#3B130E"/>
<path d="M8.41436 14.9238C8.47511 14.6605 8.64364 14.4188 8.87058 14.2326C9.09402 14.0406 9.37676 13.9061 9.67205 13.8184C9.97201 13.7431 10.2828 13.7132 10.5854 13.7402C10.7364 13.7487 10.8836 13.785 11.0287 13.8125C11.1704 13.8616 11.3112 13.9012 11.4438 13.9632L11.4467 13.9645C11.4531 13.9675 11.4555 13.9745 11.4523 13.9799C11.4496 13.9843 11.4441 13.9866 11.4388 13.9858L11.0153 13.9346C10.8731 13.9315 10.7308 13.9177 10.5889 13.9233C10.3047 13.9297 10.022 13.9675 9.75149 14.0408C9.21494 14.1882 8.71636 14.4959 8.4386 14.9338C8.43509 14.9395 8.42691 14.9415 8.42078 14.9382C8.41552 14.9356 8.41319 14.9305 8.41436 14.9258V14.9238Z" fill="#2E2E2E"/>
<path d="M20.3932 16.4224C20.2305 16.2066 20.04 16.0313 19.8487 15.8719C19.6522 15.7163 19.4442 15.5816 19.2175 15.4695C19.103 15.4147 18.9891 15.3586 18.8653 15.3165C18.7482 15.2599 18.6179 15.2314 18.4929 15.1825L17.685 14.9424L17.6806 14.9411C17.6739 14.939 17.6704 14.9326 17.6725 14.9267C17.6745 14.9218 17.6798 14.9187 17.6853 14.919L18.1147 14.9413C18.256 14.9627 18.3997 14.9737 18.5393 15.0038C18.82 15.0593 19.0928 15.1457 19.3475 15.2666C19.8438 15.5219 20.2562 15.9256 20.4186 16.4172C20.4206 16.4231 20.4165 16.4293 20.4098 16.4311C20.4043 16.4324 20.3987 16.4306 20.3958 16.4265L20.3932 16.4224Z" fill="#2E2E2E"/>
</g>
</svg>
